<svg xmlns="http://www.w3.org/2000/svg" xmlns:xlink="http://www.w3.org/1999/xlink" width="300" height="300" viewBox="-23.9113010283549 24.38821897164511 223.1449620567098 73.14496205670977" preserveAspectRatio="xMinYMin meet"><g transform="matrix(1,0,0,-1,0,121.92139999999998)"><g><path fill-rule="evenodd" fill="#0c0786ff" stroke="#555555" stroke-width="1.4876330803780653" opacity="0.6" d="M -15.646672804032312,32.652847195967695 L -15.646672804032312,89.2685528040323 L 190.9690328040323,89.2685528040323 L 190.9690328040323,32.652847195967695 L -15.646672804032312,32.652847195967695 z M -3.3388200000000063,47.4607 L -4.295528580912732,47.27039883127822 L -5.106586952966375,46.72846695296637 L -5.648518831278222,45.91740858091273 L -5.8388200000000055,44.9607 L -5.648518831278222,44.00399141908728 L -5.106586952966374,43.192933047033634 L -4.29552858091273,42.651001168721784 L -3.338820000000006,42.4607 L -2.3821114190872814,42.651001168721784 L -1.571053047033637,43.192933047033634 L -1.029121168721789,44.00399141908728 L -0.8388200000000059,44.9607 L -1.0291211687217898,45.91740858091273 L -1.5710530470336375,46.72846695296637 L -2.382111419087281,47.27039883127822 L -3.3388200000000063,47.4607 z M 178.66118,47.4607 L 177.70447141908727,47.27039883127822 L 176.89341304703362,46.72846695296637 L 176.3514811687218,45.91740858091273 L 176.16118,44.9607 L 176.3514811687218,44.00399141908728 L 176.89341304703365,43.192933047033634 L 177.70447141908727,42.651001168721784 L 178.66118,42.4607 L 179.61788858091273,42.651001168721784 L 180.42894695296638,43.192933047033634 L 180.9708788312782,44.00399141908728 L 181.16118,44.9607 L 180.9708788312782,45.91740858091273 L 180.42894695296636,46.72846695296637 L 179.61788858091273,47.27039883127822 L 178.66118,47.4607 z M -3.3388200000000063,79.4607 L -4.295528580912732,79.27039883127821 L -5.106586952966375,78.72846695296637 L -5.648518831278222,77.91740858091272 L -5.8388200000000055,76.9607 L -5.648518831278222,76.00399141908728 L -5.106586952966374,75.19293304703363 L -4.29552858091273,74.65100116872179 L -3.338820000000006,74.4607 L -2.3821114190872814,74.65100116872179 L -1.571053047033637,75.19293304703363 L -1.029121168721789,76.00399141908728 L -0.8388200000000059,76.9607 L -1.0291211687217898,77.91740858091273 L -1.5710530470336375,78.72846695296637 L -2.382111419087281,79.27039883127821 L -3.3388200000000063,79.4607 z M 178.66118,79.4607 L 177.70447141908727,79.27039883127821 L 176.89341304703362,78.72846695296637 L 176.3514811687218,77.91740858091272 L 176.16118,76.9607 L 176.3514811687218,76.00399141908728 L 176.89341304703365,75.19293304703363 L 177.70447141908727,74.65100116872179 L 178.66118,74.4607 L 179.61788858091273,74.65100116872179 L 180.42894695296638,75.19293304703363 L 180.9708788312782,76.00399141908728 L 181.16118,76.9607 L 180.9708788312782,77.91740858091273 L 180.42894695296636,78.72846695296637 L 179.61788858091273,79.27039883127821 L 178.66118,79.4607 z M 7.303172187499994,45.05366875 L 8.287547187499994,42.4560125 L 8.035078437499994,41.929918750000006 L 7.593265937499995,41.849762500000004 L 7.737062812499994,41.413207812500005 L 8.397890937499996,41.74616875 L 9.678953437499995,45.05366875 L 9.239109687499994,45.05366875 L 8.504734687499994,42.951325000000004 L 7.776609687499995,45.05366875 L 7.303172187499994,45.05366875 z M 6.3189729687499945,45.0622625 L 5.279441718749995,45.020075000000006 L 4.698191718749994,44.313825 L 5.930691718749994,44.7422625 L 6.349441718749993,44.54935625 L 6.427097968749994,44.106012500000006 L 4.936472968749994,43.745075 L 4.6591604687499935,42.902918750000005 L 5.198879218749994,42.43548125 L 6.177129218749995,42.575387500000005 L 6.463816718749994,42.78023125 L 6.5513167187499945,42.4607 L 7.010691718749994,42.4607 L 6.820262031249994,44.641098437500006 L 6.3189729687499945,45.0622625 z M 10.845750312499995,42.820465625000004 L 10.366976874999995,43.561606250000004 L 12.293797187499996,43.645075000000006 L 11.966453437499995,44.758356250000006 L 11.218609687499995,45.108723437500004 L 10.311726874999994,44.8192703125 L 9.908883124999996,43.862918750000006 L 10.239109687499996,42.752106250000004 L 11.230156562499996,42.4043015625 L 12.128367499999996,42.886285937500006 L 12.281297187499995,43.23960625 L 11.827390937499995,43.29585625 L 11.447312812499995,42.825840625000005 L 10.845750312499995,42.820465625000004 z M 14.085496406249995,44.563043750000006 L 14.237058906249995,44.970856250000004 L 13.666496406249994,45.0981375 L 13.283465156249997,44.763481250000005 L 13.223777656249995,45.05366875 L 12.828465156249996,45.05366875 L 12.828465156249996,42.4607 L 13.267527656249996,42.4607 L 13.390340156249996,44.4433875 L 14.085496406249995,44.563043750000006 z M 16.510945624999994,45.97879375 L 15.812445624999995,44.89829375 L 16.119383124999995,42.77085625 L 16.733883125,42.414606250000006 L 17.529890937499996,42.570621875 L 18.087398749999995,43.8695984375 L 17.766906562499997,45.6463875 L 17.252226874999995,46.012543750000006 L 16.510945624999994,45.97879375 z M 4.263523749999994,42.883356250000006 L 2.501023749999994,42.883356250000006 L 2.501023749999994,46.039606250000006 L 2.0275862499999944,46.039606250000006 L 2.0275862499999944,42.4607 L 4.263523749999994,42.4607 L 4.263523749999994,42.883356250000006 z M 5.695339861729482,70.7607 L 5.695335016059043,70.76067563916963 L 5.695335016059043,51.1607 L 4.6964383460347765,51.1607 L 4.715540105109614,50.96675658541246 L 4.715587426684565,50.966518683789886 L 4.864827712727384,50.60622076117332 L 4.864935047694882,50.606060123042425 L 5.140695139092038,50.33030003164214 L 5.140855777222891,50.330192696674665 L 5.50115369986513,50.1809524106223 L 5.501391601487638,50.180905089047364 L 5.696384142908866,50.1617 L 7.426336696778097,50.1617 L 7.6213292381993245,50.180905089047364 L 7.621567139821833,50.1809524106223 L 7.981865062464072,50.330192696674665 L 7.9820257005949244,50.33030003164214 L 8.257785791992085,50.60606012304243 L 8.257893126959578,50.60622076117332 L 8.407133413002395,50.96651868378988 L 8.407180734577349,50.96675658541247 L 8.426282493652185,51.1607 L 7.42738582362792,51.1607 L 7.42738582362792,70.76067563916963 L 7.427380977957481,70.7607 L 8.426282493652186,70.7607 L 8.407180734577349,70.95464341458755 L 8.407133413002395,70.95488131621013 L 8.257893126965186,71.31517923881832 L 8.25778579199771,71.31533987694918 L 7.982025700569751,71.5910999683747 L 7.981865062438893,71.59120730334217 L 7.621567139856911,71.74044758937072 L 7.62132923823428,71.74049491094569 L 7.426336696778142,71.75970000000001 L 5.696384142908821,71.75970000000001 L 5.501391601452683,71.74049491094569 L 5.501153699830052,71.74044758937072 L 5.14085577724807,71.59120730334217 L 5.140695139117212,71.5910999683747 L 4.864935047689249,71.31533987694917 L 4.864827712721778,71.31517923881832 L 4.715587426684567,70.95488131621013 L 4.715540105109613,70.95464341458754 L 4.696438346034776,70.7607 L 5.695339861729482,70.7607 z M 34.895335016059036,51.1607 L 33.89643834603477,51.1607 L 33.91554010510658,50.96675658542773 L 33.91558742668151,50.966518683805226 L 34.06482771273371,50.60622076116385 L 34.064935047701184,50.60606012303299 L 34.34069513909203,50.330300031642146 L 34.340855777222885,50.33019269667467 L 34.701153699864264,50.180952410622474 L 34.70139160148677,50.18090508904754 L 34.896384142908865,50.1617 L 36.62633669677809,50.1617 L 36.821329238200185,50.18090508904754 L 36.82156713982269,50.180952410622474 L 37.18186506246407,50.33019269667467 L 37.18202570059493,50.330300031642146 L 37.45778579198577,50.60606012303299 L 37.457893126953245,50.60622076116385 L 37.60713341300544,50.966518683805226 L 37.607180734580375,50.96675658542773 L 37.626282493652184,51.1607 L 36.62738582362792,51.1607 L 36.62738582362792,70.76067563916963 L 36.62738097795748,70.7607 L 37.626282493652184,70.7607 L 37.607180734580375,70.95464341457227 L 37.60713341300544,70.9548813161948 L 37.45789312695887,71.31517923882775 L 37.45778579199139,71.31533987695862 L 37.18202570056976,71.59109996837469 L 37.181865062438874,71.59120730334219 L 36.82156713985778,71.74044758937055 L 36.821329238235144,71.74049491094551 L 36.62633669677814,71.75970000000001 L 34.896384142908815,71.75970000000001 L 34.70139160145181,71.74049491094551 L 34.70115369982918,71.74044758937055 L 34.34085577724808,71.59120730334219 L 34.340695139117194,71.59109996837469 L 34.06493504769556,71.31533987695862 L 34.06482771272808,71.31517923882775 L 33.91558742668151,70.9548813161948 L 33.91554010510658,70.95464341457227 L 33.89643834603477,70.7607 L 34.895339861729475,70.7607 L 34.895335016059036,70.76067563916963 L 34.895335016059036,51.1607 z M 51.895335016059036,51.1607 L 50.89643834603477,51.1607 L 50.91554010510658,50.96675658542773 L 50.91558742668151,50.966518683805226 L 51.06482771273371,50.60622076116385 L 51.064935047701184,50.60606012303299 L 51.34069513909203,50.330300031642146 L 51.340855777222885,50.33019269667467 L 51.701153699864264,50.180952410622474 L 51.70139160148677,50.18090508904754 L 51.896384142908865,50.1617 L 53.62633669677809,50.1617 L 53.821329238200185,50.18090508904754 L 53.82156713982269,50.180952410622474 L 54.18186506246407,50.33019269667467 L 54.18202570059493,50.330300031642146 L 54.45778579198577,50.60606012303299 L 54.457893126953245,50.60622076116385 L 54.60713341300544,50.966518683805226 L 54.607180734580375,50.96675658542773 L 54.626282493652184,51.1607 L 53.62738582362792,51.1607 L 53.62738582362792,70.76067563916963 L 53.62738097795748,70.7607 L 54.626282493652184,70.7607 L 54.607180734580375,70.95464341457227 L 54.60713341300544,70.9548813161948 L 54.45789312695887,71.31517923882775 L 54.45778579199139,71.31533987695862 L 54.18202570056976,71.59109996837469 L 54.181865062438874,71.59120730334219 L 53.82156713985778,71.74044758937055 L 53.821329238235144,71.74049491094551 L 53.62633669677814,71.75970000000001 L 51.896384142908815,71.75970000000001 L 51.70139160145181,71.74049491094551 L 51.70115369982918,71.74044758937055 L 51.34085577724808,71.59120730334219 L 51.340695139117194,71.59109996837469 L 51.06493504769556,71.31533987695862 L 51.06482771272808,71.31517923882775 L 50.91558742668151,70.9548813161948 L 50.91554010510658,70.95464341457227 L 50.89643834603477,70.7607 L 51.895339861729475,70.7607 L 51.895335016059036,70.76067563916963 L 51.895335016059036,51.1607 z M 96.8953398617295,70.7607 L 96.89533501605905,70.76067563916963 L 96.89533501605905,51.1607 L 95.89643834603478,51.1607 L 95.91554010511354,50.96675658539277 L 95.9155874266885,50.96651868377014 L 96.06482771271686,50.60622076118904 L 96.06493504768436,50.60606012305816 L 96.34069513910043,50.330300031636526 L 96.3408557772313,50.330192696669044 L 96.70115369986425,50.180952410622474 L 96.70139160148678,50.18090508904754 L 96.89638414290886,50.1617 L 98.62633669677811,50.1617 L 98.82132923820019,50.18090508904754 L 98.82156713982272,50.180952410622474 L 99.18186506245567,50.330192696669044 L 99.18202570058654,50.330300031636526 L 99.45778579200261,50.60606012305816 L 99.4578931269701,50.60622076118904 L 99.60713341299846,50.96651868377014 L 99.60718073457343,50.96675658539277 L 99.62628249365218,51.1607 L 98.62738582362792,51.1607 L 98.62738582362792,70.76067563916963 L 98.62738097795747,70.7607 L 99.62628249365218,70.7607 L 99.60718073457343,70.95464341460725 L 99.60713341299846,70.95488131622987 L 99.45789312697572,71.31517923880254 L 99.45778579200824,71.31533987693342 L 99.18202570056134,71.59109996838032 L 99.18186506243046,71.5912073033478 L 98.82156713985779,71.74044758937055 L 98.82132923823517,71.74049491094551 L 98.62633669677814,71.75970000000001 L 96.89638414290883,71.75970000000001 L 96.7013916014518,71.74049491094551 L 96.70115369982918,71.74044758937055 L 96.34085577725651,71.5912073033478 L 96.34069513912563,71.59109996838032 L 96.06493504767873,71.31533987693342 L 96.06482771271125,71.31517923880254 L 95.9155874266885,70.95488131622987 L 95.91554010511354,70.95464341460725 L 95.89643834603478,70.7607 L 96.8953398617295,70.7607 z M 159.89533501605905,51.1607 L 158.89643834603478,51.1607 L 158.9155401051135,50.966756585392915 L 158.9155874266885,50.96651868377014 L 159.0648277127169,50.60622076118904 L 159.0649350476844,50.60606012305813 L 159.34069513908358,50.330300031647816 L 159.3408557772145,50.33019269668028 L 159.70115369987127,50.18095241062108 L 159.70139160149373,50.180905089046156 L 159.8963841429089,50.1617 L 161.6263366967781,50.1617 L 161.82132923819327,50.180905089046156 L 161.82156713981573,50.18095241062108 L 162.1818650624725,50.33019269668028 L 162.18202570060342,50.330300031647816 L 162.4577857920026,50.60606012305813 L 162.4578931269701,50.60622076118904 L 162.6071334129985,50.96651868377014 L 162.6071807345735,50.966756585392915 L 162.6262824936522,51.1607 L 161.62738582362795,51.1607 L 161.62738582362795,70.76067563916963 L 161.6273809779575,70.7607 L 162.6262824936522,70.7607 L 162.6071807345735,70.9546434146071 L 162.6071334129985,70.95488131622987 L 162.4578931269757,71.3151792388026 L 162.45778579200825,71.31533987693342 L 162.18202570057824,71.59109996836905 L 162.18186506244732,71.59120730333656 L 161.82156713985083,71.74044758937195 L 161.82132923822826,71.74049491094691 L 161.62633669677817,71.75970000000001 L 159.89638414290883,71.75970000000001 L 159.70139160145874,71.74049491094691 L 159.70115369983617,71.74044758937195 L 159.34085577723968,71.59120730333656 L 159.34069513910876,71.59109996836905 L 159.06493504767874,71.31533987693342 L 159.0648277127113,71.3151792388026 L 158.9155874266885,70.95488131622987 L 158.9155401051135,70.9546434146071 L 158.89643834603478,70.7607 L 159.8953398617295,70.7607 L 159.89533501605905,70.76067563916963 L 159.89533501605905,51.1607 z" /><path fill-rule="evenodd" fill="#7e03a7ff" stroke="#555555" stroke-width="1.4876330803780653" opacity="0.6" d="M -15.646672804032312,32.652847195967695 L -15.646672804032312,89.2685528040323 L 190.9690328040323,89.2685528040323 L 190.9690328040323,32.652847195967695 L -15.646672804032312,32.652847195967695 z M -3.3388200000000063,47.4607 L -4.295528580912732,47.27039883127822 L -5.106586952966375,46.72846695296637 L -5.648518831278222,45.91740858091273 L -5.8388200000000055,44.9607 L -5.648518831278222,44.00399141908728 L -5.106586952966374,43.192933047033634 L -4.29552858091273,42.651001168721784 L -3.338820000000006,42.4607 L -2.3821114190872814,42.651001168721784 L -1.571053047033637,43.192933047033634 L -1.029121168721789,44.00399141908728 L -0.8388200000000059,44.9607 L -1.0291211687217898,45.91740858091273 L -1.5710530470336375,46.72846695296637 L -2.382111419087281,47.27039883127822 L -3.3388200000000063,47.4607 z M 178.66118,47.4607 L 177.70447141908727,47.27039883127822 L 176.89341304703362,46.72846695296637 L 176.3514811687218,45.91740858091273 L 176.16118,44.9607 L 176.3514811687218,44.00399141908728 L 176.89341304703365,43.192933047033634 L 177.70447141908727,42.651001168721784 L 178.66118,42.4607 L 179.61788858091273,42.651001168721784 L 180.42894695296638,43.192933047033634 L 180.9708788312782,44.00399141908728 L 181.16118,44.9607 L 180.9708788312782,45.91740858091273 L 180.42894695296636,46.72846695296637 L 179.61788858091273,47.27039883127822 L 178.66118,47.4607 z M -3.3388200000000063,79.4607 L -4.295528580912732,79.27039883127821 L -5.106586952966375,78.72846695296637 L -5.648518831278222,77.91740858091272 L -5.8388200000000055,76.9607 L -5.648518831278222,76.00399141908728 L -5.106586952966374,75.19293304703363 L -4.29552858091273,74.65100116872179 L -3.338820000000006,74.4607 L -2.3821114190872814,74.65100116872179 L -1.571053047033637,75.19293304703363 L -1.029121168721789,76.00399141908728 L -0.8388200000000059,76.9607 L -1.0291211687217898,77.91740858091273 L -1.5710530470336375,78.72846695296637 L -2.382111419087281,79.27039883127821 L -3.3388200000000063,79.4607 z M 178.66118,79.4607 L 177.70447141908727,79.27039883127821 L 176.89341304703362,78.72846695296637 L 176.3514811687218,77.91740858091272 L 176.16118,76.9607 L 176.3514811687218,76.00399141908728 L 176.89341304703365,75.19293304703363 L 177.70447141908727,74.65100116872179 L 178.66118,74.4607 L 179.61788858091273,74.65100116872179 L 180.42894695296638,75.19293304703363 L 180.9708788312782,76.00399141908728 L 181.16118,76.9607 L 180.9708788312782,77.91740858091273 L 180.42894695296636,78.72846695296637 L 179.61788858091273,79.27039883127821 L 178.66118,79.4607 z M 7.303172187499994,45.05366875 L 8.287547187499994,42.4560125 L 8.035078437499994,41.929918750000006 L 7.593265937499995,41.849762500000004 L 7.737062812499994,41.413207812500005 L 8.397890937499996,41.74616875 L 9.678953437499995,45.05366875 L 9.239109687499994,45.05366875 L 8.504734687499994,42.951325000000004 L 7.776609687499995,45.05366875 L 7.303172187499994,45.05366875 z M 6.3189729687499945,45.0622625 L 5.279441718749995,45.020075000000006 L 4.698191718749994,44.313825 L 5.930691718749994,44.7422625 L 6.349441718749993,44.54935625 L 6.427097968749994,44.106012500000006 L 4.936472968749994,43.745075 L 4.6591604687499935,42.902918750000005 L 5.198879218749994,42.43548125 L 6.177129218749995,42.575387500000005 L 6.463816718749994,42.78023125 L 6.5513167187499945,42.4607 L 7.010691718749994,42.4607 L 6.820262031249994,44.641098437500006 L 6.3189729687499945,45.0622625 z M 10.845750312499995,42.820465625000004 L 10.366976874999995,43.561606250000004 L 12.293797187499996,43.645075000000006 L 11.966453437499995,44.758356250000006 L 11.218609687499995,45.108723437500004 L 10.311726874999994,44.8192703125 L 9.908883124999996,43.862918750000006 L 10.239109687499996,42.752106250000004 L 11.230156562499996,42.4043015625 L 12.128367499999996,42.886285937500006 L 12.281297187499995,43.23960625 L 11.827390937499995,43.29585625 L 11.447312812499995,42.825840625000005 L 10.845750312499995,42.820465625000004 z M 14.085496406249995,44.563043750000006 L 14.237058906249995,44.970856250000004 L 13.666496406249994,45.0981375 L 13.283465156249997,44.763481250000005 L 13.223777656249995,45.05366875 L 12.828465156249996,45.05366875 L 12.828465156249996,42.4607 L 13.267527656249996,42.4607 L 13.390340156249996,44.4433875 L 14.085496406249995,44.563043750000006 z M 2.501023749999994,42.883356250000006 L 2.501023749999994,46.039606250000006 L 2.0275862499999944,46.039606250000006 L 2.0275862499999944,42.4607 L 4.263523749999994,42.4607 L 4.263523749999994,42.883356250000006 L 2.501023749999994,42.883356250000006 z M 17.420164374999995,46.05445 L 16.102195624999993,45.1560125 L 16.102195624999993,44.731012500000006 L 16.838351874999997,45.139950000000006 L 16.981101874999993,42.4607 L 17.420164374999995,42.4607 L 17.420164374999995,46.05445 z M 5.695335016059043,70.76067563916963 L 5.695335016059043,51.1607 L 4.6964383460347765,51.1607 L 4.715540105109614,50.96675658541246 L 4.715587426684565,50.966518683789886 L 4.864827712727384,50.60622076117332 L 4.864935047694882,50.606060123042425 L 5.140695139092038,50.33030003164214 L 5.140855777222891,50.330192696674665 L 5.50115369986513,50.1809524106223 L 5.501391601487638,50.180905089047364 L 5.696384142908866,50.1617 L 7.426336696778097,50.1617 L 7.6213292381993245,50.180905089047364 L 7.621567139821833,50.1809524106223 L 7.981865062464072,50.330192696674665 L 7.9820257005949244,50.33030003164214 L 8.257785791992085,50.60606012304243 L 8.257893126959578,50.60622076117332 L 8.407133413002395,50.96651868378988 L 8.407180734577349,50.96675658541247 L 8.426282493652185,51.1607 L 7.42738582362792,51.1607 L 7.42738582362792,70.76067563916963 L 7.427380977957481,70.7607 L 8.426282493652186,70.7607 L 8.407180734577349,70.95464341458755 L 8.407133413002395,70.95488131621013 L 8.257893126965186,71.31517923881832 L 8.25778579199771,71.31533987694918 L 7.982025700569751,71.5910999683747 L 7.981865062438893,71.59120730334217 L 7.621567139856911,71.74044758937072 L 7.62132923823428,71.74049491094569 L 7.426336696778142,71.75970000000001 L 5.696384142908821,71.75970000000001 L 5.501391601452683,71.74049491094569 L 5.501153699830052,71.74044758937072 L 5.14085577724807,71.59120730334217 L 5.140695139117212,71.5910999683747 L 4.864935047689249,71.31533987694917 L 4.864827712721778,71.31517923881832 L 4.715587426684567,70.95488131621013 L 4.715540105109613,70.95464341458754 L 4.696438346034776,70.7607 L 5.695339861729482,70.7607 L 5.695335016059043,70.76067563916963 z M 34.895339861729475,70.7607 L 34.895335016059036,70.76067563916963 L 34.895335016059036,51.1607 L 33.89643834603477,51.1607 L 33.91554010510658,50.96675658542773 L 33.91558742668151,50.966518683805226 L 34.06482771273371,50.60622076116385 L 34.064935047701184,50.60606012303299 L 34.34069513909203,50.330300031642146 L 34.340855777222885,50.33019269667467 L 34.701153699864264,50.180952410622474 L 34.70139160148677,50.18090508904754 L 34.896384142908865,50.1617 L 36.62633669677809,50.1617 L 36.821329238200185,50.18090508904754 L 36.82156713982269,50.180952410622474 L 37.18186506246407,50.33019269667467 L 37.18202570059493,50.330300031642146 L 37.45778579198577,50.60606012303299 L 37.457893126953245,50.60622076116385 L 37.60713341300544,50.966518683805226 L 37.607180734580375,50.96675658542773 L 37.626282493652184,51.1607 L 36.62738582362792,51.1607 L 36.62738582362792,70.76067563916963 L 36.62738097795748,70.7607 L 37.626282493652184,70.7607 L 37.607180734580375,70.95464341457227 L 37.60713341300544,70.9548813161948 L 37.45789312695887,71.31517923882775 L 37.45778579199139,71.31533987695862 L 37.18202570056976,71.59109996837469 L 37.181865062438874,71.59120730334219 L 36.82156713985778,71.74044758937055 L 36.821329238235144,71.74049491094551 L 36.62633669677814,71.75970000000001 L 34.896384142908815,71.75970000000001 L 34.70139160145181,71.74049491094551 L 34.70115369982918,71.74044758937055 L 34.34085577724808,71.59120730334219 L 34.340695139117194,71.59109996837469 L 34.06493504769556,71.31533987695862 L 34.06482771272808,71.31517923882775 L 33.91558742668151,70.9548813161948 L 33.91554010510658,70.95464341457227 L 33.89643834603477,70.7607 L 34.895339861729475,70.7607 z M 51.895339861729475,70.7607 L 51.895335016059036,70.76067563916963 L 51.895335016059036,51.1607 L 50.89643834603477,51.1607 L 50.91554010510658,50.96675658542773 L 50.91558742668151,50.966518683805226 L 51.06482771273371,50.60622076116385 L 51.064935047701184,50.60606012303299 L 51.34069513909203,50.330300031642146 L 51.340855777222885,50.33019269667467 L 51.701153699864264,50.180952410622474 L 51.70139160148677,50.18090508904754 L 51.896384142908865,50.1617 L 53.62633669677809,50.1617 L 53.821329238200185,50.18090508904754 L 53.82156713982269,50.180952410622474 L 54.18186506246407,50.33019269667467 L 54.18202570059493,50.330300031642146 L 54.45778579198577,50.60606012303299 L 54.457893126953245,50.60622076116385 L 54.60713341300544,50.966518683805226 L 54.607180734580375,50.96675658542773 L 54.626282493652184,51.1607 L 53.62738582362792,51.1607 L 53.62738582362792,70.76067563916963 L 53.62738097795748,70.7607 L 54.626282493652184,70.7607 L 54.607180734580375,70.95464341457227 L 54.60713341300544,70.9548813161948 L 54.45789312695887,71.31517923882775 L 54.45778579199139,71.31533987695862 L 54.18202570056976,71.59109996837469 L 54.181865062438874,71.59120730334219 L 53.82156713985778,71.74044758937055 L 53.821329238235144,71.74049491094551 L 53.62633669677814,71.75970000000001 L 51.896384142908815,71.75970000000001 L 51.70139160145181,71.74049491094551 L 51.70115369982918,71.74044758937055 L 51.34085577724808,71.59120730334219 L 51.340695139117194,71.59109996837469 L 51.06493504769556,71.31533987695862 L 51.06482771272808,71.31517923882775 L 50.91558742668151,70.9548813161948 L 50.91554010510658,70.95464341457227 L 50.89643834603477,70.7607 L 51.895339861729475,70.7607 z M 96.8953398617295,70.7607 L 96.89533501605905,70.76067563916963 L 96.89533501605905,51.1607 L 95.89643834603478,51.1607 L 95.91554010511354,50.96675658539277 L 95.9155874266885,50.96651868377014 L 96.06482771271686,50.60622076118904 L 96.06493504768436,50.60606012305816 L 96.34069513910043,50.330300031636526 L 96.3408557772313,50.330192696669044 L 96.70115369986425,50.180952410622474 L 96.70139160148678,50.18090508904754 L 96.89638414290886,50.1617 L 98.62633669677811,50.1617 L 98.82132923820019,50.18090508904754 L 98.82156713982272,50.180952410622474 L 99.18186506245567,50.330192696669044 L 99.18202570058654,50.330300031636526 L 99.45778579200261,50.60606012305816 L 99.4578931269701,50.60622076118904 L 99.60713341299846,50.96651868377014 L 99.60718073457343,50.96675658539277 L 99.62628249365218,51.1607 L 98.62738582362792,51.1607 L 98.62738582362792,70.76067563916963 L 98.62738097795747,70.7607 L 99.62628249365218,70.7607 L 99.60718073457343,70.95464341460725 L 99.60713341299846,70.95488131622987 L 99.45789312697572,71.31517923880254 L 99.45778579200824,71.31533987693342 L 99.18202570056134,71.59109996838032 L 99.18186506243046,71.5912073033478 L 98.82156713985779,71.74044758937055 L 98.82132923823517,71.74049491094551 L 98.62633669677814,71.75970000000001 L 96.89638414290883,71.75970000000001 L 96.7013916014518,71.74049491094551 L 96.70115369982918,71.74044758937055 L 96.34085577725651,71.5912073033478 L 96.34069513912563,71.59109996838032 L 96.06493504767873,71.31533987693342 L 96.06482771271125,71.31517923880254 L 95.9155874266885,70.95488131622987 L 95.91554010511354,70.95464341460725 L 95.89643834603478,70.7607 L 96.8953398617295,70.7607 z M 159.8953398617295,70.7607 L 159.89533501605905,70.76067563916963 L 159.89533501605905,51.1607 L 158.89643834603478,51.1607 L 158.9155401051135,50.966756585392915 L 158.9155874266885,50.96651868377014 L 159.0648277127169,50.60622076118904 L 159.0649350476844,50.60606012305813 L 159.34069513908358,50.330300031647816 L 159.3408557772145,50.33019269668028 L 159.70115369987127,50.18095241062108 L 159.70139160149373,50.180905089046156 L 159.8963841429089,50.1617 L 161.6263366967781,50.1617 L 161.82132923819327,50.180905089046156 L 161.82156713981573,50.18095241062108 L 162.1818650624725,50.33019269668028 L 162.18202570060342,50.330300031647816 L 162.4577857920026,50.60606012305813 L 162.4578931269701,50.60622076118904 L 162.6071334129985,50.96651868377014 L 162.6071807345735,50.966756585392915 L 162.6262824936522,51.1607 L 161.62738582362795,51.1607 L 161.62738582362795,70.76067563916963 L 161.6273809779575,70.7607 L 162.6262824936522,70.7607 L 162.6071807345735,70.9546434146071 L 162.6071334129985,70.95488131622987 L 162.4578931269757,71.3151792388026 L 162.45778579200825,71.31533987693342 L 162.18202570057824,71.59109996836905 L 162.18186506244732,71.59120730333656 L 161.82156713985083,71.74044758937195 L 161.82132923822826,71.74049491094691 L 161.62633669677817,71.75970000000001 L 159.89638414290883,71.75970000000001 L 159.70139160145874,71.74049491094691 L 159.70115369983617,71.74044758937195 L 159.34085577723968,71.59120730333656 L 159.34069513910876,71.59109996836905 L 159.06493504767874,71.31533987693342 L 159.0648277127113,71.3151792388026 L 158.9155874266885,70.95488131622987 L 158.9155401051135,70.9546434146071 L 158.89643834603478,70.7607 L 159.8953398617295,70.7607 z" /><path fill-rule="evenodd" fill="#cb4777ff" stroke="#555555" stroke-width="1.4876330803780653" opacity="0.6" d="M -15.646672804032312,89.2685528040323 L 190.9690328040323,89.2685528040323 L 190.9690328040323,32.652847195967695 L -15.646672804032312,32.652847195967695 L -15.646672804032312,89.2685528040323 z M -1.0291211687217898,45.91740858091273 L -1.5710530470336375,46.72846695296637 L -2.382111419087281,47.27039883127822 L -3.3388200000000063,47.4607 L -4.295528580912732,47.27039883127822 L -5.106586952966375,46.72846695296637 L -5.648518831278222,45.91740858091273 L -5.8388200000000055,44.9607 L -5.648518831278222,44.00399141908728 L -5.106586952966374,43.192933047033634 L -4.29552858091273,42.651001168721784 L -3.338820000000006,42.4607 L -2.3821114190872814,42.651001168721784 L -1.571053047033637,43.192933047033634 L -1.029121168721789,44.00399141908728 L -0.8388200000000059,44.9607 L -1.0291211687217898,45.91740858091273 z M 180.9708788312782,45.91740858091273 L 180.42894695296636,46.72846695296637 L 179.61788858091273,47.27039883127822 L 178.66118,47.4607 L 177.70447141908727,47.27039883127822 L 176.89341304703362,46.72846695296637 L 176.3514811687218,45.91740858091273 L 176.16118,44.9607 L 176.3514811687218,44.00399141908728 L 176.89341304703365,43.192933047033634 L 177.70447141908727,42.651001168721784 L 178.66118,42.4607 L 179.61788858091273,42.651001168721784 L 180.42894695296638,43.192933047033634 L 180.9708788312782,44.00399141908728 L 181.16118,44.9607 L 180.9708788312782,45.91740858091273 z M -1.0291211687217898,77.91740858091273 L -1.5710530470336375,78.72846695296637 L -2.382111419087281,79.27039883127821 L -3.3388200000000063,79.4607 L -4.295528580912732,79.27039883127821 L -5.106586952966375,78.72846695296637 L -5.648518831278222,77.91740858091272 L -5.8388200000000055,76.9607 L -5.648518831278222,76.00399141908728 L -5.106586952966374,75.19293304703363 L -4.29552858091273,74.65100116872179 L -3.338820000000006,74.4607 L -2.3821114190872814,74.65100116872179 L -1.571053047033637,75.19293304703363 L -1.029121168721789,76.00399141908728 L -0.8388200000000059,76.9607 L -1.0291211687217898,77.91740858091273 z M 180.9708788312782,77.91740858091273 L 180.42894695296636,78.72846695296637 L 179.61788858091273,79.27039883127821 L 178.66118,79.4607 L 177.70447141908727,79.27039883127821 L 176.89341304703362,78.72846695296637 L 176.3514811687218,77.91740858091272 L 176.16118,76.9607 L 176.3514811687218,76.00399141908728 L 176.89341304703365,75.19293304703363 L 177.70447141908727,74.65100116872179 L 178.66118,74.4607 L 179.61788858091273,74.65100116872179 L 180.42894695296638,75.19293304703363 L 180.9708788312782,76.00399141908728 L 181.16118,76.9607 L 180.9708788312782,77.91740858091273 z M 9.239109687499994,45.05366875 L 8.504734687499994,42.951325000000004 L 7.776609687499995,45.05366875 L 7.303172187499994,45.05366875 L 8.287547187499994,42.4560125 L 8.035078437499994,41.929918750000006 L 7.593265937499995,41.849762500000004 L 7.737062812499994,41.413207812500005 L 8.397890937499996,41.74616875 L 9.678953437499995,45.05366875 L 9.239109687499994,45.05366875 z M 6.5513167187499945,42.4607 L 7.010691718749994,42.4607 L 6.820262031249994,44.641098437500006 L 6.3189729687499945,45.0622625 L 5.279441718749995,45.020075000000006 L 4.698191718749994,44.313825 L 5.930691718749994,44.7422625 L 6.349441718749993,44.54935625 L 6.427097968749994,44.106012500000006 L 4.936472968749994,43.745075 L 4.6591604687499935,42.902918750000005 L 5.198879218749994,42.43548125 L 6.177129218749995,42.575387500000005 L 6.463816718749994,42.78023125 L 6.5513167187499945,42.4607 z M 12.281297187499995,43.23960625 L 11.827390937499995,43.29585625 L 11.447312812499995,42.825840625000005 L 10.845750312499995,42.820465625000004 L 10.366976874999995,43.561606250000004 L 12.293797187499996,43.645075000000006 L 11.966453437499995,44.758356250000006 L 11.218609687499995,45.108723437500004 L 10.311726874999994,44.8192703125 L 9.908883124999996,43.862918750000006 L 10.239109687499996,42.752106250000004 L 11.230156562499996,42.4043015625 L 12.128367499999996,42.886285937500006 L 12.281297187499995,43.23960625 z M 12.828465156249996,42.4607 L 13.267527656249996,42.4607 L 13.390340156249996,44.4433875 L 14.085496406249995,44.563043750000006 L 14.237058906249995,44.970856250000004 L 13.666496406249994,45.0981375 L 13.283465156249997,44.763481250000005 L 13.223777656249995,45.05366875 L 12.828465156249996,45.05366875 L 12.828465156249996,42.4607 z M 16.319383124999995,42.883356250000006 L 17.981883124999996,44.63804375 L 18.02203937499999,45.376825000000004 L 17.570047187499995,45.914340625 L 16.579039374999994,46.012075 L 15.939601874999994,45.53923125 L 15.792039374999995,45.01929375 L 16.243601874999996,44.973200000000006 L 16.436570624999995,45.4997625 L 16.944383124999995,45.6903875 L 17.431101874999996,45.5107 L 17.616547187499997,45.02070781250001 L 15.715101874999997,42.5857 L 18.074851874999997,42.4607 L 18.074851874999997,42.883356250000006 L 16.319383124999995,42.883356250000006 z M 2.0275862499999944,42.4607 L 4.263523749999994,42.4607 L 4.263523749999994,42.883356250000006 L 2.501023749999994,42.883356250000006 L 2.501023749999994,46.039606250000006 L 2.0275862499999944,46.039606250000006 L 2.0275862499999944,42.4607 z" /><path fill-rule="evenodd" fill="#f89540ff" stroke="#555555" stroke-width="1.4876330803780653" opacity="0.6" d="M -15.646672804032312,32.652847195967695 L -15.646672804032312,89.2685528040323 L 190.9690328040323,89.2685528040323 L 190.9690328040323,32.652847195967695 L -15.646672804032312,32.652847195967695 z M -3.3388200000000063,47.4607 L -4.295528580912732,47.27039883127822 L -5.106586952966375,46.72846695296637 L -5.648518831278222,45.91740858091273 L -5.8388200000000055,44.9607 L -5.648518831278222,44.00399141908728 L -5.106586952966374,43.192933047033634 L -4.29552858091273,42.651001168721784 L -3.338820000000006,42.4607 L -2.3821114190872814,42.651001168721784 L -1.571053047033637,43.192933047033634 L -1.029121168721789,44.00399141908728 L -0.8388200000000059,44.9607 L -1.0291211687217898,45.91740858091273 L -1.5710530470336375,46.72846695296637 L -2.382111419087281,47.27039883127822 L -3.3388200000000063,47.4607 z M 178.66118,47.4607 L 177.70447141908727,47.27039883127822 L 176.89341304703362,46.72846695296637 L 176.3514811687218,45.91740858091273 L 176.16118,44.9607 L 176.3514811687218,44.00399141908728 L 176.89341304703365,43.192933047033634 L 177.70447141908727,42.651001168721784 L 178.66118,42.4607 L 179.61788858091273,42.651001168721784 L 180.42894695296638,43.192933047033634 L 180.9708788312782,44.00399141908728 L 181.16118,44.9607 L 180.9708788312782,45.91740858091273 L 180.42894695296636,46.72846695296637 L 179.61788858091273,47.27039883127822 L 178.66118,47.4607 z M -3.3388200000000063,79.4607 L -4.295528580912732,79.27039883127821 L -5.106586952966375,78.72846695296637 L -5.648518831278222,77.91740858091272 L -5.8388200000000055,76.9607 L -5.648518831278222,76.00399141908728 L -5.106586952966374,75.19293304703363 L -4.29552858091273,74.65100116872179 L -3.338820000000006,74.4607 L -2.3821114190872814,74.65100116872179 L -1.571053047033637,75.19293304703363 L -1.029121168721789,76.00399141908728 L -0.8388200000000059,76.9607 L -1.0291211687217898,77.91740858091273 L -1.5710530470336375,78.72846695296637 L -2.382111419087281,79.27039883127821 L -3.3388200000000063,79.4607 z M 178.66118,79.4607 L 177.70447141908727,79.27039883127821 L 176.89341304703362,78.72846695296637 L 176.3514811687218,77.91740858091272 L 176.16118,76.9607 L 176.3514811687218,76.00399141908728 L 176.89341304703365,75.19293304703363 L 177.70447141908727,74.65100116872179 L 178.66118,74.4607 L 179.61788858091273,74.65100116872179 L 180.42894695296638,75.19293304703363 L 180.9708788312782,76.00399141908728 L 181.16118,76.9607 L 180.9708788312782,77.91740858091273 L 180.42894695296636,78.72846695296637 L 179.61788858091273,79.27039883127821 L 178.66118,79.4607 z M 7.303172187499994,45.05366875 L 8.287547187499994,42.4560125 L 8.035078437499994,41.929918750000006 L 7.593265937499995,41.849762500000004 L 7.737062812499994,41.413207812500005 L 8.397890937499996,41.74616875 L 9.678953437499995,45.05366875 L 9.239109687499994,45.05366875 L 8.504734687499994,42.951325000000004 L 7.776609687499995,45.05366875 L 7.303172187499994,45.05366875 z M 6.3189729687499945,45.0622625 L 5.279441718749995,45.020075000000006 L 4.698191718749994,44.313825 L 5.930691718749994,44.7422625 L 6.349441718749993,44.54935625 L 6.427097968749994,44.106012500000006 L 4.936472968749994,43.745075 L 4.6591604687499935,42.902918750000005 L 5.198879218749994,42.43548125 L 6.177129218749995,42.575387500000005 L 6.463816718749994,42.78023125 L 6.5513167187499945,42.4607 L 7.010691718749994,42.4607 L 6.820262031249994,44.641098437500006 L 6.3189729687499945,45.0622625 z M 10.845750312499995,42.820465625000004 L 10.366976874999995,43.561606250000004 L 12.293797187499996,43.645075000000006 L 11.966453437499995,44.758356250000006 L 11.218609687499995,45.108723437500004 L 10.311726874999994,44.8192703125 L 9.908883124999996,43.862918750000006 L 10.239109687499996,42.752106250000004 L 11.230156562499996,42.4043015625 L 12.128367499999996,42.886285937500006 L 12.281297187499995,43.23960625 L 11.827390937499995,43.29585625 L 11.447312812499995,42.825840625000005 L 10.845750312499995,42.820465625000004 z M 14.085496406249995,44.563043750000006 L 14.237058906249995,44.970856250000004 L 13.666496406249994,45.0981375 L 13.283465156249997,44.763481250000005 L 13.223777656249995,45.05366875 L 12.828465156249996,45.05366875 L 12.828465156249996,42.4607 L 13.267527656249996,42.4607 L 13.390340156249996,44.4433875 L 14.085496406249995,44.563043750000006 z M 16.251414374999996,45.048981250000004 L 16.706914374999997,45.667637500000005 L 17.320164374999994,45.5341375 L 17.427976874999995,44.868317187500004 L 16.683445624999994,44.541168750000004 L 16.634226874999996,44.15523125 L 17.406898749999996,44.044200000000004 L 17.610914374999997,43.27048125 L 16.968726874999994,42.762848437500004 L 16.309226874999997,43.1425359375 L 16.206883124999994,43.463825 L 15.767820624999995,43.40523125 L 16.122508124999996,42.677887500000004 L 16.905320624999995,42.39741875 L 17.625570624999995,42.60591875 L 18.056820624999997,43.16560625 L 18.025437812499995,43.9463171875 L 17.442820624999996,44.398981250000006 L 17.855789374999997,44.779981250000006 L 17.902976874999993,45.3616765625 L 17.275320624999996,45.9928171875 L 16.297133125,45.898950000000006 L 15.811570624999995,45.127106250000004 L 16.251414374999996,45.048981250000004 z M 2.501023749999994,42.883356250000006 L 2.501023749999994,46.039606250000006 L 2.0275862499999944,46.039606250000006 L 2.0275862499999944,42.4607 L 4.263523749999994,42.4607 L 4.263523749999994,42.883356250000006 L 2.501023749999994,42.883356250000006 z M 5.695335016059043,70.76067563916963 L 5.695335016059043,51.1607 L 4.6964383460347765,51.1607 L 4.715540105109614,50.96675658541246 L 4.715587426684565,50.966518683789886 L 4.864827712727384,50.60622076117332 L 4.864935047694882,50.606060123042425 L 5.140695139092038,50.33030003164214 L 5.140855777222891,50.330192696674665 L 5.50115369986513,50.1809524106223 L 5.501391601487638,50.180905089047364 L 5.696384142908866,50.1617 L 7.426336696778097,50.1617 L 7.6213292381993245,50.180905089047364 L 7.621567139821833,50.1809524106223 L 7.981865062464072,50.330192696674665 L 7.9820257005949244,50.33030003164214 L 8.257785791992085,50.60606012304243 L 8.257893126959578,50.60622076117332 L 8.407133413002395,50.96651868378988 L 8.407180734577349,50.96675658541247 L 8.426282493652185,51.1607 L 7.42738582362792,51.1607 L 7.42738582362792,70.76067563916963 L 7.427380977957481,70.7607 L 8.426282493652186,70.7607 L 8.407180734577349,70.95464341458755 L 8.407133413002395,70.95488131621013 L 8.257893126965186,71.31517923881832 L 8.25778579199771,71.31533987694918 L 7.982025700569751,71.5910999683747 L 7.981865062438893,71.59120730334217 L 7.621567139856911,71.74044758937072 L 7.62132923823428,71.74049491094569 L 7.426336696778142,71.75970000000001 L 5.696384142908821,71.75970000000001 L 5.501391601452683,71.74049491094569 L 5.501153699830052,71.74044758937072 L 5.14085577724807,71.59120730334217 L 5.140695139117212,71.5910999683747 L 4.864935047689249,71.31533987694917 L 4.864827712721778,71.31517923881832 L 4.715587426684567,70.95488131621013 L 4.715540105109613,70.95464341458754 L 4.696438346034776,70.7607 L 5.695339861729482,70.7607 L 5.695335016059043,70.76067563916963 z M 34.895339861729475,70.7607 L 34.895335016059036,70.76067563916963 L 34.895335016059036,51.1607 L 33.89643834603477,51.1607 L 33.91554010510658,50.96675658542773 L 33.91558742668151,50.966518683805226 L 34.06482771273371,50.60622076116385 L 34.064935047701184,50.60606012303299 L 34.34069513909203,50.330300031642146 L 34.340855777222885,50.33019269667467 L 34.701153699864264,50.180952410622474 L 34.70139160148677,50.18090508904754 L 34.896384142908865,50.1617 L 36.62633669677809,50.1617 L 36.821329238200185,50.18090508904754 L 36.82156713982269,50.180952410622474 L 37.18186506246407,50.33019269667467 L 37.18202570059493,50.330300031642146 L 37.45778579198577,50.60606012303299 L 37.457893126953245,50.60622076116385 L 37.60713341300544,50.966518683805226 L 37.607180734580375,50.96675658542773 L 37.626282493652184,51.1607 L 36.62738582362792,51.1607 L 36.62738582362792,70.76067563916963 L 36.62738097795748,70.7607 L 37.626282493652184,70.7607 L 37.607180734580375,70.95464341457227 L 37.60713341300544,70.9548813161948 L 37.45789312695887,71.31517923882775 L 37.45778579199139,71.31533987695862 L 37.18202570056976,71.59109996837469 L 37.181865062438874,71.59120730334219 L 36.82156713985778,71.74044758937055 L 36.821329238235144,71.74049491094551 L 36.62633669677814,71.75970000000001 L 34.896384142908815,71.75970000000001 L 34.70139160145181,71.74049491094551 L 34.70115369982918,71.74044758937055 L 34.34085577724808,71.59120730334219 L 34.340695139117194,71.59109996837469 L 34.06493504769556,71.31533987695862 L 34.06482771272808,71.31517923882775 L 33.91558742668151,70.9548813161948 L 33.91554010510658,70.95464341457227 L 33.89643834603477,70.7607 L 34.895339861729475,70.7607 z M 51.895339861729475,70.7607 L 51.895335016059036,70.76067563916963 L 51.895335016059036,51.1607 L 50.89643834603477,51.1607 L 50.91554010510658,50.96675658542773 L 50.91558742668151,50.966518683805226 L 51.06482771273371,50.60622076116385 L 51.064935047701184,50.60606012303299 L 51.34069513909203,50.330300031642146 L 51.340855777222885,50.33019269667467 L 51.701153699864264,50.180952410622474 L 51.70139160148677,50.18090508904754 L 51.896384142908865,50.1617 L 53.62633669677809,50.1617 L 53.821329238200185,50.18090508904754 L 53.82156713982269,50.180952410622474 L 54.18186506246407,50.33019269667467 L 54.18202570059493,50.330300031642146 L 54.45778579198577,50.60606012303299 L 54.457893126953245,50.60622076116385 L 54.60713341300544,50.966518683805226 L 54.607180734580375,50.96675658542773 L 54.626282493652184,51.1607 L 53.62738582362792,51.1607 L 53.62738582362792,70.76067563916963 L 53.62738097795748,70.7607 L 54.626282493652184,70.7607 L 54.607180734580375,70.95464341457227 L 54.60713341300544,70.9548813161948 L 54.45789312695887,71.31517923882775 L 54.45778579199139,71.31533987695862 L 54.18202570056976,71.59109996837469 L 54.181865062438874,71.59120730334219 L 53.82156713985778,71.74044758937055 L 53.821329238235144,71.74049491094551 L 53.62633669677814,71.75970000000001 L 51.896384142908815,71.75970000000001 L 51.70139160145181,71.74049491094551 L 51.70115369982918,71.74044758937055 L 51.34085577724808,71.59120730334219 L 51.340695139117194,71.59109996837469 L 51.06493504769556,71.31533987695862 L 51.06482771272808,71.31517923882775 L 50.91558742668151,70.9548813161948 L 50.91554010510658,70.95464341457227 L 50.89643834603477,70.7607 L 51.895339861729475,70.7607 z M 96.8953398617295,70.7607 L 96.89533501605905,70.76067563916963 L 96.89533501605905,51.1607 L 95.89643834603478,51.1607 L 95.91554010511354,50.96675658539277 L 95.9155874266885,50.96651868377014 L 96.06482771271686,50.60622076118904 L 96.06493504768436,50.60606012305816 L 96.34069513910043,50.330300031636526 L 96.3408557772313,50.330192696669044 L 96.70115369986425,50.180952410622474 L 96.70139160148678,50.18090508904754 L 96.89638414290886,50.1617 L 98.62633669677811,50.1617 L 98.82132923820019,50.18090508904754 L 98.82156713982272,50.180952410622474 L 99.18186506245567,50.330192696669044 L 99.18202570058654,50.330300031636526 L 99.45778579200261,50.60606012305816 L 99.4578931269701,50.60622076118904 L 99.60713341299846,50.96651868377014 L 99.60718073457343,50.96675658539277 L 99.62628249365218,51.1607 L 98.62738582362792,51.1607 L 98.62738582362792,70.76067563916963 L 98.62738097795747,70.7607 L 99.62628249365218,70.7607 L 99.60718073457343,70.95464341460725 L 99.60713341299846,70.95488131622987 L 99.45789312697572,71.31517923880254 L 99.45778579200824,71.31533987693342 L 99.18202570056134,71.59109996838032 L 99.18186506243046,71.5912073033478 L 98.82156713985779,71.74044758937055 L 98.82132923823517,71.74049491094551 L 98.62633669677814,71.75970000000001 L 96.89638414290883,71.75970000000001 L 96.7013916014518,71.74049491094551 L 96.70115369982918,71.74044758937055 L 96.34085577725651,71.5912073033478 L 96.34069513912563,71.59109996838032 L 96.06493504767873,71.31533987693342 L 96.06482771271125,71.31517923880254 L 95.9155874266885,70.95488131622987 L 95.91554010511354,70.95464341460725 L 95.89643834603478,70.7607 L 96.8953398617295,70.7607 z M 159.8953398617295,70.7607 L 159.89533501605905,70.76067563916963 L 159.89533501605905,51.1607 L 158.89643834603478,51.1607 L 158.9155401051135,50.966756585392915 L 158.9155874266885,50.96651868377014 L 159.0648277127169,50.60622076118904 L 159.0649350476844,50.60606012305813 L 159.34069513908358,50.330300031647816 L 159.3408557772145,50.33019269668028 L 159.70115369987127,50.18095241062108 L 159.70139160149373,50.180905089046156 L 159.8963841429089,50.1617 L 161.6263366967781,50.1617 L 161.82132923819327,50.180905089046156 L 161.82156713981573,50.18095241062108 L 162.1818650624725,50.33019269668028 L 162.18202570060342,50.330300031647816 L 162.4577857920026,50.60606012305813 L 162.4578931269701,50.60622076118904 L 162.6071334129985,50.96651868377014 L 162.6071807345735,50.966756585392915 L 162.6262824936522,51.1607 L 161.62738582362795,51.1607 L 161.62738582362795,70.76067563916963 L 161.6273809779575,70.7607 L 162.6262824936522,70.7607 L 162.6071807345735,70.9546434146071 L 162.6071334129985,70.95488131622987 L 162.4578931269757,71.3151792388026 L 162.45778579200825,71.31533987693342 L 162.18202570057824,71.59109996836905 L 162.18186506244732,71.59120730333656 L 161.82156713985083,71.74044758937195 L 161.82132923822826,71.74049491094691 L 161.62633669677817,71.75970000000001 L 159.89638414290883,71.75970000000001 L 159.70139160145874,71.74049491094691 L 159.70115369983617,71.74044758937195 L 159.34085577723968,71.59120730333656 L 159.34069513910876,71.59109996836905 L 159.06493504767874,71.31533987693342 L 159.0648277127113,71.3151792388026 L 158.9155874266885,70.95488131622987 L 158.9155401051135,70.9546434146071 L 158.89643834603478,70.7607 L 159.8953398617295,70.7607 z" /><path fill-rule="evenodd" fill="#eff821ff" stroke="#555555" stroke-width="1.4876330803780653" opacity="0.6" d="M -15.646672804032312,32.652847195967695 L -15.646672804032312,89.2685528040323 L 190.9690328040323,89.2685528040323 L 190.9690328040323,32.652847195967695 L -15.646672804032312,32.652847195967695 z M -3.3388200000000063,47.4607 L -4.295528580912732,47.27039883127822 L -5.106586952966375,46.72846695296637 L -5.648518831278222,45.91740858091273 L -5.8388200000000055,44.9607 L -5.648518831278222,44.00399141908728 L -5.106586952966374,43.192933047033634 L -4.29552858091273,42.651001168721784 L -3.338820000000006,42.4607 L -2.3821114190872814,42.651001168721784 L -1.571053047033637,43.192933047033634 L -1.029121168721789,44.00399141908728 L -0.8388200000000059,44.9607 L -1.0291211687217898,45.91740858091273 L -1.5710530470336375,46.72846695296637 L -2.382111419087281,47.27039883127822 L -3.3388200000000063,47.4607 z M 178.66118,47.4607 L 177.70447141908727,47.27039883127822 L 176.89341304703362,46.72846695296637 L 176.3514811687218,45.91740858091273 L 176.16118,44.9607 L 176.3514811687218,44.00399141908728 L 176.89341304703365,43.192933047033634 L 177.70447141908727,42.651001168721784 L 178.66118,42.4607 L 179.61788858091273,42.651001168721784 L 180.42894695296638,43.192933047033634 L 180.9708788312782,44.00399141908728 L 181.16118,44.9607 L 180.9708788312782,45.91740858091273 L 180.42894695296636,46.72846695296637 L 179.61788858091273,47.27039883127822 L 178.66118,47.4607 z M -3.3388200000000063,79.4607 L -4.295528580912732,79.27039883127821 L -5.106586952966375,78.72846695296637 L -5.648518831278222,77.91740858091272 L -5.8388200000000055,76.9607 L -5.648518831278222,76.00399141908728 L -5.106586952966374,75.19293304703363 L -4.29552858091273,74.65100116872179 L -3.338820000000006,74.4607 L -2.3821114190872814,74.65100116872179 L -1.571053047033637,75.19293304703363 L -1.029121168721789,76.00399141908728 L -0.8388200000000059,76.9607 L -1.0291211687217898,77.91740858091273 L -1.5710530470336375,78.72846695296637 L -2.382111419087281,79.27039883127821 L -3.3388200000000063,79.4607 z M 178.66118,79.4607 L 177.70447141908727,79.27039883127821 L 176.89341304703362,78.72846695296637 L 176.3514811687218,77.91740858091272 L 176.16118,76.9607 L 176.3514811687218,76.00399141908728 L 176.89341304703365,75.19293304703363 L 177.70447141908727,74.65100116872179 L 178.66118,74.4607 L 179.61788858091273,74.65100116872179 L 180.42894695296638,75.19293304703363 L 180.9708788312782,76.00399141908728 L 181.16118,76.9607 L 180.9708788312782,77.91740858091273 L 180.42894695296636,78.72846695296637 L 179.61788858091273,79.27039883127821 L 178.66118,79.4607 z M 7.303172187499994,45.05366875 L 8.287547187499994,42.4560125 L 8.035078437499994,41.929918750000006 L 7.593265937499995,41.849762500000004 L 7.737062812499994,41.413207812500005 L 8.397890937499996,41.74616875 L 9.678953437499995,45.05366875 L 9.239109687499994,45.05366875 L 8.504734687499994,42.951325000000004 L 7.776609687499995,45.05366875 L 7.303172187499994,45.05366875 z M 6.3189729687499945,45.0622625 L 5.279441718749995,45.020075000000006 L 4.698191718749994,44.313825 L 5.930691718749994,44.7422625 L 6.349441718749993,44.54935625 L 6.427097968749994,44.106012500000006 L 4.936472968749994,43.745075 L 4.6591604687499935,42.902918750000005 L 5.198879218749994,42.43548125 L 6.177129218749995,42.575387500000005 L 6.463816718749994,42.78023125 L 6.5513167187499945,42.4607 L 7.010691718749994,42.4607 L 6.820262031249994,44.641098437500006 L 6.3189729687499945,45.0622625 z M 10.845750312499995,42.820465625000004 L 10.366976874999995,43.561606250000004 L 12.293797187499996,43.645075000000006 L 11.966453437499995,44.758356250000006 L 11.218609687499995,45.108723437500004 L 10.311726874999994,44.8192703125 L 9.908883124999996,43.862918750000006 L 10.239109687499996,42.752106250000004 L 11.230156562499996,42.4043015625 L 12.128367499999996,42.886285937500006 L 12.281297187499995,43.23960625 L 11.827390937499995,43.29585625 L 11.447312812499995,42.825840625000005 L 10.845750312499995,42.820465625000004 z M 14.085496406249995,44.563043750000006 L 14.237058906249995,44.970856250000004 L 13.666496406249994,45.0981375 L 13.283465156249997,44.763481250000005 L 13.223777656249995,45.05366875 L 12.828465156249996,45.05366875 L 12.828465156249996,42.4607 L 13.267527656249996,42.4607 L 13.390340156249996,44.4433875 L 14.085496406249995,44.563043750000006 z M 2.501023749999994,42.883356250000006 L 2.501023749999994,46.039606250000006 L 2.0275862499999944,46.039606250000006 L 2.0275862499999944,42.4607 L 4.263523749999994,42.4607 L 4.263523749999994,42.883356250000006 L 2.501023749999994,42.883356250000006 z M 17.254539374999993,46.039606250000006 L 15.620945624999996,43.720856250000004 L 15.620945624999996,43.31773125 L 17.174070624999995,43.31773125 L 17.174070624999995,42.4607 L 17.613133124999994,42.4607 L 17.613133124999994,43.31773125 L 18.096726874999995,43.31773125 L 18.096726874999995,43.720856250000004 L 17.613133124999994,43.720856250000004 L 17.613133124999994,46.039606250000006 L 17.254539374999993,46.039606250000006 z M 5.695339861729482,70.7607 L 5.695335016059043,70.76067563916963 L 5.695335016059043,51.1607 L 4.6964383460347765,51.1607 L 4.715540105109614,50.96675658541246 L 4.715587426684565,50.966518683789886 L 4.864827712727384,50.60622076117332 L 4.864935047694882,50.606060123042425 L 5.140695139092038,50.33030003164214 L 5.140855777222891,50.330192696674665 L 5.50115369986513,50.1809524106223 L 5.501391601487638,50.180905089047364 L 5.696384142908866,50.1617 L 7.426336696778097,50.1617 L 7.6213292381993245,50.180905089047364 L 7.621567139821833,50.1809524106223 L 7.981865062464072,50.330192696674665 L 7.9820257005949244,50.33030003164214 L 8.257785791992085,50.60606012304243 L 8.257893126959578,50.60622076117332 L 8.407133413002395,50.96651868378988 L 8.407180734577349,50.96675658541247 L 8.426282493652185,51.1607 L 7.42738582362792,51.1607 L 7.42738582362792,70.76067563916963 L 7.427380977957481,70.7607 L 8.426282493652186,70.7607 L 8.407180734577349,70.95464341458755 L 8.407133413002395,70.95488131621013 L 8.257893126965186,71.31517923881832 L 8.25778579199771,71.31533987694918 L 7.982025700569751,71.5910999683747 L 7.981865062438893,71.59120730334217 L 7.621567139856911,71.74044758937072 L 7.62132923823428,71.74049491094569 L 7.426336696778142,71.75970000000001 L 5.696384142908821,71.75970000000001 L 5.501391601452683,71.74049491094569 L 5.501153699830052,71.74044758937072 L 5.14085577724807,71.59120730334217 L 5.140695139117212,71.5910999683747 L 4.864935047689249,71.31533987694917 L 4.864827712721778,71.31517923881832 L 4.715587426684567,70.95488131621013 L 4.715540105109613,70.95464341458754 L 4.696438346034776,70.7607 L 5.695339861729482,70.7607 z M 34.895335016059036,51.1607 L 33.89643834603477,51.1607 L 33.91554010510658,50.96675658542773 L 33.91558742668151,50.966518683805226 L 34.06482771273371,50.60622076116385 L 34.064935047701184,50.60606012303299 L 34.34069513909203,50.330300031642146 L 34.340855777222885,50.33019269667467 L 34.701153699864264,50.180952410622474 L 34.70139160148677,50.18090508904754 L 34.896384142908865,50.1617 L 36.62633669677809,50.1617 L 36.821329238200185,50.18090508904754 L 36.82156713982269,50.180952410622474 L 37.18186506246407,50.33019269667467 L 37.18202570059493,50.330300031642146 L 37.45778579198577,50.60606012303299 L 37.457893126953245,50.60622076116385 L 37.60713341300544,50.966518683805226 L 37.607180734580375,50.96675658542773 L 37.626282493652184,51.1607 L 36.62738582362792,51.1607 L 36.62738582362792,70.76067563916963 L 36.62738097795748,70.7607 L 37.626282493652184,70.7607 L 37.607180734580375,70.95464341457227 L 37.60713341300544,70.9548813161948 L 37.45789312695887,71.31517923882775 L 37.45778579199139,71.31533987695862 L 37.18202570056976,71.59109996837469 L 37.181865062438874,71.59120730334219 L 36.82156713985778,71.74044758937055 L 36.821329238235144,71.74049491094551 L 36.62633669677814,71.75970000000001 L 34.896384142908815,71.75970000000001 L 34.70139160145181,71.74049491094551 L 34.70115369982918,71.74044758937055 L 34.34085577724808,71.59120730334219 L 34.340695139117194,71.59109996837469 L 34.06493504769556,71.31533987695862 L 34.06482771272808,71.31517923882775 L 33.91558742668151,70.9548813161948 L 33.91554010510658,70.95464341457227 L 33.89643834603477,70.7607 L 34.895339861729475,70.7607 L 34.895335016059036,70.76067563916963 L 34.895335016059036,51.1607 z M 51.895335016059036,51.1607 L 50.89643834603477,51.1607 L 50.91554010510658,50.96675658542773 L 50.91558742668151,50.966518683805226 L 51.06482771273371,50.60622076116385 L 51.064935047701184,50.60606012303299 L 51.34069513909203,50.330300031642146 L 51.340855777222885,50.33019269667467 L 51.701153699864264,50.180952410622474 L 51.70139160148677,50.18090508904754 L 51.896384142908865,50.1617 L 53.62633669677809,50.1617 L 53.821329238200185,50.18090508904754 L 53.82156713982269,50.180952410622474 L 54.18186506246407,50.33019269667467 L 54.18202570059493,50.330300031642146 L 54.45778579198577,50.60606012303299 L 54.457893126953245,50.60622076116385 L 54.60713341300544,50.966518683805226 L 54.607180734580375,50.96675658542773 L 54.626282493652184,51.1607 L 53.62738582362792,51.1607 L 53.62738582362792,70.76067563916963 L 53.62738097795748,70.7607 L 54.626282493652184,70.7607 L 54.607180734580375,70.95464341457227 L 54.60713341300544,70.9548813161948 L 54.45789312695887,71.31517923882775 L 54.45778579199139,71.31533987695862 L 54.18202570056976,71.59109996837469 L 54.181865062438874,71.59120730334219 L 53.82156713985778,71.74044758937055 L 53.821329238235144,71.74049491094551 L 53.62633669677814,71.75970000000001 L 51.896384142908815,71.75970000000001 L 51.70139160145181,71.74049491094551 L 51.70115369982918,71.74044758937055 L 51.34085577724808,71.59120730334219 L 51.340695139117194,71.59109996837469 L 51.06493504769556,71.31533987695862 L 51.06482771272808,71.31517923882775 L 50.91558742668151,70.9548813161948 L 50.91554010510658,70.95464341457227 L 50.89643834603477,70.7607 L 51.895339861729475,70.7607 L 51.895335016059036,70.76067563916963 L 51.895335016059036,51.1607 z M 96.8953398617295,70.7607 L 96.89533501605905,70.76067563916963 L 96.89533501605905,51.1607 L 95.89643834603478,51.1607 L 95.91554010511354,50.96675658539277 L 95.9155874266885,50.96651868377014 L 96.06482771271686,50.60622076118904 L 96.06493504768436,50.60606012305816 L 96.34069513910043,50.330300031636526 L 96.3408557772313,50.330192696669044 L 96.70115369986425,50.180952410622474 L 96.70139160148678,50.18090508904754 L 96.89638414290886,50.1617 L 98.62633669677811,50.1617 L 98.82132923820019,50.18090508904754 L 98.82156713982272,50.180952410622474 L 99.18186506245567,50.330192696669044 L 99.18202570058654,50.330300031636526 L 99.45778579200261,50.60606012305816 L 99.4578931269701,50.60622076118904 L 99.60713341299846,50.96651868377014 L 99.60718073457343,50.96675658539277 L 99.62628249365218,51.1607 L 98.62738582362792,51.1607 L 98.62738582362792,70.76067563916963 L 98.62738097795747,70.7607 L 99.62628249365218,70.7607 L 99.60718073457343,70.95464341460725 L 99.60713341299846,70.95488131622987 L 99.45789312697572,71.31517923880254 L 99.45778579200824,71.31533987693342 L 99.18202570056134,71.59109996838032 L 99.18186506243046,71.5912073033478 L 98.82156713985779,71.74044758937055 L 98.82132923823517,71.74049491094551 L 98.62633669677814,71.75970000000001 L 96.89638414290883,71.75970000000001 L 96.7013916014518,71.74049491094551 L 96.70115369982918,71.74044758937055 L 96.34085577725651,71.5912073033478 L 96.34069513912563,71.59109996838032 L 96.06493504767873,71.31533987693342 L 96.06482771271125,71.31517923880254 L 95.9155874266885,70.95488131622987 L 95.91554010511354,70.95464341460725 L 95.89643834603478,70.7607 L 96.8953398617295,70.7607 z M 159.89533501605905,51.1607 L 158.89643834603478,51.1607 L 158.9155401051135,50.966756585392915 L 158.9155874266885,50.96651868377014 L 159.0648277127169,50.60622076118904 L 159.0649350476844,50.60606012305813 L 159.34069513908358,50.330300031647816 L 159.3408557772145,50.33019269668028 L 159.70115369987127,50.18095241062108 L 159.70139160149373,50.180905089046156 L 159.8963841429089,50.1617 L 161.6263366967781,50.1617 L 161.82132923819327,50.180905089046156 L 161.82156713981573,50.18095241062108 L 162.1818650624725,50.33019269668028 L 162.18202570060342,50.330300031647816 L 162.4577857920026,50.60606012305813 L 162.4578931269701,50.60622076118904 L 162.6071334129985,50.96651868377014 L 162.6071807345735,50.966756585392915 L 162.6262824936522,51.1607 L 161.62738582362795,51.1607 L 161.62738582362795,70.76067563916963 L 161.6273809779575,70.7607 L 162.6262824936522,70.7607 L 162.6071807345735,70.9546434146071 L 162.6071334129985,70.95488131622987 L 162.4578931269757,71.3151792388026 L 162.45778579200825,71.31533987693342 L 162.18202570057824,71.59109996836905 L 162.18186506244732,71.59120730333656 L 161.82156713985083,71.74044758937195 L 161.82132923822826,71.74049491094691 L 161.62633669677817,71.75970000000001 L 159.89638414290883,71.75970000000001 L 159.70139160145874,71.74049491094691 L 159.70115369983617,71.74044758937195 L 159.34085577723968,71.59120730333656 L 159.34069513910876,71.59109996836905 L 159.06493504767874,71.31533987693342 L 159.0648277127113,71.3151792388026 L 158.9155874266885,70.95488131622987 L 158.9155401051135,70.9546434146071 L 158.89643834603478,70.7607 L 159.8953398617295,70.7607 L 159.89533501605905,70.76067563916963 L 159.89533501605905,51.1607 z" /></g></g></svg>