<svg xmlns="http://www.w3.org/2000/svg" xmlns:xlink="http://www.w3.org/1999/xlink" width="300" height="300" viewBox="-5.380625600000001 44.2187144 186.0836112 33.48397119999999" preserveAspectRatio="xMinYMin meet"><g transform="matrix(1,0,0,-1,0,121.9214)"><g><path fill-rule="evenodd" fill="#0c0786ff" stroke="#555555" stroke-width="1.2405574080000001" opacity="0.6" d="M 173.78013417161824,70.80689397662556 L 173.79635533905932,70.79605533905932 L 173.80719397662557,70.77983417161825 L 173.811,70.7607 L 173.811,51.1607 L 173.80719397662557,51.141565828381744 L 173.79635533905932,51.12534466094067 L 173.78013417161824,51.11450602337443 L 173.761,51.1107 L 1.56136,51.1107 L 1.5422258283817456,51.11450602337443 L 1.5260046609406728,51.12534466094067 L 1.5151660233744357,51.141565828381744 L 1.51136,51.1607 L 1.51136,70.7607 L 1.5151660233744357,70.77983417161825 L 1.5260046609406728,70.79605533905932 L 1.5422258283817456,70.80689397662556 L 1.56136,70.8107 L 173.761,70.8107 L 173.78013417161824,70.80689397662556 z M 1.56136,70.7607 L 1.56136,51.1607 L 5.695335016059043,51.1607 L 7.42738582362792,51.1607 L 34.895335016059036,51.1607 L 36.62738582362792,51.1607 L 51.895335016059036,51.1607 L 53.62738582362792,51.1607 L 96.89533501605905,51.1607 L 98.62738582362792,51.1607 L 159.89533501605905,51.1607 L 161.62738582362795,51.1607 L 173.761,51.1607 L 173.761,70.7607 L 161.6273809779575,70.7607 L 159.8953398617295,70.7607 L 98.62738097795747,70.7607 L 96.8953398617295,70.7607 L 53.62738097795748,70.7607 L 51.895339861729475,70.7607 L 36.62738097795748,70.7607 L 34.895339861729475,70.7607 L 7.427380977957481,70.7607 L 5.695339861729482,70.7607 L 1.56136,70.7607 z" /><path fill-rule="evenodd" fill="#7e03a7ff" stroke="#555555" stroke-width="1.2405574080000001" opacity="0.6" d="M 173.78013417161824,70.80689397662556 L 173.79635533905932,70.79605533905932 L 173.80719397662557,70.77983417161825 L 173.811,70.7607 L 173.811,51.1607 L 173.80719397662557,51.141565828381744 L 173.79635533905932,51.12534466094067 L 173.78013417161824,51.11450602337443 L 173.761,51.1107 L 1.56136,51.1107 L 1.5422258283817456,51.11450602337443 L 1.5260046609406728,51.12534466094067 L 1.5151660233744357,51.141565828381744 L 1.51136,51.1607 L 1.51136,70.7607 L 1.5151660233744357,70.77983417161825 L 1.5260046609406728,70.79605533905932 L 1.5422258283817456,70.80689397662556 L 1.56136,70.8107 L 173.761,70.8107 L 173.78013417161824,70.80689397662556 z M 1.56136,70.7607 L 1.56136,51.1607 L 5.695335016059043,51.1607 L 7.42738582362792,51.1607 L 34.895335016059036,51.1607 L 36.62738582362792,51.1607 L 51.895335016059036,51.1607 L 53.62738582362792,51.1607 L 96.89533501605905,51.1607 L 98.62738582362792,51.1607 L 159.89533501605905,51.1607 L 161.62738582362795,51.1607 L 173.761,51.1607 L 173.761,70.7607 L 161.6273809779575,70.7607 L 159.8953398617295,70.7607 L 98.62738097795747,70.7607 L 96.8953398617295,70.7607 L 53.62738097795748,70.7607 L 51.895339861729475,70.7607 L 36.62738097795748,70.7607 L 34.895339861729475,70.7607 L 7.427380977957481,70.7607 L 5.695339861729482,70.7607 L 1.56136,70.7607 z" /><path fill-rule="evenodd" fill="#cb4777ff" stroke="#555555" stroke-width="1.2405574080000001" opacity="0.6" d="M 173.78013417161824,70.80689397662556 L 173.79635533905932,70.79605533905932 L 173.80719397662557,70.77983417161825 L 173.811,70.7607 L 173.811,51.1607 L 173.80719397662557,51.141565828381744 L 173.79635533905932,51.12534466094067 L 173.78013417161824,51.11450602337443 L 173.761,51.1107 L 1.56136,51.1107 L 1.5422258283817456,51.11450602337443 L 1.5260046609406728,51.12534466094067 L 1.5151660233744357,51.141565828381744 L 1.51136,51.1607 L 1.51136,70.7607 L 1.5151660233744357,70.77983417161825 L 1.5260046609406728,70.79605533905932 L 1.5422258283817456,70.80689397662556 L 1.56136,70.8107 L 173.761,70.8107 L 173.78013417161824,70.80689397662556 z M 1.56136,70.7607 L 1.56136,51.1607 L 5.695335016059043,51.1607 L 7.42738582362792,51.1607 L 34.895335016059036,51.1607 L 36.62738582362792,51.1607 L 51.895335016059036,51.1607 L 53.62738582362792,51.1607 L 96.89533501605905,51.1607 L 98.62738582362792,51.1607 L 159.89533501605905,51.1607 L 161.62738582362795,51.1607 L 173.761,51.1607 L 173.761,70.7607 L 161.6273809779575,70.7607 L 159.8953398617295,70.7607 L 98.62738097795747,70.7607 L 96.8953398617295,70.7607 L 53.62738097795748,70.7607 L 51.895339861729475,70.7607 L 36.62738097795748,70.7607 L 34.895339861729475,70.7607 L 7.427380977957481,70.7607 L 5.695339861729482,70.7607 L 1.56136,70.7607 z" /><path fill-rule="evenodd" fill="#f89540ff" stroke="#555555" stroke-width="1.2405574080000001" opacity="0.6" d="M 173.78013417161824,70.80689397662556 L 173.79635533905932,70.79605533905932 L 173.80719397662557,70.77983417161825 L 173.811,70.7607 L 173.811,51.1607 L 173.80719397662557,51.141565828381744 L 173.79635533905932,51.12534466094067 L 173.78013417161824,51.11450602337443 L 173.761,51.1107 L 1.56136,51.1107 L 1.5422258283817456,51.11450602337443 L 1.5260046609406728,51.12534466094067 L 1.5151660233744357,51.141565828381744 L 1.51136,51.1607 L 1.51136,70.7607 L 1.5151660233744357,70.77983417161825 L 1.5260046609406728,70.79605533905932 L 1.5422258283817456,70.80689397662556 L 1.56136,70.8107 L 173.761,70.8107 L 173.78013417161824,70.80689397662556 z M 1.56136,70.7607 L 1.56136,51.1607 L 5.695335016059043,51.1607 L 7.42738582362792,51.1607 L 34.895335016059036,51.1607 L 36.62738582362792,51.1607 L 51.895335016059036,51.1607 L 53.62738582362792,51.1607 L 96.89533501605905,51.1607 L 98.62738582362792,51.1607 L 159.89533501605905,51.1607 L 161.62738582362795,51.1607 L 173.761,51.1607 L 173.761,70.7607 L 161.6273809779575,70.7607 L 159.8953398617295,70.7607 L 98.62738097795747,70.7607 L 96.8953398617295,70.7607 L 53.62738097795748,70.7607 L 51.895339861729475,70.7607 L 36.62738097795748,70.7607 L 34.895339861729475,70.7607 L 7.427380977957481,70.7607 L 5.695339861729482,70.7607 L 1.56136,70.7607 z" /><path fill-rule="evenodd" fill="#eff821ff" stroke="#555555" stroke-width="1.2405574080000001" opacity="0.6" d="M 173.78013417161824,70.80689397662556 L 173.79635533905932,70.79605533905932 L 173.80719397662557,70.77983417161825 L 173.811,70.7607 L 173.811,51.1607 L 173.80719397662557,51.141565828381744 L 173.79635533905932,51.12534466094067 L 173.78013417161824,51.11450602337443 L 173.761,51.1107 L 1.56136,51.1107 L 1.5422258283817456,51.11450602337443 L 1.5260046609406728,51.12534466094067 L 1.5151660233744357,51.141565828381744 L 1.51136,51.1607 L 1.51136,70.7607 L 1.5151660233744357,70.77983417161825 L 1.5260046609406728,70.79605533905932 L 1.5422258283817456,70.80689397662556 L 1.56136,70.8107 L 173.761,70.8107 L 173.78013417161824,70.80689397662556 z M 1.56136,70.7607 L 1.56136,51.1607 L 5.695335016059043,51.1607 L 7.42738582362792,51.1607 L 34.895335016059036,51.1607 L 36.62738582362792,51.1607 L 51.895335016059036,51.1607 L 53.62738582362792,51.1607 L 96.89533501605905,51.1607 L 98.62738582362792,51.1607 L 159.89533501605905,51.1607 L 161.62738582362795,51.1607 L 173.761,51.1607 L 173.761,70.7607 L 161.6273809779575,70.7607 L 159.8953398617295,70.7607 L 98.62738097795747,70.7607 L 96.8953398617295,70.7607 L 53.62738097795748,70.7607 L 51.895339861729475,70.7607 L 36.62738097795748,70.7607 L 34.895339861729475,70.7607 L 7.427380977957481,70.7607 L 5.695339861729482,70.7607 L 1.56136,70.7607 z" /></g></g></svg>