<svg xmlns="http://www.w3.org/2000/svg" xmlns:xlink="http://www.w3.org/1999/xlink" width="300" height="300" viewBox="-7.4877056 42.1116344 190.2977712 37.698131200000006" preserveAspectRatio="xMinYMin meet"><g transform="matrix(1,0,0,-1,0,121.9214)"><g><path fill-rule="evenodd" fill="#0c0786ff" stroke="#555555" stroke-width="1.268651808" opacity="0.6" d="M 175.17576913260612,72.1757450319854 L 175.1760450319854,72.17546913260611 L 175.6095905346349,71.5266224349632 L 175.609739850303,71.52626195505219 L 175.7619807852804,70.76089509032201 L 175.762,70.7607 L 175.762,51.1607 L 175.7619807852804,51.16050490967798 L 175.609739850303,50.3951380449478 L 175.6095905346349,50.3947775650368 L 175.1760450319854,49.74593086739389 L 175.17576913260612,49.745654968014605 L 174.52692243496318,49.312109465365126 L 174.5265619550522,49.31196014969702 L 173.76119509032202,49.159719214719594 L 173.761,49.1597 L 1.56136,49.1597 L 1.561164909677984,49.159719214719594 L 0.7957980449478033,49.31196014969702 L 0.7954375650367999,49.312109465365126 L 0.1465908673938851,49.745654968014605 L 0.14631496801460217,49.74593086739389 L -0.28723053463487613,50.3947775650368 L -0.28737985030297686,50.3951380449478 L -0.43962078528040316,51.16050490967798 L -0.4396399999999999,51.1607 L -0.4396399999999999,70.7607 L -0.43962078528040316,70.76089509032201 L -0.28737985030297664,71.52626195505219 L -0.2872305346348759,71.5266224349632 L 0.14631496801460261,72.17546913260611 L 0.14659086739388555,72.1757450319854 L 0.7954375650368011,72.60929053463488 L 0.7957980449478045,72.60943985030298 L 1.561164909677984,72.7616807852804 L 1.56136,72.7617 L 173.761,72.7617 L 173.76119509032202,72.7616807852804 L 174.5265619550522,72.60943985030298 L 174.52692243496318,72.60929053463488 L 175.17576913260612,72.1757450319854 z M 1.56236,51.161699999999996 L 4.6954335074624005,51.161699999999996 L 4.695793402498935,51.161632992798836 L 4.696105066417247,51.16144095112536 L 4.6963267317635955,51.161149611329655 L 4.696428692189072,51.16079801714033 L 4.715540105109614,50.96675658541246 L 4.715587426684565,50.966518683789886 L 4.864827712727384,50.60622076117332 L 4.864935047694882,50.606060123042425 L 5.140695139092038,50.33030003164214 L 5.140855777222891,50.330192696674665 L 5.50115369986513,50.1809524106223 L 5.501391601487638,50.180905089047364 L 5.696384142908866,50.1617 L 7.426336696778097,50.1617 L 7.6213292381993245,50.180905089047364 L 7.621567139821833,50.1809524106223 L 7.981865062464072,50.330192696674665 L 7.9820257005949244,50.33030003164214 L 8.257785791992085,50.60606012304243 L 8.257893126959578,50.60622076117332 L 8.407133413002395,50.96651868378988 L 8.407180734577349,50.96675658541247 L 8.42629214749789,51.16079801714033 L 8.426394107923368,51.161149611329655 L 8.426615773269717,51.16144095112536 L 8.426927437188027,51.161632992798836 L 8.427287332224562,51.161699999999996 L 33.89543350746239,51.161699999999996 L 33.89579340249893,51.161632992798836 L 33.89610506641724,51.16144095112535 L 33.89632673176359,51.16114961132965 L 33.89642869218907,51.16079801714032 L 33.91554010510658,50.96675658542773 L 33.91558742668151,50.966518683805226 L 34.06482771273371,50.60622076116385 L 34.064935047701184,50.60606012303299 L 34.34069513909203,50.330300031642146 L 34.340855777222885,50.33019269667467 L 34.701153699864264,50.180952410622474 L 34.70139160148677,50.18090508904754 L 34.896384142908865,50.1617 L 36.62633669677809,50.1617 L 36.821329238200185,50.18090508904754 L 36.82156713982269,50.180952410622474 L 37.18186506246407,50.33019269667467 L 37.18202570059493,50.330300031642146 L 37.45778579198577,50.60606012303299 L 37.457893126953245,50.60622076116385 L 37.60713341300544,50.966518683805226 L 37.607180734580375,50.96675658542773 L 37.626292147497885,51.16079801714032 L 37.62639410792337,51.16114961132965 L 37.62661577326971,51.16144095112535 L 37.62692743718802,51.161632992798836 L 37.62728733222456,51.161699999999996 L 50.89543350746239,51.161699999999996 L 50.89579340249893,51.161632992798836 L 50.89610506641724,51.16144095112535 L 50.89632673176359,51.16114961132965 L 50.89642869218907,51.16079801714032 L 50.91554010510658,50.96675658542773 L 50.91558742668151,50.966518683805226 L 51.06482771273371,50.60622076116385 L 51.064935047701184,50.60606012303299 L 51.34069513909203,50.330300031642146 L 51.340855777222885,50.33019269667467 L 51.701153699864264,50.180952410622474 L 51.70139160148677,50.18090508904754 L 51.896384142908865,50.1617 L 53.62633669677809,50.1617 L 53.821329238200185,50.18090508904754 L 53.82156713982269,50.180952410622474 L 54.18186506246407,50.33019269667467 L 54.18202570059493,50.330300031642146 L 54.45778579198577,50.60606012303299 L 54.457893126953245,50.60622076116385 L 54.60713341300544,50.966518683805226 L 54.607180734580375,50.96675658542773 L 54.626292147497885,51.16079801714032 L 54.62639410792337,51.16114961132965 L 54.62661577326971,51.16144095112535 L 54.62692743718802,51.161632992798836 L 54.62728733222456,51.161699999999996 L 95.8954335074624,51.161699999999996 L 95.89579340249894,51.161632992798836 L 95.89610506641725,51.16144095112536 L 95.8963267317636,51.161149611329655 L 95.89642869218908,51.16079801714034 L 95.91554010511354,50.96675658539277 L 95.9155874266885,50.96651868377014 L 96.06482771271686,50.60622076118904 L 96.06493504768436,50.60606012305816 L 96.34069513910043,50.330300031636526 L 96.3408557772313,50.330192696669044 L 96.70115369986425,50.180952410622474 L 96.70139160148678,50.18090508904754 L 96.89638414290886,50.1617 L 98.62633669677811,50.1617 L 98.82132923820019,50.18090508904754 L 98.82156713982272,50.180952410622474 L 99.18186506245567,50.330192696669044 L 99.18202570058654,50.330300031636526 L 99.45778579200261,50.60606012305816 L 99.4578931269701,50.60622076118904 L 99.60713341299846,50.96651868377014 L 99.60718073457343,50.96675658539277 L 99.62629214749789,51.16079801714034 L 99.62639410792337,51.161149611329655 L 99.62661577326972,51.16144095112536 L 99.62692743718803,51.161632992798836 L 99.62728733222457,51.161699999999996 L 158.89543350746243,51.161699999999996 L 158.89579340249895,51.161632992798836 L 158.89610506641728,51.16144095112536 L 158.89632673176362,51.16114961132966 L 158.8964286921891,51.16079801714034 L 158.9155401051135,50.966756585392915 L 158.9155874266885,50.96651868377014 L 159.0648277127169,50.60622076118904 L 159.0649350476844,50.60606012305813 L 159.34069513908358,50.330300031647816 L 159.3408557772145,50.33019269668028 L 159.70115369987127,50.18095241062108 L 159.70139160149373,50.180905089046156 L 159.8963841429089,50.1617 L 161.6263366967781,50.1617 L 161.82132923819327,50.180905089046156 L 161.82156713981573,50.18095241062108 L 162.1818650624725,50.33019269668028 L 162.18202570060342,50.330300031647816 L 162.4577857920026,50.60606012305813 L 162.4578931269701,50.60622076118904 L 162.6071334129985,50.96651868377014 L 162.6071807345735,50.966756585392915 L 162.6262921474979,51.16079801714034 L 162.62639410792337,51.16114961132966 L 162.62661577326972,51.16144095112536 L 162.62692743718804,51.161632992798836 L 162.62728733222457,51.161699999999996 L 173.76,51.161699999999996 L 173.76,70.7597 L 162.62728733222457,70.7597 L 162.62692743718804,70.75976700720116 L 162.62661577326972,70.75995904887463 L 162.62639410792337,70.76025038867033 L 162.6262921474979,70.76060198285965 L 162.6071807345735,70.9546434146071 L 162.6071334129985,70.95488131622987 L 162.4578931269757,71.3151792388026 L 162.45778579200825,71.31533987693342 L 162.18202570057824,71.59109996836905 L 162.18186506244732,71.59120730333656 L 161.82156713985083,71.74044758937195 L 161.82132923822826,71.74049491094691 L 161.62633669677817,71.75970000000001 L 159.89638414290883,71.75970000000001 L 159.70139160145874,71.74049491094691 L 159.70115369983617,71.74044758937195 L 159.34085577723968,71.59120730333656 L 159.34069513910876,71.59109996836905 L 159.06493504767874,71.31533987693342 L 159.0648277127113,71.3151792388026 L 158.9155874266885,70.95488131622987 L 158.9155401051135,70.9546434146071 L 158.8964286921891,70.76060198285965 L 158.89632673176362,70.76025038867033 L 158.89610506641728,70.75995904887463 L 158.89579340249895,70.75976700720116 L 158.89543350746243,70.7597 L 99.62728733222457,70.7597 L 99.62692743718804,70.75976700720116 L 99.62661577326973,70.75995904887463 L 99.62639410792337,70.76025038867033 L 99.62629214749789,70.76060198285965 L 99.60718073457343,70.95464341460725 L 99.60713341299846,70.95488131622987 L 99.45789312697572,71.31517923880254 L 99.45778579200824,71.31533987693342 L 99.18202570056134,71.59109996838032 L 99.18186506243046,71.5912073033478 L 98.82156713985779,71.74044758937055 L 98.82132923823517,71.74049491094551 L 98.62633669677814,71.75970000000001 L 96.89638414290883,71.75970000000001 L 96.7013916014518,71.74049491094551 L 96.70115369982918,71.74044758937055 L 96.34085577725651,71.5912073033478 L 96.34069513912563,71.59109996838032 L 96.06493504767873,71.31533987693342 L 96.06482771271125,71.31517923880254 L 95.9155874266885,70.95488131622987 L 95.91554010511354,70.95464341460725 L 95.89642869218908,70.76060198285965 L 95.8963267317636,70.76025038867033 L 95.89610506641723,70.75995904887463 L 95.89579340249892,70.75976700720116 L 95.8954335074624,70.7597 L 54.62728733222456,70.7597 L 54.62692743718802,70.75976700720116 L 54.62661577326971,70.75995904887465 L 54.62639410792336,70.76025038867036 L 54.626292147497885,70.76060198285968 L 54.607180734580375,70.95464341457227 L 54.60713341300544,70.9548813161948 L 54.45789312695887,71.31517923882775 L 54.45778579199139,71.31533987695862 L 54.18202570056976,71.59109996837469 L 54.181865062438874,71.59120730334219 L 53.82156713985778,71.74044758937055 L 53.821329238235144,71.74049491094551 L 53.62633669677814,71.75970000000001 L 51.896384142908815,71.75970000000001 L 51.70139160145181,71.74049491094551 L 51.70115369982918,71.74044758937055 L 51.34085577724808,71.59120730334219 L 51.340695139117194,71.59109996837469 L 51.06493504769556,71.31533987695862 L 51.06482771272808,71.31517923882775 L 50.91558742668151,70.9548813161948 L 50.91554010510658,70.95464341457227 L 50.89642869218907,70.76060198285968 L 50.896326731763594,70.76025038867036 L 50.89610506641724,70.75995904887465 L 50.89579340249893,70.75976700720116 L 50.89543350746239,70.7597 L 37.62728733222456,70.7597 L 37.62692743718802,70.75976700720116 L 37.62661577326971,70.75995904887465 L 37.62639410792336,70.76025038867036 L 37.626292147497885,70.76060198285968 L 37.607180734580375,70.95464341457227 L 37.60713341300544,70.9548813161948 L 37.45789312695887,71.31517923882775 L 37.45778579199139,71.31533987695862 L 37.18202570056976,71.59109996837469 L 37.181865062438874,71.59120730334219 L 36.82156713985778,71.74044758937055 L 36.821329238235144,71.74049491094551 L 36.62633669677814,71.75970000000001 L 34.896384142908815,71.75970000000001 L 34.70139160145181,71.74049491094551 L 34.70115369982918,71.74044758937055 L 34.34085577724808,71.59120730334219 L 34.340695139117194,71.59109996837469 L 34.06493504769556,71.31533987695862 L 34.06482771272808,71.31517923882775 L 33.91558742668151,70.9548813161948 L 33.91554010510658,70.95464341457227 L 33.89642869218907,70.76060198285968 L 33.896326731763594,70.76025038867036 L 33.89610506641724,70.75995904887465 L 33.89579340249893,70.75976700720116 L 33.89543350746239,70.7597 L 8.427287332224564,70.7597 L 8.426927437188029,70.75976700720116 L 8.426615773269718,70.75995904887465 L 8.42639410792337,70.76025038867034 L 8.426292147497891,70.76060198285967 L 8.407180734577349,70.95464341458755 L 8.407133413002395,70.95488131621013 L 8.257893126965186,71.31517923881832 L 8.25778579199771,71.31533987694918 L 7.982025700569751,71.5910999683747 L 7.981865062438893,71.59120730334217 L 7.621567139856911,71.74044758937072 L 7.62132923823428,71.74049491094569 L 7.426336696778142,71.75970000000001 L 5.696384142908821,71.75970000000001 L 5.501391601452683,71.74049491094569 L 5.501153699830052,71.74044758937072 L 5.14085577724807,71.59120730334217 L 5.140695139117212,71.5910999683747 L 4.864935047689249,71.31533987694917 L 4.864827712721778,71.31517923881832 L 4.715587426684567,70.95488131621013 L 4.715540105109613,70.95464341458754 L 4.696428692189071,70.76060198285967 L 4.696326731763595,70.76025038867034 L 4.696105066417246,70.75995904887465 L 4.695793402498934,70.75976700720116 L 4.6954335074624,70.7597 L 1.56236,70.7597 L 1.56236,51.161699999999996 z" /><path fill-rule="evenodd" fill="#7e03a7ff" stroke="#555555" stroke-width="1.268651808" opacity="0.6" d="M 175.17576913260612,72.1757450319854 L 175.1760450319854,72.17546913260611 L 175.6095905346349,71.5266224349632 L 175.609739850303,71.52626195505219 L 175.7619807852804,70.76089509032201 L 175.762,70.7607 L 175.762,51.1607 L 175.7619807852804,51.16050490967798 L 175.609739850303,50.3951380449478 L 175.6095905346349,50.3947775650368 L 175.1760450319854,49.74593086739389 L 175.17576913260612,49.745654968014605 L 174.52692243496318,49.312109465365126 L 174.5265619550522,49.31196014969702 L 173.76119509032202,49.159719214719594 L 173.761,49.1597 L 1.56136,49.1597 L 1.561164909677984,49.159719214719594 L 0.7957980449478033,49.31196014969702 L 0.7954375650367999,49.312109465365126 L 0.1465908673938851,49.745654968014605 L 0.14631496801460217,49.74593086739389 L -0.28723053463487613,50.3947775650368 L -0.28737985030297686,50.3951380449478 L -0.43962078528040316,51.16050490967798 L -0.4396399999999999,51.1607 L -0.4396399999999999,70.7607 L -0.43962078528040316,70.76089509032201 L -0.28737985030297664,71.52626195505219 L -0.2872305346348759,71.5266224349632 L 0.14631496801460261,72.17546913260611 L 0.14659086739388555,72.1757450319854 L 0.7954375650368011,72.60929053463488 L 0.7957980449478045,72.60943985030298 L 1.561164909677984,72.7616807852804 L 1.56136,72.7617 L 173.761,72.7617 L 173.76119509032202,72.7616807852804 L 174.5265619550522,72.60943985030298 L 174.52692243496318,72.60929053463488 L 175.17576913260612,72.1757450319854 z M 1.56236,51.161699999999996 L 4.6954335074624005,51.161699999999996 L 4.695793402498935,51.161632992798836 L 4.696105066417247,51.16144095112536 L 4.6963267317635955,51.161149611329655 L 4.696428692189072,51.16079801714033 L 4.715540105109614,50.96675658541246 L 4.715587426684565,50.966518683789886 L 4.864827712727384,50.60622076117332 L 4.864935047694882,50.606060123042425 L 5.140695139092038,50.33030003164214 L 5.140855777222891,50.330192696674665 L 5.50115369986513,50.1809524106223 L 5.501391601487638,50.180905089047364 L 5.696384142908866,50.1617 L 7.426336696778097,50.1617 L 7.6213292381993245,50.180905089047364 L 7.621567139821833,50.1809524106223 L 7.981865062464072,50.330192696674665 L 7.9820257005949244,50.33030003164214 L 8.257785791992085,50.60606012304243 L 8.257893126959578,50.60622076117332 L 8.407133413002395,50.96651868378988 L 8.407180734577349,50.96675658541247 L 8.42629214749789,51.16079801714033 L 8.426394107923368,51.161149611329655 L 8.426615773269717,51.16144095112536 L 8.426927437188027,51.161632992798836 L 8.427287332224562,51.161699999999996 L 33.89543350746239,51.161699999999996 L 33.89579340249893,51.161632992798836 L 33.89610506641724,51.16144095112535 L 33.89632673176359,51.16114961132965 L 33.89642869218907,51.16079801714032 L 33.91554010510658,50.96675658542773 L 33.91558742668151,50.966518683805226 L 34.06482771273371,50.60622076116385 L 34.064935047701184,50.60606012303299 L 34.34069513909203,50.330300031642146 L 34.340855777222885,50.33019269667467 L 34.701153699864264,50.180952410622474 L 34.70139160148677,50.18090508904754 L 34.896384142908865,50.1617 L 36.62633669677809,50.1617 L 36.821329238200185,50.18090508904754 L 36.82156713982269,50.180952410622474 L 37.18186506246407,50.33019269667467 L 37.18202570059493,50.330300031642146 L 37.45778579198577,50.60606012303299 L 37.457893126953245,50.60622076116385 L 37.60713341300544,50.966518683805226 L 37.607180734580375,50.96675658542773 L 37.626292147497885,51.16079801714032 L 37.62639410792337,51.16114961132965 L 37.62661577326971,51.16144095112535 L 37.62692743718802,51.161632992798836 L 37.62728733222456,51.161699999999996 L 50.89543350746239,51.161699999999996 L 50.89579340249893,51.161632992798836 L 50.89610506641724,51.16144095112535 L 50.89632673176359,51.16114961132965 L 50.89642869218907,51.16079801714032 L 50.91554010510658,50.96675658542773 L 50.91558742668151,50.966518683805226 L 51.06482771273371,50.60622076116385 L 51.064935047701184,50.60606012303299 L 51.34069513909203,50.330300031642146 L 51.340855777222885,50.33019269667467 L 51.701153699864264,50.180952410622474 L 51.70139160148677,50.18090508904754 L 51.896384142908865,50.1617 L 53.62633669677809,50.1617 L 53.821329238200185,50.18090508904754 L 53.82156713982269,50.180952410622474 L 54.18186506246407,50.33019269667467 L 54.18202570059493,50.330300031642146 L 54.45778579198577,50.60606012303299 L 54.457893126953245,50.60622076116385 L 54.60713341300544,50.966518683805226 L 54.607180734580375,50.96675658542773 L 54.626292147497885,51.16079801714032 L 54.62639410792337,51.16114961132965 L 54.62661577326971,51.16144095112535 L 54.62692743718802,51.161632992798836 L 54.62728733222456,51.161699999999996 L 95.8954335074624,51.161699999999996 L 95.89579340249894,51.161632992798836 L 95.89610506641725,51.16144095112536 L 95.8963267317636,51.161149611329655 L 95.89642869218908,51.16079801714034 L 95.91554010511354,50.96675658539277 L 95.9155874266885,50.96651868377014 L 96.06482771271686,50.60622076118904 L 96.06493504768436,50.60606012305816 L 96.34069513910043,50.330300031636526 L 96.3408557772313,50.330192696669044 L 96.70115369986425,50.180952410622474 L 96.70139160148678,50.18090508904754 L 96.89638414290886,50.1617 L 98.62633669677811,50.1617 L 98.82132923820019,50.18090508904754 L 98.82156713982272,50.180952410622474 L 99.18186506245567,50.330192696669044 L 99.18202570058654,50.330300031636526 L 99.45778579200261,50.60606012305816 L 99.4578931269701,50.60622076118904 L 99.60713341299846,50.96651868377014 L 99.60718073457343,50.96675658539277 L 99.62629214749789,51.16079801714034 L 99.62639410792337,51.161149611329655 L 99.62661577326972,51.16144095112536 L 99.62692743718803,51.161632992798836 L 99.62728733222457,51.161699999999996 L 158.89543350746243,51.161699999999996 L 158.89579340249895,51.161632992798836 L 158.89610506641728,51.16144095112536 L 158.89632673176362,51.16114961132966 L 158.8964286921891,51.16079801714034 L 158.9155401051135,50.966756585392915 L 158.9155874266885,50.96651868377014 L 159.0648277127169,50.60622076118904 L 159.0649350476844,50.60606012305813 L 159.34069513908358,50.330300031647816 L 159.3408557772145,50.33019269668028 L 159.70115369987127,50.18095241062108 L 159.70139160149373,50.180905089046156 L 159.8963841429089,50.1617 L 161.6263366967781,50.1617 L 161.82132923819327,50.180905089046156 L 161.82156713981573,50.18095241062108 L 162.1818650624725,50.33019269668028 L 162.18202570060342,50.330300031647816 L 162.4577857920026,50.60606012305813 L 162.4578931269701,50.60622076118904 L 162.6071334129985,50.96651868377014 L 162.6071807345735,50.966756585392915 L 162.6262921474979,51.16079801714034 L 162.62639410792337,51.16114961132966 L 162.62661577326972,51.16144095112536 L 162.62692743718804,51.161632992798836 L 162.62728733222457,51.161699999999996 L 173.76,51.161699999999996 L 173.76,70.7597 L 162.62728733222457,70.7597 L 162.62692743718804,70.75976700720116 L 162.62661577326972,70.75995904887463 L 162.62639410792337,70.76025038867033 L 162.6262921474979,70.76060198285965 L 162.6071807345735,70.9546434146071 L 162.6071334129985,70.95488131622987 L 162.4578931269757,71.3151792388026 L 162.45778579200825,71.31533987693342 L 162.18202570057824,71.59109996836905 L 162.18186506244732,71.59120730333656 L 161.82156713985083,71.74044758937195 L 161.82132923822826,71.74049491094691 L 161.62633669677817,71.75970000000001 L 159.89638414290883,71.75970000000001 L 159.70139160145874,71.74049491094691 L 159.70115369983617,71.74044758937195 L 159.34085577723968,71.59120730333656 L 159.34069513910876,71.59109996836905 L 159.06493504767874,71.31533987693342 L 159.0648277127113,71.3151792388026 L 158.9155874266885,70.95488131622987 L 158.9155401051135,70.9546434146071 L 158.8964286921891,70.76060198285965 L 158.89632673176362,70.76025038867033 L 158.89610506641728,70.75995904887463 L 158.89579340249895,70.75976700720116 L 158.89543350746243,70.7597 L 99.62728733222457,70.7597 L 99.62692743718804,70.75976700720116 L 99.62661577326973,70.75995904887463 L 99.62639410792337,70.76025038867033 L 99.62629214749789,70.76060198285965 L 99.60718073457343,70.95464341460725 L 99.60713341299846,70.95488131622987 L 99.45789312697572,71.31517923880254 L 99.45778579200824,71.31533987693342 L 99.18202570056134,71.59109996838032 L 99.18186506243046,71.5912073033478 L 98.82156713985779,71.74044758937055 L 98.82132923823517,71.74049491094551 L 98.62633669677814,71.75970000000001 L 96.89638414290883,71.75970000000001 L 96.7013916014518,71.74049491094551 L 96.70115369982918,71.74044758937055 L 96.34085577725651,71.5912073033478 L 96.34069513912563,71.59109996838032 L 96.06493504767873,71.31533987693342 L 96.06482771271125,71.31517923880254 L 95.9155874266885,70.95488131622987 L 95.91554010511354,70.95464341460725 L 95.89642869218908,70.76060198285965 L 95.8963267317636,70.76025038867033 L 95.89610506641723,70.75995904887463 L 95.89579340249892,70.75976700720116 L 95.8954335074624,70.7597 L 54.62728733222456,70.7597 L 54.62692743718802,70.75976700720116 L 54.62661577326971,70.75995904887465 L 54.62639410792336,70.76025038867036 L 54.626292147497885,70.76060198285968 L 54.607180734580375,70.95464341457227 L 54.60713341300544,70.9548813161948 L 54.45789312695887,71.31517923882775 L 54.45778579199139,71.31533987695862 L 54.18202570056976,71.59109996837469 L 54.181865062438874,71.59120730334219 L 53.82156713985778,71.74044758937055 L 53.821329238235144,71.74049491094551 L 53.62633669677814,71.75970000000001 L 51.896384142908815,71.75970000000001 L 51.70139160145181,71.74049491094551 L 51.70115369982918,71.74044758937055 L 51.34085577724808,71.59120730334219 L 51.340695139117194,71.59109996837469 L 51.06493504769556,71.31533987695862 L 51.06482771272808,71.31517923882775 L 50.91558742668151,70.9548813161948 L 50.91554010510658,70.95464341457227 L 50.89642869218907,70.76060198285968 L 50.896326731763594,70.76025038867036 L 50.89610506641724,70.75995904887465 L 50.89579340249893,70.75976700720116 L 50.89543350746239,70.7597 L 37.62728733222456,70.7597 L 37.62692743718802,70.75976700720116 L 37.62661577326971,70.75995904887465 L 37.62639410792336,70.76025038867036 L 37.626292147497885,70.76060198285968 L 37.607180734580375,70.95464341457227 L 37.60713341300544,70.9548813161948 L 37.45789312695887,71.31517923882775 L 37.45778579199139,71.31533987695862 L 37.18202570056976,71.59109996837469 L 37.181865062438874,71.59120730334219 L 36.82156713985778,71.74044758937055 L 36.821329238235144,71.74049491094551 L 36.62633669677814,71.75970000000001 L 34.896384142908815,71.75970000000001 L 34.70139160145181,71.74049491094551 L 34.70115369982918,71.74044758937055 L 34.34085577724808,71.59120730334219 L 34.340695139117194,71.59109996837469 L 34.06493504769556,71.31533987695862 L 34.06482771272808,71.31517923882775 L 33.91558742668151,70.9548813161948 L 33.91554010510658,70.95464341457227 L 33.89642869218907,70.76060198285968 L 33.896326731763594,70.76025038867036 L 33.89610506641724,70.75995904887465 L 33.89579340249893,70.75976700720116 L 33.89543350746239,70.7597 L 8.427287332224564,70.7597 L 8.426927437188029,70.75976700720116 L 8.426615773269718,70.75995904887465 L 8.42639410792337,70.76025038867034 L 8.426292147497891,70.76060198285967 L 8.407180734577349,70.95464341458755 L 8.407133413002395,70.95488131621013 L 8.257893126965186,71.31517923881832 L 8.25778579199771,71.31533987694918 L 7.982025700569751,71.5910999683747 L 7.981865062438893,71.59120730334217 L 7.621567139856911,71.74044758937072 L 7.62132923823428,71.74049491094569 L 7.426336696778142,71.75970000000001 L 5.696384142908821,71.75970000000001 L 5.501391601452683,71.74049491094569 L 5.501153699830052,71.74044758937072 L 5.14085577724807,71.59120730334217 L 5.140695139117212,71.5910999683747 L 4.864935047689249,71.31533987694917 L 4.864827712721778,71.31517923881832 L 4.715587426684567,70.95488131621013 L 4.715540105109613,70.95464341458754 L 4.696428692189071,70.76060198285967 L 4.696326731763595,70.76025038867034 L 4.696105066417246,70.75995904887465 L 4.695793402498934,70.75976700720116 L 4.6954335074624,70.7597 L 1.56236,70.7597 L 1.56236,51.161699999999996 z" /><path fill-rule="evenodd" fill="#cb4777ff" stroke="#555555" stroke-width="1.268651808" opacity="0.6" d="M 174.5265619550522,72.60943985030298 L 174.52692243496318,72.60929053463488 L 175.17576913260612,72.1757450319854 L 175.1760450319854,72.17546913260611 L 175.6095905346349,71.5266224349632 L 175.609739850303,71.52626195505219 L 175.7619807852804,70.76089509032201 L 175.762,70.7607 L 175.762,51.1607 L 175.7619807852804,51.16050490967798 L 175.609739850303,50.3951380449478 L 175.6095905346349,50.3947775650368 L 175.1760450319854,49.74593086739389 L 175.17576913260612,49.745654968014605 L 174.52692243496318,49.312109465365126 L 174.5265619550522,49.31196014969702 L 173.76119509032202,49.159719214719594 L 173.761,49.1597 L 1.56136,49.1597 L 1.561164909677984,49.159719214719594 L 0.7957980449478033,49.31196014969702 L 0.7954375650367999,49.312109465365126 L 0.1465908673938851,49.745654968014605 L 0.14631496801460217,49.74593086739389 L -0.28723053463487613,50.3947775650368 L -0.28737985030297686,50.3951380449478 L -0.43962078528040316,51.16050490967798 L -0.4396399999999999,51.1607 L -0.4396399999999999,70.7607 L -0.43962078528040316,70.76089509032201 L -0.28737985030297664,71.52626195505219 L -0.2872305346348759,71.5266224349632 L 0.14631496801460261,72.17546913260611 L 0.14659086739388555,72.1757450319854 L 0.7954375650368011,72.60929053463488 L 0.7957980449478045,72.60943985030298 L 1.561164909677984,72.7616807852804 L 1.56136,72.7617 L 173.761,72.7617 L 173.76119509032202,72.7616807852804 L 174.5265619550522,72.60943985030298 z M 1.56236,70.7597 L 1.56236,51.161699999999996 L 173.76,51.161699999999996 L 173.76,70.7597 L 1.56236,70.7597 z" /><path fill-rule="evenodd" fill="#f89540ff" stroke="#555555" stroke-width="1.268651808" opacity="0.6" d="M 175.17576913260612,72.1757450319854 L 175.1760450319854,72.17546913260611 L 175.6095905346349,71.5266224349632 L 175.609739850303,71.52626195505219 L 175.7619807852804,70.76089509032201 L 175.762,70.7607 L 175.762,51.1607 L 175.7619807852804,51.16050490967798 L 175.609739850303,50.3951380449478 L 175.6095905346349,50.3947775650368 L 175.1760450319854,49.74593086739389 L 175.17576913260612,49.745654968014605 L 174.52692243496318,49.312109465365126 L 174.5265619550522,49.31196014969702 L 173.76119509032202,49.159719214719594 L 173.761,49.1597 L 1.56136,49.1597 L 1.561164909677984,49.159719214719594 L 0.7957980449478033,49.31196014969702 L 0.7954375650367999,49.312109465365126 L 0.1465908673938851,49.745654968014605 L 0.14631496801460217,49.74593086739389 L -0.28723053463487613,50.3947775650368 L -0.28737985030297686,50.3951380449478 L -0.43962078528040316,51.16050490967798 L -0.4396399999999999,51.1607 L -0.4396399999999999,70.7607 L -0.43962078528040316,70.76089509032201 L -0.28737985030297664,71.52626195505219 L -0.2872305346348759,71.5266224349632 L 0.14631496801460261,72.17546913260611 L 0.14659086739388555,72.1757450319854 L 0.7954375650368011,72.60929053463488 L 0.7957980449478045,72.60943985030298 L 1.561164909677984,72.7616807852804 L 1.56136,72.7617 L 173.761,72.7617 L 173.76119509032202,72.7616807852804 L 174.5265619550522,72.60943985030298 L 174.52692243496318,72.60929053463488 L 175.17576913260612,72.1757450319854 z M 1.56236,51.161699999999996 L 4.6954335074624005,51.161699999999996 L 4.695793402498935,51.161632992798836 L 4.696105066417247,51.16144095112536 L 4.6963267317635955,51.161149611329655 L 4.696428692189072,51.16079801714033 L 4.715540105109614,50.96675658541246 L 4.715587426684565,50.966518683789886 L 4.864827712727384,50.60622076117332 L 4.864935047694882,50.606060123042425 L 5.140695139092038,50.33030003164214 L 5.140855777222891,50.330192696674665 L 5.50115369986513,50.1809524106223 L 5.501391601487638,50.180905089047364 L 5.696384142908866,50.1617 L 7.426336696778097,50.1617 L 7.6213292381993245,50.180905089047364 L 7.621567139821833,50.1809524106223 L 7.981865062464072,50.330192696674665 L 7.9820257005949244,50.33030003164214 L 8.257785791992085,50.60606012304243 L 8.257893126959578,50.60622076117332 L 8.407133413002395,50.96651868378988 L 8.407180734577349,50.96675658541247 L 8.42629214749789,51.16079801714033 L 8.426394107923368,51.161149611329655 L 8.426615773269717,51.16144095112536 L 8.426927437188027,51.161632992798836 L 8.427287332224562,51.161699999999996 L 33.89543350746239,51.161699999999996 L 33.89579340249893,51.161632992798836 L 33.89610506641724,51.16144095112535 L 33.89632673176359,51.16114961132965 L 33.89642869218907,51.16079801714032 L 33.91554010510658,50.96675658542773 L 33.91558742668151,50.966518683805226 L 34.06482771273371,50.60622076116385 L 34.064935047701184,50.60606012303299 L 34.34069513909203,50.330300031642146 L 34.340855777222885,50.33019269667467 L 34.701153699864264,50.180952410622474 L 34.70139160148677,50.18090508904754 L 34.896384142908865,50.1617 L 36.62633669677809,50.1617 L 36.821329238200185,50.18090508904754 L 36.82156713982269,50.180952410622474 L 37.18186506246407,50.33019269667467 L 37.18202570059493,50.330300031642146 L 37.45778579198577,50.60606012303299 L 37.457893126953245,50.60622076116385 L 37.60713341300544,50.966518683805226 L 37.607180734580375,50.96675658542773 L 37.626292147497885,51.16079801714032 L 37.62639410792337,51.16114961132965 L 37.62661577326971,51.16144095112535 L 37.62692743718802,51.161632992798836 L 37.62728733222456,51.161699999999996 L 50.89543350746239,51.161699999999996 L 50.89579340249893,51.161632992798836 L 50.89610506641724,51.16144095112535 L 50.89632673176359,51.16114961132965 L 50.89642869218907,51.16079801714032 L 50.91554010510658,50.96675658542773 L 50.91558742668151,50.966518683805226 L 51.06482771273371,50.60622076116385 L 51.064935047701184,50.60606012303299 L 51.34069513909203,50.330300031642146 L 51.340855777222885,50.33019269667467 L 51.701153699864264,50.180952410622474 L 51.70139160148677,50.18090508904754 L 51.896384142908865,50.1617 L 53.62633669677809,50.1617 L 53.821329238200185,50.18090508904754 L 53.82156713982269,50.180952410622474 L 54.18186506246407,50.33019269667467 L 54.18202570059493,50.330300031642146 L 54.45778579198577,50.60606012303299 L 54.457893126953245,50.60622076116385 L 54.60713341300544,50.966518683805226 L 54.607180734580375,50.96675658542773 L 54.626292147497885,51.16079801714032 L 54.62639410792337,51.16114961132965 L 54.62661577326971,51.16144095112535 L 54.62692743718802,51.161632992798836 L 54.62728733222456,51.161699999999996 L 95.8954335074624,51.161699999999996 L 95.89579340249894,51.161632992798836 L 95.89610506641725,51.16144095112536 L 95.8963267317636,51.161149611329655 L 95.89642869218908,51.16079801714034 L 95.91554010511354,50.96675658539277 L 95.9155874266885,50.96651868377014 L 96.06482771271686,50.60622076118904 L 96.06493504768436,50.60606012305816 L 96.34069513910043,50.330300031636526 L 96.3408557772313,50.330192696669044 L 96.70115369986425,50.180952410622474 L 96.70139160148678,50.18090508904754 L 96.89638414290886,50.1617 L 98.62633669677811,50.1617 L 98.82132923820019,50.18090508904754 L 98.82156713982272,50.180952410622474 L 99.18186506245567,50.330192696669044 L 99.18202570058654,50.330300031636526 L 99.45778579200261,50.60606012305816 L 99.4578931269701,50.60622076118904 L 99.60713341299846,50.96651868377014 L 99.60718073457343,50.96675658539277 L 99.62629214749789,51.16079801714034 L 99.62639410792337,51.161149611329655 L 99.62661577326972,51.16144095112536 L 99.62692743718803,51.161632992798836 L 99.62728733222457,51.161699999999996 L 158.89543350746243,51.161699999999996 L 158.89579340249895,51.161632992798836 L 158.89610506641728,51.16144095112536 L 158.89632673176362,51.16114961132966 L 158.8964286921891,51.16079801714034 L 158.9155401051135,50.966756585392915 L 158.9155874266885,50.96651868377014 L 159.0648277127169,50.60622076118904 L 159.0649350476844,50.60606012305813 L 159.34069513908358,50.330300031647816 L 159.3408557772145,50.33019269668028 L 159.70115369987127,50.18095241062108 L 159.70139160149373,50.180905089046156 L 159.8963841429089,50.1617 L 161.6263366967781,50.1617 L 161.82132923819327,50.180905089046156 L 161.82156713981573,50.18095241062108 L 162.1818650624725,50.33019269668028 L 162.18202570060342,50.330300031647816 L 162.4577857920026,50.60606012305813 L 162.4578931269701,50.60622076118904 L 162.6071334129985,50.96651868377014 L 162.6071807345735,50.966756585392915 L 162.6262921474979,51.16079801714034 L 162.62639410792337,51.16114961132966 L 162.62661577326972,51.16144095112536 L 162.62692743718804,51.161632992798836 L 162.62728733222457,51.161699999999996 L 173.76,51.161699999999996 L 173.76,70.7597 L 162.62728733222457,70.7597 L 162.62692743718804,70.75976700720116 L 162.62661577326972,70.75995904887463 L 162.62639410792337,70.76025038867033 L 162.6262921474979,70.76060198285965 L 162.6071807345735,70.9546434146071 L 162.6071334129985,70.95488131622987 L 162.4578931269757,71.3151792388026 L 162.45778579200825,71.31533987693342 L 162.18202570057824,71.59109996836905 L 162.18186506244732,71.59120730333656 L 161.82156713985083,71.74044758937195 L 161.82132923822826,71.74049491094691 L 161.62633669677817,71.75970000000001 L 159.89638414290883,71.75970000000001 L 159.70139160145874,71.74049491094691 L 159.70115369983617,71.74044758937195 L 159.34085577723968,71.59120730333656 L 159.34069513910876,71.59109996836905 L 159.06493504767874,71.31533987693342 L 159.0648277127113,71.3151792388026 L 158.9155874266885,70.95488131622987 L 158.9155401051135,70.9546434146071 L 158.8964286921891,70.76060198285965 L 158.89632673176362,70.76025038867033 L 158.89610506641728,70.75995904887463 L 158.89579340249895,70.75976700720116 L 158.89543350746243,70.7597 L 99.62728733222457,70.7597 L 99.62692743718804,70.75976700720116 L 99.62661577326973,70.75995904887463 L 99.62639410792337,70.76025038867033 L 99.62629214749789,70.76060198285965 L 99.60718073457343,70.95464341460725 L 99.60713341299846,70.95488131622987 L 99.45789312697572,71.31517923880254 L 99.45778579200824,71.31533987693342 L 99.18202570056134,71.59109996838032 L 99.18186506243046,71.5912073033478 L 98.82156713985779,71.74044758937055 L 98.82132923823517,71.74049491094551 L 98.62633669677814,71.75970000000001 L 96.89638414290883,71.75970000000001 L 96.7013916014518,71.74049491094551 L 96.70115369982918,71.74044758937055 L 96.34085577725651,71.5912073033478 L 96.34069513912563,71.59109996838032 L 96.06493504767873,71.31533987693342 L 96.06482771271125,71.31517923880254 L 95.9155874266885,70.95488131622987 L 95.91554010511354,70.95464341460725 L 95.89642869218908,70.76060198285965 L 95.8963267317636,70.76025038867033 L 95.89610506641723,70.75995904887463 L 95.89579340249892,70.75976700720116 L 95.8954335074624,70.7597 L 54.62728733222456,70.7597 L 54.62692743718802,70.75976700720116 L 54.62661577326971,70.75995904887465 L 54.62639410792336,70.76025038867036 L 54.626292147497885,70.76060198285968 L 54.607180734580375,70.95464341457227 L 54.60713341300544,70.9548813161948 L 54.45789312695887,71.31517923882775 L 54.45778579199139,71.31533987695862 L 54.18202570056976,71.59109996837469 L 54.181865062438874,71.59120730334219 L 53.82156713985778,71.74044758937055 L 53.821329238235144,71.74049491094551 L 53.62633669677814,71.75970000000001 L 51.896384142908815,71.75970000000001 L 51.70139160145181,71.74049491094551 L 51.70115369982918,71.74044758937055 L 51.34085577724808,71.59120730334219 L 51.340695139117194,71.59109996837469 L 51.06493504769556,71.31533987695862 L 51.06482771272808,71.31517923882775 L 50.91558742668151,70.9548813161948 L 50.91554010510658,70.95464341457227 L 50.89642869218907,70.76060198285968 L 50.896326731763594,70.76025038867036 L 50.89610506641724,70.75995904887465 L 50.89579340249893,70.75976700720116 L 50.89543350746239,70.7597 L 37.62728733222456,70.7597 L 37.62692743718802,70.75976700720116 L 37.62661577326971,70.75995904887465 L 37.62639410792336,70.76025038867036 L 37.626292147497885,70.76060198285968 L 37.607180734580375,70.95464341457227 L 37.60713341300544,70.9548813161948 L 37.45789312695887,71.31517923882775 L 37.45778579199139,71.31533987695862 L 37.18202570056976,71.59109996837469 L 37.181865062438874,71.59120730334219 L 36.82156713985778,71.74044758937055 L 36.821329238235144,71.74049491094551 L 36.62633669677814,71.75970000000001 L 34.896384142908815,71.75970000000001 L 34.70139160145181,71.74049491094551 L 34.70115369982918,71.74044758937055 L 34.34085577724808,71.59120730334219 L 34.340695139117194,71.59109996837469 L 34.06493504769556,71.31533987695862 L 34.06482771272808,71.31517923882775 L 33.91558742668151,70.9548813161948 L 33.91554010510658,70.95464341457227 L 33.89642869218907,70.76060198285968 L 33.896326731763594,70.76025038867036 L 33.89610506641724,70.75995904887465 L 33.89579340249893,70.75976700720116 L 33.89543350746239,70.7597 L 8.427287332224564,70.7597 L 8.426927437188029,70.75976700720116 L 8.426615773269718,70.75995904887465 L 8.42639410792337,70.76025038867034 L 8.426292147497891,70.76060198285967 L 8.407180734577349,70.95464341458755 L 8.407133413002395,70.95488131621013 L 8.257893126965186,71.31517923881832 L 8.25778579199771,71.31533987694918 L 7.982025700569751,71.5910999683747 L 7.981865062438893,71.59120730334217 L 7.621567139856911,71.74044758937072 L 7.62132923823428,71.74049491094569 L 7.426336696778142,71.75970000000001 L 5.696384142908821,71.75970000000001 L 5.501391601452683,71.74049491094569 L 5.501153699830052,71.74044758937072 L 5.14085577724807,71.59120730334217 L 5.140695139117212,71.5910999683747 L 4.864935047689249,71.31533987694917 L 4.864827712721778,71.31517923881832 L 4.715587426684567,70.95488131621013 L 4.715540105109613,70.95464341458754 L 4.696428692189071,70.76060198285967 L 4.696326731763595,70.76025038867034 L 4.696105066417246,70.75995904887465 L 4.695793402498934,70.75976700720116 L 4.6954335074624,70.7597 L 1.56236,70.7597 L 1.56236,51.161699999999996 z" /><path fill-rule="evenodd" fill="#eff821ff" stroke="#555555" stroke-width="1.268651808" opacity="0.6" d="M 175.17576913260612,72.1757450319854 L 175.1760450319854,72.17546913260611 L 175.6095905346349,71.5266224349632 L 175.609739850303,71.52626195505219 L 175.7619807852804,70.76089509032201 L 175.762,70.7607 L 175.762,51.1607 L 175.7619807852804,51.16050490967798 L 175.609739850303,50.3951380449478 L 175.6095905346349,50.3947775650368 L 175.1760450319854,49.74593086739389 L 175.17576913260612,49.745654968014605 L 174.52692243496318,49.312109465365126 L 174.5265619550522,49.31196014969702 L 173.76119509032202,49.159719214719594 L 173.761,49.1597 L 1.56136,49.1597 L 1.561164909677984,49.159719214719594 L 0.7957980449478033,49.31196014969702 L 0.7954375650367999,49.312109465365126 L 0.1465908673938851,49.745654968014605 L 0.14631496801460217,49.74593086739389 L -0.28723053463487613,50.3947775650368 L -0.28737985030297686,50.3951380449478 L -0.43962078528040316,51.16050490967798 L -0.4396399999999999,51.1607 L -0.4396399999999999,70.7607 L -0.43962078528040316,70.76089509032201 L -0.28737985030297664,71.52626195505219 L -0.2872305346348759,71.5266224349632 L 0.14631496801460261,72.17546913260611 L 0.14659086739388555,72.1757450319854 L 0.7954375650368011,72.60929053463488 L 0.7957980449478045,72.60943985030298 L 1.561164909677984,72.7616807852804 L 1.56136,72.7617 L 173.761,72.7617 L 173.76119509032202,72.7616807852804 L 174.5265619550522,72.60943985030298 L 174.52692243496318,72.60929053463488 L 175.17576913260612,72.1757450319854 z M 1.56236,51.161699999999996 L 4.6954335074624005,51.161699999999996 L 4.695793402498935,51.161632992798836 L 4.696105066417247,51.16144095112536 L 4.6963267317635955,51.161149611329655 L 4.696428692189072,51.16079801714033 L 4.715540105109614,50.96675658541246 L 4.715587426684565,50.966518683789886 L 4.864827712727384,50.60622076117332 L 4.864935047694882,50.606060123042425 L 5.140695139092038,50.33030003164214 L 5.140855777222891,50.330192696674665 L 5.50115369986513,50.1809524106223 L 5.501391601487638,50.180905089047364 L 5.696384142908866,50.1617 L 7.426336696778097,50.1617 L 7.6213292381993245,50.180905089047364 L 7.621567139821833,50.1809524106223 L 7.981865062464072,50.330192696674665 L 7.9820257005949244,50.33030003164214 L 8.257785791992085,50.60606012304243 L 8.257893126959578,50.60622076117332 L 8.407133413002395,50.96651868378988 L 8.407180734577349,50.96675658541247 L 8.42629214749789,51.16079801714033 L 8.426394107923368,51.161149611329655 L 8.426615773269717,51.16144095112536 L 8.426927437188027,51.161632992798836 L 8.427287332224562,51.161699999999996 L 33.89543350746239,51.161699999999996 L 33.89579340249893,51.161632992798836 L 33.89610506641724,51.16144095112535 L 33.89632673176359,51.16114961132965 L 33.89642869218907,51.16079801714032 L 33.91554010510658,50.96675658542773 L 33.91558742668151,50.966518683805226 L 34.06482771273371,50.60622076116385 L 34.064935047701184,50.60606012303299 L 34.34069513909203,50.330300031642146 L 34.340855777222885,50.33019269667467 L 34.701153699864264,50.180952410622474 L 34.70139160148677,50.18090508904754 L 34.896384142908865,50.1617 L 36.62633669677809,50.1617 L 36.821329238200185,50.18090508904754 L 36.82156713982269,50.180952410622474 L 37.18186506246407,50.33019269667467 L 37.18202570059493,50.330300031642146 L 37.45778579198577,50.60606012303299 L 37.457893126953245,50.60622076116385 L 37.60713341300544,50.966518683805226 L 37.607180734580375,50.96675658542773 L 37.626292147497885,51.16079801714032 L 37.62639410792337,51.16114961132965 L 37.62661577326971,51.16144095112535 L 37.62692743718802,51.161632992798836 L 37.62728733222456,51.161699999999996 L 50.89543350746239,51.161699999999996 L 50.89579340249893,51.161632992798836 L 50.89610506641724,51.16144095112535 L 50.89632673176359,51.16114961132965 L 50.89642869218907,51.16079801714032 L 50.91554010510658,50.96675658542773 L 50.91558742668151,50.966518683805226 L 51.06482771273371,50.60622076116385 L 51.064935047701184,50.60606012303299 L 51.34069513909203,50.330300031642146 L 51.340855777222885,50.33019269667467 L 51.701153699864264,50.180952410622474 L 51.70139160148677,50.18090508904754 L 51.896384142908865,50.1617 L 53.62633669677809,50.1617 L 53.821329238200185,50.18090508904754 L 53.82156713982269,50.180952410622474 L 54.18186506246407,50.33019269667467 L 54.18202570059493,50.330300031642146 L 54.45778579198577,50.60606012303299 L 54.457893126953245,50.60622076116385 L 54.60713341300544,50.966518683805226 L 54.607180734580375,50.96675658542773 L 54.626292147497885,51.16079801714032 L 54.62639410792337,51.16114961132965 L 54.62661577326971,51.16144095112535 L 54.62692743718802,51.161632992798836 L 54.62728733222456,51.161699999999996 L 95.8954335074624,51.161699999999996 L 95.89579340249894,51.161632992798836 L 95.89610506641725,51.16144095112536 L 95.8963267317636,51.161149611329655 L 95.89642869218908,51.16079801714034 L 95.91554010511354,50.96675658539277 L 95.9155874266885,50.96651868377014 L 96.06482771271686,50.60622076118904 L 96.06493504768436,50.60606012305816 L 96.34069513910043,50.330300031636526 L 96.3408557772313,50.330192696669044 L 96.70115369986425,50.180952410622474 L 96.70139160148678,50.18090508904754 L 96.89638414290886,50.1617 L 98.62633669677811,50.1617 L 98.82132923820019,50.18090508904754 L 98.82156713982272,50.180952410622474 L 99.18186506245567,50.330192696669044 L 99.18202570058654,50.330300031636526 L 99.45778579200261,50.60606012305816 L 99.4578931269701,50.60622076118904 L 99.60713341299846,50.96651868377014 L 99.60718073457343,50.96675658539277 L 99.62629214749789,51.16079801714034 L 99.62639410792337,51.161149611329655 L 99.62661577326972,51.16144095112536 L 99.62692743718803,51.161632992798836 L 99.62728733222457,51.161699999999996 L 158.89543350746243,51.161699999999996 L 158.89579340249895,51.161632992798836 L 158.89610506641728,51.16144095112536 L 158.89632673176362,51.16114961132966 L 158.8964286921891,51.16079801714034 L 158.9155401051135,50.966756585392915 L 158.9155874266885,50.96651868377014 L 159.0648277127169,50.60622076118904 L 159.0649350476844,50.60606012305813 L 159.34069513908358,50.330300031647816 L 159.3408557772145,50.33019269668028 L 159.70115369987127,50.18095241062108 L 159.70139160149373,50.180905089046156 L 159.8963841429089,50.1617 L 161.6263366967781,50.1617 L 161.82132923819327,50.180905089046156 L 161.82156713981573,50.18095241062108 L 162.1818650624725,50.33019269668028 L 162.18202570060342,50.330300031647816 L 162.4577857920026,50.60606012305813 L 162.4578931269701,50.60622076118904 L 162.6071334129985,50.96651868377014 L 162.6071807345735,50.966756585392915 L 162.6262921474979,51.16079801714034 L 162.62639410792337,51.16114961132966 L 162.62661577326972,51.16144095112536 L 162.62692743718804,51.161632992798836 L 162.62728733222457,51.161699999999996 L 173.76,51.161699999999996 L 173.76,70.7597 L 162.62728733222457,70.7597 L 162.62692743718804,70.75976700720116 L 162.62661577326972,70.75995904887463 L 162.62639410792337,70.76025038867033 L 162.6262921474979,70.76060198285965 L 162.6071807345735,70.9546434146071 L 162.6071334129985,70.95488131622987 L 162.4578931269757,71.3151792388026 L 162.45778579200825,71.31533987693342 L 162.18202570057824,71.59109996836905 L 162.18186506244732,71.59120730333656 L 161.82156713985083,71.74044758937195 L 161.82132923822826,71.74049491094691 L 161.62633669677817,71.75970000000001 L 159.89638414290883,71.75970000000001 L 159.70139160145874,71.74049491094691 L 159.70115369983617,71.74044758937195 L 159.34085577723968,71.59120730333656 L 159.34069513910876,71.59109996836905 L 159.06493504767874,71.31533987693342 L 159.0648277127113,71.3151792388026 L 158.9155874266885,70.95488131622987 L 158.9155401051135,70.9546434146071 L 158.8964286921891,70.76060198285965 L 158.89632673176362,70.76025038867033 L 158.89610506641728,70.75995904887463 L 158.89579340249895,70.75976700720116 L 158.89543350746243,70.7597 L 99.62728733222457,70.7597 L 99.62692743718804,70.75976700720116 L 99.62661577326973,70.75995904887463 L 99.62639410792337,70.76025038867033 L 99.62629214749789,70.76060198285965 L 99.60718073457343,70.95464341460725 L 99.60713341299846,70.95488131622987 L 99.45789312697572,71.31517923880254 L 99.45778579200824,71.31533987693342 L 99.18202570056134,71.59109996838032 L 99.18186506243046,71.5912073033478 L 98.82156713985779,71.74044758937055 L 98.82132923823517,71.74049491094551 L 98.62633669677814,71.75970000000001 L 96.89638414290883,71.75970000000001 L 96.7013916014518,71.74049491094551 L 96.70115369982918,71.74044758937055 L 96.34085577725651,71.5912073033478 L 96.34069513912563,71.59109996838032 L 96.06493504767873,71.31533987693342 L 96.06482771271125,71.31517923880254 L 95.9155874266885,70.95488131622987 L 95.91554010511354,70.95464341460725 L 95.89642869218908,70.76060198285965 L 95.8963267317636,70.76025038867033 L 95.89610506641723,70.75995904887463 L 95.89579340249892,70.75976700720116 L 95.8954335074624,70.7597 L 54.62728733222456,70.7597 L 54.62692743718802,70.75976700720116 L 54.62661577326971,70.75995904887465 L 54.62639410792336,70.76025038867036 L 54.626292147497885,70.76060198285968 L 54.607180734580375,70.95464341457227 L 54.60713341300544,70.9548813161948 L 54.45789312695887,71.31517923882775 L 54.45778579199139,71.31533987695862 L 54.18202570056976,71.59109996837469 L 54.181865062438874,71.59120730334219 L 53.82156713985778,71.74044758937055 L 53.821329238235144,71.74049491094551 L 53.62633669677814,71.75970000000001 L 51.896384142908815,71.75970000000001 L 51.70139160145181,71.74049491094551 L 51.70115369982918,71.74044758937055 L 51.34085577724808,71.59120730334219 L 51.340695139117194,71.59109996837469 L 51.06493504769556,71.31533987695862 L 51.06482771272808,71.31517923882775 L 50.91558742668151,70.9548813161948 L 50.91554010510658,70.95464341457227 L 50.89642869218907,70.76060198285968 L 50.896326731763594,70.76025038867036 L 50.89610506641724,70.75995904887465 L 50.89579340249893,70.75976700720116 L 50.89543350746239,70.7597 L 37.62728733222456,70.7597 L 37.62692743718802,70.75976700720116 L 37.62661577326971,70.75995904887465 L 37.62639410792336,70.76025038867036 L 37.626292147497885,70.76060198285968 L 37.607180734580375,70.95464341457227 L 37.60713341300544,70.9548813161948 L 37.45789312695887,71.31517923882775 L 37.45778579199139,71.31533987695862 L 37.18202570056976,71.59109996837469 L 37.181865062438874,71.59120730334219 L 36.82156713985778,71.74044758937055 L 36.821329238235144,71.74049491094551 L 36.62633669677814,71.75970000000001 L 34.896384142908815,71.75970000000001 L 34.70139160145181,71.74049491094551 L 34.70115369982918,71.74044758937055 L 34.34085577724808,71.59120730334219 L 34.340695139117194,71.59109996837469 L 34.06493504769556,71.31533987695862 L 34.06482771272808,71.31517923882775 L 33.91558742668151,70.9548813161948 L 33.91554010510658,70.95464341457227 L 33.89642869218907,70.76060198285968 L 33.896326731763594,70.76025038867036 L 33.89610506641724,70.75995904887465 L 33.89579340249893,70.75976700720116 L 33.89543350746239,70.7597 L 8.427287332224564,70.7597 L 8.426927437188029,70.75976700720116 L 8.426615773269718,70.75995904887465 L 8.42639410792337,70.76025038867034 L 8.426292147497891,70.76060198285967 L 8.407180734577349,70.95464341458755 L 8.407133413002395,70.95488131621013 L 8.257893126965186,71.31517923881832 L 8.25778579199771,71.31533987694918 L 7.982025700569751,71.5910999683747 L 7.981865062438893,71.59120730334217 L 7.621567139856911,71.74044758937072 L 7.62132923823428,71.74049491094569 L 7.426336696778142,71.75970000000001 L 5.696384142908821,71.75970000000001 L 5.501391601452683,71.74049491094569 L 5.501153699830052,71.74044758937072 L 5.14085577724807,71.59120730334217 L 5.140695139117212,71.5910999683747 L 4.864935047689249,71.31533987694917 L 4.864827712721778,71.31517923881832 L 4.715587426684567,70.95488131621013 L 4.715540105109613,70.95464341458754 L 4.696428692189071,70.76060198285967 L 4.696326731763595,70.76025038867034 L 4.696105066417246,70.75995904887465 L 4.695793402498934,70.75976700720116 L 4.6954335074624,70.7597 L 1.56236,70.7597 L 1.56236,51.161699999999996 z" /></g></g></svg>