<svg xmlns="http://www.w3.org/2000/svg" xmlns:xlink="http://www.w3.org/1999/xlink" width="300" height="300" viewBox="-32.37592925267748 15.923590747322525 451.6899241134196 90.07421850535495" preserveAspectRatio="xMinYMin meet"><g transform="matrix(1,0,0,-1,0,121.92139999999999)"><g><path fill-rule="evenodd" fill="#00FF00" stroke="#555555" stroke-width="3.0112661607561306" opacity="0.6" d="M 190.9690328040323,89.2685528040323 L 190.9690328040323,32.652847195967695 L -15.646672804032312,32.652847195967695 L -15.646672804032312,89.2685528040323 L 190.9690328040323,89.2685528040323 z M -5.106586952966375,46.72846695296637 L -5.648518831278222,45.91740858091273 L -5.8388200000000055,44.9607 L -5.648518831278222,44.00399141908728 L -5.106586952966374,43.192933047033634 L -4.29552858091273,42.651001168721784 L -3.338820000000006,42.4607 L -2.3821114190872814,42.651001168721784 L -1.571053047033637,43.192933047033634 L -1.029121168721789,44.00399141908728 L -0.8388200000000059,44.9607 L -1.0291211687217898,45.91740858091273 L -1.5710530470336375,46.72846695296637 L -2.382111419087281,47.27039883127822 L -3.3388200000000063,47.4607 L -4.295528580912732,47.27039883127822 L -5.106586952966375,46.72846695296637 z M 176.89341304703362,46.72846695296637 L 176.3514811687218,45.91740858091273 L 176.16118,44.9607 L 176.3514811687218,44.00399141908728 L 176.89341304703365,43.192933047033634 L 177.70447141908727,42.651001168721784 L 178.66118,42.4607 L 179.61788858091273,42.651001168721784 L 180.42894695296638,43.192933047033634 L 180.9708788312782,44.00399141908728 L 181.16118,44.9607 L 180.9708788312782,45.91740858091273 L 180.42894695296636,46.72846695296637 L 179.61788858091273,47.27039883127822 L 178.66118,47.4607 L 177.70447141908727,47.27039883127822 L 176.89341304703362,46.72846695296637 z M -5.106586952966375,78.72846695296637 L -5.648518831278222,77.91740858091272 L -5.8388200000000055,76.9607 L -5.648518831278222,76.00399141908728 L -5.106586952966374,75.19293304703363 L -4.29552858091273,74.65100116872179 L -3.338820000000006,74.4607 L -2.3821114190872814,74.65100116872179 L -1.571053047033637,75.19293304703363 L -1.029121168721789,76.00399141908728 L -0.8388200000000059,76.9607 L -1.0291211687217898,77.91740858091273 L -1.5710530470336375,78.72846695296637 L -2.382111419087281,79.27039883127821 L -3.3388200000000063,79.4607 L -4.295528580912732,79.27039883127821 L -5.106586952966375,78.72846695296637 z M 176.89341304703362,78.72846695296637 L 176.3514811687218,77.91740858091272 L 176.16118,76.9607 L 176.3514811687218,76.00399141908728 L 176.89341304703365,75.19293304703363 L 177.70447141908727,74.65100116872179 L 178.66118,74.4607 L 179.61788858091273,74.65100116872179 L 180.42894695296638,75.19293304703363 L 180.9708788312782,76.00399141908728 L 181.16118,76.9607 L 180.9708788312782,77.91740858091273 L 180.42894695296636,78.72846695296637 L 179.61788858091273,79.27039883127821 L 178.66118,79.4607 L 177.70447141908727,79.27039883127821 L 176.89341304703362,78.72846695296637 z M 8.035078437499994,41.929918750000006 L 7.593265937499995,41.849762500000004 L 7.737062812499994,41.413207812500005 L 8.397890937499996,41.74616875 L 9.678953437499995,45.05366875 L 9.239109687499994,45.05366875 L 8.504734687499994,42.951325000000004 L 7.776609687499995,45.05366875 L 7.303172187499994,45.05366875 L 8.287547187499994,42.4560125 L 8.035078437499994,41.929918750000006 z M 4.698191718749994,44.313825 L 5.930691718749994,44.7422625 L 6.349441718749993,44.54935625 L 6.427097968749994,44.106012500000006 L 4.936472968749994,43.745075 L 4.6591604687499935,42.902918750000005 L 5.198879218749994,42.43548125 L 6.177129218749995,42.575387500000005 L 6.463816718749994,42.78023125 L 6.5513167187499945,42.4607 L 7.010691718749994,42.4607 L 6.820262031249994,44.641098437500006 L 6.3189729687499945,45.0622625 L 5.279441718749995,45.020075000000006 L 4.698191718749994,44.313825 z M 12.293797187499996,43.645075000000006 L 11.966453437499995,44.758356250000006 L 11.218609687499995,45.108723437500004 L 10.311726874999994,44.8192703125 L 9.908883124999996,43.862918750000006 L 10.239109687499996,42.752106250000004 L 11.230156562499996,42.4043015625 L 12.128367499999996,42.886285937500006 L 12.281297187499995,43.23960625 L 11.827390937499995,43.29585625 L 11.447312812499995,42.825840625000005 L 10.845750312499995,42.820465625000004 L 10.366976874999995,43.561606250000004 L 12.293797187499996,43.645075000000006 z M 13.666496406249994,45.0981375 L 13.283465156249997,44.763481250000005 L 13.223777656249995,45.05366875 L 12.828465156249996,45.05366875 L 12.828465156249996,42.4607 L 13.267527656249996,42.4607 L 13.390340156249996,44.4433875 L 14.085496406249995,44.563043750000006 L 14.237058906249995,44.970856250000004 L 13.666496406249994,45.0981375 z M 2.0275862499999944,46.039606250000006 L 2.0275862499999944,42.4607 L 4.263523749999994,42.4607 L 4.263523749999994,42.883356250000006 L 2.501023749999994,42.883356250000006 L 2.501023749999994,46.039606250000006 L 2.0275862499999944,46.039606250000006 z M 16.102195624999993,44.731012500000006 L 16.838351874999997,45.139950000000006 L 16.981101874999993,42.4607 L 17.420164374999995,42.4607 L 17.420164374999995,46.05445 L 16.102195624999993,45.1560125 L 16.102195624999993,44.731012500000006 z M 4.6964383460347765,51.1607 L 4.715540105109614,50.96675658541246 L 4.715587426684565,50.966518683789886 L 4.864827712727384,50.60622076117332 L 4.864935047694882,50.606060123042425 L 5.140695139092038,50.33030003164214 L 5.140855777222891,50.330192696674665 L 5.50115369986513,50.1809524106223 L 5.501391601487638,50.180905089047364 L 5.696384142908866,50.1617 L 7.426336696778097,50.1617 L 7.6213292381993245,50.180905089047364 L 7.621567139821833,50.1809524106223 L 7.981865062464072,50.330192696674665 L 7.9820257005949244,50.33030003164214 L 8.257785791992085,50.60606012304243 L 8.257893126959578,50.60622076117332 L 8.407133413002395,50.96651868378988 L 8.407180734577349,50.96675658541247 L 8.426282493652185,51.1607 L 7.42738582362792,51.1607 L 7.42738582362792,70.76067563916963 L 7.427380977957481,70.7607 L 8.426282493652186,70.7607 L 8.407180734577349,70.95464341458755 L 8.407133413002395,70.95488131621013 L 8.257893126965186,71.31517923881832 L 8.25778579199771,71.31533987694918 L 7.982025700569751,71.5910999683747 L 7.981865062438893,71.59120730334217 L 7.621567139856911,71.74044758937072 L 7.62132923823428,71.74049491094569 L 7.426336696778142,71.75970000000001 L 5.696384142908821,71.75970000000001 L 5.501391601452683,71.74049491094569 L 5.501153699830052,71.74044758937072 L 5.14085577724807,71.59120730334217 L 5.140695139117212,71.5910999683747 L 4.864935047689249,71.31533987694917 L 4.864827712721778,71.31517923881832 L 4.715587426684567,70.95488131621013 L 4.715540105109613,70.95464341458754 L 4.696438346034776,70.7607 L 5.695339861729482,70.7607 L 5.695335016059043,70.76067563916963 L 5.695335016059043,51.1607 L 4.6964383460347765,51.1607 z M 34.895335016059036,51.1607 L 33.89643834603477,51.1607 L 33.91554010510658,50.96675658542773 L 33.91558742668151,50.966518683805226 L 34.06482771273371,50.60622076116385 L 34.064935047701184,50.60606012303299 L 34.34069513909203,50.330300031642146 L 34.340855777222885,50.33019269667467 L 34.701153699864264,50.180952410622474 L 34.70139160148677,50.18090508904754 L 34.896384142908865,50.1617 L 36.62633669677809,50.1617 L 36.821329238200185,50.18090508904754 L 36.82156713982269,50.180952410622474 L 37.18186506246407,50.33019269667467 L 37.18202570059493,50.330300031642146 L 37.45778579198577,50.60606012303299 L 37.457893126953245,50.60622076116385 L 37.60713341300544,50.966518683805226 L 37.607180734580375,50.96675658542773 L 37.626282493652184,51.1607 L 36.62738582362792,51.1607 L 36.62738582362792,70.76067563916963 L 36.62738097795748,70.7607 L 37.626282493652184,70.7607 L 37.607180734580375,70.95464341457227 L 37.60713341300544,70.9548813161948 L 37.45789312695887,71.31517923882775 L 37.45778579199139,71.31533987695862 L 37.18202570056976,71.59109996837469 L 37.181865062438874,71.59120730334219 L 36.82156713985778,71.74044758937055 L 36.821329238235144,71.74049491094551 L 36.62633669677814,71.75970000000001 L 34.896384142908815,71.75970000000001 L 34.70139160145181,71.74049491094551 L 34.70115369982918,71.74044758937055 L 34.34085577724808,71.59120730334219 L 34.340695139117194,71.59109996837469 L 34.06493504769556,71.31533987695862 L 34.06482771272808,71.31517923882775 L 33.91558742668151,70.9548813161948 L 33.91554010510658,70.95464341457227 L 33.89643834603477,70.7607 L 34.895339861729475,70.7607 L 34.895335016059036,70.76067563916963 L 34.895335016059036,51.1607 z M 51.895335016059036,51.1607 L 50.89643834603477,51.1607 L 50.91554010510658,50.96675658542773 L 50.91558742668151,50.966518683805226 L 51.06482771273371,50.60622076116385 L 51.064935047701184,50.60606012303299 L 51.34069513909203,50.330300031642146 L 51.340855777222885,50.33019269667467 L 51.701153699864264,50.180952410622474 L 51.70139160148677,50.18090508904754 L 51.896384142908865,50.1617 L 53.62633669677809,50.1617 L 53.821329238200185,50.18090508904754 L 53.82156713982269,50.180952410622474 L 54.18186506246407,50.33019269667467 L 54.18202570059493,50.330300031642146 L 54.45778579198577,50.60606012303299 L 54.457893126953245,50.60622076116385 L 54.60713341300544,50.966518683805226 L 54.607180734580375,50.96675658542773 L 54.626282493652184,51.1607 L 53.62738582362792,51.1607 L 53.62738582362792,70.76067563916963 L 53.62738097795748,70.7607 L 54.626282493652184,70.7607 L 54.607180734580375,70.95464341457227 L 54.60713341300544,70.9548813161948 L 54.45789312695887,71.31517923882775 L 54.45778579199139,71.31533987695862 L 54.18202570056976,71.59109996837469 L 54.181865062438874,71.59120730334219 L 53.82156713985778,71.74044758937055 L 53.821329238235144,71.74049491094551 L 53.62633669677814,71.75970000000001 L 51.896384142908815,71.75970000000001 L 51.70139160145181,71.74049491094551 L 51.70115369982918,71.74044758937055 L 51.34085577724808,71.59120730334219 L 51.340695139117194,71.59109996837469 L 51.06493504769556,71.31533987695862 L 51.06482771272808,71.31517923882775 L 50.91558742668151,70.9548813161948 L 50.91554010510658,70.95464341457227 L 50.89643834603477,70.7607 L 51.895339861729475,70.7607 L 51.895335016059036,70.76067563916963 L 51.895335016059036,51.1607 z M 96.89533501605905,51.1607 L 95.89643834603478,51.1607 L 95.91554010511354,50.96675658539277 L 95.9155874266885,50.96651868377014 L 96.06482771271686,50.60622076118904 L 96.06493504768436,50.60606012305816 L 96.34069513910043,50.330300031636526 L 96.3408557772313,50.330192696669044 L 96.70115369986425,50.180952410622474 L 96.70139160148678,50.18090508904754 L 96.89638414290886,50.1617 L 98.62633669677811,50.1617 L 98.82132923820019,50.18090508904754 L 98.82156713982272,50.180952410622474 L 99.18186506245567,50.330192696669044 L 99.18202570058654,50.330300031636526 L 99.45778579200261,50.60606012305816 L 99.4578931269701,50.60622076118904 L 99.60713341299846,50.96651868377014 L 99.60718073457343,50.96675658539277 L 99.62628249365218,51.1607 L 98.62738582362792,51.1607 L 98.62738582362792,70.76067563916963 L 98.62738097795747,70.7607 L 99.62628249365218,70.7607 L 99.60718073457343,70.95464341460725 L 99.60713341299846,70.95488131622987 L 99.45789312697572,71.31517923880254 L 99.45778579200824,71.31533987693342 L 99.18202570056134,71.59109996838032 L 99.18186506243046,71.5912073033478 L 98.82156713985779,71.74044758937055 L 98.82132923823517,71.74049491094551 L 98.62633669677814,71.75970000000001 L 96.89638414290883,71.75970000000001 L 96.7013916014518,71.74049491094551 L 96.70115369982918,71.74044758937055 L 96.34085577725651,71.5912073033478 L 96.34069513912563,71.59109996838032 L 96.06493504767873,71.31533987693342 L 96.06482771271125,71.31517923880254 L 95.9155874266885,70.95488131622987 L 95.91554010511354,70.95464341460725 L 95.89643834603478,70.7607 L 96.8953398617295,70.7607 L 96.89533501605905,70.76067563916963 L 96.89533501605905,51.1607 z M 159.89533501605905,51.1607 L 158.89643834603478,51.1607 L 158.9155401051135,50.966756585392915 L 158.9155874266885,50.96651868377014 L 159.0648277127169,50.60622076118904 L 159.0649350476844,50.60606012305813 L 159.34069513908358,50.330300031647816 L 159.3408557772145,50.33019269668028 L 159.70115369987127,50.18095241062108 L 159.70139160149373,50.180905089046156 L 159.8963841429089,50.1617 L 161.6263366967781,50.1617 L 161.82132923819327,50.180905089046156 L 161.82156713981573,50.18095241062108 L 162.1818650624725,50.33019269668028 L 162.18202570060342,50.330300031647816 L 162.4577857920026,50.60606012305813 L 162.4578931269701,50.60622076118904 L 162.6071334129985,50.96651868377014 L 162.6071807345735,50.966756585392915 L 162.6262824936522,51.1607 L 161.62738582362795,51.1607 L 161.62738582362795,70.76067563916963 L 161.6273809779575,70.7607 L 162.6262824936522,70.7607 L 162.6071807345735,70.9546434146071 L 162.6071334129985,70.95488131622987 L 162.4578931269757,71.3151792388026 L 162.45778579200825,71.31533987693342 L 162.18202570057824,71.59109996836905 L 162.18186506244732,71.59120730333656 L 161.82156713985083,71.74044758937195 L 161.82132923822826,71.74049491094691 L 161.62633669677817,71.75970000000001 L 159.89638414290883,71.75970000000001 L 159.70139160145874,71.74049491094691 L 159.70115369983617,71.74044758937195 L 159.34085577723968,71.59120730333656 L 159.34069513910876,71.59109996836905 L 159.06493504767874,71.31533987693342 L 159.0648277127113,71.3151792388026 L 158.9155874266885,70.95488131622987 L 158.9155401051135,70.9546434146071 L 158.89643834603478,70.7607 L 159.8953398617295,70.7607 L 159.89533501605905,70.76067563916963 L 159.89533501605905,51.1607 z" /><path fill-rule="evenodd" fill="#00FF00" stroke="#555555" stroke-width="3.0112661607561306" opacity="0.6" d="M 195.9690328040323,89.2685528040323 L 402.58473841209695,89.2685528040323 L 402.58473841209695,32.652847195967695 L 195.9690328040323,32.652847195967695 L 195.9690328040323,89.2685528040323 z M 388.50911865509823,46.72846695296637 L 387.96718677678643,45.91740858091273 L 387.7768856080646,44.9607 L 387.96718677678643,44.00399141908728 L 388.50911865509823,43.192933047033634 L 389.3201770271519,42.651001168721784 L 390.2768856080646,42.4607 L 391.23359418897735,42.651001168721784 L 392.044652561031,43.192933047033634 L 392.58658443934286,44.00399141908728 L 392.7768856080646,44.9607 L 392.58658443934286,45.91740858091273 L 392.044652561031,46.72846695296637 L 391.23359418897735,47.27039883127822 L 390.2768856080646,47.4607 L 389.3201770271519,47.27039883127822 L 388.50911865509823,46.72846695296637 z M 206.50911865509826,46.72846695296637 L 205.9671867767864,45.91740858091273 L 205.77688560806462,44.9607 L 205.9671867767864,44.00399141908728 L 206.50911865509823,43.192933047033634 L 207.32017702715189,42.651001168721784 L 208.27688560806462,42.4607 L 209.23359418897735,42.651001168721784 L 210.04465256103097,43.192933047033634 L 210.58658443934283,44.00399141908728 L 210.77688560806462,44.9607 L 210.58658443934283,45.91740858091273 L 210.044652561031,46.72846695296637 L 209.23359418897735,47.27039883127822 L 208.27688560806462,47.4607 L 207.32017702715189,47.27039883127822 L 206.50911865509826,46.72846695296637 z M 388.50911865509823,78.72846695296637 L 387.96718677678643,77.91740858091273 L 387.7768856080646,76.9607 L 387.96718677678643,76.00399141908728 L 388.50911865509823,75.19293304703363 L 389.3201770271519,74.65100116872179 L 390.2768856080646,74.4607 L 391.23359418897735,74.65100116872179 L 392.044652561031,75.19293304703363 L 392.58658443934286,76.00399141908728 L 392.7768856080646,76.9607 L 392.58658443934286,77.91740858091272 L 392.044652561031,78.72846695296637 L 391.23359418897735,79.27039883127821 L 390.2768856080646,79.4607 L 389.3201770271519,79.27039883127821 L 388.50911865509823,78.72846695296637 z M 206.50911865509826,78.72846695296637 L 205.9671867767864,77.91740858091273 L 205.77688560806462,76.9607 L 205.9671867767864,76.00399141908728 L 206.50911865509823,75.19293304703363 L 207.32017702715189,74.65100116872179 L 208.27688560806462,74.4607 L 209.23359418897735,74.65100116872179 L 210.04465256103097,75.19293304703363 L 210.58658443934283,76.00399141908728 L 210.77688560806462,76.9607 L 210.58658443934283,77.91740858091272 L 210.044652561031,78.72846695296637 L 209.23359418897735,79.27039883127821 L 208.27688560806462,79.4607 L 207.32017702715189,79.27039883127821 L 206.50911865509826,78.72846695296637 z M 378.43333092056463,42.951325000000004 L 377.69895592056463,45.05366875 L 377.2591121705646,45.05366875 L 378.5401746705646,41.74616875 L 379.20100279556465,41.413207812500005 L 379.3447996705646,41.849762500000004 L 378.90298717056464,41.929918750000006 L 378.65051842056465,42.4560125 L 379.63489342056465,45.05366875 L 379.1614559205646,45.05366875 L 378.43333092056463,42.951325000000004 z M 379.92737388931465,42.4607 L 380.3867488893146,42.4607 L 380.47424888931465,42.78023125 L 380.7609363893146,42.575387500000005 L 381.7391863893146,42.43548125 L 382.27890513931465,42.902918750000005 L 382.00159263931465,43.745075 L 380.51096763931463,44.106012500000006 L 380.58862388931465,44.54935625 L 381.00737388931464,44.7422625 L 382.23987388931465,44.313825 L 381.65862388931464,45.020075000000006 L 380.6190926393146,45.0622625 L 380.11780357681465,44.641098437500006 L 379.92737388931465,42.4607 z M 375.1106746705646,43.29585625 L 374.6567684205646,43.23960625 L 374.8096981080646,42.886285937500006 L 375.70790904556463,42.4043015625 L 376.69895592056463,42.752106250000004 L 377.02918248306463,43.862918750000006 L 376.62633873306464,44.8192703125 L 375.7194559205646,45.108723437500004 L 374.97161217056464,44.758356250000006 L 374.64426842056463,43.645075000000006 L 376.57108873306464,43.561606250000004 L 376.0923152955646,42.820465625000004 L 375.4907527955646,42.825840625000005 L 375.1106746705646,43.29585625 z M 373.6705379518146,42.4607 L 374.10960045181463,42.4607 L 374.10960045181463,45.05366875 L 373.71428795181464,45.05366875 L 373.65460045181464,44.763481250000005 L 373.2715692018146,45.0981375 L 372.7010067018146,44.970856250000004 L 372.8525692018146,44.563043750000006 L 373.54772545181464,44.4433875 L 373.6705379518146,42.4607 z M 370.6409324830646,45.898950000000006 L 369.6627449830646,45.9928171875 L 369.03508873306464,45.3616765625 L 369.08227623306465,44.779981250000006 L 369.4952449830646,44.398981250000006 L 368.9126277955646,43.9463171875 L 368.8812449830646,43.16560625 L 369.31249498306465,42.60591875 L 370.0327449830646,42.39741875 L 370.8155574830646,42.677887500000004 L 371.1702449830646,43.40523125 L 370.73118248306463,43.463825 L 370.62883873306464,43.1425359375 L 369.9693387330646,42.762848437500004 L 369.3271512330646,43.27048125 L 369.53116685806464,44.044200000000004 L 370.3038387330646,44.15523125 L 370.25461998306463,44.541168750000004 L 369.5100887330646,44.868317187500004 L 369.61790123306463,45.5341375 L 370.2311512330646,45.667637500000005 L 370.6866512330646,45.048981250000004 L 371.1264949830646,45.127106250000004 L 370.6409324830646,45.898950000000006 z M 382.67454185806463,42.4607 L 384.9104793580646,42.4607 L 384.9104793580646,46.039606250000006 L 384.4370418580646,46.039606250000006 L 384.4370418580646,42.883356250000006 L 382.67454185806463,42.883356250000006 L 382.67454185806463,42.4607 z M 382.24162726202985,70.7607 L 382.222525502955,70.95464341458754 L 382.22247818138004,70.95488131621013 L 382.07323789534286,71.31517923881832 L 382.0731305603754,71.31533987694917 L 381.7973704689474,71.5910999683747 L 381.79720983081654,71.59120730334217 L 381.43691190823455,71.74044758937072 L 381.43667400661195,71.74049491094569 L 381.2416814651558,71.75970000000001 L 379.51172891128647,71.75970000000001 L 379.3167363698303,71.74049491094569 L 379.3164984682077,71.74044758937072 L 378.95620054562573,71.59120730334217 L 378.95603990749487,71.5910999683747 L 378.6802798160669,71.31533987694918 L 378.6801724810994,71.31517923881832 L 378.53093219506223,70.95488131621013 L 378.53088487348725,70.95464341458755 L 378.5117831144124,70.7607 L 379.51068463010716,70.7607 L 379.5106797844367,70.76067563916963 L 379.5106797844367,51.1607 L 378.5117831144124,51.1607 L 378.53088487348725,50.96675658541247 L 378.53093219506223,50.96651868378988 L 378.68017248110505,50.60622076117332 L 378.6802798160725,50.60606012304243 L 378.9560399074697,50.33030003164214 L 378.95620054560055,50.330192696674665 L 379.3164984682428,50.1809524106223 L 379.3167363698653,50.180905089047364 L 379.5117289112865,50.1617 L 381.24168146515575,50.1617 L 381.436674006577,50.180905089047364 L 381.4369119081995,50.1809524106223 L 381.7972098308417,50.330192696674665 L 381.7973704689726,50.33030003164214 L 382.07313056036975,50.606060123042425 L 382.07323789533723,50.60622076117332 L 382.22247818138004,50.966518683789886 L 382.222525502955,50.96675658541246 L 382.24162726202985,51.1607 L 381.24273059200556,51.1607 L 381.24273059200556,70.76067563916963 L 381.2427257463351,70.7607 L 382.24162726202985,70.7607 z M 353.02252550295805,70.95464341457227 L 353.0224781813831,70.9548813161948 L 352.87323789533656,71.31517923882775 L 352.8731305603691,71.31533987695862 L 352.5973704689474,71.59109996837469 L 352.59720983081655,71.59120730334219 L 352.23691190823547,71.74044758937055 L 352.2366740066128,71.74049491094551 L 352.0416814651558,71.75970000000001 L 350.3117289112865,71.75970000000001 L 350.1167363698295,71.74049491094551 L 350.1164984682068,71.74044758937055 L 349.75620054562575,71.59120730334219 L 349.7560399074949,71.59109996837469 L 349.4802798160732,71.31533987695862 L 349.48017248110574,71.31517923882775 L 349.3309321950592,70.9548813161948 L 349.33088487348425,70.95464341457227 L 349.31178311441244,70.7607 L 350.3106846301071,70.7607 L 350.31067978443673,70.76067563916963 L 350.31067978443673,51.1607 L 349.31178311441244,51.1607 L 349.33088487348425,50.96675658542773 L 349.3309321950592,50.966518683805226 L 349.48017248111137,50.60622076116385 L 349.48027981607885,50.60606012303299 L 349.7560399074697,50.330300031642146 L 349.75620054560056,50.33019269667467 L 350.11649846824196,50.180952410622474 L 350.11673636986444,50.18090508904754 L 350.31172891128654,50.1617 L 352.04168146515576,50.1617 L 352.23667400657786,50.18090508904754 L 352.23691190820034,50.180952410622474 L 352.59720983084173,50.33019269667467 L 352.5973704689726,50.330300031642146 L 352.87313056036345,50.60606012303299 L 352.87323789533093,50.60622076116385 L 353.0224781813831,50.966518683805226 L 353.02252550295805,50.96675658542773 L 353.04162726202986,51.1607 L 352.04273059200557,51.1607 L 352.04273059200557,70.76067563916963 L 352.0427257463351,70.7607 L 353.04162726202986,70.7607 L 353.02252550295805,70.95464341457227 z M 336.02252550295805,70.95464341457227 L 336.0224781813831,70.9548813161948 L 335.87323789533656,71.31517923882775 L 335.8731305603691,71.31533987695862 L 335.5973704689474,71.59109996837469 L 335.59720983081655,71.59120730334219 L 335.23691190823547,71.74044758937055 L 335.2366740066128,71.74049491094551 L 335.0416814651558,71.75970000000001 L 333.3117289112865,71.75970000000001 L 333.1167363698295,71.74049491094551 L 333.1164984682068,71.74044758937055 L 332.75620054562575,71.59120730334219 L 332.7560399074949,71.59109996837469 L 332.4802798160732,71.31533987695862 L 332.48017248110574,71.31517923882775 L 332.3309321950592,70.9548813161948 L 332.33088487348425,70.95464341457227 L 332.31178311441244,70.7607 L 333.3106846301071,70.7607 L 333.31067978443673,70.76067563916963 L 333.31067978443673,51.1607 L 332.31178311441244,51.1607 L 332.33088487348425,50.96675658542773 L 332.3309321950592,50.966518683805226 L 332.48017248111137,50.60622076116385 L 332.48027981607885,50.60606012303299 L 332.7560399074697,50.330300031642146 L 332.75620054560056,50.33019269667467 L 333.11649846824196,50.180952410622474 L 333.11673636986444,50.18090508904754 L 333.31172891128654,50.1617 L 335.04168146515576,50.1617 L 335.23667400657786,50.18090508904754 L 335.23691190820034,50.180952410622474 L 335.59720983084173,50.33019269667467 L 335.5973704689726,50.330300031642146 L 335.87313056036345,50.60606012303299 L 335.87323789533093,50.60622076116385 L 336.0224781813831,50.966518683805226 L 336.02252550295805,50.96675658542773 L 336.04162726202986,51.1607 L 335.04273059200557,51.1607 L 335.04273059200557,70.76067563916963 L 335.0427257463351,70.7607 L 336.04162726202986,70.7607 L 336.02252550295805,70.95464341457227 z M 291.0225255029511,70.95464341460725 L 291.02247818137613,70.95488131622987 L 290.8732378953534,71.31517923880254 L 290.8731305603859,71.31533987693342 L 290.597370468939,71.59109996838032 L 290.5972098308081,71.5912073033478 L 290.23691190823547,71.74044758937055 L 290.2366740066128,71.74049491094551 L 290.04168146515576,71.75970000000001 L 288.3117289112865,71.75970000000001 L 288.1167363698295,71.74049491094551 L 288.1164984682068,71.74044758937055 L 287.75620054563416,71.5912073033478 L 287.7560399075033,71.59109996838032 L 287.4802798160564,71.31533987693342 L 287.4801724810889,71.31517923880254 L 287.33093219506617,70.95488131622987 L 287.3308848734912,70.95464341460725 L 287.31178311441244,70.7607 L 288.3106846301072,70.7607 L 288.31067978443673,70.76067563916963 L 288.31067978443673,51.1607 L 287.31178311441244,51.1607 L 287.3308848734912,50.96675658539277 L 287.33093219506617,50.96651868377014 L 287.48017248109454,50.60622076118904 L 287.480279816062,50.60606012305816 L 287.7560399074781,50.330300031636526 L 287.756200545609,50.330192696669044 L 288.1164984682419,50.180952410622474 L 288.11673636986444,50.18090508904754 L 288.31172891128654,50.1617 L 290.04168146515576,50.1617 L 290.23667400657786,50.18090508904754 L 290.23691190820034,50.180952410622474 L 290.5972098308333,50.330192696669044 L 290.5973704689642,50.330300031636526 L 290.8731305603803,50.60606012305816 L 290.87323789534776,50.60622076118904 L 291.02247818137613,50.96651868377014 L 291.0225255029511,50.96675658539277 L 291.0416272620298,51.1607 L 290.04273059200557,51.1607 L 290.04273059200557,70.76067563916963 L 290.0427257463351,70.7607 L 291.0416272620298,70.7607 L 291.0225255029511,70.95464341460725 z M 228.0225255029511,70.9546434146071 L 228.02247818137613,70.95488131622987 L 227.87323789535333,71.3151792388026 L 227.87313056038587,71.31533987693342 L 227.59737046895586,71.59109996836905 L 227.59720983082494,71.59120730333656 L 227.23691190822845,71.74044758937195 L 227.23667400660588,71.74049491094691 L 227.0416814651558,71.75970000000001 L 225.31172891128645,71.75970000000001 L 225.11673636983636,71.74049491094691 L 225.1164984682138,71.74044758937195 L 224.7562005456173,71.59120730333656 L 224.75603990748638,71.59109996836905 L 224.48027981605637,71.31533987693342 L 224.4801724810889,71.3151792388026 L 224.3309321950661,70.95488131622987 L 224.33088487349113,70.9546434146071 L 224.3117831144124,70.7607 L 225.31068463010712,70.7607 L 225.31067978443667,70.76067563916963 L 225.31067978443667,51.1607 L 224.3117831144124,51.1607 L 224.33088487349113,50.966756585392915 L 224.3309321950661,50.96651868377014 L 224.4801724810945,50.60622076118904 L 224.48027981606202,50.60606012305813 L 224.7560399074612,50.330300031647816 L 224.75620054559212,50.33019269668028 L 225.1164984682489,50.18095241062108 L 225.11673636987135,50.180905089046156 L 225.3117289112865,50.1617 L 227.04168146515573,50.1617 L 227.2366740065709,50.180905089046156 L 227.23691190819335,50.18095241062108 L 227.59720983085012,50.33019269668028 L 227.59737046898104,50.330300031647816 L 227.87313056038022,50.60606012305813 L 227.87323789534773,50.60622076118904 L 228.02247818137613,50.96651868377014 L 228.0225255029511,50.966756585392915 L 228.04162726202983,51.1607 L 227.04273059200557,51.1607 L 227.04273059200557,70.76067563916963 L 227.04272574633512,70.7607 L 228.04162726202983,70.7607 L 228.0225255029511,70.9546434146071 z" /></g></g></svg>