<svg xmlns="http://www.w3.org/2000/svg" xmlns:xlink="http://www.w3.org/1999/xlink" width="300" height="300" viewBox="-13.318820000000006 34.9807 201.96 51.96000000000001" preserveAspectRatio="xMinYMin meet"><g transform="matrix(1,0,0,-1,0,121.9214)"><g><path fill-rule="evenodd" fill="#0c0786ff" stroke="#555555" stroke-width="1.3464" opacity="0.6" d="M -3.338820000000006,42.4607 L -4.29552858091273,42.651001168721784 L -5.106586952966374,43.192933047033634 L -5.648518831278222,44.00399141908728 L -5.8388200000000055,44.9607 L -5.648518831278222,45.91740858091273 L -5.106586952966375,46.72846695296637 L -4.295528580912732,47.27039883127822 L -3.3388200000000063,47.4607 L -2.382111419087281,47.27039883127822 L -1.5710530470336375,46.72846695296637 L -1.0291211687217898,45.91740858091273 L -0.8388200000000059,44.9607 L -1.029121168721789,44.00399141908728 L -1.571053047033637,43.192933047033634 L -2.3821114190872814,42.651001168721784 L -3.338820000000006,42.4607 z" /><path fill-rule="evenodd" fill="#0c0786ff" stroke="#555555" stroke-width="1.3464" opacity="0.6" d="M 178.66118,42.4607 L 177.70447141908727,42.651001168721784 L 176.89341304703365,43.192933047033634 L 176.3514811687218,44.00399141908728 L 176.16118,44.9607 L 176.3514811687218,45.91740858091273 L 176.89341304703362,46.72846695296637 L 177.70447141908727,47.27039883127822 L 178.66118,47.4607 L 179.61788858091273,47.27039883127822 L 180.42894695296636,46.72846695296637 L 180.9708788312782,45.91740858091273 L 181.16118,44.9607 L 180.9708788312782,44.00399141908728 L 180.42894695296638,43.192933047033634 L 179.61788858091273,42.651001168721784 L 178.66118,42.4607 z" /><path fill-rule="evenodd" fill="#0c0786ff" stroke="#555555" stroke-width="1.3464" opacity="0.6" d="M -3.338820000000006,74.4607 L -4.29552858091273,74.65100116872179 L -5.106586952966374,75.19293304703363 L -5.648518831278222,76.00399141908728 L -5.8388200000000055,76.9607 L -5.648518831278222,77.91740858091272 L -5.106586952966375,78.72846695296637 L -4.295528580912732,79.27039883127821 L -3.3388200000000063,79.4607 L -2.382111419087281,79.27039883127821 L -1.5710530470336375,78.72846695296637 L -1.0291211687217898,77.91740858091273 L -0.8388200000000059,76.9607 L -1.029121168721789,76.00399141908728 L -1.571053047033637,75.19293304703363 L -2.3821114190872814,74.65100116872179 L -3.338820000000006,74.4607 z" /><path fill-rule="evenodd" fill="#0c0786ff" stroke="#555555" stroke-width="1.3464" opacity="0.6" d="M 178.66118,74.4607 L 177.70447141908727,74.65100116872179 L 176.89341304703365,75.19293304703363 L 176.3514811687218,76.00399141908728 L 176.16118,76.9607 L 176.3514811687218,77.91740858091272 L 176.89341304703362,78.72846695296637 L 177.70447141908727,79.27039883127821 L 178.66118,79.4607 L 179.61788858091273,79.27039883127821 L 180.42894695296636,78.72846695296637 L 180.9708788312782,77.91740858091273 L 181.16118,76.9607 L 180.9708788312782,76.00399141908728 L 180.42894695296638,75.19293304703363 L 179.61788858091273,74.65100116872179 L 178.66118,74.4607 z" /><path fill-rule="evenodd" fill="#7e03a7ff" stroke="#555555" stroke-width="1.3464" opacity="0.6" d="M -3.338820000000006,42.4607 L -4.29552858091273,42.651001168721784 L -5.106586952966374,43.192933047033634 L -5.648518831278222,44.00399141908728 L -5.8388200000000055,44.9607 L -5.648518831278222,45.91740858091273 L -5.106586952966375,46.72846695296637 L -4.295528580912732,47.27039883127822 L -3.3388200000000063,47.4607 L -2.382111419087281,47.27039883127822 L -1.5710530470336375,46.72846695296637 L -1.0291211687217898,45.91740858091273 L -0.8388200000000059,44.9607 L -1.029121168721789,44.00399141908728 L -1.571053047033637,43.192933047033634 L -2.3821114190872814,42.651001168721784 L -3.338820000000006,42.4607 z" /><path fill-rule="evenodd" fill="#7e03a7ff" stroke="#555555" stroke-width="1.3464" opacity="0.6" d="M 178.66118,42.4607 L 177.70447141908727,42.651001168721784 L 176.89341304703365,43.192933047033634 L 176.3514811687218,44.00399141908728 L 176.16118,44.9607 L 176.3514811687218,45.91740858091273 L 176.89341304703362,46.72846695296637 L 177.70447141908727,47.27039883127822 L 178.66118,47.4607 L 179.61788858091273,47.27039883127822 L 180.42894695296636,46.72846695296637 L 180.9708788312782,45.91740858091273 L 181.16118,44.9607 L 180.9708788312782,44.00399141908728 L 180.42894695296638,43.192933047033634 L 179.61788858091273,42.651001168721784 L 178.66118,42.4607 z" /><path fill-rule="evenodd" fill="#7e03a7ff" stroke="#555555" stroke-width="1.3464" opacity="0.6" d="M -3.338820000000006,74.4607 L -4.29552858091273,74.65100116872179 L -5.106586952966374,75.19293304703363 L -5.648518831278222,76.00399141908728 L -5.8388200000000055,76.9607 L -5.648518831278222,77.91740858091272 L -5.106586952966375,78.72846695296637 L -4.295528580912732,79.27039883127821 L -3.3388200000000063,79.4607 L -2.382111419087281,79.27039883127821 L -1.5710530470336375,78.72846695296637 L -1.0291211687217898,77.91740858091273 L -0.8388200000000059,76.9607 L -1.029121168721789,76.00399141908728 L -1.571053047033637,75.19293304703363 L -2.3821114190872814,74.65100116872179 L -3.338820000000006,74.4607 z" /><path fill-rule="evenodd" fill="#7e03a7ff" stroke="#555555" stroke-width="1.3464" opacity="0.6" d="M 178.66118,74.4607 L 177.70447141908727,74.65100116872179 L 176.89341304703365,75.19293304703363 L 176.3514811687218,76.00399141908728 L 176.16118,76.9607 L 176.3514811687218,77.91740858091272 L 176.89341304703362,78.72846695296637 L 177.70447141908727,79.27039883127821 L 178.66118,79.4607 L 179.61788858091273,79.27039883127821 L 180.42894695296636,78.72846695296637 L 180.9708788312782,77.91740858091273 L 181.16118,76.9607 L 180.9708788312782,76.00399141908728 L 180.42894695296638,75.19293304703363 L 179.61788858091273,74.65100116872179 L 178.66118,74.4607 z" /><path fill-rule="evenodd" fill="#cb4777ff" stroke="#555555" stroke-width="1.3464" opacity="0.6" d="M -3.338820000000006,42.4607 L -4.29552858091273,42.651001168721784 L -5.106586952966374,43.192933047033634 L -5.648518831278222,44.00399141908728 L -5.8388200000000055,44.9607 L -5.648518831278222,45.91740858091273 L -5.106586952966375,46.72846695296637 L -4.295528580912732,47.27039883127822 L -3.3388200000000063,47.4607 L -2.382111419087281,47.27039883127822 L -1.5710530470336375,46.72846695296637 L -1.0291211687217898,45.91740858091273 L -0.8388200000000059,44.9607 L -1.029121168721789,44.00399141908728 L -1.571053047033637,43.192933047033634 L -2.3821114190872814,42.651001168721784 L -3.338820000000006,42.4607 z" /><path fill-rule="evenodd" fill="#cb4777ff" stroke="#555555" stroke-width="1.3464" opacity="0.6" d="M 178.66118,42.4607 L 177.70447141908727,42.651001168721784 L 176.89341304703365,43.192933047033634 L 176.3514811687218,44.00399141908728 L 176.16118,44.9607 L 176.3514811687218,45.91740858091273 L 176.89341304703362,46.72846695296637 L 177.70447141908727,47.27039883127822 L 178.66118,47.4607 L 179.61788858091273,47.27039883127822 L 180.42894695296636,46.72846695296637 L 180.9708788312782,45.91740858091273 L 181.16118,44.9607 L 180.9708788312782,44.00399141908728 L 180.42894695296638,43.192933047033634 L 179.61788858091273,42.651001168721784 L 178.66118,42.4607 z" /><path fill-rule="evenodd" fill="#cb4777ff" stroke="#555555" stroke-width="1.3464" opacity="0.6" d="M -3.338820000000006,74.4607 L -4.29552858091273,74.65100116872179 L -5.106586952966374,75.19293304703363 L -5.648518831278222,76.00399141908728 L -5.8388200000000055,76.9607 L -5.648518831278222,77.91740858091272 L -5.106586952966375,78.72846695296637 L -4.295528580912732,79.27039883127821 L -3.3388200000000063,79.4607 L -2.382111419087281,79.27039883127821 L -1.5710530470336375,78.72846695296637 L -1.0291211687217898,77.91740858091273 L -0.8388200000000059,76.9607 L -1.029121168721789,76.00399141908728 L -1.571053047033637,75.19293304703363 L -2.3821114190872814,74.65100116872179 L -3.338820000000006,74.4607 z" /><path fill-rule="evenodd" fill="#cb4777ff" stroke="#555555" stroke-width="1.3464" opacity="0.6" d="M 178.66118,74.4607 L 177.70447141908727,74.65100116872179 L 176.89341304703365,75.19293304703363 L 176.3514811687218,76.00399141908728 L 176.16118,76.9607 L 176.3514811687218,77.91740858091272 L 176.89341304703362,78.72846695296637 L 177.70447141908727,79.27039883127821 L 178.66118,79.4607 L 179.61788858091273,79.27039883127821 L 180.42894695296636,78.72846695296637 L 180.9708788312782,77.91740858091273 L 181.16118,76.9607 L 180.9708788312782,76.00399141908728 L 180.42894695296638,75.19293304703363 L 179.61788858091273,74.65100116872179 L 178.66118,74.4607 z" /><path fill-rule="evenodd" fill="#f89540ff" stroke="#555555" stroke-width="1.3464" opacity="0.6" d="M -3.338820000000006,42.4607 L -4.29552858091273,42.651001168721784 L -5.106586952966374,43.192933047033634 L -5.648518831278222,44.00399141908728 L -5.8388200000000055,44.9607 L -5.648518831278222,45.91740858091273 L -5.106586952966375,46.72846695296637 L -4.295528580912732,47.27039883127822 L -3.3388200000000063,47.4607 L -2.382111419087281,47.27039883127822 L -1.5710530470336375,46.72846695296637 L -1.0291211687217898,45.91740858091273 L -0.8388200000000059,44.9607 L -1.029121168721789,44.00399141908728 L -1.571053047033637,43.192933047033634 L -2.3821114190872814,42.651001168721784 L -3.338820000000006,42.4607 z" /><path fill-rule="evenodd" fill="#f89540ff" stroke="#555555" stroke-width="1.3464" opacity="0.6" d="M 178.66118,42.4607 L 177.70447141908727,42.651001168721784 L 176.89341304703365,43.192933047033634 L 176.3514811687218,44.00399141908728 L 176.16118,44.9607 L 176.3514811687218,45.91740858091273 L 176.89341304703362,46.72846695296637 L 177.70447141908727,47.27039883127822 L 178.66118,47.4607 L 179.61788858091273,47.27039883127822 L 180.42894695296636,46.72846695296637 L 180.9708788312782,45.91740858091273 L 181.16118,44.9607 L 180.9708788312782,44.00399141908728 L 180.42894695296638,43.192933047033634 L 179.61788858091273,42.651001168721784 L 178.66118,42.4607 z" /><path fill-rule="evenodd" fill="#f89540ff" stroke="#555555" stroke-width="1.3464" opacity="0.6" d="M -3.338820000000006,74.4607 L -4.29552858091273,74.65100116872179 L -5.106586952966374,75.19293304703363 L -5.648518831278222,76.00399141908728 L -5.8388200000000055,76.9607 L -5.648518831278222,77.91740858091272 L -5.106586952966375,78.72846695296637 L -4.295528580912732,79.27039883127821 L -3.3388200000000063,79.4607 L -2.382111419087281,79.27039883127821 L -1.5710530470336375,78.72846695296637 L -1.0291211687217898,77.91740858091273 L -0.8388200000000059,76.9607 L -1.029121168721789,76.00399141908728 L -1.571053047033637,75.19293304703363 L -2.3821114190872814,74.65100116872179 L -3.338820000000006,74.4607 z" /><path fill-rule="evenodd" fill="#f89540ff" stroke="#555555" stroke-width="1.3464" opacity="0.6" d="M 178.66118,74.4607 L 177.70447141908727,74.65100116872179 L 176.89341304703365,75.19293304703363 L 176.3514811687218,76.00399141908728 L 176.16118,76.9607 L 176.3514811687218,77.91740858091272 L 176.89341304703362,78.72846695296637 L 177.70447141908727,79.27039883127821 L 178.66118,79.4607 L 179.61788858091273,79.27039883127821 L 180.42894695296636,78.72846695296637 L 180.9708788312782,77.91740858091273 L 181.16118,76.9607 L 180.9708788312782,76.00399141908728 L 180.42894695296638,75.19293304703363 L 179.61788858091273,74.65100116872179 L 178.66118,74.4607 z" /><path fill-rule="evenodd" fill="#eff821ff" stroke="#555555" stroke-width="1.3464" opacity="0.6" d="M -3.338820000000006,42.4607 L -4.29552858091273,42.651001168721784 L -5.106586952966374,43.192933047033634 L -5.648518831278222,44.00399141908728 L -5.8388200000000055,44.9607 L -5.648518831278222,45.91740858091273 L -5.106586952966375,46.72846695296637 L -4.295528580912732,47.27039883127822 L -3.3388200000000063,47.4607 L -2.382111419087281,47.27039883127822 L -1.5710530470336375,46.72846695296637 L -1.0291211687217898,45.91740858091273 L -0.8388200000000059,44.9607 L -1.029121168721789,44.00399141908728 L -1.571053047033637,43.192933047033634 L -2.3821114190872814,42.651001168721784 L -3.338820000000006,42.4607 z" /><path fill-rule="evenodd" fill="#eff821ff" stroke="#555555" stroke-width="1.3464" opacity="0.6" d="M 178.66118,42.4607 L 177.70447141908727,42.651001168721784 L 176.89341304703365,43.192933047033634 L 176.3514811687218,44.00399141908728 L 176.16118,44.9607 L 176.3514811687218,45.91740858091273 L 176.89341304703362,46.72846695296637 L 177.70447141908727,47.27039883127822 L 178.66118,47.4607 L 179.61788858091273,47.27039883127822 L 180.42894695296636,46.72846695296637 L 180.9708788312782,45.91740858091273 L 181.16118,44.9607 L 180.9708788312782,44.00399141908728 L 180.42894695296638,43.192933047033634 L 179.61788858091273,42.651001168721784 L 178.66118,42.4607 z" /><path fill-rule="evenodd" fill="#eff821ff" stroke="#555555" stroke-width="1.3464" opacity="0.6" d="M -3.338820000000006,74.4607 L -4.29552858091273,74.65100116872179 L -5.106586952966374,75.19293304703363 L -5.648518831278222,76.00399141908728 L -5.8388200000000055,76.9607 L -5.648518831278222,77.91740858091272 L -5.106586952966375,78.72846695296637 L -4.295528580912732,79.27039883127821 L -3.3388200000000063,79.4607 L -2.382111419087281,79.27039883127821 L -1.5710530470336375,78.72846695296637 L -1.0291211687217898,77.91740858091273 L -0.8388200000000059,76.9607 L -1.029121168721789,76.00399141908728 L -1.571053047033637,75.19293304703363 L -2.3821114190872814,74.65100116872179 L -3.338820000000006,74.4607 z" /><path fill-rule="evenodd" fill="#eff821ff" stroke="#555555" stroke-width="1.3464" opacity="0.6" d="M 178.66118,74.4607 L 177.70447141908727,74.65100116872179 L 176.89341304703365,75.19293304703363 L 176.3514811687218,76.00399141908728 L 176.16118,76.9607 L 176.3514811687218,77.91740858091272 L 176.89341304703362,78.72846695296637 L 177.70447141908727,79.27039883127821 L 178.66118,79.4607 L 179.61788858091273,79.27039883127821 L 180.42894695296636,78.72846695296637 L 180.9708788312782,77.91740858091273 L 181.16118,76.9607 L 180.9708788312782,76.00399141908728 L 180.42894695296638,75.19293304703363 L 179.61788858091273,74.65100116872179 L 178.66118,74.4607 z" /></g></g></svg>