<svg xmlns="http://www.w3.org/2000/svg" xmlns:xlink="http://www.w3.org/1999/xlink" width="300" height="300" viewBox="-2.887043636071688 47.28257673278085 205.30800000000002 50.30799999999999" preserveAspectRatio="xMinYMin meet"><g transform="matrix(1,0,0,-1,0,144.8731534655617)"><g><path fill-rule="evenodd" fill="#0c0786ff" stroke="#555555" stroke-width="1.3687200000000002" opacity="0.6" d="M 162.0333455660403,63.26092293955587 L 148.3850278357272,63.32560690984172 L 148.5143957762988,79.10849565958776 L 161.2571379226102,79.3025475704453 L 162.0333455660403,63.26092293955587 z M 148.5639937633201,79.05924516159432 L 148.43543739776194,63.375368563494376 L 161.98085564834184,63.31117226846793 L 161.20953413669966,79.25181684240721 L 148.5639937633201,79.05924516159432 z" /><path fill-rule="evenodd" fill="#0c0786ff" stroke="#555555" stroke-width="1.3687200000000002" opacity="0.6" d="M 130.9324014625643,63.40051964024657 L 120.2861989164578,63.8772152766394 L 119.1739090982078,79.29037418667428 L 130.4557058261715,79.29037418667428 L 130.9324014625643,63.40051964024657 z M 119.22764737105899,79.24037418667429 L 120.3328678790339,63.925175719022874 L 130.88080816026584,63.452879885534884 L 130.40718333123172,79.24037418667429 L 119.22764737105899,79.24037418667429 z" /><path fill-rule="evenodd" fill="#0c0786ff" stroke="#555555" stroke-width="1.3687200000000002" opacity="0.6" d="M 65.3073021858179,67.3729832768535 L 65.14840364035362,76.58909891378157 L 73.72892509542459,74.68231636821025 L 71.82214254985325,66.89628764046067 L 65.3073021858179,67.3729832768535 z M 73.66820827061919,74.64458930451538 L 65.19948990236315,76.52652671968337 L 65.35650731871118,67.41951657149814 L 71.78363271124844,66.94923910375151 L 73.66820827061919,74.64458930451538 z" /><path fill-rule="evenodd" fill="#0c0786ff" stroke="#555555" stroke-width="1.3687200000000002" opacity="0.6" d="M 85.01072182338827,79.76706982306712 L 99.62938800610175,77.38359164110295 L 98.04040255145898,64.19501236756795 L 83.73953345967405,67.3729832768535 L 85.01072182338827,79.76706982306712 z M 97.99736430448804,64.2557961138798 L 99.57401059750653,77.34196034593319 L 85.05504697691727,79.70918267537711 L 83.79381194183833,67.41214108335751 L 97.99736430448804,64.2557961138798 z" /><path fill-rule="evenodd" fill="#0c0786ff" stroke="#555555" stroke-width="1.3687200000000002" opacity="0.6" d="M 194.80231170298762,54.90122139372152 L 194.78609053554655,54.89038275615528 L 194.7669563639283,54.88657673278085 L 4.766956363928312,54.88657673278085 L 4.747822192310057,54.89038275615528 L 4.731601024868985,54.90122139372152 L 4.720762387302748,54.917442561162595 L 4.716956363928312,54.93657673278085 L 4.716956363928314,89.93657673278085 L 4.7207623873027496,89.9557109043991 L 4.731601024868986,89.97193207184017 L 4.747822192310059,89.98277070940641 L 4.766956363928314,89.98657673278085 L 194.7669563639283,89.98657673278085 L 194.78609053554655,89.98277070940641 L 194.80231170298762,89.97193207184017 L 194.81315034055388,89.9557109043991 L 194.8169563639283,89.93657673278085 L 194.8169563639283,54.93657673278085 L 194.81315034055388,54.917442561162595 L 194.80231170298762,54.90122139372152 z M 46.90093096014388,54.93657673278085 L 48.632981767712764,54.93657673278085 L 60.90093096014388,54.93657673278085 L 62.632981767712764,54.93657673278085 L 100.90093096014387,54.93657673278085 L 102.63298176771274,54.93657673278085 L 114.90093096014387,54.93657673278085 L 116.63298176771274,54.93657673278085 L 164.90093096014385,54.93657673278085 L 166.63298176771275,54.93657673278085 L 178.90093096014385,54.93657673278085 L 180.63298176771275,54.93657673278085 L 188.90093096014385,54.93657673278085 L 190.63298176771275,54.93657673278085 L 194.7669563639283,54.93657673278085 L 194.7669563639283,89.93657673278085 L 190.63298176771275,89.93657673278085 L 188.90093096014385,89.93657673278085 L 180.63298176771275,89.93657673278085 L 178.90093096014385,89.93657673278085 L 166.63298176771275,89.93657673278085 L 164.90093096014385,89.93657673278085 L 116.63298176771274,89.93657673278085 L 114.90093096014387,89.93657673278085 L 102.63298176771274,89.93657673278085 L 100.90093096014387,89.93657673278085 L 62.632981767712764,89.93657673278085 L 60.90093096014388,89.93657673278085 L 48.632981767712764,89.93657673278085 L 46.90093096014388,89.93657673278085 L 24.632981767712756,89.93657673278085 L 22.90093096014388,89.93657673278085 L 10.632985403784438,89.93657673278085 L 8.90093459621556,89.93657673278085 L 4.766956363928314,89.93657673278085 L 4.766956363928312,54.93657673278085 L 8.900939224353204,54.93657673278085 L 10.632980775646795,54.93657673278085 L 22.90093096014388,54.93657673278085 L 24.632981767712756,54.93657673278085 L 46.90093096014388,54.93657673278085 z" /><path fill-rule="evenodd" fill="#7e03a7ff" stroke="#555555" stroke-width="1.3687200000000002" opacity="0.6" d="M 162.0333455660403,63.26092293955587 L 148.3850278357272,63.32560690984172 L 148.5143957762988,79.10849565958776 L 161.2571379226102,79.3025475704453 L 162.0333455660403,63.26092293955587 z M 148.5639937633201,79.05924516159432 L 148.43543739776194,63.375368563494376 L 161.98085564834184,63.31117226846793 L 161.20953413669966,79.25181684240721 L 148.5639937633201,79.05924516159432 z" /><path fill-rule="evenodd" fill="#7e03a7ff" stroke="#555555" stroke-width="1.3687200000000002" opacity="0.6" d="M 130.9324014625643,63.40051964024657 L 120.2861989164578,63.8772152766394 L 119.1739090982078,79.29037418667428 L 130.4557058261715,79.29037418667428 L 130.9324014625643,63.40051964024657 z M 119.22764737105899,79.24037418667429 L 120.3328678790339,63.925175719022874 L 130.88080816026584,63.452879885534884 L 130.40718333123172,79.24037418667429 L 119.22764737105899,79.24037418667429 z" /><path fill-rule="evenodd" fill="#7e03a7ff" stroke="#555555" stroke-width="1.3687200000000002" opacity="0.6" d="M 65.3073021858179,67.3729832768535 L 65.14840364035362,76.58909891378157 L 73.72892509542459,74.68231636821025 L 71.82214254985325,66.89628764046067 L 65.3073021858179,67.3729832768535 z M 73.66820827061919,74.64458930451538 L 65.19948990236315,76.52652671968337 L 65.35650731871118,67.41951657149814 L 71.78363271124844,66.94923910375151 L 73.66820827061919,74.64458930451538 z" /><path fill-rule="evenodd" fill="#7e03a7ff" stroke="#555555" stroke-width="1.3687200000000002" opacity="0.6" d="M 85.01072182338827,79.76706982306712 L 99.62938800610175,77.38359164110295 L 98.04040255145898,64.19501236756795 L 83.73953345967405,67.3729832768535 L 85.01072182338827,79.76706982306712 z M 97.99736430448804,64.2557961138798 L 99.57401059750653,77.34196034593319 L 85.05504697691727,79.70918267537711 L 83.79381194183833,67.41214108335751 L 97.99736430448804,64.2557961138798 z" /><path fill-rule="evenodd" fill="#7e03a7ff" stroke="#555555" stroke-width="1.3687200000000002" opacity="0.6" d="M 194.80231170298762,54.90122139372152 L 194.78609053554655,54.89038275615528 L 194.7669563639283,54.88657673278085 L 4.766956363928312,54.88657673278085 L 4.747822192310057,54.89038275615528 L 4.731601024868985,54.90122139372152 L 4.720762387302748,54.917442561162595 L 4.716956363928312,54.93657673278085 L 4.716956363928314,89.93657673278085 L 4.7207623873027496,89.9557109043991 L 4.731601024868986,89.97193207184017 L 4.747822192310059,89.98277070940641 L 4.766956363928314,89.98657673278085 L 194.7669563639283,89.98657673278085 L 194.78609053554655,89.98277070940641 L 194.80231170298762,89.97193207184017 L 194.81315034055388,89.9557109043991 L 194.8169563639283,89.93657673278085 L 194.8169563639283,54.93657673278085 L 194.81315034055388,54.917442561162595 L 194.80231170298762,54.90122139372152 z M 46.90093096014388,54.93657673278085 L 48.632981767712764,54.93657673278085 L 60.90093096014388,54.93657673278085 L 62.632981767712764,54.93657673278085 L 100.90093096014387,54.93657673278085 L 102.63298176771274,54.93657673278085 L 114.90093096014387,54.93657673278085 L 116.63298176771274,54.93657673278085 L 164.90093096014385,54.93657673278085 L 166.63298176771275,54.93657673278085 L 178.90093096014385,54.93657673278085 L 180.63298176771275,54.93657673278085 L 188.90093096014385,54.93657673278085 L 190.63298176771275,54.93657673278085 L 194.7669563639283,54.93657673278085 L 194.7669563639283,89.93657673278085 L 190.63298176771275,89.93657673278085 L 188.90093096014385,89.93657673278085 L 180.63298176771275,89.93657673278085 L 178.90093096014385,89.93657673278085 L 166.63298176771275,89.93657673278085 L 164.90093096014385,89.93657673278085 L 116.63298176771274,89.93657673278085 L 114.90093096014387,89.93657673278085 L 102.63298176771274,89.93657673278085 L 100.90093096014387,89.93657673278085 L 62.632981767712764,89.93657673278085 L 60.90093096014388,89.93657673278085 L 48.632981767712764,89.93657673278085 L 46.90093096014388,89.93657673278085 L 24.632981767712756,89.93657673278085 L 22.90093096014388,89.93657673278085 L 10.632985403784438,89.93657673278085 L 8.90093459621556,89.93657673278085 L 4.766956363928314,89.93657673278085 L 4.766956363928312,54.93657673278085 L 8.900939224353204,54.93657673278085 L 10.632980775646795,54.93657673278085 L 22.90093096014388,54.93657673278085 L 24.632981767712756,54.93657673278085 L 46.90093096014388,54.93657673278085 z" /><path fill-rule="evenodd" fill="#cb4777ff" stroke="#555555" stroke-width="1.3687200000000002" opacity="0.6" d="M 162.0333455660403,63.26092293955587 L 148.3850278357272,63.32560690984172 L 148.5143957762988,79.10849565958776 L 161.2571379226102,79.3025475704453 L 162.0333455660403,63.26092293955587 z M 148.5639937633201,79.05924516159432 L 148.43543739776194,63.375368563494376 L 161.98085564834184,63.31117226846793 L 161.20953413669966,79.25181684240721 L 148.5639937633201,79.05924516159432 z" /><path fill-rule="evenodd" fill="#cb4777ff" stroke="#555555" stroke-width="1.3687200000000002" opacity="0.6" d="M 130.9324014625643,63.40051964024657 L 120.2861989164578,63.8772152766394 L 119.1739090982078,79.29037418667428 L 130.4557058261715,79.29037418667428 L 130.9324014625643,63.40051964024657 z M 119.22764737105899,79.24037418667429 L 120.3328678790339,63.925175719022874 L 130.88080816026584,63.452879885534884 L 130.40718333123172,79.24037418667429 L 119.22764737105899,79.24037418667429 z" /><path fill-rule="evenodd" fill="#cb4777ff" stroke="#555555" stroke-width="1.3687200000000002" opacity="0.6" d="M 65.3073021858179,67.3729832768535 L 65.14840364035362,76.58909891378157 L 73.72892509542459,74.68231636821025 L 71.82214254985325,66.89628764046067 L 65.3073021858179,67.3729832768535 z M 73.66820827061919,74.64458930451538 L 65.19948990236315,76.52652671968337 L 65.35650731871118,67.41951657149814 L 71.78363271124844,66.94923910375151 L 73.66820827061919,74.64458930451538 z" /><path fill-rule="evenodd" fill="#cb4777ff" stroke="#555555" stroke-width="1.3687200000000002" opacity="0.6" d="M 85.01072182338827,79.76706982306712 L 99.62938800610175,77.38359164110295 L 98.04040255145898,64.19501236756795 L 83.73953345967405,67.3729832768535 L 85.01072182338827,79.76706982306712 z M 97.99736430448804,64.2557961138798 L 99.57401059750653,77.34196034593319 L 85.05504697691727,79.70918267537711 L 83.79381194183833,67.41214108335751 L 97.99736430448804,64.2557961138798 z" /><path fill-rule="evenodd" fill="#cb4777ff" stroke="#555555" stroke-width="1.3687200000000002" opacity="0.6" d="M 194.80231170298762,54.90122139372152 L 194.78609053554655,54.89038275615528 L 194.7669563639283,54.88657673278085 L 4.766956363928312,54.88657673278085 L 4.747822192310057,54.89038275615528 L 4.731601024868985,54.90122139372152 L 4.720762387302748,54.917442561162595 L 4.716956363928312,54.93657673278085 L 4.716956363928314,89.93657673278085 L 4.7207623873027496,89.9557109043991 L 4.731601024868986,89.97193207184017 L 4.747822192310059,89.98277070940641 L 4.766956363928314,89.98657673278085 L 194.7669563639283,89.98657673278085 L 194.78609053554655,89.98277070940641 L 194.80231170298762,89.97193207184017 L 194.81315034055388,89.9557109043991 L 194.8169563639283,89.93657673278085 L 194.8169563639283,54.93657673278085 L 194.81315034055388,54.917442561162595 L 194.80231170298762,54.90122139372152 z M 46.90093096014388,54.93657673278085 L 48.632981767712764,54.93657673278085 L 60.90093096014388,54.93657673278085 L 62.632981767712764,54.93657673278085 L 100.90093096014387,54.93657673278085 L 102.63298176771274,54.93657673278085 L 114.90093096014387,54.93657673278085 L 116.63298176771274,54.93657673278085 L 164.90093096014385,54.93657673278085 L 166.63298176771275,54.93657673278085 L 178.90093096014385,54.93657673278085 L 180.63298176771275,54.93657673278085 L 188.90093096014385,54.93657673278085 L 190.63298176771275,54.93657673278085 L 194.7669563639283,54.93657673278085 L 194.7669563639283,89.93657673278085 L 190.63298176771275,89.93657673278085 L 188.90093096014385,89.93657673278085 L 180.63298176771275,89.93657673278085 L 178.90093096014385,89.93657673278085 L 166.63298176771275,89.93657673278085 L 164.90093096014385,89.93657673278085 L 116.63298176771274,89.93657673278085 L 114.90093096014387,89.93657673278085 L 102.63298176771274,89.93657673278085 L 100.90093096014387,89.93657673278085 L 62.632981767712764,89.93657673278085 L 60.90093096014388,89.93657673278085 L 48.632981767712764,89.93657673278085 L 46.90093096014388,89.93657673278085 L 24.632981767712756,89.93657673278085 L 22.90093096014388,89.93657673278085 L 10.632985403784438,89.93657673278085 L 8.90093459621556,89.93657673278085 L 4.766956363928314,89.93657673278085 L 4.766956363928312,54.93657673278085 L 8.900939224353204,54.93657673278085 L 10.632980775646795,54.93657673278085 L 22.90093096014388,54.93657673278085 L 24.632981767712756,54.93657673278085 L 46.90093096014388,54.93657673278085 z" /><path fill-rule="evenodd" fill="#f89540ff" stroke="#555555" stroke-width="1.3687200000000002" opacity="0.6" d="M 162.0333455660403,63.26092293955587 L 148.3850278357272,63.32560690984172 L 148.5143957762988,79.10849565958776 L 161.2571379226102,79.3025475704453 L 162.0333455660403,63.26092293955587 z M 148.5639937633201,79.05924516159432 L 148.43543739776194,63.375368563494376 L 161.98085564834184,63.31117226846793 L 161.20953413669966,79.25181684240721 L 148.5639937633201,79.05924516159432 z" /><path fill-rule="evenodd" fill="#f89540ff" stroke="#555555" stroke-width="1.3687200000000002" opacity="0.6" d="M 130.9324014625643,63.40051964024657 L 120.2861989164578,63.8772152766394 L 119.1739090982078,79.29037418667428 L 130.4557058261715,79.29037418667428 L 130.9324014625643,63.40051964024657 z M 119.22764737105899,79.24037418667429 L 120.3328678790339,63.925175719022874 L 130.88080816026584,63.452879885534884 L 130.40718333123172,79.24037418667429 L 119.22764737105899,79.24037418667429 z" /><path fill-rule="evenodd" fill="#f89540ff" stroke="#555555" stroke-width="1.3687200000000002" opacity="0.6" d="M 65.3073021858179,67.3729832768535 L 65.14840364035362,76.58909891378157 L 73.72892509542459,74.68231636821025 L 71.82214254985325,66.89628764046067 L 65.3073021858179,67.3729832768535 z M 73.66820827061919,74.64458930451538 L 65.19948990236315,76.52652671968337 L 65.35650731871118,67.41951657149814 L 71.78363271124844,66.94923910375151 L 73.66820827061919,74.64458930451538 z" /><path fill-rule="evenodd" fill="#f89540ff" stroke="#555555" stroke-width="1.3687200000000002" opacity="0.6" d="M 85.01072182338827,79.76706982306712 L 99.62938800610175,77.38359164110295 L 98.04040255145898,64.19501236756795 L 83.73953345967405,67.3729832768535 L 85.01072182338827,79.76706982306712 z M 97.99736430448804,64.2557961138798 L 99.57401059750653,77.34196034593319 L 85.05504697691727,79.70918267537711 L 83.79381194183833,67.41214108335751 L 97.99736430448804,64.2557961138798 z" /><path fill-rule="evenodd" fill="#f89540ff" stroke="#555555" stroke-width="1.3687200000000002" opacity="0.6" d="M 194.80231170298762,54.90122139372152 L 194.78609053554655,54.89038275615528 L 194.7669563639283,54.88657673278085 L 4.766956363928312,54.88657673278085 L 4.747822192310057,54.89038275615528 L 4.731601024868985,54.90122139372152 L 4.720762387302748,54.917442561162595 L 4.716956363928312,54.93657673278085 L 4.716956363928314,89.93657673278085 L 4.7207623873027496,89.9557109043991 L 4.731601024868986,89.97193207184017 L 4.747822192310059,89.98277070940641 L 4.766956363928314,89.98657673278085 L 194.7669563639283,89.98657673278085 L 194.78609053554655,89.98277070940641 L 194.80231170298762,89.97193207184017 L 194.81315034055388,89.9557109043991 L 194.8169563639283,89.93657673278085 L 194.8169563639283,54.93657673278085 L 194.81315034055388,54.917442561162595 L 194.80231170298762,54.90122139372152 z M 46.90093096014388,54.93657673278085 L 48.632981767712764,54.93657673278085 L 60.90093096014388,54.93657673278085 L 62.632981767712764,54.93657673278085 L 100.90093096014387,54.93657673278085 L 102.63298176771274,54.93657673278085 L 114.90093096014387,54.93657673278085 L 116.63298176771274,54.93657673278085 L 164.90093096014385,54.93657673278085 L 166.63298176771275,54.93657673278085 L 178.90093096014385,54.93657673278085 L 180.63298176771275,54.93657673278085 L 188.90093096014385,54.93657673278085 L 190.63298176771275,54.93657673278085 L 194.7669563639283,54.93657673278085 L 194.7669563639283,89.93657673278085 L 190.63298176771275,89.93657673278085 L 188.90093096014385,89.93657673278085 L 180.63298176771275,89.93657673278085 L 178.90093096014385,89.93657673278085 L 166.63298176771275,89.93657673278085 L 164.90093096014385,89.93657673278085 L 116.63298176771274,89.93657673278085 L 114.90093096014387,89.93657673278085 L 102.63298176771274,89.93657673278085 L 100.90093096014387,89.93657673278085 L 62.632981767712764,89.93657673278085 L 60.90093096014388,89.93657673278085 L 48.632981767712764,89.93657673278085 L 46.90093096014388,89.93657673278085 L 24.632981767712756,89.93657673278085 L 22.90093096014388,89.93657673278085 L 10.632985403784438,89.93657673278085 L 8.90093459621556,89.93657673278085 L 4.766956363928314,89.93657673278085 L 4.766956363928312,54.93657673278085 L 8.900939224353204,54.93657673278085 L 10.632980775646795,54.93657673278085 L 22.90093096014388,54.93657673278085 L 24.632981767712756,54.93657673278085 L 46.90093096014388,54.93657673278085 z" /><path fill-rule="evenodd" fill="#eff821ff" stroke="#555555" stroke-width="1.3687200000000002" opacity="0.6" d="M 162.0333455660403,63.26092293955587 L 148.3850278357272,63.32560690984172 L 148.5143957762988,79.10849565958776 L 161.2571379226102,79.3025475704453 L 162.0333455660403,63.26092293955587 z M 148.5639937633201,79.05924516159432 L 148.43543739776194,63.375368563494376 L 161.98085564834184,63.31117226846793 L 161.20953413669966,79.25181684240721 L 148.5639937633201,79.05924516159432 z" /><path fill-rule="evenodd" fill="#eff821ff" stroke="#555555" stroke-width="1.3687200000000002" opacity="0.6" d="M 130.9324014625643,63.40051964024657 L 120.2861989164578,63.8772152766394 L 119.1739090982078,79.29037418667428 L 130.4557058261715,79.29037418667428 L 130.9324014625643,63.40051964024657 z M 119.22764737105899,79.24037418667429 L 120.3328678790339,63.925175719022874 L 130.88080816026584,63.452879885534884 L 130.40718333123172,79.24037418667429 L 119.22764737105899,79.24037418667429 z" /><path fill-rule="evenodd" fill="#eff821ff" stroke="#555555" stroke-width="1.3687200000000002" opacity="0.6" d="M 65.3073021858179,67.3729832768535 L 65.14840364035362,76.58909891378157 L 73.72892509542459,74.68231636821025 L 71.82214254985325,66.89628764046067 L 65.3073021858179,67.3729832768535 z M 73.66820827061919,74.64458930451538 L 65.19948990236315,76.52652671968337 L 65.35650731871118,67.41951657149814 L 71.78363271124844,66.94923910375151 L 73.66820827061919,74.64458930451538 z" /><path fill-rule="evenodd" fill="#eff821ff" stroke="#555555" stroke-width="1.3687200000000002" opacity="0.6" d="M 85.01072182338827,79.76706982306712 L 99.62938800610175,77.38359164110295 L 98.04040255145898,64.19501236756795 L 83.73953345967405,67.3729832768535 L 85.01072182338827,79.76706982306712 z M 97.99736430448804,64.2557961138798 L 99.57401059750653,77.34196034593319 L 85.05504697691727,79.70918267537711 L 83.79381194183833,67.41214108335751 L 97.99736430448804,64.2557961138798 z" /><path fill-rule="evenodd" fill="#eff821ff" stroke="#555555" stroke-width="1.3687200000000002" opacity="0.6" d="M 194.80231170298762,54.90122139372152 L 194.78609053554655,54.89038275615528 L 194.7669563639283,54.88657673278085 L 4.766956363928312,54.88657673278085 L 4.747822192310057,54.89038275615528 L 4.731601024868985,54.90122139372152 L 4.720762387302748,54.917442561162595 L 4.716956363928312,54.93657673278085 L 4.716956363928314,89.93657673278085 L 4.7207623873027496,89.9557109043991 L 4.731601024868986,89.97193207184017 L 4.747822192310059,89.98277070940641 L 4.766956363928314,89.98657673278085 L 194.7669563639283,89.98657673278085 L 194.78609053554655,89.98277070940641 L 194.80231170298762,89.97193207184017 L 194.81315034055388,89.9557109043991 L 194.8169563639283,89.93657673278085 L 194.8169563639283,54.93657673278085 L 194.81315034055388,54.917442561162595 L 194.80231170298762,54.90122139372152 z M 46.90093096014388,54.93657673278085 L 48.632981767712764,54.93657673278085 L 60.90093096014388,54.93657673278085 L 62.632981767712764,54.93657673278085 L 100.90093096014387,54.93657673278085 L 102.63298176771274,54.93657673278085 L 114.90093096014387,54.93657673278085 L 116.63298176771274,54.93657673278085 L 164.90093096014385,54.93657673278085 L 166.63298176771275,54.93657673278085 L 178.90093096014385,54.93657673278085 L 180.63298176771275,54.93657673278085 L 188.90093096014385,54.93657673278085 L 190.63298176771275,54.93657673278085 L 194.7669563639283,54.93657673278085 L 194.7669563639283,89.93657673278085 L 190.63298176771275,89.93657673278085 L 188.90093096014385,89.93657673278085 L 180.63298176771275,89.93657673278085 L 178.90093096014385,89.93657673278085 L 166.63298176771275,89.93657673278085 L 164.90093096014385,89.93657673278085 L 116.63298176771274,89.93657673278085 L 114.90093096014387,89.93657673278085 L 102.63298176771274,89.93657673278085 L 100.90093096014387,89.93657673278085 L 62.632981767712764,89.93657673278085 L 60.90093096014388,89.93657673278085 L 48.632981767712764,89.93657673278085 L 46.90093096014388,89.93657673278085 L 24.632981767712756,89.93657673278085 L 22.90093096014388,89.93657673278085 L 10.632985403784438,89.93657673278085 L 8.90093459621556,89.93657673278085 L 4.766956363928314,89.93657673278085 L 4.766956363928312,54.93657673278085 L 8.900939224353204,54.93657673278085 L 10.632980775646795,54.93657673278085 L 22.90093096014388,54.93657673278085 L 24.632981767712756,54.93657673278085 L 46.90093096014388,54.93657673278085 z" /></g></g></svg>