<svg xmlns="http://www.w3.org/2000/svg" xmlns:xlink="http://www.w3.org/1999/xlink" width="300" height="300" viewBox="1.6316527093556727 46.80126944213652 196.27061094521696 51.27061458128865" preserveAspectRatio="xMinYMin meet"><g transform="matrix(1,0,0,-1,0,144.8731534655617)"><g><path fill-rule="evenodd" fill="#00FF00" stroke="#555555" stroke-width="1.3084707396347797" opacity="0.6" d="M 23.154583928232526,54.32420429708505 L 22.966853218737054,54.605163158745256 L 22.90093096014388,54.93657673278085 L 22.90093096014388,89.93657673278085 L 22.966853218737054,90.26799030681644 L 23.154583928232526,90.54894916847664 L 23.43554278989273,90.73667987797212 L 23.76695636392832,90.80260213656528 L 24.09836993796391,90.73667987797212 L 24.379328799624112,90.54894916847664 L 24.567059509119584,90.26799030681644 L 24.632981767712756,89.93657673278085 L 24.632981767712756,54.93657673278085 L 24.567059509119584,54.605163158745256 L 24.379328799624112,54.32420429708505 L 24.09836993796391,54.136473587589585 L 23.76695636392832,54.07055132899641 L 23.43554278989273,54.136473587589585 L 23.154583928232526,54.32420429708505 z" /><path fill-rule="evenodd" fill="#00FF00" stroke="#555555" stroke-width="1.3084707396347797" opacity="0.6" d="M 47.154583928232526,54.32420429708505 L 46.96685321873706,54.605163158745256 L 46.90093096014388,54.93657673278085 L 46.90093096014388,89.93657673278085 L 46.96685321873706,90.26799030681644 L 47.154583928232526,90.54894916847664 L 47.43554278989273,90.73667987797212 L 47.76695636392832,90.80260213656528 L 48.098369937963916,90.73667987797212 L 48.37932879962412,90.54894916847664 L 48.56705950911959,90.26799030681644 L 48.632981767712764,89.93657673278085 L 48.632981767712764,54.93657673278085 L 48.56705950911959,54.605163158745256 L 48.37932879962412,54.32420429708505 L 48.098369937963916,54.136473587589585 L 47.76695636392832,54.07055132899641 L 47.43554278989273,54.136473587589585 L 47.154583928232526,54.32420429708505 z" /><path fill-rule="evenodd" fill="#00FF00" stroke="#555555" stroke-width="1.3084707396347797" opacity="0.6" d="M 61.154583928232526,54.32420429708505 L 60.96685321873706,54.605163158745256 L 60.90093096014388,54.93657673278085 L 60.90093096014388,89.93657673278085 L 60.96685321873706,90.26799030681644 L 61.154583928232526,90.54894916847664 L 61.43554278989273,90.73667987797212 L 61.76695636392832,90.80260213656528 L 62.098369937963916,90.73667987797212 L 62.37932879962412,90.54894916847664 L 62.56705950911959,90.26799030681644 L 62.632981767712764,89.93657673278085 L 62.632981767712764,54.93657673278085 L 62.56705950911959,54.605163158745256 L 62.37932879962412,54.32420429708505 L 62.098369937963916,54.136473587589585 L 61.76695636392832,54.07055132899641 L 61.43554278989273,54.136473587589585 L 61.154583928232526,54.32420429708505 z" /><path fill-rule="evenodd" fill="#00FF00" stroke="#555555" stroke-width="1.3084707396347797" opacity="0.6" d="M 101.15458392823251,54.32420429708505 L 100.96685321873703,54.605163158745256 L 100.90093096014387,54.93657673278085 L 100.90093096014387,89.93657673278085 L 100.96685321873703,90.26799030681644 L 101.15458392823251,90.54894916847664 L 101.43554278989271,90.73667987797212 L 101.7669563639283,90.80260213656528 L 102.0983699379639,90.73667987797212 L 102.37932879962409,90.54894916847664 L 102.56705950911957,90.26799030681644 L 102.63298176771274,89.93657673278085 L 102.63298176771274,54.93657673278085 L 102.56705950911957,54.605163158745256 L 102.37932879962409,54.32420429708505 L 102.0983699379639,54.136473587589585 L 101.7669563639283,54.07055132899641 L 101.43554278989271,54.136473587589585 L 101.15458392823251,54.32420429708505 z" /><path fill-rule="evenodd" fill="#00FF00" stroke="#555555" stroke-width="1.3084707396347797" opacity="0.6" d="M 115.15458392823251,54.32420429708505 L 114.96685321873703,54.605163158745256 L 114.90093096014387,54.93657673278085 L 114.90093096014387,89.93657673278085 L 114.96685321873703,90.26799030681644 L 115.15458392823251,90.54894916847664 L 115.43554278989271,90.73667987797212 L 115.7669563639283,90.80260213656528 L 116.0983699379639,90.73667987797212 L 116.37932879962409,90.54894916847664 L 116.56705950911957,90.26799030681644 L 116.63298176771274,89.93657673278085 L 116.63298176771274,54.93657673278085 L 116.56705950911957,54.605163158745256 L 116.37932879962409,54.32420429708505 L 116.0983699379639,54.136473587589585 L 115.7669563639283,54.07055132899641 L 115.43554278989271,54.136473587589585 L 115.15458392823251,54.32420429708505 z" /><path fill-rule="evenodd" fill="#00FF00" stroke="#555555" stroke-width="1.3084707396347797" opacity="0.6" d="M 165.1545839282325,54.32420429708505 L 164.96685321873704,54.605163158745256 L 164.90093096014385,54.93657673278085 L 164.90093096014385,89.93657673278085 L 164.96685321873704,90.26799030681644 L 165.1545839282325,90.54894916847664 L 165.4355427898927,90.73667987797212 L 165.7669563639283,90.80260213656528 L 166.0983699379639,90.73667987797212 L 166.3793287996241,90.54894916847664 L 166.56705950911956,90.26799030681644 L 166.63298176771275,89.93657673278085 L 166.63298176771275,54.93657673278085 L 166.56705950911956,54.605163158745256 L 166.3793287996241,54.32420429708505 L 166.0983699379639,54.136473587589585 L 165.7669563639283,54.07055132899641 L 165.4355427898927,54.136473587589585 L 165.1545839282325,54.32420429708505 z" /><path fill-rule="evenodd" fill="#00FF00" stroke="#555555" stroke-width="1.3084707396347797" opacity="0.6" d="M 179.1545839282325,54.32420429708505 L 178.96685321873704,54.605163158745256 L 178.90093096014385,54.93657673278085 L 178.90093096014385,89.93657673278085 L 178.96685321873704,90.26799030681644 L 179.1545839282325,90.54894916847664 L 179.4355427898927,90.73667987797212 L 179.7669563639283,90.80260213656528 L 180.0983699379639,90.73667987797212 L 180.3793287996241,90.54894916847664 L 180.56705950911956,90.26799030681644 L 180.63298176771275,89.93657673278085 L 180.63298176771275,54.93657673278085 L 180.56705950911956,54.605163158745256 L 180.3793287996241,54.32420429708505 L 180.0983699379639,54.136473587589585 L 179.7669563639283,54.07055132899641 L 179.4355427898927,54.136473587589585 L 179.1545839282325,54.32420429708505 z" /><path fill-rule="evenodd" fill="#00FF00" stroke="#555555" stroke-width="1.3084707396347797" opacity="0.6" d="M 188.90093096014385,54.93657673278085 L 188.90093096014385,89.93657673278085 L 188.96685321873704,90.26799030681644 L 189.1545839282325,90.54894916847664 L 189.4355427898927,90.73667987797212 L 189.7669563639283,90.80260213656528 L 190.0983699379639,90.73667987797212 L 190.3793287996241,90.54894916847664 L 190.56705950911956,90.26799030681644 L 190.63298176771275,89.93657673278085 L 190.63298176771275,54.93657673278085 L 190.56705950911956,54.605163158745256 L 190.3793287996241,54.32420429708505 L 190.0983699379639,54.136473587589585 L 189.7669563639283,54.07055132899641 L 189.4355427898927,54.136473587589585 L 189.1545839282325,54.32420429708505 L 188.96685321873704,54.605163158745256 L 188.90093096014385,54.93657673278085 z" /><path fill-rule="evenodd" fill="#00FF00" stroke="#555555" stroke-width="1.3084707396347797" opacity="0.6" d="M 8.90093459621556,54.9366 L 8.90093459621556,89.93657673278085 L 8.966856854808734,90.26799030681644 L 9.154587564304205,90.54894916847664 L 9.435546425964407,90.73667987797212 L 9.76696,90.80260213656528 L 10.098373574035591,90.73667987797212 L 10.379332435695794,90.54894916847664 L 10.567063145191264,90.26799030681644 L 10.632985403784438,89.93657673278085 L 10.632985403784438,54.9366 L 10.567063145191264,54.605186425964405 L 10.379332435695794,54.3242275643042 L 10.098373574035591,54.13649685480873 L 9.76696,54.07057459621556 L 9.435546425964407,54.13649685480873 L 9.154587564304205,54.3242275643042 L 8.966856854808734,54.605186425964405 L 8.90093459621556,54.9366 z" /></g></g></svg>