<svg xmlns="http://www.w3.org/2000/svg" xmlns:xlink="http://www.w3.org/1999/xlink" width="300" height="300" viewBox="-31.87015288874916 15.799467480103374 494.88992411341957 113.27421850535495" preserveAspectRatio="xMinYMin meet"><g transform="matrix(1,0,0,-1,0,144.8731534655617)"><g><path fill-rule="evenodd" fill="#00FF00" stroke="#555555" stroke-width="3.2992661607561304" opacity="0.6" d="M -13.540896440103994,110.74442953681314 L 213.0748091679606,110.74442953681314 L 213.0748091679606,34.12872392874854 L -13.540896440103994,34.12872392874854 L -13.540896440103994,110.74442953681314 z M 7.902037926191295,54.93657673278085 L 7.921139685265698,54.74263331819551 L 7.9211870068406505,54.742395416572926 L 8.070427292883902,54.38209749395417 L 8.070534627851396,54.381936855823284 L 8.346294719248558,54.10617676442299 L 8.346455357379407,54.106069429455516 L 8.70675328002165,53.95682914340315 L 8.706991181644158,53.956781821828216 L 8.901983723065385,53.937576732780855 L 10.631936276934614,53.937576732780855 L 10.82692881835584,53.956781821828216 L 10.827166719978349,53.95682914340315 L 11.187464642620592,54.106069429455516 L 11.18762528075144,54.10617676442299 L 11.463385372148602,54.381936855823284 L 11.463492707116096,54.38209749395417 L 11.61273299315935,54.742395416572926 L 11.612780314734298,54.74263331819549 L 11.6318820738087,54.93657673278085 L 10.632980775646795,54.93657673278085 L 10.632985403784438,54.9366 L 10.632985403784438,89.93657673278085 L 11.631882073808702,89.93657673278085 L 11.612780314734296,90.13052014736624 L 11.612732993159353,90.13075804898878 L 11.463492707121704,90.49105597159917 L 11.463385372154228,90.49121660973003 L 11.187625280726268,90.76697670115556 L 11.18746464259541,90.76708403612302 L 10.827166720013429,90.91632432215157 L 10.826928818390796,90.91637164372654 L 10.63193627693466,90.93557673278086 L 8.901983723065339,90.93557673278086 L 8.706991181609203,90.91637164372654 L 8.70675327998657,90.91632432215157 L 8.346455357404588,90.76708403612302 L 8.34629471927373,90.76697670115556 L 8.07053462784577,90.49121660973003 L 8.070427292878295,90.49105597159917 L 7.921187006840646,90.13075804898878 L 7.9211396852656994,90.13052014736623 L 7.902037926191294,89.93657673278085 L 8.90093459621556,89.93657673278085 L 8.90093459621556,54.9366 L 8.900939224353204,54.93657673278085 L 7.902037926191295,54.93657673278085 z M 21.92113604919489,54.7426333181911 L 21.921183370769832,54.742395416568556 L 22.070423656814334,54.38209749395101 L 22.07053099178181,54.38193685582014 L 22.34629108317267,54.106176764425804 L 22.34645172130353,54.10606942945832 L 22.706749643950843,53.95682914340298 L 22.706987545573348,53.956781821828045 L 22.9019800869937,53.937576732780855 L 24.63193264086294,53.937576732780855 L 24.82692518228329,53.956781821828045 L 24.827163083905795,53.95682914340298 L 25.187461006553107,54.10606942945832 L 25.18762164468397,54.106176764425804 L 25.46338173607483,54.38193685582014 L 25.463489071042304,54.38209749395101 L 25.612729357086806,54.742395416568556 L 25.61277667866175,54.7426333181911 L 25.631878437737022,54.93657673278085 L 24.632981767712756,54.93657673278085 L 24.632981767712756,89.93657673278085 L 25.631878437737022,89.93657673278085 L 25.61277667866175,90.1305201473706 L 25.612729357086803,90.13075804899317 L 25.463489071047942,90.49105597160226 L 25.463381736080425,90.49121660973319 L 25.187621644658797,90.76697670115274 L 25.187461006527926,90.76708403612022 L 24.827163083940874,90.91632432215175 L 24.82692518231825,90.91637164372672 L 24.63193264086298,90.93557673278086 L 22.901980086993657,90.93557673278086 L 22.70698754553839,90.91637164372672 L 22.706749643915764,90.91632432215175 L 22.346451721328712,90.76708403612022 L 22.34629108319784,90.76697670115274 L 22.070530991776213,90.49121660973319 L 22.070423656808696,90.49105597160226 L 21.921183370769835,90.13075804899317 L 21.92113604919489,90.1305201473706 L 21.902034290119616,89.93657673278085 L 22.90093096014388,89.93657673278085 L 22.90093096014388,54.93657673278085 L 21.902034290119616,54.93657673278085 L 21.92113604919489,54.7426333181911 z M 45.902034290119616,54.93657673278085 L 45.921136049191425,54.74263331820858 L 45.92118337076636,54.74239541658608 L 46.070423656818555,54.3820974939447 L 46.07053099178603,54.38193685581384 L 46.34629108317687,54.106176764423 L 46.34645172130773,54.10606942945552 L 46.70674964394911,53.956829143403326 L 46.706987545571614,53.95678182182839 L 46.90198008699371,53.937576732780855 L 48.631932640862935,53.937576732780855 L 48.82692518228503,53.95678182182839 L 48.827163083907536,53.956829143403326 L 49.187461006548915,54.10606942945552 L 49.18762164467977,54.106176764423 L 49.463381736070616,54.38193685581384 L 49.46348907103809,54.3820974939447 L 49.61272935709029,54.74239541658608 L 49.61277667866522,54.74263331820858 L 49.63187843773703,54.93657673278085 L 48.632981767712764,54.93657673278085 L 48.632981767712764,89.93657673278085 L 49.63187843773703,89.93657673278085 L 49.61277667866522,90.13052014735312 L 49.61272935709029,90.13075804897565 L 49.46348907104372,90.4910559716086 L 49.46338173607624,90.49121660973947 L 49.187621644654605,90.76697670115554 L 49.18746100652372,90.76708403612304 L 48.82716308394262,90.9163243221514 L 48.82692518231999,90.91637164372636 L 48.631932640862985,90.93557673278086 L 46.90198008699366,90.93557673278086 L 46.706987545536656,90.91637164372636 L 46.70674964391402,90.9163243221514 L 46.346451721332926,90.76708403612304 L 46.34629108320204,90.76697670115554 L 46.07053099178041,90.49121660973947 L 46.07042365681293,90.4910559716086 L 45.92118337076636,90.13075804897565 L 45.921136049191425,90.13052014735312 L 45.902034290119616,89.93657673278085 L 46.90093096014388,89.93657673278085 L 46.90093096014388,54.93657673278085 L 45.902034290119616,54.93657673278085 z M 59.902034290119616,54.93657673278085 L 59.921136049191425,54.74263331820858 L 59.92118337076636,54.74239541658608 L 60.070423656818555,54.3820974939447 L 60.07053099178603,54.38193685581384 L 60.34629108317687,54.106176764423 L 60.34645172130773,54.10606942945552 L 60.70674964394911,53.956829143403326 L 60.706987545571614,53.95678182182839 L 60.90198008699371,53.937576732780855 L 62.631932640862935,53.937576732780855 L 62.82692518228503,53.95678182182839 L 62.827163083907536,53.956829143403326 L 63.187461006548915,54.10606942945552 L 63.18762164467977,54.106176764423 L 63.463381736070616,54.38193685581384 L 63.46348907103809,54.3820974939447 L 63.61272935709029,54.74239541658608 L 63.61277667866522,54.74263331820858 L 63.63187843773703,54.93657673278085 L 62.632981767712764,54.93657673278085 L 62.632981767712764,89.93657673278085 L 63.63187843773703,89.93657673278085 L 63.61277667866522,90.13052014735312 L 63.61272935709029,90.13075804897565 L 63.46348907104372,90.4910559716086 L 63.46338173607624,90.49121660973947 L 63.187621644654605,90.76697670115554 L 63.18746100652372,90.76708403612304 L 62.82716308394262,90.9163243221514 L 62.82692518231999,90.91637164372636 L 62.631932640862985,90.93557673278086 L 60.90198008699366,90.93557673278086 L 60.706987545536656,90.91637164372636 L 60.70674964391402,90.9163243221514 L 60.346451721332926,90.76708403612304 L 60.34629108320204,90.76697670115554 L 60.07053099178041,90.49121660973947 L 60.07042365681293,90.4910559716086 L 59.92118337076636,90.13075804897565 L 59.921136049191425,90.13052014735312 L 59.902034290119616,89.93657673278085 L 60.90093096014388,89.93657673278085 L 60.90093096014388,54.93657673278085 L 59.902034290119616,54.93657673278085 z M 99.9020342901196,54.93657673278085 L 99.92113604919835,54.742633318173624 L 99.92118337077332,54.74239541655099 L 100.07042365680168,54.382097493969894 L 100.07053099176917,54.38193685583901 L 100.34629108318525,54.10617676441738 L 100.34645172131611,54.106069429449896 L 100.70674964394907,53.956829143403326 L 100.7069875455716,53.95678182182839 L 100.90198008699367,53.937576732780855 L 102.63193264086293,53.937576732780855 L 102.82692518228501,53.95678182182839 L 102.82716308390754,53.956829143403326 L 103.18746100654049,54.106069429449896 L 103.18762164467135,54.10617676441738 L 103.46338173608743,54.38193685583901 L 103.46348907105492,54.382097493969894 L 103.61272935708328,54.74239541655099 L 103.61277667865825,54.742633318173624 L 103.631878437737,54.93657673278085 L 102.63298176771274,54.93657673278085 L 102.63298176771274,89.93657673278085 L 103.631878437737,89.93657673278085 L 103.61277667865825,90.1305201473881 L 103.61272935708328,90.13075804901072 L 103.46348907106054,90.49105597158339 L 103.46338173609305,90.49121660971427 L 103.18762164464616,90.76697670116117 L 103.18746100651528,90.76708403612865 L 102.82716308394261,90.9163243221514 L 102.82692518231998,90.91637164372636 L 102.63193264086296,90.93557673278086 L 100.90198008699365,90.93557673278086 L 100.70698754553662,90.91637164372636 L 100.706749643914,90.9163243221514 L 100.34645172134132,90.76708403612865 L 100.34629108321045,90.76697670116117 L 100.07053099176355,90.49121660971427 L 100.07042365679607,90.49105597158339 L 99.92118337077332,90.13075804901072 L 99.92113604919835,90.1305201473881 L 99.9020342901196,89.93657673278085 L 100.90093096014387,89.93657673278085 L 100.90093096014387,54.93657673278085 L 99.9020342901196,54.93657673278085 z M 0.5347233168946808,44.66880977981448 L 1.0766551952065289,45.479868151868125 L 1.266956363928312,46.43657673278085 L 1.076655195206528,47.393285313693575 L 0.5347233168946803,48.20434368574722 L -0.27633505515896306,48.74627556405907 L -1.2330436360716885,48.93657673278085 L -2.189752216984414,48.74627556405907 L -3.0008105890380574,48.20434368574722 L -3.542742467349905,47.393285313693575 L -3.733043636071688,46.43657673278085 L -3.542742467349905,45.479868151868125 L -3.000810589038057,44.66880977981448 L -2.189752216984412,44.12687790150263 L -1.2330436360716879,43.93657673278085 L -0.2763350551589635,44.12687790150263 L 0.5347233168946808,44.66880977981448 z M 202.53472331689466,44.66880977981448 L 203.0766551952065,45.479868151868125 L 203.2669563639283,46.43657673278085 L 203.0766551952065,47.393285313693575 L 202.53472331689466,48.20434368574722 L 201.72366494484103,48.74627556405907 L 200.7669563639283,48.93657673278085 L 199.81024778301557,48.74627556405907 L 198.99918941096192,48.20434368574722 L 198.4572575326501,47.393285313693575 L 198.2669563639283,46.43657673278085 L 198.4572575326501,45.479868151868125 L 198.99918941096195,44.66880977981448 L 199.81024778301557,44.12687790150263 L 200.7669563639283,43.93657673278085 L 201.72366494484103,44.12687790150263 L 202.53472331689466,44.66880977981448 z M 0.5347233168946808,96.66880977981448 L 1.0766551952065289,97.47986815186813 L 1.266956363928312,98.43657673278085 L 1.076655195206528,99.39328531369358 L 0.5347233168946803,100.20434368574722 L -0.27633505515896306,100.74627556405906 L -1.2330436360716885,100.93657673278085 L -2.189752216984414,100.74627556405906 L -3.0008105890380574,100.20434368574722 L -3.542742467349905,99.39328531369357 L -3.733043636071688,98.43657673278085 L -3.542742467349905,97.47986815186813 L -3.000810589038057,96.66880977981448 L -2.189752216984412,96.12687790150264 L -1.2330436360716879,95.93657673278085 L -0.2763350551589635,96.12687790150264 L 0.5347233168946808,96.66880977981448 z M 202.53472331689466,96.66880977981448 L 203.0766551952065,97.47986815186813 L 203.2669563639283,98.43657673278085 L 203.0766551952065,99.39328531369358 L 202.53472331689466,100.20434368574722 L 201.72366494484103,100.74627556405906 L 200.7669563639283,100.93657673278085 L 199.81024778301557,100.74627556405906 L 198.99918941096192,100.20434368574722 L 198.4572575326501,99.39328531369357 L 198.2669563639283,98.43657673278085 L 198.4572575326501,97.47986815186813 L 198.99918941096195,96.66880977981448 L 199.81024778301557,96.12687790150264 L 200.7669563639283,95.93657673278085 L 201.72366494484103,96.12687790150264 L 202.53472331689466,96.66880977981448 z M 11.344886051428311,46.52954548278085 L 10.610511051428311,44.42720173278085 L 9.882386051428313,46.52954548278085 L 9.408948551428313,46.52954548278085 L 10.393323551428313,43.93188923278085 L 10.140854801428311,43.40579548278085 L 9.699042301428314,43.32563923278085 L 9.842839176428313,42.88908454528085 L 10.503667301428314,43.22204548278085 L 11.784729801428313,46.52954548278085 L 11.344886051428311,46.52954548278085 z M 8.036468082678311,46.21813923278085 L 8.45521808267831,46.02523298278085 L 8.532874332678311,45.58188923278085 L 7.0422493326783115,45.22095173278085 L 6.764936832678312,44.37879548278085 L 7.304655582678312,43.91135798278085 L 8.282905582678312,44.05126423278085 L 8.569593082678313,44.25610798278085 L 8.657093082678312,43.93657673278085 L 9.116468082678313,43.93657673278085 L 8.926038395178312,46.11697517028085 L 8.424749332678312,46.53813923278085 L 7.385218082678312,46.49595173278085 L 6.8039680826783115,45.78970173278085 L 8.036468082678311,46.21813923278085 z M 13.324386051428313,46.58460017028085 L 12.417503238928312,46.29514704528085 L 12.014659488928313,45.33879548278085 L 12.344886051428313,44.22798298278085 L 13.335932926428313,43.88017829528085 L 14.234143863928313,44.36216267028085 L 14.387073551428312,44.71548298278085 L 13.933167301428313,44.77173298278085 L 13.553089176428312,44.30171735778085 L 12.951526676428312,44.29634235778085 L 12.472753238928313,45.03748298278085 L 14.399573551428313,45.12095173278085 L 14.072229801428312,46.23423298278085 L 13.324386051428313,46.58460017028085 z M 15.496116520178314,45.91926423278085 L 16.191272770178312,46.03892048278085 L 16.342835270178313,46.44673298278085 L 15.772272770178311,46.57401423278085 L 15.389241520178315,46.23935798278085 L 15.329554020178312,46.52954548278085 L 14.934241520178313,46.52954548278085 L 14.934241520178313,43.93657673278085 L 15.373304020178313,43.93657673278085 L 15.496116520178314,45.91926423278085 z M 6.369300113928312,44.35923298278085 L 4.606800113928312,44.35923298278085 L 4.606800113928312,47.51548298278085 L 4.133362613928312,47.51548298278085 L 4.133362613928312,43.93657673278085 L 6.369300113928312,43.93657673278085 L 6.369300113928312,44.35923298278085 z M 19.525940738928313,43.93657673278085 L 19.525940738928313,47.53032673278085 L 18.207971988928314,46.63188923278085 L 18.207971988928314,46.20688923278085 L 18.944128238928315,46.61582673278085 L 19.086878238928314,43.93657673278085 L 19.525940738928313,43.93657673278085 z M 113.9020342901196,54.93657673278085 L 113.92113604919835,54.742633318173624 L 113.92118337077332,54.74239541655099 L 114.07042365680168,54.382097493969894 L 114.07053099176917,54.38193685583901 L 114.34629108318525,54.10617676441738 L 114.34645172131611,54.106069429449896 L 114.70674964394907,53.956829143403326 L 114.7069875455716,53.95678182182839 L 114.90198008699367,53.937576732780855 L 116.63193264086293,53.937576732780855 L 116.82692518228501,53.95678182182839 L 116.82716308390754,53.956829143403326 L 117.18746100654049,54.106069429449896 L 117.18762164467135,54.10617676441738 L 117.46338173608743,54.38193685583901 L 117.46348907105492,54.382097493969894 L 117.61272935708328,54.74239541655099 L 117.61277667865825,54.742633318173624 L 117.631878437737,54.93657673278085 L 116.63298176771274,54.93657673278085 L 116.63298176771274,89.93657673278085 L 117.631878437737,89.93657673278085 L 117.61277667865825,90.1305201473881 L 117.61272935708328,90.13075804901072 L 117.46348907106054,90.49105597158339 L 117.46338173609305,90.49121660971427 L 117.18762164464616,90.76697670116117 L 117.18746100651528,90.76708403612865 L 116.82716308394261,90.9163243221514 L 116.82692518231998,90.91637164372636 L 116.63193264086296,90.93557673278086 L 114.90198008699365,90.93557673278086 L 114.70698754553662,90.91637164372636 L 114.706749643914,90.9163243221514 L 114.34645172134132,90.76708403612865 L 114.34629108321045,90.76697670116117 L 114.07053099176355,90.49121660971427 L 114.07042365679607,90.49105597158339 L 113.92118337077332,90.13075804901072 L 113.92113604919835,90.1305201473881 L 113.9020342901196,89.93657673278085 L 114.90093096014387,89.93657673278085 L 114.90093096014387,54.93657673278085 L 113.9020342901196,54.93657673278085 z M 163.9020342901196,54.93657673278085 L 163.9211360491983,54.742633318173766 L 163.9211833707733,54.74239541655099 L 164.0704236568017,54.382097493969894 L 164.0705309917692,54.38193685583898 L 164.34629108316838,54.10617676442867 L 164.3464517212993,54.10606942946113 L 164.70674964395607,53.95682914340193 L 164.70698754557853,53.95678182182701 L 164.9019800869937,53.937576732780855 L 166.6319326408629,53.937576732780855 L 166.82692518227807,53.95678182182701 L 166.82716308390053,53.95682914340193 L 167.1874610065573,54.10606942946113 L 167.18762164468822,54.10617676442867 L 167.4633817360874,54.38193685583898 L 167.4634890710549,54.382097493969894 L 167.6127293570833,54.74239541655099 L 167.6127766786583,54.742633318173766 L 167.63187843773702,54.93657673278085 L 166.63298176771275,54.93657673278085 L 166.63298176771275,89.93657673278085 L 167.63187843773702,89.93657673278085 L 167.6127766786583,90.13052014738795 L 167.6127293570833,90.13075804901072 L 167.4634890710605,90.49105597158345 L 167.46338173609305,90.49121660971427 L 167.18762164466304,90.7669767011499 L 167.18746100653212,90.76708403611741 L 166.82716308393563,90.9163243221528 L 166.82692518231306,90.91637164372776 L 166.63193264086297,90.93557673278086 L 164.90198008699363,90.93557673278086 L 164.70698754554354,90.91637164372776 L 164.70674964392097,90.9163243221528 L 164.34645172132448,90.76708403611741 L 164.34629108319356,90.7669767011499 L 164.07053099176355,90.49121660971427 L 164.0704236567961,90.49105597158345 L 163.9211833707733,90.13075804901072 L 163.9211360491983,90.13052014738795 L 163.9020342901196,89.93657673278085 L 164.90093096014385,89.93657673278085 L 164.90093096014385,54.93657673278085 L 163.9020342901196,54.93657673278085 z M 177.9020342901196,54.93657673278085 L 177.9211360491983,54.742633318173766 L 177.9211833707733,54.74239541655099 L 178.0704236568017,54.382097493969894 L 178.0705309917692,54.38193685583898 L 178.34629108316838,54.10617676442867 L 178.3464517212993,54.10606942946113 L 178.70674964395607,53.95682914340193 L 178.70698754557853,53.95678182182701 L 178.9019800869937,53.937576732780855 L 180.6319326408629,53.937576732780855 L 180.82692518227807,53.95678182182701 L 180.82716308390053,53.95682914340193 L 181.1874610065573,54.10606942946113 L 181.18762164468822,54.10617676442867 L 181.4633817360874,54.38193685583898 L 181.4634890710549,54.382097493969894 L 181.6127293570833,54.74239541655099 L 181.6127766786583,54.742633318173766 L 181.63187843773702,54.93657673278085 L 180.63298176771275,54.93657673278085 L 180.63298176771275,89.93657673278085 L 181.63187843773702,89.93657673278085 L 181.6127766786583,90.13052014738795 L 181.6127293570833,90.13075804901072 L 181.4634890710605,90.49105597158345 L 181.46338173609305,90.49121660971427 L 181.18762164466304,90.7669767011499 L 181.18746100653212,90.76708403611741 L 180.82716308393563,90.9163243221528 L 180.82692518231306,90.91637164372776 L 180.63193264086297,90.93557673278086 L 178.90198008699363,90.93557673278086 L 178.70698754554354,90.91637164372776 L 178.70674964392097,90.9163243221528 L 178.34645172132448,90.76708403611741 L 178.34629108319356,90.7669767011499 L 178.07053099176355,90.49121660971427 L 178.0704236567961,90.49105597158345 L 177.9211833707733,90.13075804901072 L 177.9211360491983,90.13052014738795 L 177.9020342901196,89.93657673278085 L 178.90093096014385,89.93657673278085 L 178.90093096014385,54.93657673278085 L 177.9020342901196,54.93657673278085 z M 187.9020342901196,54.93657673278085 L 187.9211360491983,54.742633318173766 L 187.9211833707733,54.74239541655099 L 188.0704236568017,54.382097493969894 L 188.0705309917692,54.38193685583898 L 188.34629108316838,54.10617676442867 L 188.3464517212993,54.10606942946113 L 188.70674964395607,53.95682914340193 L 188.70698754557853,53.95678182182701 L 188.9019800869937,53.937576732780855 L 190.6319326408629,53.937576732780855 L 190.82692518227807,53.95678182182701 L 190.82716308390053,53.95682914340193 L 191.1874610065573,54.10606942946113 L 191.18762164468822,54.10617676442867 L 191.4633817360874,54.38193685583898 L 191.4634890710549,54.382097493969894 L 191.6127293570833,54.74239541655099 L 191.6127766786583,54.742633318173766 L 191.63187843773702,54.93657673278085 L 190.63298176771275,54.93657673278085 L 190.63298176771275,89.93657673278085 L 191.63187843773702,89.93657673278085 L 191.6127766786583,90.13052014738795 L 191.6127293570833,90.13075804901072 L 191.4634890710605,90.49105597158345 L 191.46338173609305,90.49121660971427 L 191.18762164466304,90.7669767011499 L 191.18746100653212,90.76708403611741 L 190.82716308393563,90.9163243221528 L 190.82692518231306,90.91637164372776 L 190.63193264086297,90.93557673278086 L 188.90198008699363,90.93557673278086 L 188.70698754554354,90.91637164372776 L 188.70674964392097,90.9163243221528 L 188.34645172132448,90.76708403611741 L 188.34629108319356,90.7669767011499 L 188.07053099176355,90.49121660971427 L 188.0704236567961,90.49105597158345 L 187.9211833707733,90.13075804901072 L 187.9211360491983,90.13052014738795 L 187.9020342901196,89.93657673278085 L 188.90093096014385,89.93657673278085 L 188.90093096014385,54.93657673278085 L 187.9020342901196,54.93657673278085 z" /><path fill-rule="evenodd" fill="#00FF00" stroke="#555555" stroke-width="3.2992661607561304" opacity="0.6" d="M 444.6905147760252,110.74442953681314 L 444.6905147760252,34.12872392874854 L 218.0748091679606,34.12872392874854 L 218.0748091679606,110.74442953681314 L 444.6905147760252,110.74442953681314 z M 423.24758040972995,89.93657673278085 L 423.2284786506555,90.13052014736623 L 423.2284313290806,90.13075804898878 L 423.0791910430429,90.49105597159917 L 423.0790837080755,90.49121660973003 L 422.8033236166475,90.76697670115556 L 422.80316297851664,90.76708403612302 L 422.44286505593465,90.91632432215157 L 422.442627154312,90.91637164372654 L 422.2476346128559,90.93557673278086 L 420.51768205898657,90.93557673278086 L 420.3226895175304,90.91637164372654 L 420.32245161590777,90.91632432215157 L 419.96215369332583,90.76708403612302 L 419.96199305519497,90.76697670115556 L 419.686232963767,90.49121660973003 L 419.6861256287995,90.49105597159917 L 419.5368853427619,90.13075804898878 L 419.5368380211869,90.13052014736624 L 419.5177362621125,89.93657673278085 L 420.51663293213676,89.93657673278085 L 420.51663293213676,54.9366 L 420.51663756027443,54.93657673278085 L 419.5177362621125,54.93657673278085 L 419.5368380211869,54.74263331819549 L 419.5368853427619,54.742395416572926 L 419.68612562880514,54.38209749395417 L 419.6862329637726,54.381936855823284 L 419.9619930551698,54.10617676442299 L 419.96215369330065,54.106069429455516 L 420.3224516159429,53.95682914340315 L 420.3226895175654,53.956781821828216 L 420.5176820589866,53.937576732780855 L 422.24763461285585,53.937576732780855 L 422.44262715427703,53.956781821828216 L 422.4428650558996,53.95682914340315 L 422.8031629785418,54.106069429455516 L 422.8033236166727,54.10617676442299 L 423.07908370806985,54.381936855823284 L 423.0791910430373,54.38209749395417 L 423.2284313290806,54.742395416572926 L 423.2284786506555,54.74263331819551 L 423.24758040972995,54.93657673278085 L 422.24867911156804,54.93657673278085 L 422.24868373970565,54.9366 L 422.24868373970565,89.93657673278085 L 423.24758040972995,89.93657673278085 z M 409.2475840458016,89.93657673278085 L 409.2284822867263,90.1305201473706 L 409.2284349651514,90.13075804899317 L 409.0791946791125,90.49105597160226 L 409.079087344145,90.49121660973319 L 408.80332725272336,90.76697670115274 L 408.8031666145925,90.76708403612022 L 408.44286869200545,90.91632432215175 L 408.44263079038285,90.91637164372672 L 408.24763824892756,90.93557673278086 L 406.5176856950582,90.93557673278086 L 406.322693153603,90.91637164372672 L 406.32245525198033,90.91632432215175 L 405.9621573293933,90.76708403612022 L 405.9619966912624,90.76697670115274 L 405.6862365998408,90.49121660973319 L 405.6861292648733,90.49105597160226 L 405.53688897883444,90.13075804899317 L 405.53684165725946,90.1305201473706 L 405.5177398981842,89.93657673278085 L 406.51663656820847,89.93657673278085 L 406.51663656820847,54.93657673278085 L 405.5177398981842,54.93657673278085 L 405.53684165725946,54.7426333181911 L 405.53688897883444,54.742395416568556 L 405.6861292648789,54.38209749395101 L 405.6862365998464,54.38193685582014 L 405.96199669123723,54.106176764425804 L 405.9621573293681,54.10606942945832 L 406.3224552520154,53.95682914340298 L 406.32269315363794,53.956781821828045 L 406.5176856950583,53.937576732780855 L 408.2476382489275,53.937576732780855 L 408.4426307903479,53.956781821828045 L 408.4428686919704,53.95682914340298 L 408.8031666146177,54.10606942945832 L 408.80332725274855,54.106176764425804 L 409.0790873441394,54.38193685582014 L 409.0791946791069,54.38209749395101 L 409.2284349651514,54.742395416568556 L 409.2284822867263,54.7426333181911 L 409.2475840458016,54.93657673278085 L 408.2486873757773,54.93657673278085 L 408.2486873757773,89.93657673278085 L 409.2475840458016,89.93657673278085 z M 385.2284822867298,90.13052014735312 L 385.22843496515486,90.13075804897565 L 385.0791946791083,90.4910559716086 L 385.0790873441408,90.49121660973947 L 384.80332725271916,90.76697670115554 L 384.8031666145883,90.76708403612304 L 384.4428686920072,90.9163243221514 L 384.44263079038456,90.91637164372636 L 384.24763824892756,90.93557673278086 L 382.5176856950582,90.93557673278086 L 382.3226931536012,90.91637164372636 L 382.32245525197857,90.9163243221514 L 381.9621573293975,90.76708403612304 L 381.9619966912666,90.76697670115554 L 381.68623659984496,90.49121660973947 L 381.6861292648775,90.4910559716086 L 381.5368889788309,90.13075804897565 L 381.536841657256,90.13052014735312 L 381.5177398981842,89.93657673278085 L 382.51663656820847,89.93657673278085 L 382.51663656820847,54.93657673278085 L 381.5177398981842,54.93657673278085 L 381.536841657256,54.74263331820858 L 381.5368889788309,54.74239541658608 L 381.6861292648831,54.3820974939447 L 381.6862365998506,54.38193685581384 L 381.96199669124144,54.106176764423 L 381.9621573293723,54.10606942945552 L 382.3224552520137,53.956829143403326 L 382.3226931536362,53.95678182182839 L 382.5176856950583,53.937576732780855 L 384.2476382489275,53.937576732780855 L 384.4426307903496,53.95678182182839 L 384.4428686919721,53.956829143403326 L 384.8031666146135,54.10606942945552 L 384.80332725274434,54.106176764423 L 385.0790873441352,54.38193685581384 L 385.07919467910267,54.3820974939447 L 385.22843496515486,54.74239541658608 L 385.2284822867298,54.74263331820858 L 385.2475840458016,54.93657673278085 L 384.2486873757773,54.93657673278085 L 384.2486873757773,89.93657673278085 L 385.2475840458016,89.93657673278085 L 385.2284822867298,90.13052014735312 z M 371.2284822867298,90.13052014735312 L 371.22843496515486,90.13075804897565 L 371.0791946791083,90.4910559716086 L 371.0790873441408,90.49121660973947 L 370.80332725271916,90.76697670115554 L 370.8031666145883,90.76708403612304 L 370.4428686920072,90.9163243221514 L 370.44263079038456,90.91637164372636 L 370.24763824892756,90.93557673278086 L 368.5176856950582,90.93557673278086 L 368.3226931536012,90.91637164372636 L 368.32245525197857,90.9163243221514 L 367.9621573293975,90.76708403612304 L 367.9619966912666,90.76697670115554 L 367.68623659984496,90.49121660973947 L 367.6861292648775,90.4910559716086 L 367.5368889788309,90.13075804897565 L 367.536841657256,90.13052014735312 L 367.5177398981842,89.93657673278085 L 368.51663656820847,89.93657673278085 L 368.51663656820847,54.93657673278085 L 367.5177398981842,54.93657673278085 L 367.536841657256,54.74263331820858 L 367.5368889788309,54.74239541658608 L 367.6861292648831,54.3820974939447 L 367.6862365998506,54.38193685581384 L 367.96199669124144,54.106176764423 L 367.9621573293723,54.10606942945552 L 368.3224552520137,53.956829143403326 L 368.3226931536362,53.95678182182839 L 368.5176856950583,53.937576732780855 L 370.2476382489275,53.937576732780855 L 370.4426307903496,53.95678182182839 L 370.4428686919721,53.956829143403326 L 370.8031666146135,54.10606942945552 L 370.80332725274434,54.106176764423 L 371.0790873441352,54.38193685581384 L 371.07919467910267,54.3820974939447 L 371.22843496515486,54.74239541658608 L 371.2284822867298,54.74263331820858 L 371.2475840458016,54.93657673278085 L 370.2486873757773,54.93657673278085 L 370.2486873757773,89.93657673278085 L 371.2475840458016,89.93657673278085 L 371.2284822867298,90.13052014735312 z M 331.22848228672285,90.1305201473881 L 331.2284349651479,90.13075804901072 L 331.0791946791252,90.49105597158339 L 331.07908734415764,90.49121660971427 L 330.8033272527108,90.76697670116117 L 330.8031666145799,90.76708403612865 L 330.4428686920072,90.9163243221514 L 330.4426307903846,90.91637164372636 L 330.24763824892756,90.93557673278086 L 328.5176856950583,90.93557673278086 L 328.3226931536012,90.91637164372636 L 328.3224552519786,90.9163243221514 L 327.96215732940595,90.76708403612865 L 327.9619966912751,90.76697670116117 L 327.68623659982813,90.49121660971427 L 327.6861292648607,90.49105597158339 L 327.53688897883796,90.13075804901072 L 327.536841657263,90.1305201473881 L 327.51773989818423,89.93657673278085 L 328.51663656820847,89.93657673278085 L 328.51663656820847,54.93657673278085 L 327.51773989818423,54.93657673278085 L 327.536841657263,54.742633318173624 L 327.53688897883796,54.74239541655099 L 327.6861292648663,54.382097493969894 L 327.6862365998338,54.38193685583901 L 327.96199669124985,54.10617676441738 L 327.9621573293807,54.106069429449896 L 328.3224552520137,53.956829143403326 L 328.32269315363624,53.95678182182839 L 328.5176856950583,53.937576732780855 L 330.24763824892756,53.937576732780855 L 330.44263079034965,53.95678182182839 L 330.44286869197214,53.956829143403326 L 330.8031666146051,54.106069429449896 L 330.803327252736,54.10617676441738 L 331.0790873441521,54.38193685583901 L 331.07919467911955,54.382097493969894 L 331.2284349651479,54.74239541655099 L 331.22848228672285,54.742633318173624 L 331.2475840458016,54.93657673278085 L 330.24868737577737,54.93657673278085 L 330.24868737577737,89.93657673278085 L 331.2475840458016,89.93657673278085 L 331.22848228672285,90.1305201473881 z M 434.1504289249593,44.66880977981448 L 434.69236080327113,45.479868151868125 L 434.8826619719929,46.43657673278085 L 434.69236080327113,47.393285313693575 L 434.1504289249593,48.20434368574722 L 433.3393705529056,48.74627556405907 L 432.3826619719929,48.93657673278085 L 431.42595339108016,48.74627556405907 L 430.61489501902656,48.20434368574722 L 430.0729631407147,47.393285313693575 L 429.8826619719929,46.43657673278085 L 430.0729631407147,45.479868151868125 L 430.61489501902656,44.66880977981448 L 431.42595339108016,44.12687790150263 L 432.3826619719929,43.93657673278085 L 433.3393705529056,44.12687790150263 L 434.1504289249593,44.66880977981448 z M 232.15042892495927,44.66880977981448 L 232.69236080327113,45.479868151868125 L 232.88266197199292,46.43657673278085 L 232.69236080327113,47.393285313693575 L 232.1504289249593,48.20434368574722 L 231.33937055290565,48.74627556405907 L 230.38266197199292,48.93657673278085 L 229.42595339108018,48.74627556405907 L 228.61489501902656,48.20434368574722 L 228.0729631407147,47.393285313693575 L 227.88266197199292,46.43657673278085 L 228.0729631407147,45.479868151868125 L 228.61489501902656,44.66880977981448 L 229.42595339108018,44.12687790150263 L 230.38266197199292,43.93657673278085 L 231.33937055290565,44.12687790150263 L 232.15042892495927,44.66880977981448 z M 434.1504289249593,96.66880977981448 L 434.69236080327113,97.47986815186813 L 434.8826619719929,98.43657673278085 L 434.69236080327113,99.39328531369357 L 434.1504289249593,100.20434368574722 L 433.3393705529056,100.74627556405906 L 432.3826619719929,100.93657673278085 L 431.42595339108016,100.74627556405906 L 430.61489501902656,100.20434368574722 L 430.0729631407147,99.39328531369358 L 429.8826619719929,98.43657673278085 L 430.0729631407147,97.47986815186813 L 430.61489501902656,96.66880977981448 L 431.42595339108016,96.12687790150264 L 432.3826619719929,95.93657673278085 L 433.3393705529056,96.12687790150264 L 434.1504289249593,96.66880977981448 z M 232.15042892495927,96.66880977981448 L 232.69236080327113,97.47986815186813 L 232.88266197199292,98.43657673278085 L 232.69236080327113,99.39328531369357 L 232.1504289249593,100.20434368574722 L 231.33937055290565,100.74627556405906 L 230.38266197199292,100.93657673278085 L 229.42595339108018,100.74627556405906 L 228.61489501902656,100.20434368574722 L 228.0729631407147,99.39328531369358 L 227.88266197199292,98.43657673278085 L 228.0729631407147,97.47986815186813 L 228.61489501902656,96.66880977981448 L 229.42595339108018,96.12687790150264 L 230.38266197199292,95.93657673278085 L 231.33937055290565,96.12687790150264 L 232.15042892495927,96.66880977981448 z M 421.4505760344929,43.32563923278085 L 421.0087635344929,43.40579548278085 L 420.7562947844929,43.93188923278085 L 421.7406697844929,46.52954548278085 L 421.26723228449293,46.52954548278085 L 420.5391072844929,44.42720173278085 L 419.8047322844929,46.52954548278085 L 419.36488853449293,46.52954548278085 L 420.6459510344929,43.22204548278085 L 421.3067791594929,42.88908454528085 L 421.4505760344929,43.32563923278085 z M 422.2235799407429,46.11697517028085 L 422.0331502532429,43.93657673278085 L 422.4925252532429,43.93657673278085 L 422.5800252532429,44.25610798278085 L 422.8667127532429,44.05126423278085 L 423.8449627532429,43.91135798278085 L 424.3846815032429,44.37879548278085 L 424.1073690032429,45.22095173278085 L 422.6167440032429,45.58188923278085 L 422.6944002532429,46.02523298278085 L 423.1131502532429,46.21813923278085 L 424.3456502532429,45.78970173278085 L 423.7644002532429,46.49595173278085 L 422.72486900324293,46.53813923278085 L 422.2235799407429,46.11697517028085 z M 418.1980916594929,44.29634235778085 L 417.5965291594929,44.30171735778085 L 417.21645103449293,44.77173298278085 L 416.7625447844929,44.71548298278085 L 416.9154744719929,44.36216267028085 L 417.8136854094929,43.88017829528085 L 418.8047322844929,44.22798298278085 L 419.1349588469929,45.33879548278085 L 418.7321150969929,46.29514704528085 L 417.8252322844929,46.58460017028085 L 417.0773885344929,46.23423298278085 L 416.7500447844929,45.12095173278085 L 418.6768650969929,45.03748298278085 L 418.1980916594929,44.29634235778085 z M 415.8200643157429,46.52954548278085 L 415.7603768157429,46.23935798278085 L 415.3773455657429,46.57401423278085 L 414.80678306574293,46.44673298278085 L 414.9583455657429,46.03892048278085 L 415.6535018157429,45.91926423278085 L 415.7763143157429,43.93657673278085 L 416.2153768157429,43.93657673278085 L 416.2153768157429,46.52954548278085 L 415.8200643157429,46.52954548278085 z M 412.1385213469929,43.87329548278085 L 412.9213338469929,44.15376423278085 L 413.27602134699293,44.88110798278085 L 412.8369588469929,44.93970173278085 L 412.7346150969929,44.61841267028085 L 412.07511509699293,44.23872517028085 L 411.4329275969929,44.74635798278085 L 411.6369432219929,45.52007673278085 L 412.4096150969929,45.63110798278085 L 412.3603963469929,46.01704548278085 L 411.61586509699293,46.34419392028085 L 411.7236775969929,47.01001423278085 L 412.3369275969929,47.14351423278085 L 412.7924275969929,46.52485798278085 L 413.2322713469929,46.60298298278085 L 412.7467088469929,47.37482673278085 L 411.7685213469929,47.46869392028085 L 411.1408650969929,46.83755329528085 L 411.1880525969929,46.25585798278085 L 411.6010213469929,45.87485798278085 L 411.0184041594929,45.42219392028085 L 410.9870213469929,44.64148298278085 L 411.4182713469929,44.08179548278085 L 412.1385213469929,43.87329548278085 z M 426.5428182219929,47.51548298278085 L 426.5428182219929,44.35923298278085 L 424.7803182219929,44.35923298278085 L 424.7803182219929,43.93657673278085 L 427.01625572199293,43.93657673278085 L 427.01625572199293,47.51548298278085 L 426.5428182219929,47.51548298278085 z M 317.22848228672285,90.1305201473881 L 317.2284349651479,90.13075804901072 L 317.0791946791252,90.49105597158339 L 317.07908734415764,90.49121660971427 L 316.8033272527108,90.76697670116117 L 316.8031666145799,90.76708403612865 L 316.4428686920072,90.9163243221514 L 316.4426307903846,90.91637164372636 L 316.24763824892756,90.93557673278086 L 314.5176856950583,90.93557673278086 L 314.3226931536012,90.91637164372636 L 314.3224552519786,90.9163243221514 L 313.96215732940595,90.76708403612865 L 313.9619966912751,90.76697670116117 L 313.68623659982813,90.49121660971427 L 313.6861292648607,90.49105597158339 L 313.53688897883796,90.13075804901072 L 313.536841657263,90.1305201473881 L 313.51773989818423,89.93657673278085 L 314.51663656820847,89.93657673278085 L 314.51663656820847,54.93657673278085 L 313.51773989818423,54.93657673278085 L 313.536841657263,54.742633318173624 L 313.53688897883796,54.74239541655099 L 313.6861292648663,54.382097493969894 L 313.6862365998338,54.38193685583901 L 313.96199669124985,54.10617676441738 L 313.9621573293807,54.106069429449896 L 314.3224552520137,53.956829143403326 L 314.32269315363624,53.95678182182839 L 314.5176856950583,53.937576732780855 L 316.24763824892756,53.937576732780855 L 316.44263079034965,53.95678182182839 L 316.44286869197214,53.956829143403326 L 316.8031666146051,54.106069429449896 L 316.803327252736,54.10617676441738 L 317.0790873441521,54.38193685583901 L 317.07919467911955,54.382097493969894 L 317.2284349651479,54.74239541655099 L 317.22848228672285,54.742633318173624 L 317.2475840458016,54.93657673278085 L 316.24868737577737,54.93657673278085 L 316.24868737577737,89.93657673278085 L 317.2475840458016,89.93657673278085 L 317.22848228672285,90.1305201473881 z M 267.2284822867229,90.13052014738795 L 267.2284349651479,90.13075804901072 L 267.0791946791251,90.49105597158345 L 267.07908734415764,90.49121660971427 L 266.8033272527276,90.7669767011499 L 266.80316661459676,90.76708403611741 L 266.4428686920003,90.9163243221528 L 266.4426307903777,90.91637164372776 L 266.2476382489276,90.93557673278086 L 264.5176856950583,90.93557673278086 L 264.32269315360816,90.91637164372776 L 264.3224552519856,90.9163243221528 L 263.96215732938913,90.76708403611741 L 263.96199669125815,90.7669767011499 L 263.68623659982813,90.49121660971427 L 263.6861292648607,90.49105597158345 L 263.5368889788379,90.13075804901072 L 263.5368416572629,90.13052014738795 L 263.51773989818423,89.93657673278085 L 264.51663656820847,89.93657673278085 L 264.51663656820847,54.93657673278085 L 263.51773989818423,54.93657673278085 L 263.5368416572629,54.742633318173766 L 263.5368889788379,54.74239541655099 L 263.6861292648663,54.382097493969894 L 263.6862365998338,54.38193685583898 L 263.961996691233,54.10617676442867 L 263.9621573293639,54.10606942946113 L 264.3224552520207,53.95682914340193 L 264.3226931536432,53.95678182182701 L 264.5176856950583,53.937576732780855 L 266.2476382489275,53.937576732780855 L 266.4426307903427,53.95678182182701 L 266.44286869196515,53.95682914340193 L 266.8031666146219,54.10606942946113 L 266.80332725275287,54.10617676442867 L 267.079087344152,54.38193685583898 L 267.0791946791195,54.382097493969894 L 267.2284349651479,54.74239541655099 L 267.2284822867229,54.742633318173766 L 267.24758404580166,54.93657673278085 L 266.24868737577737,54.93657673278085 L 266.24868737577737,89.93657673278085 L 267.24758404580166,89.93657673278085 L 267.2284822867229,90.13052014738795 z M 253.2284822867229,90.13052014738795 L 253.22843496514793,90.13075804901072 L 253.07919467912512,90.49105597158345 L 253.07908734415767,90.49121660971427 L 252.80332725272766,90.7669767011499 L 252.80316661459673,90.76708403611741 L 252.44286869200025,90.9163243221528 L 252.44263079037768,90.91637164372776 L 252.2476382489276,90.93557673278086 L 250.51768569505825,90.93557673278086 L 250.32269315360816,90.91637164372776 L 250.3224552519856,90.9163243221528 L 249.9621573293891,90.76708403611741 L 249.96199669125818,90.7669767011499 L 249.68623659982816,90.49121660971427 L 249.6861292648607,90.49105597158345 L 249.5368889788379,90.13075804901072 L 249.53684165726293,90.13052014738795 L 249.5177398981842,89.93657673278085 L 250.51663656820847,89.93657673278085 L 250.51663656820847,54.93657673278085 L 249.5177398981842,54.93657673278085 L 249.53684165726293,54.742633318173766 L 249.5368889788379,54.74239541655099 L 249.6861292648663,54.382097493969894 L 249.68623659983382,54.38193685583898 L 249.961996691233,54.10617676442867 L 249.96215732936392,54.10606942946113 L 250.3224552520207,53.95682914340193 L 250.32269315364314,53.95678182182701 L 250.5176856950583,53.937576732780855 L 252.24763824892753,53.937576732780855 L 252.4426307903427,53.95678182182701 L 252.44286869196515,53.95682914340193 L 252.80316661462192,54.10606942946113 L 252.80332725275284,54.10617676442867 L 253.07908734415201,54.38193685583898 L 253.07919467911952,54.382097493969894 L 253.22843496514793,54.74239541655099 L 253.2284822867229,54.742633318173766 L 253.24758404580163,54.93657673278085 L 252.24868737577737,54.93657673278085 L 252.24868737577737,89.93657673278085 L 253.24758404580163,89.93657673278085 L 253.2284822867229,90.13052014738795 z M 243.2284822867229,90.13052014738795 L 243.22843496514793,90.13075804901072 L 243.07919467912512,90.49105597158345 L 243.07908734415767,90.49121660971427 L 242.80332725272766,90.7669767011499 L 242.80316661459673,90.76708403611741 L 242.44286869200025,90.9163243221528 L 242.44263079037768,90.91637164372776 L 242.2476382489276,90.93557673278086 L 240.51768569505825,90.93557673278086 L 240.32269315360816,90.91637164372776 L 240.3224552519856,90.9163243221528 L 239.9621573293891,90.76708403611741 L 239.96199669125818,90.7669767011499 L 239.68623659982816,90.49121660971427 L 239.6861292648607,90.49105597158345 L 239.5368889788379,90.13075804901072 L 239.53684165726293,90.13052014738795 L 239.5177398981842,89.93657673278085 L 240.51663656820847,89.93657673278085 L 240.51663656820847,54.93657673278085 L 239.5177398981842,54.93657673278085 L 239.53684165726293,54.742633318173766 L 239.5368889788379,54.74239541655099 L 239.6861292648663,54.382097493969894 L 239.68623659983382,54.38193685583898 L 239.961996691233,54.10617676442867 L 239.96215732936392,54.10606942946113 L 240.3224552520207,53.95682914340193 L 240.32269315364314,53.95678182182701 L 240.5176856950583,53.937576732780855 L 242.24763824892753,53.937576732780855 L 242.4426307903427,53.95678182182701 L 242.44286869196515,53.95682914340193 L 242.80316661462192,54.10606942946113 L 242.80332725275284,54.10617676442867 L 243.07908734415201,54.38193685583898 L 243.07919467911952,54.382097493969894 L 243.22843496514793,54.74239541655099 L 243.2284822867229,54.742633318173766 L 243.24758404580163,54.93657673278085 L 242.24868737577737,54.93657673278085 L 242.24868737577737,89.93657673278085 L 243.24758404580163,89.93657673278085 L 243.2284822867229,90.13052014738795 z" /></g></g></svg>