<svg xmlns="http://www.w3.org/2000/svg" xmlns:xlink="http://www.w3.org/1999/xlink" width="300" height="300" viewBox="-0.27598625 -1.6898846875000002 17.3445975 5.9111834375" preserveAspectRatio="xMinYMin meet"><g transform="matrix(1,0,0,-1,0,2.5314140624999997)"><g><path fill-rule="evenodd" fill="#00FF00" stroke="#555555" stroke-width="0.11563064999999999" opacity="0.6" d="M 6.115429687500001,2.5929687500000003 L 6.8435546875,0.49062500000000003 L 7.5779296875,2.5929687500000003 L 8.0177734375,2.5929687500000003 L 6.736710937500002,-0.7145312500000001 L 6.075882812500001,-1.0474921875 L 5.932085937500001,-0.6109375 L 6.3738984375,-0.53078125 L 6.6263671875000005,-0.004687500000000001 L 5.6419921875000005,2.5929687500000003 L 6.115429687500001,2.5929687500000003 z" /><path fill-rule="evenodd" fill="#00FF00" stroke="#555555" stroke-width="0.11563064999999999" opacity="0.6" d="M 4.26951171875,2.2815625 L 3.03701171875,1.8531250000000001 L 3.6182617187500004,2.559375 L 4.65779296875,2.6015625000000004 L 5.15908203125,2.1803984375 L 5.3495117187500005,0.0 L 4.89013671875,0.0 L 4.8026367187500005,0.31953125000000004 L 4.51594921875,0.11468750000000003 L 3.5376992187500003,-0.025218749999999984 L 2.99798046875,0.44221875000000005 L 3.27529296875,1.284375 L 4.76591796875,1.6453125000000002 L 4.68826171875,2.08865625 L 4.26951171875,2.2815625 z" /><path fill-rule="evenodd" fill="#00FF00" stroke="#555555" stroke-width="0.11563064999999999" opacity="0.6" d="M 10.3052734375,2.29765625 L 10.632617187500001,1.184375 L 8.705796875,1.10090625 L 9.1845703125,0.35976562500000003 L 9.7861328125,0.365140625 L 10.1662109375,0.83515625 L 10.6201171875,0.77890625 L 10.467187500000001,0.4255859375 L 9.568976562500001,-0.056398437499999995 L 8.577929687500001,0.29140625000000003 L 8.247703125000001,1.4022187500000003 L 8.650546875,2.3585703125000004 L 9.5574296875,2.6480234375000005 L 10.3052734375,2.29765625 z" /><path fill-rule="evenodd" fill="#00FF00" stroke="#555555" stroke-width="0.11563064999999999" opacity="0.6" d="M 11.729160156250002,1.9826875000000002 L 11.606347656250001,0.0 L 11.167285156250001,0.0 L 11.167285156250001,2.5929687500000003 L 11.56259765625,2.5929687500000003 L 11.622285156250003,2.3027812500000007 L 12.00531640625,2.6374375000000003 L 12.57587890625,2.51015625 L 12.42431640625,2.10234375 L 11.729160156250002,1.9826875000000002 z" /><path fill-rule="evenodd" fill="#00FF00" stroke="#555555" stroke-width="0.11563064999999999" opacity="0.6" d="M 15.072703125000004,-0.04609375000000002 L 14.458203125,0.31015625 L 14.151265625,2.4375937500000004 L 14.849765625000002,3.5180937500000002 L 15.591046875,3.55184375 L 16.105726562500003,3.1856875000000002 L 16.42621875,1.4088984375 L 15.868710937500001,0.10992187500000003 L 15.072703125000004,-0.04609375000000002 z" /><path fill-rule="evenodd" fill="#00FF00" stroke="#555555" stroke-width="0.11563064999999999" opacity="0.6" d="M 0.36640625000000004,3.57890625 L 0.83984375,3.57890625 L 0.83984375,0.42265625 L 2.60234375,0.42265625 L 2.60234375,0.0 L 0.36640625000000004,0.0 L 0.36640625000000004,3.57890625 z" /></g></g></svg>