  0
SECTION
  2
HEADER
  9
$ACADVER
  1
AC1024
  9
$ACADMAINTVER
 70
6
  9
$DWGCODEPAGE
  3
ANSI_1252
  9
$LASTSAVEDBY
  1
ezdxf
  9
$INSBASE
 10
0.0
 20
0.0
 30
0.0
  9
$EXTMIN
 10
1e+20
 20
1e+20
 30
1e+20
  9
$EXTMAX
 10
-1e+20
 20
-1e+20
 30
-1e+20
  9
$LIMMIN
 10
0.0
 20
0.0
  9
$LIMMAX
 10
420.0
 20
297.0
  9
$ORTHOMODE
 70
0
  9
$REGENMODE
 70
1
  9
$FILLMODE
 70
1
  9
$QTEXTMODE
 70
0
  9
$MIRRTEXT
 70
1
  9
$LTSCALE
 40
1.0
  9
$ATTMODE
 70
1
  9
$TEXTSIZE
 40
2.5
  9
$TRACEWID
 40
1.0
  9
$TEXTSTYLE
  7
Standard
  9
$CLAYER
  8
0
  9
$CELTYPE
  6
ByLayer
  9
$CECOLOR
 62
256
  9
$CELTSCALE
 40
1.0
  9
$DISPSILH
 70
0
  9
$DIMSCALE
 40
1.0
  9
$DIMASZ
 40
2.5
  9
$DIMEXO
 40
0.625
  9
$DIMDLI
 40
3.75
  9
$DIMRND
 40
0.0
  9
$DIMDLE
 40
0.0
  9
$DIMEXE
 40
1.25
  9
$DIMTP
 40
0.0
  9
$DIMTM
 40
0.0
  9
$DIMTXT
 40
2.5
  9
$DIMCEN
 40
2.5
  9
$DIMTSZ
 40
0.0
  9
$DIMTOL
 70
0
  9
$DIMLIM
 70
0
  9
$DIMTIH
 70
0
  9
$DIMTOH
 70
0
  9
$DIMSE1
 70
0
  9
$DIMSE2
 70
0
  9
$DIMTAD
 70
1
  9
$DIMZIN
 70
8
  9
$DIMBLK
  1

  9
$DIMASO
 70
1
  9
$DIMSHO
 70
1
  9
$DIMPOST
  1

  9
$DIMAPOST
  1

  9
$DIMALT
 70
0
  9
$DIMALTD
 70
3
  9
$DIMALTF
 40
0.03937007874
  9
$DIMLFAC
 40
1.0
  9
$DIMTOFL
 70
1
  9
$DIMTVP
 40
0.0
  9
$DIMTIX
 70
0
  9
$DIMSOXD
 70
0
  9
$DIMSAH
 70
0
  9
$DIMBLK1
  1

  9
$DIMBLK2
  1

  9
$DIMSTYLE
  2
ISO-25
  9
$DIMCLRD
 70
0
  9
$DIMCLRE
 70
0
  9
$DIMCLRT
 70
0
  9
$DIMTFAC
 40
1.0
  9
$DIMGAP
 40
0.625
  9
$DIMJUST
 70
0
  9
$DIMSD1
 70
0
  9
$DIMSD2
 70
0
  9
$DIMTOLJ
 70
0
  9
$DIMTZIN
 70
8
  9
$DIMALTZ
 70
0
  9
$DIMALTTZ
 70
0
  9
$DIMUPT
 70
0
  9
$DIMDEC
 70
2
  9
$DIMTDEC
 70
2
  9
$DIMALTU
 70
2
  9
$DIMALTTD
 70
3
  9
$DIMTXSTY
  7
Standard
  9
$DIMAUNIT
 70
0
  9
$DIMADEC
 70
0
  9
$DIMALTRND
 40
0.0
  9
$DIMAZIN
 70
0
  9
$DIMDSEP
 70
44
  9
$DIMATFIT
 70
3
  9
$DIMFRAC
 70
0
  9
$DIMLDRBLK
  1

  9
$DIMLUNIT
 70
2
  9
$DIMLWD
 70
-2
  9
$DIMLWE
 70
-2
  9
$DIMTMOVE
 70
0
  9
$DIMFXL
 40
1.0
  9
$DIMFXLON
 70
0
  9
$DIMJOGANG
 40
0.785398163397
  9
$DIMTFILL
 70
0
  9
$DIMTFILLCLR
 70
0
  9
$DIMARCSYM
 70
0
  9
$DIMLTYPE
  6

  9
$DIMLTEX1
  6

  9
$DIMLTEX2
  6

  9
$DIMTXTDIRECTION
 70
0
  9
$LUNITS
 70
2
  9
$LUPREC
 70
4
  9
$SKETCHINC
 40
1.0
  9
$FILLETRAD
 40
10.0
  9
$AUNITS
 70
0
  9
$AUPREC
 70
2
  9
$MENU
  1
.
  9
$ELEVATION
 40
0.0
  9
$PELEVATION
 40
0.0
  9
$THICKNESS
 40
0.0
  9
$LIMCHECK
 70
0
  9
$CHAMFERA
 40
0.0
  9
$CHAMFERB
 40
0.0
  9
$CHAMFERC
 40
0.0
  9
$CHAMFERD
 40
0.0
  9
$SKPOLY
 70
0
  9
$TDCREATE
 40
2461012.5475578704
  9
$TDUCREATE
 40
2458532.153996898
  9
$TDUPDATE
 40
2461012.5475578704
  9
$TDUUPDATE
 40
2458532.1544311
  9
$TDINDWG
 40
0.0
  9
$TDUSRTIMER
 40
0.0
  9
$USRTIMER
 70
1
  9
$ANGBASE
 50
0.0
  9
$ANGDIR
 70
0
  9
$PDMODE
 70
0
  9
$PDSIZE
 40
0.0
  9
$PLINEWID
 40
0.0
  9
$SPLFRAME
 70
0
  9
$SPLINETYPE
 70
6
  9
$SPLINESEGS
 70
8
  9
$HANDSEED
  5
5A
  9
$SURFTAB1
 70
6
  9
$SURFTAB2
 70
6
  9
$SURFTYPE
 70
6
  9
$SURFU
 70
6
  9
$SURFV
 70
6
  9
$UCSBASE
  2

  9
$UCSNAME
  2

  9
$UCSORG
 10
0.0
 20
0.0
 30
0.0
  9
$UCSXDIR
 10
1.0
 20
0.0
 30
0.0
  9
$UCSYDIR
 10
0.0
 20
1.0
 30
0.0
  9
$UCSORTHOREF
  2

  9
$UCSORTHOVIEW
 70
0
  9
$UCSORGTOP
 10
0.0
 20
0.0
 30
0.0
  9
$UCSORGBOTTOM
 10
0.0
 20
0.0
 30
0.0
  9
$UCSORGLEFT
 10
0.0
 20
0.0
 30
0.0
  9
$UCSORGRIGHT
 10
0.0
 20
0.0
 30
0.0
  9
$UCSORGFRONT
 10
0.0
 20
0.0
 30
0.0
  9
$UCSORGBACK
 10
0.0
 20
0.0
 30
0.0
  9
$PUCSBASE
  2

  9
$PUCSNAME
  2

  9
$PUCSORG
 10
0.0
 20
0.0
 30
0.0
  9
$PUCSXDIR
 10
1.0
 20
0.0
 30
0.0
  9
$PUCSYDIR
 10
0.0
 20
1.0
 30
0.0
  9
$PUCSORTHOREF
  2

  9
$PUCSORTHOVIEW
 70
0
  9
$PUCSORGTOP
 10
0.0
 20
0.0
 30
0.0
  9
$PUCSORGBOTTOM
 10
0.0
 20
0.0
 30
0.0
  9
$PUCSORGLEFT
 10
0.0
 20
0.0
 30
0.0
  9
$PUCSORGRIGHT
 10
0.0
 20
0.0
 30
0.0
  9
$PUCSORGFRONT
 10
0.0
 20
0.0
 30
0.0
  9
$PUCSORGBACK
 10
0.0
 20
0.0
 30
0.0
  9
$USERI1
 70
0
  9
$USERI2
 70
0
  9
$USERI3
 70
0
  9
$USERI4
 70
0
  9
$USERI5
 70
0
  9
$USERR1
 40
0.0
  9
$USERR2
 40
0.0
  9
$USERR3
 40
0.0
  9
$USERR4
 40
0.0
  9
$USERR5
 40
0.0
  9
$WORLDVIEW
 70
1
  9
$SHADEDGE
 70
3
  9
$SHADEDIF
 70
70
  9
$TILEMODE
 70
1
  9
$MAXACTVP
 70
64
  9
$PINSBASE
 10
0.0
 20
0.0
 30
0.0
  9
$PLIMCHECK
 70
0
  9
$PEXTMIN
 10
1e+20
 20
1e+20
 30
1e+20
  9
$PEXTMAX
 10
-1e+20
 20
-1e+20
 30
-1e+20
  9
$PLIMMIN
 10
0.0
 20
0.0
  9
$PLIMMAX
 10
420.0
 20
297.0
  9
$UNITMODE
 70
0
  9
$VISRETAIN
 70
1
  9
$PLINEGEN
 70
0
  9
$PSLTSCALE
 70
1
  9
$TREEDEPTH
 70
3020
  9
$CMLSTYLE
  2
Standard
  9
$CMLJUST
 70
0
  9
$CMLSCALE
 40
20.0
  9
$PROXYGRAPHICS
 70
1
  9
$MEASUREMENT
 70
1
  9
$CELWEIGHT
370
-1
  9
$ENDCAPS
280
0
  9
$JOINSTYLE
280
0
  9
$LWDISPLAY
290
0
  9
$INSUNITS
 70
6
  9
$HYPERLINKBASE
  1

  9
$STYLESHEET
  1

  9
$XEDIT
290
1
  9
$CEPSNTYPE
380
0
  9
$PSTYLEMODE
290
1
  9
$FINGERPRINTGUID
  2
{1C171B96-EE60-44BB-A02E-8BDB1BAEE4FF}
  9
$VERSIONGUID
  2
{5E4B6ED0-7789-4E28-83D3-4C40BBAB81F4}
  9
$EXTNAMES
290
1
  9
$PSVPSCALE
 40
0.0
  9
$OLESTARTUP
290
0
  9
$SORTENTS
280
127
  9
$INDEXCTL
280
0
  9
$HIDETEXT
280
1
  9
$XCLIPFRAME
280
1
  9
$HALOGAP
280
0
  9
$OBSCOLOR
 70
257
  9
$OBSLTYPE
280
0
  9
$INTERSECTIONDISPLAY
280
0
  9
$INTERSECTIONCOLOR
 70
257
  9
$DIMASSOC
280
2
  9
$PROJECTNAME
  1

  9
$CAMERADISPLAY
290
0
  9
$LENSLENGTH
 40
50.0
  9
$CAMERAHEIGHT
 40
0.0
  9
$STEPSPERSEC
 40
24.0
  9
$STEPSIZE
 40
100.0
  9
$3DDWFPREC
 40
2.0
  9
$PSOLWIDTH
 40
0.005
  9
$PSOLHEIGHT
 40
0.08
  9
$LOFTANG1
 40
1.570796326795
  9
$LOFTANG2
 40
1.570796326795
  9
$LOFTMAG1
 40
0.0
  9
$LOFTMAG2
 40
0.0
  9
$LOFTPARAM
 70
7
  9
$LOFTNORMALS
280
1
  9
$LATITUDE
 40
37.795
  9
$LONGITUDE
 40
-122.394
  9
$NORTHDIRECTION
 40
0.0
  9
$TIMEZONE
 70
-8000
  9
$LIGHTGLYPHDISPLAY
280
1
  9
$TILEMODELIGHTSYNCH
280
1
  9
$CMATERIAL
347
20
  9
$SOLIDHIST
280
0
  9
$SHOWHIST
280
1
  9
$DWFFRAME
280
2
  9
$DGNFRAME
280
2
  9
$REALWORLDSCALE
290
1
  9
$INTERFERECOLOR
 62
256
  9
$CSHADOW
280
0
  9
$SHADOWPLANELOCATION
 40
0.0
  0
ENDSEC
  0
SECTION
  2
CLASSES
  0
CLASS
  1
ACDBDICTIONARYWDFLT
  2
AcDbDictionaryWithDefault
  3
ObjectDBX Classes
 90
0
 91
0
280
0
281
0
  0
CLASS
  1
SUN
  2
AcDbSun
  3
SCENEOE
 90
1153
 91
0
280
0
281
0
  0
CLASS
  1
VISUALSTYLE
  2
AcDbVisualStyle
  3
ObjectDBX Classes
 90
4095
 91
0
280
0
281
0
  0
CLASS
  1
MATERIAL
  2
AcDbMaterial
  3
ObjectDBX Classes
 90
1153
 91
0
280
0
281
0
  0
CLASS
  1
SCALE
  2
AcDbScale
  3
ObjectDBX Classes
 90
1153
 91
0
280
0
281
0
  0
CLASS
  1
TABLESTYLE
  2
AcDbTableStyle
  3
ObjectDBX Classes
 90
4095
 91
0
280
0
281
0
  0
CLASS
  1
MLEADERSTYLE
  2
AcDbMLeaderStyle
  3
ACDB_MLEADERSTYLE_CLASS
 90
4095
 91
0
280
0
281
0
  0
CLASS
  1
DICTIONARYVAR
  2
AcDbDictionaryVar
  3
ObjectDBX Classes
 90
0
 91
0
280
0
281
0
  0
CLASS
  1
CELLSTYLEMAP
  2
AcDbCellStyleMap
  3
ObjectDBX Classes
 90
1152
 91
0
280
0
281
0
  0
CLASS
  1
MENTALRAYRENDERSETTINGS
  2
AcDbMentalRayRenderSettings
  3
SCENEOE
 90
1024
 91
0
280
0
281
0
  0
CLASS
  1
ACDBDETAILVIEWSTYLE
  2
AcDbDetailViewStyle
  3
ObjectDBX Classes
 90
1025
 91
0
280
0
281
0
  0
CLASS
  1
ACDBSECTIONVIEWSTYLE
  2
AcDbSectionViewStyle
  3
ObjectDBX Classes
 90
1025
 91
0
280
0
281
0
  0
CLASS
  1
RASTERVARIABLES
  2
AcDbRasterVariables
  3
ISM
 90
0
 91
0
280
0
281
0
  0
CLASS
  1
ACDBPLACEHOLDER
  2
AcDbPlaceHolder
  3
ObjectDBX Classes
 90
0
 91
0
280
0
281
0
  0
CLASS
  1
LAYOUT
  2
AcDbLayout
  3
ObjectDBX Classes
 90
0
 91
0
280
0
281
0
  0
ENDSEC
  0
SECTION
  2
TABLES
  0
TABLE
  2
VPORT
  5
8
330
0
100
AcDbSymbolTable
 70
1
  0
VPORT
  5
23
330
8
100
AcDbSymbolTableRecord
100
AcDbViewportTableRecord
  2
*Active
 70
0
 10
0.0
 20
0.0
 11
1.0
 21
1.0
 12
0.0
 22
0.0
 13
0.0
 23
0.0
 14
0.5
 24
0.5
 15
0.5
 25
0.5
 16
0.0
 26
0.0
 36
1.0
 17
0.0
 27
0.0
 37
0.0
 40
1000.0
 41
1.34
 42
50.0
 43
0.0
 44
0.0
 50
0.0
 51
0.0
 71
0
 72
1000
 73
1
 74
3
 75
0
 76
0
 77
0
 78
0
281
0
 65
0
146
0.0
  0
ENDTAB
  0
TABLE
  2
LTYPE
  5
2
330
0
100
AcDbSymbolTable
 70
3
  0
LTYPE
  5
24
330
2
100
AcDbSymbolTableRecord
100
AcDbLinetypeTableRecord
  2
ByBlock
 70
0
  3

 72
65
 73
0
 40
0.0
  0
LTYPE
  5
25
330
2
100
AcDbSymbolTableRecord
100
AcDbLinetypeTableRecord
  2
ByLayer
 70
0
  3

 72
65
 73
0
 40
0.0
  0
LTYPE
  5
26
330
2
100
AcDbSymbolTableRecord
100
AcDbLinetypeTableRecord
  2
Continuous
 70
0
  3

 72
65
 73
0
 40
0.0
  0
ENDTAB
  0
TABLE
  2
LAYER
  5
1
330
0
100
AcDbSymbolTable
 70
2
  0
LAYER
  5
27
330
1
100
AcDbSymbolTableRecord
100
AcDbLayerTableRecord
  2
0
 70
0
 62
7
  6
Continuous
370
-3
390
13
347
21
  0
LAYER
  5
28
330
1
100
AcDbSymbolTableRecord
100
AcDbLayerTableRecord
  2
Defpoints
 70
0
 62
7
  6
Continuous
290
0
370
-3
390
13
347
21
  0
ENDTAB
  0
TABLE
  2
STYLE
  5
5
330
0
100
AcDbSymbolTable
 70
1
  0
STYLE
  5
29
330
5
100
AcDbSymbolTableRecord
100
AcDbTextStyleTableRecord
  2
Standard
 70
0
 40
0.0
 41
1.0
 50
0.0
 71
0
 42
2.5
  3
txt
  4

  0
ENDTAB
  0
TABLE
  2
VIEW
  5
7
330
0
100
AcDbSymbolTable
 70
0
  0
ENDTAB
  0
TABLE
  2
UCS
  5
6
330
0
100
AcDbSymbolTable
 70
0
  0
ENDTAB
  0
TABLE
  2
APPID
  5
3
330
0
100
AcDbSymbolTable
 70
3
  0
APPID
  5
2A
330
3
100
AcDbSymbolTableRecord
100
AcDbRegAppTableRecord
  2
ACAD
 70
0
  0
APPID
  5
57
330
3
100
AcDbSymbolTableRecord
100
AcDbRegAppTableRecord
  2
HATCHBACKGROUNDCOLOR
 70
0
  0
APPID
  5
58
330
3
100
AcDbSymbolTableRecord
100
AcDbRegAppTableRecord
  2
EZDXF
 70
0
  0
ENDTAB
  0
TABLE
  2
DIMSTYLE
  5
4
330
0
100
AcDbSymbolTable
 70
1
100
AcDbDimStyleTable
  0
DIMSTYLE
105
2B
330
4
100
AcDbSymbolTableRecord
100
AcDbDimStyleTableRecord
  2
Standard
 70
0
 40
1.0
 41
2.5
 42
0.625
 43
3.75
 44
1.25
 45
0.0
 46
0.0
 47
0.0
 48
0.0
 49
2.5
140
2.5
141
2.5
142
0.0
143
0.03937007874
144
1.0
145
0.0
146
1.0
147
0.625
148
0.0
 69
0
 70
0
 71
0
 72
0
 73
0
 74
0
 75
0
 76
0
 77
1
 78
8
 79
3
170
0
171
3
172
1
173
0
174
0
175
0
176
0
177
0
178
0
179
2
271
2
272
2
273
2
274
3
275
0
276
0
277
2
278
44
279
0
280
0
281
0
282
0
283
0
284
8
285
0
286
0
288
0
289
3
290
0
371
-2
372
-2
  0
ENDTAB
  0
TABLE
  2
BLOCK_RECORD
  5
9
330
0
100
AcDbSymbolTable
 70
2
  0
BLOCK_RECORD
  5
17
330
9
100
AcDbSymbolTableRecord
100
AcDbBlockTableRecord
  2
*Model_Space
340
1A
 70
0
280
1
281
0
  0
BLOCK_RECORD
  5
1B
330
9
100
AcDbSymbolTableRecord
100
AcDbBlockTableRecord
  2
*Paper_Space
340
1E
 70
0
280
1
281
0
  0
ENDTAB
  0
ENDSEC
  0
SECTION
  2
BLOCKS
  0
BLOCK
  5
18
330
17
100
AcDbEntity
  8
0
100
AcDbBlockBegin
  2
*Model_Space
 70
0
 10
0.0
 20
0.0
 30
0.0
  3
*Model_Space
  1

  0
ENDBLK
  5
19
330
17
100
AcDbEntity
  8
0
100
AcDbBlockEnd
  0
BLOCK
  5
1C
330
1B
100
AcDbEntity
  8
0
100
AcDbBlockBegin
  2
*Paper_Space
 70
0
 10
0.0
 20
0.0
 30
0.0
  3
*Paper_Space
  1

  0
ENDBLK
  5
1D
330
1B
100
AcDbEntity
  8
0
100
AcDbBlockEnd
  0
ENDSEC
  0
SECTION
  2
ENTITIES
  0
LWPOLYLINE
  5
2F
330
17
100
AcDbEntity
  8
0
100
AcDbPolyline
 90
5
 70
0
 10
-13.540896440103994
 20
110.74442953681314
 10
213.0748091679606
 20
110.74442953681314
 10
213.0748091679606
 20
34.12872392874854
 10
-13.540896440103994
 20
34.12872392874854
 10
-13.540896440103994
 20
110.74442953681314
  0
LWPOLYLINE
  5
30
330
17
100
AcDbEntity
  8
0
100
AcDbPolyline
 90
47
 70
0
 10
7.902037926191295
 20
54.93657673278085
 10
7.921139685265698
 20
54.74263331819551
 10
7.9211870068406505
 20
54.742395416572926
 10
8.070427292883902
 20
54.38209749395417
 10
8.070534627851396
 20
54.381936855823284
 10
8.346294719248558
 20
54.10617676442299
 10
8.346455357379407
 20
54.106069429455516
 10
8.70675328002165
 20
53.95682914340315
 10
8.706991181644158
 20
53.956781821828216
 10
8.901983723065385
 20
53.937576732780855
 10
10.631936276934614
 20
53.937576732780855
 10
10.82692881835584
 20
53.956781821828216
 10
10.827166719978349
 20
53.95682914340315
 10
11.187464642620592
 20
54.106069429455516
 10
11.18762528075144
 20
54.10617676442299
 10
11.463385372148602
 20
54.381936855823284
 10
11.463492707116096
 20
54.38209749395417
 10
11.61273299315935
 20
54.742395416572926
 10
11.612780314734298
 20
54.74263331819549
 10
11.6318820738087
 20
54.93657673278085
 10
10.632980775646795
 20
54.93657673278085
 10
10.632985403784438
 20
54.9366
 10
10.632985403784438
 20
89.93657673278085
 10
11.631882073808702
 20
89.93657673278085
 10
11.612780314734296
 20
90.13052014736624
 10
11.612732993159353
 20
90.13075804898878
 10
11.463492707121704
 20
90.49105597159917
 10
11.463385372154228
 20
90.49121660973003
 10
11.187625280726268
 20
90.76697670115556
 10
11.18746464259541
 20
90.76708403612302
 10
10.827166720013429
 20
90.91632432215157
 10
10.826928818390796
 20
90.91637164372654
 10
10.63193627693466
 20
90.93557673278086
 10
8.901983723065339
 20
90.93557673278086
 10
8.706991181609203
 20
90.91637164372654
 10
8.70675327998657
 20
90.91632432215157
 10
8.346455357404588
 20
90.76708403612302
 10
8.34629471927373
 20
90.76697670115556
 10
8.07053462784577
 20
90.49121660973003
 10
8.070427292878295
 20
90.49105597159917
 10
7.921187006840646
 20
90.13075804898878
 10
7.9211396852656994
 20
90.13052014736623
 10
7.902037926191294
 20
89.93657673278085
 10
8.90093459621556
 20
89.93657673278085
 10
8.90093459621556
 20
54.9366
 10
8.900939224353204
 20
54.93657673278085
 10
7.902037926191295
 20
54.93657673278085
  0
LWPOLYLINE
  5
31
330
17
100
AcDbEntity
  8
0
100
AcDbPolyline
 90
45
 70
0
 10
21.92113604919489
 20
54.7426333181911
 10
21.921183370769832
 20
54.742395416568556
 10
22.070423656814334
 20
54.38209749395101
 10
22.07053099178181
 20
54.38193685582014
 10
22.34629108317267
 20
54.106176764425804
 10
22.34645172130353
 20
54.10606942945832
 10
22.706749643950843
 20
53.95682914340298
 10
22.706987545573348
 20
53.956781821828045
 10
22.9019800869937
 20
53.937576732780855
 10
24.63193264086294
 20
53.937576732780855
 10
24.82692518228329
 20
53.956781821828045
 10
24.827163083905795
 20
53.95682914340298
 10
25.187461006553107
 20
54.10606942945832
 10
25.18762164468397
 20
54.106176764425804
 10
25.46338173607483
 20
54.38193685582014
 10
25.463489071042304
 20
54.38209749395101
 10
25.612729357086806
 20
54.742395416568556
 10
25.61277667866175
 20
54.7426333181911
 10
25.631878437737022
 20
54.93657673278085
 10
24.632981767712756
 20
54.93657673278085
 10
24.632981767712756
 20
89.93657673278085
 10
25.631878437737022
 20
89.93657673278085
 10
25.61277667866175
 20
90.1305201473706
 10
25.612729357086803
 20
90.13075804899317
 10
25.463489071047942
 20
90.49105597160226
 10
25.463381736080425
 20
90.49121660973319
 10
25.187621644658797
 20
90.76697670115274
 10
25.187461006527926
 20
90.76708403612022
 10
24.827163083940874
 20
90.91632432215175
 10
24.82692518231825
 20
90.91637164372672
 10
24.63193264086298
 20
90.93557673278086
 10
22.901980086993657
 20
90.93557673278086
 10
22.70698754553839
 20
90.91637164372672
 10
22.706749643915764
 20
90.91632432215175
 10
22.346451721328712
 20
90.76708403612022
 10
22.34629108319784
 20
90.76697670115274
 10
22.070530991776213
 20
90.49121660973319
 10
22.070423656808696
 20
90.49105597160226
 10
21.921183370769835
 20
90.13075804899317
 10
21.92113604919489
 20
90.1305201473706
 10
21.902034290119616
 20
89.93657673278085
 10
22.90093096014388
 20
89.93657673278085
 10
22.90093096014388
 20
54.93657673278085
 10
21.902034290119616
 20
54.93657673278085
 10
21.92113604919489
 20
54.7426333181911
  0
LWPOLYLINE
  5
32
330
17
100
AcDbEntity
  8
0
100
AcDbPolyline
 90
45
 70
0
 10
45.921136049191425
 20
54.74263331820858
 10
45.92118337076636
 20
54.74239541658608
 10
46.070423656818555
 20
54.3820974939447
 10
46.07053099178603
 20
54.38193685581384
 10
46.34629108317687
 20
54.106176764423
 10
46.34645172130773
 20
54.10606942945552
 10
46.70674964394911
 20
53.956829143403326
 10
46.706987545571614
 20
53.95678182182839
 10
46.90198008699371
 20
53.937576732780855
 10
48.631932640862935
 20
53.937576732780855
 10
48.82692518228503
 20
53.95678182182839
 10
48.827163083907536
 20
53.956829143403326
 10
49.187461006548915
 20
54.10606942945552
 10
49.18762164467977
 20
54.106176764423
 10
49.463381736070616
 20
54.38193685581384
 10
49.46348907103809
 20
54.3820974939447
 10
49.61272935709029
 20
54.74239541658608
 10
49.61277667866522
 20
54.74263331820858
 10
49.63187843773703
 20
54.93657673278085
 10
48.632981767712764
 20
54.93657673278085
 10
48.632981767712764
 20
89.93657673278085
 10
49.63187843773703
 20
89.93657673278085
 10
49.61277667866522
 20
90.13052014735312
 10
49.61272935709029
 20
90.13075804897565
 10
49.46348907104372
 20
90.4910559716086
 10
49.46338173607624
 20
90.49121660973947
 10
49.187621644654605
 20
90.76697670115554
 10
49.18746100652372
 20
90.76708403612304
 10
48.82716308394262
 20
90.9163243221514
 10
48.82692518231999
 20
90.91637164372636
 10
48.631932640862985
 20
90.93557673278086
 10
46.90198008699366
 20
90.93557673278086
 10
46.706987545536656
 20
90.91637164372636
 10
46.70674964391402
 20
90.9163243221514
 10
46.346451721332926
 20
90.76708403612304
 10
46.34629108320204
 20
90.76697670115554
 10
46.07053099178041
 20
90.49121660973947
 10
46.07042365681293
 20
90.4910559716086
 10
45.92118337076636
 20
90.13075804897565
 10
45.921136049191425
 20
90.13052014735312
 10
45.902034290119616
 20
89.93657673278085
 10
46.90093096014388
 20
89.93657673278085
 10
46.90093096014388
 20
54.93657673278085
 10
45.902034290119616
 20
54.93657673278085
 10
45.921136049191425
 20
54.74263331820858
  0
LWPOLYLINE
  5
33
330
17
100
AcDbEntity
  8
0
100
AcDbPolyline
 90
45
 70
0
 10
59.92118337076636
 20
54.74239541658608
 10
60.070423656818555
 20
54.3820974939447
 10
60.07053099178603
 20
54.38193685581384
 10
60.34629108317687
 20
54.106176764423
 10
60.34645172130773
 20
54.10606942945552
 10
60.70674964394911
 20
53.956829143403326
 10
60.706987545571614
 20
53.95678182182839
 10
60.90198008699371
 20
53.937576732780855
 10
62.631932640862935
 20
53.937576732780855
 10
62.82692518228503
 20
53.95678182182839
 10
62.827163083907536
 20
53.956829143403326
 10
63.187461006548915
 20
54.10606942945552
 10
63.18762164467977
 20
54.106176764423
 10
63.463381736070616
 20
54.38193685581384
 10
63.46348907103809
 20
54.3820974939447
 10
63.61272935709029
 20
54.74239541658608
 10
63.61277667866522
 20
54.74263331820858
 10
63.63187843773703
 20
54.93657673278085
 10
62.632981767712764
 20
54.93657673278085
 10
62.632981767712764
 20
89.93657673278085
 10
63.63187843773703
 20
89.93657673278085
 10
63.61277667866522
 20
90.13052014735312
 10
63.61272935709029
 20
90.13075804897565
 10
63.46348907104372
 20
90.4910559716086
 10
63.46338173607624
 20
90.49121660973947
 10
63.187621644654605
 20
90.76697670115554
 10
63.18746100652372
 20
90.76708403612304
 10
62.82716308394262
 20
90.9163243221514
 10
62.82692518231999
 20
90.91637164372636
 10
62.631932640862985
 20
90.93557673278086
 10
60.90198008699366
 20
90.93557673278086
 10
60.706987545536656
 20
90.91637164372636
 10
60.70674964391402
 20
90.9163243221514
 10
60.346451721332926
 20
90.76708403612304
 10
60.34629108320204
 20
90.76697670115554
 10
60.07053099178041
 20
90.49121660973947
 10
60.07042365681293
 20
90.4910559716086
 10
59.92118337076636
 20
90.13075804897565
 10
59.921136049191425
 20
90.13052014735312
 10
59.902034290119616
 20
89.93657673278085
 10
60.90093096014388
 20
89.93657673278085
 10
60.90093096014388
 20
54.93657673278085
 10
59.902034290119616
 20
54.93657673278085
 10
59.921136049191425
 20
54.74263331820858
 10
59.92118337076636
 20
54.74239541658608
  0
LWPOLYLINE
  5
34
330
17
100
AcDbEntity
  8
0
100
AcDbPolyline
 90
45
 70
0
 10
99.92118337077332
 20
54.74239541655099
 10
100.07042365680168
 20
54.382097493969894
 10
100.07053099176917
 20
54.38193685583901
 10
100.34629108318525
 20
54.10617676441738
 10
100.34645172131611
 20
54.106069429449896
 10
100.70674964394907
 20
53.956829143403326
 10
100.7069875455716
 20
53.95678182182839
 10
100.90198008699367
 20
53.937576732780855
 10
102.63193264086293
 20
53.937576732780855
 10
102.82692518228501
 20
53.95678182182839
 10
102.82716308390754
 20
53.956829143403326
 10
103.18746100654049
 20
54.106069429449896
 10
103.18762164467135
 20
54.10617676441738
 10
103.46338173608743
 20
54.38193685583901
 10
103.46348907105492
 20
54.382097493969894
 10
103.61272935708328
 20
54.74239541655099
 10
103.61277667865825
 20
54.742633318173624
 10
103.631878437737
 20
54.93657673278085
 10
102.63298176771274
 20
54.93657673278085
 10
102.63298176771274
 20
89.93657673278085
 10
103.631878437737
 20
89.93657673278085
 10
103.61277667865825
 20
90.1305201473881
 10
103.61272935708328
 20
90.13075804901072
 10
103.46348907106054
 20
90.49105597158339
 10
103.46338173609305
 20
90.49121660971427
 10
103.18762164464616
 20
90.76697670116117
 10
103.18746100651528
 20
90.76708403612865
 10
102.82716308394261
 20
90.9163243221514
 10
102.82692518231998
 20
90.91637164372636
 10
102.63193264086296
 20
90.93557673278086
 10
100.90198008699365
 20
90.93557673278086
 10
100.70698754553662
 20
90.91637164372636
 10
100.706749643914
 20
90.9163243221514
 10
100.34645172134132
 20
90.76708403612865
 10
100.34629108321045
 20
90.76697670116117
 10
100.07053099176355
 20
90.49121660971427
 10
100.07042365679607
 20
90.49105597158339
 10
99.92118337077332
 20
90.13075804901072
 10
99.92113604919835
 20
90.1305201473881
 10
99.9020342901196
 20
89.93657673278085
 10
100.90093096014387
 20
89.93657673278085
 10
100.90093096014387
 20
54.93657673278085
 10
99.9020342901196
 20
54.93657673278085
 10
99.92113604919835
 20
54.742633318173624
 10
99.92118337077332
 20
54.74239541655099
  0
LWPOLYLINE
  5
35
330
17
100
AcDbEntity
  8
0
100
AcDbPolyline
 90
17
 70
0
 10
0.5347233168946808
 20
44.66880977981448
 10
1.0766551952065289
 20
45.479868151868125
 10
1.266956363928312
 20
46.43657673278085
 10
1.076655195206528
 20
47.393285313693575
 10
0.5347233168946803
 20
48.20434368574722
 10
-0.27633505515896306
 20
48.74627556405907
 10
-1.2330436360716885
 20
48.93657673278085
 10
-2.189752216984414
 20
48.74627556405907
 10
-3.0008105890380574
 20
48.20434368574722
 10
-3.542742467349905
 20
47.393285313693575
 10
-3.733043636071688
 20
46.43657673278085
 10
-3.542742467349905
 20
45.479868151868125
 10
-3.000810589038057
 20
44.66880977981448
 10
-2.189752216984412
 20
44.12687790150263
 10
-1.2330436360716879
 20
43.93657673278085
 10
-0.2763350551589635
 20
44.12687790150263
 10
0.5347233168946808
 20
44.66880977981448
  0
LWPOLYLINE
  5
36
330
17
100
AcDbEntity
  8
0
100
AcDbPolyline
 90
17
 70
0
 10
202.53472331689466
 20
44.66880977981448
 10
203.0766551952065
 20
45.479868151868125
 10
203.2669563639283
 20
46.43657673278085
 10
203.0766551952065
 20
47.393285313693575
 10
202.53472331689466
 20
48.20434368574722
 10
201.72366494484103
 20
48.74627556405907
 10
200.7669563639283
 20
48.93657673278085
 10
199.81024778301557
 20
48.74627556405907
 10
198.99918941096192
 20
48.20434368574722
 10
198.4572575326501
 20
47.393285313693575
 10
198.2669563639283
 20
46.43657673278085
 10
198.4572575326501
 20
45.479868151868125
 10
198.99918941096195
 20
44.66880977981448
 10
199.81024778301557
 20
44.12687790150263
 10
200.7669563639283
 20
43.93657673278085
 10
201.72366494484103
 20
44.12687790150263
 10
202.53472331689466
 20
44.66880977981448
  0
LWPOLYLINE
  5
37
330
17
100
AcDbEntity
  8
0
100
AcDbPolyline
 90
17
 70
0
 10
0.5347233168946808
 20
96.66880977981448
 10
1.0766551952065289
 20
97.47986815186813
 10
1.266956363928312
 20
98.43657673278085
 10
1.076655195206528
 20
99.39328531369358
 10
0.5347233168946803
 20
100.20434368574722
 10
-0.27633505515896306
 20
100.74627556405906
 10
-1.2330436360716885
 20
100.93657673278085
 10
-2.189752216984414
 20
100.74627556405906
 10
-3.0008105890380574
 20
100.20434368574722
 10
-3.542742467349905
 20
99.39328531369357
 10
-3.733043636071688
 20
98.43657673278085
 10
-3.542742467349905
 20
97.47986815186813
 10
-3.000810589038057
 20
96.66880977981448
 10
-2.189752216984412
 20
96.12687790150264
 10
-1.2330436360716879
 20
95.93657673278085
 10
-0.2763350551589635
 20
96.12687790150264
 10
0.5347233168946808
 20
96.66880977981448
  0
LWPOLYLINE
  5
38
330
17
100
AcDbEntity
  8
0
100
AcDbPolyline
 90
17
 70
0
 10
202.53472331689466
 20
96.66880977981448
 10
203.0766551952065
 20
97.47986815186813
 10
203.2669563639283
 20
98.43657673278085
 10
203.0766551952065
 20
99.39328531369358
 10
202.53472331689466
 20
100.20434368574722
 10
201.72366494484103
 20
100.74627556405906
 10
200.7669563639283
 20
100.93657673278085
 10
199.81024778301557
 20
100.74627556405906
 10
198.99918941096192
 20
100.20434368574722
 10
198.4572575326501
 20
99.39328531369357
 10
198.2669563639283
 20
98.43657673278085
 10
198.4572575326501
 20
97.47986815186813
 10
198.99918941096195
 20
96.66880977981448
 10
199.81024778301557
 20
96.12687790150264
 10
200.7669563639283
 20
95.93657673278085
 10
201.72366494484103
 20
96.12687790150264
 10
202.53472331689466
 20
96.66880977981448
  0
LWPOLYLINE
  5
39
330
17
100
AcDbEntity
  8
0
100
AcDbPolyline
 90
11
 70
0
 10
11.344886051428311
 20
46.52954548278085
 10
10.610511051428311
 20
44.42720173278085
 10
9.882386051428313
 20
46.52954548278085
 10
9.408948551428313
 20
46.52954548278085
 10
10.393323551428313
 20
43.93188923278085
 10
10.140854801428311
 20
43.40579548278085
 10
9.699042301428314
 20
43.32563923278085
 10
9.842839176428313
 20
42.88908454528085
 10
10.503667301428314
 20
43.22204548278085
 10
11.784729801428313
 20
46.52954548278085
 10
11.344886051428311
 20
46.52954548278085
  0
LWPOLYLINE
  5
3A
330
17
100
AcDbEntity
  8
0
100
AcDbPolyline
 90
15
 70
0
 10
8.036468082678311
 20
46.21813923278085
 10
8.45521808267831
 20
46.02523298278085
 10
8.532874332678311
 20
45.58188923278085
 10
7.0422493326783115
 20
45.22095173278085
 10
6.764936832678312
 20
44.37879548278085
 10
7.304655582678312
 20
43.91135798278085
 10
8.282905582678312
 20
44.05126423278085
 10
8.569593082678313
 20
44.25610798278085
 10
8.657093082678312
 20
43.93657673278085
 10
9.116468082678313
 20
43.93657673278085
 10
8.926038395178312
 20
46.11697517028085
 10
8.424749332678312
 20
46.53813923278085
 10
7.385218082678312
 20
46.49595173278085
 10
6.8039680826783115
 20
45.78970173278085
 10
8.036468082678311
 20
46.21813923278085
  0
LWPOLYLINE
  5
3B
330
17
100
AcDbEntity
  8
0
100
AcDbPolyline
 90
14
 70
0
 10
13.324386051428313
 20
46.58460017028085
 10
12.417503238928312
 20
46.29514704528085
 10
12.014659488928313
 20
45.33879548278085
 10
12.344886051428313
 20
44.22798298278085
 10
13.335932926428313
 20
43.88017829528085
 10
14.234143863928313
 20
44.36216267028085
 10
14.387073551428312
 20
44.71548298278085
 10
13.933167301428313
 20
44.77173298278085
 10
13.553089176428312
 20
44.30171735778085
 10
12.951526676428312
 20
44.29634235778085
 10
12.472753238928313
 20
45.03748298278085
 10
14.399573551428313
 20
45.12095173278085
 10
14.072229801428312
 20
46.23423298278085
 10
13.324386051428313
 20
46.58460017028085
  0
LWPOLYLINE
  5
3C
330
17
100
AcDbEntity
  8
0
100
AcDbPolyline
 90
10
 70
0
 10
15.496116520178314
 20
45.91926423278085
 10
16.191272770178312
 20
46.03892048278085
 10
16.342835270178313
 20
46.44673298278085
 10
15.772272770178311
 20
46.57401423278085
 10
15.389241520178315
 20
46.23935798278085
 10
15.329554020178312
 20
46.52954548278085
 10
14.934241520178313
 20
46.52954548278085
 10
14.934241520178313
 20
43.93657673278085
 10
15.373304020178313
 20
43.93657673278085
 10
15.496116520178314
 20
45.91926423278085
  0
LWPOLYLINE
  5
3D
330
17
100
AcDbEntity
  8
0
100
AcDbPolyline
 90
9
 70
0
 10
17.918221988928313
 20
46.37417048278085
 10
18.225159488928313
 20
44.24673298278085
 10
18.839659488928316
 20
43.89048298278085
 10
19.635667301428313
 20
44.04649860778085
 10
20.193175113928312
 20
45.34547517028085
 10
19.872682926428315
 20
47.12226423278085
 10
19.358003238928312
 20
47.48842048278085
 10
18.61672198892831
 20
47.45467048278085
 10
17.918221988928313
 20
46.37417048278085
  0
LWPOLYLINE
  5
3E
330
17
100
AcDbEntity
  8
0
100
AcDbPolyline
 90
7
 70
0
 10
6.369300113928312
 20
43.93657673278085
 10
6.369300113928312
 20
44.35923298278085
 10
4.606800113928312
 20
44.35923298278085
 10
4.606800113928312
 20
47.51548298278085
 10
4.133362613928312
 20
47.51548298278085
 10
4.133362613928312
 20
43.93657673278085
 10
6.369300113928312
 20
43.93657673278085
  0
LWPOLYLINE
  5
3F
330
17
100
AcDbEntity
  8
0
100
AcDbPolyline
 90
45
 70
0
 10
113.92113604919835
 20
54.742633318173624
 10
113.92118337077332
 20
54.74239541655099
 10
114.07042365680168
 20
54.382097493969894
 10
114.07053099176917
 20
54.38193685583901
 10
114.34629108318525
 20
54.10617676441738
 10
114.34645172131611
 20
54.106069429449896
 10
114.70674964394907
 20
53.956829143403326
 10
114.7069875455716
 20
53.95678182182839
 10
114.90198008699367
 20
53.937576732780855
 10
116.63193264086293
 20
53.937576732780855
 10
116.82692518228501
 20
53.95678182182839
 10
116.82716308390754
 20
53.956829143403326
 10
117.18746100654049
 20
54.106069429449896
 10
117.18762164467135
 20
54.10617676441738
 10
117.46338173608743
 20
54.38193685583901
 10
117.46348907105492
 20
54.382097493969894
 10
117.61272935708328
 20
54.74239541655099
 10
117.61277667865825
 20
54.742633318173624
 10
117.631878437737
 20
54.93657673278085
 10
116.63298176771274
 20
54.93657673278085
 10
116.63298176771274
 20
89.93657673278085
 10
117.631878437737
 20
89.93657673278085
 10
117.61277667865825
 20
90.1305201473881
 10
117.61272935708328
 20
90.13075804901072
 10
117.46348907106054
 20
90.49105597158339
 10
117.46338173609305
 20
90.49121660971427
 10
117.18762164464616
 20
90.76697670116117
 10
117.18746100651528
 20
90.76708403612865
 10
116.82716308394261
 20
90.9163243221514
 10
116.82692518231998
 20
90.91637164372636
 10
116.63193264086296
 20
90.93557673278086
 10
114.90198008699365
 20
90.93557673278086
 10
114.70698754553662
 20
90.91637164372636
 10
114.706749643914
 20
90.9163243221514
 10
114.34645172134132
 20
90.76708403612865
 10
114.34629108321045
 20
90.76697670116117
 10
114.07053099176355
 20
90.49121660971427
 10
114.07042365679607
 20
90.49105597158339
 10
113.92118337077332
 20
90.13075804901072
 10
113.92113604919835
 20
90.1305201473881
 10
113.9020342901196
 20
89.93657673278085
 10
114.90093096014387
 20
89.93657673278085
 10
114.90093096014387
 20
54.93657673278085
 10
113.9020342901196
 20
54.93657673278085
 10
113.92113604919835
 20
54.742633318173624
  0
LWPOLYLINE
  5
40
330
17
100
AcDbEntity
  8
0
100
AcDbPolyline
 90
45
 70
0
 10
163.9211360491983
 20
54.742633318173766
 10
163.9211833707733
 20
54.74239541655099
 10
164.0704236568017
 20
54.382097493969894
 10
164.0705309917692
 20
54.38193685583898
 10
164.34629108316838
 20
54.10617676442867
 10
164.3464517212993
 20
54.10606942946113
 10
164.70674964395607
 20
53.95682914340193
 10
164.70698754557853
 20
53.95678182182701
 10
164.9019800869937
 20
53.937576732780855
 10
166.6319326408629
 20
53.937576732780855
 10
166.82692518227807
 20
53.95678182182701
 10
166.82716308390053
 20
53.95682914340193
 10
167.1874610065573
 20
54.10606942946113
 10
167.18762164468822
 20
54.10617676442867
 10
167.4633817360874
 20
54.38193685583898
 10
167.4634890710549
 20
54.382097493969894
 10
167.6127293570833
 20
54.74239541655099
 10
167.6127766786583
 20
54.742633318173766
 10
167.63187843773702
 20
54.93657673278085
 10
166.63298176771275
 20
54.93657673278085
 10
166.63298176771275
 20
89.93657673278085
 10
167.63187843773702
 20
89.93657673278085
 10
167.6127766786583
 20
90.13052014738795
 10
167.6127293570833
 20
90.13075804901072
 10
167.4634890710605
 20
90.49105597158345
 10
167.46338173609305
 20
90.49121660971427
 10
167.18762164466304
 20
90.7669767011499
 10
167.18746100653212
 20
90.76708403611741
 10
166.82716308393563
 20
90.9163243221528
 10
166.82692518231306
 20
90.91637164372776
 10
166.63193264086297
 20
90.93557673278086
 10
164.90198008699363
 20
90.93557673278086
 10
164.70698754554354
 20
90.91637164372776
 10
164.70674964392097
 20
90.9163243221528
 10
164.34645172132448
 20
90.76708403611741
 10
164.34629108319356
 20
90.7669767011499
 10
164.07053099176355
 20
90.49121660971427
 10
164.0704236567961
 20
90.49105597158345
 10
163.9211833707733
 20
90.13075804901072
 10
163.9211360491983
 20
90.13052014738795
 10
163.9020342901196
 20
89.93657673278085
 10
164.90093096014385
 20
89.93657673278085
 10
164.90093096014385
 20
54.93657673278085
 10
163.9020342901196
 20
54.93657673278085
 10
163.9211360491983
 20
54.742633318173766
  0
LWPOLYLINE
  5
41
330
17
100
AcDbEntity
  8
0
100
AcDbPolyline
 90
45
 70
0
 10
177.9211360491983
 20
54.742633318173766
 10
177.9211833707733
 20
54.74239541655099
 10
178.0704236568017
 20
54.382097493969894
 10
178.0705309917692
 20
54.38193685583898
 10
178.34629108316838
 20
54.10617676442867
 10
178.3464517212993
 20
54.10606942946113
 10
178.70674964395607
 20
53.95682914340193
 10
178.70698754557853
 20
53.95678182182701
 10
178.9019800869937
 20
53.937576732780855
 10
180.6319326408629
 20
53.937576732780855
 10
180.82692518227807
 20
53.95678182182701
 10
180.82716308390053
 20
53.95682914340193
 10
181.1874610065573
 20
54.10606942946113
 10
181.18762164468822
 20
54.10617676442867
 10
181.4633817360874
 20
54.38193685583898
 10
181.4634890710549
 20
54.382097493969894
 10
181.6127293570833
 20
54.74239541655099
 10
181.6127766786583
 20
54.742633318173766
 10
181.63187843773702
 20
54.93657673278085
 10
180.63298176771275
 20
54.93657673278085
 10
180.63298176771275
 20
89.93657673278085
 10
181.63187843773702
 20
89.93657673278085
 10
181.6127766786583
 20
90.13052014738795
 10
181.6127293570833
 20
90.13075804901072
 10
181.4634890710605
 20
90.49105597158345
 10
181.46338173609305
 20
90.49121660971427
 10
181.18762164466304
 20
90.7669767011499
 10
181.18746100653212
 20
90.76708403611741
 10
180.82716308393563
 20
90.9163243221528
 10
180.82692518231306
 20
90.91637164372776
 10
180.63193264086297
 20
90.93557673278086
 10
178.90198008699363
 20
90.93557673278086
 10
178.70698754554354
 20
90.91637164372776
 10
178.70674964392097
 20
90.9163243221528
 10
178.34645172132448
 20
90.76708403611741
 10
178.34629108319356
 20
90.7669767011499
 10
178.07053099176355
 20
90.49121660971427
 10
178.0704236567961
 20
90.49105597158345
 10
177.9211833707733
 20
90.13075804901072
 10
177.9211360491983
 20
90.13052014738795
 10
177.9020342901196
 20
89.93657673278085
 10
178.90093096014385
 20
89.93657673278085
 10
178.90093096014385
 20
54.93657673278085
 10
177.9020342901196
 20
54.93657673278085
 10
177.9211360491983
 20
54.742633318173766
  0
LWPOLYLINE
  5
42
330
17
100
AcDbEntity
  8
0
100
AcDbPolyline
 90
45
 70
0
 10
187.9211833707733
 20
54.74239541655099
 10
188.0704236568017
 20
54.382097493969894
 10
188.0705309917692
 20
54.38193685583898
 10
188.34629108316838
 20
54.10617676442867
 10
188.3464517212993
 20
54.10606942946113
 10
188.70674964395607
 20
53.95682914340193
 10
188.70698754557853
 20
53.95678182182701
 10
188.9019800869937
 20
53.937576732780855
 10
190.6319326408629
 20
53.937576732780855
 10
190.82692518227807
 20
53.95678182182701
 10
190.82716308390053
 20
53.95682914340193
 10
191.1874610065573
 20
54.10606942946113
 10
191.18762164468822
 20
54.10617676442867
 10
191.4633817360874
 20
54.38193685583898
 10
191.4634890710549
 20
54.382097493969894
 10
191.6127293570833
 20
54.74239541655099
 10
191.6127766786583
 20
54.742633318173766
 10
191.63187843773702
 20
54.93657673278085
 10
190.63298176771275
 20
54.93657673278085
 10
190.63298176771275
 20
89.93657673278085
 10
191.63187843773702
 20
89.93657673278085
 10
191.6127766786583
 20
90.13052014738795
 10
191.6127293570833
 20
90.13075804901072
 10
191.4634890710605
 20
90.49105597158345
 10
191.46338173609305
 20
90.49121660971427
 10
191.18762164466304
 20
90.7669767011499
 10
191.18746100653212
 20
90.76708403611741
 10
190.82716308393563
 20
90.9163243221528
 10
190.82692518231306
 20
90.91637164372776
 10
190.63193264086297
 20
90.93557673278086
 10
188.90198008699363
 20
90.93557673278086
 10
188.70698754554354
 20
90.91637164372776
 10
188.70674964392097
 20
90.9163243221528
 10
188.34645172132448
 20
90.76708403611741
 10
188.34629108319356
 20
90.7669767011499
 10
188.07053099176355
 20
90.49121660971427
 10
188.0704236567961
 20
90.49105597158345
 10
187.9211833707733
 20
90.13075804901072
 10
187.9211360491983
 20
90.13052014738795
 10
187.9020342901196
 20
89.93657673278085
 10
188.90093096014385
 20
89.93657673278085
 10
188.90093096014385
 20
54.93657673278085
 10
187.9020342901196
 20
54.93657673278085
 10
187.9211360491983
 20
54.742633318173766
 10
187.9211833707733
 20
54.74239541655099
  0
LWPOLYLINE
  5
43
330
17
100
AcDbEntity
  8
0
100
AcDbPolyline
 90
5
 70
0
 10
218.0748091679606
 20
110.74442953681314
 10
444.6905147760252
 20
110.74442953681314
 10
444.6905147760252
 20
34.12872392874854
 10
218.0748091679606
 20
34.12872392874854
 10
218.0748091679606
 20
110.74442953681314
  0
LWPOLYLINE
  5
44
330
17
100
AcDbEntity
  8
0
100
AcDbPolyline
 90
47
 70
0
 10
239.5177435342559
 20
54.93657673278085
 10
239.53684529333032
 20
54.74263331819551
 10
239.53689261490527
 20
54.742395416572926
 10
239.6861329009485
 20
54.38209749395417
 10
239.68624023591602
 20
54.381936855823284
 10
239.96200032731318
 20
54.10617676442299
 10
239.962160965444
 20
54.106069429455516
 10
240.32245888808626
 20
53.95682914340315
 10
240.32269678970877
 20
53.956781821828216
 10
240.51768933113
 20
53.937576732780855
 10
242.24764188499924
 20
53.937576732780855
 10
242.44263442642045
 20
53.956781821828216
 10
242.44287232804297
 20
53.95682914340315
 10
242.8031702506852
 20
54.106069429455516
 10
242.80333088881605
 20
54.10617676442299
 10
243.0790909802132
 20
54.381936855823284
 10
243.07919831518072
 20
54.38209749395417
 10
243.22843860122396
 20
54.742395416572926
 10
243.2284859227989
 20
54.74263331819549
 10
243.2475876818733
 20
54.93657673278085
 10
242.2486863837114
 20
54.93657673278085
 10
242.24869101184905
 20
54.9366
 10
242.24869101184905
 20
89.93657673278085
 10
243.2475876818733
 20
89.93657673278085
 10
243.2284859227989
 20
90.13052014736624
 10
243.22843860122396
 20
90.13075804898878
 10
243.07919831518632
 20
90.49105597159917
 10
243.07909098021884
 20
90.49121660973003
 10
242.8033308887909
 20
90.76697670115556
 10
242.80317025066003
 20
90.76708403612302
 10
242.44287232807804
 20
90.91632432215157
 10
242.4426344264554
 20
90.91637164372654
 10
242.24764188499927
 20
90.93557673278086
 10
240.51768933112996
 20
90.93557673278086
 10
240.3226967896738
 20
90.91637164372654
 10
240.3224588880512
 20
90.91632432215157
 10
239.9621609654692
 20
90.76708403612302
 10
239.96200032733836
 20
90.76697670115556
 10
239.6862402359104
 20
90.49121660973003
 10
239.6861329009429
 20
90.49105597159917
 10
239.53689261490527
 20
90.13075804898878
 10
239.53684529333032
 20
90.13052014736623
 10
239.5177435342559
 20
89.93657673278085
 10
240.51664020428018
 20
89.93657673278085
 10
240.51664020428018
 20
54.9366
 10
240.51664483241782
 20
54.93657673278085
 10
239.5177435342559
 20
54.93657673278085
  0
LWPOLYLINE
  5
45
330
17
100
AcDbEntity
  8
0
100
AcDbPolyline
 90
45
 70
0
 10
253.53684165725952
 20
54.7426333181911
 10
253.53688897883444
 20
54.742395416568556
 10
253.68612926487896
 20
54.38209749395101
 10
253.68623659984644
 20
54.38193685582014
 10
253.9619966912373
 20
54.106176764425804
 10
253.96215732936815
 20
54.10606942945832
 10
254.32245525201546
 20
53.95682914340298
 10
254.32269315363797
 20
53.956781821828045
 10
254.5176856950583
 20
53.937576732780855
 10
256.24763824892756
 20
53.937576732780855
 10
256.4426307903479
 20
53.956781821828045
 10
256.44286869197043
 20
53.95682914340298
 10
256.80316661461774
 20
54.10606942945832
 10
256.8033272527486
 20
54.106176764425804
 10
257.07908734413945
 20
54.38193685582014
 10
257.07919467910693
 20
54.38209749395101
 10
257.22843496515145
 20
54.742395416568556
 10
257.2284822867264
 20
54.7426333181911
 10
257.24758404580166
 20
54.93657673278085
 10
256.24868737577737
 20
54.93657673278085
 10
256.24868737577737
 20
89.93657673278085
 10
257.24758404580166
 20
89.93657673278085
 10
257.2284822867264
 20
90.1305201473706
 10
257.2284349651514
 20
90.13075804899317
 10
257.07919467911256
 20
90.49105597160226
 10
257.079087344145
 20
90.49121660973319
 10
256.8033272527234
 20
90.76697670115274
 10
256.80316661459256
 20
90.76708403612022
 10
256.4428686920055
 20
90.91632432215175
 10
256.44263079038285
 20
90.91637164372672
 10
256.2476382489276
 20
90.93557673278086
 10
254.51768569505828
 20
90.93557673278086
 10
254.322693153603
 20
90.91637164372672
 10
254.3224552519804
 20
90.91632432215175
 10
253.96215732939334
 20
90.76708403612022
 10
253.96199669126247
 20
90.76697670115274
 10
253.68623659984084
 20
90.49121660973319
 10
253.6861292648733
 20
90.49105597160226
 10
253.53688897883444
 20
90.13075804899317
 10
253.53684165725952
 20
90.1305201473706
 10
253.51773989818423
 20
89.93657673278085
 10
254.5166365682085
 20
89.93657673278085
 10
254.5166365682085
 20
54.93657673278085
 10
253.51773989818423
 20
54.93657673278085
 10
253.53684165725952
 20
54.7426333181911
  0
LWPOLYLINE
  5
46
330
17
100
AcDbEntity
  8
0
100
AcDbPolyline
 90
45
 70
0
 10
277.53684165725605
 20
54.74263331820858
 10
277.536888978831
 20
54.74239541658608
 10
277.68612926488316
 20
54.3820974939447
 10
277.68623659985064
 20
54.38193685581384
 10
277.9619966912415
 20
54.106176764423
 10
277.96215732937236
 20
54.10606942945552
 10
278.3224552520137
 20
53.956829143403326
 10
278.32269315363624
 20
53.95678182182839
 10
278.51768569505833
 20
53.937576732780855
 10
280.24763824892756
 20
53.937576732780855
 10
280.44263079034965
 20
53.95678182182839
 10
280.44286869197214
 20
53.956829143403326
 10
280.80316661461353
 20
54.10606942945552
 10
280.8033272527444
 20
54.106176764423
 10
281.07908734413525
 20
54.38193685581384
 10
281.0791946791027
 20
54.3820974939447
 10
281.2284349651549
 20
54.74239541658608
 10
281.22848228672984
 20
54.74263331820858
 10
281.24758404580166
 20
54.93657673278085
 10
280.24868737577737
 20
54.93657673278085
 10
280.24868737577737
 20
89.93657673278085
 10
281.24758404580166
 20
89.93657673278085
 10
281.22848228672984
 20
90.13052014735312
 10
281.2284349651549
 20
90.13075804897565
 10
281.07919467910835
 20
90.4910559716086
 10
281.0790873441409
 20
90.49121660973947
 10
280.8033272527192
 20
90.76697670115554
 10
280.80316661458835
 20
90.76708403612304
 10
280.4428686920072
 20
90.9163243221514
 10
280.4426307903846
 20
90.91637164372636
 10
280.2476382489276
 20
90.93557673278086
 10
278.5176856950583
 20
90.93557673278086
 10
278.3226931536013
 20
90.91637164372636
 10
278.3224552519786
 20
90.9163243221514
 10
277.96215732939754
 20
90.76708403612304
 10
277.9619966912667
 20
90.76697670115554
 10
277.686236599845
 20
90.49121660973947
 10
277.68612926487754
 20
90.4910559716086
 10
277.536888978831
 20
90.13075804897565
 10
277.53684165725605
 20
90.13052014735312
 10
277.51773989818423
 20
89.93657673278085
 10
278.51663656820847
 20
89.93657673278085
 10
278.51663656820847
 20
54.93657673278085
 10
277.51773989818423
 20
54.93657673278085
 10
277.53684165725605
 20
54.74263331820858
  0
LWPOLYLINE
  5
47
330
17
100
AcDbEntity
  8
0
100
AcDbPolyline
 90
45
 70
0
 10
291.536888978831
 20
54.74239541658608
 10
291.68612926488316
 20
54.3820974939447
 10
291.68623659985064
 20
54.38193685581384
 10
291.9619966912415
 20
54.106176764423
 10
291.96215732937236
 20
54.10606942945552
 10
292.3224552520137
 20
53.956829143403326
 10
292.32269315363624
 20
53.95678182182839
 10
292.51768569505833
 20
53.937576732780855
 10
294.24763824892756
 20
53.937576732780855
 10
294.44263079034965
 20
53.95678182182839
 10
294.44286869197214
 20
53.956829143403326
 10
294.80316661461353
 20
54.10606942945552
 10
294.8033272527444
 20
54.106176764423
 10
295.07908734413525
 20
54.38193685581384
 10
295.0791946791027
 20
54.3820974939447
 10
295.2284349651549
 20
54.74239541658608
 10
295.22848228672984
 20
54.74263331820858
 10
295.24758404580166
 20
54.93657673278085
 10
294.24868737577737
 20
54.93657673278085
 10
294.24868737577737
 20
89.93657673278085
 10
295.24758404580166
 20
89.93657673278085
 10
295.22848228672984
 20
90.13052014735312
 10
295.2284349651549
 20
90.13075804897565
 10
295.07919467910835
 20
90.4910559716086
 10
295.0790873441409
 20
90.49121660973947
 10
294.8033272527192
 20
90.76697670115554
 10
294.80316661458835
 20
90.76708403612304
 10
294.4428686920072
 20
90.9163243221514
 10
294.4426307903846
 20
90.91637164372636
 10
294.2476382489276
 20
90.93557673278086
 10
292.5176856950583
 20
90.93557673278086
 10
292.3226931536013
 20
90.91637164372636
 10
292.3224552519786
 20
90.9163243221514
 10
291.96215732939754
 20
90.76708403612304
 10
291.9619966912667
 20
90.76697670115554
 10
291.686236599845
 20
90.49121660973947
 10
291.68612926487754
 20
90.4910559716086
 10
291.536888978831
 20
90.13075804897565
 10
291.53684165725605
 20
90.13052014735312
 10
291.51773989818423
 20
89.93657673278085
 10
292.51663656820847
 20
89.93657673278085
 10
292.51663656820847
 20
54.93657673278085
 10
291.51773989818423
 20
54.93657673278085
 10
291.53684165725605
 20
54.74263331820858
 10
291.536888978831
 20
54.74239541658608
  0
LWPOLYLINE
  5
48
330
17
100
AcDbEntity
  8
0
100
AcDbPolyline
 90
45
 70
0
 10
331.53688897883796
 20
54.74239541655099
 10
331.6861292648663
 20
54.382097493969894
 10
331.6862365998338
 20
54.38193685583901
 10
331.96199669124985
 20
54.10617676441738
 10
331.9621573293807
 20
54.106069429449896
 10
332.3224552520137
 20
53.956829143403326
 10
332.32269315363624
 20
53.95678182182839
 10
332.5176856950583
 20
53.937576732780855
 10
334.24763824892756
 20
53.937576732780855
 10
334.44263079034965
 20
53.95678182182839
 10
334.44286869197214
 20
53.956829143403326
 10
334.8031666146051
 20
54.106069429449896
 10
334.803327252736
 20
54.10617676441738
 10
335.0790873441521
 20
54.38193685583901
 10
335.07919467911955
 20
54.382097493969894
 10
335.2284349651479
 20
54.74239541655099
 10
335.22848228672285
 20
54.742633318173624
 10
335.2475840458016
 20
54.93657673278085
 10
334.24868737577737
 20
54.93657673278085
 10
334.24868737577737
 20
89.93657673278085
 10
335.2475840458016
 20
89.93657673278085
 10
335.22848228672285
 20
90.1305201473881
 10
335.2284349651479
 20
90.13075804901072
 10
335.0791946791252
 20
90.49105597158339
 10
335.07908734415764
 20
90.49121660971427
 10
334.8033272527108
 20
90.76697670116117
 10
334.8031666145799
 20
90.76708403612865
 10
334.4428686920072
 20
90.9163243221514
 10
334.4426307903846
 20
90.91637164372636
 10
334.24763824892756
 20
90.93557673278086
 10
332.5176856950583
 20
90.93557673278086
 10
332.3226931536012
 20
90.91637164372636
 10
332.3224552519786
 20
90.9163243221514
 10
331.96215732940595
 20
90.76708403612865
 10
331.9619966912751
 20
90.76697670116117
 10
331.68623659982813
 20
90.49121660971427
 10
331.6861292648607
 20
90.49105597158339
 10
331.53688897883796
 20
90.13075804901072
 10
331.536841657263
 20
90.1305201473881
 10
331.51773989818423
 20
89.93657673278085
 10
332.51663656820847
 20
89.93657673278085
 10
332.51663656820847
 20
54.93657673278085
 10
331.51773989818423
 20
54.93657673278085
 10
331.536841657263
 20
54.742633318173624
 10
331.53688897883796
 20
54.74239541655099
  0
LWPOLYLINE
  5
49
330
17
100
AcDbEntity
  8
0
100
AcDbPolyline
 90
17
 70
0
 10
232.1504289249593
 20
44.66880977981448
 10
232.69236080327116
 20
45.479868151868125
 10
232.88266197199292
 20
46.43657673278085
 10
232.69236080327116
 20
47.393285313693575
 10
232.1504289249593
 20
48.20434368574722
 10
231.33937055290565
 20
48.74627556405907
 10
230.38266197199292
 20
48.93657673278085
 10
229.4259533910802
 20
48.74627556405907
 10
228.61489501902656
 20
48.20434368574722
 10
228.0729631407147
 20
47.393285313693575
 10
227.88266197199292
 20
46.43657673278085
 10
228.0729631407147
 20
45.479868151868125
 10
228.61489501902656
 20
44.66880977981448
 10
229.4259533910802
 20
44.12687790150263
 10
230.38266197199292
 20
43.93657673278085
 10
231.33937055290565
 20
44.12687790150263
 10
232.1504289249593
 20
44.66880977981448
  0
LWPOLYLINE
  5
4A
330
17
100
AcDbEntity
  8
0
100
AcDbPolyline
 90
17
 70
0
 10
434.1504289249593
 20
44.66880977981448
 10
434.69236080327113
 20
45.479868151868125
 10
434.8826619719929
 20
46.43657673278085
 10
434.69236080327113
 20
47.393285313693575
 10
434.1504289249593
 20
48.20434368574722
 10
433.3393705529056
 20
48.74627556405907
 10
432.3826619719929
 20
48.93657673278085
 10
431.42595339108016
 20
48.74627556405907
 10
430.61489501902656
 20
48.20434368574722
 10
430.0729631407147
 20
47.393285313693575
 10
429.8826619719929
 20
46.43657673278085
 10
430.0729631407147
 20
45.479868151868125
 10
430.61489501902656
 20
44.66880977981448
 10
431.42595339108016
 20
44.12687790150263
 10
432.3826619719929
 20
43.93657673278085
 10
433.3393705529056
 20
44.12687790150263
 10
434.1504289249593
 20
44.66880977981448
  0
LWPOLYLINE
  5
4B
330
17
100
AcDbEntity
  8
0
100
AcDbPolyline
 90
17
 70
0
 10
232.1504289249593
 20
96.66880977981448
 10
232.69236080327116
 20
97.47986815186813
 10
232.88266197199292
 20
98.43657673278085
 10
232.69236080327116
 20
99.39328531369358
 10
232.1504289249593
 20
100.20434368574722
 10
231.33937055290565
 20
100.74627556405906
 10
230.38266197199292
 20
100.93657673278085
 10
229.4259533910802
 20
100.74627556405906
 10
228.61489501902656
 20
100.20434368574722
 10
228.0729631407147
 20
99.39328531369357
 10
227.88266197199292
 20
98.43657673278085
 10
228.0729631407147
 20
97.47986815186813
 10
228.61489501902656
 20
96.66880977981448
 10
229.4259533910802
 20
96.12687790150264
 10
230.38266197199292
 20
95.93657673278085
 10
231.33937055290565
 20
96.12687790150264
 10
232.1504289249593
 20
96.66880977981448
  0
LWPOLYLINE
  5
4C
330
17
100
AcDbEntity
  8
0
100
AcDbPolyline
 90
17
 70
0
 10
434.1504289249593
 20
96.66880977981448
 10
434.69236080327113
 20
97.47986815186813
 10
434.8826619719929
 20
98.43657673278085
 10
434.69236080327113
 20
99.39328531369358
 10
434.1504289249593
 20
100.20434368574722
 10
433.3393705529056
 20
100.74627556405906
 10
432.3826619719929
 20
100.93657673278085
 10
431.42595339108016
 20
100.74627556405906
 10
430.61489501902656
 20
100.20434368574722
 10
430.0729631407147
 20
99.39328531369357
 10
429.8826619719929
 20
98.43657673278085
 10
430.0729631407147
 20
97.47986815186813
 10
430.61489501902656
 20
96.66880977981448
 10
431.42595339108016
 20
96.12687790150264
 10
432.3826619719929
 20
95.93657673278085
 10
433.3393705529056
 20
96.12687790150264
 10
434.1504289249593
 20
96.66880977981448
  0
LWPOLYLINE
  5
4D
330
17
100
AcDbEntity
  8
0
100
AcDbPolyline
 90
11
 70
0
 10
242.96059165949293
 20
46.52954548278085
 10
242.22621665949293
 20
44.42720173278085
 10
241.49809165949293
 20
46.52954548278085
 10
241.02465415949294
 20
46.52954548278085
 10
242.00902915949294
 20
43.93188923278085
 10
241.75656040949292
 20
43.40579548278085
 10
241.31474790949292
 20
43.32563923278085
 10
241.45854478449291
 20
42.88908454528085
 10
242.11937290949294
 20
43.22204548278085
 10
243.40043540949293
 20
46.52954548278085
 10
242.96059165949293
 20
46.52954548278085
  0
LWPOLYLINE
  5
4E
330
17
100
AcDbEntity
  8
0
100
AcDbPolyline
 90
15
 70
0
 10
239.65217369074293
 20
46.21813923278085
 10
240.07092369074292
 20
46.02523298278085
 10
240.14857994074293
 20
45.58188923278085
 10
238.65795494074294
 20
45.22095173278085
 10
238.38064244074292
 20
44.37879548278085
 10
238.92036119074294
 20
43.91135798278085
 10
239.89861119074294
 20
44.05126423278085
 10
240.18529869074294
 20
44.25610798278085
 10
240.27279869074292
 20
43.93657673278085
 10
240.73217369074294
 20
43.93657673278085
 10
240.54174400324294
 20
46.11697517028085
 10
240.04045494074293
 20
46.53813923278085
 10
239.00092369074292
 20
46.49595173278085
 10
238.41967369074294
 20
45.78970173278085
 10
239.65217369074293
 20
46.21813923278085
  0
LWPOLYLINE
  5
4F
330
17
100
AcDbEntity
  8
0
100
AcDbPolyline
 90
14
 70
0
 10
244.94009165949294
 20
46.58460017028085
 10
244.03320884699292
 20
46.29514704528085
 10
243.63036509699293
 20
45.33879548278085
 10
243.96059165949293
 20
44.22798298278085
 10
244.95163853449293
 20
43.88017829528085
 10
245.84984947199294
 20
44.36216267028085
 10
246.00277915949292
 20
44.71548298278085
 10
245.54887290949293
 20
44.77173298278085
 10
245.16879478449292
 20
44.30171735778085
 10
244.56723228449292
 20
44.29634235778085
 10
244.08845884699292
 20
45.03748298278085
 10
246.01527915949293
 20
45.12095173278085
 10
245.68793540949292
 20
46.23423298278085
 10
244.94009165949294
 20
46.58460017028085
  0
LWPOLYLINE
  5
50
330
17
100
AcDbEntity
  8
0
100
AcDbPolyline
 90
10
 70
0
 10
247.11182212824292
 20
45.91926423278085
 10
247.80697837824292
 20
46.03892048278085
 10
247.95854087824293
 20
46.44673298278085
 10
247.38797837824293
 20
46.57401423278085
 10
247.00494712824292
 20
46.23935798278085
 10
246.94525962824292
 20
46.52954548278085
 10
246.54994712824293
 20
46.52954548278085
 10
246.54994712824293
 20
43.93657673278085
 10
246.98900962824294
 20
43.93657673278085
 10
247.11182212824292
 20
45.91926423278085
  0
LWPOLYLINE
  5
51
330
17
100
AcDbEntity
  8
0
100
AcDbPolyline
 90
7
 70
0
 10
237.98500572199293
 20
44.35923298278085
 10
236.22250572199292
 20
44.35923298278085
 10
236.22250572199292
 20
47.51548298278085
 10
235.74906822199293
 20
47.51548298278085
 10
235.74906822199293
 20
43.93657673278085
 10
237.98500572199293
 20
43.93657673278085
 10
237.98500572199293
 20
44.35923298278085
  0
LWPOLYLINE
  5
52
330
17
100
AcDbEntity
  8
0
100
AcDbPolyline
 90
12
 70
0
 10
251.33461509699293
 20
44.79360798278085
 10
251.81820884699292
 20
44.79360798278085
 10
251.81820884699292
 20
45.19673298278085
 10
251.33461509699293
 20
45.19673298278085
 10
251.33461509699293
 20
47.51548298278085
 10
250.97602134699292
 20
47.51548298278085
 10
249.34242759699293
 20
45.19673298278085
 10
249.34242759699293
 20
44.79360798278085
 10
250.89555259699293
 20
44.79360798278085
 10
250.89555259699293
 20
43.93657673278085
 10
251.33461509699293
 20
43.93657673278085
 10
251.33461509699293
 20
44.79360798278085
  0
LWPOLYLINE
  5
53
330
17
100
AcDbEntity
  8
0
100
AcDbPolyline
 90
45
 70
0
 10
345.536841657263
 20
54.742633318173624
 10
345.53688897883796
 20
54.74239541655099
 10
345.6861292648663
 20
54.382097493969894
 10
345.6862365998338
 20
54.38193685583901
 10
345.96199669124985
 20
54.10617676441738
 10
345.9621573293807
 20
54.106069429449896
 10
346.3224552520137
 20
53.956829143403326
 10
346.32269315363624
 20
53.95678182182839
 10
346.5176856950583
 20
53.937576732780855
 10
348.24763824892756
 20
53.937576732780855
 10
348.44263079034965
 20
53.95678182182839
 10
348.44286869197214
 20
53.956829143403326
 10
348.8031666146051
 20
54.106069429449896
 10
348.803327252736
 20
54.10617676441738
 10
349.0790873441521
 20
54.38193685583901
 10
349.07919467911955
 20
54.382097493969894
 10
349.2284349651479
 20
54.74239541655099
 10
349.22848228672285
 20
54.742633318173624
 10
349.2475840458016
 20
54.93657673278085
 10
348.24868737577737
 20
54.93657673278085
 10
348.24868737577737
 20
89.93657673278085
 10
349.2475840458016
 20
89.93657673278085
 10
349.22848228672285
 20
90.1305201473881
 10
349.2284349651479
 20
90.13075804901072
 10
349.0791946791252
 20
90.49105597158339
 10
349.07908734415764
 20
90.49121660971427
 10
348.8033272527108
 20
90.76697670116117
 10
348.8031666145799
 20
90.76708403612865
 10
348.4428686920072
 20
90.9163243221514
 10
348.4426307903846
 20
90.91637164372636
 10
348.24763824892756
 20
90.93557673278086
 10
346.5176856950583
 20
90.93557673278086
 10
346.3226931536012
 20
90.91637164372636
 10
346.3224552519786
 20
90.9163243221514
 10
345.96215732940595
 20
90.76708403612865
 10
345.9619966912751
 20
90.76697670116117
 10
345.68623659982813
 20
90.49121660971427
 10
345.6861292648607
 20
90.49105597158339
 10
345.53688897883796
 20
90.13075804901072
 10
345.536841657263
 20
90.1305201473881
 10
345.51773989818423
 20
89.93657673278085
 10
346.51663656820847
 20
89.93657673278085
 10
346.51663656820847
 20
54.93657673278085
 10
345.51773989818423
 20
54.93657673278085
 10
345.536841657263
 20
54.742633318173624
  0
LWPOLYLINE
  5
54
330
17
100
AcDbEntity
  8
0
100
AcDbPolyline
 90
45
 70
0
 10
395.5368416572629
 20
54.742633318173766
 10
395.5368889788379
 20
54.74239541655099
 10
395.6861292648663
 20
54.382097493969894
 10
395.6862365998338
 20
54.38193685583898
 10
395.961996691233
 20
54.10617676442867
 10
395.9621573293639
 20
54.10606942946113
 10
396.3224552520207
 20
53.95682914340193
 10
396.3226931536432
 20
53.95678182182701
 10
396.5176856950583
 20
53.937576732780855
 10
398.2476382489275
 20
53.937576732780855
 10
398.4426307903427
 20
53.95678182182701
 10
398.44286869196515
 20
53.95682914340193
 10
398.8031666146219
 20
54.10606942946113
 10
398.80332725275287
 20
54.10617676442867
 10
399.079087344152
 20
54.38193685583898
 10
399.0791946791195
 20
54.382097493969894
 10
399.2284349651479
 20
54.74239541655099
 10
399.2284822867229
 20
54.742633318173766
 10
399.24758404580166
 20
54.93657673278085
 10
398.24868737577737
 20
54.93657673278085
 10
398.24868737577737
 20
89.93657673278085
 10
399.24758404580166
 20
89.93657673278085
 10
399.2284822867229
 20
90.13052014738795
 10
399.2284349651479
 20
90.13075804901072
 10
399.0791946791251
 20
90.49105597158345
 10
399.07908734415764
 20
90.49121660971427
 10
398.8033272527276
 20
90.7669767011499
 10
398.80316661459676
 20
90.76708403611741
 10
398.4428686920003
 20
90.9163243221528
 10
398.4426307903777
 20
90.91637164372776
 10
398.2476382489276
 20
90.93557673278086
 10
396.5176856950583
 20
90.93557673278086
 10
396.32269315360816
 20
90.91637164372776
 10
396.3224552519856
 20
90.9163243221528
 10
395.96215732938913
 20
90.76708403611741
 10
395.96199669125815
 20
90.7669767011499
 10
395.68623659982813
 20
90.49121660971427
 10
395.6861292648607
 20
90.49105597158345
 10
395.5368889788379
 20
90.13075804901072
 10
395.5368416572629
 20
90.13052014738795
 10
395.51773989818423
 20
89.93657673278085
 10
396.51663656820847
 20
89.93657673278085
 10
396.51663656820847
 20
54.93657673278085
 10
395.51773989818423
 20
54.93657673278085
 10
395.5368416572629
 20
54.742633318173766
  0
LWPOLYLINE
  5
55
330
17
100
AcDbEntity
  8
0
100
AcDbPolyline
 90
45
 70
0
 10
409.5368416572629
 20
54.742633318173766
 10
409.5368889788379
 20
54.74239541655099
 10
409.6861292648663
 20
54.382097493969894
 10
409.6862365998338
 20
54.38193685583898
 10
409.961996691233
 20
54.10617676442867
 10
409.9621573293639
 20
54.10606942946113
 10
410.3224552520207
 20
53.95682914340193
 10
410.3226931536432
 20
53.95678182182701
 10
410.5176856950583
 20
53.937576732780855
 10
412.2476382489275
 20
53.937576732780855
 10
412.4426307903427
 20
53.95678182182701
 10
412.44286869196515
 20
53.95682914340193
 10
412.8031666146219
 20
54.10606942946113
 10
412.80332725275287
 20
54.10617676442867
 10
413.079087344152
 20
54.38193685583898
 10
413.0791946791195
 20
54.382097493969894
 10
413.2284349651479
 20
54.74239541655099
 10
413.2284822867229
 20
54.742633318173766
 10
413.24758404580166
 20
54.93657673278085
 10
412.24868737577737
 20
54.93657673278085
 10
412.24868737577737
 20
89.93657673278085
 10
413.24758404580166
 20
89.93657673278085
 10
413.2284822867229
 20
90.13052014738795
 10
413.2284349651479
 20
90.13075804901072
 10
413.0791946791251
 20
90.49105597158345
 10
413.07908734415764
 20
90.49121660971427
 10
412.8033272527276
 20
90.7669767011499
 10
412.80316661459676
 20
90.76708403611741
 10
412.4428686920003
 20
90.9163243221528
 10
412.4426307903777
 20
90.91637164372776
 10
412.2476382489276
 20
90.93557673278086
 10
410.5176856950583
 20
90.93557673278086
 10
410.32269315360816
 20
90.91637164372776
 10
410.3224552519856
 20
90.9163243221528
 10
409.96215732938913
 20
90.76708403611741
 10
409.96199669125815
 20
90.7669767011499
 10
409.68623659982813
 20
90.49121660971427
 10
409.6861292648607
 20
90.49105597158345
 10
409.5368889788379
 20
90.13075804901072
 10
409.5368416572629
 20
90.13052014738795
 10
409.51773989818423
 20
89.93657673278085
 10
410.51663656820847
 20
89.93657673278085
 10
410.51663656820847
 20
54.93657673278085
 10
409.51773989818423
 20
54.93657673278085
 10
409.5368416572629
 20
54.742633318173766
  0
LWPOLYLINE
  5
56
330
17
100
AcDbEntity
  8
0
100
AcDbPolyline
 90
45
 70
0
 10
419.5368889788379
 20
54.74239541655099
 10
419.6861292648663
 20
54.382097493969894
 10
419.6862365998338
 20
54.38193685583898
 10
419.961996691233
 20
54.10617676442867
 10
419.9621573293639
 20
54.10606942946113
 10
420.3224552520207
 20
53.95682914340193
 10
420.3226931536432
 20
53.95678182182701
 10
420.5176856950583
 20
53.937576732780855
 10
422.2476382489275
 20
53.937576732780855
 10
422.4426307903427
 20
53.95678182182701
 10
422.44286869196515
 20
53.95682914340193
 10
422.8031666146219
 20
54.10606942946113
 10
422.80332725275287
 20
54.10617676442867
 10
423.079087344152
 20
54.38193685583898
 10
423.0791946791195
 20
54.382097493969894
 10
423.2284349651479
 20
54.74239541655099
 10
423.2284822867229
 20
54.742633318173766
 10
423.24758404580166
 20
54.93657673278085
 10
422.24868737577737
 20
54.93657673278085
 10
422.24868737577737
 20
89.93657673278085
 10
423.24758404580166
 20
89.93657673278085
 10
423.2284822867229
 20
90.13052014738795
 10
423.2284349651479
 20
90.13075804901072
 10
423.0791946791251
 20
90.49105597158345
 10
423.07908734415764
 20
90.49121660971427
 10
422.8033272527276
 20
90.7669767011499
 10
422.80316661459676
 20
90.76708403611741
 10
422.4428686920003
 20
90.9163243221528
 10
422.4426307903777
 20
90.91637164372776
 10
422.2476382489276
 20
90.93557673278086
 10
420.5176856950583
 20
90.93557673278086
 10
420.32269315360816
 20
90.91637164372776
 10
420.3224552519856
 20
90.9163243221528
 10
419.96215732938913
 20
90.76708403611741
 10
419.96199669125815
 20
90.7669767011499
 10
419.68623659982813
 20
90.49121660971427
 10
419.6861292648607
 20
90.49105597158345
 10
419.5368889788379
 20
90.13075804901072
 10
419.5368416572629
 20
90.13052014738795
 10
419.51773989818423
 20
89.93657673278085
 10
420.51663656820847
 20
89.93657673278085
 10
420.51663656820847
 20
54.93657673278085
 10
419.51773989818423
 20
54.93657673278085
 10
419.5368416572629
 20
54.742633318173766
 10
419.5368889788379
 20
54.74239541655099
  0
ENDSEC
  0
SECTION
  2
OBJECTS
  0
DICTIONARY
  5
A
330
0
100
AcDbDictionary
281
1
  3
ACAD_COLOR
350
B
  3
ACAD_GROUP
350
C
  3
ACAD_LAYOUT
350
D
  3
ACAD_MATERIAL
350
E
  3
ACAD_MLEADERSTYLE
350
F
  3
ACAD_MLINESTYLE
350
10
  3
ACAD_PLOTSETTINGS
350
11
  3
ACAD_PLOTSTYLENAME
350
12
  3
ACAD_SCALELIST
350
14
  3
ACAD_TABLESTYLE
350
15
  3
ACAD_VISUALSTYLE
350
16
  3
EZDXF_META
350
2D
  0
DICTIONARY
  5
B
330
A
100
AcDbDictionary
281
1
  0
DICTIONARY
  5
C
330
A
100
AcDbDictionary
281
1
  0
DICTIONARY
  5
D
330
A
100
AcDbDictionary
281
1
  3
Model
350
1A
  3
Layout1
350
1E
  0
DICTIONARY
  5
E
330
A
100
AcDbDictionary
281
1
  3
ByBlock
350
1F
  3
ByLayer
350
20
  3
Global
350
21
  0
DICTIONARY
  5
F
330
A
100
AcDbDictionary
281
1
  3
Standard
350
2C
  0
DICTIONARY
  5
10
330
A
100
AcDbDictionary
281
1
  3
Standard
350
22
  0
DICTIONARY
  5
11
330
A
100
AcDbDictionary
281
1
  0
ACDBDICTIONARYWDFLT
  5
12
330
A
100
AcDbDictionary
281
1
  3
Normal
350
13
100
AcDbDictionaryWithDefault
340
13
  0
ACDBPLACEHOLDER
  5
13
330
12
  0
DICTIONARY
  5
14
330
A
100
AcDbDictionary
281
1
  0
DICTIONARY
  5
15
330
A
100
AcDbDictionary
281
1
  0
DICTIONARY
  5
16
330
A
100
AcDbDictionary
281
1
  0
LAYOUT
  5
1A
330
D
100
AcDbPlotSettings
  1

  4
A3
  6

 40
7.5
 41
20.0
 42
7.5
 43
20.0
 44
420.0
 45
297.0
 46
0.0
 47
0.0
 48
0.0
 49
0.0
140
0.0
141
0.0
142
1.0
143
1.0
 70
1024
 72
1
 73
0
 74
5
  7

 75
16
 76
0
 77
2
 78
300
147
1.0
148
0.0
149
0.0
100
AcDbLayout
  1
Model
 70
1
 71
0
 10
0.0
 20
0.0
 11
420.0
 21
297.0
 12
0.0
 22
0.0
 32
0.0
 14
1e+20
 24
1e+20
 34
1e+20
 15
-1e+20
 25
-1e+20
 35
-1e+20
146
0.0
 13
0.0
 23
0.0
 33
0.0
 16
1.0
 26
0.0
 36
0.0
 17
0.0
 27
1.0
 37
0.0
 76
1
330
17
  0
LAYOUT
  5
1E
330
D
100
AcDbPlotSettings
  1

  4
A3
  6

 40
7.5
 41
20.0
 42
7.5
 43
20.0
 44
420.0
 45
297.0
 46
0.0
 47
0.0
 48
0.0
 49
0.0
140
0.0
141
0.0
142
1.0
143
1.0
 70
0
 72
1
 73
0
 74
5
  7

 75
16
 76
0
 77
2
 78
300
147
1.0
148
0.0
149
0.0
100
AcDbLayout
  1
Layout1
 70
1
 71
1
 10
0.0
 20
0.0
 11
420.0
 21
297.0
 12
0.0
 22
0.0
 32
0.0
 14
1e+20
 24
1e+20
 34
1e+20
 15
-1e+20
 25
-1e+20
 35
-1e+20
146
0.0
 13
0.0
 23
0.0
 33
0.0
 16
1.0
 26
0.0
 36
0.0
 17
0.0
 27
1.0
 37
0.0
 76
1
330
1B
  0
MATERIAL
  5
1F
102
{ACAD_REACTORS
330
E
102
}
330
E
100
AcDbMaterial
  1
ByBlock
  2

 70
0
 40
1.0
 71
1
 41
1.0
 91
-1023410177
 42
1.0
 72
1
  3

 73
1
 74
1
 75
1
 44
0.5
 73
0
 45
1.0
 46
1.0
 77
1
  4

 78
1
 79
1
170
1
 48
1.0
171
1
  6

172
1
173
1
174
1
140
1.0
141
1.0
175
1
  7

176
1
177
1
178
1
143
1.0
179
1
  8

270
1
271
1
272
1
145
1.0
146
1.0
273
1
  9

274
1
275
1
276
1
 42
1.0
 72
1
  3

 73
1
 74
1
 75
1
 94
63
  0
MATERIAL
  5
20
102
{ACAD_REACTORS
330
E
102
}
330
E
100
AcDbMaterial
  1
ByLayer
  2

 70
0
 40
1.0
 71
1
 41
1.0
 91
-1023410177
 42
1.0
 72
1
  3

 73
1
 74
1
 75
1
 44
0.5
 73
0
 45
1.0
 46
1.0
 77
1
  4

 78
1
 79
1
170
1
 48
1.0
171
1
  6

172
1
173
1
174
1
140
1.0
141
1.0
175
1
  7

176
1
177
1
178
1
143
1.0
179
1
  8

270
1
271
1
272
1
145
1.0
146
1.0
273
1
  9

274
1
275
1
276
1
 42
1.0
 72
1
  3

 73
1
 74
1
 75
1
 94
63
  0
MATERIAL
  5
21
102
{ACAD_REACTORS
330
E
102
}
330
E
100
AcDbMaterial
  1
Global
  2

 70
0
 40
1.0
 71
1
 41
1.0
 91
-1023410177
 42
1.0
 72
1
  3

 73
1
 74
1
 75
1
 44
0.5
 73
0
 45
1.0
 46
1.0
 77
1
  4

 78
1
 79
1
170
1
 48
1.0
171
1
  6

172
1
173
1
174
1
140
1.0
141
1.0
175
1
  7

176
1
177
1
178
1
143
1.0
179
1
  8

270
1
271
1
272
1
145
1.0
146
1.0
273
1
  9

274
1
275
1
276
1
 42
1.0
 72
1
  3

 73
1
 74
1
 75
1
 94
63
  0
MLINESTYLE
  5
22
102
{ACAD_REACTORS
330
10
102
}
330
10
100
AcDbMlineStyle
  2
Standard
 70
0
  3

 62
256
 51
90.0
 52
90.0
 71
2
 49
0.5
 62
256
  6
BYLAYER
 49
-0.5
 62
256
  6
BYLAYER
  0
MLEADERSTYLE
  5
2C
102
{ACAD_REACTORS
330
F
102
}
330
F
100
AcDbMLeaderStyle
179
2
170
2
171
1
172
0
 90
2
 40
0.0
 41
0.0
173
1
 91
-1056964608
 92
-2
290
1
 42
2.0
291
1
 43
8.0
  3
Standard
 44
4.0
300

342
29
174
1
175
1
176
0
178
1
 93
-1056964608
 45
4.0
292
0
297
0
 46
4.0
 94
-1056964608
 47
1.0
 49
1.0
140
1.0
294
1
141
0.0
177
0
142
1.0
295
0
296
0
143
3.75
271
0
272
9
273
9
  0
DICTIONARY
  5
2D
330
A
100
AcDbDictionary
280
1
281
1
  3
CREATED_BY_EZDXF
350
2E
  3
WRITTEN_BY_EZDXF
350
59
  0
DICTIONARYVAR
  5
2E
330
2D
100
DictionaryVariables
280
0
  1
1.4.2 @ 2025-12-02T20:08:29.459850+00:00
  0
DICTIONARYVAR
  5
59
330
2D
100
DictionaryVariables
280
0
  1
1.4.2 @ 2025-12-02T20:08:29.472028+00:00
  0
ENDSEC
  0
EOF
