<svg xmlns="http://www.w3.org/2000/svg" xmlns:xlink="http://www.w3.org/1999/xlink" width="300" height="300" viewBox="-12.013043636071687 35.65657673278085 223.56 73.56" preserveAspectRatio="xMinYMin meet"><g transform="matrix(1,0,0,-1,0,144.8731534655617)"><g><path fill-rule="evenodd" fill="#0c0786ff" stroke="#555555" stroke-width="1.4904" opacity="0.6" d="M -1.2330436360716879,43.93657673278085 L -2.189752216984412,44.12687790150263 L -3.000810589038057,44.66880977981448 L -3.542742467349905,45.479868151868125 L -3.733043636071688,46.43657673278085 L -3.542742467349905,47.393285313693575 L -3.0008105890380574,48.20434368574722 L -2.189752216984414,48.74627556405907 L -1.2330436360716885,48.93657673278085 L -0.27633505515896306,48.74627556405907 L 0.5347233168946803,48.20434368574722 L 1.076655195206528,47.393285313693575 L 1.266956363928312,46.43657673278085 L 1.0766551952065289,45.479868151868125 L 0.5347233168946808,44.66880977981448 L -0.2763350551589635,44.12687790150263 L -1.2330436360716879,43.93657673278085 z" /><path fill-rule="evenodd" fill="#0c0786ff" stroke="#555555" stroke-width="1.4904" opacity="0.6" d="M 200.7669563639283,43.93657673278085 L 199.81024778301557,44.12687790150263 L 198.99918941096195,44.66880977981448 L 198.4572575326501,45.479868151868125 L 198.2669563639283,46.43657673278085 L 198.4572575326501,47.393285313693575 L 198.99918941096192,48.20434368574722 L 199.81024778301557,48.74627556405907 L 200.7669563639283,48.93657673278085 L 201.72366494484103,48.74627556405907 L 202.53472331689466,48.20434368574722 L 203.0766551952065,47.393285313693575 L 203.2669563639283,46.43657673278085 L 203.0766551952065,45.479868151868125 L 202.53472331689466,44.66880977981448 L 201.72366494484103,44.12687790150263 L 200.7669563639283,43.93657673278085 z" /><path fill-rule="evenodd" fill="#0c0786ff" stroke="#555555" stroke-width="1.4904" opacity="0.6" d="M -1.2330436360716879,95.93657673278085 L -2.189752216984412,96.12687790150264 L -3.000810589038057,96.66880977981448 L -3.542742467349905,97.47986815186813 L -3.733043636071688,98.43657673278085 L -3.542742467349905,99.39328531369357 L -3.0008105890380574,100.20434368574722 L -2.189752216984414,100.74627556405906 L -1.2330436360716885,100.93657673278085 L -0.27633505515896306,100.74627556405906 L 0.5347233168946803,100.20434368574722 L 1.076655195206528,99.39328531369358 L 1.266956363928312,98.43657673278085 L 1.0766551952065289,97.47986815186813 L 0.5347233168946808,96.66880977981448 L -0.2763350551589635,96.12687790150264 L -1.2330436360716879,95.93657673278085 z" /><path fill-rule="evenodd" fill="#0c0786ff" stroke="#555555" stroke-width="1.4904" opacity="0.6" d="M 200.7669563639283,95.93657673278085 L 199.81024778301557,96.12687790150264 L 198.99918941096195,96.66880977981448 L 198.4572575326501,97.47986815186813 L 198.2669563639283,98.43657673278085 L 198.4572575326501,99.39328531369357 L 198.99918941096192,100.20434368574722 L 199.81024778301557,100.74627556405906 L 200.7669563639283,100.93657673278085 L 201.72366494484103,100.74627556405906 L 202.53472331689466,100.20434368574722 L 203.0766551952065,99.39328531369358 L 203.2669563639283,98.43657673278085 L 203.0766551952065,97.47986815186813 L 202.53472331689466,96.66880977981448 L 201.72366494484103,96.12687790150264 L 200.7669563639283,95.93657673278085 z" /><path fill-rule="evenodd" fill="#7e03a7ff" stroke="#555555" stroke-width="1.4904" opacity="0.6" d="M -1.2330436360716879,43.93657673278085 L -2.189752216984412,44.12687790150263 L -3.000810589038057,44.66880977981448 L -3.542742467349905,45.479868151868125 L -3.733043636071688,46.43657673278085 L -3.542742467349905,47.393285313693575 L -3.0008105890380574,48.20434368574722 L -2.189752216984414,48.74627556405907 L -1.2330436360716885,48.93657673278085 L -0.27633505515896306,48.74627556405907 L 0.5347233168946803,48.20434368574722 L 1.076655195206528,47.393285313693575 L 1.266956363928312,46.43657673278085 L 1.0766551952065289,45.479868151868125 L 0.5347233168946808,44.66880977981448 L -0.2763350551589635,44.12687790150263 L -1.2330436360716879,43.93657673278085 z" /><path fill-rule="evenodd" fill="#7e03a7ff" stroke="#555555" stroke-width="1.4904" opacity="0.6" d="M 200.7669563639283,43.93657673278085 L 199.81024778301557,44.12687790150263 L 198.99918941096195,44.66880977981448 L 198.4572575326501,45.479868151868125 L 198.2669563639283,46.43657673278085 L 198.4572575326501,47.393285313693575 L 198.99918941096192,48.20434368574722 L 199.81024778301557,48.74627556405907 L 200.7669563639283,48.93657673278085 L 201.72366494484103,48.74627556405907 L 202.53472331689466,48.20434368574722 L 203.0766551952065,47.393285313693575 L 203.2669563639283,46.43657673278085 L 203.0766551952065,45.479868151868125 L 202.53472331689466,44.66880977981448 L 201.72366494484103,44.12687790150263 L 200.7669563639283,43.93657673278085 z" /><path fill-rule="evenodd" fill="#7e03a7ff" stroke="#555555" stroke-width="1.4904" opacity="0.6" d="M -1.2330436360716879,95.93657673278085 L -2.189752216984412,96.12687790150264 L -3.000810589038057,96.66880977981448 L -3.542742467349905,97.47986815186813 L -3.733043636071688,98.43657673278085 L -3.542742467349905,99.39328531369357 L -3.0008105890380574,100.20434368574722 L -2.189752216984414,100.74627556405906 L -1.2330436360716885,100.93657673278085 L -0.27633505515896306,100.74627556405906 L 0.5347233168946803,100.20434368574722 L 1.076655195206528,99.39328531369358 L 1.266956363928312,98.43657673278085 L 1.0766551952065289,97.47986815186813 L 0.5347233168946808,96.66880977981448 L -0.2763350551589635,96.12687790150264 L -1.2330436360716879,95.93657673278085 z" /><path fill-rule="evenodd" fill="#7e03a7ff" stroke="#555555" stroke-width="1.4904" opacity="0.6" d="M 200.7669563639283,95.93657673278085 L 199.81024778301557,96.12687790150264 L 198.99918941096195,96.66880977981448 L 198.4572575326501,97.47986815186813 L 198.2669563639283,98.43657673278085 L 198.4572575326501,99.39328531369357 L 198.99918941096192,100.20434368574722 L 199.81024778301557,100.74627556405906 L 200.7669563639283,100.93657673278085 L 201.72366494484103,100.74627556405906 L 202.53472331689466,100.20434368574722 L 203.0766551952065,99.39328531369358 L 203.2669563639283,98.43657673278085 L 203.0766551952065,97.47986815186813 L 202.53472331689466,96.66880977981448 L 201.72366494484103,96.12687790150264 L 200.7669563639283,95.93657673278085 z" /><path fill-rule="evenodd" fill="#cb4777ff" stroke="#555555" stroke-width="1.4904" opacity="0.6" d="M -1.2330436360716879,43.93657673278085 L -2.189752216984412,44.12687790150263 L -3.000810589038057,44.66880977981448 L -3.542742467349905,45.479868151868125 L -3.733043636071688,46.43657673278085 L -3.542742467349905,47.393285313693575 L -3.0008105890380574,48.20434368574722 L -2.189752216984414,48.74627556405907 L -1.2330436360716885,48.93657673278085 L -0.27633505515896306,48.74627556405907 L 0.5347233168946803,48.20434368574722 L 1.076655195206528,47.393285313693575 L 1.266956363928312,46.43657673278085 L 1.0766551952065289,45.479868151868125 L 0.5347233168946808,44.66880977981448 L -0.2763350551589635,44.12687790150263 L -1.2330436360716879,43.93657673278085 z" /><path fill-rule="evenodd" fill="#cb4777ff" stroke="#555555" stroke-width="1.4904" opacity="0.6" d="M 200.7669563639283,43.93657673278085 L 199.81024778301557,44.12687790150263 L 198.99918941096195,44.66880977981448 L 198.4572575326501,45.479868151868125 L 198.2669563639283,46.43657673278085 L 198.4572575326501,47.393285313693575 L 198.99918941096192,48.20434368574722 L 199.81024778301557,48.74627556405907 L 200.7669563639283,48.93657673278085 L 201.72366494484103,48.74627556405907 L 202.53472331689466,48.20434368574722 L 203.0766551952065,47.393285313693575 L 203.2669563639283,46.43657673278085 L 203.0766551952065,45.479868151868125 L 202.53472331689466,44.66880977981448 L 201.72366494484103,44.12687790150263 L 200.7669563639283,43.93657673278085 z" /><path fill-rule="evenodd" fill="#cb4777ff" stroke="#555555" stroke-width="1.4904" opacity="0.6" d="M -1.2330436360716879,95.93657673278085 L -2.189752216984412,96.12687790150264 L -3.000810589038057,96.66880977981448 L -3.542742467349905,97.47986815186813 L -3.733043636071688,98.43657673278085 L -3.542742467349905,99.39328531369357 L -3.0008105890380574,100.20434368574722 L -2.189752216984414,100.74627556405906 L -1.2330436360716885,100.93657673278085 L -0.27633505515896306,100.74627556405906 L 0.5347233168946803,100.20434368574722 L 1.076655195206528,99.39328531369358 L 1.266956363928312,98.43657673278085 L 1.0766551952065289,97.47986815186813 L 0.5347233168946808,96.66880977981448 L -0.2763350551589635,96.12687790150264 L -1.2330436360716879,95.93657673278085 z" /><path fill-rule="evenodd" fill="#cb4777ff" stroke="#555555" stroke-width="1.4904" opacity="0.6" d="M 200.7669563639283,95.93657673278085 L 199.81024778301557,96.12687790150264 L 198.99918941096195,96.66880977981448 L 198.4572575326501,97.47986815186813 L 198.2669563639283,98.43657673278085 L 198.4572575326501,99.39328531369357 L 198.99918941096192,100.20434368574722 L 199.81024778301557,100.74627556405906 L 200.7669563639283,100.93657673278085 L 201.72366494484103,100.74627556405906 L 202.53472331689466,100.20434368574722 L 203.0766551952065,99.39328531369358 L 203.2669563639283,98.43657673278085 L 203.0766551952065,97.47986815186813 L 202.53472331689466,96.66880977981448 L 201.72366494484103,96.12687790150264 L 200.7669563639283,95.93657673278085 z" /><path fill-rule="evenodd" fill="#f89540ff" stroke="#555555" stroke-width="1.4904" opacity="0.6" d="M -1.2330436360716879,43.93657673278085 L -2.189752216984412,44.12687790150263 L -3.000810589038057,44.66880977981448 L -3.542742467349905,45.479868151868125 L -3.733043636071688,46.43657673278085 L -3.542742467349905,47.393285313693575 L -3.0008105890380574,48.20434368574722 L -2.189752216984414,48.74627556405907 L -1.2330436360716885,48.93657673278085 L -0.27633505515896306,48.74627556405907 L 0.5347233168946803,48.20434368574722 L 1.076655195206528,47.393285313693575 L 1.266956363928312,46.43657673278085 L 1.0766551952065289,45.479868151868125 L 0.5347233168946808,44.66880977981448 L -0.2763350551589635,44.12687790150263 L -1.2330436360716879,43.93657673278085 z" /><path fill-rule="evenodd" fill="#f89540ff" stroke="#555555" stroke-width="1.4904" opacity="0.6" d="M 200.7669563639283,43.93657673278085 L 199.81024778301557,44.12687790150263 L 198.99918941096195,44.66880977981448 L 198.4572575326501,45.479868151868125 L 198.2669563639283,46.43657673278085 L 198.4572575326501,47.393285313693575 L 198.99918941096192,48.20434368574722 L 199.81024778301557,48.74627556405907 L 200.7669563639283,48.93657673278085 L 201.72366494484103,48.74627556405907 L 202.53472331689466,48.20434368574722 L 203.0766551952065,47.393285313693575 L 203.2669563639283,46.43657673278085 L 203.0766551952065,45.479868151868125 L 202.53472331689466,44.66880977981448 L 201.72366494484103,44.12687790150263 L 200.7669563639283,43.93657673278085 z" /><path fill-rule="evenodd" fill="#f89540ff" stroke="#555555" stroke-width="1.4904" opacity="0.6" d="M -1.2330436360716879,95.93657673278085 L -2.189752216984412,96.12687790150264 L -3.000810589038057,96.66880977981448 L -3.542742467349905,97.47986815186813 L -3.733043636071688,98.43657673278085 L -3.542742467349905,99.39328531369357 L -3.0008105890380574,100.20434368574722 L -2.189752216984414,100.74627556405906 L -1.2330436360716885,100.93657673278085 L -0.27633505515896306,100.74627556405906 L 0.5347233168946803,100.20434368574722 L 1.076655195206528,99.39328531369358 L 1.266956363928312,98.43657673278085 L 1.0766551952065289,97.47986815186813 L 0.5347233168946808,96.66880977981448 L -0.2763350551589635,96.12687790150264 L -1.2330436360716879,95.93657673278085 z" /><path fill-rule="evenodd" fill="#f89540ff" stroke="#555555" stroke-width="1.4904" opacity="0.6" d="M 200.7669563639283,95.93657673278085 L 199.81024778301557,96.12687790150264 L 198.99918941096195,96.66880977981448 L 198.4572575326501,97.47986815186813 L 198.2669563639283,98.43657673278085 L 198.4572575326501,99.39328531369357 L 198.99918941096192,100.20434368574722 L 199.81024778301557,100.74627556405906 L 200.7669563639283,100.93657673278085 L 201.72366494484103,100.74627556405906 L 202.53472331689466,100.20434368574722 L 203.0766551952065,99.39328531369358 L 203.2669563639283,98.43657673278085 L 203.0766551952065,97.47986815186813 L 202.53472331689466,96.66880977981448 L 201.72366494484103,96.12687790150264 L 200.7669563639283,95.93657673278085 z" /><path fill-rule="evenodd" fill="#eff821ff" stroke="#555555" stroke-width="1.4904" opacity="0.6" d="M -1.2330436360716879,43.93657673278085 L -2.189752216984412,44.12687790150263 L -3.000810589038057,44.66880977981448 L -3.542742467349905,45.479868151868125 L -3.733043636071688,46.43657673278085 L -3.542742467349905,47.393285313693575 L -3.0008105890380574,48.20434368574722 L -2.189752216984414,48.74627556405907 L -1.2330436360716885,48.93657673278085 L -0.27633505515896306,48.74627556405907 L 0.5347233168946803,48.20434368574722 L 1.076655195206528,47.393285313693575 L 1.266956363928312,46.43657673278085 L 1.0766551952065289,45.479868151868125 L 0.5347233168946808,44.66880977981448 L -0.2763350551589635,44.12687790150263 L -1.2330436360716879,43.93657673278085 z" /><path fill-rule="evenodd" fill="#eff821ff" stroke="#555555" stroke-width="1.4904" opacity="0.6" d="M 200.7669563639283,43.93657673278085 L 199.81024778301557,44.12687790150263 L 198.99918941096195,44.66880977981448 L 198.4572575326501,45.479868151868125 L 198.2669563639283,46.43657673278085 L 198.4572575326501,47.393285313693575 L 198.99918941096192,48.20434368574722 L 199.81024778301557,48.74627556405907 L 200.7669563639283,48.93657673278085 L 201.72366494484103,48.74627556405907 L 202.53472331689466,48.20434368574722 L 203.0766551952065,47.393285313693575 L 203.2669563639283,46.43657673278085 L 203.0766551952065,45.479868151868125 L 202.53472331689466,44.66880977981448 L 201.72366494484103,44.12687790150263 L 200.7669563639283,43.93657673278085 z" /><path fill-rule="evenodd" fill="#eff821ff" stroke="#555555" stroke-width="1.4904" opacity="0.6" d="M -1.2330436360716879,95.93657673278085 L -2.189752216984412,96.12687790150264 L -3.000810589038057,96.66880977981448 L -3.542742467349905,97.47986815186813 L -3.733043636071688,98.43657673278085 L -3.542742467349905,99.39328531369357 L -3.0008105890380574,100.20434368574722 L -2.189752216984414,100.74627556405906 L -1.2330436360716885,100.93657673278085 L -0.27633505515896306,100.74627556405906 L 0.5347233168946803,100.20434368574722 L 1.076655195206528,99.39328531369358 L 1.266956363928312,98.43657673278085 L 1.0766551952065289,97.47986815186813 L 0.5347233168946808,96.66880977981448 L -0.2763350551589635,96.12687790150264 L -1.2330436360716879,95.93657673278085 z" /><path fill-rule="evenodd" fill="#eff821ff" stroke="#555555" stroke-width="1.4904" opacity="0.6" d="M 200.7669563639283,95.93657673278085 L 199.81024778301557,96.12687790150264 L 198.99918941096195,96.66880977981448 L 198.4572575326501,97.47986815186813 L 198.2669563639283,98.43657673278085 L 198.4572575326501,99.39328531369357 L 198.99918941096192,100.20434368574722 L 199.81024778301557,100.74627556405906 L 200.7669563639283,100.93657673278085 L 201.72366494484103,100.74627556405906 L 202.53472331689466,100.20434368574722 L 203.0766551952065,99.39328531369358 L 203.2669563639283,98.43657673278085 L 203.0766551952065,97.47986815186813 L 202.53472331689466,96.66880977981448 L 201.72366494484103,96.12687790150264 L 200.7669563639283,95.93657673278085 z" /></g></g></svg>