<svg xmlns="http://www.w3.org/2000/svg" xmlns:xlink="http://www.w3.org/1999/xlink" width="300" height="300" viewBox="1.6316527093556727 47.66729484592096 196.27061094521696 49.53856377371978" preserveAspectRatio="xMinYMin meet"><g transform="matrix(1,0,0,-1,0,144.8731534655617)"><g><path fill-rule="evenodd" fill="#0c0786ff" stroke="#555555" stroke-width="1.3084707396347797" opacity="0.6" d="M 8.90094406224258,54.936577317340195 L 8.900941087208272,54.93657900267631 L 8.900938853855013,54.9365815917534 L 8.90093762328831,54.93658478187763 L 8.900934788362756,54.93659903401082 L 8.90093459621556,54.93660098491404 L 8.90093459621556,89.93656673278085 L 8.900935357420234,89.93657055961518 L 8.900937525147748,89.93657380384866 L 8.900940769381236,89.93657597157618 L 8.90094459621556,89.93657673278085 L 10.632975403784439,89.93657673278085 L 10.632979230618762,89.93657597157618 L 10.63298247485225,89.93657380384866 L 10.632984642579764,89.93657055961518 L 10.632985403784438,89.93656673278085 L 10.632985403784438,54.93660098491404 L 10.632985211637243,54.93659903401082 L 10.632982376711688,54.93658478187763 L 10.632981146144985,54.9365815917534 L 10.632978912791726,54.93657900267631 L 10.632975937757418,54.936577317340195 L 10.632972568858884,54.93657673278084 L 8.900947431141114,54.93657673278084 L 8.90094406224258,54.936577317340195 z" /><path fill-rule="evenodd" fill="#0c0786ff" stroke="#555555" stroke-width="1.3084707396347797" opacity="0.6" d="M 24.63297559454708,89.93657597157618 L 24.63297883878057,89.93657380384866 L 24.632981006508082,89.93657055961518 L 24.632981767712756,89.93656673278085 L 24.632981767712756,54.936586732780846 L 24.632981006508082,54.93658290594652 L 24.63297883878057,54.93657966171303 L 24.63297559454708,54.936577493985524 L 24.632971767712757,54.93657673278084 L 22.90094096014388,54.93657673278084 L 22.900937133309558,54.936577493985524 L 22.900933889076068,54.93657966171303 L 22.900931721348556,54.93658290594652 L 22.90093096014388,54.936586732780846 L 22.90093096014388,89.93656673278085 L 22.900931721348556,89.93657055961518 L 22.900933889076068,89.93657380384866 L 22.900937133309558,89.93657597157618 L 22.90094096014388,89.93657673278085 L 24.632971767712757,89.93657673278085 L 24.63297559454708,89.93657597157618 z" /><path fill-rule="evenodd" fill="#0c0786ff" stroke="#555555" stroke-width="1.3084707396347797" opacity="0.6" d="M 48.63298100650809,54.93658290594652 L 48.63297883878058,54.93657966171303 L 48.63297559454709,54.936577493985524 L 48.63297176771277,54.93657673278084 L 46.90094096014388,54.93657673278084 L 46.900937133309554,54.936577493985524 L 46.900933889076065,54.93657966171303 L 46.900931721348556,54.93658290594652 L 46.900930960143874,54.936586732780846 L 46.900930960143874,89.93656673278085 L 46.900931721348556,89.93657055961518 L 46.900933889076065,89.93657380384866 L 46.900937133309554,89.93657597157618 L 46.90094096014388,89.93657673278085 L 48.63297176771277,89.93657673278085 L 48.63297559454709,89.93657597157618 L 48.63297883878058,89.93657380384866 L 48.63298100650809,89.93657055961518 L 48.63298176771277,89.93656673278085 L 48.63298176771277,54.936586732780846 L 48.63298100650809,54.93658290594652 z" /><path fill-rule="evenodd" fill="#0c0786ff" stroke="#555555" stroke-width="1.3084707396347797" opacity="0.6" d="M 62.63298100650809,54.93658290594652 L 62.63297883878058,54.93657966171303 L 62.63297559454709,54.936577493985524 L 62.63297176771277,54.93657673278084 L 60.90094096014388,54.93657673278084 L 60.900937133309554,54.936577493985524 L 60.900933889076065,54.93657966171303 L 60.900931721348556,54.93658290594652 L 60.900930960143874,54.936586732780846 L 60.900930960143874,89.93656673278085 L 60.900931721348556,89.93657055961518 L 60.900933889076065,89.93657380384866 L 60.900937133309554,89.93657597157618 L 60.90094096014388,89.93657673278085 L 62.63297176771277,89.93657673278085 L 62.63297559454709,89.93657597157618 L 62.63297883878058,89.93657380384866 L 62.63298100650809,89.93657055961518 L 62.63298176771277,89.93656673278085 L 62.63298176771277,54.936586732780846 L 62.63298100650809,54.93658290594652 z" /><path fill-rule="evenodd" fill="#0c0786ff" stroke="#555555" stroke-width="1.3084707396347797" opacity="0.6" d="M 102.63297559454706,89.93657597157618 L 102.63297883878055,89.93657380384866 L 102.63298100650806,89.93657055961518 L 102.63298176771274,89.93656673278085 L 102.63298176771274,54.936586732780846 L 102.63298100650806,54.93658290594652 L 102.63297883878055,54.93657966171303 L 102.63297559454706,54.936577493985524 L 102.63297176771273,54.93657673278084 L 100.90094096014387,54.93657673278084 L 100.90093713330954,54.936577493985524 L 100.90093388907606,54.93657966171303 L 100.90093172134854,54.93658290594652 L 100.90093096014387,54.936586732780846 L 100.90093096014387,89.93656673278085 L 100.90093172134854,89.93657055961518 L 100.90093388907606,89.93657380384866 L 100.90093713330954,89.93657597157618 L 100.90094096014387,89.93657673278085 L 102.63297176771273,89.93657673278085 L 102.63297559454706,89.93657597157618 z" /><path fill-rule="evenodd" fill="#0c0786ff" stroke="#555555" stroke-width="1.3084707396347797" opacity="0.6" d="M 116.63297559454706,89.93657597157618 L 116.63297883878055,89.93657380384866 L 116.63298100650806,89.93657055961518 L 116.63298176771274,89.93656673278085 L 116.63298176771274,54.936586732780846 L 116.63298100650806,54.93658290594652 L 116.63297883878055,54.93657966171303 L 116.63297559454706,54.936577493985524 L 116.63297176771273,54.93657673278084 L 114.90094096014387,54.93657673278084 L 114.90093713330954,54.936577493985524 L 114.90093388907606,54.93657966171303 L 114.90093172134854,54.93658290594652 L 114.90093096014387,54.936586732780846 L 114.90093096014387,89.93656673278085 L 114.90093172134854,89.93657055961518 L 114.90093388907606,89.93657380384866 L 114.90093713330954,89.93657597157618 L 114.90094096014387,89.93657673278085 L 116.63297176771273,89.93657673278085 L 116.63297559454706,89.93657597157618 z" /><path fill-rule="evenodd" fill="#0c0786ff" stroke="#555555" stroke-width="1.3084707396347797" opacity="0.6" d="M 166.63298100650806,54.93658290594652 L 166.63297883878056,54.93657966171303 L 166.63297559454708,54.936577493985524 L 166.63297176771275,54.93657673278084 L 164.90094096014386,54.93657673278084 L 164.90093713330953,54.936577493985524 L 164.90093388907604,54.93657966171303 L 164.90093172134854,54.93658290594652 L 164.90093096014385,54.936586732780846 L 164.90093096014385,89.93656673278085 L 164.90093172134854,89.93657055961518 L 164.90093388907604,89.93657380384866 L 164.90093713330953,89.93657597157618 L 164.90094096014386,89.93657673278085 L 166.63297176771275,89.93657673278085 L 166.63297559454708,89.93657597157618 L 166.63297883878056,89.93657380384866 L 166.63298100650806,89.93657055961518 L 166.63298176771275,89.93656673278085 L 166.63298176771275,54.936586732780846 L 166.63298100650806,54.93658290594652 z" /><path fill-rule="evenodd" fill="#0c0786ff" stroke="#555555" stroke-width="1.3084707396347797" opacity="0.6" d="M 180.63298100650806,89.93657055961518 L 180.63298176771275,89.93656673278085 L 180.63298176771275,54.936586732780846 L 180.63298100650806,54.93658290594652 L 180.63297883878056,54.93657966171303 L 180.63297559454708,54.936577493985524 L 180.63297176771275,54.93657673278084 L 178.90094096014386,54.93657673278084 L 178.90093713330953,54.936577493985524 L 178.90093388907604,54.93657966171303 L 178.90093172134854,54.93658290594652 L 178.90093096014385,54.936586732780846 L 178.90093096014385,89.93656673278085 L 178.90093172134854,89.93657055961518 L 178.90093388907604,89.93657380384866 L 178.90093713330953,89.93657597157618 L 178.90094096014386,89.93657673278085 L 180.63297176771275,89.93657673278085 L 180.63297559454708,89.93657597157618 L 180.63297883878056,89.93657380384866 L 180.63298100650806,89.93657055961518 z" /><path fill-rule="evenodd" fill="#0c0786ff" stroke="#555555" stroke-width="1.3084707396347797" opacity="0.6" d="M 190.63298100650806,89.93657055961518 L 190.63298176771275,89.93656673278085 L 190.63298176771275,54.936586732780846 L 190.63298100650806,54.93658290594652 L 190.63297883878056,54.93657966171303 L 190.63297559454708,54.936577493985524 L 190.63297176771275,54.93657673278084 L 188.90094096014386,54.93657673278084 L 188.90093713330953,54.936577493985524 L 188.90093388907604,54.93657966171303 L 188.90093172134854,54.93658290594652 L 188.90093096014385,54.936586732780846 L 188.90093096014385,89.93656673278085 L 188.90093172134854,89.93657055961518 L 188.90093388907604,89.93657380384866 L 188.90093713330953,89.93657597157618 L 188.90094096014386,89.93657673278085 L 190.63297176771275,89.93657673278085 L 190.63297559454708,89.93657597157618 L 190.63297883878056,89.93657380384866 L 190.63298100650806,89.93657055961518 z" /><path fill-rule="evenodd" fill="#7e03a7ff" stroke="#555555" stroke-width="1.3084707396347797" opacity="0.6" d="M 8.90094406224258,54.936577317340195 L 8.900941087208272,54.93657900267631 L 8.900938853855013,54.9365815917534 L 8.90093762328831,54.93658478187763 L 8.900934788362756,54.93659903401082 L 8.90093459621556,54.93660098491404 L 8.90093459621556,89.93656673278085 L 8.900935357420234,89.93657055961518 L 8.900937525147748,89.93657380384866 L 8.900940769381236,89.93657597157618 L 8.90094459621556,89.93657673278085 L 10.632975403784439,89.93657673278085 L 10.632979230618762,89.93657597157618 L 10.63298247485225,89.93657380384866 L 10.632984642579764,89.93657055961518 L 10.632985403784438,89.93656673278085 L 10.632985403784438,54.93660098491404 L 10.632985211637243,54.93659903401082 L 10.632982376711688,54.93658478187763 L 10.632981146144985,54.9365815917534 L 10.632978912791726,54.93657900267631 L 10.632975937757418,54.936577317340195 L 10.632972568858884,54.93657673278084 L 8.900947431141114,54.93657673278084 L 8.90094406224258,54.936577317340195 z" /><path fill-rule="evenodd" fill="#7e03a7ff" stroke="#555555" stroke-width="1.3084707396347797" opacity="0.6" d="M 24.63297559454708,89.93657597157618 L 24.63297883878057,89.93657380384866 L 24.632981006508082,89.93657055961518 L 24.632981767712756,89.93656673278085 L 24.632981767712756,54.936586732780846 L 24.632981006508082,54.93658290594652 L 24.63297883878057,54.93657966171303 L 24.63297559454708,54.936577493985524 L 24.632971767712757,54.93657673278084 L 22.90094096014388,54.93657673278084 L 22.900937133309558,54.936577493985524 L 22.900933889076068,54.93657966171303 L 22.900931721348556,54.93658290594652 L 22.90093096014388,54.936586732780846 L 22.90093096014388,89.93656673278085 L 22.900931721348556,89.93657055961518 L 22.900933889076068,89.93657380384866 L 22.900937133309558,89.93657597157618 L 22.90094096014388,89.93657673278085 L 24.632971767712757,89.93657673278085 L 24.63297559454708,89.93657597157618 z" /><path fill-rule="evenodd" fill="#7e03a7ff" stroke="#555555" stroke-width="1.3084707396347797" opacity="0.6" d="M 48.63298100650809,54.93658290594652 L 48.63297883878058,54.93657966171303 L 48.63297559454709,54.936577493985524 L 48.63297176771277,54.93657673278084 L 46.90094096014388,54.93657673278084 L 46.900937133309554,54.936577493985524 L 46.900933889076065,54.93657966171303 L 46.900931721348556,54.93658290594652 L 46.900930960143874,54.936586732780846 L 46.900930960143874,89.93656673278085 L 46.900931721348556,89.93657055961518 L 46.900933889076065,89.93657380384866 L 46.900937133309554,89.93657597157618 L 46.90094096014388,89.93657673278085 L 48.63297176771277,89.93657673278085 L 48.63297559454709,89.93657597157618 L 48.63297883878058,89.93657380384866 L 48.63298100650809,89.93657055961518 L 48.63298176771277,89.93656673278085 L 48.63298176771277,54.936586732780846 L 48.63298100650809,54.93658290594652 z" /><path fill-rule="evenodd" fill="#7e03a7ff" stroke="#555555" stroke-width="1.3084707396347797" opacity="0.6" d="M 62.63298100650809,54.93658290594652 L 62.63297883878058,54.93657966171303 L 62.63297559454709,54.936577493985524 L 62.63297176771277,54.93657673278084 L 60.90094096014388,54.93657673278084 L 60.900937133309554,54.936577493985524 L 60.900933889076065,54.93657966171303 L 60.900931721348556,54.93658290594652 L 60.900930960143874,54.936586732780846 L 60.900930960143874,89.93656673278085 L 60.900931721348556,89.93657055961518 L 60.900933889076065,89.93657380384866 L 60.900937133309554,89.93657597157618 L 60.90094096014388,89.93657673278085 L 62.63297176771277,89.93657673278085 L 62.63297559454709,89.93657597157618 L 62.63297883878058,89.93657380384866 L 62.63298100650809,89.93657055961518 L 62.63298176771277,89.93656673278085 L 62.63298176771277,54.936586732780846 L 62.63298100650809,54.93658290594652 z" /><path fill-rule="evenodd" fill="#7e03a7ff" stroke="#555555" stroke-width="1.3084707396347797" opacity="0.6" d="M 102.63297559454706,89.93657597157618 L 102.63297883878055,89.93657380384866 L 102.63298100650806,89.93657055961518 L 102.63298176771274,89.93656673278085 L 102.63298176771274,54.936586732780846 L 102.63298100650806,54.93658290594652 L 102.63297883878055,54.93657966171303 L 102.63297559454706,54.936577493985524 L 102.63297176771273,54.93657673278084 L 100.90094096014387,54.93657673278084 L 100.90093713330954,54.936577493985524 L 100.90093388907606,54.93657966171303 L 100.90093172134854,54.93658290594652 L 100.90093096014387,54.936586732780846 L 100.90093096014387,89.93656673278085 L 100.90093172134854,89.93657055961518 L 100.90093388907606,89.93657380384866 L 100.90093713330954,89.93657597157618 L 100.90094096014387,89.93657673278085 L 102.63297176771273,89.93657673278085 L 102.63297559454706,89.93657597157618 z" /><path fill-rule="evenodd" fill="#7e03a7ff" stroke="#555555" stroke-width="1.3084707396347797" opacity="0.6" d="M 116.63297559454706,89.93657597157618 L 116.63297883878055,89.93657380384866 L 116.63298100650806,89.93657055961518 L 116.63298176771274,89.93656673278085 L 116.63298176771274,54.936586732780846 L 116.63298100650806,54.93658290594652 L 116.63297883878055,54.93657966171303 L 116.63297559454706,54.936577493985524 L 116.63297176771273,54.93657673278084 L 114.90094096014387,54.93657673278084 L 114.90093713330954,54.936577493985524 L 114.90093388907606,54.93657966171303 L 114.90093172134854,54.93658290594652 L 114.90093096014387,54.936586732780846 L 114.90093096014387,89.93656673278085 L 114.90093172134854,89.93657055961518 L 114.90093388907606,89.93657380384866 L 114.90093713330954,89.93657597157618 L 114.90094096014387,89.93657673278085 L 116.63297176771273,89.93657673278085 L 116.63297559454706,89.93657597157618 z" /><path fill-rule="evenodd" fill="#7e03a7ff" stroke="#555555" stroke-width="1.3084707396347797" opacity="0.6" d="M 166.63298100650806,54.93658290594652 L 166.63297883878056,54.93657966171303 L 166.63297559454708,54.936577493985524 L 166.63297176771275,54.93657673278084 L 164.90094096014386,54.93657673278084 L 164.90093713330953,54.936577493985524 L 164.90093388907604,54.93657966171303 L 164.90093172134854,54.93658290594652 L 164.90093096014385,54.936586732780846 L 164.90093096014385,89.93656673278085 L 164.90093172134854,89.93657055961518 L 164.90093388907604,89.93657380384866 L 164.90093713330953,89.93657597157618 L 164.90094096014386,89.93657673278085 L 166.63297176771275,89.93657673278085 L 166.63297559454708,89.93657597157618 L 166.63297883878056,89.93657380384866 L 166.63298100650806,89.93657055961518 L 166.63298176771275,89.93656673278085 L 166.63298176771275,54.936586732780846 L 166.63298100650806,54.93658290594652 z" /><path fill-rule="evenodd" fill="#7e03a7ff" stroke="#555555" stroke-width="1.3084707396347797" opacity="0.6" d="M 180.63298100650806,89.93657055961518 L 180.63298176771275,89.93656673278085 L 180.63298176771275,54.936586732780846 L 180.63298100650806,54.93658290594652 L 180.63297883878056,54.93657966171303 L 180.63297559454708,54.936577493985524 L 180.63297176771275,54.93657673278084 L 178.90094096014386,54.93657673278084 L 178.90093713330953,54.936577493985524 L 178.90093388907604,54.93657966171303 L 178.90093172134854,54.93658290594652 L 178.90093096014385,54.936586732780846 L 178.90093096014385,89.93656673278085 L 178.90093172134854,89.93657055961518 L 178.90093388907604,89.93657380384866 L 178.90093713330953,89.93657597157618 L 178.90094096014386,89.93657673278085 L 180.63297176771275,89.93657673278085 L 180.63297559454708,89.93657597157618 L 180.63297883878056,89.93657380384866 L 180.63298100650806,89.93657055961518 z" /><path fill-rule="evenodd" fill="#7e03a7ff" stroke="#555555" stroke-width="1.3084707396347797" opacity="0.6" d="M 190.63298100650806,89.93657055961518 L 190.63298176771275,89.93656673278085 L 190.63298176771275,54.936586732780846 L 190.63298100650806,54.93658290594652 L 190.63297883878056,54.93657966171303 L 190.63297559454708,54.936577493985524 L 190.63297176771275,54.93657673278084 L 188.90094096014386,54.93657673278084 L 188.90093713330953,54.936577493985524 L 188.90093388907604,54.93657966171303 L 188.90093172134854,54.93658290594652 L 188.90093096014385,54.936586732780846 L 188.90093096014385,89.93656673278085 L 188.90093172134854,89.93657055961518 L 188.90093388907604,89.93657380384866 L 188.90093713330953,89.93657597157618 L 188.90094096014386,89.93657673278085 L 190.63297176771275,89.93657673278085 L 190.63297559454708,89.93657597157618 L 190.63297883878056,89.93657380384866 L 190.63298100650806,89.93657055961518 z" /><path fill-rule="evenodd" fill="#f89540ff" stroke="#555555" stroke-width="1.3084707396347797" opacity="0.6" d="M 8.90094406224258,54.936577317340195 L 8.900941087208272,54.93657900267631 L 8.900938853855013,54.9365815917534 L 8.90093762328831,54.93658478187763 L 8.900934788362756,54.93659903401082 L 8.90093459621556,54.93660098491404 L 8.90093459621556,89.93656673278085 L 8.900935357420234,89.93657055961518 L 8.900937525147748,89.93657380384866 L 8.900940769381236,89.93657597157618 L 8.90094459621556,89.93657673278085 L 10.632975403784439,89.93657673278085 L 10.632979230618762,89.93657597157618 L 10.63298247485225,89.93657380384866 L 10.632984642579764,89.93657055961518 L 10.632985403784438,89.93656673278085 L 10.632985403784438,54.93660098491404 L 10.632985211637243,54.93659903401082 L 10.632982376711688,54.93658478187763 L 10.632981146144985,54.9365815917534 L 10.632978912791726,54.93657900267631 L 10.632975937757418,54.936577317340195 L 10.632972568858884,54.93657673278084 L 8.900947431141114,54.93657673278084 L 8.90094406224258,54.936577317340195 z" /><path fill-rule="evenodd" fill="#f89540ff" stroke="#555555" stroke-width="1.3084707396347797" opacity="0.6" d="M 24.63297559454708,89.93657597157618 L 24.63297883878057,89.93657380384866 L 24.632981006508082,89.93657055961518 L 24.632981767712756,89.93656673278085 L 24.632981767712756,54.936586732780846 L 24.632981006508082,54.93658290594652 L 24.63297883878057,54.93657966171303 L 24.63297559454708,54.936577493985524 L 24.632971767712757,54.93657673278084 L 22.90094096014388,54.93657673278084 L 22.900937133309558,54.936577493985524 L 22.900933889076068,54.93657966171303 L 22.900931721348556,54.93658290594652 L 22.90093096014388,54.936586732780846 L 22.90093096014388,89.93656673278085 L 22.900931721348556,89.93657055961518 L 22.900933889076068,89.93657380384866 L 22.900937133309558,89.93657597157618 L 22.90094096014388,89.93657673278085 L 24.632971767712757,89.93657673278085 L 24.63297559454708,89.93657597157618 z" /><path fill-rule="evenodd" fill="#f89540ff" stroke="#555555" stroke-width="1.3084707396347797" opacity="0.6" d="M 48.63298100650809,54.93658290594652 L 48.63297883878058,54.93657966171303 L 48.63297559454709,54.936577493985524 L 48.63297176771277,54.93657673278084 L 46.90094096014388,54.93657673278084 L 46.900937133309554,54.936577493985524 L 46.900933889076065,54.93657966171303 L 46.900931721348556,54.93658290594652 L 46.900930960143874,54.936586732780846 L 46.900930960143874,89.93656673278085 L 46.900931721348556,89.93657055961518 L 46.900933889076065,89.93657380384866 L 46.900937133309554,89.93657597157618 L 46.90094096014388,89.93657673278085 L 48.63297176771277,89.93657673278085 L 48.63297559454709,89.93657597157618 L 48.63297883878058,89.93657380384866 L 48.63298100650809,89.93657055961518 L 48.63298176771277,89.93656673278085 L 48.63298176771277,54.936586732780846 L 48.63298100650809,54.93658290594652 z" /><path fill-rule="evenodd" fill="#f89540ff" stroke="#555555" stroke-width="1.3084707396347797" opacity="0.6" d="M 62.63298100650809,54.93658290594652 L 62.63297883878058,54.93657966171303 L 62.63297559454709,54.936577493985524 L 62.63297176771277,54.93657673278084 L 60.90094096014388,54.93657673278084 L 60.900937133309554,54.936577493985524 L 60.900933889076065,54.93657966171303 L 60.900931721348556,54.93658290594652 L 60.900930960143874,54.936586732780846 L 60.900930960143874,89.93656673278085 L 60.900931721348556,89.93657055961518 L 60.900933889076065,89.93657380384866 L 60.900937133309554,89.93657597157618 L 60.90094096014388,89.93657673278085 L 62.63297176771277,89.93657673278085 L 62.63297559454709,89.93657597157618 L 62.63297883878058,89.93657380384866 L 62.63298100650809,89.93657055961518 L 62.63298176771277,89.93656673278085 L 62.63298176771277,54.936586732780846 L 62.63298100650809,54.93658290594652 z" /><path fill-rule="evenodd" fill="#f89540ff" stroke="#555555" stroke-width="1.3084707396347797" opacity="0.6" d="M 102.63297559454706,89.93657597157618 L 102.63297883878055,89.93657380384866 L 102.63298100650806,89.93657055961518 L 102.63298176771274,89.93656673278085 L 102.63298176771274,54.936586732780846 L 102.63298100650806,54.93658290594652 L 102.63297883878055,54.93657966171303 L 102.63297559454706,54.936577493985524 L 102.63297176771273,54.93657673278084 L 100.90094096014387,54.93657673278084 L 100.90093713330954,54.936577493985524 L 100.90093388907606,54.93657966171303 L 100.90093172134854,54.93658290594652 L 100.90093096014387,54.936586732780846 L 100.90093096014387,89.93656673278085 L 100.90093172134854,89.93657055961518 L 100.90093388907606,89.93657380384866 L 100.90093713330954,89.93657597157618 L 100.90094096014387,89.93657673278085 L 102.63297176771273,89.93657673278085 L 102.63297559454706,89.93657597157618 z" /><path fill-rule="evenodd" fill="#f89540ff" stroke="#555555" stroke-width="1.3084707396347797" opacity="0.6" d="M 116.63297559454706,89.93657597157618 L 116.63297883878055,89.93657380384866 L 116.63298100650806,89.93657055961518 L 116.63298176771274,89.93656673278085 L 116.63298176771274,54.936586732780846 L 116.63298100650806,54.93658290594652 L 116.63297883878055,54.93657966171303 L 116.63297559454706,54.936577493985524 L 116.63297176771273,54.93657673278084 L 114.90094096014387,54.93657673278084 L 114.90093713330954,54.936577493985524 L 114.90093388907606,54.93657966171303 L 114.90093172134854,54.93658290594652 L 114.90093096014387,54.936586732780846 L 114.90093096014387,89.93656673278085 L 114.90093172134854,89.93657055961518 L 114.90093388907606,89.93657380384866 L 114.90093713330954,89.93657597157618 L 114.90094096014387,89.93657673278085 L 116.63297176771273,89.93657673278085 L 116.63297559454706,89.93657597157618 z" /><path fill-rule="evenodd" fill="#f89540ff" stroke="#555555" stroke-width="1.3084707396347797" opacity="0.6" d="M 166.63298100650806,54.93658290594652 L 166.63297883878056,54.93657966171303 L 166.63297559454708,54.936577493985524 L 166.63297176771275,54.93657673278084 L 164.90094096014386,54.93657673278084 L 164.90093713330953,54.936577493985524 L 164.90093388907604,54.93657966171303 L 164.90093172134854,54.93658290594652 L 164.90093096014385,54.936586732780846 L 164.90093096014385,89.93656673278085 L 164.90093172134854,89.93657055961518 L 164.90093388907604,89.93657380384866 L 164.90093713330953,89.93657597157618 L 164.90094096014386,89.93657673278085 L 166.63297176771275,89.93657673278085 L 166.63297559454708,89.93657597157618 L 166.63297883878056,89.93657380384866 L 166.63298100650806,89.93657055961518 L 166.63298176771275,89.93656673278085 L 166.63298176771275,54.936586732780846 L 166.63298100650806,54.93658290594652 z" /><path fill-rule="evenodd" fill="#f89540ff" stroke="#555555" stroke-width="1.3084707396347797" opacity="0.6" d="M 180.63298100650806,89.93657055961518 L 180.63298176771275,89.93656673278085 L 180.63298176771275,54.936586732780846 L 180.63298100650806,54.93658290594652 L 180.63297883878056,54.93657966171303 L 180.63297559454708,54.936577493985524 L 180.63297176771275,54.93657673278084 L 178.90094096014386,54.93657673278084 L 178.90093713330953,54.936577493985524 L 178.90093388907604,54.93657966171303 L 178.90093172134854,54.93658290594652 L 178.90093096014385,54.936586732780846 L 178.90093096014385,89.93656673278085 L 178.90093172134854,89.93657055961518 L 178.90093388907604,89.93657380384866 L 178.90093713330953,89.93657597157618 L 178.90094096014386,89.93657673278085 L 180.63297176771275,89.93657673278085 L 180.63297559454708,89.93657597157618 L 180.63297883878056,89.93657380384866 L 180.63298100650806,89.93657055961518 z" /><path fill-rule="evenodd" fill="#f89540ff" stroke="#555555" stroke-width="1.3084707396347797" opacity="0.6" d="M 190.63298100650806,89.93657055961518 L 190.63298176771275,89.93656673278085 L 190.63298176771275,54.936586732780846 L 190.63298100650806,54.93658290594652 L 190.63297883878056,54.93657966171303 L 190.63297559454708,54.936577493985524 L 190.63297176771275,54.93657673278084 L 188.90094096014386,54.93657673278084 L 188.90093713330953,54.936577493985524 L 188.90093388907604,54.93657966171303 L 188.90093172134854,54.93658290594652 L 188.90093096014385,54.936586732780846 L 188.90093096014385,89.93656673278085 L 188.90093172134854,89.93657055961518 L 188.90093388907604,89.93657380384866 L 188.90093713330953,89.93657597157618 L 188.90094096014386,89.93657673278085 L 190.63297176771275,89.93657673278085 L 190.63297559454708,89.93657597157618 L 190.63297883878056,89.93657380384866 L 190.63298100650806,89.93657055961518 z" /><path fill-rule="evenodd" fill="#eff821ff" stroke="#555555" stroke-width="1.3084707396347797" opacity="0.6" d="M 8.90094406224258,54.936577317340195 L 8.900941087208272,54.93657900267631 L 8.900938853855013,54.9365815917534 L 8.90093762328831,54.93658478187763 L 8.900934788362756,54.93659903401082 L 8.90093459621556,54.93660098491404 L 8.90093459621556,89.93656673278085 L 8.900935357420234,89.93657055961518 L 8.900937525147748,89.93657380384866 L 8.900940769381236,89.93657597157618 L 8.90094459621556,89.93657673278085 L 10.632975403784439,89.93657673278085 L 10.632979230618762,89.93657597157618 L 10.63298247485225,89.93657380384866 L 10.632984642579764,89.93657055961518 L 10.632985403784438,89.93656673278085 L 10.632985403784438,54.93660098491404 L 10.632985211637243,54.93659903401082 L 10.632982376711688,54.93658478187763 L 10.632981146144985,54.9365815917534 L 10.632978912791726,54.93657900267631 L 10.632975937757418,54.936577317340195 L 10.632972568858884,54.93657673278084 L 8.900947431141114,54.93657673278084 L 8.90094406224258,54.936577317340195 z" /><path fill-rule="evenodd" fill="#eff821ff" stroke="#555555" stroke-width="1.3084707396347797" opacity="0.6" d="M 24.63297559454708,89.93657597157618 L 24.63297883878057,89.93657380384866 L 24.632981006508082,89.93657055961518 L 24.632981767712756,89.93656673278085 L 24.632981767712756,54.936586732780846 L 24.632981006508082,54.93658290594652 L 24.63297883878057,54.93657966171303 L 24.63297559454708,54.936577493985524 L 24.632971767712757,54.93657673278084 L 22.90094096014388,54.93657673278084 L 22.900937133309558,54.936577493985524 L 22.900933889076068,54.93657966171303 L 22.900931721348556,54.93658290594652 L 22.90093096014388,54.936586732780846 L 22.90093096014388,89.93656673278085 L 22.900931721348556,89.93657055961518 L 22.900933889076068,89.93657380384866 L 22.900937133309558,89.93657597157618 L 22.90094096014388,89.93657673278085 L 24.632971767712757,89.93657673278085 L 24.63297559454708,89.93657597157618 z" /><path fill-rule="evenodd" fill="#eff821ff" stroke="#555555" stroke-width="1.3084707396347797" opacity="0.6" d="M 48.63298100650809,54.93658290594652 L 48.63297883878058,54.93657966171303 L 48.63297559454709,54.936577493985524 L 48.63297176771277,54.93657673278084 L 46.90094096014388,54.93657673278084 L 46.900937133309554,54.936577493985524 L 46.900933889076065,54.93657966171303 L 46.900931721348556,54.93658290594652 L 46.900930960143874,54.936586732780846 L 46.900930960143874,89.93656673278085 L 46.900931721348556,89.93657055961518 L 46.900933889076065,89.93657380384866 L 46.900937133309554,89.93657597157618 L 46.90094096014388,89.93657673278085 L 48.63297176771277,89.93657673278085 L 48.63297559454709,89.93657597157618 L 48.63297883878058,89.93657380384866 L 48.63298100650809,89.93657055961518 L 48.63298176771277,89.93656673278085 L 48.63298176771277,54.936586732780846 L 48.63298100650809,54.93658290594652 z" /><path fill-rule="evenodd" fill="#eff821ff" stroke="#555555" stroke-width="1.3084707396347797" opacity="0.6" d="M 62.63298100650809,54.93658290594652 L 62.63297883878058,54.93657966171303 L 62.63297559454709,54.936577493985524 L 62.63297176771277,54.93657673278084 L 60.90094096014388,54.93657673278084 L 60.900937133309554,54.936577493985524 L 60.900933889076065,54.93657966171303 L 60.900931721348556,54.93658290594652 L 60.900930960143874,54.936586732780846 L 60.900930960143874,89.93656673278085 L 60.900931721348556,89.93657055961518 L 60.900933889076065,89.93657380384866 L 60.900937133309554,89.93657597157618 L 60.90094096014388,89.93657673278085 L 62.63297176771277,89.93657673278085 L 62.63297559454709,89.93657597157618 L 62.63297883878058,89.93657380384866 L 62.63298100650809,89.93657055961518 L 62.63298176771277,89.93656673278085 L 62.63298176771277,54.936586732780846 L 62.63298100650809,54.93658290594652 z" /><path fill-rule="evenodd" fill="#eff821ff" stroke="#555555" stroke-width="1.3084707396347797" opacity="0.6" d="M 102.63297559454706,89.93657597157618 L 102.63297883878055,89.93657380384866 L 102.63298100650806,89.93657055961518 L 102.63298176771274,89.93656673278085 L 102.63298176771274,54.936586732780846 L 102.63298100650806,54.93658290594652 L 102.63297883878055,54.93657966171303 L 102.63297559454706,54.936577493985524 L 102.63297176771273,54.93657673278084 L 100.90094096014387,54.93657673278084 L 100.90093713330954,54.936577493985524 L 100.90093388907606,54.93657966171303 L 100.90093172134854,54.93658290594652 L 100.90093096014387,54.936586732780846 L 100.90093096014387,89.93656673278085 L 100.90093172134854,89.93657055961518 L 100.90093388907606,89.93657380384866 L 100.90093713330954,89.93657597157618 L 100.90094096014387,89.93657673278085 L 102.63297176771273,89.93657673278085 L 102.63297559454706,89.93657597157618 z" /><path fill-rule="evenodd" fill="#eff821ff" stroke="#555555" stroke-width="1.3084707396347797" opacity="0.6" d="M 116.63297559454706,89.93657597157618 L 116.63297883878055,89.93657380384866 L 116.63298100650806,89.93657055961518 L 116.63298176771274,89.93656673278085 L 116.63298176771274,54.936586732780846 L 116.63298100650806,54.93658290594652 L 116.63297883878055,54.93657966171303 L 116.63297559454706,54.936577493985524 L 116.63297176771273,54.93657673278084 L 114.90094096014387,54.93657673278084 L 114.90093713330954,54.936577493985524 L 114.90093388907606,54.93657966171303 L 114.90093172134854,54.93658290594652 L 114.90093096014387,54.936586732780846 L 114.90093096014387,89.93656673278085 L 114.90093172134854,89.93657055961518 L 114.90093388907606,89.93657380384866 L 114.90093713330954,89.93657597157618 L 114.90094096014387,89.93657673278085 L 116.63297176771273,89.93657673278085 L 116.63297559454706,89.93657597157618 z" /><path fill-rule="evenodd" fill="#eff821ff" stroke="#555555" stroke-width="1.3084707396347797" opacity="0.6" d="M 166.63298100650806,54.93658290594652 L 166.63297883878056,54.93657966171303 L 166.63297559454708,54.936577493985524 L 166.63297176771275,54.93657673278084 L 164.90094096014386,54.93657673278084 L 164.90093713330953,54.936577493985524 L 164.90093388907604,54.93657966171303 L 164.90093172134854,54.93658290594652 L 164.90093096014385,54.936586732780846 L 164.90093096014385,89.93656673278085 L 164.90093172134854,89.93657055961518 L 164.90093388907604,89.93657380384866 L 164.90093713330953,89.93657597157618 L 164.90094096014386,89.93657673278085 L 166.63297176771275,89.93657673278085 L 166.63297559454708,89.93657597157618 L 166.63297883878056,89.93657380384866 L 166.63298100650806,89.93657055961518 L 166.63298176771275,89.93656673278085 L 166.63298176771275,54.936586732780846 L 166.63298100650806,54.93658290594652 z" /><path fill-rule="evenodd" fill="#eff821ff" stroke="#555555" stroke-width="1.3084707396347797" opacity="0.6" d="M 180.63298100650806,89.93657055961518 L 180.63298176771275,89.93656673278085 L 180.63298176771275,54.936586732780846 L 180.63298100650806,54.93658290594652 L 180.63297883878056,54.93657966171303 L 180.63297559454708,54.936577493985524 L 180.63297176771275,54.93657673278084 L 178.90094096014386,54.93657673278084 L 178.90093713330953,54.936577493985524 L 178.90093388907604,54.93657966171303 L 178.90093172134854,54.93658290594652 L 178.90093096014385,54.936586732780846 L 178.90093096014385,89.93656673278085 L 178.90093172134854,89.93657055961518 L 178.90093388907604,89.93657380384866 L 178.90093713330953,89.93657597157618 L 178.90094096014386,89.93657673278085 L 180.63297176771275,89.93657673278085 L 180.63297559454708,89.93657597157618 L 180.63297883878056,89.93657380384866 L 180.63298100650806,89.93657055961518 z" /><path fill-rule="evenodd" fill="#eff821ff" stroke="#555555" stroke-width="1.3084707396347797" opacity="0.6" d="M 190.63298100650806,89.93657055961518 L 190.63298176771275,89.93656673278085 L 190.63298176771275,54.936586732780846 L 190.63298100650806,54.93658290594652 L 190.63297883878056,54.93657966171303 L 190.63297559454708,54.936577493985524 L 190.63297176771275,54.93657673278084 L 188.90094096014386,54.93657673278084 L 188.90093713330953,54.936577493985524 L 188.90093388907604,54.93657966171303 L 188.90093172134854,54.93658290594652 L 188.90093096014385,54.936586732780846 L 188.90093096014385,89.93656673278085 L 188.90093172134854,89.93657055961518 L 188.90093388907604,89.93657380384866 L 188.90093713330953,89.93657597157618 L 188.90094096014386,89.93657673278085 L 190.63297176771275,89.93657673278085 L 190.63297559454708,89.93657597157618 L 190.63297883878056,89.93657380384866 L 190.63298100650806,89.93657055961518 z" /></g></g></svg>