<svg xmlns="http://www.w3.org/2000/svg" xmlns:xlink="http://www.w3.org/1999/xlink" width="300" height="300" viewBox="-2.8330436360716886 47.33657673278085 205.2 50.199999999999996" preserveAspectRatio="xMinYMin meet"><g transform="matrix(1,0,0,-1,0,144.8731534655617)"><g><path fill-rule="evenodd" fill="#0c0786ff" stroke="#555555" stroke-width="1.3679999999999999" opacity="0.6" d="M 7.902037926191294,89.93657673278085 L 8.90093459621556,89.93657673278085 L 8.90093459621556,54.9366 L 8.900939224353204,54.93657673278085 L 7.902037926191295,54.93657673278085 L 4.766956363928312,54.93657673278085 L 4.766956363928314,89.93657673278085 L 7.902037926191294,89.93657673278085 z" /><path fill-rule="evenodd" fill="#0c0786ff" stroke="#555555" stroke-width="1.3679999999999999" opacity="0.6" d="M 11.631882073808702,89.93657673278085 L 21.902034290119616,89.93657673278085 L 22.90093096014388,89.93657673278085 L 22.90093096014388,54.93657673278085 L 21.902034290119616,54.93657673278085 L 11.6318820738087,54.93657673278085 L 10.632980775646795,54.93657673278085 L 10.632985403784438,54.9366 L 10.632985403784438,89.93657673278085 L 11.631882073808702,89.93657673278085 z" /><path fill-rule="evenodd" fill="#0c0786ff" stroke="#555555" stroke-width="1.3679999999999999" opacity="0.6" d="M 24.632981767712756,89.93657673278085 L 25.631878437737022,89.93657673278085 L 45.902034290119616,89.93657673278085 L 46.90093096014388,89.93657673278085 L 46.90093096014388,54.93657673278085 L 45.902034290119616,54.93657673278085 L 25.631878437737022,54.93657673278085 L 24.632981767712756,54.93657673278085 L 24.632981767712756,89.93657673278085 z" /><path fill-rule="evenodd" fill="#0c0786ff" stroke="#555555" stroke-width="1.3679999999999999" opacity="0.6" d="M 49.63187843773703,89.93657673278085 L 59.902034290119616,89.93657673278085 L 60.90093096014388,89.93657673278085 L 60.90093096014388,54.93657673278085 L 59.902034290119616,54.93657673278085 L 49.63187843773703,54.93657673278085 L 48.632981767712764,54.93657673278085 L 48.632981767712764,89.93657673278085 L 49.63187843773703,89.93657673278085 z" /><path fill-rule="evenodd" fill="#0c0786ff" stroke="#555555" stroke-width="1.3679999999999999" opacity="0.6" d="M 63.63187843773703,89.93657673278085 L 99.9020342901196,89.93657673278085 L 100.90093096014387,89.93657673278085 L 100.90093096014387,54.93657673278085 L 99.9020342901196,54.93657673278085 L 63.63187843773703,54.93657673278085 L 62.632981767712764,54.93657673278085 L 62.632981767712764,89.93657673278085 L 63.63187843773703,89.93657673278085 z M 71.82214254985325,66.89628764046067 L 73.72892509542459,74.68231636821025 L 65.14840364035362,76.58909891378157 L 65.3073021858179,67.3729832768535 L 71.82214254985325,66.89628764046067 z M 85.01072182338827,79.76706982306712 L 83.73953345967405,67.3729832768535 L 98.04040255145898,64.19501236756795 L 99.62938800610175,77.38359164110295 L 85.01072182338827,79.76706982306712 z" /><path fill-rule="evenodd" fill="#0c0786ff" stroke="#555555" stroke-width="1.3679999999999999" opacity="0.6" d="M 113.9020342901196,89.93657673278085 L 114.90093096014387,89.93657673278085 L 114.90093096014387,54.93657673278085 L 113.9020342901196,54.93657673278085 L 103.631878437737,54.93657673278085 L 102.63298176771274,54.93657673278085 L 102.63298176771274,89.93657673278085 L 103.631878437737,89.93657673278085 L 113.9020342901196,89.93657673278085 z" /><path fill-rule="evenodd" fill="#0c0786ff" stroke="#555555" stroke-width="1.3679999999999999" opacity="0.6" d="M 163.9020342901196,54.93657673278085 L 117.631878437737,54.93657673278085 L 116.63298176771274,54.93657673278085 L 116.63298176771274,89.93657673278085 L 117.631878437737,89.93657673278085 L 163.9020342901196,89.93657673278085 L 164.90093096014385,89.93657673278085 L 164.90093096014385,54.93657673278085 L 163.9020342901196,54.93657673278085 z M 161.2571379226102,79.3025475704453 L 148.5143957762988,79.10849565958776 L 148.3850278357272,63.32560690984172 L 162.0333455660403,63.26092293955587 L 161.2571379226102,79.3025475704453 z M 130.4557058261715,79.29037418667428 L 119.1739090982078,79.29037418667428 L 120.2861989164578,63.8772152766394 L 130.9324014625643,63.40051964024657 L 130.4557058261715,79.29037418667428 z" /><path fill-rule="evenodd" fill="#0c0786ff" stroke="#555555" stroke-width="1.3679999999999999" opacity="0.6" d="M 167.63187843773702,89.93657673278085 L 177.9020342901196,89.93657673278085 L 178.90093096014385,89.93657673278085 L 178.90093096014385,54.93657673278085 L 177.9020342901196,54.93657673278085 L 167.63187843773702,54.93657673278085 L 166.63298176771275,54.93657673278085 L 166.63298176771275,89.93657673278085 L 167.63187843773702,89.93657673278085 z" /><path fill-rule="evenodd" fill="#0c0786ff" stroke="#555555" stroke-width="1.3679999999999999" opacity="0.6" d="M 180.63298176771275,89.93657673278085 L 181.63187843773702,89.93657673278085 L 187.9020342901196,89.93657673278085 L 188.90093096014385,89.93657673278085 L 188.90093096014385,54.93657673278085 L 187.9020342901196,54.93657673278085 L 181.63187843773702,54.93657673278085 L 180.63298176771275,54.93657673278085 L 180.63298176771275,89.93657673278085 z" /><path fill-rule="evenodd" fill="#0c0786ff" stroke="#555555" stroke-width="1.3679999999999999" opacity="0.6" d="M 191.63187843773702,54.93657673278085 L 190.63298176771275,54.93657673278085 L 190.63298176771275,89.93657673278085 L 191.63187843773702,89.93657673278085 L 194.7669563639283,89.93657673278085 L 194.7669563639283,54.93657673278085 L 191.63187843773702,54.93657673278085 z" /><path fill-rule="evenodd" fill="#7e03a7ff" stroke="#555555" stroke-width="1.3679999999999999" opacity="0.6" d="M 7.902037926191295,54.93657673278085 L 4.766956363928312,54.93657673278085 L 4.766956363928314,89.93657673278085 L 7.902037926191294,89.93657673278085 L 8.90093459621556,89.93657673278085 L 8.90093459621556,54.9366 L 8.900939224353204,54.93657673278085 L 7.902037926191295,54.93657673278085 z" /><path fill-rule="evenodd" fill="#7e03a7ff" stroke="#555555" stroke-width="1.3679999999999999" opacity="0.6" d="M 11.631882073808702,89.93657673278085 L 21.902034290119616,89.93657673278085 L 22.90093096014388,89.93657673278085 L 22.90093096014388,54.93657673278085 L 21.902034290119616,54.93657673278085 L 11.6318820738087,54.93657673278085 L 10.632980775646795,54.93657673278085 L 10.632985403784438,54.9366 L 10.632985403784438,89.93657673278085 L 11.631882073808702,89.93657673278085 z" /><path fill-rule="evenodd" fill="#7e03a7ff" stroke="#555555" stroke-width="1.3679999999999999" opacity="0.6" d="M 46.90093096014388,89.93657673278085 L 46.90093096014388,54.93657673278085 L 45.902034290119616,54.93657673278085 L 25.631878437737022,54.93657673278085 L 24.632981767712756,54.93657673278085 L 24.632981767712756,89.93657673278085 L 25.631878437737022,89.93657673278085 L 45.902034290119616,89.93657673278085 L 46.90093096014388,89.93657673278085 z" /><path fill-rule="evenodd" fill="#7e03a7ff" stroke="#555555" stroke-width="1.3679999999999999" opacity="0.6" d="M 59.902034290119616,54.93657673278085 L 49.63187843773703,54.93657673278085 L 48.632981767712764,54.93657673278085 L 48.632981767712764,89.93657673278085 L 49.63187843773703,89.93657673278085 L 59.902034290119616,89.93657673278085 L 60.90093096014388,89.93657673278085 L 60.90093096014388,54.93657673278085 L 59.902034290119616,54.93657673278085 z" /><path fill-rule="evenodd" fill="#7e03a7ff" stroke="#555555" stroke-width="1.3679999999999999" opacity="0.6" d="M 62.632981767712764,54.93657673278085 L 62.632981767712764,89.93657673278085 L 63.63187843773703,89.93657673278085 L 99.9020342901196,89.93657673278085 L 100.90093096014387,89.93657673278085 L 100.90093096014387,54.93657673278085 L 99.9020342901196,54.93657673278085 L 63.63187843773703,54.93657673278085 L 62.632981767712764,54.93657673278085 z M 65.14840364035362,76.58909891378157 L 65.3073021858179,67.3729832768535 L 71.82214254985325,66.89628764046067 L 73.72892509542459,74.68231636821025 L 65.14840364035362,76.58909891378157 z M 98.04040255145898,64.19501236756795 L 99.62938800610175,77.38359164110295 L 85.01072182338827,79.76706982306712 L 83.73953345967405,67.3729832768535 L 98.04040255145898,64.19501236756795 z" /><path fill-rule="evenodd" fill="#7e03a7ff" stroke="#555555" stroke-width="1.3679999999999999" opacity="0.6" d="M 114.90093096014387,89.93657673278085 L 114.90093096014387,54.93657673278085 L 113.9020342901196,54.93657673278085 L 103.631878437737,54.93657673278085 L 102.63298176771274,54.93657673278085 L 102.63298176771274,89.93657673278085 L 103.631878437737,89.93657673278085 L 113.9020342901196,89.93657673278085 L 114.90093096014387,89.93657673278085 z" /><path fill-rule="evenodd" fill="#7e03a7ff" stroke="#555555" stroke-width="1.3679999999999999" opacity="0.6" d="M 163.9020342901196,89.93657673278085 L 164.90093096014385,89.93657673278085 L 164.90093096014385,54.93657673278085 L 163.9020342901196,54.93657673278085 L 117.631878437737,54.93657673278085 L 116.63298176771274,54.93657673278085 L 116.63298176771274,89.93657673278085 L 117.631878437737,89.93657673278085 L 163.9020342901196,89.93657673278085 z M 148.5143957762988,79.10849565958776 L 148.3850278357272,63.32560690984172 L 162.0333455660403,63.26092293955587 L 161.2571379226102,79.3025475704453 L 148.5143957762988,79.10849565958776 z M 119.1739090982078,79.29037418667428 L 120.2861989164578,63.8772152766394 L 130.9324014625643,63.40051964024657 L 130.4557058261715,79.29037418667428 L 119.1739090982078,79.29037418667428 z" /><path fill-rule="evenodd" fill="#7e03a7ff" stroke="#555555" stroke-width="1.3679999999999999" opacity="0.6" d="M 178.90093096014385,54.93657673278085 L 177.9020342901196,54.93657673278085 L 167.63187843773702,54.93657673278085 L 166.63298176771275,54.93657673278085 L 166.63298176771275,89.93657673278085 L 167.63187843773702,89.93657673278085 L 177.9020342901196,89.93657673278085 L 178.90093096014385,89.93657673278085 L 178.90093096014385,54.93657673278085 z" /><path fill-rule="evenodd" fill="#7e03a7ff" stroke="#555555" stroke-width="1.3679999999999999" opacity="0.6" d="M 188.90093096014385,54.93657673278085 L 187.9020342901196,54.93657673278085 L 181.63187843773702,54.93657673278085 L 180.63298176771275,54.93657673278085 L 180.63298176771275,89.93657673278085 L 181.63187843773702,89.93657673278085 L 187.9020342901196,89.93657673278085 L 188.90093096014385,89.93657673278085 L 188.90093096014385,54.93657673278085 z" /><path fill-rule="evenodd" fill="#7e03a7ff" stroke="#555555" stroke-width="1.3679999999999999" opacity="0.6" d="M 191.63187843773702,54.93657673278085 L 190.63298176771275,54.93657673278085 L 190.63298176771275,89.93657673278085 L 191.63187843773702,89.93657673278085 L 194.7669563639283,89.93657673278085 L 194.7669563639283,54.93657673278085 L 191.63187843773702,54.93657673278085 z" /><path fill-rule="evenodd" fill="#cb4777ff" stroke="#555555" stroke-width="1.3679999999999999" opacity="0.6" d="M 8.900939224353204,54.93657673278085 L 4.766956363928312,54.93657673278085 L 4.766956363928314,89.93657673278085 L 8.90093459621556,89.93657673278085 L 10.632985403784438,89.93657673278085 L 22.90093096014388,89.93657673278085 L 24.632981767712756,89.93657673278085 L 46.90093096014388,89.93657673278085 L 48.632981767712764,89.93657673278085 L 60.90093096014388,89.93657673278085 L 62.632981767712764,89.93657673278085 L 100.90093096014387,89.93657673278085 L 102.63298176771274,89.93657673278085 L 114.90093096014387,89.93657673278085 L 116.63298176771274,89.93657673278085 L 164.90093096014385,89.93657673278085 L 166.63298176771275,89.93657673278085 L 178.90093096014385,89.93657673278085 L 180.63298176771275,89.93657673278085 L 188.90093096014385,89.93657673278085 L 190.63298176771275,89.93657673278085 L 194.7669563639283,89.93657673278085 L 194.7669563639283,54.93657673278085 L 190.63298176771275,54.93657673278085 L 188.90093096014385,54.93657673278085 L 180.63298176771275,54.93657673278085 L 178.90093096014385,54.93657673278085 L 166.63298176771275,54.93657673278085 L 164.90093096014385,54.93657673278085 L 116.63298176771274,54.93657673278085 L 114.90093096014387,54.93657673278085 L 102.63298176771274,54.93657673278085 L 100.90093096014387,54.93657673278085 L 62.632981767712764,54.93657673278085 L 60.90093096014388,54.93657673278085 L 48.632981767712764,54.93657673278085 L 46.90093096014388,54.93657673278085 L 24.632981767712756,54.93657673278085 L 22.90093096014388,54.93657673278085 L 10.632980775646795,54.93657673278085 L 8.900939224353204,54.93657673278085 z M 161.2571379226102,79.3025475704453 L 148.5143957762988,79.10849565958776 L 148.3850278357272,63.32560690984172 L 162.0333455660403,63.26092293955587 L 161.2571379226102,79.3025475704453 z M 130.4557058261715,79.29037418667428 L 119.1739090982078,79.29037418667428 L 120.2861989164578,63.8772152766394 L 130.9324014625643,63.40051964024657 L 130.4557058261715,79.29037418667428 z M 71.82214254985325,66.89628764046067 L 73.72892509542459,74.68231636821025 L 65.14840364035362,76.58909891378157 L 65.3073021858179,67.3729832768535 L 71.82214254985325,66.89628764046067 z M 85.01072182338827,79.76706982306712 L 83.73953345967405,67.3729832768535 L 98.04040255145898,64.19501236756795 L 99.62938800610175,77.38359164110295 L 85.01072182338827,79.76706982306712 z" /><path fill-rule="evenodd" fill="#f89540ff" stroke="#555555" stroke-width="1.3679999999999999" opacity="0.6" d="M 8.900939224353204,54.93657673278085 L 7.902037926191295,54.93657673278085 L 4.766956363928312,54.93657673278085 L 4.766956363928314,89.93657673278085 L 7.902037926191294,89.93657673278085 L 8.90093459621556,89.93657673278085 L 8.90093459621556,54.9366 L 8.900939224353204,54.93657673278085 z" /><path fill-rule="evenodd" fill="#f89540ff" stroke="#555555" stroke-width="1.3679999999999999" opacity="0.6" d="M 22.90093096014388,54.93657673278085 L 21.902034290119616,54.93657673278085 L 11.6318820738087,54.93657673278085 L 10.632980775646795,54.93657673278085 L 10.632985403784438,54.9366 L 10.632985403784438,89.93657673278085 L 11.631882073808702,89.93657673278085 L 21.902034290119616,89.93657673278085 L 22.90093096014388,89.93657673278085 L 22.90093096014388,54.93657673278085 z" /><path fill-rule="evenodd" fill="#f89540ff" stroke="#555555" stroke-width="1.3679999999999999" opacity="0.6" d="M 24.632981767712756,89.93657673278085 L 25.631878437737022,89.93657673278085 L 45.902034290119616,89.93657673278085 L 46.90093096014388,89.93657673278085 L 46.90093096014388,54.93657673278085 L 45.902034290119616,54.93657673278085 L 25.631878437737022,54.93657673278085 L 24.632981767712756,54.93657673278085 L 24.632981767712756,89.93657673278085 z" /><path fill-rule="evenodd" fill="#f89540ff" stroke="#555555" stroke-width="1.3679999999999999" opacity="0.6" d="M 59.902034290119616,89.93657673278085 L 60.90093096014388,89.93657673278085 L 60.90093096014388,54.93657673278085 L 59.902034290119616,54.93657673278085 L 49.63187843773703,54.93657673278085 L 48.632981767712764,54.93657673278085 L 48.632981767712764,89.93657673278085 L 49.63187843773703,89.93657673278085 L 59.902034290119616,89.93657673278085 z" /><path fill-rule="evenodd" fill="#f89540ff" stroke="#555555" stroke-width="1.3679999999999999" opacity="0.6" d="M 62.632981767712764,89.93657673278085 L 63.63187843773703,89.93657673278085 L 99.9020342901196,89.93657673278085 L 100.90093096014387,89.93657673278085 L 100.90093096014387,54.93657673278085 L 99.9020342901196,54.93657673278085 L 63.63187843773703,54.93657673278085 L 62.632981767712764,54.93657673278085 L 62.632981767712764,89.93657673278085 z M 65.3073021858179,67.3729832768535 L 71.82214254985325,66.89628764046067 L 73.72892509542459,74.68231636821025 L 65.14840364035362,76.58909891378157 L 65.3073021858179,67.3729832768535 z M 99.62938800610175,77.38359164110295 L 85.01072182338827,79.76706982306712 L 83.73953345967405,67.3729832768535 L 98.04040255145898,64.19501236756795 L 99.62938800610175,77.38359164110295 z" /><path fill-rule="evenodd" fill="#f89540ff" stroke="#555555" stroke-width="1.3679999999999999" opacity="0.6" d="M 113.9020342901196,89.93657673278085 L 114.90093096014387,89.93657673278085 L 114.90093096014387,54.93657673278085 L 113.9020342901196,54.93657673278085 L 103.631878437737,54.93657673278085 L 102.63298176771274,54.93657673278085 L 102.63298176771274,89.93657673278085 L 103.631878437737,89.93657673278085 L 113.9020342901196,89.93657673278085 z" /><path fill-rule="evenodd" fill="#f89540ff" stroke="#555555" stroke-width="1.3679999999999999" opacity="0.6" d="M 164.90093096014385,54.93657673278085 L 163.9020342901196,54.93657673278085 L 117.631878437737,54.93657673278085 L 116.63298176771274,54.93657673278085 L 116.63298176771274,89.93657673278085 L 117.631878437737,89.93657673278085 L 163.9020342901196,89.93657673278085 L 164.90093096014385,89.93657673278085 L 164.90093096014385,54.93657673278085 z M 162.0333455660403,63.26092293955587 L 161.2571379226102,79.3025475704453 L 148.5143957762988,79.10849565958776 L 148.3850278357272,63.32560690984172 L 162.0333455660403,63.26092293955587 z M 130.9324014625643,63.40051964024657 L 130.4557058261715,79.29037418667428 L 119.1739090982078,79.29037418667428 L 120.2861989164578,63.8772152766394 L 130.9324014625643,63.40051964024657 z" /><path fill-rule="evenodd" fill="#f89540ff" stroke="#555555" stroke-width="1.3679999999999999" opacity="0.6" d="M 178.90093096014385,89.93657673278085 L 178.90093096014385,54.93657673278085 L 177.9020342901196,54.93657673278085 L 167.63187843773702,54.93657673278085 L 166.63298176771275,54.93657673278085 L 166.63298176771275,89.93657673278085 L 167.63187843773702,89.93657673278085 L 177.9020342901196,89.93657673278085 L 178.90093096014385,89.93657673278085 z" /><path fill-rule="evenodd" fill="#f89540ff" stroke="#555555" stroke-width="1.3679999999999999" opacity="0.6" d="M 180.63298176771275,89.93657673278085 L 181.63187843773702,89.93657673278085 L 187.9020342901196,89.93657673278085 L 188.90093096014385,89.93657673278085 L 188.90093096014385,54.93657673278085 L 187.9020342901196,54.93657673278085 L 181.63187843773702,54.93657673278085 L 180.63298176771275,54.93657673278085 L 180.63298176771275,89.93657673278085 z" /><path fill-rule="evenodd" fill="#f89540ff" stroke="#555555" stroke-width="1.3679999999999999" opacity="0.6" d="M 191.63187843773702,89.93657673278085 L 194.7669563639283,89.93657673278085 L 194.7669563639283,54.93657673278085 L 191.63187843773702,54.93657673278085 L 190.63298176771275,54.93657673278085 L 190.63298176771275,89.93657673278085 L 191.63187843773702,89.93657673278085 z" /><path fill-rule="evenodd" fill="#eff821ff" stroke="#555555" stroke-width="1.3679999999999999" opacity="0.6" d="M 7.902037926191295,54.93657673278085 L 4.766956363928312,54.93657673278085 L 4.766956363928314,89.93657673278085 L 7.902037926191294,89.93657673278085 L 8.90093459621556,89.93657673278085 L 8.90093459621556,54.9366 L 8.900939224353204,54.93657673278085 L 7.902037926191295,54.93657673278085 z" /><path fill-rule="evenodd" fill="#eff821ff" stroke="#555555" stroke-width="1.3679999999999999" opacity="0.6" d="M 11.631882073808702,89.93657673278085 L 21.902034290119616,89.93657673278085 L 22.90093096014388,89.93657673278085 L 22.90093096014388,54.93657673278085 L 21.902034290119616,54.93657673278085 L 11.6318820738087,54.93657673278085 L 10.632980775646795,54.93657673278085 L 10.632985403784438,54.9366 L 10.632985403784438,89.93657673278085 L 11.631882073808702,89.93657673278085 z" /><path fill-rule="evenodd" fill="#eff821ff" stroke="#555555" stroke-width="1.3679999999999999" opacity="0.6" d="M 24.632981767712756,89.93657673278085 L 25.631878437737022,89.93657673278085 L 45.902034290119616,89.93657673278085 L 46.90093096014388,89.93657673278085 L 46.90093096014388,54.93657673278085 L 45.902034290119616,54.93657673278085 L 25.631878437737022,54.93657673278085 L 24.632981767712756,54.93657673278085 L 24.632981767712756,89.93657673278085 z" /><path fill-rule="evenodd" fill="#eff821ff" stroke="#555555" stroke-width="1.3679999999999999" opacity="0.6" d="M 49.63187843773703,89.93657673278085 L 59.902034290119616,89.93657673278085 L 60.90093096014388,89.93657673278085 L 60.90093096014388,54.93657673278085 L 59.902034290119616,54.93657673278085 L 49.63187843773703,54.93657673278085 L 48.632981767712764,54.93657673278085 L 48.632981767712764,89.93657673278085 L 49.63187843773703,89.93657673278085 z" /><path fill-rule="evenodd" fill="#eff821ff" stroke="#555555" stroke-width="1.3679999999999999" opacity="0.6" d="M 100.90093096014387,89.93657673278085 L 100.90093096014387,54.93657673278085 L 99.9020342901196,54.93657673278085 L 63.63187843773703,54.93657673278085 L 62.632981767712764,54.93657673278085 L 62.632981767712764,89.93657673278085 L 63.63187843773703,89.93657673278085 L 99.9020342901196,89.93657673278085 L 100.90093096014387,89.93657673278085 z M 65.14840364035362,76.58909891378157 L 65.3073021858179,67.3729832768535 L 71.82214254985325,66.89628764046067 L 73.72892509542459,74.68231636821025 L 65.14840364035362,76.58909891378157 z M 98.04040255145898,64.19501236756795 L 99.62938800610175,77.38359164110295 L 85.01072182338827,79.76706982306712 L 83.73953345967405,67.3729832768535 L 98.04040255145898,64.19501236756795 z" /><path fill-rule="evenodd" fill="#eff821ff" stroke="#555555" stroke-width="1.3679999999999999" opacity="0.6" d="M 114.90093096014387,89.93657673278085 L 114.90093096014387,54.93657673278085 L 113.9020342901196,54.93657673278085 L 103.631878437737,54.93657673278085 L 102.63298176771274,54.93657673278085 L 102.63298176771274,89.93657673278085 L 103.631878437737,89.93657673278085 L 113.9020342901196,89.93657673278085 L 114.90093096014387,89.93657673278085 z" /><path fill-rule="evenodd" fill="#eff821ff" stroke="#555555" stroke-width="1.3679999999999999" opacity="0.6" d="M 117.631878437737,89.93657673278085 L 163.9020342901196,89.93657673278085 L 164.90093096014385,89.93657673278085 L 164.90093096014385,54.93657673278085 L 163.9020342901196,54.93657673278085 L 117.631878437737,54.93657673278085 L 116.63298176771274,54.93657673278085 L 116.63298176771274,89.93657673278085 L 117.631878437737,89.93657673278085 z M 161.2571379226102,79.3025475704453 L 148.5143957762988,79.10849565958776 L 148.3850278357272,63.32560690984172 L 162.0333455660403,63.26092293955587 L 161.2571379226102,79.3025475704453 z M 130.4557058261715,79.29037418667428 L 119.1739090982078,79.29037418667428 L 120.2861989164578,63.8772152766394 L 130.9324014625643,63.40051964024657 L 130.4557058261715,79.29037418667428 z" /><path fill-rule="evenodd" fill="#eff821ff" stroke="#555555" stroke-width="1.3679999999999999" opacity="0.6" d="M 178.90093096014385,89.93657673278085 L 178.90093096014385,54.93657673278085 L 177.9020342901196,54.93657673278085 L 167.63187843773702,54.93657673278085 L 166.63298176771275,54.93657673278085 L 166.63298176771275,89.93657673278085 L 167.63187843773702,89.93657673278085 L 177.9020342901196,89.93657673278085 L 178.90093096014385,89.93657673278085 z" /><path fill-rule="evenodd" fill="#eff821ff" stroke="#555555" stroke-width="1.3679999999999999" opacity="0.6" d="M 187.9020342901196,54.93657673278085 L 181.63187843773702,54.93657673278085 L 180.63298176771275,54.93657673278085 L 180.63298176771275,89.93657673278085 L 181.63187843773702,89.93657673278085 L 187.9020342901196,89.93657673278085 L 188.90093096014385,89.93657673278085 L 188.90093096014385,54.93657673278085 L 187.9020342901196,54.93657673278085 z" /><path fill-rule="evenodd" fill="#eff821ff" stroke="#555555" stroke-width="1.3679999999999999" opacity="0.6" d="M 191.63187843773702,54.93657673278085 L 190.63298176771275,54.93657673278085 L 190.63298176771275,89.93657673278085 L 191.63187843773702,89.93657673278085 L 194.7669563639283,89.93657673278085 L 194.7669563639283,54.93657673278085 L 191.63187843773702,54.93657673278085 z" /></g></g></svg>