<svg xmlns="http://www.w3.org/2000/svg" xmlns:xlink="http://www.w3.org/1999/xlink" width="300" height="300" viewBox="-22.60552466442658 25.06409570442596 244.74496205670977 94.74496205670977" preserveAspectRatio="xMinYMin meet"><g transform="matrix(1,0,0,-1,0,144.8731534655617)"><g><path fill-rule="evenodd" fill="#0c0786ff" stroke="#555555" stroke-width="1.6316330803780652" opacity="0.6" d="M 67.19185433067337,74.08621110894451 L 71.3002521265929,73.17323355495952 L 70.28174933715694,69.01434636354148 L 67.27550742193648,69.23431496903409 L 67.19185433067337,74.08621110894451 z" /><path fill-rule="evenodd" fill="#0c0786ff" stroke="#555555" stroke-width="1.6316330803780652" opacity="0.6" d="M 97.41429173064567,75.71834016136191 L 96.31887303143208,66.62636185566713 L 85.91067237028685,68.93929525505474 L 86.78372804454501,77.45158412995795 L 97.41429173064567,75.71834016136191 z" /><path fill-rule="evenodd" fill="#0c0786ff" stroke="#555555" stroke-width="1.6316330803780652" opacity="0.6" d="M 8.90093459621556,54.9366 L 8.900939224353204,54.93657673278085 L 4.766956363928312,54.93657673278085 L 4.766956363928314,89.93657673278085 L 8.90093459621556,89.93657673278085 L 8.90093459621556,54.9366 z" /><path fill-rule="evenodd" fill="#0c0786ff" stroke="#555555" stroke-width="1.6316330803780652" opacity="0.6" d="M 22.90093096014388,54.93657673278085 L 10.632980775646795,54.93657673278085 L 10.632985403784438,54.9366 L 10.632985403784438,89.93657673278085 L 22.90093096014388,89.93657673278085 L 22.90093096014388,54.93657673278085 z" /><path fill-rule="evenodd" fill="#0c0786ff" stroke="#555555" stroke-width="1.6316330803780652" opacity="0.6" d="M 46.90093096014388,89.93657673278085 L 46.90093096014388,54.93657673278085 L 24.632981767712756,54.93657673278085 L 24.632981767712756,89.93657673278085 L 46.90093096014388,89.93657673278085 z" /><path fill-rule="evenodd" fill="#0c0786ff" stroke="#555555" stroke-width="1.6316330803780652" opacity="0.6" d="M 60.90093096014388,54.93657673278085 L 48.632981767712764,54.93657673278085 L 48.632981767712764,89.93657673278085 L 60.90093096014388,89.93657673278085 L 60.90093096014388,54.93657673278085 z" /><path fill-rule="evenodd" fill="#0c0786ff" stroke="#555555" stroke-width="1.6316330803780652" opacity="0.6" d="M 100.90093096014387,54.93657673278085 L 62.632981767712764,54.93657673278085 L 62.632981767712764,89.93657673278085 L 100.90093096014387,89.93657673278085 L 100.90093096014387,54.93657673278085 z M 73.72892509542459,74.68231636821025 L 65.14840364035362,76.58909891378157 L 65.3073021858179,67.3729832768535 L 71.82214254985325,66.89628764046067 L 73.72892509542459,74.68231636821025 z M 85.01072182338827,79.76706982306712 L 83.73953345967405,67.3729832768535 L 98.04040255145898,64.19501236756795 L 99.62938800610175,77.38359164110295 L 85.01072182338827,79.76706982306712 z" /><path fill-rule="evenodd" fill="#0c0786ff" stroke="#555555" stroke-width="1.6316330803780652" opacity="0.6" d="M 213.0748091679606,110.74442953681314 L 213.0748091679606,34.12872392874854 L -13.540896440103994,34.12872392874854 L -13.540896440103994,110.74442953681314 L 213.0748091679606,110.74442953681314 z M 179.86761513526983,53.08881793497743 L 180.632982,52.936577 L 188.900931,52.936577 L 189.66629786473018,53.08881793497743 L 189.7669565,53.15607588478683 L 189.86761513526983,53.08881793497743 L 190.632982,52.936577 L 194.766956,52.936577 L 195.53232286473016,53.08881793497743 L 196.1811695623731,53.52236343762691 L 196.61471506502258,54.17121013526982 L 196.766956,54.936577 L 196.766956,89.936577 L 196.61471506502258,90.70194386473018 L 196.1811695623731,91.35079056237309 L 195.53232286473016,91.78433606502257 L 194.766956,91.936577 L 190.632982,91.936577 L 189.86761513526983,91.78433606502257 L 189.7669565,91.71707811521317 L 189.66629786473018,91.78433606502257 L 188.900931,91.936577 L 180.632982,91.936577 L 179.86761513526983,91.78433606502257 L 179.7669565,91.71707811521317 L 179.66629786473018,91.78433606502257 L 178.900931,91.936577 L 166.632982,91.936577 L 165.86761513526983,91.78433606502257 L 165.7669565,91.71707811521317 L 165.66629786473018,91.78433606502257 L 164.900931,91.936577 L 116.632982,91.936577 L 115.86761513526982,91.78433606502257 L 115.76695649999999,91.71707811521317 L 115.66629786473018,91.78433606502257 L 114.900931,91.936577 L 102.632982,91.936577 L 101.86761513526982,91.78433606502257 L 101.76695649999999,91.71707811521317 L 101.66629786473018,91.78433606502257 L 100.900931,91.936577 L 62.632982,91.936577 L 61.867615135269816,91.78433606502257 L 61.7669565,91.71707811521317 L 61.66629786473018,91.78433606502257 L 60.900931,91.936577 L 48.632982,91.936577 L 47.867615135269816,91.78433606502257 L 47.7669565,91.71707811521317 L 47.66629786473018,91.78433606502257 L 46.900931,91.936577 L 24.632982,91.936577 L 23.86761513526982,91.78433606502257 L 23.7669565,91.71707811521317 L 23.66629786473018,91.78433606502257 L 22.900931,91.936577 L 10.632985,91.936577 L 9.86761813526982,91.78433606502257 L 9.766960000000001,91.71707844930249 L 9.66630186473018,91.78433606502257 L 8.900935,91.936577 L 4.766956,91.936577 L 4.001589135269821,91.78433606502257 L 3.3527424376269055,91.35079056237309 L 2.919196934977427,90.70194386473018 L 2.7669560000000004,89.936577 L 2.7669560000000004,54.936577 L 2.9191969349774265,54.17121013526982 L 3.352742437626905,53.52236343762691 L 4.001589135269819,53.08881793497743 L 4.766956,52.936577 L 8.900939,52.936577 L 9.745114042059173,53.12346682729554 L 9.766959999993976,53.140199356602714 L 9.788805957906845,53.12346682731136 L 10.632981,52.936577 L 22.900931,52.936577 L 23.66629786473018,53.08881793497743 L 23.7669565,53.15607588478683 L 23.86761513526982,53.08881793497743 L 24.632982,52.936577 L 46.900931,52.936577 L 47.66629786473018,53.08881793497743 L 47.7669565,53.15607588478683 L 47.867615135269816,53.08881793497743 L 48.632982,52.936577 L 60.900931,52.936577 L 61.66629786473018,53.08881793497743 L 61.7669565,53.15607588478683 L 61.867615135269816,53.08881793497743 L 62.632982,52.936577 L 100.900931,52.936577 L 101.66629786473018,53.08881793497743 L 101.76695649999999,53.15607588478683 L 101.86761513526982,53.08881793497743 L 102.632982,52.936577 L 114.900931,52.936577 L 115.66629786473018,53.08881793497743 L 115.76695649999999,53.15607588478683 L 115.86761513526982,53.08881793497743 L 116.632982,52.936577 L 164.900931,52.936577 L 165.66629786473018,53.08881793497743 L 165.7669565,53.15607588478683 L 165.86761513526983,53.08881793497743 L 166.632982,52.936577 L 178.900931,52.936577 L 179.66629786473018,53.08881793497743 L 179.7669565,53.15607588478683 L 179.86761513526983,53.08881793497743 z M -3.542742467349905,47.393285313693575 L -3.733043636071688,46.43657673278085 L -3.542742467349905,45.479868151868125 L -3.000810589038057,44.66880977981448 L -2.189752216984412,44.12687790150263 L -1.2330436360716879,43.93657673278085 L -0.2763350551589635,44.12687790150263 L 0.5347233168946808,44.66880977981448 L 1.0766551952065289,45.479868151868125 L 1.266956363928312,46.43657673278085 L 1.076655195206528,47.393285313693575 L 0.5347233168946803,48.20434368574722 L -0.27633505515896306,48.74627556405907 L -1.2330436360716885,48.93657673278085 L -2.189752216984414,48.74627556405907 L -3.0008105890380574,48.20434368574722 L -3.542742467349905,47.393285313693575 z M 198.4572575326501,47.393285313693575 L 198.2669563639283,46.43657673278085 L 198.4572575326501,45.479868151868125 L 198.99918941096195,44.66880977981448 L 199.81024778301557,44.12687790150263 L 200.7669563639283,43.93657673278085 L 201.72366494484103,44.12687790150263 L 202.53472331689466,44.66880977981448 L 203.0766551952065,45.479868151868125 L 203.2669563639283,46.43657673278085 L 203.0766551952065,47.393285313693575 L 202.53472331689466,48.20434368574722 L 201.72366494484103,48.74627556405907 L 200.7669563639283,48.93657673278085 L 199.81024778301557,48.74627556405907 L 198.99918941096192,48.20434368574722 L 198.4572575326501,47.393285313693575 z M -3.542742467349905,99.39328531369357 L -3.733043636071688,98.43657673278085 L -3.542742467349905,97.47986815186813 L -3.000810589038057,96.66880977981448 L -2.189752216984412,96.12687790150264 L -1.2330436360716879,95.93657673278085 L -0.2763350551589635,96.12687790150264 L 0.5347233168946808,96.66880977981448 L 1.0766551952065289,97.47986815186813 L 1.266956363928312,98.43657673278085 L 1.076655195206528,99.39328531369358 L 0.5347233168946803,100.20434368574722 L -0.27633505515896306,100.74627556405906 L -1.2330436360716885,100.93657673278085 L -2.189752216984414,100.74627556405906 L -3.0008105890380574,100.20434368574722 L -3.542742467349905,99.39328531369357 z M 198.4572575326501,99.39328531369357 L 198.2669563639283,98.43657673278085 L 198.4572575326501,97.47986815186813 L 198.99918941096195,96.66880977981448 L 199.81024778301557,96.12687790150264 L 200.7669563639283,95.93657673278085 L 201.72366494484103,96.12687790150264 L 202.53472331689466,96.66880977981448 L 203.0766551952065,97.47986815186813 L 203.2669563639283,98.43657673278085 L 203.0766551952065,99.39328531369358 L 202.53472331689466,100.20434368574722 L 201.72366494484103,100.74627556405906 L 200.7669563639283,100.93657673278085 L 199.81024778301557,100.74627556405906 L 198.99918941096192,100.20434368574722 L 198.4572575326501,99.39328531369357 z M 9.408948551428313,46.52954548278085 L 10.393323551428313,43.93188923278085 L 10.140854801428311,43.40579548278085 L 9.699042301428314,43.32563923278085 L 9.842839176428313,42.88908454528085 L 10.503667301428314,43.22204548278085 L 11.784729801428313,46.52954548278085 L 11.344886051428311,46.52954548278085 L 10.610511051428311,44.42720173278085 L 9.882386051428313,46.52954548278085 L 9.408948551428313,46.52954548278085 z M 8.569593082678313,44.25610798278085 L 8.657093082678312,43.93657673278085 L 9.116468082678313,43.93657673278085 L 8.926038395178312,46.11697517028085 L 8.424749332678312,46.53813923278085 L 7.385218082678312,46.49595173278085 L 6.8039680826783115,45.78970173278085 L 8.036468082678311,46.21813923278085 L 8.45521808267831,46.02523298278085 L 8.532874332678311,45.58188923278085 L 7.0422493326783115,45.22095173278085 L 6.764936832678312,44.37879548278085 L 7.304655582678312,43.91135798278085 L 8.282905582678312,44.05126423278085 L 8.569593082678313,44.25610798278085 z M 14.387073551428312,44.71548298278085 L 13.933167301428313,44.77173298278085 L 13.553089176428312,44.30171735778085 L 12.951526676428312,44.29634235778085 L 12.472753238928313,45.03748298278085 L 14.399573551428313,45.12095173278085 L 14.072229801428312,46.23423298278085 L 13.324386051428313,46.58460017028085 L 12.417503238928312,46.29514704528085 L 12.014659488928313,45.33879548278085 L 12.344886051428313,44.22798298278085 L 13.335932926428313,43.88017829528085 L 14.234143863928313,44.36216267028085 L 14.387073551428312,44.71548298278085 z M 16.342835270178313,46.44673298278085 L 15.772272770178311,46.57401423278085 L 15.389241520178315,46.23935798278085 L 15.329554020178312,46.52954548278085 L 14.934241520178313,46.52954548278085 L 14.934241520178313,43.93657673278085 L 15.373304020178313,43.93657673278085 L 15.496116520178314,45.91926423278085 L 16.191272770178312,46.03892048278085 L 16.342835270178313,46.44673298278085 z M 18.225159488928313,44.24673298278085 L 18.839659488928316,43.89048298278085 L 19.635667301428313,44.04649860778085 L 20.193175113928312,45.34547517028085 L 19.872682926428315,47.12226423278085 L 19.358003238928312,47.48842048278085 L 18.61672198892831,47.45467048278085 L 17.918221988928313,46.37417048278085 L 18.225159488928313,44.24673298278085 z M 4.133362613928312,43.93657673278085 L 6.369300113928312,43.93657673278085 L 6.369300113928312,44.35923298278085 L 4.606800113928312,44.35923298278085 L 4.606800113928312,47.51548298278085 L 4.133362613928312,47.51548298278085 L 4.133362613928312,43.93657673278085 z" /><path fill-rule="evenodd" fill="#0c0786ff" stroke="#555555" stroke-width="1.6316330803780652" opacity="0.6" d="M 159.35298660502414,77.27331886523592 L 159.93374924735875,65.27089616108863 L 150.40141048865254,65.31607314189083 L 150.4983154738634,77.13847609416325 L 159.35298660502414,77.27331886523592 z" /><path fill-rule="evenodd" fill="#0c0786ff" stroke="#555555" stroke-width="1.6316330803780652" opacity="0.6" d="M 128.5148061267118,77.290374 L 128.868668995955,65.49492968383197 L 122.15295747540549,65.79563279873514 L 121.32343993842589,77.290374 L 128.5148061267118,77.290374 z" /><path fill-rule="evenodd" fill="#0c0786ff" stroke="#555555" stroke-width="1.6316330803780652" opacity="0.6" d="M 114.90093096014387,89.93657673278085 L 114.90093096014387,54.93657673278085 L 102.63298176771274,54.93657673278085 L 102.63298176771274,89.93657673278085 L 114.90093096014387,89.93657673278085 z" /><path fill-rule="evenodd" fill="#0c0786ff" stroke="#555555" stroke-width="1.6316330803780652" opacity="0.6" d="M 164.90093096014385,89.93657673278085 L 164.90093096014385,54.93657673278085 L 116.63298176771274,54.93657673278085 L 116.63298176771274,89.93657673278085 L 164.90093096014385,89.93657673278085 z M 162.0333455660403,63.26092293955587 L 161.2571379226102,79.3025475704453 L 148.5143957762988,79.10849565958776 L 148.3850278357272,63.32560690984172 L 162.0333455660403,63.26092293955587 z M 130.9324014625643,63.40051964024657 L 130.4557058261715,79.29037418667428 L 119.1739090982078,79.29037418667428 L 120.2861989164578,63.8772152766394 L 130.9324014625643,63.40051964024657 z" /><path fill-rule="evenodd" fill="#0c0786ff" stroke="#555555" stroke-width="1.6316330803780652" opacity="0.6" d="M 178.90093096014385,89.93657673278085 L 178.90093096014385,54.93657673278085 L 166.63298176771275,54.93657673278085 L 166.63298176771275,89.93657673278085 L 178.90093096014385,89.93657673278085 z" /><path fill-rule="evenodd" fill="#0c0786ff" stroke="#555555" stroke-width="1.6316330803780652" opacity="0.6" d="M 188.90093096014385,54.93657673278085 L 180.63298176771275,54.93657673278085 L 180.63298176771275,89.93657673278085 L 188.90093096014385,89.93657673278085 L 188.90093096014385,54.93657673278085 z" /><path fill-rule="evenodd" fill="#0c0786ff" stroke="#555555" stroke-width="1.6316330803780652" opacity="0.6" d="M 194.7669563639283,54.93657673278085 L 190.63298176771275,54.93657673278085 L 190.63298176771275,89.93657673278085 L 194.7669563639283,89.93657673278085 L 194.7669563639283,54.93657673278085 z" /><path fill-rule="evenodd" fill="#7e03a7ff" stroke="#555555" stroke-width="1.6316330803780652" opacity="0.6" d="M 71.3002521265929,73.17323355495952 L 70.28174933715694,69.01434636354148 L 67.27550742193648,69.23431496903409 L 67.19185433067337,74.08621110894451 L 71.3002521265929,73.17323355495952 z" /><path fill-rule="evenodd" fill="#7e03a7ff" stroke="#555555" stroke-width="1.6316330803780652" opacity="0.6" d="M 96.31887303143208,66.62636185566713 L 85.91067237028685,68.93929525505474 L 86.78372804454501,77.45158412995795 L 97.41429173064567,75.71834016136191 L 96.31887303143208,66.62636185566713 z" /><path fill-rule="evenodd" fill="#7e03a7ff" stroke="#555555" stroke-width="1.6316330803780652" opacity="0.6" d="M 8.90093459621556,54.9366 L 8.900939224353204,54.93657673278085 L 4.766956363928312,54.93657673278085 L 4.766956363928314,89.93657673278085 L 8.90093459621556,89.93657673278085 L 8.90093459621556,54.9366 z" /><path fill-rule="evenodd" fill="#7e03a7ff" stroke="#555555" stroke-width="1.6316330803780652" opacity="0.6" d="M 22.90093096014388,54.93657673278085 L 10.632980775646795,54.93657673278085 L 10.632985403784438,54.9366 L 10.632985403784438,89.93657673278085 L 22.90093096014388,89.93657673278085 L 22.90093096014388,54.93657673278085 z" /><path fill-rule="evenodd" fill="#7e03a7ff" stroke="#555555" stroke-width="1.6316330803780652" opacity="0.6" d="M 24.632981767712756,54.93657673278085 L 24.632981767712756,89.93657673278085 L 46.90093096014388,89.93657673278085 L 46.90093096014388,54.93657673278085 L 24.632981767712756,54.93657673278085 z" /><path fill-rule="evenodd" fill="#7e03a7ff" stroke="#555555" stroke-width="1.6316330803780652" opacity="0.6" d="M 48.632981767712764,54.93657673278085 L 48.632981767712764,89.93657673278085 L 60.90093096014388,89.93657673278085 L 60.90093096014388,54.93657673278085 L 48.632981767712764,54.93657673278085 z" /><path fill-rule="evenodd" fill="#7e03a7ff" stroke="#555555" stroke-width="1.6316330803780652" opacity="0.6" d="M 62.632981767712764,54.93657673278085 L 62.632981767712764,89.93657673278085 L 100.90093096014387,89.93657673278085 L 100.90093096014387,54.93657673278085 L 62.632981767712764,54.93657673278085 z M 65.14840364035362,76.58909891378157 L 65.3073021858179,67.3729832768535 L 71.82214254985325,66.89628764046067 L 73.72892509542459,74.68231636821025 L 65.14840364035362,76.58909891378157 z M 83.73953345967405,67.3729832768535 L 98.04040255145898,64.19501236756795 L 99.62938800610175,77.38359164110295 L 85.01072182338827,79.76706982306712 L 83.73953345967405,67.3729832768535 z" /><path fill-rule="evenodd" fill="#7e03a7ff" stroke="#555555" stroke-width="1.6316330803780652" opacity="0.6" d="M 213.0748091679606,110.74442953681314 L 213.0748091679606,34.12872392874854 L -13.540896440103994,34.12872392874854 L -13.540896440103994,110.74442953681314 L 213.0748091679606,110.74442953681314 z M 179.86761513526983,53.08881793497743 L 180.632982,52.936577 L 188.900931,52.936577 L 189.66629786473018,53.08881793497743 L 189.7669565,53.15607588478683 L 189.86761513526983,53.08881793497743 L 190.632982,52.936577 L 194.766956,52.936577 L 195.53232286473016,53.08881793497743 L 196.1811695623731,53.52236343762691 L 196.61471506502258,54.17121013526982 L 196.766956,54.936577 L 196.766956,89.936577 L 196.61471506502258,90.70194386473018 L 196.1811695623731,91.35079056237309 L 195.53232286473016,91.78433606502257 L 194.766956,91.936577 L 190.632982,91.936577 L 189.86761513526983,91.78433606502257 L 189.7669565,91.71707811521317 L 189.66629786473018,91.78433606502257 L 188.900931,91.936577 L 180.632982,91.936577 L 179.86761513526983,91.78433606502257 L 179.7669565,91.71707811521317 L 179.66629786473018,91.78433606502257 L 178.900931,91.936577 L 166.632982,91.936577 L 165.86761513526983,91.78433606502257 L 165.7669565,91.71707811521317 L 165.66629786473018,91.78433606502257 L 164.900931,91.936577 L 116.632982,91.936577 L 115.86761513526982,91.78433606502257 L 115.76695649999999,91.71707811521317 L 115.66629786473018,91.78433606502257 L 114.900931,91.936577 L 102.632982,91.936577 L 101.86761513526982,91.78433606502257 L 101.76695649999999,91.71707811521317 L 101.66629786473018,91.78433606502257 L 100.900931,91.936577 L 62.632982,91.936577 L 61.867615135269816,91.78433606502257 L 61.7669565,91.71707811521317 L 61.66629786473018,91.78433606502257 L 60.900931,91.936577 L 48.632982,91.936577 L 47.867615135269816,91.78433606502257 L 47.7669565,91.71707811521317 L 47.66629786473018,91.78433606502257 L 46.900931,91.936577 L 24.632982,91.936577 L 23.86761513526982,91.78433606502257 L 23.7669565,91.71707811521317 L 23.66629786473018,91.78433606502257 L 22.900931,91.936577 L 10.632985,91.936577 L 9.86761813526982,91.78433606502257 L 9.766960000000001,91.71707844930249 L 9.66630186473018,91.78433606502257 L 8.900935,91.936577 L 4.766956,91.936577 L 4.001589135269821,91.78433606502257 L 3.3527424376269055,91.35079056237309 L 2.919196934977427,90.70194386473018 L 2.7669560000000004,89.936577 L 2.7669560000000004,54.936577 L 2.9191969349774265,54.17121013526982 L 3.352742437626905,53.52236343762691 L 4.001589135269819,53.08881793497743 L 4.766956,52.936577 L 8.900939,52.936577 L 9.745114042059173,53.12346682729554 L 9.766959999993976,53.140199356602714 L 9.788805957906845,53.12346682731136 L 10.632981,52.936577 L 22.900931,52.936577 L 23.66629786473018,53.08881793497743 L 23.7669565,53.15607588478683 L 23.86761513526982,53.08881793497743 L 24.632982,52.936577 L 46.900931,52.936577 L 47.66629786473018,53.08881793497743 L 47.7669565,53.15607588478683 L 47.867615135269816,53.08881793497743 L 48.632982,52.936577 L 60.900931,52.936577 L 61.66629786473018,53.08881793497743 L 61.7669565,53.15607588478683 L 61.867615135269816,53.08881793497743 L 62.632982,52.936577 L 100.900931,52.936577 L 101.66629786473018,53.08881793497743 L 101.76695649999999,53.15607588478683 L 101.86761513526982,53.08881793497743 L 102.632982,52.936577 L 114.900931,52.936577 L 115.66629786473018,53.08881793497743 L 115.76695649999999,53.15607588478683 L 115.86761513526982,53.08881793497743 L 116.632982,52.936577 L 164.900931,52.936577 L 165.66629786473018,53.08881793497743 L 165.7669565,53.15607588478683 L 165.86761513526983,53.08881793497743 L 166.632982,52.936577 L 178.900931,52.936577 L 179.66629786473018,53.08881793497743 L 179.7669565,53.15607588478683 L 179.86761513526983,53.08881793497743 z M -3.542742467349905,47.393285313693575 L -3.733043636071688,46.43657673278085 L -3.542742467349905,45.479868151868125 L -3.000810589038057,44.66880977981448 L -2.189752216984412,44.12687790150263 L -1.2330436360716879,43.93657673278085 L -0.2763350551589635,44.12687790150263 L 0.5347233168946808,44.66880977981448 L 1.0766551952065289,45.479868151868125 L 1.266956363928312,46.43657673278085 L 1.076655195206528,47.393285313693575 L 0.5347233168946803,48.20434368574722 L -0.27633505515896306,48.74627556405907 L -1.2330436360716885,48.93657673278085 L -2.189752216984414,48.74627556405907 L -3.0008105890380574,48.20434368574722 L -3.542742467349905,47.393285313693575 z M 198.4572575326501,47.393285313693575 L 198.2669563639283,46.43657673278085 L 198.4572575326501,45.479868151868125 L 198.99918941096195,44.66880977981448 L 199.81024778301557,44.12687790150263 L 200.7669563639283,43.93657673278085 L 201.72366494484103,44.12687790150263 L 202.53472331689466,44.66880977981448 L 203.0766551952065,45.479868151868125 L 203.2669563639283,46.43657673278085 L 203.0766551952065,47.393285313693575 L 202.53472331689466,48.20434368574722 L 201.72366494484103,48.74627556405907 L 200.7669563639283,48.93657673278085 L 199.81024778301557,48.74627556405907 L 198.99918941096192,48.20434368574722 L 198.4572575326501,47.393285313693575 z M -3.542742467349905,99.39328531369357 L -3.733043636071688,98.43657673278085 L -3.542742467349905,97.47986815186813 L -3.000810589038057,96.66880977981448 L -2.189752216984412,96.12687790150264 L -1.2330436360716879,95.93657673278085 L -0.2763350551589635,96.12687790150264 L 0.5347233168946808,96.66880977981448 L 1.0766551952065289,97.47986815186813 L 1.266956363928312,98.43657673278085 L 1.076655195206528,99.39328531369358 L 0.5347233168946803,100.20434368574722 L -0.27633505515896306,100.74627556405906 L -1.2330436360716885,100.93657673278085 L -2.189752216984414,100.74627556405906 L -3.0008105890380574,100.20434368574722 L -3.542742467349905,99.39328531369357 z M 198.4572575326501,99.39328531369357 L 198.2669563639283,98.43657673278085 L 198.4572575326501,97.47986815186813 L 198.99918941096195,96.66880977981448 L 199.81024778301557,96.12687790150264 L 200.7669563639283,95.93657673278085 L 201.72366494484103,96.12687790150264 L 202.53472331689466,96.66880977981448 L 203.0766551952065,97.47986815186813 L 203.2669563639283,98.43657673278085 L 203.0766551952065,99.39328531369358 L 202.53472331689466,100.20434368574722 L 201.72366494484103,100.74627556405906 L 200.7669563639283,100.93657673278085 L 199.81024778301557,100.74627556405906 L 198.99918941096192,100.20434368574722 L 198.4572575326501,99.39328531369357 z M 9.408948551428313,46.52954548278085 L 10.393323551428313,43.93188923278085 L 10.140854801428311,43.40579548278085 L 9.699042301428314,43.32563923278085 L 9.842839176428313,42.88908454528085 L 10.503667301428314,43.22204548278085 L 11.784729801428313,46.52954548278085 L 11.344886051428311,46.52954548278085 L 10.610511051428311,44.42720173278085 L 9.882386051428313,46.52954548278085 L 9.408948551428313,46.52954548278085 z M 8.569593082678313,44.25610798278085 L 8.657093082678312,43.93657673278085 L 9.116468082678313,43.93657673278085 L 8.926038395178312,46.11697517028085 L 8.424749332678312,46.53813923278085 L 7.385218082678312,46.49595173278085 L 6.8039680826783115,45.78970173278085 L 8.036468082678311,46.21813923278085 L 8.45521808267831,46.02523298278085 L 8.532874332678311,45.58188923278085 L 7.0422493326783115,45.22095173278085 L 6.764936832678312,44.37879548278085 L 7.304655582678312,43.91135798278085 L 8.282905582678312,44.05126423278085 L 8.569593082678313,44.25610798278085 z M 14.387073551428312,44.71548298278085 L 13.933167301428313,44.77173298278085 L 13.553089176428312,44.30171735778085 L 12.951526676428312,44.29634235778085 L 12.472753238928313,45.03748298278085 L 14.399573551428313,45.12095173278085 L 14.072229801428312,46.23423298278085 L 13.324386051428313,46.58460017028085 L 12.417503238928312,46.29514704528085 L 12.014659488928313,45.33879548278085 L 12.344886051428313,44.22798298278085 L 13.335932926428313,43.88017829528085 L 14.234143863928313,44.36216267028085 L 14.387073551428312,44.71548298278085 z M 16.342835270178313,46.44673298278085 L 15.772272770178311,46.57401423278085 L 15.389241520178315,46.23935798278085 L 15.329554020178312,46.52954548278085 L 14.934241520178313,46.52954548278085 L 14.934241520178313,43.93657673278085 L 15.373304020178313,43.93657673278085 L 15.496116520178314,45.91926423278085 L 16.191272770178312,46.03892048278085 L 16.342835270178313,46.44673298278085 z M 6.369300113928312,43.93657673278085 L 6.369300113928312,44.35923298278085 L 4.606800113928312,44.35923298278085 L 4.606800113928312,47.51548298278085 L 4.133362613928312,47.51548298278085 L 4.133362613928312,43.93657673278085 L 6.369300113928312,43.93657673278085 z M 19.086878238928314,43.93657673278085 L 19.525940738928313,43.93657673278085 L 19.525940738928313,47.53032673278085 L 18.207971988928314,46.63188923278085 L 18.207971988928314,46.20688923278085 L 18.944128238928315,46.61582673278085 L 19.086878238928314,43.93657673278085 z" /><path fill-rule="evenodd" fill="#7e03a7ff" stroke="#555555" stroke-width="1.6316330803780652" opacity="0.6" d="M 159.93374924735875,65.27089616108863 L 150.40141048865254,65.31607314189083 L 150.4983154738634,77.13847609416325 L 159.35298660502414,77.27331886523592 L 159.93374924735875,65.27089616108863 z" /><path fill-rule="evenodd" fill="#7e03a7ff" stroke="#555555" stroke-width="1.6316330803780652" opacity="0.6" d="M 128.868668995955,65.49492968383197 L 122.15295747540549,65.79563279873514 L 121.32343993842589,77.290374 L 128.5148061267118,77.290374 L 128.868668995955,65.49492968383197 z" /><path fill-rule="evenodd" fill="#7e03a7ff" stroke="#555555" stroke-width="1.6316330803780652" opacity="0.6" d="M 102.63298176771274,54.93657673278085 L 102.63298176771274,89.93657673278085 L 114.90093096014387,89.93657673278085 L 114.90093096014387,54.93657673278085 L 102.63298176771274,54.93657673278085 z" /><path fill-rule="evenodd" fill="#7e03a7ff" stroke="#555555" stroke-width="1.6316330803780652" opacity="0.6" d="M 116.63298176771274,54.93657673278085 L 116.63298176771274,89.93657673278085 L 164.90093096014385,89.93657673278085 L 164.90093096014385,54.93657673278085 L 116.63298176771274,54.93657673278085 z M 148.5143957762988,79.10849565958776 L 148.3850278357272,63.32560690984172 L 162.0333455660403,63.26092293955587 L 161.2571379226102,79.3025475704453 L 148.5143957762988,79.10849565958776 z M 119.1739090982078,79.29037418667428 L 120.2861989164578,63.8772152766394 L 130.9324014625643,63.40051964024657 L 130.4557058261715,79.29037418667428 L 119.1739090982078,79.29037418667428 z" /><path fill-rule="evenodd" fill="#7e03a7ff" stroke="#555555" stroke-width="1.6316330803780652" opacity="0.6" d="M 166.63298176771275,54.93657673278085 L 166.63298176771275,89.93657673278085 L 178.90093096014385,89.93657673278085 L 178.90093096014385,54.93657673278085 L 166.63298176771275,54.93657673278085 z" /><path fill-rule="evenodd" fill="#7e03a7ff" stroke="#555555" stroke-width="1.6316330803780652" opacity="0.6" d="M 180.63298176771275,54.93657673278085 L 180.63298176771275,89.93657673278085 L 188.90093096014385,89.93657673278085 L 188.90093096014385,54.93657673278085 L 180.63298176771275,54.93657673278085 z" /><path fill-rule="evenodd" fill="#7e03a7ff" stroke="#555555" stroke-width="1.6316330803780652" opacity="0.6" d="M 190.63298176771275,54.93657673278085 L 190.63298176771275,89.93657673278085 L 194.7669563639283,89.93657673278085 L 194.7669563639283,54.93657673278085 L 190.63298176771275,54.93657673278085 z" /><path fill-rule="evenodd" fill="#cb4777ff" stroke="#555555" stroke-width="1.6316330803780652" opacity="0.6" d="M 150.40141048865254,65.31607314189083 L 150.4983154738634,77.13847609416325 L 159.35298660502414,77.27331886523592 L 159.93374924735875,65.27089616108863 L 150.40141048865254,65.31607314189083 z" /><path fill-rule="evenodd" fill="#cb4777ff" stroke="#555555" stroke-width="1.6316330803780652" opacity="0.6" d="M 128.5148061267118,77.290374 L 128.868668995955,65.49492968383197 L 122.15295747540549,65.79563279873514 L 121.32343993842589,77.290374 L 128.5148061267118,77.290374 z" /><path fill-rule="evenodd" fill="#cb4777ff" stroke="#555555" stroke-width="1.6316330803780652" opacity="0.6" d="M 70.28174933715694,69.01434636354148 L 67.27550742193648,69.23431496903409 L 67.19185433067337,74.08621110894451 L 71.3002521265929,73.17323355495952 L 70.28174933715694,69.01434636354148 z" /><path fill-rule="evenodd" fill="#cb4777ff" stroke="#555555" stroke-width="1.6316330803780652" opacity="0.6" d="M 85.91067237028685,68.93929525505474 L 86.78372804454501,77.45158412995795 L 97.41429173064567,75.71834016136191 L 96.31887303143208,66.62636185566713 L 85.91067237028685,68.93929525505474 z" /><path fill-rule="evenodd" fill="#cb4777ff" stroke="#555555" stroke-width="1.6316330803780652" opacity="0.6" d="M -13.540896440103994,34.12872392874854 L -13.540896440103994,110.74442953681314 L 213.0748091679606,110.74442953681314 L 213.0748091679606,34.12872392874854 L -13.540896440103994,34.12872392874854 z M 195.53232286473016,53.08881793497743 L 196.1811695623731,53.52236343762691 L 196.61471506502258,54.17121013526982 L 196.766956,54.936577 L 196.766956,89.936577 L 196.61471506502258,90.70194386473018 L 196.1811695623731,91.35079056237309 L 195.53232286473016,91.78433606502257 L 194.766956,91.936577 L 4.766956,91.936577 L 4.001589135269821,91.78433606502257 L 3.3527424376269055,91.35079056237309 L 2.919196934977427,90.70194386473018 L 2.7669560000000004,89.936577 L 2.7669560000000004,54.936577 L 2.9191969349774265,54.17121013526982 L 3.352742437626905,53.52236343762691 L 4.001589135269819,53.08881793497743 L 4.766956,52.936577 L 194.766956,52.936577 L 195.53232286473016,53.08881793497743 z M -2.189752216984414,48.74627556405907 L -3.0008105890380574,48.20434368574722 L -3.542742467349905,47.393285313693575 L -3.733043636071688,46.43657673278085 L -3.542742467349905,45.479868151868125 L -3.000810589038057,44.66880977981448 L -2.189752216984412,44.12687790150263 L -1.2330436360716879,43.93657673278085 L -0.2763350551589635,44.12687790150263 L 0.5347233168946808,44.66880977981448 L 1.0766551952065289,45.479868151868125 L 1.266956363928312,46.43657673278085 L 1.076655195206528,47.393285313693575 L 0.5347233168946803,48.20434368574722 L -0.27633505515896306,48.74627556405907 L -1.2330436360716885,48.93657673278085 L -2.189752216984414,48.74627556405907 z M 199.81024778301557,48.74627556405907 L 198.99918941096192,48.20434368574722 L 198.4572575326501,47.393285313693575 L 198.2669563639283,46.43657673278085 L 198.4572575326501,45.479868151868125 L 198.99918941096195,44.66880977981448 L 199.81024778301557,44.12687790150263 L 200.7669563639283,43.93657673278085 L 201.72366494484103,44.12687790150263 L 202.53472331689466,44.66880977981448 L 203.0766551952065,45.479868151868125 L 203.2669563639283,46.43657673278085 L 203.0766551952065,47.393285313693575 L 202.53472331689466,48.20434368574722 L 201.72366494484103,48.74627556405907 L 200.7669563639283,48.93657673278085 L 199.81024778301557,48.74627556405907 z M -2.189752216984414,100.74627556405906 L -3.0008105890380574,100.20434368574722 L -3.542742467349905,99.39328531369357 L -3.733043636071688,98.43657673278085 L -3.542742467349905,97.47986815186813 L -3.000810589038057,96.66880977981448 L -2.189752216984412,96.12687790150264 L -1.2330436360716879,95.93657673278085 L -0.2763350551589635,96.12687790150264 L 0.5347233168946808,96.66880977981448 L 1.0766551952065289,97.47986815186813 L 1.266956363928312,98.43657673278085 L 1.076655195206528,99.39328531369358 L 0.5347233168946803,100.20434368574722 L -0.27633505515896306,100.74627556405906 L -1.2330436360716885,100.93657673278085 L -2.189752216984414,100.74627556405906 z M 199.81024778301557,100.74627556405906 L 198.99918941096192,100.20434368574722 L 198.4572575326501,99.39328531369357 L 198.2669563639283,98.43657673278085 L 198.4572575326501,97.47986815186813 L 198.99918941096195,96.66880977981448 L 199.81024778301557,96.12687790150264 L 200.7669563639283,95.93657673278085 L 201.72366494484103,96.12687790150264 L 202.53472331689466,96.66880977981448 L 203.0766551952065,97.47986815186813 L 203.2669563639283,98.43657673278085 L 203.0766551952065,99.39328531369358 L 202.53472331689466,100.20434368574722 L 201.72366494484103,100.74627556405906 L 200.7669563639283,100.93657673278085 L 199.81024778301557,100.74627556405906 z M 10.610511051428311,44.42720173278085 L 9.882386051428313,46.52954548278085 L 9.408948551428313,46.52954548278085 L 10.393323551428313,43.93188923278085 L 10.140854801428311,43.40579548278085 L 9.699042301428314,43.32563923278085 L 9.842839176428313,42.88908454528085 L 10.503667301428314,43.22204548278085 L 11.784729801428313,46.52954548278085 L 11.344886051428311,46.52954548278085 L 10.610511051428311,44.42720173278085 z M 7.304655582678312,43.91135798278085 L 8.282905582678312,44.05126423278085 L 8.569593082678313,44.25610798278085 L 8.657093082678312,43.93657673278085 L 9.116468082678313,43.93657673278085 L 8.926038395178312,46.11697517028085 L 8.424749332678312,46.53813923278085 L 7.385218082678312,46.49595173278085 L 6.8039680826783115,45.78970173278085 L 8.036468082678311,46.21813923278085 L 8.45521808267831,46.02523298278085 L 8.532874332678311,45.58188923278085 L 7.0422493326783115,45.22095173278085 L 6.764936832678312,44.37879548278085 L 7.304655582678312,43.91135798278085 z M 13.335932926428313,43.88017829528085 L 14.234143863928313,44.36216267028085 L 14.387073551428312,44.71548298278085 L 13.933167301428313,44.77173298278085 L 13.553089176428312,44.30171735778085 L 12.951526676428312,44.29634235778085 L 12.472753238928313,45.03748298278085 L 14.399573551428313,45.12095173278085 L 14.072229801428312,46.23423298278085 L 13.324386051428313,46.58460017028085 L 12.417503238928312,46.29514704528085 L 12.014659488928313,45.33879548278085 L 12.344886051428313,44.22798298278085 L 13.335932926428313,43.88017829528085 z M 15.496116520178314,45.91926423278085 L 16.191272770178312,46.03892048278085 L 16.342835270178313,46.44673298278085 L 15.772272770178311,46.57401423278085 L 15.389241520178315,46.23935798278085 L 15.329554020178312,46.52954548278085 L 14.934241520178313,46.52954548278085 L 14.934241520178313,43.93657673278085 L 15.373304020178313,43.93657673278085 L 15.496116520178314,45.91926423278085 z M 19.722323551428314,46.496584545280854 L 17.820878238928316,44.06157673278085 L 20.180628238928314,43.93657673278085 L 20.180628238928314,44.35923298278085 L 18.425159488928312,44.35923298278085 L 20.087659488928313,46.11392048278085 L 20.12781573892831,46.85270173278085 L 19.675823551428312,47.39021735778085 L 18.684815738928314,47.48795173278085 L 18.04537823892831,47.01510798278085 L 17.897815738928312,46.49517048278085 L 18.349378238928313,46.44907673278085 L 18.542346988928312,46.97563923278085 L 19.050159488928312,47.16626423278085 L 19.536878238928313,46.98657673278085 L 19.722323551428314,46.496584545280854 z M 4.133362613928312,47.51548298278085 L 4.133362613928312,43.93657673278085 L 6.369300113928312,43.93657673278085 L 6.369300113928312,44.35923298278085 L 4.606800113928312,44.35923298278085 L 4.606800113928312,47.51548298278085 L 4.133362613928312,47.51548298278085 z" /><path fill-rule="evenodd" fill="#cb4777ff" stroke="#555555" stroke-width="1.6316330803780652" opacity="0.6" d="M 4.766956363928312,54.93657673278085 L 4.766956363928314,89.93657673278085 L 194.7669563639283,89.93657673278085 L 194.7669563639283,54.93657673278085 L 4.766956363928312,54.93657673278085 z M 148.5143957762988,79.10849565958776 L 148.3850278357272,63.32560690984172 L 162.0333455660403,63.26092293955587 L 161.2571379226102,79.3025475704453 L 148.5143957762988,79.10849565958776 z M 119.1739090982078,79.29037418667428 L 120.2861989164578,63.8772152766394 L 130.9324014625643,63.40051964024657 L 130.4557058261715,79.29037418667428 L 119.1739090982078,79.29037418667428 z M 65.14840364035362,76.58909891378157 L 65.3073021858179,67.3729832768535 L 71.82214254985325,66.89628764046067 L 73.72892509542459,74.68231636821025 L 65.14840364035362,76.58909891378157 z M 83.73953345967405,67.3729832768535 L 98.04040255145898,64.19501236756795 L 99.62938800610175,77.38359164110295 L 85.01072182338827,79.76706982306712 L 83.73953345967405,67.3729832768535 z" /><path fill-rule="evenodd" fill="#f89540ff" stroke="#555555" stroke-width="1.6316330803780652" opacity="0.6" d="M 67.27550742193648,69.23431496903409 L 67.19185433067337,74.08621110894451 L 71.3002521265929,73.17323355495952 L 70.28174933715694,69.01434636354148 L 67.27550742193648,69.23431496903409 z" /><path fill-rule="evenodd" fill="#f89540ff" stroke="#555555" stroke-width="1.6316330803780652" opacity="0.6" d="M 86.78372804454501,77.45158412995795 L 97.41429173064567,75.71834016136191 L 96.31887303143208,66.62636185566713 L 85.91067237028685,68.93929525505474 L 86.78372804454501,77.45158412995795 z" /><path fill-rule="evenodd" fill="#f89540ff" stroke="#555555" stroke-width="1.6316330803780652" opacity="0.6" d="M 8.90093459621556,54.9366 L 8.900939224353204,54.93657673278085 L 4.766956363928312,54.93657673278085 L 4.766956363928314,89.93657673278085 L 8.90093459621556,89.93657673278085 L 8.90093459621556,54.9366 z" /><path fill-rule="evenodd" fill="#f89540ff" stroke="#555555" stroke-width="1.6316330803780652" opacity="0.6" d="M 22.90093096014388,54.93657673278085 L 10.632980775646795,54.93657673278085 L 10.632985403784438,54.9366 L 10.632985403784438,89.93657673278085 L 22.90093096014388,89.93657673278085 L 22.90093096014388,54.93657673278085 z" /><path fill-rule="evenodd" fill="#f89540ff" stroke="#555555" stroke-width="1.6316330803780652" opacity="0.6" d="M 24.632981767712756,54.93657673278085 L 24.632981767712756,89.93657673278085 L 46.90093096014388,89.93657673278085 L 46.90093096014388,54.93657673278085 L 24.632981767712756,54.93657673278085 z" /><path fill-rule="evenodd" fill="#f89540ff" stroke="#555555" stroke-width="1.6316330803780652" opacity="0.6" d="M 48.632981767712764,54.93657673278085 L 48.632981767712764,89.93657673278085 L 60.90093096014388,89.93657673278085 L 60.90093096014388,54.93657673278085 L 48.632981767712764,54.93657673278085 z" /><path fill-rule="evenodd" fill="#f89540ff" stroke="#555555" stroke-width="1.6316330803780652" opacity="0.6" d="M 62.632981767712764,54.93657673278085 L 62.632981767712764,89.93657673278085 L 100.90093096014387,89.93657673278085 L 100.90093096014387,54.93657673278085 L 62.632981767712764,54.93657673278085 z M 65.14840364035362,76.58909891378157 L 65.3073021858179,67.3729832768535 L 71.82214254985325,66.89628764046067 L 73.72892509542459,74.68231636821025 L 65.14840364035362,76.58909891378157 z M 83.73953345967405,67.3729832768535 L 98.04040255145898,64.19501236756795 L 99.62938800610175,77.38359164110295 L 85.01072182338827,79.76706982306712 L 83.73953345967405,67.3729832768535 z" /><path fill-rule="evenodd" fill="#f89540ff" stroke="#555555" stroke-width="1.6316330803780652" opacity="0.6" d="M 213.0748091679606,110.74442953681314 L 213.0748091679606,34.12872392874854 L -13.540896440103994,34.12872392874854 L -13.540896440103994,110.74442953681314 L 213.0748091679606,110.74442953681314 z M 196.61471506502258,90.70194386473018 L 196.1811695623731,91.35079056237309 L 195.53232286473016,91.78433606502257 L 194.766956,91.936577 L 190.632982,91.936577 L 189.86761513526983,91.78433606502257 L 189.7669565,91.71707811521317 L 189.66629786473018,91.78433606502257 L 188.900931,91.936577 L 180.632982,91.936577 L 179.86761513526983,91.78433606502257 L 179.7669565,91.71707811521317 L 179.66629786473018,91.78433606502257 L 178.900931,91.936577 L 166.632982,91.936577 L 165.86761513526983,91.78433606502257 L 165.7669565,91.71707811521317 L 165.66629786473018,91.78433606502257 L 164.900931,91.936577 L 116.632982,91.936577 L 115.86761513526982,91.78433606502257 L 115.76695649999999,91.71707811521317 L 115.66629786473018,91.78433606502257 L 114.900931,91.936577 L 102.632982,91.936577 L 101.86761513526982,91.78433606502257 L 101.76695649999999,91.71707811521317 L 101.66629786473018,91.78433606502257 L 100.900931,91.936577 L 62.632982,91.936577 L 61.867615135269816,91.78433606502257 L 61.7669565,91.71707811521317 L 61.66629786473018,91.78433606502257 L 60.900931,91.936577 L 48.632982,91.936577 L 47.867615135269816,91.78433606502257 L 47.7669565,91.71707811521317 L 47.66629786473018,91.78433606502257 L 46.900931,91.936577 L 24.632982,91.936577 L 23.86761513526982,91.78433606502257 L 23.7669565,91.71707811521317 L 23.66629786473018,91.78433606502257 L 22.900931,91.936577 L 10.632985,91.936577 L 9.86761813526982,91.78433606502257 L 9.766960000000001,91.71707844930249 L 9.66630186473018,91.78433606502257 L 8.900935,91.936577 L 4.766956,91.936577 L 4.001589135269821,91.78433606502257 L 3.3527424376269055,91.35079056237309 L 2.919196934977427,90.70194386473018 L 2.7669560000000004,89.936577 L 2.7669560000000004,54.936577 L 2.9191969349774265,54.17121013526982 L 3.352742437626905,53.52236343762691 L 4.001589135269819,53.08881793497743 L 4.766956,52.936577 L 8.900939,52.936577 L 9.745114042059173,53.12346682729554 L 9.766959999993976,53.140199356602714 L 9.788805957906845,53.12346682731136 L 10.632981,52.936577 L 22.900931,52.936577 L 23.66629786473018,53.08881793497743 L 23.7669565,53.15607588478683 L 23.86761513526982,53.08881793497743 L 24.632982,52.936577 L 46.900931,52.936577 L 47.66629786473018,53.08881793497743 L 47.7669565,53.15607588478683 L 47.867615135269816,53.08881793497743 L 48.632982,52.936577 L 60.900931,52.936577 L 61.66629786473018,53.08881793497743 L 61.7669565,53.15607588478683 L 61.867615135269816,53.08881793497743 L 62.632982,52.936577 L 100.900931,52.936577 L 101.66629786473018,53.08881793497743 L 101.76695649999999,53.15607588478683 L 101.86761513526982,53.08881793497743 L 102.632982,52.936577 L 114.900931,52.936577 L 115.66629786473018,53.08881793497743 L 115.76695649999999,53.15607588478683 L 115.86761513526982,53.08881793497743 L 116.632982,52.936577 L 164.900931,52.936577 L 165.66629786473018,53.08881793497743 L 165.7669565,53.15607588478683 L 165.86761513526983,53.08881793497743 L 166.632982,52.936577 L 178.900931,52.936577 L 179.66629786473018,53.08881793497743 L 179.7669565,53.15607588478683 L 179.86761513526983,53.08881793497743 L 180.632982,52.936577 L 188.900931,52.936577 L 189.66629786473018,53.08881793497743 L 189.7669565,53.15607588478683 L 189.86761513526983,53.08881793497743 L 190.632982,52.936577 L 194.766956,52.936577 L 195.53232286473016,53.08881793497743 L 196.1811695623731,53.52236343762691 L 196.61471506502258,54.17121013526982 L 196.766956,54.936577 L 196.766956,89.936577 L 196.61471506502258,90.70194386473018 z M -3.542742467349905,47.393285313693575 L -3.733043636071688,46.43657673278085 L -3.542742467349905,45.479868151868125 L -3.000810589038057,44.66880977981448 L -2.189752216984412,44.12687790150263 L -1.2330436360716879,43.93657673278085 L -0.2763350551589635,44.12687790150263 L 0.5347233168946808,44.66880977981448 L 1.0766551952065289,45.479868151868125 L 1.266956363928312,46.43657673278085 L 1.076655195206528,47.393285313693575 L 0.5347233168946803,48.20434368574722 L -0.27633505515896306,48.74627556405907 L -1.2330436360716885,48.93657673278085 L -2.189752216984414,48.74627556405907 L -3.0008105890380574,48.20434368574722 L -3.542742467349905,47.393285313693575 z M 198.4572575326501,47.393285313693575 L 198.2669563639283,46.43657673278085 L 198.4572575326501,45.479868151868125 L 198.99918941096195,44.66880977981448 L 199.81024778301557,44.12687790150263 L 200.7669563639283,43.93657673278085 L 201.72366494484103,44.12687790150263 L 202.53472331689466,44.66880977981448 L 203.0766551952065,45.479868151868125 L 203.2669563639283,46.43657673278085 L 203.0766551952065,47.393285313693575 L 202.53472331689466,48.20434368574722 L 201.72366494484103,48.74627556405907 L 200.7669563639283,48.93657673278085 L 199.81024778301557,48.74627556405907 L 198.99918941096192,48.20434368574722 L 198.4572575326501,47.393285313693575 z M -3.542742467349905,99.39328531369357 L -3.733043636071688,98.43657673278085 L -3.542742467349905,97.47986815186813 L -3.000810589038057,96.66880977981448 L -2.189752216984412,96.12687790150264 L -1.2330436360716879,95.93657673278085 L -0.2763350551589635,96.12687790150264 L 0.5347233168946808,96.66880977981448 L 1.0766551952065289,97.47986815186813 L 1.266956363928312,98.43657673278085 L 1.076655195206528,99.39328531369358 L 0.5347233168946803,100.20434368574722 L -0.27633505515896306,100.74627556405906 L -1.2330436360716885,100.93657673278085 L -2.189752216984414,100.74627556405906 L -3.0008105890380574,100.20434368574722 L -3.542742467349905,99.39328531369357 z M 198.4572575326501,99.39328531369357 L 198.2669563639283,98.43657673278085 L 198.4572575326501,97.47986815186813 L 198.99918941096195,96.66880977981448 L 199.81024778301557,96.12687790150264 L 200.7669563639283,95.93657673278085 L 201.72366494484103,96.12687790150264 L 202.53472331689466,96.66880977981448 L 203.0766551952065,97.47986815186813 L 203.2669563639283,98.43657673278085 L 203.0766551952065,99.39328531369358 L 202.53472331689466,100.20434368574722 L 201.72366494484103,100.74627556405906 L 200.7669563639283,100.93657673278085 L 199.81024778301557,100.74627556405906 L 198.99918941096192,100.20434368574722 L 198.4572575326501,99.39328531369357 z M 9.408948551428313,46.52954548278085 L 10.393323551428313,43.93188923278085 L 10.140854801428311,43.40579548278085 L 9.699042301428314,43.32563923278085 L 9.842839176428313,42.88908454528085 L 10.503667301428314,43.22204548278085 L 11.784729801428313,46.52954548278085 L 11.344886051428311,46.52954548278085 L 10.610511051428311,44.42720173278085 L 9.882386051428313,46.52954548278085 L 9.408948551428313,46.52954548278085 z M 8.569593082678313,44.25610798278085 L 8.657093082678312,43.93657673278085 L 9.116468082678313,43.93657673278085 L 8.926038395178312,46.11697517028085 L 8.424749332678312,46.53813923278085 L 7.385218082678312,46.49595173278085 L 6.8039680826783115,45.78970173278085 L 8.036468082678311,46.21813923278085 L 8.45521808267831,46.02523298278085 L 8.532874332678311,45.58188923278085 L 7.0422493326783115,45.22095173278085 L 6.764936832678312,44.37879548278085 L 7.304655582678312,43.91135798278085 L 8.282905582678312,44.05126423278085 L 8.569593082678313,44.25610798278085 z M 14.387073551428312,44.71548298278085 L 13.933167301428313,44.77173298278085 L 13.553089176428312,44.30171735778085 L 12.951526676428312,44.29634235778085 L 12.472753238928313,45.03748298278085 L 14.399573551428313,45.12095173278085 L 14.072229801428312,46.23423298278085 L 13.324386051428313,46.58460017028085 L 12.417503238928312,46.29514704528085 L 12.014659488928313,45.33879548278085 L 12.344886051428313,44.22798298278085 L 13.335932926428313,43.88017829528085 L 14.234143863928313,44.36216267028085 L 14.387073551428312,44.71548298278085 z M 16.342835270178313,46.44673298278085 L 15.772272770178311,46.57401423278085 L 15.389241520178315,46.23935798278085 L 15.329554020178312,46.52954548278085 L 14.934241520178313,46.52954548278085 L 14.934241520178313,43.93657673278085 L 15.373304020178313,43.93657673278085 L 15.496116520178314,45.91926423278085 L 16.191272770178312,46.03892048278085 L 16.342835270178313,46.44673298278085 z M 18.31265948892831,44.93970173278085 L 17.873596988928313,44.88110798278085 L 18.228284488928313,44.15376423278085 L 19.011096988928312,43.87329548278085 L 19.731346988928316,44.08179548278085 L 20.162596988928314,44.64148298278085 L 20.131214176428312,45.42219392028085 L 19.548596988928313,45.87485798278085 L 19.961565738928314,46.25585798278085 L 20.00875323892831,46.83755329528085 L 19.381096988928313,47.46869392028085 L 18.402909488928316,47.37482673278085 L 17.917346988928312,46.60298298278085 L 18.357190738928313,46.52485798278085 L 18.812690738928314,47.14351423278085 L 19.42594073892831,47.01001423278085 L 19.533753238928313,46.34419392028085 L 18.78922198892831,46.01704548278085 L 18.740003238928313,45.63110798278085 L 19.512675113928314,45.52007673278085 L 19.716690738928314,44.74635798278085 L 19.074503238928315,44.23872517028085 L 18.415003238928314,44.61841267028085 L 18.31265948892831,44.93970173278085 z M 6.369300113928312,43.93657673278085 L 6.369300113928312,44.35923298278085 L 4.606800113928312,44.35923298278085 L 4.606800113928312,47.51548298278085 L 4.133362613928312,47.51548298278085 L 4.133362613928312,43.93657673278085 L 6.369300113928312,43.93657673278085 z" /><path fill-rule="evenodd" fill="#f89540ff" stroke="#555555" stroke-width="1.6316330803780652" opacity="0.6" d="M 159.35298660502414,77.27331886523592 L 159.93374924735875,65.27089616108863 L 150.40141048865254,65.31607314189083 L 150.4983154738634,77.13847609416325 L 159.35298660502414,77.27331886523592 z" /><path fill-rule="evenodd" fill="#f89540ff" stroke="#555555" stroke-width="1.6316330803780652" opacity="0.6" d="M 128.5148061267118,77.290374 L 128.868668995955,65.49492968383197 L 122.15295747540549,65.79563279873514 L 121.32343993842589,77.290374 L 128.5148061267118,77.290374 z" /><path fill-rule="evenodd" fill="#f89540ff" stroke="#555555" stroke-width="1.6316330803780652" opacity="0.6" d="M 102.63298176771274,54.93657673278085 L 102.63298176771274,89.93657673278085 L 114.90093096014387,89.93657673278085 L 114.90093096014387,54.93657673278085 L 102.63298176771274,54.93657673278085 z" /><path fill-rule="evenodd" fill="#f89540ff" stroke="#555555" stroke-width="1.6316330803780652" opacity="0.6" d="M 116.63298176771274,54.93657673278085 L 116.63298176771274,89.93657673278085 L 164.90093096014385,89.93657673278085 L 164.90093096014385,54.93657673278085 L 116.63298176771274,54.93657673278085 z M 148.5143957762988,79.10849565958776 L 148.3850278357272,63.32560690984172 L 162.0333455660403,63.26092293955587 L 161.2571379226102,79.3025475704453 L 148.5143957762988,79.10849565958776 z M 119.1739090982078,79.29037418667428 L 120.2861989164578,63.8772152766394 L 130.9324014625643,63.40051964024657 L 130.4557058261715,79.29037418667428 L 119.1739090982078,79.29037418667428 z" /><path fill-rule="evenodd" fill="#f89540ff" stroke="#555555" stroke-width="1.6316330803780652" opacity="0.6" d="M 166.63298176771275,54.93657673278085 L 166.63298176771275,89.93657673278085 L 178.90093096014385,89.93657673278085 L 178.90093096014385,54.93657673278085 L 166.63298176771275,54.93657673278085 z" /><path fill-rule="evenodd" fill="#f89540ff" stroke="#555555" stroke-width="1.6316330803780652" opacity="0.6" d="M 180.63298176771275,54.93657673278085 L 180.63298176771275,89.93657673278085 L 188.90093096014385,89.93657673278085 L 188.90093096014385,54.93657673278085 L 180.63298176771275,54.93657673278085 z" /><path fill-rule="evenodd" fill="#f89540ff" stroke="#555555" stroke-width="1.6316330803780652" opacity="0.6" d="M 190.63298176771275,54.93657673278085 L 190.63298176771275,89.93657673278085 L 194.7669563639283,89.93657673278085 L 194.7669563639283,54.93657673278085 L 190.63298176771275,54.93657673278085 z" /><path fill-rule="evenodd" fill="#eff821ff" stroke="#555555" stroke-width="1.6316330803780652" opacity="0.6" d="M 71.3002521265929,73.17323355495952 L 70.28174933715694,69.01434636354148 L 67.27550742193648,69.23431496903409 L 67.19185433067337,74.08621110894451 L 71.3002521265929,73.17323355495952 z" /><path fill-rule="evenodd" fill="#eff821ff" stroke="#555555" stroke-width="1.6316330803780652" opacity="0.6" d="M 96.31887303143208,66.62636185566713 L 85.91067237028685,68.93929525505474 L 86.78372804454501,77.45158412995795 L 97.41429173064567,75.71834016136191 L 96.31887303143208,66.62636185566713 z" /><path fill-rule="evenodd" fill="#eff821ff" stroke="#555555" stroke-width="1.6316330803780652" opacity="0.6" d="M 8.90093459621556,54.9366 L 8.900939224353204,54.93657673278085 L 4.766956363928312,54.93657673278085 L 4.766956363928314,89.93657673278085 L 8.90093459621556,89.93657673278085 L 8.90093459621556,54.9366 z" /><path fill-rule="evenodd" fill="#eff821ff" stroke="#555555" stroke-width="1.6316330803780652" opacity="0.6" d="M 22.90093096014388,54.93657673278085 L 10.632980775646795,54.93657673278085 L 10.632985403784438,54.9366 L 10.632985403784438,89.93657673278085 L 22.90093096014388,89.93657673278085 L 22.90093096014388,54.93657673278085 z" /><path fill-rule="evenodd" fill="#eff821ff" stroke="#555555" stroke-width="1.6316330803780652" opacity="0.6" d="M 46.90093096014388,89.93657673278085 L 46.90093096014388,54.93657673278085 L 24.632981767712756,54.93657673278085 L 24.632981767712756,89.93657673278085 L 46.90093096014388,89.93657673278085 z" /><path fill-rule="evenodd" fill="#eff821ff" stroke="#555555" stroke-width="1.6316330803780652" opacity="0.6" d="M 60.90093096014388,54.93657673278085 L 48.632981767712764,54.93657673278085 L 48.632981767712764,89.93657673278085 L 60.90093096014388,89.93657673278085 L 60.90093096014388,54.93657673278085 z" /><path fill-rule="evenodd" fill="#eff821ff" stroke="#555555" stroke-width="1.6316330803780652" opacity="0.6" d="M 100.90093096014387,54.93657673278085 L 62.632981767712764,54.93657673278085 L 62.632981767712764,89.93657673278085 L 100.90093096014387,89.93657673278085 L 100.90093096014387,54.93657673278085 z M 73.72892509542459,74.68231636821025 L 65.14840364035362,76.58909891378157 L 65.3073021858179,67.3729832768535 L 71.82214254985325,66.89628764046067 L 73.72892509542459,74.68231636821025 z M 85.01072182338827,79.76706982306712 L 83.73953345967405,67.3729832768535 L 98.04040255145898,64.19501236756795 L 99.62938800610175,77.38359164110295 L 85.01072182338827,79.76706982306712 z" /><path fill-rule="evenodd" fill="#eff821ff" stroke="#555555" stroke-width="1.6316330803780652" opacity="0.6" d="M 213.0748091679606,110.74442953681314 L 213.0748091679606,34.12872392874854 L -13.540896440103994,34.12872392874854 L -13.540896440103994,110.74442953681314 L 213.0748091679606,110.74442953681314 z M 196.61471506502258,90.70194386473018 L 196.1811695623731,91.35079056237309 L 195.53232286473016,91.78433606502257 L 194.766956,91.936577 L 190.632982,91.936577 L 189.86761513526983,91.78433606502257 L 189.7669565,91.71707811521317 L 189.66629786473018,91.78433606502257 L 188.900931,91.936577 L 180.632982,91.936577 L 179.86761513526983,91.78433606502257 L 179.7669565,91.71707811521317 L 179.66629786473018,91.78433606502257 L 178.900931,91.936577 L 166.632982,91.936577 L 165.86761513526983,91.78433606502257 L 165.7669565,91.71707811521317 L 165.66629786473018,91.78433606502257 L 164.900931,91.936577 L 116.632982,91.936577 L 115.86761513526982,91.78433606502257 L 115.76695649999999,91.71707811521317 L 115.66629786473018,91.78433606502257 L 114.900931,91.936577 L 102.632982,91.936577 L 101.86761513526982,91.78433606502257 L 101.76695649999999,91.71707811521317 L 101.66629786473018,91.78433606502257 L 100.900931,91.936577 L 62.632982,91.936577 L 61.867615135269816,91.78433606502257 L 61.7669565,91.71707811521317 L 61.66629786473018,91.78433606502257 L 60.900931,91.936577 L 48.632982,91.936577 L 47.867615135269816,91.78433606502257 L 47.7669565,91.71707811521317 L 47.66629786473018,91.78433606502257 L 46.900931,91.936577 L 24.632982,91.936577 L 23.86761513526982,91.78433606502257 L 23.7669565,91.71707811521317 L 23.66629786473018,91.78433606502257 L 22.900931,91.936577 L 10.632985,91.936577 L 9.86761813526982,91.78433606502257 L 9.766960000000001,91.71707844930249 L 9.66630186473018,91.78433606502257 L 8.900935,91.936577 L 4.766956,91.936577 L 4.001589135269821,91.78433606502257 L 3.3527424376269055,91.35079056237309 L 2.919196934977427,90.70194386473018 L 2.7669560000000004,89.936577 L 2.7669560000000004,54.936577 L 2.9191969349774265,54.17121013526982 L 3.352742437626905,53.52236343762691 L 4.001589135269819,53.08881793497743 L 4.766956,52.936577 L 8.900939,52.936577 L 9.745114042059173,53.12346682729554 L 9.766959999993976,53.140199356602714 L 9.788805957906845,53.12346682731136 L 10.632981,52.936577 L 22.900931,52.936577 L 23.66629786473018,53.08881793497743 L 23.7669565,53.15607588478683 L 23.86761513526982,53.08881793497743 L 24.632982,52.936577 L 46.900931,52.936577 L 47.66629786473018,53.08881793497743 L 47.7669565,53.15607588478683 L 47.867615135269816,53.08881793497743 L 48.632982,52.936577 L 60.900931,52.936577 L 61.66629786473018,53.08881793497743 L 61.7669565,53.15607588478683 L 61.867615135269816,53.08881793497743 L 62.632982,52.936577 L 100.900931,52.936577 L 101.66629786473018,53.08881793497743 L 101.76695649999999,53.15607588478683 L 101.86761513526982,53.08881793497743 L 102.632982,52.936577 L 114.900931,52.936577 L 115.66629786473018,53.08881793497743 L 115.76695649999999,53.15607588478683 L 115.86761513526982,53.08881793497743 L 116.632982,52.936577 L 164.900931,52.936577 L 165.66629786473018,53.08881793497743 L 165.7669565,53.15607588478683 L 165.86761513526983,53.08881793497743 L 166.632982,52.936577 L 178.900931,52.936577 L 179.66629786473018,53.08881793497743 L 179.7669565,53.15607588478683 L 179.86761513526983,53.08881793497743 L 180.632982,52.936577 L 188.900931,52.936577 L 189.66629786473018,53.08881793497743 L 189.7669565,53.15607588478683 L 189.86761513526983,53.08881793497743 L 190.632982,52.936577 L 194.766956,52.936577 L 195.53232286473016,53.08881793497743 L 196.1811695623731,53.52236343762691 L 196.61471506502258,54.17121013526982 L 196.766956,54.936577 L 196.766956,89.936577 L 196.61471506502258,90.70194386473018 z M -3.542742467349905,47.393285313693575 L -3.733043636071688,46.43657673278085 L -3.542742467349905,45.479868151868125 L -3.000810589038057,44.66880977981448 L -2.189752216984412,44.12687790150263 L -1.2330436360716879,43.93657673278085 L -0.2763350551589635,44.12687790150263 L 0.5347233168946808,44.66880977981448 L 1.0766551952065289,45.479868151868125 L 1.266956363928312,46.43657673278085 L 1.076655195206528,47.393285313693575 L 0.5347233168946803,48.20434368574722 L -0.27633505515896306,48.74627556405907 L -1.2330436360716885,48.93657673278085 L -2.189752216984414,48.74627556405907 L -3.0008105890380574,48.20434368574722 L -3.542742467349905,47.393285313693575 z M 198.4572575326501,47.393285313693575 L 198.2669563639283,46.43657673278085 L 198.4572575326501,45.479868151868125 L 198.99918941096195,44.66880977981448 L 199.81024778301557,44.12687790150263 L 200.7669563639283,43.93657673278085 L 201.72366494484103,44.12687790150263 L 202.53472331689466,44.66880977981448 L 203.0766551952065,45.479868151868125 L 203.2669563639283,46.43657673278085 L 203.0766551952065,47.393285313693575 L 202.53472331689466,48.20434368574722 L 201.72366494484103,48.74627556405907 L 200.7669563639283,48.93657673278085 L 199.81024778301557,48.74627556405907 L 198.99918941096192,48.20434368574722 L 198.4572575326501,47.393285313693575 z M -3.542742467349905,99.39328531369357 L -3.733043636071688,98.43657673278085 L -3.542742467349905,97.47986815186813 L -3.000810589038057,96.66880977981448 L -2.189752216984412,96.12687790150264 L -1.2330436360716879,95.93657673278085 L -0.2763350551589635,96.12687790150264 L 0.5347233168946808,96.66880977981448 L 1.0766551952065289,97.47986815186813 L 1.266956363928312,98.43657673278085 L 1.076655195206528,99.39328531369358 L 0.5347233168946803,100.20434368574722 L -0.27633505515896306,100.74627556405906 L -1.2330436360716885,100.93657673278085 L -2.189752216984414,100.74627556405906 L -3.0008105890380574,100.20434368574722 L -3.542742467349905,99.39328531369357 z M 198.4572575326501,99.39328531369357 L 198.2669563639283,98.43657673278085 L 198.4572575326501,97.47986815186813 L 198.99918941096195,96.66880977981448 L 199.81024778301557,96.12687790150264 L 200.7669563639283,95.93657673278085 L 201.72366494484103,96.12687790150264 L 202.53472331689466,96.66880977981448 L 203.0766551952065,97.47986815186813 L 203.2669563639283,98.43657673278085 L 203.0766551952065,99.39328531369358 L 202.53472331689466,100.20434368574722 L 201.72366494484103,100.74627556405906 L 200.7669563639283,100.93657673278085 L 199.81024778301557,100.74627556405906 L 198.99918941096192,100.20434368574722 L 198.4572575326501,99.39328531369357 z M 9.408948551428313,46.52954548278085 L 10.393323551428313,43.93188923278085 L 10.140854801428311,43.40579548278085 L 9.699042301428314,43.32563923278085 L 9.842839176428313,42.88908454528085 L 10.503667301428314,43.22204548278085 L 11.784729801428313,46.52954548278085 L 11.344886051428311,46.52954548278085 L 10.610511051428311,44.42720173278085 L 9.882386051428313,46.52954548278085 L 9.408948551428313,46.52954548278085 z M 8.569593082678313,44.25610798278085 L 8.657093082678312,43.93657673278085 L 9.116468082678313,43.93657673278085 L 8.926038395178312,46.11697517028085 L 8.424749332678312,46.53813923278085 L 7.385218082678312,46.49595173278085 L 6.8039680826783115,45.78970173278085 L 8.036468082678311,46.21813923278085 L 8.45521808267831,46.02523298278085 L 8.532874332678311,45.58188923278085 L 7.0422493326783115,45.22095173278085 L 6.764936832678312,44.37879548278085 L 7.304655582678312,43.91135798278085 L 8.282905582678312,44.05126423278085 L 8.569593082678313,44.25610798278085 z M 14.387073551428312,44.71548298278085 L 13.933167301428313,44.77173298278085 L 13.553089176428312,44.30171735778085 L 12.951526676428312,44.29634235778085 L 12.472753238928313,45.03748298278085 L 14.399573551428313,45.12095173278085 L 14.072229801428312,46.23423298278085 L 13.324386051428313,46.58460017028085 L 12.417503238928312,46.29514704528085 L 12.014659488928313,45.33879548278085 L 12.344886051428313,44.22798298278085 L 13.335932926428313,43.88017829528085 L 14.234143863928313,44.36216267028085 L 14.387073551428312,44.71548298278085 z M 16.342835270178313,46.44673298278085 L 15.772272770178311,46.57401423278085 L 15.389241520178315,46.23935798278085 L 15.329554020178312,46.52954548278085 L 14.934241520178313,46.52954548278085 L 14.934241520178313,43.93657673278085 L 15.373304020178313,43.93657673278085 L 15.496116520178314,45.91926423278085 L 16.191272770178312,46.03892048278085 L 16.342835270178313,46.44673298278085 z M 6.369300113928312,43.93657673278085 L 6.369300113928312,44.35923298278085 L 4.606800113928312,44.35923298278085 L 4.606800113928312,47.51548298278085 L 4.133362613928312,47.51548298278085 L 4.133362613928312,43.93657673278085 L 6.369300113928312,43.93657673278085 z M 19.71890948892831,47.51548298278085 L 19.360315738928314,47.51548298278085 L 17.72672198892831,45.19673298278085 L 17.72672198892831,44.79360798278085 L 19.279846988928313,44.79360798278085 L 19.279846988928313,43.93657673278085 L 19.71890948892831,43.93657673278085 L 19.71890948892831,44.79360798278085 L 20.202503238928312,44.79360798278085 L 20.202503238928312,45.19673298278085 L 19.71890948892831,45.19673298278085 L 19.71890948892831,47.51548298278085 z" /><path fill-rule="evenodd" fill="#eff821ff" stroke="#555555" stroke-width="1.6316330803780652" opacity="0.6" d="M 159.35298660502414,77.27331886523592 L 159.93374924735875,65.27089616108863 L 150.40141048865254,65.31607314189083 L 150.4983154738634,77.13847609416325 L 159.35298660502414,77.27331886523592 z" /><path fill-rule="evenodd" fill="#eff821ff" stroke="#555555" stroke-width="1.6316330803780652" opacity="0.6" d="M 128.5148061267118,77.290374 L 128.868668995955,65.49492968383197 L 122.15295747540549,65.79563279873514 L 121.32343993842589,77.290374 L 128.5148061267118,77.290374 z" /><path fill-rule="evenodd" fill="#eff821ff" stroke="#555555" stroke-width="1.6316330803780652" opacity="0.6" d="M 114.90093096014387,89.93657673278085 L 114.90093096014387,54.93657673278085 L 102.63298176771274,54.93657673278085 L 102.63298176771274,89.93657673278085 L 114.90093096014387,89.93657673278085 z" /><path fill-rule="evenodd" fill="#eff821ff" stroke="#555555" stroke-width="1.6316330803780652" opacity="0.6" d="M 164.90093096014385,89.93657673278085 L 164.90093096014385,54.93657673278085 L 116.63298176771274,54.93657673278085 L 116.63298176771274,89.93657673278085 L 164.90093096014385,89.93657673278085 z M 162.0333455660403,63.26092293955587 L 161.2571379226102,79.3025475704453 L 148.5143957762988,79.10849565958776 L 148.3850278357272,63.32560690984172 L 162.0333455660403,63.26092293955587 z M 130.9324014625643,63.40051964024657 L 130.4557058261715,79.29037418667428 L 119.1739090982078,79.29037418667428 L 120.2861989164578,63.8772152766394 L 130.9324014625643,63.40051964024657 z" /><path fill-rule="evenodd" fill="#eff821ff" stroke="#555555" stroke-width="1.6316330803780652" opacity="0.6" d="M 178.90093096014385,89.93657673278085 L 178.90093096014385,54.93657673278085 L 166.63298176771275,54.93657673278085 L 166.63298176771275,89.93657673278085 L 178.90093096014385,89.93657673278085 z" /><path fill-rule="evenodd" fill="#eff821ff" stroke="#555555" stroke-width="1.6316330803780652" opacity="0.6" d="M 188.90093096014385,54.93657673278085 L 180.63298176771275,54.93657673278085 L 180.63298176771275,89.93657673278085 L 188.90093096014385,89.93657673278085 L 188.90093096014385,54.93657673278085 z" /><path fill-rule="evenodd" fill="#eff821ff" stroke="#555555" stroke-width="1.6316330803780652" opacity="0.6" d="M 194.7669563639283,54.93657673278085 L 190.63298176771275,54.93657673278085 L 190.63298176771275,89.93657673278085 L 194.7669563639283,89.93657673278085 L 194.7669563639283,54.93657673278085 z" /></g></g></svg>