<svg xmlns="http://www.w3.org/2000/svg" xmlns:xlink="http://www.w3.org/1999/xlink" width="300" height="300" viewBox="-5.3266256 44.2727144 185.9756112 33.375971199999995" preserveAspectRatio="xMinYMin meet"><g transform="matrix(1,0,0,-1,0,121.92139999999999)"><g><path fill-rule="evenodd" fill="#0c0786ff" stroke="#555555" stroke-width="1.239837408" opacity="0.6" d="M 1.56136,51.1607 L 1.56136,70.7607 L 4.696438346034776,70.7607 L 5.695339861729482,70.7607 L 5.695335016059043,70.76067563916963 L 5.695335016059043,51.1607 L 4.6964383460347765,51.1607 L 1.56136,51.1607 z" /><path fill-rule="evenodd" fill="#0c0786ff" stroke="#555555" stroke-width="1.239837408" opacity="0.6" d="M 33.89643834603477,70.7607 L 34.895339861729475,70.7607 L 34.895335016059036,70.76067563916963 L 34.895335016059036,51.1607 L 33.89643834603477,51.1607 L 8.426282493652185,51.1607 L 7.42738582362792,51.1607 L 7.42738582362792,70.76067563916963 L 7.427380977957481,70.7607 L 8.426282493652186,70.7607 L 33.89643834603477,70.7607 z" /><path fill-rule="evenodd" fill="#0c0786ff" stroke="#555555" stroke-width="1.239837408" opacity="0.6" d="M 36.62738097795748,70.7607 L 37.626282493652184,70.7607 L 50.89643834603477,70.7607 L 51.895339861729475,70.7607 L 51.895335016059036,70.76067563916963 L 51.895335016059036,51.1607 L 50.89643834603477,51.1607 L 37.626282493652184,51.1607 L 36.62738582362792,51.1607 L 36.62738582362792,70.76067563916963 L 36.62738097795748,70.7607 z" /><path fill-rule="evenodd" fill="#0c0786ff" stroke="#555555" stroke-width="1.239837408" opacity="0.6" d="M 96.89533501605905,70.76067563916963 L 96.89533501605905,51.1607 L 95.89643834603478,51.1607 L 54.626282493652184,51.1607 L 53.62738582362792,51.1607 L 53.62738582362792,70.76067563916963 L 53.62738097795748,70.7607 L 54.626282493652184,70.7607 L 95.89643834603478,70.7607 L 96.8953398617295,70.7607 L 96.89533501605905,70.76067563916963 z" /><path fill-rule="evenodd" fill="#0c0786ff" stroke="#555555" stroke-width="1.239837408" opacity="0.6" d="M 98.62738582362792,51.1607 L 98.62738582362792,70.76067563916963 L 98.62738097795747,70.7607 L 99.62628249365218,70.7607 L 158.89643834603478,70.7607 L 159.8953398617295,70.7607 L 159.89533501605905,70.76067563916963 L 159.89533501605905,51.1607 L 158.89643834603478,51.1607 L 99.62628249365218,51.1607 L 98.62738582362792,51.1607 z" /><path fill-rule="evenodd" fill="#0c0786ff" stroke="#555555" stroke-width="1.239837408" opacity="0.6" d="M 173.761,70.7607 L 173.761,51.1607 L 162.6262824936522,51.1607 L 161.62738582362795,51.1607 L 161.62738582362795,70.76067563916963 L 161.6273809779575,70.7607 L 162.6262824936522,70.7607 L 173.761,70.7607 z" /><path fill-rule="evenodd" fill="#7e03a7ff" stroke="#555555" stroke-width="1.239837408" opacity="0.6" d="M 5.695339861729482,70.7607 L 5.695335016059043,70.76067563916963 L 5.695335016059043,51.1607 L 4.6964383460347765,51.1607 L 1.56136,51.1607 L 1.56136,70.7607 L 4.696438346034776,70.7607 L 5.695339861729482,70.7607 z" /><path fill-rule="evenodd" fill="#7e03a7ff" stroke="#555555" stroke-width="1.239837408" opacity="0.6" d="M 34.895335016059036,51.1607 L 33.89643834603477,51.1607 L 8.426282493652185,51.1607 L 7.42738582362792,51.1607 L 7.42738582362792,70.76067563916963 L 7.427380977957481,70.7607 L 8.426282493652186,70.7607 L 33.89643834603477,70.7607 L 34.895339861729475,70.7607 L 34.895335016059036,70.76067563916963 L 34.895335016059036,51.1607 z" /><path fill-rule="evenodd" fill="#7e03a7ff" stroke="#555555" stroke-width="1.239837408" opacity="0.6" d="M 36.62738582362792,70.76067563916963 L 36.62738097795748,70.7607 L 37.626282493652184,70.7607 L 50.89643834603477,70.7607 L 51.895339861729475,70.7607 L 51.895335016059036,70.76067563916963 L 51.895335016059036,51.1607 L 50.89643834603477,51.1607 L 37.626282493652184,51.1607 L 36.62738582362792,51.1607 L 36.62738582362792,70.76067563916963 z" /><path fill-rule="evenodd" fill="#7e03a7ff" stroke="#555555" stroke-width="1.239837408" opacity="0.6" d="M 96.89533501605905,70.76067563916963 L 96.89533501605905,51.1607 L 95.89643834603478,51.1607 L 54.626282493652184,51.1607 L 53.62738582362792,51.1607 L 53.62738582362792,70.76067563916963 L 53.62738097795748,70.7607 L 54.626282493652184,70.7607 L 95.89643834603478,70.7607 L 96.8953398617295,70.7607 L 96.89533501605905,70.76067563916963 z" /><path fill-rule="evenodd" fill="#7e03a7ff" stroke="#555555" stroke-width="1.239837408" opacity="0.6" d="M 159.89533501605905,51.1607 L 158.89643834603478,51.1607 L 99.62628249365218,51.1607 L 98.62738582362792,51.1607 L 98.62738582362792,70.76067563916963 L 98.62738097795747,70.7607 L 99.62628249365218,70.7607 L 158.89643834603478,70.7607 L 159.8953398617295,70.7607 L 159.89533501605905,70.76067563916963 L 159.89533501605905,51.1607 z" /><path fill-rule="evenodd" fill="#7e03a7ff" stroke="#555555" stroke-width="1.239837408" opacity="0.6" d="M 161.62738582362795,70.76067563916963 L 161.6273809779575,70.7607 L 162.6262824936522,70.7607 L 173.761,70.7607 L 173.761,51.1607 L 162.6262824936522,51.1607 L 161.62738582362795,51.1607 L 161.62738582362795,70.76067563916963 z" /><path fill-rule="evenodd" fill="#cb4777ff" stroke="#555555" stroke-width="1.239837408" opacity="0.6" d="M 34.895339861729475,70.7607 L 36.62738097795748,70.7607 L 51.895339861729475,70.7607 L 53.62738097795748,70.7607 L 96.8953398617295,70.7607 L 98.62738097795747,70.7607 L 159.8953398617295,70.7607 L 161.6273809779575,70.7607 L 173.761,70.7607 L 173.761,51.1607 L 161.62738582362795,51.1607 L 159.89533501605905,51.1607 L 98.62738582362792,51.1607 L 96.89533501605905,51.1607 L 53.62738582362792,51.1607 L 51.895335016059036,51.1607 L 36.62738582362792,51.1607 L 34.895335016059036,51.1607 L 7.42738582362792,51.1607 L 5.695335016059043,51.1607 L 1.56136,51.1607 L 1.56136,70.7607 L 5.695339861729482,70.7607 L 7.427380977957481,70.7607 L 34.895339861729475,70.7607 z" /><path fill-rule="evenodd" fill="#f89540ff" stroke="#555555" stroke-width="1.239837408" opacity="0.6" d="M 5.695335016059043,51.1607 L 4.6964383460347765,51.1607 L 1.56136,51.1607 L 1.56136,70.7607 L 4.696438346034776,70.7607 L 5.695339861729482,70.7607 L 5.695335016059043,70.76067563916963 L 5.695335016059043,51.1607 z" /><path fill-rule="evenodd" fill="#f89540ff" stroke="#555555" stroke-width="1.239837408" opacity="0.6" d="M 8.426282493652185,51.1607 L 7.42738582362792,51.1607 L 7.42738582362792,70.76067563916963 L 7.427380977957481,70.7607 L 8.426282493652186,70.7607 L 33.89643834603477,70.7607 L 34.895339861729475,70.7607 L 34.895335016059036,70.76067563916963 L 34.895335016059036,51.1607 L 33.89643834603477,51.1607 L 8.426282493652185,51.1607 z" /><path fill-rule="evenodd" fill="#f89540ff" stroke="#555555" stroke-width="1.239837408" opacity="0.6" d="M 51.895339861729475,70.7607 L 51.895335016059036,70.76067563916963 L 51.895335016059036,51.1607 L 50.89643834603477,51.1607 L 37.626282493652184,51.1607 L 36.62738582362792,51.1607 L 36.62738582362792,70.76067563916963 L 36.62738097795748,70.7607 L 37.626282493652184,70.7607 L 50.89643834603477,70.7607 L 51.895339861729475,70.7607 z" /><path fill-rule="evenodd" fill="#f89540ff" stroke="#555555" stroke-width="1.239837408" opacity="0.6" d="M 54.626282493652184,51.1607 L 53.62738582362792,51.1607 L 53.62738582362792,70.76067563916963 L 53.62738097795748,70.7607 L 54.626282493652184,70.7607 L 95.89643834603478,70.7607 L 96.8953398617295,70.7607 L 96.89533501605905,70.76067563916963 L 96.89533501605905,51.1607 L 95.89643834603478,51.1607 L 54.626282493652184,51.1607 z" /><path fill-rule="evenodd" fill="#f89540ff" stroke="#555555" stroke-width="1.239837408" opacity="0.6" d="M 159.89533501605905,51.1607 L 158.89643834603478,51.1607 L 99.62628249365218,51.1607 L 98.62738582362792,51.1607 L 98.62738582362792,70.76067563916963 L 98.62738097795747,70.7607 L 99.62628249365218,70.7607 L 158.89643834603478,70.7607 L 159.8953398617295,70.7607 L 159.89533501605905,70.76067563916963 L 159.89533501605905,51.1607 z" /><path fill-rule="evenodd" fill="#f89540ff" stroke="#555555" stroke-width="1.239837408" opacity="0.6" d="M 162.6262824936522,51.1607 L 161.62738582362795,51.1607 L 161.62738582362795,70.76067563916963 L 161.6273809779575,70.7607 L 162.6262824936522,70.7607 L 173.761,70.7607 L 173.761,51.1607 L 162.6262824936522,51.1607 z" /><path fill-rule="evenodd" fill="#eff821ff" stroke="#555555" stroke-width="1.239837408" opacity="0.6" d="M 1.56136,51.1607 L 1.56136,70.7607 L 4.696438346034776,70.7607 L 5.695339861729482,70.7607 L 5.695335016059043,70.76067563916963 L 5.695335016059043,51.1607 L 4.6964383460347765,51.1607 L 1.56136,51.1607 z" /><path fill-rule="evenodd" fill="#eff821ff" stroke="#555555" stroke-width="1.239837408" opacity="0.6" d="M 33.89643834603477,51.1607 L 8.426282493652185,51.1607 L 7.42738582362792,51.1607 L 7.42738582362792,70.76067563916963 L 7.427380977957481,70.7607 L 8.426282493652186,70.7607 L 33.89643834603477,70.7607 L 34.895339861729475,70.7607 L 34.895335016059036,70.76067563916963 L 34.895335016059036,51.1607 L 33.89643834603477,51.1607 z" /><path fill-rule="evenodd" fill="#eff821ff" stroke="#555555" stroke-width="1.239837408" opacity="0.6" d="M 36.62738582362792,51.1607 L 36.62738582362792,70.76067563916963 L 36.62738097795748,70.7607 L 37.626282493652184,70.7607 L 50.89643834603477,70.7607 L 51.895339861729475,70.7607 L 51.895335016059036,70.76067563916963 L 51.895335016059036,51.1607 L 50.89643834603477,51.1607 L 37.626282493652184,51.1607 L 36.62738582362792,51.1607 z" /><path fill-rule="evenodd" fill="#eff821ff" stroke="#555555" stroke-width="1.239837408" opacity="0.6" d="M 53.62738582362792,70.76067563916963 L 53.62738097795748,70.7607 L 54.626282493652184,70.7607 L 95.89643834603478,70.7607 L 96.8953398617295,70.7607 L 96.89533501605905,70.76067563916963 L 96.89533501605905,51.1607 L 95.89643834603478,51.1607 L 54.626282493652184,51.1607 L 53.62738582362792,51.1607 L 53.62738582362792,70.76067563916963 z" /><path fill-rule="evenodd" fill="#eff821ff" stroke="#555555" stroke-width="1.239837408" opacity="0.6" d="M 158.89643834603478,51.1607 L 99.62628249365218,51.1607 L 98.62738582362792,51.1607 L 98.62738582362792,70.76067563916963 L 98.62738097795747,70.7607 L 99.62628249365218,70.7607 L 158.89643834603478,70.7607 L 159.8953398617295,70.7607 L 159.89533501605905,70.76067563916963 L 159.89533501605905,51.1607 L 158.89643834603478,51.1607 z" /><path fill-rule="evenodd" fill="#eff821ff" stroke="#555555" stroke-width="1.239837408" opacity="0.6" d="M 162.6262824936522,51.1607 L 161.62738582362795,51.1607 L 161.62738582362795,70.76067563916963 L 161.6273809779575,70.7607 L 162.6262824936522,70.7607 L 173.761,70.7607 L 173.761,51.1607 L 162.6262824936522,51.1607 z" /></g></g></svg>