<svg xmlns="http://www.w3.org/2000/svg" xmlns:xlink="http://www.w3.org/1999/xlink" width="300" height="300" viewBox="-0.5419470162437134 44.0573925639128 168.4066148721744 33.80659051134403" preserveAspectRatio="xMinYMin meet"><g transform="matrix(1,0,0,-1,0,121.92137563916963)"><g><path fill-rule="evenodd" fill="#00FF00" stroke="#555555" stroke-width="1.122710765814496" opacity="0.6" d="M 6.561360419843481,50.29467459621556 L 6.2299468458078895,50.36059685480873 L 5.948987984147687,50.5483275643042 L 5.761257274652216,50.829286425964405 L 5.695335016059043,51.1607 L 5.695335016059043,70.76067563916963 L 5.761257274652216,71.09208921320523 L 5.948987984147687,71.37304807486542 L 6.2299468458078895,71.5607787843609 L 6.561360419843481,71.62670104295407 L 6.892773993879073,71.5607787843609 L 7.173732855539276,71.37304807486542 L 7.361463565034747,71.09208921320523 L 7.42738582362792,70.76067563916963 L 7.42738582362792,51.1607 L 7.361463565034747,50.829286425964405 L 7.173732855539276,50.5483275643042 L 6.892773993879073,50.36059685480873 L 6.561360419843481,50.29467459621556 z" /><path fill-rule="evenodd" fill="#00FF00" stroke="#555555" stroke-width="1.122710765814496" opacity="0.6" d="M 35.76136041984348,50.29467459621556 L 35.42994684580788,50.36059685480873 L 35.14898798414768,50.5483275643042 L 34.96125727465221,50.829286425964405 L 34.895335016059036,51.1607 L 34.895335016059036,70.76067563916963 L 34.96125727465221,71.09208921320523 L 35.14898798414768,71.37304807486542 L 35.42994684580788,71.5607787843609 L 35.76136041984348,71.62670104295407 L 36.09277399387907,71.5607787843609 L 36.373732855539274,71.37304807486542 L 36.56146356503474,71.09208921320523 L 36.62738582362792,70.76067563916963 L 36.62738582362792,51.1607 L 36.56146356503474,50.829286425964405 L 36.373732855539274,50.5483275643042 L 36.09277399387907,50.36059685480873 L 35.76136041984348,50.29467459621556 z" /><path fill-rule="evenodd" fill="#00FF00" stroke="#555555" stroke-width="1.122710765814496" opacity="0.6" d="M 52.76136041984348,50.29467459621556 L 52.42994684580788,50.36059685480873 L 52.14898798414768,50.5483275643042 L 51.96125727465221,50.829286425964405 L 51.895335016059036,51.1607 L 51.895335016059036,70.76067563916963 L 51.96125727465221,71.09208921320523 L 52.14898798414768,71.37304807486542 L 52.42994684580788,71.5607787843609 L 52.76136041984348,71.62670104295407 L 53.09277399387907,71.5607787843609 L 53.373732855539274,71.37304807486542 L 53.56146356503474,71.09208921320523 L 53.62738582362792,70.76067563916963 L 53.62738582362792,51.1607 L 53.56146356503474,50.829286425964405 L 53.373732855539274,50.5483275643042 L 53.09277399387907,50.36059685480873 L 52.76136041984348,50.29467459621556 z" /><path fill-rule="evenodd" fill="#00FF00" stroke="#555555" stroke-width="1.122710765814496" opacity="0.6" d="M 97.1489879841477,50.5483275643042 L 96.96125727465221,50.829286425964405 L 96.89533501605905,51.1607 L 96.89533501605905,70.76067563916963 L 96.96125727465221,71.09208921320523 L 97.1489879841477,71.37304807486542 L 97.42994684580789,71.5607787843609 L 97.76136041984348,71.62670104295407 L 98.09277399387908,71.5607787843609 L 98.37373285553927,71.37304807486542 L 98.56146356503476,71.09208921320523 L 98.62738582362792,70.76067563916963 L 98.62738582362792,51.1607 L 98.56146356503476,50.829286425964405 L 98.37373285553927,50.5483275643042 L 98.09277399387908,50.36059685480873 L 97.76136041984348,50.29467459621556 L 97.42994684580789,50.36059685480873 L 97.1489879841477,50.5483275643042 z" /><path fill-rule="evenodd" fill="#00FF00" stroke="#555555" stroke-width="1.122710765814496" opacity="0.6" d="M 160.1489879841477,50.5483275643042 L 159.96125727465224,50.829286425964405 L 159.89533501605905,51.1607 L 159.89533501605905,70.76067563916963 L 159.96125727465224,71.09208921320523 L 160.1489879841477,71.37304807486542 L 160.4299468458079,71.5607787843609 L 160.7613604198435,71.62670104295407 L 161.0927739938791,71.5607787843609 L 161.3737328555393,71.37304807486542 L 161.56146356503476,71.09208921320523 L 161.62738582362795,70.76067563916963 L 161.62738582362795,51.1607 L 161.56146356503476,50.829286425964405 L 161.3737328555393,50.5483275643042 L 161.0927739938791,50.36059685480873 L 160.7613604198435,50.29467459621556 L 160.4299468458079,50.36059685480873 L 160.1489879841477,50.5483275643042 z" /></g></g></svg>