<svg xmlns="http://www.w3.org/2000/svg" xmlns:xlink="http://www.w3.org/1999/xlink" width="300" height="300" viewBox="-0.5419470162437126 44.92341796769723 168.4066148721744 32.074564064605525" preserveAspectRatio="xMinYMin meet"><g transform="matrix(1,0,0,-1,0,121.92139999999999)"><g><path fill-rule="evenodd" fill="#0c0786ff" stroke="#555555" stroke-width="1.122710765814496" opacity="0.6" d="M 5.695335016059044,51.160709999999995 L 5.695335016059044,70.76067465425561 L 5.69533520820624,70.76067660515884 L 5.695338260664585,70.76069195090322 L 5.695340134983987,70.76069608761429 L 5.695343645630488,70.76069896872741 L 5.695348068517388,70.7607 L 7.4273727711695745,70.7607 L 7.427377194056475,70.76069896872741 L 7.427380704702975,70.76069608761429 L 7.427382579022378,70.76069195090322 L 7.427385631480723,70.76067660515884 L 7.427385823627919,70.76067465425561 L 7.427385823627919,51.160709999999995 L 7.4273850624232445,51.16070617316567 L 7.427382894695731,51.16070292893218 L 7.427379650462243,51.16070076120467 L 7.427375823627919,51.16069999999999 L 5.6953450160590435,51.16069999999999 L 5.695341189224719,51.16070076120467 L 5.695337944991231,51.16070292893218 L 5.695335777263718,51.16070617316567 L 5.695335016059044,51.160709999999995 z" /><path fill-rule="evenodd" fill="#0c0786ff" stroke="#555555" stroke-width="1.122710765814496" opacity="0.6" d="M 34.89533501605903,51.160709999999995 L 34.89533501605903,70.76067465425557 L 34.89533520820623,70.76067660515879 L 34.89533826066458,70.76069195090322 L 34.89534013498398,70.76069608761429 L 34.89534364563048,70.76069896872741 L 34.895348068517386,70.7607 L 36.62737277116957,70.7607 L 36.62737719405647,70.76069896872741 L 36.62738070470297,70.76069608761429 L 36.627382579022374,70.76069195090322 L 36.62738563148073,70.76067660515879 L 36.627385823627925,70.76067465425557 L 36.627385823627925,51.160709999999995 L 36.627385062423244,51.16070617316567 L 36.627382894695735,51.16070292893218 L 36.627379650462245,51.16070076120467 L 36.62737582362792,51.16069999999999 L 34.89534501605903,51.16069999999999 L 34.89534118922471,51.16070076120467 L 34.89533794499122,51.16070292893218 L 34.89533577726371,51.16070617316567 L 34.89533501605903,51.160709999999995 z" /><path fill-rule="evenodd" fill="#0c0786ff" stroke="#555555" stroke-width="1.122710765814496" opacity="0.6" d="M 51.89533501605903,51.160709999999995 L 51.89533501605903,70.76067465425557 L 51.89533520820623,70.76067660515879 L 51.89533826066458,70.76069195090322 L 51.89534013498398,70.76069608761429 L 51.89534364563048,70.76069896872741 L 51.895348068517386,70.7607 L 53.62737277116957,70.7607 L 53.62737719405647,70.76069896872741 L 53.62738070470297,70.76069608761429 L 53.627382579022374,70.76069195090322 L 53.62738563148073,70.76067660515879 L 53.627385823627925,70.76067465425557 L 53.627385823627925,51.160709999999995 L 53.627385062423244,51.16070617316567 L 53.627382894695735,51.16070292893218 L 53.627379650462245,51.16070076120467 L 53.62737582362792,51.16069999999999 L 51.89534501605903,51.16069999999999 L 51.89534118922471,51.16070076120467 L 51.89533794499122,51.16070292893218 L 51.89533577726371,51.16070617316567 L 51.89533501605903,51.160709999999995 z" /><path fill-rule="evenodd" fill="#0c0786ff" stroke="#555555" stroke-width="1.122710765814496" opacity="0.6" d="M 98.62738582362792,51.160709999999995 L 98.62738506242324,51.16070617316567 L 98.62738289469573,51.16070292893218 L 98.62737965046225,51.16070076120467 L 98.62737582362791,51.16069999999999 L 96.89534501605905,51.16069999999999 L 96.89534118922472,51.16070076120467 L 96.89533794499124,51.16070292893218 L 96.89533577726372,51.16070617316567 L 96.89533501605905,51.160709999999995 L 96.89533501605905,70.76067465425561 L 96.89533520820625,70.76067660515884 L 96.8953382606646,70.76069195090322 L 96.89534013498401,70.76069608761429 L 96.8953436456305,70.76069896872741 L 96.89534806851741,70.7607 L 98.62737277116956,70.7607 L 98.62737719405646,70.76069896872741 L 98.62738070470296,70.76069608761429 L 98.62738257902237,70.76069195090322 L 98.62738563148072,70.76067660515884 L 98.62738582362792,70.76067465425561 L 98.62738582362792,51.160709999999995 z" /><path fill-rule="evenodd" fill="#0c0786ff" stroke="#555555" stroke-width="1.122710765814496" opacity="0.6" d="M 161.62738582362795,70.76067465425547 L 161.62738582362795,51.160709999999995 L 161.62738506242326,51.16070617316567 L 161.62738289469576,51.16070292893218 L 161.62737965046227,51.16070076120467 L 161.62737582362794,51.16069999999999 L 159.89534501605905,51.16069999999999 L 159.89534118922472,51.16070076120467 L 159.89533794499124,51.16070292893218 L 159.89533577726374,51.16070617316567 L 159.89533501605905,51.160709999999995 L 159.89533501605905,70.76067465425547 L 159.89533520820626,70.76067660515868 L 159.89533826066463,70.76069195090321 L 159.8953394912313,70.76069514102744 L 159.89534172458457,70.76069773010452 L 159.89534469961887,70.76069941544066 L 159.89534806851742,70.7607 L 161.62737277116958,70.7607 L 161.62737614006812,70.76069941544066 L 161.62737911510243,70.76069773010452 L 161.62738134845569,70.76069514102744 L 161.62738257902237,70.76069195090321 L 161.62738563148073,70.76067660515868 L 161.62738582362795,70.76067465425547 z" /><path fill-rule="evenodd" fill="#7e03a7ff" stroke="#555555" stroke-width="1.122710765814496" opacity="0.6" d="M 5.695335016059044,51.160709999999995 L 5.695335016059044,70.76067465425561 L 5.69533520820624,70.76067660515884 L 5.695338260664585,70.76069195090322 L 5.695340134983987,70.76069608761429 L 5.695343645630488,70.76069896872741 L 5.695348068517388,70.7607 L 7.4273727711695745,70.7607 L 7.427377194056475,70.76069896872741 L 7.427380704702975,70.76069608761429 L 7.427382579022378,70.76069195090322 L 7.427385631480723,70.76067660515884 L 7.427385823627919,70.76067465425561 L 7.427385823627919,51.160709999999995 L 7.4273850624232445,51.16070617316567 L 7.427382894695731,51.16070292893218 L 7.427379650462243,51.16070076120467 L 7.427375823627919,51.16069999999999 L 5.6953450160590435,51.16069999999999 L 5.695341189224719,51.16070076120467 L 5.695337944991231,51.16070292893218 L 5.695335777263718,51.16070617316567 L 5.695335016059044,51.160709999999995 z" /><path fill-rule="evenodd" fill="#7e03a7ff" stroke="#555555" stroke-width="1.122710765814496" opacity="0.6" d="M 34.89533501605903,51.160709999999995 L 34.89533501605903,70.76067465425557 L 34.89533520820623,70.76067660515879 L 34.89533826066458,70.76069195090322 L 34.89534013498398,70.76069608761429 L 34.89534364563048,70.76069896872741 L 34.895348068517386,70.7607 L 36.62737277116957,70.7607 L 36.62737719405647,70.76069896872741 L 36.62738070470297,70.76069608761429 L 36.627382579022374,70.76069195090322 L 36.62738563148073,70.76067660515879 L 36.627385823627925,70.76067465425557 L 36.627385823627925,51.160709999999995 L 36.627385062423244,51.16070617316567 L 36.627382894695735,51.16070292893218 L 36.627379650462245,51.16070076120467 L 36.62737582362792,51.16069999999999 L 34.89534501605903,51.16069999999999 L 34.89534118922471,51.16070076120467 L 34.89533794499122,51.16070292893218 L 34.89533577726371,51.16070617316567 L 34.89533501605903,51.160709999999995 z" /><path fill-rule="evenodd" fill="#7e03a7ff" stroke="#555555" stroke-width="1.122710765814496" opacity="0.6" d="M 51.89533501605903,51.160709999999995 L 51.89533501605903,70.76067465425557 L 51.89533520820623,70.76067660515879 L 51.89533826066458,70.76069195090322 L 51.89534013498398,70.76069608761429 L 51.89534364563048,70.76069896872741 L 51.895348068517386,70.7607 L 53.62737277116957,70.7607 L 53.62737719405647,70.76069896872741 L 53.62738070470297,70.76069608761429 L 53.627382579022374,70.76069195090322 L 53.62738563148073,70.76067660515879 L 53.627385823627925,70.76067465425557 L 53.627385823627925,51.160709999999995 L 53.627385062423244,51.16070617316567 L 53.627382894695735,51.16070292893218 L 53.627379650462245,51.16070076120467 L 53.62737582362792,51.16069999999999 L 51.89534501605903,51.16069999999999 L 51.89534118922471,51.16070076120467 L 51.89533794499122,51.16070292893218 L 51.89533577726371,51.16070617316567 L 51.89533501605903,51.160709999999995 z" /><path fill-rule="evenodd" fill="#7e03a7ff" stroke="#555555" stroke-width="1.122710765814496" opacity="0.6" d="M 98.62738582362792,51.160709999999995 L 98.62738506242324,51.16070617316567 L 98.62738289469573,51.16070292893218 L 98.62737965046225,51.16070076120467 L 98.62737582362791,51.16069999999999 L 96.89534501605905,51.16069999999999 L 96.89534118922472,51.16070076120467 L 96.89533794499124,51.16070292893218 L 96.89533577726372,51.16070617316567 L 96.89533501605905,51.160709999999995 L 96.89533501605905,70.76067465425561 L 96.89533520820625,70.76067660515884 L 96.8953382606646,70.76069195090322 L 96.89534013498401,70.76069608761429 L 96.8953436456305,70.76069896872741 L 96.89534806851741,70.7607 L 98.62737277116956,70.7607 L 98.62737719405646,70.76069896872741 L 98.62738070470296,70.76069608761429 L 98.62738257902237,70.76069195090322 L 98.62738563148072,70.76067660515884 L 98.62738582362792,70.76067465425561 L 98.62738582362792,51.160709999999995 z" /><path fill-rule="evenodd" fill="#7e03a7ff" stroke="#555555" stroke-width="1.122710765814496" opacity="0.6" d="M 161.62738582362795,70.76067465425547 L 161.62738582362795,51.160709999999995 L 161.62738506242326,51.16070617316567 L 161.62738289469576,51.16070292893218 L 161.62737965046227,51.16070076120467 L 161.62737582362794,51.16069999999999 L 159.89534501605905,51.16069999999999 L 159.89534118922472,51.16070076120467 L 159.89533794499124,51.16070292893218 L 159.89533577726374,51.16070617316567 L 159.89533501605905,51.160709999999995 L 159.89533501605905,70.76067465425547 L 159.89533520820626,70.76067660515868 L 159.89533826066463,70.76069195090321 L 159.8953394912313,70.76069514102744 L 159.89534172458457,70.76069773010452 L 159.89534469961887,70.76069941544066 L 159.89534806851742,70.7607 L 161.62737277116958,70.7607 L 161.62737614006812,70.76069941544066 L 161.62737911510243,70.76069773010452 L 161.62738134845569,70.76069514102744 L 161.62738257902237,70.76069195090321 L 161.62738563148073,70.76067660515868 L 161.62738582362795,70.76067465425547 z" /><path fill-rule="evenodd" fill="#f89540ff" stroke="#555555" stroke-width="1.122710765814496" opacity="0.6" d="M 5.695335016059044,51.160709999999995 L 5.695335016059044,70.76067465425561 L 5.69533520820624,70.76067660515884 L 5.695338260664585,70.76069195090322 L 5.695340134983987,70.76069608761429 L 5.695343645630488,70.76069896872741 L 5.695348068517388,70.7607 L 7.4273727711695745,70.7607 L 7.427377194056475,70.76069896872741 L 7.427380704702975,70.76069608761429 L 7.427382579022378,70.76069195090322 L 7.427385631480723,70.76067660515884 L 7.427385823627919,70.76067465425561 L 7.427385823627919,51.160709999999995 L 7.4273850624232445,51.16070617316567 L 7.427382894695731,51.16070292893218 L 7.427379650462243,51.16070076120467 L 7.427375823627919,51.16069999999999 L 5.6953450160590435,51.16069999999999 L 5.695341189224719,51.16070076120467 L 5.695337944991231,51.16070292893218 L 5.695335777263718,51.16070617316567 L 5.695335016059044,51.160709999999995 z" /><path fill-rule="evenodd" fill="#f89540ff" stroke="#555555" stroke-width="1.122710765814496" opacity="0.6" d="M 34.89533501605903,51.160709999999995 L 34.89533501605903,70.76067465425557 L 34.89533520820623,70.76067660515879 L 34.89533826066458,70.76069195090322 L 34.89534013498398,70.76069608761429 L 34.89534364563048,70.76069896872741 L 34.895348068517386,70.7607 L 36.62737277116957,70.7607 L 36.62737719405647,70.76069896872741 L 36.62738070470297,70.76069608761429 L 36.627382579022374,70.76069195090322 L 36.62738563148073,70.76067660515879 L 36.627385823627925,70.76067465425557 L 36.627385823627925,51.160709999999995 L 36.627385062423244,51.16070617316567 L 36.627382894695735,51.16070292893218 L 36.627379650462245,51.16070076120467 L 36.62737582362792,51.16069999999999 L 34.89534501605903,51.16069999999999 L 34.89534118922471,51.16070076120467 L 34.89533794499122,51.16070292893218 L 34.89533577726371,51.16070617316567 L 34.89533501605903,51.160709999999995 z" /><path fill-rule="evenodd" fill="#f89540ff" stroke="#555555" stroke-width="1.122710765814496" opacity="0.6" d="M 51.89533501605903,51.160709999999995 L 51.89533501605903,70.76067465425557 L 51.89533520820623,70.76067660515879 L 51.89533826066458,70.76069195090322 L 51.89534013498398,70.76069608761429 L 51.89534364563048,70.76069896872741 L 51.895348068517386,70.7607 L 53.62737277116957,70.7607 L 53.62737719405647,70.76069896872741 L 53.62738070470297,70.76069608761429 L 53.627382579022374,70.76069195090322 L 53.62738563148073,70.76067660515879 L 53.627385823627925,70.76067465425557 L 53.627385823627925,51.160709999999995 L 53.627385062423244,51.16070617316567 L 53.627382894695735,51.16070292893218 L 53.627379650462245,51.16070076120467 L 53.62737582362792,51.16069999999999 L 51.89534501605903,51.16069999999999 L 51.89534118922471,51.16070076120467 L 51.89533794499122,51.16070292893218 L 51.89533577726371,51.16070617316567 L 51.89533501605903,51.160709999999995 z" /><path fill-rule="evenodd" fill="#f89540ff" stroke="#555555" stroke-width="1.122710765814496" opacity="0.6" d="M 98.62738582362792,51.160709999999995 L 98.62738506242324,51.16070617316567 L 98.62738289469573,51.16070292893218 L 98.62737965046225,51.16070076120467 L 98.62737582362791,51.16069999999999 L 96.89534501605905,51.16069999999999 L 96.89534118922472,51.16070076120467 L 96.89533794499124,51.16070292893218 L 96.89533577726372,51.16070617316567 L 96.89533501605905,51.160709999999995 L 96.89533501605905,70.76067465425561 L 96.89533520820625,70.76067660515884 L 96.8953382606646,70.76069195090322 L 96.89534013498401,70.76069608761429 L 96.8953436456305,70.76069896872741 L 96.89534806851741,70.7607 L 98.62737277116956,70.7607 L 98.62737719405646,70.76069896872741 L 98.62738070470296,70.76069608761429 L 98.62738257902237,70.76069195090322 L 98.62738563148072,70.76067660515884 L 98.62738582362792,70.76067465425561 L 98.62738582362792,51.160709999999995 z" /><path fill-rule="evenodd" fill="#f89540ff" stroke="#555555" stroke-width="1.122710765814496" opacity="0.6" d="M 161.62738582362795,70.76067465425547 L 161.62738582362795,51.160709999999995 L 161.62738506242326,51.16070617316567 L 161.62738289469576,51.16070292893218 L 161.62737965046227,51.16070076120467 L 161.62737582362794,51.16069999999999 L 159.89534501605905,51.16069999999999 L 159.89534118922472,51.16070076120467 L 159.89533794499124,51.16070292893218 L 159.89533577726374,51.16070617316567 L 159.89533501605905,51.160709999999995 L 159.89533501605905,70.76067465425547 L 159.89533520820626,70.76067660515868 L 159.89533826066463,70.76069195090321 L 159.8953394912313,70.76069514102744 L 159.89534172458457,70.76069773010452 L 159.89534469961887,70.76069941544066 L 159.89534806851742,70.7607 L 161.62737277116958,70.7607 L 161.62737614006812,70.76069941544066 L 161.62737911510243,70.76069773010452 L 161.62738134845569,70.76069514102744 L 161.62738257902237,70.76069195090321 L 161.62738563148073,70.76067660515868 L 161.62738582362795,70.76067465425547 z" /><path fill-rule="evenodd" fill="#eff821ff" stroke="#555555" stroke-width="1.122710765814496" opacity="0.6" d="M 5.695335016059044,51.160709999999995 L 5.695335016059044,70.76067465425561 L 5.69533520820624,70.76067660515884 L 5.695338260664585,70.76069195090322 L 5.695340134983987,70.76069608761429 L 5.695343645630488,70.76069896872741 L 5.695348068517388,70.7607 L 7.4273727711695745,70.7607 L 7.427377194056475,70.76069896872741 L 7.427380704702975,70.76069608761429 L 7.427382579022378,70.76069195090322 L 7.427385631480723,70.76067660515884 L 7.427385823627919,70.76067465425561 L 7.427385823627919,51.160709999999995 L 7.4273850624232445,51.16070617316567 L 7.427382894695731,51.16070292893218 L 7.427379650462243,51.16070076120467 L 7.427375823627919,51.16069999999999 L 5.6953450160590435,51.16069999999999 L 5.695341189224719,51.16070076120467 L 5.695337944991231,51.16070292893218 L 5.695335777263718,51.16070617316567 L 5.695335016059044,51.160709999999995 z" /><path fill-rule="evenodd" fill="#eff821ff" stroke="#555555" stroke-width="1.122710765814496" opacity="0.6" d="M 34.89533501605903,51.160709999999995 L 34.89533501605903,70.76067465425557 L 34.89533520820623,70.76067660515879 L 34.89533826066458,70.76069195090322 L 34.89534013498398,70.76069608761429 L 34.89534364563048,70.76069896872741 L 34.895348068517386,70.7607 L 36.62737277116957,70.7607 L 36.62737719405647,70.76069896872741 L 36.62738070470297,70.76069608761429 L 36.627382579022374,70.76069195090322 L 36.62738563148073,70.76067660515879 L 36.627385823627925,70.76067465425557 L 36.627385823627925,51.160709999999995 L 36.627385062423244,51.16070617316567 L 36.627382894695735,51.16070292893218 L 36.627379650462245,51.16070076120467 L 36.62737582362792,51.16069999999999 L 34.89534501605903,51.16069999999999 L 34.89534118922471,51.16070076120467 L 34.89533794499122,51.16070292893218 L 34.89533577726371,51.16070617316567 L 34.89533501605903,51.160709999999995 z" /><path fill-rule="evenodd" fill="#eff821ff" stroke="#555555" stroke-width="1.122710765814496" opacity="0.6" d="M 51.89533501605903,51.160709999999995 L 51.89533501605903,70.76067465425557 L 51.89533520820623,70.76067660515879 L 51.89533826066458,70.76069195090322 L 51.89534013498398,70.76069608761429 L 51.89534364563048,70.76069896872741 L 51.895348068517386,70.7607 L 53.62737277116957,70.7607 L 53.62737719405647,70.76069896872741 L 53.62738070470297,70.76069608761429 L 53.627382579022374,70.76069195090322 L 53.62738563148073,70.76067660515879 L 53.627385823627925,70.76067465425557 L 53.627385823627925,51.160709999999995 L 53.627385062423244,51.16070617316567 L 53.627382894695735,51.16070292893218 L 53.627379650462245,51.16070076120467 L 53.62737582362792,51.16069999999999 L 51.89534501605903,51.16069999999999 L 51.89534118922471,51.16070076120467 L 51.89533794499122,51.16070292893218 L 51.89533577726371,51.16070617316567 L 51.89533501605903,51.160709999999995 z" /><path fill-rule="evenodd" fill="#eff821ff" stroke="#555555" stroke-width="1.122710765814496" opacity="0.6" d="M 98.62738582362792,51.160709999999995 L 98.62738506242324,51.16070617316567 L 98.62738289469573,51.16070292893218 L 98.62737965046225,51.16070076120467 L 98.62737582362791,51.16069999999999 L 96.89534501605905,51.16069999999999 L 96.89534118922472,51.16070076120467 L 96.89533794499124,51.16070292893218 L 96.89533577726372,51.16070617316567 L 96.89533501605905,51.160709999999995 L 96.89533501605905,70.76067465425561 L 96.89533520820625,70.76067660515884 L 96.8953382606646,70.76069195090322 L 96.89534013498401,70.76069608761429 L 96.8953436456305,70.76069896872741 L 96.89534806851741,70.7607 L 98.62737277116956,70.7607 L 98.62737719405646,70.76069896872741 L 98.62738070470296,70.76069608761429 L 98.62738257902237,70.76069195090322 L 98.62738563148072,70.76067660515884 L 98.62738582362792,70.76067465425561 L 98.62738582362792,51.160709999999995 z" /><path fill-rule="evenodd" fill="#eff821ff" stroke="#555555" stroke-width="1.122710765814496" opacity="0.6" d="M 161.62738582362795,70.76067465425547 L 161.62738582362795,51.160709999999995 L 161.62738506242326,51.16070617316567 L 161.62738289469576,51.16070292893218 L 161.62737965046227,51.16070076120467 L 161.62737582362794,51.16069999999999 L 159.89534501605905,51.16069999999999 L 159.89534118922472,51.16070076120467 L 159.89533794499124,51.16070292893218 L 159.89533577726374,51.16070617316567 L 159.89533501605905,51.160709999999995 L 159.89533501605905,70.76067465425547 L 159.89533520820626,70.76067660515868 L 159.89533826066463,70.76069195090321 L 159.8953394912313,70.76069514102744 L 159.89534172458457,70.76069773010452 L 159.89534469961887,70.76069941544066 L 159.89534806851742,70.7607 L 161.62737277116958,70.7607 L 161.62737614006812,70.76069941544066 L 161.62737911510243,70.76069773010452 L 161.62738134845569,70.76069514102744 L 161.62738257902237,70.76069195090321 L 161.62738563148073,70.76067660515868 L 161.62738582362795,70.76067465425547 z" /></g></g></svg>