<svg xmlns="http://www.w3.org/2000/svg" xmlns:xlink="http://www.w3.org/1999/xlink" width="300" height="300" viewBox="-32.37592925267748 15.923590747322525 451.6899241134196 90.07421850535495" preserveAspectRatio="xMinYMin meet"><g transform="matrix(1,0,0,-1,0,121.92139999999999)"><g><path fill-rule="evenodd" fill="#00FF00" stroke="#555555" stroke-width="3.0112661607561306" opacity="0.6" d="M 190.9690328040323,89.2685528040323 L 190.9690328040323,32.652847195967695 L -15.646672804032312,32.652847195967695 L -15.646672804032312,89.2685528040323 L 190.9690328040323,89.2685528040323 z M -5.106586952966375,46.72846695296637 L -5.648518831278222,45.91740858091273 L -5.8388200000000055,44.9607 L -5.648518831278222,44.00399141908728 L -5.106586952966374,43.192933047033634 L -4.29552858091273,42.651001168721784 L -3.338820000000006,42.4607 L -2.3821114190872814,42.651001168721784 L -1.571053047033637,43.192933047033634 L -1.029121168721789,44.00399141908728 L -0.8388200000000059,44.9607 L -1.0291211687217898,45.91740858091273 L -1.5710530470336375,46.72846695296637 L -2.382111419087281,47.27039883127822 L -3.3388200000000063,47.4607 L -4.295528580912732,47.27039883127822 L -5.106586952966375,46.72846695296637 z M 176.89341304703362,46.72846695296637 L 176.3514811687218,45.91740858091273 L 176.16118,44.9607 L 176.3514811687218,44.00399141908728 L 176.89341304703365,43.192933047033634 L 177.70447141908727,42.651001168721784 L 178.66118,42.4607 L 179.61788858091273,42.651001168721784 L 180.42894695296638,43.192933047033634 L 180.9708788312782,44.00399141908728 L 181.16118,44.9607 L 180.9708788312782,45.91740858091273 L 180.42894695296636,46.72846695296637 L 179.61788858091273,47.27039883127822 L 178.66118,47.4607 L 177.70447141908727,47.27039883127822 L 176.89341304703362,46.72846695296637 z M -5.106586952966375,78.72846695296637 L -5.648518831278222,77.91740858091272 L -5.8388200000000055,76.9607 L -5.648518831278222,76.00399141908728 L -5.106586952966374,75.19293304703363 L -4.29552858091273,74.65100116872179 L -3.338820000000006,74.4607 L -2.3821114190872814,74.65100116872179 L -1.571053047033637,75.19293304703363 L -1.029121168721789,76.00399141908728 L -0.8388200000000059,76.9607 L -1.0291211687217898,77.91740858091273 L -1.5710530470336375,78.72846695296637 L -2.382111419087281,79.27039883127821 L -3.3388200000000063,79.4607 L -4.295528580912732,79.27039883127821 L -5.106586952966375,78.72846695296637 z M 176.89341304703362,78.72846695296637 L 176.3514811687218,77.91740858091272 L 176.16118,76.9607 L 176.3514811687218,76.00399141908728 L 176.89341304703365,75.19293304703363 L 177.70447141908727,74.65100116872179 L 178.66118,74.4607 L 179.61788858091273,74.65100116872179 L 180.42894695296638,75.19293304703363 L 180.9708788312782,76.00399141908728 L 181.16118,76.9607 L 180.9708788312782,77.91740858091273 L 180.42894695296636,78.72846695296637 L 179.61788858091273,79.27039883127821 L 178.66118,79.4607 L 177.70447141908727,79.27039883127821 L 176.89341304703362,78.72846695296637 z M 8.035078437499994,41.929918750000006 L 7.593265937499995,41.849762500000004 L 7.737062812499994,41.413207812500005 L 8.397890937499996,41.74616875 L 9.678953437499995,45.05366875 L 9.239109687499994,45.05366875 L 8.504734687499994,42.951325000000004 L 7.776609687499995,45.05366875 L 7.303172187499994,45.05366875 L 8.287547187499994,42.4560125 L 8.035078437499994,41.929918750000006 z M 4.698191718749994,44.313825 L 5.930691718749994,44.7422625 L 6.349441718749993,44.54935625 L 6.427097968749994,44.106012500000006 L 4.936472968749994,43.745075 L 4.6591604687499935,42.902918750000005 L 5.198879218749994,42.43548125 L 6.177129218749995,42.575387500000005 L 6.463816718749994,42.78023125 L 6.5513167187499945,42.4607 L 7.010691718749994,42.4607 L 6.820262031249994,44.641098437500006 L 6.3189729687499945,45.0622625 L 5.279441718749995,45.020075000000006 L 4.698191718749994,44.313825 z M 12.293797187499996,43.645075000000006 L 11.966453437499995,44.758356250000006 L 11.218609687499995,45.108723437500004 L 10.311726874999994,44.8192703125 L 9.908883124999996,43.862918750000006 L 10.239109687499996,42.752106250000004 L 11.230156562499996,42.4043015625 L 12.128367499999996,42.886285937500006 L 12.281297187499995,43.23960625 L 11.827390937499995,43.29585625 L 11.447312812499995,42.825840625000005 L 10.845750312499995,42.820465625000004 L 10.366976874999995,43.561606250000004 L 12.293797187499996,43.645075000000006 z M 13.666496406249994,45.0981375 L 13.283465156249997,44.763481250000005 L 13.223777656249995,45.05366875 L 12.828465156249996,45.05366875 L 12.828465156249996,42.4607 L 13.267527656249996,42.4607 L 13.390340156249996,44.4433875 L 14.085496406249995,44.563043750000006 L 14.237058906249995,44.970856250000004 L 13.666496406249994,45.0981375 z M 16.119383124999995,42.77085625 L 16.733883125,42.414606250000006 L 17.529890937499996,42.570621875 L 18.087398749999995,43.8695984375 L 17.766906562499997,45.6463875 L 17.252226874999995,46.012543750000006 L 16.510945624999994,45.97879375 L 15.812445624999995,44.89829375 L 16.119383124999995,42.77085625 z M 2.501023749999994,46.039606250000006 L 2.0275862499999944,46.039606250000006 L 2.0275862499999944,42.4607 L 4.263523749999994,42.4607 L 4.263523749999994,42.883356250000006 L 2.501023749999994,42.883356250000006 L 2.501023749999994,46.039606250000006 z M 5.695335016059043,51.1607 L 4.6964383460347765,51.1607 L 4.715540105109614,50.96675658541246 L 4.715587426684565,50.966518683789886 L 4.864827712727384,50.60622076117332 L 4.864935047694882,50.606060123042425 L 5.140695139092038,50.33030003164214 L 5.140855777222891,50.330192696674665 L 5.50115369986513,50.1809524106223 L 5.501391601487638,50.180905089047364 L 5.696384142908866,50.1617 L 7.426336696778097,50.1617 L 7.6213292381993245,50.180905089047364 L 7.621567139821833,50.1809524106223 L 7.981865062464072,50.330192696674665 L 7.9820257005949244,50.33030003164214 L 8.257785791992085,50.60606012304243 L 8.257893126959578,50.60622076117332 L 8.407133413002395,50.96651868378988 L 8.407180734577349,50.96675658541247 L 8.426282493652185,51.1607 L 7.42738582362792,51.1607 L 7.42738582362792,70.76067563916963 L 7.427380977957481,70.7607 L 8.426282493652186,70.7607 L 8.407180734577349,70.95464341458755 L 8.407133413002395,70.95488131621013 L 8.257893126965186,71.31517923881832 L 8.25778579199771,71.31533987694918 L 7.982025700569751,71.5910999683747 L 7.981865062438893,71.59120730334217 L 7.621567139856911,71.74044758937072 L 7.62132923823428,71.74049491094569 L 7.426336696778142,71.75970000000001 L 5.696384142908821,71.75970000000001 L 5.501391601452683,71.74049491094569 L 5.501153699830052,71.74044758937072 L 5.14085577724807,71.59120730334217 L 5.140695139117212,71.5910999683747 L 4.864935047689249,71.31533987694917 L 4.864827712721778,71.31517923881832 L 4.715587426684567,70.95488131621013 L 4.715540105109613,70.95464341458754 L 4.696438346034776,70.7607 L 5.695339861729482,70.7607 L 5.695335016059043,70.76067563916963 L 5.695335016059043,51.1607 z M 33.91554010510658,50.96675658542773 L 33.91558742668151,50.966518683805226 L 34.06482771273371,50.60622076116385 L 34.064935047701184,50.60606012303299 L 34.34069513909203,50.330300031642146 L 34.340855777222885,50.33019269667467 L 34.701153699864264,50.180952410622474 L 34.70139160148677,50.18090508904754 L 34.896384142908865,50.1617 L 36.62633669677809,50.1617 L 36.821329238200185,50.18090508904754 L 36.82156713982269,50.180952410622474 L 37.18186506246407,50.33019269667467 L 37.18202570059493,50.330300031642146 L 37.45778579198577,50.60606012303299 L 37.457893126953245,50.60622076116385 L 37.60713341300544,50.966518683805226 L 37.607180734580375,50.96675658542773 L 37.626282493652184,51.1607 L 36.62738582362792,51.1607 L 36.62738582362792,70.76067563916963 L 36.62738097795748,70.7607 L 37.626282493652184,70.7607 L 37.607180734580375,70.95464341457227 L 37.60713341300544,70.9548813161948 L 37.45789312695887,71.31517923882775 L 37.45778579199139,71.31533987695862 L 37.18202570056976,71.59109996837469 L 37.181865062438874,71.59120730334219 L 36.82156713985778,71.74044758937055 L 36.821329238235144,71.74049491094551 L 36.62633669677814,71.75970000000001 L 34.896384142908815,71.75970000000001 L 34.70139160145181,71.74049491094551 L 34.70115369982918,71.74044758937055 L 34.34085577724808,71.59120730334219 L 34.340695139117194,71.59109996837469 L 34.06493504769556,71.31533987695862 L 34.06482771272808,71.31517923882775 L 33.91558742668151,70.9548813161948 L 33.91554010510658,70.95464341457227 L 33.89643834603477,70.7607 L 34.895339861729475,70.7607 L 34.895335016059036,70.76067563916963 L 34.895335016059036,51.1607 L 33.89643834603477,51.1607 L 33.91554010510658,50.96675658542773 z M 50.91554010510658,50.96675658542773 L 50.91558742668151,50.966518683805226 L 51.06482771273371,50.60622076116385 L 51.064935047701184,50.60606012303299 L 51.34069513909203,50.330300031642146 L 51.340855777222885,50.33019269667467 L 51.701153699864264,50.180952410622474 L 51.70139160148677,50.18090508904754 L 51.896384142908865,50.1617 L 53.62633669677809,50.1617 L 53.821329238200185,50.18090508904754 L 53.82156713982269,50.180952410622474 L 54.18186506246407,50.33019269667467 L 54.18202570059493,50.330300031642146 L 54.45778579198577,50.60606012303299 L 54.457893126953245,50.60622076116385 L 54.60713341300544,50.966518683805226 L 54.607180734580375,50.96675658542773 L 54.626282493652184,51.1607 L 53.62738582362792,51.1607 L 53.62738582362792,70.76067563916963 L 53.62738097795748,70.7607 L 54.626282493652184,70.7607 L 54.607180734580375,70.95464341457227 L 54.60713341300544,70.9548813161948 L 54.45789312695887,71.31517923882775 L 54.45778579199139,71.31533987695862 L 54.18202570056976,71.59109996837469 L 54.181865062438874,71.59120730334219 L 53.82156713985778,71.74044758937055 L 53.821329238235144,71.74049491094551 L 53.62633669677814,71.75970000000001 L 51.896384142908815,71.75970000000001 L 51.70139160145181,71.74049491094551 L 51.70115369982918,71.74044758937055 L 51.34085577724808,71.59120730334219 L 51.340695139117194,71.59109996837469 L 51.06493504769556,71.31533987695862 L 51.06482771272808,71.31517923882775 L 50.91558742668151,70.9548813161948 L 50.91554010510658,70.95464341457227 L 50.89643834603477,70.7607 L 51.895339861729475,70.7607 L 51.895335016059036,70.76067563916963 L 51.895335016059036,51.1607 L 50.89643834603477,51.1607 L 50.91554010510658,50.96675658542773 z M 96.89533501605905,51.1607 L 95.89643834603478,51.1607 L 95.91554010511354,50.96675658539277 L 95.9155874266885,50.96651868377014 L 96.06482771271686,50.60622076118904 L 96.06493504768436,50.60606012305816 L 96.34069513910043,50.330300031636526 L 96.3408557772313,50.330192696669044 L 96.70115369986425,50.180952410622474 L 96.70139160148678,50.18090508904754 L 96.89638414290886,50.1617 L 98.62633669677811,50.1617 L 98.82132923820019,50.18090508904754 L 98.82156713982272,50.180952410622474 L 99.18186506245567,50.330192696669044 L 99.18202570058654,50.330300031636526 L 99.45778579200261,50.60606012305816 L 99.4578931269701,50.60622076118904 L 99.60713341299846,50.96651868377014 L 99.60718073457343,50.96675658539277 L 99.62628249365218,51.1607 L 98.62738582362792,51.1607 L 98.62738582362792,70.76067563916963 L 98.62738097795747,70.7607 L 99.62628249365218,70.7607 L 99.60718073457343,70.95464341460725 L 99.60713341299846,70.95488131622987 L 99.45789312697572,71.31517923880254 L 99.45778579200824,71.31533987693342 L 99.18202570056134,71.59109996838032 L 99.18186506243046,71.5912073033478 L 98.82156713985779,71.74044758937055 L 98.82132923823517,71.74049491094551 L 98.62633669677814,71.75970000000001 L 96.89638414290883,71.75970000000001 L 96.7013916014518,71.74049491094551 L 96.70115369982918,71.74044758937055 L 96.34085577725651,71.5912073033478 L 96.34069513912563,71.59109996838032 L 96.06493504767873,71.31533987693342 L 96.06482771271125,71.31517923880254 L 95.9155874266885,70.95488131622987 L 95.91554010511354,70.95464341460725 L 95.89643834603478,70.7607 L 96.8953398617295,70.7607 L 96.89533501605905,70.76067563916963 L 96.89533501605905,51.1607 z M 158.9155401051135,50.966756585392915 L 158.9155874266885,50.96651868377014 L 159.0648277127169,50.60622076118904 L 159.0649350476844,50.60606012305813 L 159.34069513908358,50.330300031647816 L 159.3408557772145,50.33019269668028 L 159.70115369987127,50.18095241062108 L 159.70139160149373,50.180905089046156 L 159.8963841429089,50.1617 L 161.6263366967781,50.1617 L 161.82132923819327,50.180905089046156 L 161.82156713981573,50.18095241062108 L 162.1818650624725,50.33019269668028 L 162.18202570060342,50.330300031647816 L 162.4577857920026,50.60606012305813 L 162.4578931269701,50.60622076118904 L 162.6071334129985,50.96651868377014 L 162.6071807345735,50.966756585392915 L 162.6262824936522,51.1607 L 161.62738582362795,51.1607 L 161.62738582362795,70.76067563916963 L 161.6273809779575,70.7607 L 162.6262824936522,70.7607 L 162.6071807345735,70.9546434146071 L 162.6071334129985,70.95488131622987 L 162.4578931269757,71.3151792388026 L 162.45778579200825,71.31533987693342 L 162.18202570057824,71.59109996836905 L 162.18186506244732,71.59120730333656 L 161.82156713985083,71.74044758937195 L 161.82132923822826,71.74049491094691 L 161.62633669677817,71.75970000000001 L 159.89638414290883,71.75970000000001 L 159.70139160145874,71.74049491094691 L 159.70115369983617,71.74044758937195 L 159.34085577723968,71.59120730333656 L 159.34069513910876,71.59109996836905 L 159.06493504767874,71.31533987693342 L 159.0648277127113,71.3151792388026 L 158.9155874266885,70.95488131622987 L 158.9155401051135,70.9546434146071 L 158.89643834603478,70.7607 L 159.8953398617295,70.7607 L 159.89533501605905,70.76067563916963 L 159.89533501605905,51.1607 L 158.89643834603478,51.1607 L 158.9155401051135,50.966756585392915 z" /><path fill-rule="evenodd" fill="#00FF00" stroke="#555555" stroke-width="3.0112661607561306" opacity="0.6" d="M 402.58473841209695,89.2685528040323 L 402.58473841209695,32.652847195967695 L 195.9690328040323,32.652847195967695 L 195.9690328040323,89.2685528040323 L 402.58473841209695,89.2685528040323 z M 206.50911865509823,46.72846695296637 L 205.9671867767864,45.91740858091273 L 205.77688560806462,44.9607 L 205.9671867767864,44.00399141908728 L 206.50911865509823,43.192933047033634 L 207.32017702715189,42.651001168721784 L 208.27688560806462,42.4607 L 209.23359418897732,42.651001168721784 L 210.04465256103097,43.192933047033634 L 210.58658443934283,44.00399141908728 L 210.77688560806462,44.9607 L 210.58658443934283,45.91740858091273 L 210.04465256103097,46.72846695296637 L 209.23359418897732,47.27039883127822 L 208.27688560806462,47.4607 L 207.32017702715189,47.27039883127822 L 206.50911865509823,46.72846695296637 z M 388.50911865509823,46.72846695296637 L 387.96718677678643,45.91740858091273 L 387.7768856080646,44.9607 L 387.96718677678643,44.00399141908728 L 388.5091186550983,43.192933047033634 L 389.3201770271519,42.651001168721784 L 390.2768856080646,42.4607 L 391.23359418897735,42.651001168721784 L 392.044652561031,43.192933047033634 L 392.5865844393428,44.00399141908728 L 392.7768856080646,44.9607 L 392.5865844393428,45.91740858091273 L 392.04465256103094,46.72846695296637 L 391.23359418897735,47.27039883127822 L 390.2768856080646,47.4607 L 389.3201770271519,47.27039883127822 L 388.50911865509823,46.72846695296637 z M 206.50911865509823,78.72846695296637 L 205.9671867767864,77.91740858091272 L 205.77688560806462,76.9607 L 205.9671867767864,76.00399141908728 L 206.50911865509823,75.19293304703363 L 207.32017702715189,74.65100116872179 L 208.27688560806462,74.4607 L 209.23359418897732,74.65100116872179 L 210.04465256103097,75.19293304703363 L 210.58658443934283,76.00399141908728 L 210.77688560806462,76.9607 L 210.58658443934283,77.91740858091273 L 210.04465256103097,78.72846695296637 L 209.23359418897732,79.27039883127821 L 208.27688560806462,79.4607 L 207.32017702715189,79.27039883127821 L 206.50911865509823,78.72846695296637 z M 388.50911865509823,78.72846695296637 L 387.96718677678643,77.91740858091272 L 387.7768856080646,76.9607 L 387.96718677678643,76.00399141908728 L 388.5091186550983,75.19293304703363 L 389.3201770271519,74.65100116872179 L 390.2768856080646,74.4607 L 391.23359418897735,74.65100116872179 L 392.044652561031,75.19293304703363 L 392.5865844393428,76.00399141908728 L 392.7768856080646,76.9607 L 392.5865844393428,77.91740858091273 L 392.04465256103094,78.72846695296637 L 391.23359418897735,79.27039883127821 L 390.2768856080646,79.4607 L 389.3201770271519,79.27039883127821 L 388.50911865509823,78.72846695296637 z M 219.65078404556462,41.929918750000006 L 219.20897154556462,41.849762500000004 L 219.35276842056462,41.413207812500005 L 220.0135965455646,41.74616875 L 221.2946590455646,45.05366875 L 220.8548152955646,45.05366875 L 220.1204402955646,42.951325000000004 L 219.3923152955646,45.05366875 L 218.9188777955646,45.05366875 L 219.9032527955646,42.4560125 L 219.65078404556462,41.929918750000006 z M 216.3138973268146,44.313825 L 217.5463973268146,44.7422625 L 217.96514732681462,44.54935625 L 218.0428035768146,44.106012500000006 L 216.5521785768146,43.745075 L 216.27486607681462,42.902918750000005 L 216.8145848268146,42.43548125 L 217.7928348268146,42.575387500000005 L 218.0795223268146,42.78023125 L 218.16702232681462,42.4607 L 218.6263973268146,42.4607 L 218.4359676393146,44.641098437500006 L 217.9346785768146,45.0622625 L 216.89514732681462,45.020075000000006 L 216.3138973268146,44.313825 z M 223.9095027955646,43.645075000000006 L 223.58215904556462,44.758356250000006 L 222.8343152955646,45.108723437500004 L 221.92743248306462,44.8192703125 L 221.5245887330646,43.862918750000006 L 221.8548152955646,42.752106250000004 L 222.8458621705646,42.4043015625 L 223.7440731080646,42.886285937500006 L 223.89700279556462,43.23960625 L 223.4430965455646,43.29585625 L 223.06301842056462,42.825840625000005 L 222.46145592056462,42.820465625000004 L 221.98268248306462,43.561606250000004 L 223.9095027955646,43.645075000000006 z M 225.2822020143146,45.0981375 L 224.89917076431462,44.763481250000005 L 224.83948326431462,45.05366875 L 224.4441707643146,45.05366875 L 224.4441707643146,42.4607 L 224.8832332643146,42.4607 L 225.00604576431462,44.4433875 L 225.70120201431462,44.563043750000006 L 225.8527645143146,44.970856250000004 L 225.2822020143146,45.0981375 z M 213.6432918580646,46.039606250000006 L 213.6432918580646,42.4607 L 215.8792293580646,42.4607 L 215.8792293580646,42.883356250000006 L 214.11672935806462,42.883356250000006 L 214.11672935806462,46.039606250000006 L 213.6432918580646,46.039606250000006 z M 227.2366512330646,43.31773125 L 228.7897762330646,43.31773125 L 228.7897762330646,42.4607 L 229.2288387330646,42.4607 L 229.2288387330646,43.31773125 L 229.71243248306462,43.31773125 L 229.71243248306462,43.720856250000004 L 229.2288387330646,43.720856250000004 L 229.2288387330646,46.039606250000006 L 228.8702449830646,46.039606250000006 L 227.2366512330646,43.720856250000004 L 227.2366512330646,43.31773125 z M 217.31104062412365,51.1607 L 216.31214395409938,51.1607 L 216.33124571317424,50.96675658541246 L 216.3312930347492,50.966518683789886 L 216.480533320792,50.60622076117332 L 216.4806406557595,50.606060123042425 L 216.75640074715665,50.33030003164214 L 216.7565613852875,50.330192696674665 L 217.11685930792976,50.1809524106223 L 217.11709720955224,50.180905089047364 L 217.31208975097348,50.1617 L 219.0420423048427,50.1617 L 219.23703484626395,50.180905089047364 L 219.23727274788644,50.1809524106223 L 219.59757067052868,50.330192696674665 L 219.59773130865955,50.33030003164214 L 219.8734914000567,50.60606012304243 L 219.8735987350242,50.60622076117332 L 220.022839021067,50.96651868378988 L 220.02288634264195,50.96675658541247 L 220.0419881017168,51.1607 L 219.04309143169255,51.1607 L 219.04309143169255,70.76067563916963 L 219.0430865860221,70.7607 L 220.0419881017168,70.7607 L 220.02288634264195,70.95464341458755 L 220.022839021067,70.95488131621013 L 219.87359873502982,71.31517923881832 L 219.87349140006233,71.31533987694918 L 219.59773130863437,71.5910999683747 L 219.5975706705035,71.59120730334217 L 219.23727274792154,71.74044758937072 L 219.23703484629888,71.74049491094569 L 219.04204230484277,71.75970000000001 L 217.31208975097343,71.75970000000001 L 217.1170972095173,71.74049491094569 L 217.11685930789466,71.74044758937072 L 216.7565613853127,71.59120730334217 L 216.75640074718183,71.5910999683747 L 216.48064065575386,71.31533987694917 L 216.4805333207864,71.31517923881832 L 216.3312930347492,70.95488131621013 L 216.33124571317424,70.95464341458754 L 216.31214395409938,70.7607 L 217.3110454697941,70.7607 L 217.31104062412365,70.76067563916963 L 217.31104062412365,51.1607 z M 245.5312457131712,50.96675658542773 L 245.5312930347461,50.966518683805226 L 245.68053332079833,50.60622076116385 L 245.68064065576579,50.60606012303299 L 245.95640074715664,50.330300031642146 L 245.9565613852875,50.33019269667467 L 246.3168593079289,50.180952410622474 L 246.31709720955138,50.18090508904754 L 246.51208975097347,50.1617 L 248.2420423048427,50.1617 L 248.4370348462648,50.18090508904754 L 248.4372727478873,50.180952410622474 L 248.79757067052867,50.33019269667467 L 248.79773130865954,50.330300031642146 L 249.0734914000504,50.60606012303299 L 249.07359873501787,50.60622076116385 L 249.22283902107006,50.966518683805226 L 249.22288634264498,50.96675658542773 L 249.2419881017168,51.1607 L 248.24309143169253,51.1607 L 248.24309143169253,70.76067563916963 L 248.2430865860221,70.7607 L 249.2419881017168,70.7607 L 249.22288634264498,70.95464341457227 L 249.22283902107006,70.9548813161948 L 249.0735987350235,71.31517923882775 L 249.073491400056,71.31533987695862 L 248.79773130863438,71.59109996837469 L 248.7975706705035,71.59120730334219 L 248.4372727479224,71.74044758937055 L 248.43703484629975,71.74049491094551 L 248.24204230484276,71.75970000000001 L 246.51208975097342,71.75970000000001 L 246.31709720951642,71.74049491094551 L 246.3168593078938,71.74044758937055 L 245.95656138531268,71.59120730334219 L 245.95640074718182,71.59109996837469 L 245.6806406557602,71.31533987695862 L 245.6805333207927,71.31517923882775 L 245.5312930347461,70.9548813161948 L 245.5312457131712,70.95464341457227 L 245.51214395409937,70.7607 L 246.51104546979408,70.7607 L 246.51104062412367,70.76067563916963 L 246.51104062412367,51.1607 L 245.51214395409937,51.1607 L 245.5312457131712,50.96675658542773 z M 262.5312457131712,50.96675658542773 L 262.5312930347461,50.966518683805226 L 262.6805333207983,50.60622076116385 L 262.6806406557658,50.60606012303299 L 262.95640074715664,50.330300031642146 L 262.9565613852875,50.33019269667467 L 263.3168593079289,50.180952410622474 L 263.3170972095514,50.18090508904754 L 263.5120897509735,50.1617 L 265.2420423048427,50.1617 L 265.4370348462648,50.18090508904754 L 265.4372727478873,50.180952410622474 L 265.79757067052867,50.33019269667467 L 265.79773130865954,50.330300031642146 L 266.0734914000504,50.60606012303299 L 266.07359873501787,50.60622076116385 L 266.22283902107006,50.966518683805226 L 266.222886342645,50.96675658542773 L 266.2419881017168,51.1607 L 265.2430914316925,51.1607 L 265.2430914316925,70.76067563916963 L 265.2430865860221,70.7607 L 266.2419881017168,70.7607 L 266.222886342645,70.95464341457227 L 266.22283902107006,70.9548813161948 L 266.0735987350235,71.31517923882775 L 266.073491400056,71.31533987695862 L 265.79773130863435,71.59109996837469 L 265.7975706705035,71.59120730334219 L 265.4372727479224,71.74044758937055 L 265.43703484629975,71.74049491094551 L 265.24204230484276,71.75970000000001 L 263.5120897509734,71.75970000000001 L 263.3170972095164,71.74049491094551 L 263.31685930789376,71.74044758937055 L 262.9565613853127,71.59120730334219 L 262.9564007471818,71.59109996837469 L 262.68064065576016,71.31533987695862 L 262.6805333207927,71.31517923882775 L 262.5312930347461,70.9548813161948 L 262.5312457131712,70.95464341457227 L 262.5121439540994,70.7607 L 263.5110454697941,70.7607 L 263.51104062412367,70.76067563916963 L 263.51104062412367,51.1607 L 262.5121439540994,51.1607 L 262.5312457131712,50.96675658542773 z M 308.51104062412367,51.1607 L 307.51214395409943,51.1607 L 307.5312457131781,50.96675658539277 L 307.5312930347531,50.96651868377014 L 307.6805333207815,50.60622076118904 L 307.68064065574896,50.60606012305816 L 307.95640074716505,50.330300031636526 L 307.9565613852959,50.330192696669044 L 308.3168593079289,50.180952410622474 L 308.3170972095514,50.18090508904754 L 308.5120897509735,50.1617 L 310.2420423048427,50.1617 L 310.4370348462648,50.18090508904754 L 310.43727274788733,50.180952410622474 L 310.79757067052026,50.330192696669044 L 310.7977313086511,50.330300031636526 L 311.0734914000672,50.60606012305816 L 311.0735987350347,50.60622076118904 L 311.22283902106307,50.96651868377014 L 311.22288634263805,50.96675658539277 L 311.2419881017168,51.1607 L 310.2430914316925,51.1607 L 310.2430914316925,70.76067563916963 L 310.24308658602206,70.7607 L 311.2419881017168,70.7607 L 311.22288634263805,70.95464341460725 L 311.22283902106307,70.95488131622987 L 311.0735987350403,71.31517923880254 L 311.07349140007284,71.31533987693342 L 310.79773130862594,71.59109996838032 L 310.7975706704951,71.5912073033478 L 310.4372727479224,71.74044758937055 L 310.43703484629975,71.74049491094551 L 310.24204230484276,71.75970000000001 L 308.5120897509735,71.75970000000001 L 308.3170972095164,71.74049491094551 L 308.31685930789376,71.74044758937055 L 307.95656138532115,71.5912073033478 L 307.95640074719023,71.59109996838032 L 307.68064065574333,71.31533987693342 L 307.68053332077585,71.31517923880254 L 307.5312930347531,70.95488131622987 L 307.5312457131781,70.95464341460725 L 307.51214395409943,70.7607 L 308.5110454697941,70.7607 L 308.51104062412367,70.76067563916963 L 308.51104062412367,51.1607 z M 370.5312457131781,50.966756585392915 L 370.5312930347531,50.96651868377014 L 370.6805333207815,50.60622076118904 L 370.680640655749,50.60606012305813 L 370.9564007471482,50.330300031647816 L 370.9565613852791,50.33019269668028 L 371.3168593079359,50.18095241062108 L 371.31709720955837,50.180905089046156 L 371.5120897509735,50.1617 L 373.2420423048427,50.1617 L 373.4370348462579,50.180905089046156 L 373.43727274788034,50.18095241062108 L 373.7975706705371,50.33019269668028 L 373.79773130866806,50.330300031647816 L 374.0734914000672,50.60606012305813 L 374.0735987350347,50.60622076118904 L 374.2228390210631,50.96651868377014 L 374.2228863426381,50.966756585392915 L 374.24198810171686,51.1607 L 373.24309143169256,51.1607 L 373.24309143169256,70.76067563916963 L 373.2430865860221,70.7607 L 374.24198810171686,70.7607 L 374.2228863426381,70.9546434146071 L 374.2228390210631,70.95488131622987 L 374.0735987350403,71.3151792388026 L 374.07349140007284,71.31533987693342 L 373.7977313086428,71.59109996836905 L 373.79757067051196,71.59120730333656 L 373.4372727479155,71.74044758937195 L 373.4370348462929,71.74049491094691 L 373.2420423048428,71.75970000000001 L 371.5120897509735,71.75970000000001 L 371.31709720952335,71.74049491094691 L 371.3168593079008,71.74044758937195 L 370.9565613853043,71.59120730333656 L 370.95640074717335,71.59109996836905 L 370.68064065574333,71.31533987693342 L 370.6805333207759,71.3151792388026 L 370.5312930347531,70.95488131622987 L 370.5312457131781,70.9546434146071 L 370.51214395409943,70.7607 L 371.5110454697941,70.7607 L 371.51104062412367,70.76067563916963 L 371.51104062412367,51.1607 L 370.51214395409943,51.1607 L 370.5312457131781,50.966756585392915 z" /></g></g></svg>