<svg xmlns="http://www.w3.org/2000/svg" xmlns:xlink="http://www.w3.org/1999/xlink" width="300" height="300" viewBox="-23.9113010283549 24.38821897164511 223.1449620567098 73.14496205670977" preserveAspectRatio="xMinYMin meet"><g transform="matrix(1,0,0,-1,0,121.92139999999998)"><g><path fill-rule="evenodd" fill="#0c0786ff" stroke="#555555" stroke-width="1.4876330803780653" opacity="0.6" d="M -15.646672804032312,32.652847195967695 L -15.646672804032312,89.2685528040323 L 190.9690328040323,89.2685528040323 L 190.9690328040323,32.652847195967695 L -15.646672804032312,32.652847195967695 z M -0.2863990650225734,71.52606686473018 L -0.4386399999999999,70.7607 L -0.4386399999999999,51.1607 L -0.2863990650225736,50.395333135269816 L 0.1471464376269047,49.746486437626906 L 0.7959931352698194,49.312940934977426 L 1.56136,49.1607 L 5.695335,49.1607 L 6.460701746888401,49.31294088616577 L 6.5613604880277405,49.38019889278644 L 6.662019135269819,49.312940934977426 L 7.427386,49.1607 L 34.895335,49.1607 L 35.660701864730186,49.312940934977426 L 35.7613605,49.38019888478683 L 35.86201913526982,49.312940934977426 L 36.627386,49.1607 L 51.895335,49.1607 L 52.660701864730186,49.312940934977426 L 52.7613605,49.38019888478683 L 52.86201913526982,49.312940934977426 L 53.627386,49.1607 L 96.895335,49.1607 L 97.6607017468884,49.31294088616577 L 97.76136048802775,49.38019889278644 L 97.86201913526982,49.312940934977426 L 98.627386,49.1607 L 159.895335,49.1607 L 160.66070186473016,49.312940934977426 L 160.7613605,49.38019888478684 L 160.86201913526983,49.312940934977426 L 161.627386,49.1607 L 173.761,49.1607 L 174.52636686473016,49.312940934977426 L 175.1752135623731,49.746486437626906 L 175.60875906502258,50.395333135269816 L 175.761,51.1607 L 175.761,70.7607 L 175.60875906502258,71.52606686473018 L 175.1752135623731,72.17491356237309 L 174.52636686473016,72.60845906502257 L 173.761,72.7607 L 161.627381,72.7607 L 160.93175332613228,72.63582723284298 L 160.76136050001267,72.53533602635862 L 160.59096767429338,72.63582723268507 L 159.89534,72.7607 L 98.627381,72.7607 L 97.93175332591944,72.63582723276403 L 97.76602562101421,72.53808733725576 L 97.66070698257197,72.6084590162109 L 96.89534,72.7607 L 53.627381,72.7607 L 52.931753325919445,72.63582723276403 L 52.76136049999683,72.53533602635676 L 52.590967673974134,72.6358272328035 L 51.89534,72.7607 L 36.627381,72.7607 L 35.931753325919445,72.63582723276403 L 35.76136049999683,72.53533602635676 L 35.590967673974134,72.6358272328035 L 34.89534,72.7607 L 7.427381,72.7607 L 6.73175332593275,72.63582723276896 L 6.56602562101463,72.53808733725546 L 6.460706982571954,72.6084590162109 L 5.69534,72.7607 L 1.56136,72.7607 L 0.7959931352698206,72.60845906502257 L 0.14714643762690516,72.17491356237309 L -0.2863990650225734,71.52606686473018 z M -3.338820000000006,42.4607 L -2.3821114190872814,42.651001168721784 L -1.571053047033637,43.192933047033634 L -1.029121168721789,44.00399141908728 L -0.8388200000000059,44.9607 L -1.0291211687217898,45.91740858091273 L -1.5710530470336375,46.72846695296637 L -2.382111419087281,47.27039883127822 L -3.3388200000000063,47.4607 L -4.295528580912732,47.27039883127822 L -5.106586952966375,46.72846695296637 L -5.648518831278222,45.91740858091273 L -5.8388200000000055,44.9607 L -5.648518831278222,44.00399141908728 L -5.106586952966374,43.192933047033634 L -4.29552858091273,42.651001168721784 L -3.338820000000006,42.4607 z M 178.66118,42.4607 L 179.61788858091273,42.651001168721784 L 180.42894695296638,43.192933047033634 L 180.9708788312782,44.00399141908728 L 181.16118,44.9607 L 180.9708788312782,45.91740858091273 L 180.42894695296636,46.72846695296637 L 179.61788858091273,47.27039883127822 L 178.66118,47.4607 L 177.70447141908727,47.27039883127822 L 176.89341304703362,46.72846695296637 L 176.3514811687218,45.91740858091273 L 176.16118,44.9607 L 176.3514811687218,44.00399141908728 L 176.89341304703365,43.192933047033634 L 177.70447141908727,42.651001168721784 L 178.66118,42.4607 z M -3.338820000000006,74.4607 L -2.3821114190872814,74.65100116872179 L -1.571053047033637,75.19293304703363 L -1.029121168721789,76.00399141908728 L -0.8388200000000059,76.9607 L -1.0291211687217898,77.91740858091273 L -1.5710530470336375,78.72846695296637 L -2.382111419087281,79.27039883127821 L -3.3388200000000063,79.4607 L -4.295528580912732,79.27039883127821 L -5.106586952966375,78.72846695296637 L -5.648518831278222,77.91740858091272 L -5.8388200000000055,76.9607 L -5.648518831278222,76.00399141908728 L -5.106586952966374,75.19293304703363 L -4.29552858091273,74.65100116872179 L -3.338820000000006,74.4607 z M 178.66118,74.4607 L 179.61788858091273,74.65100116872179 L 180.42894695296638,75.19293304703363 L 180.9708788312782,76.00399141908728 L 181.16118,76.9607 L 180.9708788312782,77.91740858091273 L 180.42894695296636,78.72846695296637 L 179.61788858091273,79.27039883127821 L 178.66118,79.4607 L 177.70447141908727,79.27039883127821 L 176.89341304703362,78.72846695296637 L 176.3514811687218,77.91740858091272 L 176.16118,76.9607 L 176.3514811687218,76.00399141908728 L 176.89341304703365,75.19293304703363 L 177.70447141908727,74.65100116872179 L 178.66118,74.4607 z M 8.035078437499994,41.929918750000006 L 7.593265937499995,41.849762500000004 L 7.737062812499994,41.413207812500005 L 8.397890937499996,41.74616875 L 9.678953437499995,45.05366875 L 9.239109687499994,45.05366875 L 8.504734687499994,42.951325000000004 L 7.776609687499995,45.05366875 L 7.303172187499994,45.05366875 L 8.287547187499994,42.4560125 L 8.035078437499994,41.929918750000006 z M 4.936472968749994,43.745075 L 4.6591604687499935,42.902918750000005 L 5.198879218749994,42.43548125 L 6.177129218749995,42.575387500000005 L 6.463816718749994,42.78023125 L 6.5513167187499945,42.4607 L 7.010691718749994,42.4607 L 6.820262031249994,44.641098437500006 L 6.3189729687499945,45.0622625 L 5.279441718749995,45.020075000000006 L 4.698191718749994,44.313825 L 5.930691718749994,44.7422625 L 6.349441718749993,44.54935625 L 6.427097968749994,44.106012500000006 L 4.936472968749994,43.745075 z M 10.311726874999994,44.8192703125 L 9.908883124999996,43.862918750000006 L 10.239109687499996,42.752106250000004 L 11.230156562499996,42.4043015625 L 12.128367499999996,42.886285937500006 L 12.281297187499995,43.23960625 L 11.827390937499995,43.29585625 L 11.447312812499995,42.825840625000005 L 10.845750312499995,42.820465625000004 L 10.366976874999995,43.561606250000004 L 12.293797187499996,43.645075000000006 L 11.966453437499995,44.758356250000006 L 11.218609687499995,45.108723437500004 L 10.311726874999994,44.8192703125 z M 14.237058906249995,44.970856250000004 L 13.666496406249994,45.0981375 L 13.283465156249997,44.763481250000005 L 13.223777656249995,45.05366875 L 12.828465156249996,45.05366875 L 12.828465156249996,42.4607 L 13.267527656249996,42.4607 L 13.390340156249996,44.4433875 L 14.085496406249995,44.563043750000006 L 14.237058906249995,44.970856250000004 z M 16.510945624999994,45.97879375 L 15.812445624999995,44.89829375 L 16.119383124999995,42.77085625 L 16.733883125,42.414606250000006 L 17.529890937499996,42.570621875 L 18.087398749999995,43.8695984375 L 17.766906562499997,45.6463875 L 17.252226874999995,46.012543750000006 L 16.510945624999994,45.97879375 z M 2.0275862499999944,42.4607 L 4.263523749999994,42.4607 L 4.263523749999994,42.883356250000006 L 2.501023749999994,42.883356250000006 L 2.501023749999994,46.039606250000006 L 2.0275862499999944,46.039606250000006 L 2.0275862499999944,42.4607 z" /><path fill-rule="evenodd" fill="#7e03a7ff" stroke="#555555" stroke-width="1.4876330803780653" opacity="0.6" d="M -15.646672804032312,32.652847195967695 L -15.646672804032312,89.2685528040323 L 190.9690328040323,89.2685528040323 L 190.9690328040323,32.652847195967695 L -15.646672804032312,32.652847195967695 z M -0.2863990650225734,71.52606686473018 L -0.4386399999999999,70.7607 L -0.4386399999999999,51.1607 L -0.2863990650225736,50.395333135269816 L 0.1471464376269047,49.746486437626906 L 0.7959931352698194,49.312940934977426 L 1.56136,49.1607 L 5.695335,49.1607 L 6.460701746888401,49.31294088616577 L 6.5613604880277405,49.38019889278644 L 6.662019135269819,49.312940934977426 L 7.427386,49.1607 L 34.895335,49.1607 L 35.66070174688841,49.31294088616577 L 35.76136048802774,49.38019889278644 L 35.86201913526982,49.312940934977426 L 36.627386,49.1607 L 51.895335,49.1607 L 52.66070174688841,49.31294088616577 L 52.76136048802774,49.38019889278644 L 52.86201913526982,49.312940934977426 L 53.627386,49.1607 L 96.895335,49.1607 L 97.66070186473019,49.312940934977426 L 97.7613605,49.38019888478683 L 97.86201913526982,49.312940934977426 L 98.627386,49.1607 L 159.895335,49.1607 L 160.66070174688838,49.31294088616577 L 160.76136048802775,49.380198892786446 L 160.86201913526983,49.312940934977426 L 161.627386,49.1607 L 173.761,49.1607 L 174.52636686473016,49.312940934977426 L 175.1752135623731,49.746486437626906 L 175.60875906502258,50.395333135269816 L 175.761,51.1607 L 175.761,70.7607 L 175.60875906502258,71.52606686473018 L 175.1752135623731,72.17491356237309 L 174.52636686473016,72.60845906502257 L 173.761,72.7607 L 161.627381,72.7607 L 160.93175332613228,72.63582723284298 L 160.766025621021,72.53808733725121 L 160.66070698257195,72.6084590162109 L 159.89534,72.7607 L 98.627381,72.7607 L 97.93175332591944,72.63582723276403 L 97.76136050000001,72.53533602635862 L 97.59096767408056,72.63582723276403 L 96.89534,72.7607 L 53.627381,72.7607 L 52.931753325919445,72.63582723276403 L 52.7660256210142,72.53808733725575 L 52.66070698257195,72.6084590162109 L 51.89534,72.7607 L 36.627381,72.7607 L 35.931753325919445,72.63582723276403 L 35.7660256210142,72.53808733725575 L 35.66070698257195,72.6084590162109 L 34.89534,72.7607 L 7.427381,72.7607 L 6.73175332593275,72.63582723276896 L 6.56602562101463,72.53808733725546 L 6.460706982571954,72.6084590162109 L 5.69534,72.7607 L 1.56136,72.7607 L 0.7959931352698206,72.60845906502257 L 0.14714643762690516,72.17491356237309 L -0.2863990650225734,71.52606686473018 z M -3.338820000000006,42.4607 L -2.3821114190872814,42.651001168721784 L -1.571053047033637,43.192933047033634 L -1.029121168721789,44.00399141908728 L -0.8388200000000059,44.9607 L -1.0291211687217898,45.91740858091273 L -1.5710530470336375,46.72846695296637 L -2.382111419087281,47.27039883127822 L -3.3388200000000063,47.4607 L -4.295528580912732,47.27039883127822 L -5.106586952966375,46.72846695296637 L -5.648518831278222,45.91740858091273 L -5.8388200000000055,44.9607 L -5.648518831278222,44.00399141908728 L -5.106586952966374,43.192933047033634 L -4.29552858091273,42.651001168721784 L -3.338820000000006,42.4607 z M 178.66118,42.4607 L 179.61788858091273,42.651001168721784 L 180.42894695296638,43.192933047033634 L 180.9708788312782,44.00399141908728 L 181.16118,44.9607 L 180.9708788312782,45.91740858091273 L 180.42894695296636,46.72846695296637 L 179.61788858091273,47.27039883127822 L 178.66118,47.4607 L 177.70447141908727,47.27039883127822 L 176.89341304703362,46.72846695296637 L 176.3514811687218,45.91740858091273 L 176.16118,44.9607 L 176.3514811687218,44.00399141908728 L 176.89341304703365,43.192933047033634 L 177.70447141908727,42.651001168721784 L 178.66118,42.4607 z M -3.338820000000006,74.4607 L -2.3821114190872814,74.65100116872179 L -1.571053047033637,75.19293304703363 L -1.029121168721789,76.00399141908728 L -0.8388200000000059,76.9607 L -1.0291211687217898,77.91740858091273 L -1.5710530470336375,78.72846695296637 L -2.382111419087281,79.27039883127821 L -3.3388200000000063,79.4607 L -4.295528580912732,79.27039883127821 L -5.106586952966375,78.72846695296637 L -5.648518831278222,77.91740858091272 L -5.8388200000000055,76.9607 L -5.648518831278222,76.00399141908728 L -5.106586952966374,75.19293304703363 L -4.29552858091273,74.65100116872179 L -3.338820000000006,74.4607 z M 178.66118,74.4607 L 179.61788858091273,74.65100116872179 L 180.42894695296638,75.19293304703363 L 180.9708788312782,76.00399141908728 L 181.16118,76.9607 L 180.9708788312782,77.91740858091273 L 180.42894695296636,78.72846695296637 L 179.61788858091273,79.27039883127821 L 178.66118,79.4607 L 177.70447141908727,79.27039883127821 L 176.89341304703362,78.72846695296637 L 176.3514811687218,77.91740858091272 L 176.16118,76.9607 L 176.3514811687218,76.00399141908728 L 176.89341304703365,75.19293304703363 L 177.70447141908727,74.65100116872179 L 178.66118,74.4607 z M 8.035078437499994,41.929918750000006 L 7.593265937499995,41.849762500000004 L 7.737062812499994,41.413207812500005 L 8.397890937499996,41.74616875 L 9.678953437499995,45.05366875 L 9.239109687499994,45.05366875 L 8.504734687499994,42.951325000000004 L 7.776609687499995,45.05366875 L 7.303172187499994,45.05366875 L 8.287547187499994,42.4560125 L 8.035078437499994,41.929918750000006 z M 4.936472968749994,43.745075 L 4.6591604687499935,42.902918750000005 L 5.198879218749994,42.43548125 L 6.177129218749995,42.575387500000005 L 6.463816718749994,42.78023125 L 6.5513167187499945,42.4607 L 7.010691718749994,42.4607 L 6.820262031249994,44.641098437500006 L 6.3189729687499945,45.0622625 L 5.279441718749995,45.020075000000006 L 4.698191718749994,44.313825 L 5.930691718749994,44.7422625 L 6.349441718749993,44.54935625 L 6.427097968749994,44.106012500000006 L 4.936472968749994,43.745075 z M 10.311726874999994,44.8192703125 L 9.908883124999996,43.862918750000006 L 10.239109687499996,42.752106250000004 L 11.230156562499996,42.4043015625 L 12.128367499999996,42.886285937500006 L 12.281297187499995,43.23960625 L 11.827390937499995,43.29585625 L 11.447312812499995,42.825840625000005 L 10.845750312499995,42.820465625000004 L 10.366976874999995,43.561606250000004 L 12.293797187499996,43.645075000000006 L 11.966453437499995,44.758356250000006 L 11.218609687499995,45.108723437500004 L 10.311726874999994,44.8192703125 z M 14.237058906249995,44.970856250000004 L 13.666496406249994,45.0981375 L 13.283465156249997,44.763481250000005 L 13.223777656249995,45.05366875 L 12.828465156249996,45.05366875 L 12.828465156249996,42.4607 L 13.267527656249996,42.4607 L 13.390340156249996,44.4433875 L 14.085496406249995,44.563043750000006 L 14.237058906249995,44.970856250000004 z M 4.263523749999994,42.4607 L 4.263523749999994,42.883356250000006 L 2.501023749999994,42.883356250000006 L 2.501023749999994,46.039606250000006 L 2.0275862499999944,46.039606250000006 L 2.0275862499999944,42.4607 L 4.263523749999994,42.4607 z M 16.981101874999993,42.4607 L 17.420164374999995,42.4607 L 17.420164374999995,46.05445 L 16.102195624999993,45.1560125 L 16.102195624999993,44.731012500000006 L 16.838351874999997,45.139950000000006 L 16.981101874999993,42.4607 z" /><path fill-rule="evenodd" fill="#cb4777ff" stroke="#555555" stroke-width="1.4876330803780653" opacity="0.6" d="M -15.646672804032312,32.652847195967695 L -15.646672804032312,89.2685528040323 L 190.9690328040323,89.2685528040323 L 190.9690328040323,32.652847195967695 L -15.646672804032312,32.652847195967695 z M 0.7959931352698194,49.312940934977426 L 1.56136,49.1607 L 173.761,49.1607 L 174.52636686473016,49.312940934977426 L 175.1752135623731,49.746486437626906 L 175.60875906502258,50.395333135269816 L 175.761,51.1607 L 175.761,70.7607 L 175.60875906502258,71.52606686473018 L 175.1752135623731,72.17491356237309 L 174.52636686473016,72.60845906502257 L 173.761,72.7607 L 1.56136,72.7607 L 0.7959931352698206,72.60845906502257 L 0.14714643762690516,72.17491356237309 L -0.2863990650225734,71.52606686473018 L -0.4386399999999999,70.7607 L -0.4386399999999999,51.1607 L -0.2863990650225736,50.395333135269816 L 0.1471464376269047,49.746486437626906 L 0.7959931352698194,49.312940934977426 z M -3.338820000000006,42.4607 L -2.3821114190872814,42.651001168721784 L -1.571053047033637,43.192933047033634 L -1.029121168721789,44.00399141908728 L -0.8388200000000059,44.9607 L -1.0291211687217898,45.91740858091273 L -1.5710530470336375,46.72846695296637 L -2.382111419087281,47.27039883127822 L -3.3388200000000063,47.4607 L -4.295528580912732,47.27039883127822 L -5.106586952966375,46.72846695296637 L -5.648518831278222,45.91740858091273 L -5.8388200000000055,44.9607 L -5.648518831278222,44.00399141908728 L -5.106586952966374,43.192933047033634 L -4.29552858091273,42.651001168721784 L -3.338820000000006,42.4607 z M 178.66118,42.4607 L 179.61788858091273,42.651001168721784 L 180.42894695296638,43.192933047033634 L 180.9708788312782,44.00399141908728 L 181.16118,44.9607 L 180.9708788312782,45.91740858091273 L 180.42894695296636,46.72846695296637 L 179.61788858091273,47.27039883127822 L 178.66118,47.4607 L 177.70447141908727,47.27039883127822 L 176.89341304703362,46.72846695296637 L 176.3514811687218,45.91740858091273 L 176.16118,44.9607 L 176.3514811687218,44.00399141908728 L 176.89341304703365,43.192933047033634 L 177.70447141908727,42.651001168721784 L 178.66118,42.4607 z M -3.338820000000006,74.4607 L -2.3821114190872814,74.65100116872179 L -1.571053047033637,75.19293304703363 L -1.029121168721789,76.00399141908728 L -0.8388200000000059,76.9607 L -1.0291211687217898,77.91740858091273 L -1.5710530470336375,78.72846695296637 L -2.382111419087281,79.27039883127821 L -3.3388200000000063,79.4607 L -4.295528580912732,79.27039883127821 L -5.106586952966375,78.72846695296637 L -5.648518831278222,77.91740858091272 L -5.8388200000000055,76.9607 L -5.648518831278222,76.00399141908728 L -5.106586952966374,75.19293304703363 L -4.29552858091273,74.65100116872179 L -3.338820000000006,74.4607 z M 178.66118,74.4607 L 179.61788858091273,74.65100116872179 L 180.42894695296638,75.19293304703363 L 180.9708788312782,76.00399141908728 L 181.16118,76.9607 L 180.9708788312782,77.91740858091273 L 180.42894695296636,78.72846695296637 L 179.61788858091273,79.27039883127821 L 178.66118,79.4607 L 177.70447141908727,79.27039883127821 L 176.89341304703362,78.72846695296637 L 176.3514811687218,77.91740858091272 L 176.16118,76.9607 L 176.3514811687218,76.00399141908728 L 176.89341304703365,75.19293304703363 L 177.70447141908727,74.65100116872179 L 178.66118,74.4607 z M 8.035078437499994,41.929918750000006 L 7.593265937499995,41.849762500000004 L 7.737062812499994,41.413207812500005 L 8.397890937499996,41.74616875 L 9.678953437499995,45.05366875 L 9.239109687499994,45.05366875 L 8.504734687499994,42.951325000000004 L 7.776609687499995,45.05366875 L 7.303172187499994,45.05366875 L 8.287547187499994,42.4560125 L 8.035078437499994,41.929918750000006 z M 4.936472968749994,43.745075 L 4.6591604687499935,42.902918750000005 L 5.198879218749994,42.43548125 L 6.177129218749995,42.575387500000005 L 6.463816718749994,42.78023125 L 6.5513167187499945,42.4607 L 7.010691718749994,42.4607 L 6.820262031249994,44.641098437500006 L 6.3189729687499945,45.0622625 L 5.279441718749995,45.020075000000006 L 4.698191718749994,44.313825 L 5.930691718749994,44.7422625 L 6.349441718749993,44.54935625 L 6.427097968749994,44.106012500000006 L 4.936472968749994,43.745075 z M 10.311726874999994,44.8192703125 L 9.908883124999996,43.862918750000006 L 10.239109687499996,42.752106250000004 L 11.230156562499996,42.4043015625 L 12.128367499999996,42.886285937500006 L 12.281297187499995,43.23960625 L 11.827390937499995,43.29585625 L 11.447312812499995,42.825840625000005 L 10.845750312499995,42.820465625000004 L 10.366976874999995,43.561606250000004 L 12.293797187499996,43.645075000000006 L 11.966453437499995,44.758356250000006 L 11.218609687499995,45.108723437500004 L 10.311726874999994,44.8192703125 z M 14.237058906249995,44.970856250000004 L 13.666496406249994,45.0981375 L 13.283465156249997,44.763481250000005 L 13.223777656249995,45.05366875 L 12.828465156249996,45.05366875 L 12.828465156249996,42.4607 L 13.267527656249996,42.4607 L 13.390340156249996,44.4433875 L 14.085496406249995,44.563043750000006 L 14.237058906249995,44.970856250000004 z M 17.431101874999996,45.5107 L 17.616547187499997,45.02070781250001 L 15.715101874999997,42.5857 L 18.074851874999997,42.4607 L 18.074851874999997,42.883356250000006 L 16.319383124999995,42.883356250000006 L 17.981883124999996,44.63804375 L 18.02203937499999,45.376825000000004 L 17.570047187499995,45.914340625 L 16.579039374999994,46.012075 L 15.939601874999994,45.53923125 L 15.792039374999995,45.01929375 L 16.243601874999996,44.973200000000006 L 16.436570624999995,45.4997625 L 16.944383124999995,45.6903875 L 17.431101874999996,45.5107 z M 4.263523749999994,42.4607 L 4.263523749999994,42.883356250000006 L 2.501023749999994,42.883356250000006 L 2.501023749999994,46.039606250000006 L 2.0275862499999944,46.039606250000006 L 2.0275862499999944,42.4607 L 4.263523749999994,42.4607 z" /><path fill-rule="evenodd" fill="#f89540ff" stroke="#555555" stroke-width="1.4876330803780653" opacity="0.6" d="M -15.646672804032312,32.652847195967695 L -15.646672804032312,89.2685528040323 L 190.9690328040323,89.2685528040323 L 190.9690328040323,32.652847195967695 L -15.646672804032312,32.652847195967695 z M 35.66070174688841,49.31294088616577 L 35.76136048802774,49.38019889278644 L 35.86201913526982,49.312940934977426 L 36.627386,49.1607 L 51.895335,49.1607 L 52.66070174688841,49.31294088616577 L 52.76136048802774,49.38019889278644 L 52.86201913526982,49.312940934977426 L 53.627386,49.1607 L 96.895335,49.1607 L 97.66070186473019,49.312940934977426 L 97.7613605,49.38019888478683 L 97.86201913526982,49.312940934977426 L 98.627386,49.1607 L 159.895335,49.1607 L 160.66070174688838,49.31294088616577 L 160.76136048802775,49.380198892786446 L 160.86201913526983,49.312940934977426 L 161.627386,49.1607 L 173.761,49.1607 L 174.52636686473016,49.312940934977426 L 175.1752135623731,49.746486437626906 L 175.60875906502258,50.395333135269816 L 175.761,51.1607 L 175.761,70.7607 L 175.60875906502258,71.52606686473018 L 175.1752135623731,72.17491356237309 L 174.52636686473016,72.60845906502257 L 173.761,72.7607 L 161.627381,72.7607 L 160.93175332613228,72.63582723284298 L 160.766025621021,72.53808733725121 L 160.66070698257195,72.6084590162109 L 159.89534,72.7607 L 98.627381,72.7607 L 97.93175332591944,72.63582723276403 L 97.76136050000001,72.53533602635862 L 97.59096767408056,72.63582723276403 L 96.89534,72.7607 L 53.627381,72.7607 L 52.931753325919445,72.63582723276403 L 52.7660256210142,72.53808733725575 L 52.66070698257195,72.6084590162109 L 51.89534,72.7607 L 36.627381,72.7607 L 35.931753325919445,72.63582723276403 L 35.7660256210142,72.53808733725575 L 35.66070698257195,72.6084590162109 L 34.89534,72.7607 L 7.427381,72.7607 L 6.73175332593275,72.63582723276896 L 6.56602562101463,72.53808733725546 L 6.460706982571954,72.6084590162109 L 5.69534,72.7607 L 1.56136,72.7607 L 0.7959931352698206,72.60845906502257 L 0.14714643762690516,72.17491356237309 L -0.2863990650225734,71.52606686473018 L -0.4386399999999999,70.7607 L -0.4386399999999999,51.1607 L -0.2863990650225736,50.395333135269816 L 0.1471464376269047,49.746486437626906 L 0.7959931352698194,49.312940934977426 L 1.56136,49.1607 L 5.695335,49.1607 L 6.460701746888401,49.31294088616577 L 6.5613604880277405,49.38019889278644 L 6.662019135269819,49.312940934977426 L 7.427386,49.1607 L 34.895335,49.1607 L 35.66070174688841,49.31294088616577 z M -3.338820000000006,42.4607 L -2.3821114190872814,42.651001168721784 L -1.571053047033637,43.192933047033634 L -1.029121168721789,44.00399141908728 L -0.8388200000000059,44.9607 L -1.0291211687217898,45.91740858091273 L -1.5710530470336375,46.72846695296637 L -2.382111419087281,47.27039883127822 L -3.3388200000000063,47.4607 L -4.295528580912732,47.27039883127822 L -5.106586952966375,46.72846695296637 L -5.648518831278222,45.91740858091273 L -5.8388200000000055,44.9607 L -5.648518831278222,44.00399141908728 L -5.106586952966374,43.192933047033634 L -4.29552858091273,42.651001168721784 L -3.338820000000006,42.4607 z M 178.66118,42.4607 L 179.61788858091273,42.651001168721784 L 180.42894695296638,43.192933047033634 L 180.9708788312782,44.00399141908728 L 181.16118,44.9607 L 180.9708788312782,45.91740858091273 L 180.42894695296636,46.72846695296637 L 179.61788858091273,47.27039883127822 L 178.66118,47.4607 L 177.70447141908727,47.27039883127822 L 176.89341304703362,46.72846695296637 L 176.3514811687218,45.91740858091273 L 176.16118,44.9607 L 176.3514811687218,44.00399141908728 L 176.89341304703365,43.192933047033634 L 177.70447141908727,42.651001168721784 L 178.66118,42.4607 z M -3.338820000000006,74.4607 L -2.3821114190872814,74.65100116872179 L -1.571053047033637,75.19293304703363 L -1.029121168721789,76.00399141908728 L -0.8388200000000059,76.9607 L -1.0291211687217898,77.91740858091273 L -1.5710530470336375,78.72846695296637 L -2.382111419087281,79.27039883127821 L -3.3388200000000063,79.4607 L -4.295528580912732,79.27039883127821 L -5.106586952966375,78.72846695296637 L -5.648518831278222,77.91740858091272 L -5.8388200000000055,76.9607 L -5.648518831278222,76.00399141908728 L -5.106586952966374,75.19293304703363 L -4.29552858091273,74.65100116872179 L -3.338820000000006,74.4607 z M 178.66118,74.4607 L 179.61788858091273,74.65100116872179 L 180.42894695296638,75.19293304703363 L 180.9708788312782,76.00399141908728 L 181.16118,76.9607 L 180.9708788312782,77.91740858091273 L 180.42894695296636,78.72846695296637 L 179.61788858091273,79.27039883127821 L 178.66118,79.4607 L 177.70447141908727,79.27039883127821 L 176.89341304703362,78.72846695296637 L 176.3514811687218,77.91740858091272 L 176.16118,76.9607 L 176.3514811687218,76.00399141908728 L 176.89341304703365,75.19293304703363 L 177.70447141908727,74.65100116872179 L 178.66118,74.4607 z M 8.035078437499994,41.929918750000006 L 7.593265937499995,41.849762500000004 L 7.737062812499994,41.413207812500005 L 8.397890937499996,41.74616875 L 9.678953437499995,45.05366875 L 9.239109687499994,45.05366875 L 8.504734687499994,42.951325000000004 L 7.776609687499995,45.05366875 L 7.303172187499994,45.05366875 L 8.287547187499994,42.4560125 L 8.035078437499994,41.929918750000006 z M 4.936472968749994,43.745075 L 4.6591604687499935,42.902918750000005 L 5.198879218749994,42.43548125 L 6.177129218749995,42.575387500000005 L 6.463816718749994,42.78023125 L 6.5513167187499945,42.4607 L 7.010691718749994,42.4607 L 6.820262031249994,44.641098437500006 L 6.3189729687499945,45.0622625 L 5.279441718749995,45.020075000000006 L 4.698191718749994,44.313825 L 5.930691718749994,44.7422625 L 6.349441718749993,44.54935625 L 6.427097968749994,44.106012500000006 L 4.936472968749994,43.745075 z M 10.311726874999994,44.8192703125 L 9.908883124999996,43.862918750000006 L 10.239109687499996,42.752106250000004 L 11.230156562499996,42.4043015625 L 12.128367499999996,42.886285937500006 L 12.281297187499995,43.23960625 L 11.827390937499995,43.29585625 L 11.447312812499995,42.825840625000005 L 10.845750312499995,42.820465625000004 L 10.366976874999995,43.561606250000004 L 12.293797187499996,43.645075000000006 L 11.966453437499995,44.758356250000006 L 11.218609687499995,45.108723437500004 L 10.311726874999994,44.8192703125 z M 14.237058906249995,44.970856250000004 L 13.666496406249994,45.0981375 L 13.283465156249997,44.763481250000005 L 13.223777656249995,45.05366875 L 12.828465156249996,45.05366875 L 12.828465156249996,42.4607 L 13.267527656249996,42.4607 L 13.390340156249996,44.4433875 L 14.085496406249995,44.563043750000006 L 14.237058906249995,44.970856250000004 z M 18.056820624999997,43.16560625 L 18.025437812499995,43.9463171875 L 17.442820624999996,44.398981250000006 L 17.855789374999997,44.779981250000006 L 17.902976874999993,45.3616765625 L 17.275320624999996,45.9928171875 L 16.297133125,45.898950000000006 L 15.811570624999995,45.127106250000004 L 16.251414374999996,45.048981250000004 L 16.706914374999997,45.667637500000005 L 17.320164374999994,45.5341375 L 17.427976874999995,44.868317187500004 L 16.683445624999994,44.541168750000004 L 16.634226874999996,44.15523125 L 17.406898749999996,44.044200000000004 L 17.610914374999997,43.27048125 L 16.968726874999994,42.762848437500004 L 16.309226874999997,43.1425359375 L 16.206883124999994,43.463825 L 15.767820624999995,43.40523125 L 16.122508124999996,42.677887500000004 L 16.905320624999995,42.39741875 L 17.625570624999995,42.60591875 L 18.056820624999997,43.16560625 z M 4.263523749999994,42.4607 L 4.263523749999994,42.883356250000006 L 2.501023749999994,42.883356250000006 L 2.501023749999994,46.039606250000006 L 2.0275862499999944,46.039606250000006 L 2.0275862499999944,42.4607 L 4.263523749999994,42.4607 z" /><path fill-rule="evenodd" fill="#eff821ff" stroke="#555555" stroke-width="1.4876330803780653" opacity="0.6" d="M -15.646672804032312,32.652847195967695 L -15.646672804032312,89.2685528040323 L 190.9690328040323,89.2685528040323 L 190.9690328040323,32.652847195967695 L -15.646672804032312,32.652847195967695 z M 6.662019135269819,49.312940934977426 L 7.427386,49.1607 L 34.895335,49.1607 L 35.660701864730186,49.312940934977426 L 35.7613605,49.38019888478683 L 35.86201913526982,49.312940934977426 L 36.627386,49.1607 L 51.895335,49.1607 L 52.660701864730186,49.312940934977426 L 52.7613605,49.38019888478683 L 52.86201913526982,49.312940934977426 L 53.627386,49.1607 L 96.895335,49.1607 L 97.6607017468884,49.31294088616577 L 97.76136048802775,49.38019889278644 L 97.86201913526982,49.312940934977426 L 98.627386,49.1607 L 159.895335,49.1607 L 160.66070186473016,49.312940934977426 L 160.7613605,49.38019888478684 L 160.86201913526983,49.312940934977426 L 161.627386,49.1607 L 173.761,49.1607 L 174.52636686473016,49.312940934977426 L 175.1752135623731,49.746486437626906 L 175.60875906502258,50.395333135269816 L 175.761,51.1607 L 175.761,70.7607 L 175.60875906502258,71.52606686473018 L 175.1752135623731,72.17491356237309 L 174.52636686473016,72.60845906502257 L 173.761,72.7607 L 161.627381,72.7607 L 160.93175332613228,72.63582723284298 L 160.76136050001267,72.53533602635862 L 160.59096767429338,72.63582723268507 L 159.89534,72.7607 L 98.627381,72.7607 L 97.93175332591944,72.63582723276403 L 97.76602562101421,72.53808733725576 L 97.66070698257197,72.6084590162109 L 96.89534,72.7607 L 53.627381,72.7607 L 52.931753325919445,72.63582723276403 L 52.76136049999683,72.53533602635676 L 52.590967673974134,72.6358272328035 L 51.89534,72.7607 L 36.627381,72.7607 L 35.931753325919445,72.63582723276403 L 35.76136049999683,72.53533602635676 L 35.590967673974134,72.6358272328035 L 34.89534,72.7607 L 7.427381,72.7607 L 6.73175332593275,72.63582723276896 L 6.56602562101463,72.53808733725546 L 6.460706982571954,72.6084590162109 L 5.69534,72.7607 L 1.56136,72.7607 L 0.7959931352698206,72.60845906502257 L 0.14714643762690516,72.17491356237309 L -0.2863990650225734,71.52606686473018 L -0.4386399999999999,70.7607 L -0.4386399999999999,51.1607 L -0.2863990650225736,50.395333135269816 L 0.1471464376269047,49.746486437626906 L 0.7959931352698194,49.312940934977426 L 1.56136,49.1607 L 5.695335,49.1607 L 6.460701746888401,49.31294088616577 L 6.5613604880277405,49.38019889278644 L 6.662019135269819,49.312940934977426 z M -3.338820000000006,42.4607 L -2.3821114190872814,42.651001168721784 L -1.571053047033637,43.192933047033634 L -1.029121168721789,44.00399141908728 L -0.8388200000000059,44.9607 L -1.0291211687217898,45.91740858091273 L -1.5710530470336375,46.72846695296637 L -2.382111419087281,47.27039883127822 L -3.3388200000000063,47.4607 L -4.295528580912732,47.27039883127822 L -5.106586952966375,46.72846695296637 L -5.648518831278222,45.91740858091273 L -5.8388200000000055,44.9607 L -5.648518831278222,44.00399141908728 L -5.106586952966374,43.192933047033634 L -4.29552858091273,42.651001168721784 L -3.338820000000006,42.4607 z M 178.66118,42.4607 L 179.61788858091273,42.651001168721784 L 180.42894695296638,43.192933047033634 L 180.9708788312782,44.00399141908728 L 181.16118,44.9607 L 180.9708788312782,45.91740858091273 L 180.42894695296636,46.72846695296637 L 179.61788858091273,47.27039883127822 L 178.66118,47.4607 L 177.70447141908727,47.27039883127822 L 176.89341304703362,46.72846695296637 L 176.3514811687218,45.91740858091273 L 176.16118,44.9607 L 176.3514811687218,44.00399141908728 L 176.89341304703365,43.192933047033634 L 177.70447141908727,42.651001168721784 L 178.66118,42.4607 z M -3.338820000000006,74.4607 L -2.3821114190872814,74.65100116872179 L -1.571053047033637,75.19293304703363 L -1.029121168721789,76.00399141908728 L -0.8388200000000059,76.9607 L -1.0291211687217898,77.91740858091273 L -1.5710530470336375,78.72846695296637 L -2.382111419087281,79.27039883127821 L -3.3388200000000063,79.4607 L -4.295528580912732,79.27039883127821 L -5.106586952966375,78.72846695296637 L -5.648518831278222,77.91740858091272 L -5.8388200000000055,76.9607 L -5.648518831278222,76.00399141908728 L -5.106586952966374,75.19293304703363 L -4.29552858091273,74.65100116872179 L -3.338820000000006,74.4607 z M 178.66118,74.4607 L 179.61788858091273,74.65100116872179 L 180.42894695296638,75.19293304703363 L 180.9708788312782,76.00399141908728 L 181.16118,76.9607 L 180.9708788312782,77.91740858091273 L 180.42894695296636,78.72846695296637 L 179.61788858091273,79.27039883127821 L 178.66118,79.4607 L 177.70447141908727,79.27039883127821 L 176.89341304703362,78.72846695296637 L 176.3514811687218,77.91740858091272 L 176.16118,76.9607 L 176.3514811687218,76.00399141908728 L 176.89341304703365,75.19293304703363 L 177.70447141908727,74.65100116872179 L 178.66118,74.4607 z M 8.035078437499994,41.929918750000006 L 7.593265937499995,41.849762500000004 L 7.737062812499994,41.413207812500005 L 8.397890937499996,41.74616875 L 9.678953437499995,45.05366875 L 9.239109687499994,45.05366875 L 8.504734687499994,42.951325000000004 L 7.776609687499995,45.05366875 L 7.303172187499994,45.05366875 L 8.287547187499994,42.4560125 L 8.035078437499994,41.929918750000006 z M 4.936472968749994,43.745075 L 4.6591604687499935,42.902918750000005 L 5.198879218749994,42.43548125 L 6.177129218749995,42.575387500000005 L 6.463816718749994,42.78023125 L 6.5513167187499945,42.4607 L 7.010691718749994,42.4607 L 6.820262031249994,44.641098437500006 L 6.3189729687499945,45.0622625 L 5.279441718749995,45.020075000000006 L 4.698191718749994,44.313825 L 5.930691718749994,44.7422625 L 6.349441718749993,44.54935625 L 6.427097968749994,44.106012500000006 L 4.936472968749994,43.745075 z M 10.311726874999994,44.8192703125 L 9.908883124999996,43.862918750000006 L 10.239109687499996,42.752106250000004 L 11.230156562499996,42.4043015625 L 12.128367499999996,42.886285937500006 L 12.281297187499995,43.23960625 L 11.827390937499995,43.29585625 L 11.447312812499995,42.825840625000005 L 10.845750312499995,42.820465625000004 L 10.366976874999995,43.561606250000004 L 12.293797187499996,43.645075000000006 L 11.966453437499995,44.758356250000006 L 11.218609687499995,45.108723437500004 L 10.311726874999994,44.8192703125 z M 14.237058906249995,44.970856250000004 L 13.666496406249994,45.0981375 L 13.283465156249997,44.763481250000005 L 13.223777656249995,45.05366875 L 12.828465156249996,45.05366875 L 12.828465156249996,42.4607 L 13.267527656249996,42.4607 L 13.390340156249996,44.4433875 L 14.085496406249995,44.563043750000006 L 14.237058906249995,44.970856250000004 z M 4.263523749999994,42.4607 L 4.263523749999994,42.883356250000006 L 2.501023749999994,42.883356250000006 L 2.501023749999994,46.039606250000006 L 2.0275862499999944,46.039606250000006 L 2.0275862499999944,42.4607 L 4.263523749999994,42.4607 z M 17.174070624999995,43.31773125 L 17.174070624999995,42.4607 L 17.613133124999994,42.4607 L 17.613133124999994,43.31773125 L 18.096726874999995,43.31773125 L 18.096726874999995,43.720856250000004 L 17.613133124999994,43.720856250000004 L 17.613133124999994,46.039606250000006 L 17.254539374999993,46.039606250000006 L 15.620945624999996,43.720856250000004 L 15.620945624999996,43.31773125 L 17.174070624999995,43.31773125 z" /></g></g></svg>