  0
SECTION
  2
HEADER
  9
$ACADVER
  1
AC1024
  9
$ACADMAINTVER
 70
6
  9
$DWGCODEPAGE
  3
ANSI_1252
  9
$LASTSAVEDBY
  1
ezdxf
  9
$INSBASE
 10
0.0
 20
0.0
 30
0.0
  9
$EXTMIN
 10
1e+20
 20
1e+20
 30
1e+20
  9
$EXTMAX
 10
-1e+20
 20
-1e+20
 30
-1e+20
  9
$LIMMIN
 10
0.0
 20
0.0
  9
$LIMMAX
 10
420.0
 20
297.0
  9
$ORTHOMODE
 70
0
  9
$REGENMODE
 70
1
  9
$FILLMODE
 70
1
  9
$QTEXTMODE
 70
0
  9
$MIRRTEXT
 70
1
  9
$LTSCALE
 40
1.0
  9
$ATTMODE
 70
1
  9
$TEXTSIZE
 40
2.5
  9
$TRACEWID
 40
1.0
  9
$TEXTSTYLE
  7
Standard
  9
$CLAYER
  8
0
  9
$CELTYPE
  6
ByLayer
  9
$CECOLOR
 62
256
  9
$CELTSCALE
 40
1.0
  9
$DISPSILH
 70
0
  9
$DIMSCALE
 40
1.0
  9
$DIMASZ
 40
2.5
  9
$DIMEXO
 40
0.625
  9
$DIMDLI
 40
3.75
  9
$DIMRND
 40
0.0
  9
$DIMDLE
 40
0.0
  9
$DIMEXE
 40
1.25
  9
$DIMTP
 40
0.0
  9
$DIMTM
 40
0.0
  9
$DIMTXT
 40
2.5
  9
$DIMCEN
 40
2.5
  9
$DIMTSZ
 40
0.0
  9
$DIMTOL
 70
0
  9
$DIMLIM
 70
0
  9
$DIMTIH
 70
0
  9
$DIMTOH
 70
0
  9
$DIMSE1
 70
0
  9
$DIMSE2
 70
0
  9
$DIMTAD
 70
1
  9
$DIMZIN
 70
8
  9
$DIMBLK
  1

  9
$DIMASO
 70
1
  9
$DIMSHO
 70
1
  9
$DIMPOST
  1

  9
$DIMAPOST
  1

  9
$DIMALT
 70
0
  9
$DIMALTD
 70
3
  9
$DIMALTF
 40
0.03937007874
  9
$DIMLFAC
 40
1.0
  9
$DIMTOFL
 70
1
  9
$DIMTVP
 40
0.0
  9
$DIMTIX
 70
0
  9
$DIMSOXD
 70
0
  9
$DIMSAH
 70
0
  9
$DIMBLK1
  1

  9
$DIMBLK2
  1

  9
$DIMSTYLE
  2
ISO-25
  9
$DIMCLRD
 70
0
  9
$DIMCLRE
 70
0
  9
$DIMCLRT
 70
0
  9
$DIMTFAC
 40
1.0
  9
$DIMGAP
 40
0.625
  9
$DIMJUST
 70
0
  9
$DIMSD1
 70
0
  9
$DIMSD2
 70
0
  9
$DIMTOLJ
 70
0
  9
$DIMTZIN
 70
8
  9
$DIMALTZ
 70
0
  9
$DIMALTTZ
 70
0
  9
$DIMUPT
 70
0
  9
$DIMDEC
 70
2
  9
$DIMTDEC
 70
2
  9
$DIMALTU
 70
2
  9
$DIMALTTD
 70
3
  9
$DIMTXSTY
  7
Standard
  9
$DIMAUNIT
 70
0
  9
$DIMADEC
 70
0
  9
$DIMALTRND
 40
0.0
  9
$DIMAZIN
 70
0
  9
$DIMDSEP
 70
44
  9
$DIMATFIT
 70
3
  9
$DIMFRAC
 70
0
  9
$DIMLDRBLK
  1

  9
$DIMLUNIT
 70
2
  9
$DIMLWD
 70
-2
  9
$DIMLWE
 70
-2
  9
$DIMTMOVE
 70
0
  9
$DIMFXL
 40
1.0
  9
$DIMFXLON
 70
0
  9
$DIMJOGANG
 40
0.785398163397
  9
$DIMTFILL
 70
0
  9
$DIMTFILLCLR
 70
0
  9
$DIMARCSYM
 70
0
  9
$DIMLTYPE
  6

  9
$DIMLTEX1
  6

  9
$DIMLTEX2
  6

  9
$DIMTXTDIRECTION
 70
0
  9
$LUNITS
 70
2
  9
$LUPREC
 70
4
  9
$SKETCHINC
 40
1.0
  9
$FILLETRAD
 40
10.0
  9
$AUNITS
 70
0
  9
$AUPREC
 70
2
  9
$MENU
  1
.
  9
$ELEVATION
 40
0.0
  9
$PELEVATION
 40
0.0
  9
$THICKNESS
 40
0.0
  9
$LIMCHECK
 70
0
  9
$CHAMFERA
 40
0.0
  9
$CHAMFERB
 40
0.0
  9
$CHAMFERC
 40
0.0
  9
$CHAMFERD
 40
0.0
  9
$SKPOLY
 70
0
  9
$TDCREATE
 40
2461012.5574421296
  9
$TDUCREATE
 40
2458532.153996898
  9
$TDUPDATE
 40
2461012.5574421296
  9
$TDUUPDATE
 40
2458532.1544311
  9
$TDINDWG
 40
0.0
  9
$TDUSRTIMER
 40
0.0
  9
$USRTIMER
 70
1
  9
$ANGBASE
 50
0.0
  9
$ANGDIR
 70
0
  9
$PDMODE
 70
0
  9
$PDSIZE
 40
0.0
  9
$PLINEWID
 40
0.0
  9
$SPLFRAME
 70
0
  9
$SPLINETYPE
 70
6
  9
$SPLINESEGS
 70
8
  9
$HANDSEED
  5
52
  9
$SURFTAB1
 70
6
  9
$SURFTAB2
 70
6
  9
$SURFTYPE
 70
6
  9
$SURFU
 70
6
  9
$SURFV
 70
6
  9
$UCSBASE
  2

  9
$UCSNAME
  2

  9
$UCSORG
 10
0.0
 20
0.0
 30
0.0
  9
$UCSXDIR
 10
1.0
 20
0.0
 30
0.0
  9
$UCSYDIR
 10
0.0
 20
1.0
 30
0.0
  9
$UCSORTHOREF
  2

  9
$UCSORTHOVIEW
 70
0
  9
$UCSORGTOP
 10
0.0
 20
0.0
 30
0.0
  9
$UCSORGBOTTOM
 10
0.0
 20
0.0
 30
0.0
  9
$UCSORGLEFT
 10
0.0
 20
0.0
 30
0.0
  9
$UCSORGRIGHT
 10
0.0
 20
0.0
 30
0.0
  9
$UCSORGFRONT
 10
0.0
 20
0.0
 30
0.0
  9
$UCSORGBACK
 10
0.0
 20
0.0
 30
0.0
  9
$PUCSBASE
  2

  9
$PUCSNAME
  2

  9
$PUCSORG
 10
0.0
 20
0.0
 30
0.0
  9
$PUCSXDIR
 10
1.0
 20
0.0
 30
0.0
  9
$PUCSYDIR
 10
0.0
 20
1.0
 30
0.0
  9
$PUCSORTHOREF
  2

  9
$PUCSORTHOVIEW
 70
0
  9
$PUCSORGTOP
 10
0.0
 20
0.0
 30
0.0
  9
$PUCSORGBOTTOM
 10
0.0
 20
0.0
 30
0.0
  9
$PUCSORGLEFT
 10
0.0
 20
0.0
 30
0.0
  9
$PUCSORGRIGHT
 10
0.0
 20
0.0
 30
0.0
  9
$PUCSORGFRONT
 10
0.0
 20
0.0
 30
0.0
  9
$PUCSORGBACK
 10
0.0
 20
0.0
 30
0.0
  9
$USERI1
 70
0
  9
$USERI2
 70
0
  9
$USERI3
 70
0
  9
$USERI4
 70
0
  9
$USERI5
 70
0
  9
$USERR1
 40
0.0
  9
$USERR2
 40
0.0
  9
$USERR3
 40
0.0
  9
$USERR4
 40
0.0
  9
$USERR5
 40
0.0
  9
$WORLDVIEW
 70
1
  9
$SHADEDGE
 70
3
  9
$SHADEDIF
 70
70
  9
$TILEMODE
 70
1
  9
$MAXACTVP
 70
64
  9
$PINSBASE
 10
0.0
 20
0.0
 30
0.0
  9
$PLIMCHECK
 70
0
  9
$PEXTMIN
 10
1e+20
 20
1e+20
 30
1e+20
  9
$PEXTMAX
 10
-1e+20
 20
-1e+20
 30
-1e+20
  9
$PLIMMIN
 10
0.0
 20
0.0
  9
$PLIMMAX
 10
420.0
 20
297.0
  9
$UNITMODE
 70
0
  9
$VISRETAIN
 70
1
  9
$PLINEGEN
 70
0
  9
$PSLTSCALE
 70
1
  9
$TREEDEPTH
 70
3020
  9
$CMLSTYLE
  2
Standard
  9
$CMLJUST
 70
0
  9
$CMLSCALE
 40
20.0
  9
$PROXYGRAPHICS
 70
1
  9
$MEASUREMENT
 70
1
  9
$CELWEIGHT
370
-1
  9
$ENDCAPS
280
0
  9
$JOINSTYLE
280
0
  9
$LWDISPLAY
290
0
  9
$INSUNITS
 70
6
  9
$HYPERLINKBASE
  1

  9
$STYLESHEET
  1

  9
$XEDIT
290
1
  9
$CEPSNTYPE
380
0
  9
$PSTYLEMODE
290
1
  9
$FINGERPRINTGUID
  2
{045CA89A-7D0D-43A4-9920-E9CE08D4B10E}
  9
$VERSIONGUID
  2
{D3DAF30B-FEE1-4FDA-895D-966D8E398632}
  9
$EXTNAMES
290
1
  9
$PSVPSCALE
 40
0.0
  9
$OLESTARTUP
290
0
  9
$SORTENTS
280
127
  9
$INDEXCTL
280
0
  9
$HIDETEXT
280
1
  9
$XCLIPFRAME
280
1
  9
$HALOGAP
280
0
  9
$OBSCOLOR
 70
257
  9
$OBSLTYPE
280
0
  9
$INTERSECTIONDISPLAY
280
0
  9
$INTERSECTIONCOLOR
 70
257
  9
$DIMASSOC
280
2
  9
$PROJECTNAME
  1

  9
$CAMERADISPLAY
290
0
  9
$LENSLENGTH
 40
50.0
  9
$CAMERAHEIGHT
 40
0.0
  9
$STEPSPERSEC
 40
24.0
  9
$STEPSIZE
 40
100.0
  9
$3DDWFPREC
 40
2.0
  9
$PSOLWIDTH
 40
0.005
  9
$PSOLHEIGHT
 40
0.08
  9
$LOFTANG1
 40
1.570796326795
  9
$LOFTANG2
 40
1.570796326795
  9
$LOFTMAG1
 40
0.0
  9
$LOFTMAG2
 40
0.0
  9
$LOFTPARAM
 70
7
  9
$LOFTNORMALS
280
1
  9
$LATITUDE
 40
37.795
  9
$LONGITUDE
 40
-122.394
  9
$NORTHDIRECTION
 40
0.0
  9
$TIMEZONE
 70
-8000
  9
$LIGHTGLYPHDISPLAY
280
1
  9
$TILEMODELIGHTSYNCH
280
1
  9
$CMATERIAL
347
20
  9
$SOLIDHIST
280
0
  9
$SHOWHIST
280
1
  9
$DWFFRAME
280
2
  9
$DGNFRAME
280
2
  9
$REALWORLDSCALE
290
1
  9
$INTERFERECOLOR
 62
256
  9
$CSHADOW
280
0
  9
$SHADOWPLANELOCATION
 40
0.0
  0
ENDSEC
  0
SECTION
  2
CLASSES
  0
CLASS
  1
ACDBDICTIONARYWDFLT
  2
AcDbDictionaryWithDefault
  3
ObjectDBX Classes
 90
0
 91
0
280
0
281
0
  0
CLASS
  1
SUN
  2
AcDbSun
  3
SCENEOE
 90
1153
 91
0
280
0
281
0
  0
CLASS
  1
VISUALSTYLE
  2
AcDbVisualStyle
  3
ObjectDBX Classes
 90
4095
 91
0
280
0
281
0
  0
CLASS
  1
MATERIAL
  2
AcDbMaterial
  3
ObjectDBX Classes
 90
1153
 91
0
280
0
281
0
  0
CLASS
  1
SCALE
  2
AcDbScale
  3
ObjectDBX Classes
 90
1153
 91
0
280
0
281
0
  0
CLASS
  1
TABLESTYLE
  2
AcDbTableStyle
  3
ObjectDBX Classes
 90
4095
 91
0
280
0
281
0
  0
CLASS
  1
MLEADERSTYLE
  2
AcDbMLeaderStyle
  3
ACDB_MLEADERSTYLE_CLASS
 90
4095
 91
0
280
0
281
0
  0
CLASS
  1
DICTIONARYVAR
  2
AcDbDictionaryVar
  3
ObjectDBX Classes
 90
0
 91
0
280
0
281
0
  0
CLASS
  1
CELLSTYLEMAP
  2
AcDbCellStyleMap
  3
ObjectDBX Classes
 90
1152
 91
0
280
0
281
0
  0
CLASS
  1
MENTALRAYRENDERSETTINGS
  2
AcDbMentalRayRenderSettings
  3
SCENEOE
 90
1024
 91
0
280
0
281
0
  0
CLASS
  1
ACDBDETAILVIEWSTYLE
  2
AcDbDetailViewStyle
  3
ObjectDBX Classes
 90
1025
 91
0
280
0
281
0
  0
CLASS
  1
ACDBSECTIONVIEWSTYLE
  2
AcDbSectionViewStyle
  3
ObjectDBX Classes
 90
1025
 91
0
280
0
281
0
  0
CLASS
  1
RASTERVARIABLES
  2
AcDbRasterVariables
  3
ISM
 90
0
 91
0
280
0
281
0
  0
CLASS
  1
ACDBPLACEHOLDER
  2
AcDbPlaceHolder
  3
ObjectDBX Classes
 90
0
 91
0
280
0
281
0
  0
CLASS
  1
LAYOUT
  2
AcDbLayout
  3
ObjectDBX Classes
 90
0
 91
0
280
0
281
0
  0
ENDSEC
  0
SECTION
  2
TABLES
  0
TABLE
  2
VPORT
  5
8
330
0
100
AcDbSymbolTable
 70
1
  0
VPORT
  5
23
330
8
100
AcDbSymbolTableRecord
100
AcDbViewportTableRecord
  2
*Active
 70
0
 10
0.0
 20
0.0
 11
1.0
 21
1.0
 12
0.0
 22
0.0
 13
0.0
 23
0.0
 14
0.5
 24
0.5
 15
0.5
 25
0.5
 16
0.0
 26
0.0
 36
1.0
 17
0.0
 27
0.0
 37
0.0
 40
1000.0
 41
1.34
 42
50.0
 43
0.0
 44
0.0
 50
0.0
 51
0.0
 71
0
 72
1000
 73
1
 74
3
 75
0
 76
0
 77
0
 78
0
281
0
 65
0
146
0.0
  0
ENDTAB
  0
TABLE
  2
LTYPE
  5
2
330
0
100
AcDbSymbolTable
 70
3
  0
LTYPE
  5
24
330
2
100
AcDbSymbolTableRecord
100
AcDbLinetypeTableRecord
  2
ByBlock
 70
0
  3

 72
65
 73
0
 40
0.0
  0
LTYPE
  5
25
330
2
100
AcDbSymbolTableRecord
100
AcDbLinetypeTableRecord
  2
ByLayer
 70
0
  3

 72
65
 73
0
 40
0.0
  0
LTYPE
  5
26
330
2
100
AcDbSymbolTableRecord
100
AcDbLinetypeTableRecord
  2
Continuous
 70
0
  3

 72
65
 73
0
 40
0.0
  0
ENDTAB
  0
TABLE
  2
LAYER
  5
1
330
0
100
AcDbSymbolTable
 70
2
  0
LAYER
  5
27
330
1
100
AcDbSymbolTableRecord
100
AcDbLayerTableRecord
  2
0
 70
0
 62
7
  6
Continuous
370
-3
390
13
347
21
  0
LAYER
  5
28
330
1
100
AcDbSymbolTableRecord
100
AcDbLayerTableRecord
  2
Defpoints
 70
0
 62
7
  6
Continuous
290
0
370
-3
390
13
347
21
  0
ENDTAB
  0
TABLE
  2
STYLE
  5
5
330
0
100
AcDbSymbolTable
 70
1
  0
STYLE
  5
29
330
5
100
AcDbSymbolTableRecord
100
AcDbTextStyleTableRecord
  2
Standard
 70
0
 40
0.0
 41
1.0
 50
0.0
 71
0
 42
2.5
  3
txt
  4

  0
ENDTAB
  0
TABLE
  2
VIEW
  5
7
330
0
100
AcDbSymbolTable
 70
0
  0
ENDTAB
  0
TABLE
  2
UCS
  5
6
330
0
100
AcDbSymbolTable
 70
0
  0
ENDTAB
  0
TABLE
  2
APPID
  5
3
330
0
100
AcDbSymbolTable
 70
3
  0
APPID
  5
2A
330
3
100
AcDbSymbolTableRecord
100
AcDbRegAppTableRecord
  2
ACAD
 70
0
  0
APPID
  5
4F
330
3
100
AcDbSymbolTableRecord
100
AcDbRegAppTableRecord
  2
HATCHBACKGROUNDCOLOR
 70
0
  0
APPID
  5
50
330
3
100
AcDbSymbolTableRecord
100
AcDbRegAppTableRecord
  2
EZDXF
 70
0
  0
ENDTAB
  0
TABLE
  2
DIMSTYLE
  5
4
330
0
100
AcDbSymbolTable
 70
1
100
AcDbDimStyleTable
  0
DIMSTYLE
105
2B
330
4
100
AcDbSymbolTableRecord
100
AcDbDimStyleTableRecord
  2
Standard
 70
0
 40
1.0
 41
2.5
 42
0.625
 43
3.75
 44
1.25
 45
0.0
 46
0.0
 47
0.0
 48
0.0
 49
2.5
140
2.5
141
2.5
142
0.0
143
0.03937007874
144
1.0
145
0.0
146
1.0
147
0.625
148
0.0
 69
0
 70
0
 71
0
 72
0
 73
0
 74
0
 75
0
 76
0
 77
1
 78
8
 79
3
170
0
171
3
172
1
173
0
174
0
175
0
176
0
177
0
178
0
179
2
271
2
272
2
273
2
274
3
275
0
276
0
277
2
278
44
279
0
280
0
281
0
282
0
283
0
284
8
285
0
286
0
288
0
289
3
290
0
371
-2
372
-2
  0
ENDTAB
  0
TABLE
  2
BLOCK_RECORD
  5
9
330
0
100
AcDbSymbolTable
 70
2
  0
BLOCK_RECORD
  5
17
330
9
100
AcDbSymbolTableRecord
100
AcDbBlockTableRecord
  2
*Model_Space
340
1A
 70
0
280
1
281
0
  0
BLOCK_RECORD
  5
1B
330
9
100
AcDbSymbolTableRecord
100
AcDbBlockTableRecord
  2
*Paper_Space
340
1E
 70
0
280
1
281
0
  0
ENDTAB
  0
ENDSEC
  0
SECTION
  2
BLOCKS
  0
BLOCK
  5
18
330
17
100
AcDbEntity
  8
0
100
AcDbBlockBegin
  2
*Model_Space
 70
0
 10
0.0
 20
0.0
 30
0.0
  3
*Model_Space
  1

  0
ENDBLK
  5
19
330
17
100
AcDbEntity
  8
0
100
AcDbBlockEnd
  0
BLOCK
  5
1C
330
1B
100
AcDbEntity
  8
0
100
AcDbBlockBegin
  2
*Paper_Space
 70
0
 10
0.0
 20
0.0
 30
0.0
  3
*Paper_Space
  1

  0
ENDBLK
  5
1D
330
1B
100
AcDbEntity
  8
0
100
AcDbBlockEnd
  0
ENDSEC
  0
SECTION
  2
ENTITIES
  0
LWPOLYLINE
  5
2F
330
17
100
AcDbEntity
  8
0
100
AcDbPolyline
 90
5
 70
0
 10
190.9690328040323
 20
89.2685528040323
 10
190.9690328040323
 20
32.652847195967695
 10
-15.646672804032312
 20
32.652847195967695
 10
-15.646672804032312
 20
89.2685528040323
 10
190.9690328040323
 20
89.2685528040323
  0
LWPOLYLINE
  5
30
330
17
100
AcDbEntity
  8
0
100
AcDbPolyline
 90
17
 70
0
 10
-5.106586952966375
 20
46.72846695296637
 10
-5.648518831278222
 20
45.91740858091273
 10
-5.8388200000000055
 20
44.9607
 10
-5.648518831278222
 20
44.00399141908728
 10
-5.106586952966374
 20
43.192933047033634
 10
-4.29552858091273
 20
42.651001168721784
 10
-3.338820000000006
 20
42.4607
 10
-2.3821114190872814
 20
42.651001168721784
 10
-1.571053047033637
 20
43.192933047033634
 10
-1.029121168721789
 20
44.00399141908728
 10
-0.8388200000000059
 20
44.9607
 10
-1.0291211687217898
 20
45.91740858091273
 10
-1.5710530470336375
 20
46.72846695296637
 10
-2.382111419087281
 20
47.27039883127822
 10
-3.3388200000000063
 20
47.4607
 10
-4.295528580912732
 20
47.27039883127822
 10
-5.106586952966375
 20
46.72846695296637
  0
LWPOLYLINE
  5
31
330
17
100
AcDbEntity
  8
0
100
AcDbPolyline
 90
17
 70
0
 10
176.89341304703362
 20
46.72846695296637
 10
176.3514811687218
 20
45.91740858091273
 10
176.16118
 20
44.9607
 10
176.3514811687218
 20
44.00399141908728
 10
176.89341304703365
 20
43.192933047033634
 10
177.70447141908727
 20
42.651001168721784
 10
178.66118
 20
42.4607
 10
179.61788858091273
 20
42.651001168721784
 10
180.42894695296638
 20
43.192933047033634
 10
180.9708788312782
 20
44.00399141908728
 10
181.16118
 20
44.9607
 10
180.9708788312782
 20
45.91740858091273
 10
180.42894695296636
 20
46.72846695296637
 10
179.61788858091273
 20
47.27039883127822
 10
178.66118
 20
47.4607
 10
177.70447141908727
 20
47.27039883127822
 10
176.89341304703362
 20
46.72846695296637
  0
LWPOLYLINE
  5
32
330
17
100
AcDbEntity
  8
0
100
AcDbPolyline
 90
17
 70
0
 10
-5.106586952966375
 20
78.72846695296637
 10
-5.648518831278222
 20
77.91740858091272
 10
-5.8388200000000055
 20
76.9607
 10
-5.648518831278222
 20
76.00399141908728
 10
-5.106586952966374
 20
75.19293304703363
 10
-4.29552858091273
 20
74.65100116872179
 10
-3.338820000000006
 20
74.4607
 10
-2.3821114190872814
 20
74.65100116872179
 10
-1.571053047033637
 20
75.19293304703363
 10
-1.029121168721789
 20
76.00399141908728
 10
-0.8388200000000059
 20
76.9607
 10
-1.0291211687217898
 20
77.91740858091273
 10
-1.5710530470336375
 20
78.72846695296637
 10
-2.382111419087281
 20
79.27039883127821
 10
-3.3388200000000063
 20
79.4607
 10
-4.295528580912732
 20
79.27039883127821
 10
-5.106586952966375
 20
78.72846695296637
  0
LWPOLYLINE
  5
33
330
17
100
AcDbEntity
  8
0
100
AcDbPolyline
 90
17
 70
0
 10
176.89341304703362
 20
78.72846695296637
 10
176.3514811687218
 20
77.91740858091272
 10
176.16118
 20
76.9607
 10
176.3514811687218
 20
76.00399141908728
 10
176.89341304703365
 20
75.19293304703363
 10
177.70447141908727
 20
74.65100116872179
 10
178.66118
 20
74.4607
 10
179.61788858091273
 20
74.65100116872179
 10
180.42894695296638
 20
75.19293304703363
 10
180.9708788312782
 20
76.00399141908728
 10
181.16118
 20
76.9607
 10
180.9708788312782
 20
77.91740858091273
 10
180.42894695296636
 20
78.72846695296637
 10
179.61788858091273
 20
79.27039883127821
 10
178.66118
 20
79.4607
 10
177.70447141908727
 20
79.27039883127821
 10
176.89341304703362
 20
78.72846695296637
  0
LWPOLYLINE
  5
34
330
17
100
AcDbEntity
  8
0
100
AcDbPolyline
 90
11
 70
0
 10
8.035078437499994
 20
41.929918750000006
 10
7.593265937499995
 20
41.849762500000004
 10
7.737062812499994
 20
41.413207812500005
 10
8.397890937499996
 20
41.74616875
 10
9.678953437499995
 20
45.05366875
 10
9.239109687499994
 20
45.05366875
 10
8.504734687499994
 20
42.951325000000004
 10
7.776609687499995
 20
45.05366875
 10
7.303172187499994
 20
45.05366875
 10
8.287547187499994
 20
42.4560125
 10
8.035078437499994
 20
41.929918750000006
  0
LWPOLYLINE
  5
35
330
17
100
AcDbEntity
  8
0
100
AcDbPolyline
 90
15
 70
0
 10
4.698191718749994
 20
44.313825
 10
5.930691718749994
 20
44.7422625
 10
6.349441718749993
 20
44.54935625
 10
6.427097968749994
 20
44.106012500000006
 10
4.936472968749994
 20
43.745075
 10
4.6591604687499935
 20
42.902918750000005
 10
5.198879218749994
 20
42.43548125
 10
6.177129218749995
 20
42.575387500000005
 10
6.463816718749994
 20
42.78023125
 10
6.5513167187499945
 20
42.4607
 10
7.010691718749994
 20
42.4607
 10
6.820262031249994
 20
44.641098437500006
 10
6.3189729687499945
 20
45.0622625
 10
5.279441718749995
 20
45.020075000000006
 10
4.698191718749994
 20
44.313825
  0
LWPOLYLINE
  5
36
330
17
100
AcDbEntity
  8
0
100
AcDbPolyline
 90
14
 70
0
 10
12.293797187499996
 20
43.645075000000006
 10
11.966453437499995
 20
44.758356250000006
 10
11.218609687499995
 20
45.108723437500004
 10
10.311726874999994
 20
44.8192703125
 10
9.908883124999996
 20
43.862918750000006
 10
10.239109687499996
 20
42.752106250000004
 10
11.230156562499996
 20
42.4043015625
 10
12.128367499999996
 20
42.886285937500006
 10
12.281297187499995
 20
43.23960625
 10
11.827390937499995
 20
43.29585625
 10
11.447312812499995
 20
42.825840625000005
 10
10.845750312499995
 20
42.820465625000004
 10
10.366976874999995
 20
43.561606250000004
 10
12.293797187499996
 20
43.645075000000006
  0
LWPOLYLINE
  5
37
330
17
100
AcDbEntity
  8
0
100
AcDbPolyline
 90
10
 70
0
 10
13.666496406249994
 20
45.0981375
 10
13.283465156249997
 20
44.763481250000005
 10
13.223777656249995
 20
45.05366875
 10
12.828465156249996
 20
45.05366875
 10
12.828465156249996
 20
42.4607
 10
13.267527656249996
 20
42.4607
 10
13.390340156249996
 20
44.4433875
 10
14.085496406249995
 20
44.563043750000006
 10
14.237058906249995
 20
44.970856250000004
 10
13.666496406249994
 20
45.0981375
  0
LWPOLYLINE
  5
38
330
17
100
AcDbEntity
  8
0
100
AcDbPolyline
 90
7
 70
0
 10
2.0275862499999944
 20
46.039606250000006
 10
2.0275862499999944
 20
42.4607
 10
4.263523749999994
 20
42.4607
 10
4.263523749999994
 20
42.883356250000006
 10
2.501023749999994
 20
42.883356250000006
 10
2.501023749999994
 20
46.039606250000006
 10
2.0275862499999944
 20
46.039606250000006
  0
LWPOLYLINE
  5
39
330
17
100
AcDbEntity
  8
0
100
AcDbPolyline
 90
7
 70
0
 10
16.102195624999993
 20
44.731012500000006
 10
16.838351874999997
 20
45.139950000000006
 10
16.981101874999993
 20
42.4607
 10
17.420164374999995
 20
42.4607
 10
17.420164374999995
 20
46.05445
 10
16.102195624999993
 20
45.1560125
 10
16.102195624999993
 20
44.731012500000006
  0
LWPOLYLINE
  5
3A
330
17
100
AcDbEntity
  8
0
100
AcDbPolyline
 90
47
 70
0
 10
4.6964383460347765
 20
51.1607
 10
4.715540105109614
 20
50.96675658541246
 10
4.715587426684565
 20
50.966518683789886
 10
4.864827712727384
 20
50.60622076117332
 10
4.864935047694882
 20
50.606060123042425
 10
5.140695139092038
 20
50.33030003164214
 10
5.140855777222891
 20
50.330192696674665
 10
5.50115369986513
 20
50.1809524106223
 10
5.501391601487638
 20
50.180905089047364
 10
5.696384142908866
 20
50.1617
 10
7.426336696778097
 20
50.1617
 10
7.6213292381993245
 20
50.180905089047364
 10
7.621567139821833
 20
50.1809524106223
 10
7.981865062464072
 20
50.330192696674665
 10
7.9820257005949244
 20
50.33030003164214
 10
8.257785791992085
 20
50.60606012304243
 10
8.257893126959578
 20
50.60622076117332
 10
8.407133413002395
 20
50.96651868378988
 10
8.407180734577349
 20
50.96675658541247
 10
8.426282493652185
 20
51.1607
 10
7.42738582362792
 20
51.1607
 10
7.42738582362792
 20
70.76067563916963
 10
7.427380977957481
 20
70.7607
 10
8.426282493652186
 20
70.7607
 10
8.407180734577349
 20
70.95464341458755
 10
8.407133413002395
 20
70.95488131621013
 10
8.257893126965186
 20
71.31517923881832
 10
8.25778579199771
 20
71.31533987694918
 10
7.982025700569751
 20
71.5910999683747
 10
7.981865062438893
 20
71.59120730334217
 10
7.621567139856911
 20
71.74044758937072
 10
7.62132923823428
 20
71.74049491094569
 10
7.426336696778142
 20
71.75970000000001
 10
5.696384142908821
 20
71.75970000000001
 10
5.501391601452683
 20
71.74049491094569
 10
5.501153699830052
 20
71.74044758937072
 10
5.14085577724807
 20
71.59120730334217
 10
5.140695139117212
 20
71.5910999683747
 10
4.864935047689249
 20
71.31533987694917
 10
4.864827712721778
 20
71.31517923881832
 10
4.715587426684567
 20
70.95488131621013
 10
4.715540105109613
 20
70.95464341458754
 10
4.696438346034776
 20
70.7607
 10
5.695339861729482
 20
70.7607
 10
5.695335016059043
 20
70.76067563916963
 10
5.695335016059043
 20
51.1607
 10
4.6964383460347765
 20
51.1607
  0
LWPOLYLINE
  5
3B
330
17
100
AcDbEntity
  8
0
100
AcDbPolyline
 90
47
 70
0
 10
34.895335016059036
 20
51.1607
 10
33.89643834603477
 20
51.1607
 10
33.91554010510658
 20
50.96675658542773
 10
33.91558742668151
 20
50.966518683805226
 10
34.06482771273371
 20
50.60622076116385
 10
34.064935047701184
 20
50.60606012303299
 10
34.34069513909203
 20
50.330300031642146
 10
34.340855777222885
 20
50.33019269667467
 10
34.701153699864264
 20
50.180952410622474
 10
34.70139160148677
 20
50.18090508904754
 10
34.896384142908865
 20
50.1617
 10
36.62633669677809
 20
50.1617
 10
36.821329238200185
 20
50.18090508904754
 10
36.82156713982269
 20
50.180952410622474
 10
37.18186506246407
 20
50.33019269667467
 10
37.18202570059493
 20
50.330300031642146
 10
37.45778579198577
 20
50.60606012303299
 10
37.457893126953245
 20
50.60622076116385
 10
37.60713341300544
 20
50.966518683805226
 10
37.607180734580375
 20
50.96675658542773
 10
37.626282493652184
 20
51.1607
 10
36.62738582362792
 20
51.1607
 10
36.62738582362792
 20
70.76067563916963
 10
36.62738097795748
 20
70.7607
 10
37.626282493652184
 20
70.7607
 10
37.607180734580375
 20
70.95464341457227
 10
37.60713341300544
 20
70.9548813161948
 10
37.45789312695887
 20
71.31517923882775
 10
37.45778579199139
 20
71.31533987695862
 10
37.18202570056976
 20
71.59109996837469
 10
37.181865062438874
 20
71.59120730334219
 10
36.82156713985778
 20
71.74044758937055
 10
36.821329238235144
 20
71.74049491094551
 10
36.62633669677814
 20
71.75970000000001
 10
34.896384142908815
 20
71.75970000000001
 10
34.70139160145181
 20
71.74049491094551
 10
34.70115369982918
 20
71.74044758937055
 10
34.34085577724808
 20
71.59120730334219
 10
34.340695139117194
 20
71.59109996837469
 10
34.06493504769556
 20
71.31533987695862
 10
34.06482771272808
 20
71.31517923882775
 10
33.91558742668151
 20
70.9548813161948
 10
33.91554010510658
 20
70.95464341457227
 10
33.89643834603477
 20
70.7607
 10
34.895339861729475
 20
70.7607
 10
34.895335016059036
 20
70.76067563916963
 10
34.895335016059036
 20
51.1607
  0
LWPOLYLINE
  5
3C
330
17
100
AcDbEntity
  8
0
100
AcDbPolyline
 90
47
 70
0
 10
51.895335016059036
 20
51.1607
 10
50.89643834603477
 20
51.1607
 10
50.91554010510658
 20
50.96675658542773
 10
50.91558742668151
 20
50.966518683805226
 10
51.06482771273371
 20
50.60622076116385
 10
51.064935047701184
 20
50.60606012303299
 10
51.34069513909203
 20
50.330300031642146
 10
51.340855777222885
 20
50.33019269667467
 10
51.701153699864264
 20
50.180952410622474
 10
51.70139160148677
 20
50.18090508904754
 10
51.896384142908865
 20
50.1617
 10
53.62633669677809
 20
50.1617
 10
53.821329238200185
 20
50.18090508904754
 10
53.82156713982269
 20
50.180952410622474
 10
54.18186506246407
 20
50.33019269667467
 10
54.18202570059493
 20
50.330300031642146
 10
54.45778579198577
 20
50.60606012303299
 10
54.457893126953245
 20
50.60622076116385
 10
54.60713341300544
 20
50.966518683805226
 10
54.607180734580375
 20
50.96675658542773
 10
54.626282493652184
 20
51.1607
 10
53.62738582362792
 20
51.1607
 10
53.62738582362792
 20
70.76067563916963
 10
53.62738097795748
 20
70.7607
 10
54.626282493652184
 20
70.7607
 10
54.607180734580375
 20
70.95464341457227
 10
54.60713341300544
 20
70.9548813161948
 10
54.45789312695887
 20
71.31517923882775
 10
54.45778579199139
 20
71.31533987695862
 10
54.18202570056976
 20
71.59109996837469
 10
54.181865062438874
 20
71.59120730334219
 10
53.82156713985778
 20
71.74044758937055
 10
53.821329238235144
 20
71.74049491094551
 10
53.62633669677814
 20
71.75970000000001
 10
51.896384142908815
 20
71.75970000000001
 10
51.70139160145181
 20
71.74049491094551
 10
51.70115369982918
 20
71.74044758937055
 10
51.34085577724808
 20
71.59120730334219
 10
51.340695139117194
 20
71.59109996837469
 10
51.06493504769556
 20
71.31533987695862
 10
51.06482771272808
 20
71.31517923882775
 10
50.91558742668151
 20
70.9548813161948
 10
50.91554010510658
 20
70.95464341457227
 10
50.89643834603477
 20
70.7607
 10
51.895339861729475
 20
70.7607
 10
51.895335016059036
 20
70.76067563916963
 10
51.895335016059036
 20
51.1607
  0
LWPOLYLINE
  5
3D
330
17
100
AcDbEntity
  8
0
100
AcDbPolyline
 90
47
 70
0
 10
96.89533501605905
 20
51.1607
 10
95.89643834603478
 20
51.1607
 10
95.91554010511354
 20
50.96675658539277
 10
95.9155874266885
 20
50.96651868377014
 10
96.06482771271686
 20
50.60622076118904
 10
96.06493504768436
 20
50.60606012305816
 10
96.34069513910043
 20
50.330300031636526
 10
96.3408557772313
 20
50.330192696669044
 10
96.70115369986425
 20
50.180952410622474
 10
96.70139160148678
 20
50.18090508904754
 10
96.89638414290886
 20
50.1617
 10
98.62633669677811
 20
50.1617
 10
98.82132923820019
 20
50.18090508904754
 10
98.82156713982272
 20
50.180952410622474
 10
99.18186506245567
 20
50.330192696669044
 10
99.18202570058654
 20
50.330300031636526
 10
99.45778579200261
 20
50.60606012305816
 10
99.4578931269701
 20
50.60622076118904
 10
99.60713341299846
 20
50.96651868377014
 10
99.60718073457343
 20
50.96675658539277
 10
99.62628249365218
 20
51.1607
 10
98.62738582362792
 20
51.1607
 10
98.62738582362792
 20
70.76067563916963
 10
98.62738097795747
 20
70.7607
 10
99.62628249365218
 20
70.7607
 10
99.60718073457343
 20
70.95464341460725
 10
99.60713341299846
 20
70.95488131622987
 10
99.45789312697572
 20
71.31517923880254
 10
99.45778579200824
 20
71.31533987693342
 10
99.18202570056134
 20
71.59109996838032
 10
99.18186506243046
 20
71.5912073033478
 10
98.82156713985779
 20
71.74044758937055
 10
98.82132923823517
 20
71.74049491094551
 10
98.62633669677814
 20
71.75970000000001
 10
96.89638414290883
 20
71.75970000000001
 10
96.7013916014518
 20
71.74049491094551
 10
96.70115369982918
 20
71.74044758937055
 10
96.34085577725651
 20
71.5912073033478
 10
96.34069513912563
 20
71.59109996838032
 10
96.06493504767873
 20
71.31533987693342
 10
96.06482771271125
 20
71.31517923880254
 10
95.9155874266885
 20
70.95488131622987
 10
95.91554010511354
 20
70.95464341460725
 10
95.89643834603478
 20
70.7607
 10
96.8953398617295
 20
70.7607
 10
96.89533501605905
 20
70.76067563916963
 10
96.89533501605905
 20
51.1607
  0
LWPOLYLINE
  5
3E
330
17
100
AcDbEntity
  8
0
100
AcDbPolyline
 90
47
 70
0
 10
159.89533501605905
 20
51.1607
 10
158.89643834603478
 20
51.1607
 10
158.9155401051135
 20
50.966756585392915
 10
158.9155874266885
 20
50.96651868377014
 10
159.0648277127169
 20
50.60622076118904
 10
159.0649350476844
 20
50.60606012305813
 10
159.34069513908358
 20
50.330300031647816
 10
159.3408557772145
 20
50.33019269668028
 10
159.70115369987127
 20
50.18095241062108
 10
159.70139160149373
 20
50.180905089046156
 10
159.8963841429089
 20
50.1617
 10
161.6263366967781
 20
50.1617
 10
161.82132923819327
 20
50.180905089046156
 10
161.82156713981573
 20
50.18095241062108
 10
162.1818650624725
 20
50.33019269668028
 10
162.18202570060342
 20
50.330300031647816
 10
162.4577857920026
 20
50.60606012305813
 10
162.4578931269701
 20
50.60622076118904
 10
162.6071334129985
 20
50.96651868377014
 10
162.6071807345735
 20
50.966756585392915
 10
162.6262824936522
 20
51.1607
 10
161.62738582362795
 20
51.1607
 10
161.62738582362795
 20
70.76067563916963
 10
161.6273809779575
 20
70.7607
 10
162.6262824936522
 20
70.7607
 10
162.6071807345735
 20
70.9546434146071
 10
162.6071334129985
 20
70.95488131622987
 10
162.4578931269757
 20
71.3151792388026
 10
162.45778579200825
 20
71.31533987693342
 10
162.18202570057824
 20
71.59109996836905
 10
162.18186506244732
 20
71.59120730333656
 10
161.82156713985083
 20
71.74044758937195
 10
161.82132923822826
 20
71.74049491094691
 10
161.62633669677817
 20
71.75970000000001
 10
159.89638414290883
 20
71.75970000000001
 10
159.70139160145874
 20
71.74049491094691
 10
159.70115369983617
 20
71.74044758937195
 10
159.34085577723968
 20
71.59120730333656
 10
159.34069513910876
 20
71.59109996836905
 10
159.06493504767874
 20
71.31533987693342
 10
159.0648277127113
 20
71.3151792388026
 10
158.9155874266885
 20
70.95488131622987
 10
158.9155401051135
 20
70.9546434146071
 10
158.89643834603478
 20
70.7607
 10
159.8953398617295
 20
70.7607
 10
159.89533501605905
 20
70.76067563916963
 10
159.89533501605905
 20
51.1607
  0
LWPOLYLINE
  5
3F
330
17
100
AcDbEntity
  8
0
100
AcDbPolyline
 90
5
 70
0
 10
195.9690328040323
 20
89.2685528040323
 10
402.58473841209695
 20
89.2685528040323
 10
402.58473841209695
 20
32.652847195967695
 10
195.9690328040323
 20
32.652847195967695
 10
195.9690328040323
 20
89.2685528040323
  0
LWPOLYLINE
  5
40
330
17
100
AcDbEntity
  8
0
100
AcDbPolyline
 90
17
 70
0
 10
388.50911865509823
 20
46.72846695296637
 10
387.96718677678643
 20
45.91740858091273
 10
387.7768856080646
 20
44.9607
 10
387.96718677678643
 20
44.00399141908728
 10
388.50911865509823
 20
43.192933047033634
 10
389.3201770271519
 20
42.651001168721784
 10
390.2768856080646
 20
42.4607
 10
391.23359418897735
 20
42.651001168721784
 10
392.044652561031
 20
43.192933047033634
 10
392.58658443934286
 20
44.00399141908728
 10
392.7768856080646
 20
44.9607
 10
392.58658443934286
 20
45.91740858091273
 10
392.044652561031
 20
46.72846695296637
 10
391.23359418897735
 20
47.27039883127822
 10
390.2768856080646
 20
47.4607
 10
389.3201770271519
 20
47.27039883127822
 10
388.50911865509823
 20
46.72846695296637
  0
LWPOLYLINE
  5
41
330
17
100
AcDbEntity
  8
0
100
AcDbPolyline
 90
17
 70
0
 10
206.50911865509826
 20
46.72846695296637
 10
205.9671867767864
 20
45.91740858091273
 10
205.77688560806462
 20
44.9607
 10
205.9671867767864
 20
44.00399141908728
 10
206.50911865509823
 20
43.192933047033634
 10
207.32017702715189
 20
42.651001168721784
 10
208.27688560806462
 20
42.4607
 10
209.23359418897735
 20
42.651001168721784
 10
210.04465256103097
 20
43.192933047033634
 10
210.58658443934283
 20
44.00399141908728
 10
210.77688560806462
 20
44.9607
 10
210.58658443934283
 20
45.91740858091273
 10
210.044652561031
 20
46.72846695296637
 10
209.23359418897735
 20
47.27039883127822
 10
208.27688560806462
 20
47.4607
 10
207.32017702715189
 20
47.27039883127822
 10
206.50911865509826
 20
46.72846695296637
  0
LWPOLYLINE
  5
42
330
17
100
AcDbEntity
  8
0
100
AcDbPolyline
 90
17
 70
0
 10
388.50911865509823
 20
78.72846695296637
 10
387.96718677678643
 20
77.91740858091273
 10
387.7768856080646
 20
76.9607
 10
387.96718677678643
 20
76.00399141908728
 10
388.50911865509823
 20
75.19293304703363
 10
389.3201770271519
 20
74.65100116872179
 10
390.2768856080646
 20
74.4607
 10
391.23359418897735
 20
74.65100116872179
 10
392.044652561031
 20
75.19293304703363
 10
392.58658443934286
 20
76.00399141908728
 10
392.7768856080646
 20
76.9607
 10
392.58658443934286
 20
77.91740858091272
 10
392.044652561031
 20
78.72846695296637
 10
391.23359418897735
 20
79.27039883127821
 10
390.2768856080646
 20
79.4607
 10
389.3201770271519
 20
79.27039883127821
 10
388.50911865509823
 20
78.72846695296637
  0
LWPOLYLINE
  5
43
330
17
100
AcDbEntity
  8
0
100
AcDbPolyline
 90
17
 70
0
 10
206.50911865509826
 20
78.72846695296637
 10
205.9671867767864
 20
77.91740858091273
 10
205.77688560806462
 20
76.9607
 10
205.9671867767864
 20
76.00399141908728
 10
206.50911865509823
 20
75.19293304703363
 10
207.32017702715189
 20
74.65100116872179
 10
208.27688560806462
 20
74.4607
 10
209.23359418897735
 20
74.65100116872179
 10
210.04465256103097
 20
75.19293304703363
 10
210.58658443934283
 20
76.00399141908728
 10
210.77688560806462
 20
76.9607
 10
210.58658443934283
 20
77.91740858091272
 10
210.044652561031
 20
78.72846695296637
 10
209.23359418897735
 20
79.27039883127821
 10
208.27688560806462
 20
79.4607
 10
207.32017702715189
 20
79.27039883127821
 10
206.50911865509826
 20
78.72846695296637
  0
LWPOLYLINE
  5
44
330
17
100
AcDbEntity
  8
0
100
AcDbPolyline
 90
11
 70
0
 10
378.43333092056463
 20
42.951325000000004
 10
377.69895592056463
 20
45.05366875
 10
377.2591121705646
 20
45.05366875
 10
378.5401746705646
 20
41.74616875
 10
379.20100279556465
 20
41.413207812500005
 10
379.3447996705646
 20
41.849762500000004
 10
378.90298717056464
 20
41.929918750000006
 10
378.65051842056465
 20
42.4560125
 10
379.63489342056465
 20
45.05366875
 10
379.1614559205646
 20
45.05366875
 10
378.43333092056463
 20
42.951325000000004
  0
LWPOLYLINE
  5
45
330
17
100
AcDbEntity
  8
0
100
AcDbPolyline
 90
15
 70
0
 10
379.92737388931465
 20
42.4607
 10
380.3867488893146
 20
42.4607
 10
380.47424888931465
 20
42.78023125
 10
380.7609363893146
 20
42.575387500000005
 10
381.7391863893146
 20
42.43548125
 10
382.27890513931465
 20
42.902918750000005
 10
382.00159263931465
 20
43.745075
 10
380.51096763931463
 20
44.106012500000006
 10
380.58862388931465
 20
44.54935625
 10
381.00737388931464
 20
44.7422625
 10
382.23987388931465
 20
44.313825
 10
381.65862388931464
 20
45.020075000000006
 10
380.6190926393146
 20
45.0622625
 10
380.11780357681465
 20
44.641098437500006
 10
379.92737388931465
 20
42.4607
  0
LWPOLYLINE
  5
46
330
17
100
AcDbEntity
  8
0
100
AcDbPolyline
 90
14
 70
0
 10
375.1106746705646
 20
43.29585625
 10
374.6567684205646
 20
43.23960625
 10
374.8096981080646
 20
42.886285937500006
 10
375.70790904556463
 20
42.4043015625
 10
376.69895592056463
 20
42.752106250000004
 10
377.02918248306463
 20
43.862918750000006
 10
376.62633873306464
 20
44.8192703125
 10
375.7194559205646
 20
45.108723437500004
 10
374.97161217056464
 20
44.758356250000006
 10
374.64426842056463
 20
43.645075000000006
 10
376.57108873306464
 20
43.561606250000004
 10
376.0923152955646
 20
42.820465625000004
 10
375.4907527955646
 20
42.825840625000005
 10
375.1106746705646
 20
43.29585625
  0
LWPOLYLINE
  5
47
330
17
100
AcDbEntity
  8
0
100
AcDbPolyline
 90
10
 70
0
 10
373.6705379518146
 20
42.4607
 10
374.10960045181463
 20
42.4607
 10
374.10960045181463
 20
45.05366875
 10
373.71428795181464
 20
45.05366875
 10
373.65460045181464
 20
44.763481250000005
 10
373.2715692018146
 20
45.0981375
 10
372.7010067018146
 20
44.970856250000004
 10
372.8525692018146
 20
44.563043750000006
 10
373.54772545181464
 20
44.4433875
 10
373.6705379518146
 20
42.4607
  0
LWPOLYLINE
  5
48
330
17
100
AcDbEntity
  8
0
100
AcDbPolyline
 90
24
 70
0
 10
370.6409324830646
 20
45.898950000000006
 10
369.6627449830646
 20
45.9928171875
 10
369.03508873306464
 20
45.3616765625
 10
369.08227623306465
 20
44.779981250000006
 10
369.4952449830646
 20
44.398981250000006
 10
368.9126277955646
 20
43.9463171875
 10
368.8812449830646
 20
43.16560625
 10
369.31249498306465
 20
42.60591875
 10
370.0327449830646
 20
42.39741875
 10
370.8155574830646
 20
42.677887500000004
 10
371.1702449830646
 20
43.40523125
 10
370.73118248306463
 20
43.463825
 10
370.62883873306464
 20
43.1425359375
 10
369.9693387330646
 20
42.762848437500004
 10
369.3271512330646
 20
43.27048125
 10
369.53116685806464
 20
44.044200000000004
 10
370.3038387330646
 20
44.15523125
 10
370.25461998306463
 20
44.541168750000004
 10
369.5100887330646
 20
44.868317187500004
 10
369.61790123306463
 20
45.5341375
 10
370.2311512330646
 20
45.667637500000005
 10
370.6866512330646
 20
45.048981250000004
 10
371.1264949830646
 20
45.127106250000004
 10
370.6409324830646
 20
45.898950000000006
  0
LWPOLYLINE
  5
49
330
17
100
AcDbEntity
  8
0
100
AcDbPolyline
 90
7
 70
0
 10
382.67454185806463
 20
42.4607
 10
384.9104793580646
 20
42.4607
 10
384.9104793580646
 20
46.039606250000006
 10
384.4370418580646
 20
46.039606250000006
 10
384.4370418580646
 20
42.883356250000006
 10
382.67454185806463
 20
42.883356250000006
 10
382.67454185806463
 20
42.4607
  0
LWPOLYLINE
  5
4A
330
17
100
AcDbEntity
  8
0
100
AcDbPolyline
 90
47
 70
0
 10
382.24162726202985
 20
70.7607
 10
382.222525502955
 20
70.95464341458754
 10
382.22247818138004
 20
70.95488131621013
 10
382.07323789534286
 20
71.31517923881832
 10
382.0731305603754
 20
71.31533987694917
 10
381.7973704689474
 20
71.5910999683747
 10
381.79720983081654
 20
71.59120730334217
 10
381.43691190823455
 20
71.74044758937072
 10
381.43667400661195
 20
71.74049491094569
 10
381.2416814651558
 20
71.75970000000001
 10
379.51172891128647
 20
71.75970000000001
 10
379.3167363698303
 20
71.74049491094569
 10
379.3164984682077
 20
71.74044758937072
 10
378.95620054562573
 20
71.59120730334217
 10
378.95603990749487
 20
71.5910999683747
 10
378.6802798160669
 20
71.31533987694918
 10
378.6801724810994
 20
71.31517923881832
 10
378.53093219506223
 20
70.95488131621013
 10
378.53088487348725
 20
70.95464341458755
 10
378.5117831144124
 20
70.7607
 10
379.51068463010716
 20
70.7607
 10
379.5106797844367
 20
70.76067563916963
 10
379.5106797844367
 20
51.1607
 10
378.5117831144124
 20
51.1607
 10
378.53088487348725
 20
50.96675658541247
 10
378.53093219506223
 20
50.96651868378988
 10
378.68017248110505
 20
50.60622076117332
 10
378.6802798160725
 20
50.60606012304243
 10
378.9560399074697
 20
50.33030003164214
 10
378.95620054560055
 20
50.330192696674665
 10
379.3164984682428
 20
50.1809524106223
 10
379.3167363698653
 20
50.180905089047364
 10
379.5117289112865
 20
50.1617
 10
381.24168146515575
 20
50.1617
 10
381.436674006577
 20
50.180905089047364
 10
381.4369119081995
 20
50.1809524106223
 10
381.7972098308417
 20
50.330192696674665
 10
381.7973704689726
 20
50.33030003164214
 10
382.07313056036975
 20
50.606060123042425
 10
382.07323789533723
 20
50.60622076117332
 10
382.22247818138004
 20
50.966518683789886
 10
382.222525502955
 20
50.96675658541246
 10
382.24162726202985
 20
51.1607
 10
381.24273059200556
 20
51.1607
 10
381.24273059200556
 20
70.76067563916963
 10
381.2427257463351
 20
70.7607
 10
382.24162726202985
 20
70.7607
  0
LWPOLYLINE
  5
4B
330
17
100
AcDbEntity
  8
0
100
AcDbPolyline
 90
47
 70
0
 10
353.02252550295805
 20
70.95464341457227
 10
353.0224781813831
 20
70.9548813161948
 10
352.87323789533656
 20
71.31517923882775
 10
352.8731305603691
 20
71.31533987695862
 10
352.5973704689474
 20
71.59109996837469
 10
352.59720983081655
 20
71.59120730334219
 10
352.23691190823547
 20
71.74044758937055
 10
352.2366740066128
 20
71.74049491094551
 10
352.0416814651558
 20
71.75970000000001
 10
350.3117289112865
 20
71.75970000000001
 10
350.1167363698295
 20
71.74049491094551
 10
350.1164984682068
 20
71.74044758937055
 10
349.75620054562575
 20
71.59120730334219
 10
349.7560399074949
 20
71.59109996837469
 10
349.4802798160732
 20
71.31533987695862
 10
349.48017248110574
 20
71.31517923882775
 10
349.3309321950592
 20
70.9548813161948
 10
349.33088487348425
 20
70.95464341457227
 10
349.31178311441244
 20
70.7607
 10
350.3106846301071
 20
70.7607
 10
350.31067978443673
 20
70.76067563916963
 10
350.31067978443673
 20
51.1607
 10
349.31178311441244
 20
51.1607
 10
349.33088487348425
 20
50.96675658542773
 10
349.3309321950592
 20
50.966518683805226
 10
349.48017248111137
 20
50.60622076116385
 10
349.48027981607885
 20
50.60606012303299
 10
349.7560399074697
 20
50.330300031642146
 10
349.75620054560056
 20
50.33019269667467
 10
350.11649846824196
 20
50.180952410622474
 10
350.11673636986444
 20
50.18090508904754
 10
350.31172891128654
 20
50.1617
 10
352.04168146515576
 20
50.1617
 10
352.23667400657786
 20
50.18090508904754
 10
352.23691190820034
 20
50.180952410622474
 10
352.59720983084173
 20
50.33019269667467
 10
352.5973704689726
 20
50.330300031642146
 10
352.87313056036345
 20
50.60606012303299
 10
352.87323789533093
 20
50.60622076116385
 10
353.0224781813831
 20
50.966518683805226
 10
353.02252550295805
 20
50.96675658542773
 10
353.04162726202986
 20
51.1607
 10
352.04273059200557
 20
51.1607
 10
352.04273059200557
 20
70.76067563916963
 10
352.0427257463351
 20
70.7607
 10
353.04162726202986
 20
70.7607
 10
353.02252550295805
 20
70.95464341457227
  0
LWPOLYLINE
  5
4C
330
17
100
AcDbEntity
  8
0
100
AcDbPolyline
 90
47
 70
0
 10
336.02252550295805
 20
70.95464341457227
 10
336.0224781813831
 20
70.9548813161948
 10
335.87323789533656
 20
71.31517923882775
 10
335.8731305603691
 20
71.31533987695862
 10
335.5973704689474
 20
71.59109996837469
 10
335.59720983081655
 20
71.59120730334219
 10
335.23691190823547
 20
71.74044758937055
 10
335.2366740066128
 20
71.74049491094551
 10
335.0416814651558
 20
71.75970000000001
 10
333.3117289112865
 20
71.75970000000001
 10
333.1167363698295
 20
71.74049491094551
 10
333.1164984682068
 20
71.74044758937055
 10
332.75620054562575
 20
71.59120730334219
 10
332.7560399074949
 20
71.59109996837469
 10
332.4802798160732
 20
71.31533987695862
 10
332.48017248110574
 20
71.31517923882775
 10
332.3309321950592
 20
70.9548813161948
 10
332.33088487348425
 20
70.95464341457227
 10
332.31178311441244
 20
70.7607
 10
333.3106846301071
 20
70.7607
 10
333.31067978443673
 20
70.76067563916963
 10
333.31067978443673
 20
51.1607
 10
332.31178311441244
 20
51.1607
 10
332.33088487348425
 20
50.96675658542773
 10
332.3309321950592
 20
50.966518683805226
 10
332.48017248111137
 20
50.60622076116385
 10
332.48027981607885
 20
50.60606012303299
 10
332.7560399074697
 20
50.330300031642146
 10
332.75620054560056
 20
50.33019269667467
 10
333.11649846824196
 20
50.180952410622474
 10
333.11673636986444
 20
50.18090508904754
 10
333.31172891128654
 20
50.1617
 10
335.04168146515576
 20
50.1617
 10
335.23667400657786
 20
50.18090508904754
 10
335.23691190820034
 20
50.180952410622474
 10
335.59720983084173
 20
50.33019269667467
 10
335.5973704689726
 20
50.330300031642146
 10
335.87313056036345
 20
50.60606012303299
 10
335.87323789533093
 20
50.60622076116385
 10
336.0224781813831
 20
50.966518683805226
 10
336.02252550295805
 20
50.96675658542773
 10
336.04162726202986
 20
51.1607
 10
335.04273059200557
 20
51.1607
 10
335.04273059200557
 20
70.76067563916963
 10
335.0427257463351
 20
70.7607
 10
336.04162726202986
 20
70.7607
 10
336.02252550295805
 20
70.95464341457227
  0
LWPOLYLINE
  5
4D
330
17
100
AcDbEntity
  8
0
100
AcDbPolyline
 90
47
 70
0
 10
291.0225255029511
 20
70.95464341460725
 10
291.02247818137613
 20
70.95488131622987
 10
290.8732378953534
 20
71.31517923880254
 10
290.8731305603859
 20
71.31533987693342
 10
290.597370468939
 20
71.59109996838032
 10
290.5972098308081
 20
71.5912073033478
 10
290.23691190823547
 20
71.74044758937055
 10
290.2366740066128
 20
71.74049491094551
 10
290.04168146515576
 20
71.75970000000001
 10
288.3117289112865
 20
71.75970000000001
 10
288.1167363698295
 20
71.74049491094551
 10
288.1164984682068
 20
71.74044758937055
 10
287.75620054563416
 20
71.5912073033478
 10
287.7560399075033
 20
71.59109996838032
 10
287.4802798160564
 20
71.31533987693342
 10
287.4801724810889
 20
71.31517923880254
 10
287.33093219506617
 20
70.95488131622987
 10
287.3308848734912
 20
70.95464341460725
 10
287.31178311441244
 20
70.7607
 10
288.3106846301072
 20
70.7607
 10
288.31067978443673
 20
70.76067563916963
 10
288.31067978443673
 20
51.1607
 10
287.31178311441244
 20
51.1607
 10
287.3308848734912
 20
50.96675658539277
 10
287.33093219506617
 20
50.96651868377014
 10
287.48017248109454
 20
50.60622076118904
 10
287.480279816062
 20
50.60606012305816
 10
287.7560399074781
 20
50.330300031636526
 10
287.756200545609
 20
50.330192696669044
 10
288.1164984682419
 20
50.180952410622474
 10
288.11673636986444
 20
50.18090508904754
 10
288.31172891128654
 20
50.1617
 10
290.04168146515576
 20
50.1617
 10
290.23667400657786
 20
50.18090508904754
 10
290.23691190820034
 20
50.180952410622474
 10
290.5972098308333
 20
50.330192696669044
 10
290.5973704689642
 20
50.330300031636526
 10
290.8731305603803
 20
50.60606012305816
 10
290.87323789534776
 20
50.60622076118904
 10
291.02247818137613
 20
50.96651868377014
 10
291.0225255029511
 20
50.96675658539277
 10
291.0416272620298
 20
51.1607
 10
290.04273059200557
 20
51.1607
 10
290.04273059200557
 20
70.76067563916963
 10
290.0427257463351
 20
70.7607
 10
291.0416272620298
 20
70.7607
 10
291.0225255029511
 20
70.95464341460725
  0
LWPOLYLINE
  5
4E
330
17
100
AcDbEntity
  8
0
100
AcDbPolyline
 90
47
 70
0
 10
228.0225255029511
 20
70.9546434146071
 10
228.02247818137613
 20
70.95488131622987
 10
227.87323789535333
 20
71.3151792388026
 10
227.87313056038587
 20
71.31533987693342
 10
227.59737046895586
 20
71.59109996836905
 10
227.59720983082494
 20
71.59120730333656
 10
227.23691190822845
 20
71.74044758937195
 10
227.23667400660588
 20
71.74049491094691
 10
227.0416814651558
 20
71.75970000000001
 10
225.31172891128645
 20
71.75970000000001
 10
225.11673636983636
 20
71.74049491094691
 10
225.1164984682138
 20
71.74044758937195
 10
224.7562005456173
 20
71.59120730333656
 10
224.75603990748638
 20
71.59109996836905
 10
224.48027981605637
 20
71.31533987693342
 10
224.4801724810889
 20
71.3151792388026
 10
224.3309321950661
 20
70.95488131622987
 10
224.33088487349113
 20
70.9546434146071
 10
224.3117831144124
 20
70.7607
 10
225.31068463010712
 20
70.7607
 10
225.31067978443667
 20
70.76067563916963
 10
225.31067978443667
 20
51.1607
 10
224.3117831144124
 20
51.1607
 10
224.33088487349113
 20
50.966756585392915
 10
224.3309321950661
 20
50.96651868377014
 10
224.4801724810945
 20
50.60622076118904
 10
224.48027981606202
 20
50.60606012305813
 10
224.7560399074612
 20
50.330300031647816
 10
224.75620054559212
 20
50.33019269668028
 10
225.1164984682489
 20
50.18095241062108
 10
225.11673636987135
 20
50.180905089046156
 10
225.3117289112865
 20
50.1617
 10
227.04168146515573
 20
50.1617
 10
227.2366740065709
 20
50.180905089046156
 10
227.23691190819335
 20
50.18095241062108
 10
227.59720983085012
 20
50.33019269668028
 10
227.59737046898104
 20
50.330300031647816
 10
227.87313056038022
 20
50.60606012305813
 10
227.87323789534773
 20
50.60622076118904
 10
228.02247818137613
 20
50.96651868377014
 10
228.0225255029511
 20
50.966756585392915
 10
228.04162726202983
 20
51.1607
 10
227.04273059200557
 20
51.1607
 10
227.04273059200557
 20
70.76067563916963
 10
227.04272574633512
 20
70.7607
 10
228.04162726202983
 20
70.7607
 10
228.0225255029511
 20
70.9546434146071
  0
ENDSEC
  0
SECTION
  2
OBJECTS
  0
DICTIONARY
  5
A
330
0
100
AcDbDictionary
281
1
  3
ACAD_COLOR
350
B
  3
ACAD_GROUP
350
C
  3
ACAD_LAYOUT
350
D
  3
ACAD_MATERIAL
350
E
  3
ACAD_MLEADERSTYLE
350
F
  3
ACAD_MLINESTYLE
350
10
  3
ACAD_PLOTSETTINGS
350
11
  3
ACAD_PLOTSTYLENAME
350
12
  3
ACAD_SCALELIST
350
14
  3
ACAD_TABLESTYLE
350
15
  3
ACAD_VISUALSTYLE
350
16
  3
EZDXF_META
350
2D
  0
DICTIONARY
  5
B
330
A
100
AcDbDictionary
281
1
  0
DICTIONARY
  5
C
330
A
100
AcDbDictionary
281
1
  0
DICTIONARY
  5
D
330
A
100
AcDbDictionary
281
1
  3
Model
350
1A
  3
Layout1
350
1E
  0
DICTIONARY
  5
E
330
A
100
AcDbDictionary
281
1
  3
ByBlock
350
1F
  3
ByLayer
350
20
  3
Global
350
21
  0
DICTIONARY
  5
F
330
A
100
AcDbDictionary
281
1
  3
Standard
350
2C
  0
DICTIONARY
  5
10
330
A
100
AcDbDictionary
281
1
  3
Standard
350
22
  0
DICTIONARY
  5
11
330
A
100
AcDbDictionary
281
1
  0
ACDBDICTIONARYWDFLT
  5
12
330
A
100
AcDbDictionary
281
1
  3
Normal
350
13
100
AcDbDictionaryWithDefault
340
13
  0
ACDBPLACEHOLDER
  5
13
330
12
  0
DICTIONARY
  5
14
330
A
100
AcDbDictionary
281
1
  0
DICTIONARY
  5
15
330
A
100
AcDbDictionary
281
1
  0
DICTIONARY
  5
16
330
A
100
AcDbDictionary
281
1
  0
LAYOUT
  5
1A
330
D
100
AcDbPlotSettings
  1

  4
A3
  6

 40
7.5
 41
20.0
 42
7.5
 43
20.0
 44
420.0
 45
297.0
 46
0.0
 47
0.0
 48
0.0
 49
0.0
140
0.0
141
0.0
142
1.0
143
1.0
 70
1024
 72
1
 73
0
 74
5
  7

 75
16
 76
0
 77
2
 78
300
147
1.0
148
0.0
149
0.0
100
AcDbLayout
  1
Model
 70
1
 71
0
 10
0.0
 20
0.0
 11
420.0
 21
297.0
 12
0.0
 22
0.0
 32
0.0
 14
1e+20
 24
1e+20
 34
1e+20
 15
-1e+20
 25
-1e+20
 35
-1e+20
146
0.0
 13
0.0
 23
0.0
 33
0.0
 16
1.0
 26
0.0
 36
0.0
 17
0.0
 27
1.0
 37
0.0
 76
1
330
17
  0
LAYOUT
  5
1E
330
D
100
AcDbPlotSettings
  1

  4
A3
  6

 40
7.5
 41
20.0
 42
7.5
 43
20.0
 44
420.0
 45
297.0
 46
0.0
 47
0.0
 48
0.0
 49
0.0
140
0.0
141
0.0
142
1.0
143
1.0
 70
0
 72
1
 73
0
 74
5
  7

 75
16
 76
0
 77
2
 78
300
147
1.0
148
0.0
149
0.0
100
AcDbLayout
  1
Layout1
 70
1
 71
1
 10
0.0
 20
0.0
 11
420.0
 21
297.0
 12
0.0
 22
0.0
 32
0.0
 14
1e+20
 24
1e+20
 34
1e+20
 15
-1e+20
 25
-1e+20
 35
-1e+20
146
0.0
 13
0.0
 23
0.0
 33
0.0
 16
1.0
 26
0.0
 36
0.0
 17
0.0
 27
1.0
 37
0.0
 76
1
330
1B
  0
MATERIAL
  5
1F
102
{ACAD_REACTORS
330
E
102
}
330
E
100
AcDbMaterial
  1
ByBlock
  2

 70
0
 40
1.0
 71
1
 41
1.0
 91
-1023410177
 42
1.0
 72
1
  3

 73
1
 74
1
 75
1
 44
0.5
 73
0
 45
1.0
 46
1.0
 77
1
  4

 78
1
 79
1
170
1
 48
1.0
171
1
  6

172
1
173
1
174
1
140
1.0
141
1.0
175
1
  7

176
1
177
1
178
1
143
1.0
179
1
  8

270
1
271
1
272
1
145
1.0
146
1.0
273
1
  9

274
1
275
1
276
1
 42
1.0
 72
1
  3

 73
1
 74
1
 75
1
 94
63
  0
MATERIAL
  5
20
102
{ACAD_REACTORS
330
E
102
}
330
E
100
AcDbMaterial
  1
ByLayer
  2

 70
0
 40
1.0
 71
1
 41
1.0
 91
-1023410177
 42
1.0
 72
1
  3

 73
1
 74
1
 75
1
 44
0.5
 73
0
 45
1.0
 46
1.0
 77
1
  4

 78
1
 79
1
170
1
 48
1.0
171
1
  6

172
1
173
1
174
1
140
1.0
141
1.0
175
1
  7

176
1
177
1
178
1
143
1.0
179
1
  8

270
1
271
1
272
1
145
1.0
146
1.0
273
1
  9

274
1
275
1
276
1
 42
1.0
 72
1
  3

 73
1
 74
1
 75
1
 94
63
  0
MATERIAL
  5
21
102
{ACAD_REACTORS
330
E
102
}
330
E
100
AcDbMaterial
  1
Global
  2

 70
0
 40
1.0
 71
1
 41
1.0
 91
-1023410177
 42
1.0
 72
1
  3

 73
1
 74
1
 75
1
 44
0.5
 73
0
 45
1.0
 46
1.0
 77
1
  4

 78
1
 79
1
170
1
 48
1.0
171
1
  6

172
1
173
1
174
1
140
1.0
141
1.0
175
1
  7

176
1
177
1
178
1
143
1.0
179
1
  8

270
1
271
1
272
1
145
1.0
146
1.0
273
1
  9

274
1
275
1
276
1
 42
1.0
 72
1
  3

 73
1
 74
1
 75
1
 94
63
  0
MLINESTYLE
  5
22
102
{ACAD_REACTORS
330
10
102
}
330
10
100
AcDbMlineStyle
  2
Standard
 70
0
  3

 62
256
 51
90.0
 52
90.0
 71
2
 49
0.5
 62
256
  6
BYLAYER
 49
-0.5
 62
256
  6
BYLAYER
  0
MLEADERSTYLE
  5
2C
102
{ACAD_REACTORS
330
F
102
}
330
F
100
AcDbMLeaderStyle
179
2
170
2
171
1
172
0
 90
2
 40
0.0
 41
0.0
173
1
 91
-1056964608
 92
-2
290
1
 42
2.0
291
1
 43
8.0
  3
Standard
 44
4.0
300

342
29
174
1
175
1
176
0
178
1
 93
-1056964608
 45
4.0
292
0
297
0
 46
4.0
 94
-1056964608
 47
1.0
 49
1.0
140
1.0
294
1
141
0.0
177
0
142
1.0
295
0
296
0
143
3.75
271
0
272
9
273
9
  0
DICTIONARY
  5
2D
330
A
100
AcDbDictionary
280
1
281
1
  3
CREATED_BY_EZDXF
350
2E
  3
WRITTEN_BY_EZDXF
350
51
  0
DICTIONARYVAR
  5
2E
330
2D
100
DictionaryVariables
280
0
  1
1.4.2 @ 2025-12-02T20:22:43.936729+00:00
  0
DICTIONARYVAR
  5
51
330
2D
100
DictionaryVariables
280
0
  1
1.4.2 @ 2025-12-02T20:22:43.954754+00:00
  0
ENDSEC
  0
EOF
