  0
SECTION
  2
HEADER
  9
$ACADVER
  1
AC1024
  9
$ACADMAINTVER
 70
6
  9
$DWGCODEPAGE
  3
ANSI_1252
  9
$LASTSAVEDBY
  1
ezdxf
  9
$INSBASE
 10
0.0
 20
0.0
 30
0.0
  9
$EXTMIN
 10
1e+20
 20
1e+20
 30
1e+20
  9
$EXTMAX
 10
-1e+20
 20
-1e+20
 30
-1e+20
  9
$LIMMIN
 10
0.0
 20
0.0
  9
$LIMMAX
 10
420.0
 20
297.0
  9
$ORTHOMODE
 70
0
  9
$REGENMODE
 70
1
  9
$FILLMODE
 70
1
  9
$QTEXTMODE
 70
0
  9
$MIRRTEXT
 70
1
  9
$LTSCALE
 40
1.0
  9
$ATTMODE
 70
1
  9
$TEXTSIZE
 40
2.5
  9
$TRACEWID
 40
1.0
  9
$TEXTSTYLE
  7
Standard
  9
$CLAYER
  8
0
  9
$CELTYPE
  6
ByLayer
  9
$CECOLOR
 62
256
  9
$CELTSCALE
 40
1.0
  9
$DISPSILH
 70
0
  9
$DIMSCALE
 40
1.0
  9
$DIMASZ
 40
2.5
  9
$DIMEXO
 40
0.625
  9
$DIMDLI
 40
3.75
  9
$DIMRND
 40
0.0
  9
$DIMDLE
 40
0.0
  9
$DIMEXE
 40
1.25
  9
$DIMTP
 40
0.0
  9
$DIMTM
 40
0.0
  9
$DIMTXT
 40
2.5
  9
$DIMCEN
 40
2.5
  9
$DIMTSZ
 40
0.0
  9
$DIMTOL
 70
0
  9
$DIMLIM
 70
0
  9
$DIMTIH
 70
0
  9
$DIMTOH
 70
0
  9
$DIMSE1
 70
0
  9
$DIMSE2
 70
0
  9
$DIMTAD
 70
1
  9
$DIMZIN
 70
8
  9
$DIMBLK
  1

  9
$DIMASO
 70
1
  9
$DIMSHO
 70
1
  9
$DIMPOST
  1

  9
$DIMAPOST
  1

  9
$DIMALT
 70
0
  9
$DIMALTD
 70
3
  9
$DIMALTF
 40
0.03937007874
  9
$DIMLFAC
 40
1.0
  9
$DIMTOFL
 70
1
  9
$DIMTVP
 40
0.0
  9
$DIMTIX
 70
0
  9
$DIMSOXD
 70
0
  9
$DIMSAH
 70
0
  9
$DIMBLK1
  1

  9
$DIMBLK2
  1

  9
$DIMSTYLE
  2
ISO-25
  9
$DIMCLRD
 70
0
  9
$DIMCLRE
 70
0
  9
$DIMCLRT
 70
0
  9
$DIMTFAC
 40
1.0
  9
$DIMGAP
 40
0.625
  9
$DIMJUST
 70
0
  9
$DIMSD1
 70
0
  9
$DIMSD2
 70
0
  9
$DIMTOLJ
 70
0
  9
$DIMTZIN
 70
8
  9
$DIMALTZ
 70
0
  9
$DIMALTTZ
 70
0
  9
$DIMUPT
 70
0
  9
$DIMDEC
 70
2
  9
$DIMTDEC
 70
2
  9
$DIMALTU
 70
2
  9
$DIMALTTD
 70
3
  9
$DIMTXSTY
  7
Standard
  9
$DIMAUNIT
 70
0
  9
$DIMADEC
 70
0
  9
$DIMALTRND
 40
0.0
  9
$DIMAZIN
 70
0
  9
$DIMDSEP
 70
44
  9
$DIMATFIT
 70
3
  9
$DIMFRAC
 70
0
  9
$DIMLDRBLK
  1

  9
$DIMLUNIT
 70
2
  9
$DIMLWD
 70
-2
  9
$DIMLWE
 70
-2
  9
$DIMTMOVE
 70
0
  9
$DIMFXL
 40
1.0
  9
$DIMFXLON
 70
0
  9
$DIMJOGANG
 40
0.785398163397
  9
$DIMTFILL
 70
0
  9
$DIMTFILLCLR
 70
0
  9
$DIMARCSYM
 70
0
  9
$DIMLTYPE
  6

  9
$DIMLTEX1
  6

  9
$DIMLTEX2
  6

  9
$DIMTXTDIRECTION
 70
0
  9
$LUNITS
 70
2
  9
$LUPREC
 70
4
  9
$SKETCHINC
 40
1.0
  9
$FILLETRAD
 40
10.0
  9
$AUNITS
 70
0
  9
$AUPREC
 70
2
  9
$MENU
  1
.
  9
$ELEVATION
 40
0.0
  9
$PELEVATION
 40
0.0
  9
$THICKNESS
 40
0.0
  9
$LIMCHECK
 70
0
  9
$CHAMFERA
 40
0.0
  9
$CHAMFERB
 40
0.0
  9
$CHAMFERC
 40
0.0
  9
$CHAMFERD
 40
0.0
  9
$SKPOLY
 70
0
  9
$TDCREATE
 40
2461012.5475578704
  9
$TDUCREATE
 40
2458532.153996898
  9
$TDUPDATE
 40
2461012.5475578704
  9
$TDUUPDATE
 40
2458532.1544311
  9
$TDINDWG
 40
0.0
  9
$TDUSRTIMER
 40
0.0
  9
$USRTIMER
 70
1
  9
$ANGBASE
 50
0.0
  9
$ANGDIR
 70
0
  9
$PDMODE
 70
0
  9
$PDSIZE
 40
0.0
  9
$PLINEWID
 40
0.0
  9
$SPLFRAME
 70
0
  9
$SPLINETYPE
 70
6
  9
$SPLINESEGS
 70
8
  9
$HANDSEED
  5
5A
  9
$SURFTAB1
 70
6
  9
$SURFTAB2
 70
6
  9
$SURFTYPE
 70
6
  9
$SURFU
 70
6
  9
$SURFV
 70
6
  9
$UCSBASE
  2

  9
$UCSNAME
  2

  9
$UCSORG
 10
0.0
 20
0.0
 30
0.0
  9
$UCSXDIR
 10
1.0
 20
0.0
 30
0.0
  9
$UCSYDIR
 10
0.0
 20
1.0
 30
0.0
  9
$UCSORTHOREF
  2

  9
$UCSORTHOVIEW
 70
0
  9
$UCSORGTOP
 10
0.0
 20
0.0
 30
0.0
  9
$UCSORGBOTTOM
 10
0.0
 20
0.0
 30
0.0
  9
$UCSORGLEFT
 10
0.0
 20
0.0
 30
0.0
  9
$UCSORGRIGHT
 10
0.0
 20
0.0
 30
0.0
  9
$UCSORGFRONT
 10
0.0
 20
0.0
 30
0.0
  9
$UCSORGBACK
 10
0.0
 20
0.0
 30
0.0
  9
$PUCSBASE
  2

  9
$PUCSNAME
  2

  9
$PUCSORG
 10
0.0
 20
0.0
 30
0.0
  9
$PUCSXDIR
 10
1.0
 20
0.0
 30
0.0
  9
$PUCSYDIR
 10
0.0
 20
1.0
 30
0.0
  9
$PUCSORTHOREF
  2

  9
$PUCSORTHOVIEW
 70
0
  9
$PUCSORGTOP
 10
0.0
 20
0.0
 30
0.0
  9
$PUCSORGBOTTOM
 10
0.0
 20
0.0
 30
0.0
  9
$PUCSORGLEFT
 10
0.0
 20
0.0
 30
0.0
  9
$PUCSORGRIGHT
 10
0.0
 20
0.0
 30
0.0
  9
$PUCSORGFRONT
 10
0.0
 20
0.0
 30
0.0
  9
$PUCSORGBACK
 10
0.0
 20
0.0
 30
0.0
  9
$USERI1
 70
0
  9
$USERI2
 70
0
  9
$USERI3
 70
0
  9
$USERI4
 70
0
  9
$USERI5
 70
0
  9
$USERR1
 40
0.0
  9
$USERR2
 40
0.0
  9
$USERR3
 40
0.0
  9
$USERR4
 40
0.0
  9
$USERR5
 40
0.0
  9
$WORLDVIEW
 70
1
  9
$SHADEDGE
 70
3
  9
$SHADEDIF
 70
70
  9
$TILEMODE
 70
1
  9
$MAXACTVP
 70
64
  9
$PINSBASE
 10
0.0
 20
0.0
 30
0.0
  9
$PLIMCHECK
 70
0
  9
$PEXTMIN
 10
1e+20
 20
1e+20
 30
1e+20
  9
$PEXTMAX
 10
-1e+20
 20
-1e+20
 30
-1e+20
  9
$PLIMMIN
 10
0.0
 20
0.0
  9
$PLIMMAX
 10
420.0
 20
297.0
  9
$UNITMODE
 70
0
  9
$VISRETAIN
 70
1
  9
$PLINEGEN
 70
0
  9
$PSLTSCALE
 70
1
  9
$TREEDEPTH
 70
3020
  9
$CMLSTYLE
  2
Standard
  9
$CMLJUST
 70
0
  9
$CMLSCALE
 40
20.0
  9
$PROXYGRAPHICS
 70
1
  9
$MEASUREMENT
 70
1
  9
$CELWEIGHT
370
-1
  9
$ENDCAPS
280
0
  9
$JOINSTYLE
280
0
  9
$LWDISPLAY
290
0
  9
$INSUNITS
 70
6
  9
$HYPERLINKBASE
  1

  9
$STYLESHEET
  1

  9
$XEDIT
290
1
  9
$CEPSNTYPE
380
0
  9
$PSTYLEMODE
290
1
  9
$FINGERPRINTGUID
  2
{8ED834A7-0EEC-4377-BFEF-E0EF856A4330}
  9
$VERSIONGUID
  2
{64D0AD47-3CE1-48A3-82A9-4D3FB74350E5}
  9
$EXTNAMES
290
1
  9
$PSVPSCALE
 40
0.0
  9
$OLESTARTUP
290
0
  9
$SORTENTS
280
127
  9
$INDEXCTL
280
0
  9
$HIDETEXT
280
1
  9
$XCLIPFRAME
280
1
  9
$HALOGAP
280
0
  9
$OBSCOLOR
 70
257
  9
$OBSLTYPE
280
0
  9
$INTERSECTIONDISPLAY
280
0
  9
$INTERSECTIONCOLOR
 70
257
  9
$DIMASSOC
280
2
  9
$PROJECTNAME
  1

  9
$CAMERADISPLAY
290
0
  9
$LENSLENGTH
 40
50.0
  9
$CAMERAHEIGHT
 40
0.0
  9
$STEPSPERSEC
 40
24.0
  9
$STEPSIZE
 40
100.0
  9
$3DDWFPREC
 40
2.0
  9
$PSOLWIDTH
 40
0.005
  9
$PSOLHEIGHT
 40
0.08
  9
$LOFTANG1
 40
1.570796326795
  9
$LOFTANG2
 40
1.570796326795
  9
$LOFTMAG1
 40
0.0
  9
$LOFTMAG2
 40
0.0
  9
$LOFTPARAM
 70
7
  9
$LOFTNORMALS
280
1
  9
$LATITUDE
 40
37.795
  9
$LONGITUDE
 40
-122.394
  9
$NORTHDIRECTION
 40
0.0
  9
$TIMEZONE
 70
-8000
  9
$LIGHTGLYPHDISPLAY
280
1
  9
$TILEMODELIGHTSYNCH
280
1
  9
$CMATERIAL
347
20
  9
$SOLIDHIST
280
0
  9
$SHOWHIST
280
1
  9
$DWFFRAME
280
2
  9
$DGNFRAME
280
2
  9
$REALWORLDSCALE
290
1
  9
$INTERFERECOLOR
 62
256
  9
$CSHADOW
280
0
  9
$SHADOWPLANELOCATION
 40
0.0
  0
ENDSEC
  0
SECTION
  2
CLASSES
  0
CLASS
  1
ACDBDICTIONARYWDFLT
  2
AcDbDictionaryWithDefault
  3
ObjectDBX Classes
 90
0
 91
0
280
0
281
0
  0
CLASS
  1
SUN
  2
AcDbSun
  3
SCENEOE
 90
1153
 91
0
280
0
281
0
  0
CLASS
  1
VISUALSTYLE
  2
AcDbVisualStyle
  3
ObjectDBX Classes
 90
4095
 91
0
280
0
281
0
  0
CLASS
  1
MATERIAL
  2
AcDbMaterial
  3
ObjectDBX Classes
 90
1153
 91
0
280
0
281
0
  0
CLASS
  1
SCALE
  2
AcDbScale
  3
ObjectDBX Classes
 90
1153
 91
0
280
0
281
0
  0
CLASS
  1
TABLESTYLE
  2
AcDbTableStyle
  3
ObjectDBX Classes
 90
4095
 91
0
280
0
281
0
  0
CLASS
  1
MLEADERSTYLE
  2
AcDbMLeaderStyle
  3
ACDB_MLEADERSTYLE_CLASS
 90
4095
 91
0
280
0
281
0
  0
CLASS
  1
DICTIONARYVAR
  2
AcDbDictionaryVar
  3
ObjectDBX Classes
 90
0
 91
0
280
0
281
0
  0
CLASS
  1
CELLSTYLEMAP
  2
AcDbCellStyleMap
  3
ObjectDBX Classes
 90
1152
 91
0
280
0
281
0
  0
CLASS
  1
MENTALRAYRENDERSETTINGS
  2
AcDbMentalRayRenderSettings
  3
SCENEOE
 90
1024
 91
0
280
0
281
0
  0
CLASS
  1
ACDBDETAILVIEWSTYLE
  2
AcDbDetailViewStyle
  3
ObjectDBX Classes
 90
1025
 91
0
280
0
281
0
  0
CLASS
  1
ACDBSECTIONVIEWSTYLE
  2
AcDbSectionViewStyle
  3
ObjectDBX Classes
 90
1025
 91
0
280
0
281
0
  0
CLASS
  1
RASTERVARIABLES
  2
AcDbRasterVariables
  3
ISM
 90
0
 91
0
280
0
281
0
  0
CLASS
  1
ACDBPLACEHOLDER
  2
AcDbPlaceHolder
  3
ObjectDBX Classes
 90
0
 91
0
280
0
281
0
  0
CLASS
  1
LAYOUT
  2
AcDbLayout
  3
ObjectDBX Classes
 90
0
 91
0
280
0
281
0
  0
ENDSEC
  0
SECTION
  2
TABLES
  0
TABLE
  2
VPORT
  5
8
330
0
100
AcDbSymbolTable
 70
1
  0
VPORT
  5
23
330
8
100
AcDbSymbolTableRecord
100
AcDbViewportTableRecord
  2
*Active
 70
0
 10
0.0
 20
0.0
 11
1.0
 21
1.0
 12
0.0
 22
0.0
 13
0.0
 23
0.0
 14
0.5
 24
0.5
 15
0.5
 25
0.5
 16
0.0
 26
0.0
 36
1.0
 17
0.0
 27
0.0
 37
0.0
 40
1000.0
 41
1.34
 42
50.0
 43
0.0
 44
0.0
 50
0.0
 51
0.0
 71
0
 72
1000
 73
1
 74
3
 75
0
 76
0
 77
0
 78
0
281
0
 65
0
146
0.0
  0
ENDTAB
  0
TABLE
  2
LTYPE
  5
2
330
0
100
AcDbSymbolTable
 70
3
  0
LTYPE
  5
24
330
2
100
AcDbSymbolTableRecord
100
AcDbLinetypeTableRecord
  2
ByBlock
 70
0
  3

 72
65
 73
0
 40
0.0
  0
LTYPE
  5
25
330
2
100
AcDbSymbolTableRecord
100
AcDbLinetypeTableRecord
  2
ByLayer
 70
0
  3

 72
65
 73
0
 40
0.0
  0
LTYPE
  5
26
330
2
100
AcDbSymbolTableRecord
100
AcDbLinetypeTableRecord
  2
Continuous
 70
0
  3

 72
65
 73
0
 40
0.0
  0
ENDTAB
  0
TABLE
  2
LAYER
  5
1
330
0
100
AcDbSymbolTable
 70
2
  0
LAYER
  5
27
330
1
100
AcDbSymbolTableRecord
100
AcDbLayerTableRecord
  2
0
 70
0
 62
7
  6
Continuous
370
-3
390
13
347
21
  0
LAYER
  5
28
330
1
100
AcDbSymbolTableRecord
100
AcDbLayerTableRecord
  2
Defpoints
 70
0
 62
7
  6
Continuous
290
0
370
-3
390
13
347
21
  0
ENDTAB
  0
TABLE
  2
STYLE
  5
5
330
0
100
AcDbSymbolTable
 70
1
  0
STYLE
  5
29
330
5
100
AcDbSymbolTableRecord
100
AcDbTextStyleTableRecord
  2
Standard
 70
0
 40
0.0
 41
1.0
 50
0.0
 71
0
 42
2.5
  3
txt
  4

  0
ENDTAB
  0
TABLE
  2
VIEW
  5
7
330
0
100
AcDbSymbolTable
 70
0
  0
ENDTAB
  0
TABLE
  2
UCS
  5
6
330
0
100
AcDbSymbolTable
 70
0
  0
ENDTAB
  0
TABLE
  2
APPID
  5
3
330
0
100
AcDbSymbolTable
 70
3
  0
APPID
  5
2A
330
3
100
AcDbSymbolTableRecord
100
AcDbRegAppTableRecord
  2
ACAD
 70
0
  0
APPID
  5
57
330
3
100
AcDbSymbolTableRecord
100
AcDbRegAppTableRecord
  2
HATCHBACKGROUNDCOLOR
 70
0
  0
APPID
  5
58
330
3
100
AcDbSymbolTableRecord
100
AcDbRegAppTableRecord
  2
EZDXF
 70
0
  0
ENDTAB
  0
TABLE
  2
DIMSTYLE
  5
4
330
0
100
AcDbSymbolTable
 70
1
100
AcDbDimStyleTable
  0
DIMSTYLE
105
2B
330
4
100
AcDbSymbolTableRecord
100
AcDbDimStyleTableRecord
  2
Standard
 70
0
 40
1.0
 41
2.5
 42
0.625
 43
3.75
 44
1.25
 45
0.0
 46
0.0
 47
0.0
 48
0.0
 49
2.5
140
2.5
141
2.5
142
0.0
143
0.03937007874
144
1.0
145
0.0
146
1.0
147
0.625
148
0.0
 69
0
 70
0
 71
0
 72
0
 73
0
 74
0
 75
0
 76
0
 77
1
 78
8
 79
3
170
0
171
3
172
1
173
0
174
0
175
0
176
0
177
0
178
0
179
2
271
2
272
2
273
2
274
3
275
0
276
0
277
2
278
44
279
0
280
0
281
0
282
0
283
0
284
8
285
0
286
0
288
0
289
3
290
0
371
-2
372
-2
  0
ENDTAB
  0
TABLE
  2
BLOCK_RECORD
  5
9
330
0
100
AcDbSymbolTable
 70
2
  0
BLOCK_RECORD
  5
17
330
9
100
AcDbSymbolTableRecord
100
AcDbBlockTableRecord
  2
*Model_Space
340
1A
 70
0
280
1
281
0
  0
BLOCK_RECORD
  5
1B
330
9
100
AcDbSymbolTableRecord
100
AcDbBlockTableRecord
  2
*Paper_Space
340
1E
 70
0
280
1
281
0
  0
ENDTAB
  0
ENDSEC
  0
SECTION
  2
BLOCKS
  0
BLOCK
  5
18
330
17
100
AcDbEntity
  8
0
100
AcDbBlockBegin
  2
*Model_Space
 70
0
 10
0.0
 20
0.0
 30
0.0
  3
*Model_Space
  1

  0
ENDBLK
  5
19
330
17
100
AcDbEntity
  8
0
100
AcDbBlockEnd
  0
BLOCK
  5
1C
330
1B
100
AcDbEntity
  8
0
100
AcDbBlockBegin
  2
*Paper_Space
 70
0
 10
0.0
 20
0.0
 30
0.0
  3
*Paper_Space
  1

  0
ENDBLK
  5
1D
330
1B
100
AcDbEntity
  8
0
100
AcDbBlockEnd
  0
ENDSEC
  0
SECTION
  2
ENTITIES
  0
LWPOLYLINE
  5
2F
330
17
100
AcDbEntity
  8
0
100
AcDbPolyline
 90
5
 70
0
 10
-13.540896440103994
 20
110.74442953681314
 10
213.0748091679606
 20
110.74442953681314
 10
213.0748091679606
 20
34.12872392874854
 10
-13.540896440103994
 20
34.12872392874854
 10
-13.540896440103994
 20
110.74442953681314
  0
LWPOLYLINE
  5
30
330
17
100
AcDbEntity
  8
0
100
AcDbPolyline
 90
47
 70
0
 10
7.902037926191295
 20
54.93657673278085
 10
7.921139685265698
 20
54.74263331819551
 10
7.9211870068406505
 20
54.742395416572926
 10
8.070427292883902
 20
54.38209749395417
 10
8.070534627851396
 20
54.381936855823284
 10
8.346294719248558
 20
54.10617676442299
 10
8.346455357379407
 20
54.106069429455516
 10
8.70675328002165
 20
53.95682914340315
 10
8.706991181644158
 20
53.956781821828216
 10
8.901983723065385
 20
53.937576732780855
 10
10.631936276934614
 20
53.937576732780855
 10
10.82692881835584
 20
53.956781821828216
 10
10.827166719978349
 20
53.95682914340315
 10
11.187464642620592
 20
54.106069429455516
 10
11.18762528075144
 20
54.10617676442299
 10
11.463385372148602
 20
54.381936855823284
 10
11.463492707116096
 20
54.38209749395417
 10
11.61273299315935
 20
54.742395416572926
 10
11.612780314734298
 20
54.74263331819549
 10
11.6318820738087
 20
54.93657673278085
 10
10.632980775646795
 20
54.93657673278085
 10
10.632985403784438
 20
54.9366
 10
10.632985403784438
 20
89.93657673278085
 10
11.631882073808702
 20
89.93657673278085
 10
11.612780314734296
 20
90.13052014736624
 10
11.612732993159353
 20
90.13075804898878
 10
11.463492707121704
 20
90.49105597159917
 10
11.463385372154228
 20
90.49121660973003
 10
11.187625280726268
 20
90.76697670115556
 10
11.18746464259541
 20
90.76708403612302
 10
10.827166720013429
 20
90.91632432215157
 10
10.826928818390796
 20
90.91637164372654
 10
10.63193627693466
 20
90.93557673278086
 10
8.901983723065339
 20
90.93557673278086
 10
8.706991181609203
 20
90.91637164372654
 10
8.70675327998657
 20
90.91632432215157
 10
8.346455357404588
 20
90.76708403612302
 10
8.34629471927373
 20
90.76697670115556
 10
8.07053462784577
 20
90.49121660973003
 10
8.070427292878295
 20
90.49105597159917
 10
7.921187006840646
 20
90.13075804898878
 10
7.9211396852656994
 20
90.13052014736623
 10
7.902037926191294
 20
89.93657673278085
 10
8.90093459621556
 20
89.93657673278085
 10
8.90093459621556
 20
54.9366
 10
8.900939224353204
 20
54.93657673278085
 10
7.902037926191295
 20
54.93657673278085
  0
LWPOLYLINE
  5
31
330
17
100
AcDbEntity
  8
0
100
AcDbPolyline
 90
45
 70
0
 10
21.92113604919489
 20
54.7426333181911
 10
21.921183370769832
 20
54.742395416568556
 10
22.070423656814334
 20
54.38209749395101
 10
22.07053099178181
 20
54.38193685582014
 10
22.34629108317267
 20
54.106176764425804
 10
22.34645172130353
 20
54.10606942945832
 10
22.706749643950843
 20
53.95682914340298
 10
22.706987545573348
 20
53.956781821828045
 10
22.9019800869937
 20
53.937576732780855
 10
24.63193264086294
 20
53.937576732780855
 10
24.82692518228329
 20
53.956781821828045
 10
24.827163083905795
 20
53.95682914340298
 10
25.187461006553107
 20
54.10606942945832
 10
25.18762164468397
 20
54.106176764425804
 10
25.46338173607483
 20
54.38193685582014
 10
25.463489071042304
 20
54.38209749395101
 10
25.612729357086806
 20
54.742395416568556
 10
25.61277667866175
 20
54.7426333181911
 10
25.631878437737022
 20
54.93657673278085
 10
24.632981767712756
 20
54.93657673278085
 10
24.632981767712756
 20
89.93657673278085
 10
25.631878437737022
 20
89.93657673278085
 10
25.61277667866175
 20
90.1305201473706
 10
25.612729357086803
 20
90.13075804899317
 10
25.463489071047942
 20
90.49105597160226
 10
25.463381736080425
 20
90.49121660973319
 10
25.187621644658797
 20
90.76697670115274
 10
25.187461006527926
 20
90.76708403612022
 10
24.827163083940874
 20
90.91632432215175
 10
24.82692518231825
 20
90.91637164372672
 10
24.63193264086298
 20
90.93557673278086
 10
22.901980086993657
 20
90.93557673278086
 10
22.70698754553839
 20
90.91637164372672
 10
22.706749643915764
 20
90.91632432215175
 10
22.346451721328712
 20
90.76708403612022
 10
22.34629108319784
 20
90.76697670115274
 10
22.070530991776213
 20
90.49121660973319
 10
22.070423656808696
 20
90.49105597160226
 10
21.921183370769835
 20
90.13075804899317
 10
21.92113604919489
 20
90.1305201473706
 10
21.902034290119616
 20
89.93657673278085
 10
22.90093096014388
 20
89.93657673278085
 10
22.90093096014388
 20
54.93657673278085
 10
21.902034290119616
 20
54.93657673278085
 10
21.92113604919489
 20
54.7426333181911
  0
LWPOLYLINE
  5
32
330
17
100
AcDbEntity
  8
0
100
AcDbPolyline
 90
45
 70
0
 10
45.902034290119616
 20
54.93657673278085
 10
45.921136049191425
 20
54.74263331820858
 10
45.92118337076636
 20
54.74239541658608
 10
46.070423656818555
 20
54.3820974939447
 10
46.07053099178603
 20
54.38193685581384
 10
46.34629108317687
 20
54.106176764423
 10
46.34645172130773
 20
54.10606942945552
 10
46.70674964394911
 20
53.956829143403326
 10
46.706987545571614
 20
53.95678182182839
 10
46.90198008699371
 20
53.937576732780855
 10
48.631932640862935
 20
53.937576732780855
 10
48.82692518228503
 20
53.95678182182839
 10
48.827163083907536
 20
53.956829143403326
 10
49.187461006548915
 20
54.10606942945552
 10
49.18762164467977
 20
54.106176764423
 10
49.463381736070616
 20
54.38193685581384
 10
49.46348907103809
 20
54.3820974939447
 10
49.61272935709029
 20
54.74239541658608
 10
49.61277667866522
 20
54.74263331820858
 10
49.63187843773703
 20
54.93657673278085
 10
48.632981767712764
 20
54.93657673278085
 10
48.632981767712764
 20
89.93657673278085
 10
49.63187843773703
 20
89.93657673278085
 10
49.61277667866522
 20
90.13052014735312
 10
49.61272935709029
 20
90.13075804897565
 10
49.46348907104372
 20
90.4910559716086
 10
49.46338173607624
 20
90.49121660973947
 10
49.187621644654605
 20
90.76697670115554
 10
49.18746100652372
 20
90.76708403612304
 10
48.82716308394262
 20
90.9163243221514
 10
48.82692518231999
 20
90.91637164372636
 10
48.631932640862985
 20
90.93557673278086
 10
46.90198008699366
 20
90.93557673278086
 10
46.706987545536656
 20
90.91637164372636
 10
46.70674964391402
 20
90.9163243221514
 10
46.346451721332926
 20
90.76708403612304
 10
46.34629108320204
 20
90.76697670115554
 10
46.07053099178041
 20
90.49121660973947
 10
46.07042365681293
 20
90.4910559716086
 10
45.92118337076636
 20
90.13075804897565
 10
45.921136049191425
 20
90.13052014735312
 10
45.902034290119616
 20
89.93657673278085
 10
46.90093096014388
 20
89.93657673278085
 10
46.90093096014388
 20
54.93657673278085
 10
45.902034290119616
 20
54.93657673278085
  0
LWPOLYLINE
  5
33
330
17
100
AcDbEntity
  8
0
100
AcDbPolyline
 90
45
 70
0
 10
59.902034290119616
 20
54.93657673278085
 10
59.921136049191425
 20
54.74263331820858
 10
59.92118337076636
 20
54.74239541658608
 10
60.070423656818555
 20
54.3820974939447
 10
60.07053099178603
 20
54.38193685581384
 10
60.34629108317687
 20
54.106176764423
 10
60.34645172130773
 20
54.10606942945552
 10
60.70674964394911
 20
53.956829143403326
 10
60.706987545571614
 20
53.95678182182839
 10
60.90198008699371
 20
53.937576732780855
 10
62.631932640862935
 20
53.937576732780855
 10
62.82692518228503
 20
53.95678182182839
 10
62.827163083907536
 20
53.956829143403326
 10
63.187461006548915
 20
54.10606942945552
 10
63.18762164467977
 20
54.106176764423
 10
63.463381736070616
 20
54.38193685581384
 10
63.46348907103809
 20
54.3820974939447
 10
63.61272935709029
 20
54.74239541658608
 10
63.61277667866522
 20
54.74263331820858
 10
63.63187843773703
 20
54.93657673278085
 10
62.632981767712764
 20
54.93657673278085
 10
62.632981767712764
 20
89.93657673278085
 10
63.63187843773703
 20
89.93657673278085
 10
63.61277667866522
 20
90.13052014735312
 10
63.61272935709029
 20
90.13075804897565
 10
63.46348907104372
 20
90.4910559716086
 10
63.46338173607624
 20
90.49121660973947
 10
63.187621644654605
 20
90.76697670115554
 10
63.18746100652372
 20
90.76708403612304
 10
62.82716308394262
 20
90.9163243221514
 10
62.82692518231999
 20
90.91637164372636
 10
62.631932640862985
 20
90.93557673278086
 10
60.90198008699366
 20
90.93557673278086
 10
60.706987545536656
 20
90.91637164372636
 10
60.70674964391402
 20
90.9163243221514
 10
60.346451721332926
 20
90.76708403612304
 10
60.34629108320204
 20
90.76697670115554
 10
60.07053099178041
 20
90.49121660973947
 10
60.07042365681293
 20
90.4910559716086
 10
59.92118337076636
 20
90.13075804897565
 10
59.921136049191425
 20
90.13052014735312
 10
59.902034290119616
 20
89.93657673278085
 10
60.90093096014388
 20
89.93657673278085
 10
60.90093096014388
 20
54.93657673278085
 10
59.902034290119616
 20
54.93657673278085
  0
LWPOLYLINE
  5
34
330
17
100
AcDbEntity
  8
0
100
AcDbPolyline
 90
45
 70
0
 10
99.9020342901196
 20
54.93657673278085
 10
99.92113604919835
 20
54.742633318173624
 10
99.92118337077332
 20
54.74239541655099
 10
100.07042365680168
 20
54.382097493969894
 10
100.07053099176917
 20
54.38193685583901
 10
100.34629108318525
 20
54.10617676441738
 10
100.34645172131611
 20
54.106069429449896
 10
100.70674964394907
 20
53.956829143403326
 10
100.7069875455716
 20
53.95678182182839
 10
100.90198008699367
 20
53.937576732780855
 10
102.63193264086293
 20
53.937576732780855
 10
102.82692518228501
 20
53.95678182182839
 10
102.82716308390754
 20
53.956829143403326
 10
103.18746100654049
 20
54.106069429449896
 10
103.18762164467135
 20
54.10617676441738
 10
103.46338173608743
 20
54.38193685583901
 10
103.46348907105492
 20
54.382097493969894
 10
103.61272935708328
 20
54.74239541655099
 10
103.61277667865825
 20
54.742633318173624
 10
103.631878437737
 20
54.93657673278085
 10
102.63298176771274
 20
54.93657673278085
 10
102.63298176771274
 20
89.93657673278085
 10
103.631878437737
 20
89.93657673278085
 10
103.61277667865825
 20
90.1305201473881
 10
103.61272935708328
 20
90.13075804901072
 10
103.46348907106054
 20
90.49105597158339
 10
103.46338173609305
 20
90.49121660971427
 10
103.18762164464616
 20
90.76697670116117
 10
103.18746100651528
 20
90.76708403612865
 10
102.82716308394261
 20
90.9163243221514
 10
102.82692518231998
 20
90.91637164372636
 10
102.63193264086296
 20
90.93557673278086
 10
100.90198008699365
 20
90.93557673278086
 10
100.70698754553662
 20
90.91637164372636
 10
100.706749643914
 20
90.9163243221514
 10
100.34645172134132
 20
90.76708403612865
 10
100.34629108321045
 20
90.76697670116117
 10
100.07053099176355
 20
90.49121660971427
 10
100.07042365679607
 20
90.49105597158339
 10
99.92118337077332
 20
90.13075804901072
 10
99.92113604919835
 20
90.1305201473881
 10
99.9020342901196
 20
89.93657673278085
 10
100.90093096014387
 20
89.93657673278085
 10
100.90093096014387
 20
54.93657673278085
 10
99.9020342901196
 20
54.93657673278085
  0
LWPOLYLINE
  5
35
330
17
100
AcDbEntity
  8
0
100
AcDbPolyline
 90
17
 70
0
 10
0.5347233168946808
 20
44.66880977981448
 10
1.0766551952065289
 20
45.479868151868125
 10
1.266956363928312
 20
46.43657673278085
 10
1.076655195206528
 20
47.393285313693575
 10
0.5347233168946803
 20
48.20434368574722
 10
-0.27633505515896306
 20
48.74627556405907
 10
-1.2330436360716885
 20
48.93657673278085
 10
-2.189752216984414
 20
48.74627556405907
 10
-3.0008105890380574
 20
48.20434368574722
 10
-3.542742467349905
 20
47.393285313693575
 10
-3.733043636071688
 20
46.43657673278085
 10
-3.542742467349905
 20
45.479868151868125
 10
-3.000810589038057
 20
44.66880977981448
 10
-2.189752216984412
 20
44.12687790150263
 10
-1.2330436360716879
 20
43.93657673278085
 10
-0.2763350551589635
 20
44.12687790150263
 10
0.5347233168946808
 20
44.66880977981448
  0
LWPOLYLINE
  5
36
330
17
100
AcDbEntity
  8
0
100
AcDbPolyline
 90
17
 70
0
 10
202.53472331689466
 20
44.66880977981448
 10
203.0766551952065
 20
45.479868151868125
 10
203.2669563639283
 20
46.43657673278085
 10
203.0766551952065
 20
47.393285313693575
 10
202.53472331689466
 20
48.20434368574722
 10
201.72366494484103
 20
48.74627556405907
 10
200.7669563639283
 20
48.93657673278085
 10
199.81024778301557
 20
48.74627556405907
 10
198.99918941096192
 20
48.20434368574722
 10
198.4572575326501
 20
47.393285313693575
 10
198.2669563639283
 20
46.43657673278085
 10
198.4572575326501
 20
45.479868151868125
 10
198.99918941096195
 20
44.66880977981448
 10
199.81024778301557
 20
44.12687790150263
 10
200.7669563639283
 20
43.93657673278085
 10
201.72366494484103
 20
44.12687790150263
 10
202.53472331689466
 20
44.66880977981448
  0
LWPOLYLINE
  5
37
330
17
100
AcDbEntity
  8
0
100
AcDbPolyline
 90
17
 70
0
 10
0.5347233168946808
 20
96.66880977981448
 10
1.0766551952065289
 20
97.47986815186813
 10
1.266956363928312
 20
98.43657673278085
 10
1.076655195206528
 20
99.39328531369358
 10
0.5347233168946803
 20
100.20434368574722
 10
-0.27633505515896306
 20
100.74627556405906
 10
-1.2330436360716885
 20
100.93657673278085
 10
-2.189752216984414
 20
100.74627556405906
 10
-3.0008105890380574
 20
100.20434368574722
 10
-3.542742467349905
 20
99.39328531369357
 10
-3.733043636071688
 20
98.43657673278085
 10
-3.542742467349905
 20
97.47986815186813
 10
-3.000810589038057
 20
96.66880977981448
 10
-2.189752216984412
 20
96.12687790150264
 10
-1.2330436360716879
 20
95.93657673278085
 10
-0.2763350551589635
 20
96.12687790150264
 10
0.5347233168946808
 20
96.66880977981448
  0
LWPOLYLINE
  5
38
330
17
100
AcDbEntity
  8
0
100
AcDbPolyline
 90
17
 70
0
 10
202.53472331689466
 20
96.66880977981448
 10
203.0766551952065
 20
97.47986815186813
 10
203.2669563639283
 20
98.43657673278085
 10
203.0766551952065
 20
99.39328531369358
 10
202.53472331689466
 20
100.20434368574722
 10
201.72366494484103
 20
100.74627556405906
 10
200.7669563639283
 20
100.93657673278085
 10
199.81024778301557
 20
100.74627556405906
 10
198.99918941096192
 20
100.20434368574722
 10
198.4572575326501
 20
99.39328531369357
 10
198.2669563639283
 20
98.43657673278085
 10
198.4572575326501
 20
97.47986815186813
 10
198.99918941096195
 20
96.66880977981448
 10
199.81024778301557
 20
96.12687790150264
 10
200.7669563639283
 20
95.93657673278085
 10
201.72366494484103
 20
96.12687790150264
 10
202.53472331689466
 20
96.66880977981448
  0
LWPOLYLINE
  5
39
330
17
100
AcDbEntity
  8
0
100
AcDbPolyline
 90
11
 70
0
 10
11.344886051428311
 20
46.52954548278085
 10
10.610511051428311
 20
44.42720173278085
 10
9.882386051428313
 20
46.52954548278085
 10
9.408948551428313
 20
46.52954548278085
 10
10.393323551428313
 20
43.93188923278085
 10
10.140854801428311
 20
43.40579548278085
 10
9.699042301428314
 20
43.32563923278085
 10
9.842839176428313
 20
42.88908454528085
 10
10.503667301428314
 20
43.22204548278085
 10
11.784729801428313
 20
46.52954548278085
 10
11.344886051428311
 20
46.52954548278085
  0
LWPOLYLINE
  5
3A
330
17
100
AcDbEntity
  8
0
100
AcDbPolyline
 90
15
 70
0
 10
8.036468082678311
 20
46.21813923278085
 10
8.45521808267831
 20
46.02523298278085
 10
8.532874332678311
 20
45.58188923278085
 10
7.0422493326783115
 20
45.22095173278085
 10
6.764936832678312
 20
44.37879548278085
 10
7.304655582678312
 20
43.91135798278085
 10
8.282905582678312
 20
44.05126423278085
 10
8.569593082678313
 20
44.25610798278085
 10
8.657093082678312
 20
43.93657673278085
 10
9.116468082678313
 20
43.93657673278085
 10
8.926038395178312
 20
46.11697517028085
 10
8.424749332678312
 20
46.53813923278085
 10
7.385218082678312
 20
46.49595173278085
 10
6.8039680826783115
 20
45.78970173278085
 10
8.036468082678311
 20
46.21813923278085
  0
LWPOLYLINE
  5
3B
330
17
100
AcDbEntity
  8
0
100
AcDbPolyline
 90
14
 70
0
 10
13.324386051428313
 20
46.58460017028085
 10
12.417503238928312
 20
46.29514704528085
 10
12.014659488928313
 20
45.33879548278085
 10
12.344886051428313
 20
44.22798298278085
 10
13.335932926428313
 20
43.88017829528085
 10
14.234143863928313
 20
44.36216267028085
 10
14.387073551428312
 20
44.71548298278085
 10
13.933167301428313
 20
44.77173298278085
 10
13.553089176428312
 20
44.30171735778085
 10
12.951526676428312
 20
44.29634235778085
 10
12.472753238928313
 20
45.03748298278085
 10
14.399573551428313
 20
45.12095173278085
 10
14.072229801428312
 20
46.23423298278085
 10
13.324386051428313
 20
46.58460017028085
  0
LWPOLYLINE
  5
3C
330
17
100
AcDbEntity
  8
0
100
AcDbPolyline
 90
10
 70
0
 10
15.496116520178314
 20
45.91926423278085
 10
16.191272770178312
 20
46.03892048278085
 10
16.342835270178313
 20
46.44673298278085
 10
15.772272770178311
 20
46.57401423278085
 10
15.389241520178315
 20
46.23935798278085
 10
15.329554020178312
 20
46.52954548278085
 10
14.934241520178313
 20
46.52954548278085
 10
14.934241520178313
 20
43.93657673278085
 10
15.373304020178313
 20
43.93657673278085
 10
15.496116520178314
 20
45.91926423278085
  0
LWPOLYLINE
  5
3D
330
17
100
AcDbEntity
  8
0
100
AcDbPolyline
 90
7
 70
0
 10
6.369300113928312
 20
44.35923298278085
 10
4.606800113928312
 20
44.35923298278085
 10
4.606800113928312
 20
47.51548298278085
 10
4.133362613928312
 20
47.51548298278085
 10
4.133362613928312
 20
43.93657673278085
 10
6.369300113928312
 20
43.93657673278085
 10
6.369300113928312
 20
44.35923298278085
  0
LWPOLYLINE
  5
3E
330
17
100
AcDbEntity
  8
0
100
AcDbPolyline
 90
7
 70
0
 10
19.525940738928313
 20
43.93657673278085
 10
19.525940738928313
 20
47.53032673278085
 10
18.207971988928314
 20
46.63188923278085
 10
18.207971988928314
 20
46.20688923278085
 10
18.944128238928315
 20
46.61582673278085
 10
19.086878238928314
 20
43.93657673278085
 10
19.525940738928313
 20
43.93657673278085
  0
LWPOLYLINE
  5
3F
330
17
100
AcDbEntity
  8
0
100
AcDbPolyline
 90
45
 70
0
 10
113.9020342901196
 20
54.93657673278085
 10
113.92113604919835
 20
54.742633318173624
 10
113.92118337077332
 20
54.74239541655099
 10
114.07042365680168
 20
54.382097493969894
 10
114.07053099176917
 20
54.38193685583901
 10
114.34629108318525
 20
54.10617676441738
 10
114.34645172131611
 20
54.106069429449896
 10
114.70674964394907
 20
53.956829143403326
 10
114.7069875455716
 20
53.95678182182839
 10
114.90198008699367
 20
53.937576732780855
 10
116.63193264086293
 20
53.937576732780855
 10
116.82692518228501
 20
53.95678182182839
 10
116.82716308390754
 20
53.956829143403326
 10
117.18746100654049
 20
54.106069429449896
 10
117.18762164467135
 20
54.10617676441738
 10
117.46338173608743
 20
54.38193685583901
 10
117.46348907105492
 20
54.382097493969894
 10
117.61272935708328
 20
54.74239541655099
 10
117.61277667865825
 20
54.742633318173624
 10
117.631878437737
 20
54.93657673278085
 10
116.63298176771274
 20
54.93657673278085
 10
116.63298176771274
 20
89.93657673278085
 10
117.631878437737
 20
89.93657673278085
 10
117.61277667865825
 20
90.1305201473881
 10
117.61272935708328
 20
90.13075804901072
 10
117.46348907106054
 20
90.49105597158339
 10
117.46338173609305
 20
90.49121660971427
 10
117.18762164464616
 20
90.76697670116117
 10
117.18746100651528
 20
90.76708403612865
 10
116.82716308394261
 20
90.9163243221514
 10
116.82692518231998
 20
90.91637164372636
 10
116.63193264086296
 20
90.93557673278086
 10
114.90198008699365
 20
90.93557673278086
 10
114.70698754553662
 20
90.91637164372636
 10
114.706749643914
 20
90.9163243221514
 10
114.34645172134132
 20
90.76708403612865
 10
114.34629108321045
 20
90.76697670116117
 10
114.07053099176355
 20
90.49121660971427
 10
114.07042365679607
 20
90.49105597158339
 10
113.92118337077332
 20
90.13075804901072
 10
113.92113604919835
 20
90.1305201473881
 10
113.9020342901196
 20
89.93657673278085
 10
114.90093096014387
 20
89.93657673278085
 10
114.90093096014387
 20
54.93657673278085
 10
113.9020342901196
 20
54.93657673278085
  0
LWPOLYLINE
  5
40
330
17
100
AcDbEntity
  8
0
100
AcDbPolyline
 90
45
 70
0
 10
163.9020342901196
 20
54.93657673278085
 10
163.9211360491983
 20
54.742633318173766
 10
163.9211833707733
 20
54.74239541655099
 10
164.0704236568017
 20
54.382097493969894
 10
164.0705309917692
 20
54.38193685583898
 10
164.34629108316838
 20
54.10617676442867
 10
164.3464517212993
 20
54.10606942946113
 10
164.70674964395607
 20
53.95682914340193
 10
164.70698754557853
 20
53.95678182182701
 10
164.9019800869937
 20
53.937576732780855
 10
166.6319326408629
 20
53.937576732780855
 10
166.82692518227807
 20
53.95678182182701
 10
166.82716308390053
 20
53.95682914340193
 10
167.1874610065573
 20
54.10606942946113
 10
167.18762164468822
 20
54.10617676442867
 10
167.4633817360874
 20
54.38193685583898
 10
167.4634890710549
 20
54.382097493969894
 10
167.6127293570833
 20
54.74239541655099
 10
167.6127766786583
 20
54.742633318173766
 10
167.63187843773702
 20
54.93657673278085
 10
166.63298176771275
 20
54.93657673278085
 10
166.63298176771275
 20
89.93657673278085
 10
167.63187843773702
 20
89.93657673278085
 10
167.6127766786583
 20
90.13052014738795
 10
167.6127293570833
 20
90.13075804901072
 10
167.4634890710605
 20
90.49105597158345
 10
167.46338173609305
 20
90.49121660971427
 10
167.18762164466304
 20
90.7669767011499
 10
167.18746100653212
 20
90.76708403611741
 10
166.82716308393563
 20
90.9163243221528
 10
166.82692518231306
 20
90.91637164372776
 10
166.63193264086297
 20
90.93557673278086
 10
164.90198008699363
 20
90.93557673278086
 10
164.70698754554354
 20
90.91637164372776
 10
164.70674964392097
 20
90.9163243221528
 10
164.34645172132448
 20
90.76708403611741
 10
164.34629108319356
 20
90.7669767011499
 10
164.07053099176355
 20
90.49121660971427
 10
164.0704236567961
 20
90.49105597158345
 10
163.9211833707733
 20
90.13075804901072
 10
163.9211360491983
 20
90.13052014738795
 10
163.9020342901196
 20
89.93657673278085
 10
164.90093096014385
 20
89.93657673278085
 10
164.90093096014385
 20
54.93657673278085
 10
163.9020342901196
 20
54.93657673278085
  0
LWPOLYLINE
  5
41
330
17
100
AcDbEntity
  8
0
100
AcDbPolyline
 90
45
 70
0
 10
177.9020342901196
 20
54.93657673278085
 10
177.9211360491983
 20
54.742633318173766
 10
177.9211833707733
 20
54.74239541655099
 10
178.0704236568017
 20
54.382097493969894
 10
178.0705309917692
 20
54.38193685583898
 10
178.34629108316838
 20
54.10617676442867
 10
178.3464517212993
 20
54.10606942946113
 10
178.70674964395607
 20
53.95682914340193
 10
178.70698754557853
 20
53.95678182182701
 10
178.9019800869937
 20
53.937576732780855
 10
180.6319326408629
 20
53.937576732780855
 10
180.82692518227807
 20
53.95678182182701
 10
180.82716308390053
 20
53.95682914340193
 10
181.1874610065573
 20
54.10606942946113
 10
181.18762164468822
 20
54.10617676442867
 10
181.4633817360874
 20
54.38193685583898
 10
181.4634890710549
 20
54.382097493969894
 10
181.6127293570833
 20
54.74239541655099
 10
181.6127766786583
 20
54.742633318173766
 10
181.63187843773702
 20
54.93657673278085
 10
180.63298176771275
 20
54.93657673278085
 10
180.63298176771275
 20
89.93657673278085
 10
181.63187843773702
 20
89.93657673278085
 10
181.6127766786583
 20
90.13052014738795
 10
181.6127293570833
 20
90.13075804901072
 10
181.4634890710605
 20
90.49105597158345
 10
181.46338173609305
 20
90.49121660971427
 10
181.18762164466304
 20
90.7669767011499
 10
181.18746100653212
 20
90.76708403611741
 10
180.82716308393563
 20
90.9163243221528
 10
180.82692518231306
 20
90.91637164372776
 10
180.63193264086297
 20
90.93557673278086
 10
178.90198008699363
 20
90.93557673278086
 10
178.70698754554354
 20
90.91637164372776
 10
178.70674964392097
 20
90.9163243221528
 10
178.34645172132448
 20
90.76708403611741
 10
178.34629108319356
 20
90.7669767011499
 10
178.07053099176355
 20
90.49121660971427
 10
178.0704236567961
 20
90.49105597158345
 10
177.9211833707733
 20
90.13075804901072
 10
177.9211360491983
 20
90.13052014738795
 10
177.9020342901196
 20
89.93657673278085
 10
178.90093096014385
 20
89.93657673278085
 10
178.90093096014385
 20
54.93657673278085
 10
177.9020342901196
 20
54.93657673278085
  0
LWPOLYLINE
  5
42
330
17
100
AcDbEntity
  8
0
100
AcDbPolyline
 90
45
 70
0
 10
187.9020342901196
 20
54.93657673278085
 10
187.9211360491983
 20
54.742633318173766
 10
187.9211833707733
 20
54.74239541655099
 10
188.0704236568017
 20
54.382097493969894
 10
188.0705309917692
 20
54.38193685583898
 10
188.34629108316838
 20
54.10617676442867
 10
188.3464517212993
 20
54.10606942946113
 10
188.70674964395607
 20
53.95682914340193
 10
188.70698754557853
 20
53.95678182182701
 10
188.9019800869937
 20
53.937576732780855
 10
190.6319326408629
 20
53.937576732780855
 10
190.82692518227807
 20
53.95678182182701
 10
190.82716308390053
 20
53.95682914340193
 10
191.1874610065573
 20
54.10606942946113
 10
191.18762164468822
 20
54.10617676442867
 10
191.4633817360874
 20
54.38193685583898
 10
191.4634890710549
 20
54.382097493969894
 10
191.6127293570833
 20
54.74239541655099
 10
191.6127766786583
 20
54.742633318173766
 10
191.63187843773702
 20
54.93657673278085
 10
190.63298176771275
 20
54.93657673278085
 10
190.63298176771275
 20
89.93657673278085
 10
191.63187843773702
 20
89.93657673278085
 10
191.6127766786583
 20
90.13052014738795
 10
191.6127293570833
 20
90.13075804901072
 10
191.4634890710605
 20
90.49105597158345
 10
191.46338173609305
 20
90.49121660971427
 10
191.18762164466304
 20
90.7669767011499
 10
191.18746100653212
 20
90.76708403611741
 10
190.82716308393563
 20
90.9163243221528
 10
190.82692518231306
 20
90.91637164372776
 10
190.63193264086297
 20
90.93557673278086
 10
188.90198008699363
 20
90.93557673278086
 10
188.70698754554354
 20
90.91637164372776
 10
188.70674964392097
 20
90.9163243221528
 10
188.34645172132448
 20
90.76708403611741
 10
188.34629108319356
 20
90.7669767011499
 10
188.07053099176355
 20
90.49121660971427
 10
188.0704236567961
 20
90.49105597158345
 10
187.9211833707733
 20
90.13075804901072
 10
187.9211360491983
 20
90.13052014738795
 10
187.9020342901196
 20
89.93657673278085
 10
188.90093096014385
 20
89.93657673278085
 10
188.90093096014385
 20
54.93657673278085
 10
187.9020342901196
 20
54.93657673278085
  0
LWPOLYLINE
  5
43
330
17
100
AcDbEntity
  8
0
100
AcDbPolyline
 90
5
 70
0
 10
444.6905147760252
 20
110.74442953681314
 10
444.6905147760252
 20
34.12872392874854
 10
218.0748091679606
 20
34.12872392874854
 10
218.0748091679606
 20
110.74442953681314
 10
444.6905147760252
 20
110.74442953681314
  0
LWPOLYLINE
  5
44
330
17
100
AcDbEntity
  8
0
100
AcDbPolyline
 90
47
 70
0
 10
423.24758040972995
 20
89.93657673278085
 10
423.2284786506555
 20
90.13052014736623
 10
423.2284313290806
 20
90.13075804898878
 10
423.0791910430429
 20
90.49105597159917
 10
423.0790837080755
 20
90.49121660973003
 10
422.8033236166475
 20
90.76697670115556
 10
422.80316297851664
 20
90.76708403612302
 10
422.44286505593465
 20
90.91632432215157
 10
422.442627154312
 20
90.91637164372654
 10
422.2476346128559
 20
90.93557673278086
 10
420.51768205898657
 20
90.93557673278086
 10
420.3226895175304
 20
90.91637164372654
 10
420.32245161590777
 20
90.91632432215157
 10
419.96215369332583
 20
90.76708403612302
 10
419.96199305519497
 20
90.76697670115556
 10
419.686232963767
 20
90.49121660973003
 10
419.6861256287995
 20
90.49105597159917
 10
419.5368853427619
 20
90.13075804898878
 10
419.5368380211869
 20
90.13052014736624
 10
419.5177362621125
 20
89.93657673278085
 10
420.51663293213676
 20
89.93657673278085
 10
420.51663293213676
 20
54.9366
 10
420.51663756027443
 20
54.93657673278085
 10
419.5177362621125
 20
54.93657673278085
 10
419.5368380211869
 20
54.74263331819549
 10
419.5368853427619
 20
54.742395416572926
 10
419.68612562880514
 20
54.38209749395417
 10
419.6862329637726
 20
54.381936855823284
 10
419.9619930551698
 20
54.10617676442299
 10
419.96215369330065
 20
54.106069429455516
 10
420.3224516159429
 20
53.95682914340315
 10
420.3226895175654
 20
53.956781821828216
 10
420.5176820589866
 20
53.937576732780855
 10
422.24763461285585
 20
53.937576732780855
 10
422.44262715427703
 20
53.956781821828216
 10
422.4428650558996
 20
53.95682914340315
 10
422.8031629785418
 20
54.106069429455516
 10
422.8033236166727
 20
54.10617676442299
 10
423.07908370806985
 20
54.381936855823284
 10
423.0791910430373
 20
54.38209749395417
 10
423.2284313290806
 20
54.742395416572926
 10
423.2284786506555
 20
54.74263331819551
 10
423.24758040972995
 20
54.93657673278085
 10
422.24867911156804
 20
54.93657673278085
 10
422.24868373970565
 20
54.9366
 10
422.24868373970565
 20
89.93657673278085
 10
423.24758040972995
 20
89.93657673278085
  0
LWPOLYLINE
  5
45
330
17
100
AcDbEntity
  8
0
100
AcDbPolyline
 90
45
 70
0
 10
409.2475840458016
 20
89.93657673278085
 10
409.2284822867263
 20
90.1305201473706
 10
409.2284349651514
 20
90.13075804899317
 10
409.0791946791125
 20
90.49105597160226
 10
409.079087344145
 20
90.49121660973319
 10
408.80332725272336
 20
90.76697670115274
 10
408.8031666145925
 20
90.76708403612022
 10
408.44286869200545
 20
90.91632432215175
 10
408.44263079038285
 20
90.91637164372672
 10
408.24763824892756
 20
90.93557673278086
 10
406.5176856950582
 20
90.93557673278086
 10
406.322693153603
 20
90.91637164372672
 10
406.32245525198033
 20
90.91632432215175
 10
405.9621573293933
 20
90.76708403612022
 10
405.9619966912624
 20
90.76697670115274
 10
405.6862365998408
 20
90.49121660973319
 10
405.6861292648733
 20
90.49105597160226
 10
405.53688897883444
 20
90.13075804899317
 10
405.53684165725946
 20
90.1305201473706
 10
405.5177398981842
 20
89.93657673278085
 10
406.51663656820847
 20
89.93657673278085
 10
406.51663656820847
 20
54.93657673278085
 10
405.5177398981842
 20
54.93657673278085
 10
405.53684165725946
 20
54.7426333181911
 10
405.53688897883444
 20
54.742395416568556
 10
405.6861292648789
 20
54.38209749395101
 10
405.6862365998464
 20
54.38193685582014
 10
405.96199669123723
 20
54.106176764425804
 10
405.9621573293681
 20
54.10606942945832
 10
406.3224552520154
 20
53.95682914340298
 10
406.32269315363794
 20
53.956781821828045
 10
406.5176856950583
 20
53.937576732780855
 10
408.2476382489275
 20
53.937576732780855
 10
408.4426307903479
 20
53.956781821828045
 10
408.4428686919704
 20
53.95682914340298
 10
408.8031666146177
 20
54.10606942945832
 10
408.80332725274855
 20
54.106176764425804
 10
409.0790873441394
 20
54.38193685582014
 10
409.0791946791069
 20
54.38209749395101
 10
409.2284349651514
 20
54.742395416568556
 10
409.2284822867263
 20
54.7426333181911
 10
409.2475840458016
 20
54.93657673278085
 10
408.2486873757773
 20
54.93657673278085
 10
408.2486873757773
 20
89.93657673278085
 10
409.2475840458016
 20
89.93657673278085
  0
LWPOLYLINE
  5
46
330
17
100
AcDbEntity
  8
0
100
AcDbPolyline
 90
45
 70
0
 10
385.2284822867298
 20
90.13052014735312
 10
385.22843496515486
 20
90.13075804897565
 10
385.0791946791083
 20
90.4910559716086
 10
385.0790873441408
 20
90.49121660973947
 10
384.80332725271916
 20
90.76697670115554
 10
384.8031666145883
 20
90.76708403612304
 10
384.4428686920072
 20
90.9163243221514
 10
384.44263079038456
 20
90.91637164372636
 10
384.24763824892756
 20
90.93557673278086
 10
382.5176856950582
 20
90.93557673278086
 10
382.3226931536012
 20
90.91637164372636
 10
382.32245525197857
 20
90.9163243221514
 10
381.9621573293975
 20
90.76708403612304
 10
381.9619966912666
 20
90.76697670115554
 10
381.68623659984496
 20
90.49121660973947
 10
381.6861292648775
 20
90.4910559716086
 10
381.5368889788309
 20
90.13075804897565
 10
381.536841657256
 20
90.13052014735312
 10
381.5177398981842
 20
89.93657673278085
 10
382.51663656820847
 20
89.93657673278085
 10
382.51663656820847
 20
54.93657673278085
 10
381.5177398981842
 20
54.93657673278085
 10
381.536841657256
 20
54.74263331820858
 10
381.5368889788309
 20
54.74239541658608
 10
381.6861292648831
 20
54.3820974939447
 10
381.6862365998506
 20
54.38193685581384
 10
381.96199669124144
 20
54.106176764423
 10
381.9621573293723
 20
54.10606942945552
 10
382.3224552520137
 20
53.956829143403326
 10
382.3226931536362
 20
53.95678182182839
 10
382.5176856950583
 20
53.937576732780855
 10
384.2476382489275
 20
53.937576732780855
 10
384.4426307903496
 20
53.95678182182839
 10
384.4428686919721
 20
53.956829143403326
 10
384.8031666146135
 20
54.10606942945552
 10
384.80332725274434
 20
54.106176764423
 10
385.0790873441352
 20
54.38193685581384
 10
385.07919467910267
 20
54.3820974939447
 10
385.22843496515486
 20
54.74239541658608
 10
385.2284822867298
 20
54.74263331820858
 10
385.2475840458016
 20
54.93657673278085
 10
384.2486873757773
 20
54.93657673278085
 10
384.2486873757773
 20
89.93657673278085
 10
385.2475840458016
 20
89.93657673278085
 10
385.2284822867298
 20
90.13052014735312
  0
LWPOLYLINE
  5
47
330
17
100
AcDbEntity
  8
0
100
AcDbPolyline
 90
45
 70
0
 10
371.2284822867298
 20
90.13052014735312
 10
371.22843496515486
 20
90.13075804897565
 10
371.0791946791083
 20
90.4910559716086
 10
371.0790873441408
 20
90.49121660973947
 10
370.80332725271916
 20
90.76697670115554
 10
370.8031666145883
 20
90.76708403612304
 10
370.4428686920072
 20
90.9163243221514
 10
370.44263079038456
 20
90.91637164372636
 10
370.24763824892756
 20
90.93557673278086
 10
368.5176856950582
 20
90.93557673278086
 10
368.3226931536012
 20
90.91637164372636
 10
368.32245525197857
 20
90.9163243221514
 10
367.9621573293975
 20
90.76708403612304
 10
367.9619966912666
 20
90.76697670115554
 10
367.68623659984496
 20
90.49121660973947
 10
367.6861292648775
 20
90.4910559716086
 10
367.5368889788309
 20
90.13075804897565
 10
367.536841657256
 20
90.13052014735312
 10
367.5177398981842
 20
89.93657673278085
 10
368.51663656820847
 20
89.93657673278085
 10
368.51663656820847
 20
54.93657673278085
 10
367.5177398981842
 20
54.93657673278085
 10
367.536841657256
 20
54.74263331820858
 10
367.5368889788309
 20
54.74239541658608
 10
367.6861292648831
 20
54.3820974939447
 10
367.6862365998506
 20
54.38193685581384
 10
367.96199669124144
 20
54.106176764423
 10
367.9621573293723
 20
54.10606942945552
 10
368.3224552520137
 20
53.956829143403326
 10
368.3226931536362
 20
53.95678182182839
 10
368.5176856950583
 20
53.937576732780855
 10
370.2476382489275
 20
53.937576732780855
 10
370.4426307903496
 20
53.95678182182839
 10
370.4428686919721
 20
53.956829143403326
 10
370.8031666146135
 20
54.10606942945552
 10
370.80332725274434
 20
54.106176764423
 10
371.0790873441352
 20
54.38193685581384
 10
371.07919467910267
 20
54.3820974939447
 10
371.22843496515486
 20
54.74239541658608
 10
371.2284822867298
 20
54.74263331820858
 10
371.2475840458016
 20
54.93657673278085
 10
370.2486873757773
 20
54.93657673278085
 10
370.2486873757773
 20
89.93657673278085
 10
371.2475840458016
 20
89.93657673278085
 10
371.2284822867298
 20
90.13052014735312
  0
LWPOLYLINE
  5
48
330
17
100
AcDbEntity
  8
0
100
AcDbPolyline
 90
45
 70
0
 10
331.22848228672285
 20
90.1305201473881
 10
331.2284349651479
 20
90.13075804901072
 10
331.0791946791252
 20
90.49105597158339
 10
331.07908734415764
 20
90.49121660971427
 10
330.8033272527108
 20
90.76697670116117
 10
330.8031666145799
 20
90.76708403612865
 10
330.4428686920072
 20
90.9163243221514
 10
330.4426307903846
 20
90.91637164372636
 10
330.24763824892756
 20
90.93557673278086
 10
328.5176856950583
 20
90.93557673278086
 10
328.3226931536012
 20
90.91637164372636
 10
328.3224552519786
 20
90.9163243221514
 10
327.96215732940595
 20
90.76708403612865
 10
327.9619966912751
 20
90.76697670116117
 10
327.68623659982813
 20
90.49121660971427
 10
327.6861292648607
 20
90.49105597158339
 10
327.53688897883796
 20
90.13075804901072
 10
327.536841657263
 20
90.1305201473881
 10
327.51773989818423
 20
89.93657673278085
 10
328.51663656820847
 20
89.93657673278085
 10
328.51663656820847
 20
54.93657673278085
 10
327.51773989818423
 20
54.93657673278085
 10
327.536841657263
 20
54.742633318173624
 10
327.53688897883796
 20
54.74239541655099
 10
327.6861292648663
 20
54.382097493969894
 10
327.6862365998338
 20
54.38193685583901
 10
327.96199669124985
 20
54.10617676441738
 10
327.9621573293807
 20
54.106069429449896
 10
328.3224552520137
 20
53.956829143403326
 10
328.32269315363624
 20
53.95678182182839
 10
328.5176856950583
 20
53.937576732780855
 10
330.24763824892756
 20
53.937576732780855
 10
330.44263079034965
 20
53.95678182182839
 10
330.44286869197214
 20
53.956829143403326
 10
330.8031666146051
 20
54.106069429449896
 10
330.803327252736
 20
54.10617676441738
 10
331.0790873441521
 20
54.38193685583901
 10
331.07919467911955
 20
54.382097493969894
 10
331.2284349651479
 20
54.74239541655099
 10
331.22848228672285
 20
54.742633318173624
 10
331.2475840458016
 20
54.93657673278085
 10
330.24868737577737
 20
54.93657673278085
 10
330.24868737577737
 20
89.93657673278085
 10
331.2475840458016
 20
89.93657673278085
 10
331.22848228672285
 20
90.1305201473881
  0
LWPOLYLINE
  5
49
330
17
100
AcDbEntity
  8
0
100
AcDbPolyline
 90
17
 70
0
 10
434.1504289249593
 20
44.66880977981448
 10
434.69236080327113
 20
45.479868151868125
 10
434.8826619719929
 20
46.43657673278085
 10
434.69236080327113
 20
47.393285313693575
 10
434.1504289249593
 20
48.20434368574722
 10
433.3393705529056
 20
48.74627556405907
 10
432.3826619719929
 20
48.93657673278085
 10
431.42595339108016
 20
48.74627556405907
 10
430.61489501902656
 20
48.20434368574722
 10
430.0729631407147
 20
47.393285313693575
 10
429.8826619719929
 20
46.43657673278085
 10
430.0729631407147
 20
45.479868151868125
 10
430.61489501902656
 20
44.66880977981448
 10
431.42595339108016
 20
44.12687790150263
 10
432.3826619719929
 20
43.93657673278085
 10
433.3393705529056
 20
44.12687790150263
 10
434.1504289249593
 20
44.66880977981448
  0
LWPOLYLINE
  5
4A
330
17
100
AcDbEntity
  8
0
100
AcDbPolyline
 90
17
 70
0
 10
232.15042892495927
 20
44.66880977981448
 10
232.69236080327113
 20
45.479868151868125
 10
232.88266197199292
 20
46.43657673278085
 10
232.69236080327113
 20
47.393285313693575
 10
232.1504289249593
 20
48.20434368574722
 10
231.33937055290565
 20
48.74627556405907
 10
230.38266197199292
 20
48.93657673278085
 10
229.42595339108018
 20
48.74627556405907
 10
228.61489501902656
 20
48.20434368574722
 10
228.0729631407147
 20
47.393285313693575
 10
227.88266197199292
 20
46.43657673278085
 10
228.0729631407147
 20
45.479868151868125
 10
228.61489501902656
 20
44.66880977981448
 10
229.42595339108018
 20
44.12687790150263
 10
230.38266197199292
 20
43.93657673278085
 10
231.33937055290565
 20
44.12687790150263
 10
232.15042892495927
 20
44.66880977981448
  0
LWPOLYLINE
  5
4B
330
17
100
AcDbEntity
  8
0
100
AcDbPolyline
 90
17
 70
0
 10
434.1504289249593
 20
96.66880977981448
 10
434.69236080327113
 20
97.47986815186813
 10
434.8826619719929
 20
98.43657673278085
 10
434.69236080327113
 20
99.39328531369357
 10
434.1504289249593
 20
100.20434368574722
 10
433.3393705529056
 20
100.74627556405906
 10
432.3826619719929
 20
100.93657673278085
 10
431.42595339108016
 20
100.74627556405906
 10
430.61489501902656
 20
100.20434368574722
 10
430.0729631407147
 20
99.39328531369358
 10
429.8826619719929
 20
98.43657673278085
 10
430.0729631407147
 20
97.47986815186813
 10
430.61489501902656
 20
96.66880977981448
 10
431.42595339108016
 20
96.12687790150264
 10
432.3826619719929
 20
95.93657673278085
 10
433.3393705529056
 20
96.12687790150264
 10
434.1504289249593
 20
96.66880977981448
  0
LWPOLYLINE
  5
4C
330
17
100
AcDbEntity
  8
0
100
AcDbPolyline
 90
17
 70
0
 10
232.15042892495927
 20
96.66880977981448
 10
232.69236080327113
 20
97.47986815186813
 10
232.88266197199292
 20
98.43657673278085
 10
232.69236080327113
 20
99.39328531369357
 10
232.1504289249593
 20
100.20434368574722
 10
231.33937055290565
 20
100.74627556405906
 10
230.38266197199292
 20
100.93657673278085
 10
229.42595339108018
 20
100.74627556405906
 10
228.61489501902656
 20
100.20434368574722
 10
228.0729631407147
 20
99.39328531369358
 10
227.88266197199292
 20
98.43657673278085
 10
228.0729631407147
 20
97.47986815186813
 10
228.61489501902656
 20
96.66880977981448
 10
229.42595339108018
 20
96.12687790150264
 10
230.38266197199292
 20
95.93657673278085
 10
231.33937055290565
 20
96.12687790150264
 10
232.15042892495927
 20
96.66880977981448
  0
LWPOLYLINE
  5
4D
330
17
100
AcDbEntity
  8
0
100
AcDbPolyline
 90
11
 70
0
 10
421.4505760344929
 20
43.32563923278085
 10
421.0087635344929
 20
43.40579548278085
 10
420.7562947844929
 20
43.93188923278085
 10
421.7406697844929
 20
46.52954548278085
 10
421.26723228449293
 20
46.52954548278085
 10
420.5391072844929
 20
44.42720173278085
 10
419.8047322844929
 20
46.52954548278085
 10
419.36488853449293
 20
46.52954548278085
 10
420.6459510344929
 20
43.22204548278085
 10
421.3067791594929
 20
42.88908454528085
 10
421.4505760344929
 20
43.32563923278085
  0
LWPOLYLINE
  5
4E
330
17
100
AcDbEntity
  8
0
100
AcDbPolyline
 90
15
 70
0
 10
422.2235799407429
 20
46.11697517028085
 10
422.0331502532429
 20
43.93657673278085
 10
422.4925252532429
 20
43.93657673278085
 10
422.5800252532429
 20
44.25610798278085
 10
422.8667127532429
 20
44.05126423278085
 10
423.8449627532429
 20
43.91135798278085
 10
424.3846815032429
 20
44.37879548278085
 10
424.1073690032429
 20
45.22095173278085
 10
422.6167440032429
 20
45.58188923278085
 10
422.6944002532429
 20
46.02523298278085
 10
423.1131502532429
 20
46.21813923278085
 10
424.3456502532429
 20
45.78970173278085
 10
423.7644002532429
 20
46.49595173278085
 10
422.72486900324293
 20
46.53813923278085
 10
422.2235799407429
 20
46.11697517028085
  0
LWPOLYLINE
  5
4F
330
17
100
AcDbEntity
  8
0
100
AcDbPolyline
 90
14
 70
0
 10
418.1980916594929
 20
44.29634235778085
 10
417.5965291594929
 20
44.30171735778085
 10
417.21645103449293
 20
44.77173298278085
 10
416.7625447844929
 20
44.71548298278085
 10
416.9154744719929
 20
44.36216267028085
 10
417.8136854094929
 20
43.88017829528085
 10
418.8047322844929
 20
44.22798298278085
 10
419.1349588469929
 20
45.33879548278085
 10
418.7321150969929
 20
46.29514704528085
 10
417.8252322844929
 20
46.58460017028085
 10
417.0773885344929
 20
46.23423298278085
 10
416.7500447844929
 20
45.12095173278085
 10
418.6768650969929
 20
45.03748298278085
 10
418.1980916594929
 20
44.29634235778085
  0
LWPOLYLINE
  5
50
330
17
100
AcDbEntity
  8
0
100
AcDbPolyline
 90
10
 70
0
 10
415.8200643157429
 20
46.52954548278085
 10
415.7603768157429
 20
46.23935798278085
 10
415.3773455657429
 20
46.57401423278085
 10
414.80678306574293
 20
46.44673298278085
 10
414.9583455657429
 20
46.03892048278085
 10
415.6535018157429
 20
45.91926423278085
 10
415.7763143157429
 20
43.93657673278085
 10
416.2153768157429
 20
43.93657673278085
 10
416.2153768157429
 20
46.52954548278085
 10
415.8200643157429
 20
46.52954548278085
  0
LWPOLYLINE
  5
51
330
17
100
AcDbEntity
  8
0
100
AcDbPolyline
 90
24
 70
0
 10
412.1385213469929
 20
43.87329548278085
 10
412.9213338469929
 20
44.15376423278085
 10
413.27602134699293
 20
44.88110798278085
 10
412.8369588469929
 20
44.93970173278085
 10
412.7346150969929
 20
44.61841267028085
 10
412.07511509699293
 20
44.23872517028085
 10
411.4329275969929
 20
44.74635798278085
 10
411.6369432219929
 20
45.52007673278085
 10
412.4096150969929
 20
45.63110798278085
 10
412.3603963469929
 20
46.01704548278085
 10
411.61586509699293
 20
46.34419392028085
 10
411.7236775969929
 20
47.01001423278085
 10
412.3369275969929
 20
47.14351423278085
 10
412.7924275969929
 20
46.52485798278085
 10
413.2322713469929
 20
46.60298298278085
 10
412.7467088469929
 20
47.37482673278085
 10
411.7685213469929
 20
47.46869392028085
 10
411.1408650969929
 20
46.83755329528085
 10
411.1880525969929
 20
46.25585798278085
 10
411.6010213469929
 20
45.87485798278085
 10
411.0184041594929
 20
45.42219392028085
 10
410.9870213469929
 20
44.64148298278085
 10
411.4182713469929
 20
44.08179548278085
 10
412.1385213469929
 20
43.87329548278085
  0
LWPOLYLINE
  5
52
330
17
100
AcDbEntity
  8
0
100
AcDbPolyline
 90
7
 70
0
 10
426.5428182219929
 20
47.51548298278085
 10
426.5428182219929
 20
44.35923298278085
 10
424.7803182219929
 20
44.35923298278085
 10
424.7803182219929
 20
43.93657673278085
 10
427.01625572199293
 20
43.93657673278085
 10
427.01625572199293
 20
47.51548298278085
 10
426.5428182219929
 20
47.51548298278085
  0
LWPOLYLINE
  5
53
330
17
100
AcDbEntity
  8
0
100
AcDbPolyline
 90
45
 70
0
 10
317.22848228672285
 20
90.1305201473881
 10
317.2284349651479
 20
90.13075804901072
 10
317.0791946791252
 20
90.49105597158339
 10
317.07908734415764
 20
90.49121660971427
 10
316.8033272527108
 20
90.76697670116117
 10
316.8031666145799
 20
90.76708403612865
 10
316.4428686920072
 20
90.9163243221514
 10
316.4426307903846
 20
90.91637164372636
 10
316.24763824892756
 20
90.93557673278086
 10
314.5176856950583
 20
90.93557673278086
 10
314.3226931536012
 20
90.91637164372636
 10
314.3224552519786
 20
90.9163243221514
 10
313.96215732940595
 20
90.76708403612865
 10
313.9619966912751
 20
90.76697670116117
 10
313.68623659982813
 20
90.49121660971427
 10
313.6861292648607
 20
90.49105597158339
 10
313.53688897883796
 20
90.13075804901072
 10
313.536841657263
 20
90.1305201473881
 10
313.51773989818423
 20
89.93657673278085
 10
314.51663656820847
 20
89.93657673278085
 10
314.51663656820847
 20
54.93657673278085
 10
313.51773989818423
 20
54.93657673278085
 10
313.536841657263
 20
54.742633318173624
 10
313.53688897883796
 20
54.74239541655099
 10
313.6861292648663
 20
54.382097493969894
 10
313.6862365998338
 20
54.38193685583901
 10
313.96199669124985
 20
54.10617676441738
 10
313.9621573293807
 20
54.106069429449896
 10
314.3224552520137
 20
53.956829143403326
 10
314.32269315363624
 20
53.95678182182839
 10
314.5176856950583
 20
53.937576732780855
 10
316.24763824892756
 20
53.937576732780855
 10
316.44263079034965
 20
53.95678182182839
 10
316.44286869197214
 20
53.956829143403326
 10
316.8031666146051
 20
54.106069429449896
 10
316.803327252736
 20
54.10617676441738
 10
317.0790873441521
 20
54.38193685583901
 10
317.07919467911955
 20
54.382097493969894
 10
317.2284349651479
 20
54.74239541655099
 10
317.22848228672285
 20
54.742633318173624
 10
317.2475840458016
 20
54.93657673278085
 10
316.24868737577737
 20
54.93657673278085
 10
316.24868737577737
 20
89.93657673278085
 10
317.2475840458016
 20
89.93657673278085
 10
317.22848228672285
 20
90.1305201473881
  0
LWPOLYLINE
  5
54
330
17
100
AcDbEntity
  8
0
100
AcDbPolyline
 90
45
 70
0
 10
267.2284822867229
 20
90.13052014738795
 10
267.2284349651479
 20
90.13075804901072
 10
267.0791946791251
 20
90.49105597158345
 10
267.07908734415764
 20
90.49121660971427
 10
266.8033272527276
 20
90.7669767011499
 10
266.80316661459676
 20
90.76708403611741
 10
266.4428686920003
 20
90.9163243221528
 10
266.4426307903777
 20
90.91637164372776
 10
266.2476382489276
 20
90.93557673278086
 10
264.5176856950583
 20
90.93557673278086
 10
264.32269315360816
 20
90.91637164372776
 10
264.3224552519856
 20
90.9163243221528
 10
263.96215732938913
 20
90.76708403611741
 10
263.96199669125815
 20
90.7669767011499
 10
263.68623659982813
 20
90.49121660971427
 10
263.6861292648607
 20
90.49105597158345
 10
263.5368889788379
 20
90.13075804901072
 10
263.5368416572629
 20
90.13052014738795
 10
263.51773989818423
 20
89.93657673278085
 10
264.51663656820847
 20
89.93657673278085
 10
264.51663656820847
 20
54.93657673278085
 10
263.51773989818423
 20
54.93657673278085
 10
263.5368416572629
 20
54.742633318173766
 10
263.5368889788379
 20
54.74239541655099
 10
263.6861292648663
 20
54.382097493969894
 10
263.6862365998338
 20
54.38193685583898
 10
263.961996691233
 20
54.10617676442867
 10
263.9621573293639
 20
54.10606942946113
 10
264.3224552520207
 20
53.95682914340193
 10
264.3226931536432
 20
53.95678182182701
 10
264.5176856950583
 20
53.937576732780855
 10
266.2476382489275
 20
53.937576732780855
 10
266.4426307903427
 20
53.95678182182701
 10
266.44286869196515
 20
53.95682914340193
 10
266.8031666146219
 20
54.10606942946113
 10
266.80332725275287
 20
54.10617676442867
 10
267.079087344152
 20
54.38193685583898
 10
267.0791946791195
 20
54.382097493969894
 10
267.2284349651479
 20
54.74239541655099
 10
267.2284822867229
 20
54.742633318173766
 10
267.24758404580166
 20
54.93657673278085
 10
266.24868737577737
 20
54.93657673278085
 10
266.24868737577737
 20
89.93657673278085
 10
267.24758404580166
 20
89.93657673278085
 10
267.2284822867229
 20
90.13052014738795
  0
LWPOLYLINE
  5
55
330
17
100
AcDbEntity
  8
0
100
AcDbPolyline
 90
45
 70
0
 10
253.2284822867229
 20
90.13052014738795
 10
253.22843496514793
 20
90.13075804901072
 10
253.07919467912512
 20
90.49105597158345
 10
253.07908734415767
 20
90.49121660971427
 10
252.80332725272766
 20
90.7669767011499
 10
252.80316661459673
 20
90.76708403611741
 10
252.44286869200025
 20
90.9163243221528
 10
252.44263079037768
 20
90.91637164372776
 10
252.2476382489276
 20
90.93557673278086
 10
250.51768569505825
 20
90.93557673278086
 10
250.32269315360816
 20
90.91637164372776
 10
250.3224552519856
 20
90.9163243221528
 10
249.9621573293891
 20
90.76708403611741
 10
249.96199669125818
 20
90.7669767011499
 10
249.68623659982816
 20
90.49121660971427
 10
249.6861292648607
 20
90.49105597158345
 10
249.5368889788379
 20
90.13075804901072
 10
249.53684165726293
 20
90.13052014738795
 10
249.5177398981842
 20
89.93657673278085
 10
250.51663656820847
 20
89.93657673278085
 10
250.51663656820847
 20
54.93657673278085
 10
249.5177398981842
 20
54.93657673278085
 10
249.53684165726293
 20
54.742633318173766
 10
249.5368889788379
 20
54.74239541655099
 10
249.6861292648663
 20
54.382097493969894
 10
249.68623659983382
 20
54.38193685583898
 10
249.961996691233
 20
54.10617676442867
 10
249.96215732936392
 20
54.10606942946113
 10
250.3224552520207
 20
53.95682914340193
 10
250.32269315364314
 20
53.95678182182701
 10
250.5176856950583
 20
53.937576732780855
 10
252.24763824892753
 20
53.937576732780855
 10
252.4426307903427
 20
53.95678182182701
 10
252.44286869196515
 20
53.95682914340193
 10
252.80316661462192
 20
54.10606942946113
 10
252.80332725275284
 20
54.10617676442867
 10
253.07908734415201
 20
54.38193685583898
 10
253.07919467911952
 20
54.382097493969894
 10
253.22843496514793
 20
54.74239541655099
 10
253.2284822867229
 20
54.742633318173766
 10
253.24758404580163
 20
54.93657673278085
 10
252.24868737577737
 20
54.93657673278085
 10
252.24868737577737
 20
89.93657673278085
 10
253.24758404580163
 20
89.93657673278085
 10
253.2284822867229
 20
90.13052014738795
  0
LWPOLYLINE
  5
56
330
17
100
AcDbEntity
  8
0
100
AcDbPolyline
 90
45
 70
0
 10
243.2284822867229
 20
90.13052014738795
 10
243.22843496514793
 20
90.13075804901072
 10
243.07919467912512
 20
90.49105597158345
 10
243.07908734415767
 20
90.49121660971427
 10
242.80332725272766
 20
90.7669767011499
 10
242.80316661459673
 20
90.76708403611741
 10
242.44286869200025
 20
90.9163243221528
 10
242.44263079037768
 20
90.91637164372776
 10
242.2476382489276
 20
90.93557673278086
 10
240.51768569505825
 20
90.93557673278086
 10
240.32269315360816
 20
90.91637164372776
 10
240.3224552519856
 20
90.9163243221528
 10
239.9621573293891
 20
90.76708403611741
 10
239.96199669125818
 20
90.7669767011499
 10
239.68623659982816
 20
90.49121660971427
 10
239.6861292648607
 20
90.49105597158345
 10
239.5368889788379
 20
90.13075804901072
 10
239.53684165726293
 20
90.13052014738795
 10
239.5177398981842
 20
89.93657673278085
 10
240.51663656820847
 20
89.93657673278085
 10
240.51663656820847
 20
54.93657673278085
 10
239.5177398981842
 20
54.93657673278085
 10
239.53684165726293
 20
54.742633318173766
 10
239.5368889788379
 20
54.74239541655099
 10
239.6861292648663
 20
54.382097493969894
 10
239.68623659983382
 20
54.38193685583898
 10
239.961996691233
 20
54.10617676442867
 10
239.96215732936392
 20
54.10606942946113
 10
240.3224552520207
 20
53.95682914340193
 10
240.32269315364314
 20
53.95678182182701
 10
240.5176856950583
 20
53.937576732780855
 10
242.24763824892753
 20
53.937576732780855
 10
242.4426307903427
 20
53.95678182182701
 10
242.44286869196515
 20
53.95682914340193
 10
242.80316661462192
 20
54.10606942946113
 10
242.80332725275284
 20
54.10617676442867
 10
243.07908734415201
 20
54.38193685583898
 10
243.07919467911952
 20
54.382097493969894
 10
243.22843496514793
 20
54.74239541655099
 10
243.2284822867229
 20
54.742633318173766
 10
243.24758404580163
 20
54.93657673278085
 10
242.24868737577737
 20
54.93657673278085
 10
242.24868737577737
 20
89.93657673278085
 10
243.24758404580163
 20
89.93657673278085
 10
243.2284822867229
 20
90.13052014738795
  0
ENDSEC
  0
SECTION
  2
OBJECTS
  0
DICTIONARY
  5
A
330
0
100
AcDbDictionary
281
1
  3
ACAD_COLOR
350
B
  3
ACAD_GROUP
350
C
  3
ACAD_LAYOUT
350
D
  3
ACAD_MATERIAL
350
E
  3
ACAD_MLEADERSTYLE
350
F
  3
ACAD_MLINESTYLE
350
10
  3
ACAD_PLOTSETTINGS
350
11
  3
ACAD_PLOTSTYLENAME
350
12
  3
ACAD_SCALELIST
350
14
  3
ACAD_TABLESTYLE
350
15
  3
ACAD_VISUALSTYLE
350
16
  3
EZDXF_META
350
2D
  0
DICTIONARY
  5
B
330
A
100
AcDbDictionary
281
1
  0
DICTIONARY
  5
C
330
A
100
AcDbDictionary
281
1
  0
DICTIONARY
  5
D
330
A
100
AcDbDictionary
281
1
  3
Model
350
1A
  3
Layout1
350
1E
  0
DICTIONARY
  5
E
330
A
100
AcDbDictionary
281
1
  3
ByBlock
350
1F
  3
ByLayer
350
20
  3
Global
350
21
  0
DICTIONARY
  5
F
330
A
100
AcDbDictionary
281
1
  3
Standard
350
2C
  0
DICTIONARY
  5
10
330
A
100
AcDbDictionary
281
1
  3
Standard
350
22
  0
DICTIONARY
  5
11
330
A
100
AcDbDictionary
281
1
  0
ACDBDICTIONARYWDFLT
  5
12
330
A
100
AcDbDictionary
281
1
  3
Normal
350
13
100
AcDbDictionaryWithDefault
340
13
  0
ACDBPLACEHOLDER
  5
13
330
12
  0
DICTIONARY
  5
14
330
A
100
AcDbDictionary
281
1
  0
DICTIONARY
  5
15
330
A
100
AcDbDictionary
281
1
  0
DICTIONARY
  5
16
330
A
100
AcDbDictionary
281
1
  0
LAYOUT
  5
1A
330
D
100
AcDbPlotSettings
  1

  4
A3
  6

 40
7.5
 41
20.0
 42
7.5
 43
20.0
 44
420.0
 45
297.0
 46
0.0
 47
0.0
 48
0.0
 49
0.0
140
0.0
141
0.0
142
1.0
143
1.0
 70
1024
 72
1
 73
0
 74
5
  7

 75
16
 76
0
 77
2
 78
300
147
1.0
148
0.0
149
0.0
100
AcDbLayout
  1
Model
 70
1
 71
0
 10
0.0
 20
0.0
 11
420.0
 21
297.0
 12
0.0
 22
0.0
 32
0.0
 14
1e+20
 24
1e+20
 34
1e+20
 15
-1e+20
 25
-1e+20
 35
-1e+20
146
0.0
 13
0.0
 23
0.0
 33
0.0
 16
1.0
 26
0.0
 36
0.0
 17
0.0
 27
1.0
 37
0.0
 76
1
330
17
  0
LAYOUT
  5
1E
330
D
100
AcDbPlotSettings
  1

  4
A3
  6

 40
7.5
 41
20.0
 42
7.5
 43
20.0
 44
420.0
 45
297.0
 46
0.0
 47
0.0
 48
0.0
 49
0.0
140
0.0
141
0.0
142
1.0
143
1.0
 70
0
 72
1
 73
0
 74
5
  7

 75
16
 76
0
 77
2
 78
300
147
1.0
148
0.0
149
0.0
100
AcDbLayout
  1
Layout1
 70
1
 71
1
 10
0.0
 20
0.0
 11
420.0
 21
297.0
 12
0.0
 22
0.0
 32
0.0
 14
1e+20
 24
1e+20
 34
1e+20
 15
-1e+20
 25
-1e+20
 35
-1e+20
146
0.0
 13
0.0
 23
0.0
 33
0.0
 16
1.0
 26
0.0
 36
0.0
 17
0.0
 27
1.0
 37
0.0
 76
1
330
1B
  0
MATERIAL
  5
1F
102
{ACAD_REACTORS
330
E
102
}
330
E
100
AcDbMaterial
  1
ByBlock
  2

 70
0
 40
1.0
 71
1
 41
1.0
 91
-1023410177
 42
1.0
 72
1
  3

 73
1
 74
1
 75
1
 44
0.5
 73
0
 45
1.0
 46
1.0
 77
1
  4

 78
1
 79
1
170
1
 48
1.0
171
1
  6

172
1
173
1
174
1
140
1.0
141
1.0
175
1
  7

176
1
177
1
178
1
143
1.0
179
1
  8

270
1
271
1
272
1
145
1.0
146
1.0
273
1
  9

274
1
275
1
276
1
 42
1.0
 72
1
  3

 73
1
 74
1
 75
1
 94
63
  0
MATERIAL
  5
20
102
{ACAD_REACTORS
330
E
102
}
330
E
100
AcDbMaterial
  1
ByLayer
  2

 70
0
 40
1.0
 71
1
 41
1.0
 91
-1023410177
 42
1.0
 72
1
  3

 73
1
 74
1
 75
1
 44
0.5
 73
0
 45
1.0
 46
1.0
 77
1
  4

 78
1
 79
1
170
1
 48
1.0
171
1
  6

172
1
173
1
174
1
140
1.0
141
1.0
175
1
  7

176
1
177
1
178
1
143
1.0
179
1
  8

270
1
271
1
272
1
145
1.0
146
1.0
273
1
  9

274
1
275
1
276
1
 42
1.0
 72
1
  3

 73
1
 74
1
 75
1
 94
63
  0
MATERIAL
  5
21
102
{ACAD_REACTORS
330
E
102
}
330
E
100
AcDbMaterial
  1
Global
  2

 70
0
 40
1.0
 71
1
 41
1.0
 91
-1023410177
 42
1.0
 72
1
  3

 73
1
 74
1
 75
1
 44
0.5
 73
0
 45
1.0
 46
1.0
 77
1
  4

 78
1
 79
1
170
1
 48
1.0
171
1
  6

172
1
173
1
174
1
140
1.0
141
1.0
175
1
  7

176
1
177
1
178
1
143
1.0
179
1
  8

270
1
271
1
272
1
145
1.0
146
1.0
273
1
  9

274
1
275
1
276
1
 42
1.0
 72
1
  3

 73
1
 74
1
 75
1
 94
63
  0
MLINESTYLE
  5
22
102
{ACAD_REACTORS
330
10
102
}
330
10
100
AcDbMlineStyle
  2
Standard
 70
0
  3

 62
256
 51
90.0
 52
90.0
 71
2
 49
0.5
 62
256
  6
BYLAYER
 49
-0.5
 62
256
  6
BYLAYER
  0
MLEADERSTYLE
  5
2C
102
{ACAD_REACTORS
330
F
102
}
330
F
100
AcDbMLeaderStyle
179
2
170
2
171
1
172
0
 90
2
 40
0.0
 41
0.0
173
1
 91
-1056964608
 92
-2
290
1
 42
2.0
291
1
 43
8.0
  3
Standard
 44
4.0
300

342
29
174
1
175
1
176
0
178
1
 93
-1056964608
 45
4.0
292
0
297
0
 46
4.0
 94
-1056964608
 47
1.0
 49
1.0
140
1.0
294
1
141
0.0
177
0
142
1.0
295
0
296
0
143
3.75
271
0
272
9
273
9
  0
DICTIONARY
  5
2D
330
A
100
AcDbDictionary
280
1
281
1
  3
CREATED_BY_EZDXF
350
2E
  3
WRITTEN_BY_EZDXF
350
59
  0
DICTIONARYVAR
  5
2E
330
2D
100
DictionaryVariables
280
0
  1
1.4.2 @ 2025-12-02T20:08:29.487481+00:00
  0
DICTIONARYVAR
  5
59
330
2D
100
DictionaryVariables
280
0
  1
1.4.2 @ 2025-12-02T20:08:29.498938+00:00
  0
ENDSEC
  0
EOF
