  0
SECTION
  2
HEADER
  9
$ACADVER
  1
AC1024
  9
$ACADMAINTVER
 70
6
  9
$DWGCODEPAGE
  3
ANSI_1252
  9
$LASTSAVEDBY
  1
ezdxf
  9
$INSBASE
 10
0.0
 20
0.0
 30
0.0
  9
$EXTMIN
 10
1e+20
 20
1e+20
 30
1e+20
  9
$EXTMAX
 10
-1e+20
 20
-1e+20
 30
-1e+20
  9
$LIMMIN
 10
0.0
 20
0.0
  9
$LIMMAX
 10
420.0
 20
297.0
  9
$ORTHOMODE
 70
0
  9
$REGENMODE
 70
1
  9
$FILLMODE
 70
1
  9
$QTEXTMODE
 70
0
  9
$MIRRTEXT
 70
1
  9
$LTSCALE
 40
1.0
  9
$ATTMODE
 70
1
  9
$TEXTSIZE
 40
2.5
  9
$TRACEWID
 40
1.0
  9
$TEXTSTYLE
  7
Standard
  9
$CLAYER
  8
0
  9
$CELTYPE
  6
ByLayer
  9
$CECOLOR
 62
256
  9
$CELTSCALE
 40
1.0
  9
$DISPSILH
 70
0
  9
$DIMSCALE
 40
1.0
  9
$DIMASZ
 40
2.5
  9
$DIMEXO
 40
0.625
  9
$DIMDLI
 40
3.75
  9
$DIMRND
 40
0.0
  9
$DIMDLE
 40
0.0
  9
$DIMEXE
 40
1.25
  9
$DIMTP
 40
0.0
  9
$DIMTM
 40
0.0
  9
$DIMTXT
 40
2.5
  9
$DIMCEN
 40
2.5
  9
$DIMTSZ
 40
0.0
  9
$DIMTOL
 70
0
  9
$DIMLIM
 70
0
  9
$DIMTIH
 70
0
  9
$DIMTOH
 70
0
  9
$DIMSE1
 70
0
  9
$DIMSE2
 70
0
  9
$DIMTAD
 70
1
  9
$DIMZIN
 70
8
  9
$DIMBLK
  1

  9
$DIMASO
 70
1
  9
$DIMSHO
 70
1
  9
$DIMPOST
  1

  9
$DIMAPOST
  1

  9
$DIMALT
 70
0
  9
$DIMALTD
 70
3
  9
$DIMALTF
 40
0.03937007874
  9
$DIMLFAC
 40
1.0
  9
$DIMTOFL
 70
1
  9
$DIMTVP
 40
0.0
  9
$DIMTIX
 70
0
  9
$DIMSOXD
 70
0
  9
$DIMSAH
 70
0
  9
$DIMBLK1
  1

  9
$DIMBLK2
  1

  9
$DIMSTYLE
  2
ISO-25
  9
$DIMCLRD
 70
0
  9
$DIMCLRE
 70
0
  9
$DIMCLRT
 70
0
  9
$DIMTFAC
 40
1.0
  9
$DIMGAP
 40
0.625
  9
$DIMJUST
 70
0
  9
$DIMSD1
 70
0
  9
$DIMSD2
 70
0
  9
$DIMTOLJ
 70
0
  9
$DIMTZIN
 70
8
  9
$DIMALTZ
 70
0
  9
$DIMALTTZ
 70
0
  9
$DIMUPT
 70
0
  9
$DIMDEC
 70
2
  9
$DIMTDEC
 70
2
  9
$DIMALTU
 70
2
  9
$DIMALTTD
 70
3
  9
$DIMTXSTY
  7
Standard
  9
$DIMAUNIT
 70
0
  9
$DIMADEC
 70
0
  9
$DIMALTRND
 40
0.0
  9
$DIMAZIN
 70
0
  9
$DIMDSEP
 70
44
  9
$DIMATFIT
 70
3
  9
$DIMFRAC
 70
0
  9
$DIMLDRBLK
  1

  9
$DIMLUNIT
 70
2
  9
$DIMLWD
 70
-2
  9
$DIMLWE
 70
-2
  9
$DIMTMOVE
 70
0
  9
$DIMFXL
 40
1.0
  9
$DIMFXLON
 70
0
  9
$DIMJOGANG
 40
0.785398163397
  9
$DIMTFILL
 70
0
  9
$DIMTFILLCLR
 70
0
  9
$DIMARCSYM
 70
0
  9
$DIMLTYPE
  6

  9
$DIMLTEX1
  6

  9
$DIMLTEX2
  6

  9
$DIMTXTDIRECTION
 70
0
  9
$LUNITS
 70
2
  9
$LUPREC
 70
4
  9
$SKETCHINC
 40
1.0
  9
$FILLETRAD
 40
10.0
  9
$AUNITS
 70
0
  9
$AUPREC
 70
2
  9
$MENU
  1
.
  9
$ELEVATION
 40
0.0
  9
$PELEVATION
 40
0.0
  9
$THICKNESS
 40
0.0
  9
$LIMCHECK
 70
0
  9
$CHAMFERA
 40
0.0
  9
$CHAMFERB
 40
0.0
  9
$CHAMFERC
 40
0.0
  9
$CHAMFERD
 40
0.0
  9
$SKPOLY
 70
0
  9
$TDCREATE
 40
2461012.5574421296
  9
$TDUCREATE
 40
2458532.153996898
  9
$TDUPDATE
 40
2461012.5574421296
  9
$TDUUPDATE
 40
2458532.1544311
  9
$TDINDWG
 40
0.0
  9
$TDUSRTIMER
 40
0.0
  9
$USRTIMER
 70
1
  9
$ANGBASE
 50
0.0
  9
$ANGDIR
 70
0
  9
$PDMODE
 70
0
  9
$PDSIZE
 40
0.0
  9
$PLINEWID
 40
0.0
  9
$SPLFRAME
 70
0
  9
$SPLINETYPE
 70
6
  9
$SPLINESEGS
 70
8
  9
$HANDSEED
  5
52
  9
$SURFTAB1
 70
6
  9
$SURFTAB2
 70
6
  9
$SURFTYPE
 70
6
  9
$SURFU
 70
6
  9
$SURFV
 70
6
  9
$UCSBASE
  2

  9
$UCSNAME
  2

  9
$UCSORG
 10
0.0
 20
0.0
 30
0.0
  9
$UCSXDIR
 10
1.0
 20
0.0
 30
0.0
  9
$UCSYDIR
 10
0.0
 20
1.0
 30
0.0
  9
$UCSORTHOREF
  2

  9
$UCSORTHOVIEW
 70
0
  9
$UCSORGTOP
 10
0.0
 20
0.0
 30
0.0
  9
$UCSORGBOTTOM
 10
0.0
 20
0.0
 30
0.0
  9
$UCSORGLEFT
 10
0.0
 20
0.0
 30
0.0
  9
$UCSORGRIGHT
 10
0.0
 20
0.0
 30
0.0
  9
$UCSORGFRONT
 10
0.0
 20
0.0
 30
0.0
  9
$UCSORGBACK
 10
0.0
 20
0.0
 30
0.0
  9
$PUCSBASE
  2

  9
$PUCSNAME
  2

  9
$PUCSORG
 10
0.0
 20
0.0
 30
0.0
  9
$PUCSXDIR
 10
1.0
 20
0.0
 30
0.0
  9
$PUCSYDIR
 10
0.0
 20
1.0
 30
0.0
  9
$PUCSORTHOREF
  2

  9
$PUCSORTHOVIEW
 70
0
  9
$PUCSORGTOP
 10
0.0
 20
0.0
 30
0.0
  9
$PUCSORGBOTTOM
 10
0.0
 20
0.0
 30
0.0
  9
$PUCSORGLEFT
 10
0.0
 20
0.0
 30
0.0
  9
$PUCSORGRIGHT
 10
0.0
 20
0.0
 30
0.0
  9
$PUCSORGFRONT
 10
0.0
 20
0.0
 30
0.0
  9
$PUCSORGBACK
 10
0.0
 20
0.0
 30
0.0
  9
$USERI1
 70
0
  9
$USERI2
 70
0
  9
$USERI3
 70
0
  9
$USERI4
 70
0
  9
$USERI5
 70
0
  9
$USERR1
 40
0.0
  9
$USERR2
 40
0.0
  9
$USERR3
 40
0.0
  9
$USERR4
 40
0.0
  9
$USERR5
 40
0.0
  9
$WORLDVIEW
 70
1
  9
$SHADEDGE
 70
3
  9
$SHADEDIF
 70
70
  9
$TILEMODE
 70
1
  9
$MAXACTVP
 70
64
  9
$PINSBASE
 10
0.0
 20
0.0
 30
0.0
  9
$PLIMCHECK
 70
0
  9
$PEXTMIN
 10
1e+20
 20
1e+20
 30
1e+20
  9
$PEXTMAX
 10
-1e+20
 20
-1e+20
 30
-1e+20
  9
$PLIMMIN
 10
0.0
 20
0.0
  9
$PLIMMAX
 10
420.0
 20
297.0
  9
$UNITMODE
 70
0
  9
$VISRETAIN
 70
1
  9
$PLINEGEN
 70
0
  9
$PSLTSCALE
 70
1
  9
$TREEDEPTH
 70
3020
  9
$CMLSTYLE
  2
Standard
  9
$CMLJUST
 70
0
  9
$CMLSCALE
 40
20.0
  9
$PROXYGRAPHICS
 70
1
  9
$MEASUREMENT
 70
1
  9
$CELWEIGHT
370
-1
  9
$ENDCAPS
280
0
  9
$JOINSTYLE
280
0
  9
$LWDISPLAY
290
0
  9
$INSUNITS
 70
6
  9
$HYPERLINKBASE
  1

  9
$STYLESHEET
  1

  9
$XEDIT
290
1
  9
$CEPSNTYPE
380
0
  9
$PSTYLEMODE
290
1
  9
$FINGERPRINTGUID
  2
{1F0E924F-B6A0-41DF-8C9D-5E6E3658484E}
  9
$VERSIONGUID
  2
{3F807A47-D3B1-428E-9FFA-F4D139A0D3A0}
  9
$EXTNAMES
290
1
  9
$PSVPSCALE
 40
0.0
  9
$OLESTARTUP
290
0
  9
$SORTENTS
280
127
  9
$INDEXCTL
280
0
  9
$HIDETEXT
280
1
  9
$XCLIPFRAME
280
1
  9
$HALOGAP
280
0
  9
$OBSCOLOR
 70
257
  9
$OBSLTYPE
280
0
  9
$INTERSECTIONDISPLAY
280
0
  9
$INTERSECTIONCOLOR
 70
257
  9
$DIMASSOC
280
2
  9
$PROJECTNAME
  1

  9
$CAMERADISPLAY
290
0
  9
$LENSLENGTH
 40
50.0
  9
$CAMERAHEIGHT
 40
0.0
  9
$STEPSPERSEC
 40
24.0
  9
$STEPSIZE
 40
100.0
  9
$3DDWFPREC
 40
2.0
  9
$PSOLWIDTH
 40
0.005
  9
$PSOLHEIGHT
 40
0.08
  9
$LOFTANG1
 40
1.570796326795
  9
$LOFTANG2
 40
1.570796326795
  9
$LOFTMAG1
 40
0.0
  9
$LOFTMAG2
 40
0.0
  9
$LOFTPARAM
 70
7
  9
$LOFTNORMALS
280
1
  9
$LATITUDE
 40
37.795
  9
$LONGITUDE
 40
-122.394
  9
$NORTHDIRECTION
 40
0.0
  9
$TIMEZONE
 70
-8000
  9
$LIGHTGLYPHDISPLAY
280
1
  9
$TILEMODELIGHTSYNCH
280
1
  9
$CMATERIAL
347
20
  9
$SOLIDHIST
280
0
  9
$SHOWHIST
280
1
  9
$DWFFRAME
280
2
  9
$DGNFRAME
280
2
  9
$REALWORLDSCALE
290
1
  9
$INTERFERECOLOR
 62
256
  9
$CSHADOW
280
0
  9
$SHADOWPLANELOCATION
 40
0.0
  0
ENDSEC
  0
SECTION
  2
CLASSES
  0
CLASS
  1
ACDBDICTIONARYWDFLT
  2
AcDbDictionaryWithDefault
  3
ObjectDBX Classes
 90
0
 91
0
280
0
281
0
  0
CLASS
  1
SUN
  2
AcDbSun
  3
SCENEOE
 90
1153
 91
0
280
0
281
0
  0
CLASS
  1
VISUALSTYLE
  2
AcDbVisualStyle
  3
ObjectDBX Classes
 90
4095
 91
0
280
0
281
0
  0
CLASS
  1
MATERIAL
  2
AcDbMaterial
  3
ObjectDBX Classes
 90
1153
 91
0
280
0
281
0
  0
CLASS
  1
SCALE
  2
AcDbScale
  3
ObjectDBX Classes
 90
1153
 91
0
280
0
281
0
  0
CLASS
  1
TABLESTYLE
  2
AcDbTableStyle
  3
ObjectDBX Classes
 90
4095
 91
0
280
0
281
0
  0
CLASS
  1
MLEADERSTYLE
  2
AcDbMLeaderStyle
  3
ACDB_MLEADERSTYLE_CLASS
 90
4095
 91
0
280
0
281
0
  0
CLASS
  1
DICTIONARYVAR
  2
AcDbDictionaryVar
  3
ObjectDBX Classes
 90
0
 91
0
280
0
281
0
  0
CLASS
  1
CELLSTYLEMAP
  2
AcDbCellStyleMap
  3
ObjectDBX Classes
 90
1152
 91
0
280
0
281
0
  0
CLASS
  1
MENTALRAYRENDERSETTINGS
  2
AcDbMentalRayRenderSettings
  3
SCENEOE
 90
1024
 91
0
280
0
281
0
  0
CLASS
  1
ACDBDETAILVIEWSTYLE
  2
AcDbDetailViewStyle
  3
ObjectDBX Classes
 90
1025
 91
0
280
0
281
0
  0
CLASS
  1
ACDBSECTIONVIEWSTYLE
  2
AcDbSectionViewStyle
  3
ObjectDBX Classes
 90
1025
 91
0
280
0
281
0
  0
CLASS
  1
RASTERVARIABLES
  2
AcDbRasterVariables
  3
ISM
 90
0
 91
0
280
0
281
0
  0
CLASS
  1
ACDBPLACEHOLDER
  2
AcDbPlaceHolder
  3
ObjectDBX Classes
 90
0
 91
0
280
0
281
0
  0
CLASS
  1
LAYOUT
  2
AcDbLayout
  3
ObjectDBX Classes
 90
0
 91
0
280
0
281
0
  0
ENDSEC
  0
SECTION
  2
TABLES
  0
TABLE
  2
VPORT
  5
8
330
0
100
AcDbSymbolTable
 70
1
  0
VPORT
  5
23
330
8
100
AcDbSymbolTableRecord
100
AcDbViewportTableRecord
  2
*Active
 70
0
 10
0.0
 20
0.0
 11
1.0
 21
1.0
 12
0.0
 22
0.0
 13
0.0
 23
0.0
 14
0.5
 24
0.5
 15
0.5
 25
0.5
 16
0.0
 26
0.0
 36
1.0
 17
0.0
 27
0.0
 37
0.0
 40
1000.0
 41
1.34
 42
50.0
 43
0.0
 44
0.0
 50
0.0
 51
0.0
 71
0
 72
1000
 73
1
 74
3
 75
0
 76
0
 77
0
 78
0
281
0
 65
0
146
0.0
  0
ENDTAB
  0
TABLE
  2
LTYPE
  5
2
330
0
100
AcDbSymbolTable
 70
3
  0
LTYPE
  5
24
330
2
100
AcDbSymbolTableRecord
100
AcDbLinetypeTableRecord
  2
ByBlock
 70
0
  3

 72
65
 73
0
 40
0.0
  0
LTYPE
  5
25
330
2
100
AcDbSymbolTableRecord
100
AcDbLinetypeTableRecord
  2
ByLayer
 70
0
  3

 72
65
 73
0
 40
0.0
  0
LTYPE
  5
26
330
2
100
AcDbSymbolTableRecord
100
AcDbLinetypeTableRecord
  2
Continuous
 70
0
  3

 72
65
 73
0
 40
0.0
  0
ENDTAB
  0
TABLE
  2
LAYER
  5
1
330
0
100
AcDbSymbolTable
 70
2
  0
LAYER
  5
27
330
1
100
AcDbSymbolTableRecord
100
AcDbLayerTableRecord
  2
0
 70
0
 62
7
  6
Continuous
370
-3
390
13
347
21
  0
LAYER
  5
28
330
1
100
AcDbSymbolTableRecord
100
AcDbLayerTableRecord
  2
Defpoints
 70
0
 62
7
  6
Continuous
290
0
370
-3
390
13
347
21
  0
ENDTAB
  0
TABLE
  2
STYLE
  5
5
330
0
100
AcDbSymbolTable
 70
1
  0
STYLE
  5
29
330
5
100
AcDbSymbolTableRecord
100
AcDbTextStyleTableRecord
  2
Standard
 70
0
 40
0.0
 41
1.0
 50
0.0
 71
0
 42
2.5
  3
txt
  4

  0
ENDTAB
  0
TABLE
  2
VIEW
  5
7
330
0
100
AcDbSymbolTable
 70
0
  0
ENDTAB
  0
TABLE
  2
UCS
  5
6
330
0
100
AcDbSymbolTable
 70
0
  0
ENDTAB
  0
TABLE
  2
APPID
  5
3
330
0
100
AcDbSymbolTable
 70
3
  0
APPID
  5
2A
330
3
100
AcDbSymbolTableRecord
100
AcDbRegAppTableRecord
  2
ACAD
 70
0
  0
APPID
  5
4F
330
3
100
AcDbSymbolTableRecord
100
AcDbRegAppTableRecord
  2
HATCHBACKGROUNDCOLOR
 70
0
  0
APPID
  5
50
330
3
100
AcDbSymbolTableRecord
100
AcDbRegAppTableRecord
  2
EZDXF
 70
0
  0
ENDTAB
  0
TABLE
  2
DIMSTYLE
  5
4
330
0
100
AcDbSymbolTable
 70
1
100
AcDbDimStyleTable
  0
DIMSTYLE
105
2B
330
4
100
AcDbSymbolTableRecord
100
AcDbDimStyleTableRecord
  2
Standard
 70
0
 40
1.0
 41
2.5
 42
0.625
 43
3.75
 44
1.25
 45
0.0
 46
0.0
 47
0.0
 48
0.0
 49
2.5
140
2.5
141
2.5
142
0.0
143
0.03937007874
144
1.0
145
0.0
146
1.0
147
0.625
148
0.0
 69
0
 70
0
 71
0
 72
0
 73
0
 74
0
 75
0
 76
0
 77
1
 78
8
 79
3
170
0
171
3
172
1
173
0
174
0
175
0
176
0
177
0
178
0
179
2
271
2
272
2
273
2
274
3
275
0
276
0
277
2
278
44
279
0
280
0
281
0
282
0
283
0
284
8
285
0
286
0
288
0
289
3
290
0
371
-2
372
-2
  0
ENDTAB
  0
TABLE
  2
BLOCK_RECORD
  5
9
330
0
100
AcDbSymbolTable
 70
2
  0
BLOCK_RECORD
  5
17
330
9
100
AcDbSymbolTableRecord
100
AcDbBlockTableRecord
  2
*Model_Space
340
1A
 70
0
280
1
281
0
  0
BLOCK_RECORD
  5
1B
330
9
100
AcDbSymbolTableRecord
100
AcDbBlockTableRecord
  2
*Paper_Space
340
1E
 70
0
280
1
281
0
  0
ENDTAB
  0
ENDSEC
  0
SECTION
  2
BLOCKS
  0
BLOCK
  5
18
330
17
100
AcDbEntity
  8
0
100
AcDbBlockBegin
  2
*Model_Space
 70
0
 10
0.0
 20
0.0
 30
0.0
  3
*Model_Space
  1

  0
ENDBLK
  5
19
330
17
100
AcDbEntity
  8
0
100
AcDbBlockEnd
  0
BLOCK
  5
1C
330
1B
100
AcDbEntity
  8
0
100
AcDbBlockBegin
  2
*Paper_Space
 70
0
 10
0.0
 20
0.0
 30
0.0
  3
*Paper_Space
  1

  0
ENDBLK
  5
1D
330
1B
100
AcDbEntity
  8
0
100
AcDbBlockEnd
  0
ENDSEC
  0
SECTION
  2
ENTITIES
  0
LWPOLYLINE
  5
2F
330
17
100
AcDbEntity
  8
0
100
AcDbPolyline
 90
5
 70
0
 10
190.9690328040323
 20
89.2685528040323
 10
190.9690328040323
 20
32.652847195967695
 10
-15.646672804032312
 20
32.652847195967695
 10
-15.646672804032312
 20
89.2685528040323
 10
190.9690328040323
 20
89.2685528040323
  0
LWPOLYLINE
  5
30
330
17
100
AcDbEntity
  8
0
100
AcDbPolyline
 90
17
 70
0
 10
-5.106586952966375
 20
46.72846695296637
 10
-5.648518831278222
 20
45.91740858091273
 10
-5.8388200000000055
 20
44.9607
 10
-5.648518831278222
 20
44.00399141908728
 10
-5.106586952966374
 20
43.192933047033634
 10
-4.29552858091273
 20
42.651001168721784
 10
-3.338820000000006
 20
42.4607
 10
-2.3821114190872814
 20
42.651001168721784
 10
-1.571053047033637
 20
43.192933047033634
 10
-1.029121168721789
 20
44.00399141908728
 10
-0.8388200000000059
 20
44.9607
 10
-1.0291211687217898
 20
45.91740858091273
 10
-1.5710530470336375
 20
46.72846695296637
 10
-2.382111419087281
 20
47.27039883127822
 10
-3.3388200000000063
 20
47.4607
 10
-4.295528580912732
 20
47.27039883127822
 10
-5.106586952966375
 20
46.72846695296637
  0
LWPOLYLINE
  5
31
330
17
100
AcDbEntity
  8
0
100
AcDbPolyline
 90
17
 70
0
 10
176.89341304703362
 20
46.72846695296637
 10
176.3514811687218
 20
45.91740858091273
 10
176.16118
 20
44.9607
 10
176.3514811687218
 20
44.00399141908728
 10
176.89341304703365
 20
43.192933047033634
 10
177.70447141908727
 20
42.651001168721784
 10
178.66118
 20
42.4607
 10
179.61788858091273
 20
42.651001168721784
 10
180.42894695296638
 20
43.192933047033634
 10
180.9708788312782
 20
44.00399141908728
 10
181.16118
 20
44.9607
 10
180.9708788312782
 20
45.91740858091273
 10
180.42894695296636
 20
46.72846695296637
 10
179.61788858091273
 20
47.27039883127822
 10
178.66118
 20
47.4607
 10
177.70447141908727
 20
47.27039883127822
 10
176.89341304703362
 20
46.72846695296637
  0
LWPOLYLINE
  5
32
330
17
100
AcDbEntity
  8
0
100
AcDbPolyline
 90
17
 70
0
 10
-5.106586952966375
 20
78.72846695296637
 10
-5.648518831278222
 20
77.91740858091272
 10
-5.8388200000000055
 20
76.9607
 10
-5.648518831278222
 20
76.00399141908728
 10
-5.106586952966374
 20
75.19293304703363
 10
-4.29552858091273
 20
74.65100116872179
 10
-3.338820000000006
 20
74.4607
 10
-2.3821114190872814
 20
74.65100116872179
 10
-1.571053047033637
 20
75.19293304703363
 10
-1.029121168721789
 20
76.00399141908728
 10
-0.8388200000000059
 20
76.9607
 10
-1.0291211687217898
 20
77.91740858091273
 10
-1.5710530470336375
 20
78.72846695296637
 10
-2.382111419087281
 20
79.27039883127821
 10
-3.3388200000000063
 20
79.4607
 10
-4.295528580912732
 20
79.27039883127821
 10
-5.106586952966375
 20
78.72846695296637
  0
LWPOLYLINE
  5
33
330
17
100
AcDbEntity
  8
0
100
AcDbPolyline
 90
17
 70
0
 10
176.89341304703362
 20
78.72846695296637
 10
176.3514811687218
 20
77.91740858091272
 10
176.16118
 20
76.9607
 10
176.3514811687218
 20
76.00399141908728
 10
176.89341304703365
 20
75.19293304703363
 10
177.70447141908727
 20
74.65100116872179
 10
178.66118
 20
74.4607
 10
179.61788858091273
 20
74.65100116872179
 10
180.42894695296638
 20
75.19293304703363
 10
180.9708788312782
 20
76.00399141908728
 10
181.16118
 20
76.9607
 10
180.9708788312782
 20
77.91740858091273
 10
180.42894695296636
 20
78.72846695296637
 10
179.61788858091273
 20
79.27039883127821
 10
178.66118
 20
79.4607
 10
177.70447141908727
 20
79.27039883127821
 10
176.89341304703362
 20
78.72846695296637
  0
LWPOLYLINE
  5
34
330
17
100
AcDbEntity
  8
0
100
AcDbPolyline
 90
11
 70
0
 10
8.035078437499994
 20
41.929918750000006
 10
7.593265937499995
 20
41.849762500000004
 10
7.737062812499994
 20
41.413207812500005
 10
8.397890937499996
 20
41.74616875
 10
9.678953437499995
 20
45.05366875
 10
9.239109687499994
 20
45.05366875
 10
8.504734687499994
 20
42.951325000000004
 10
7.776609687499995
 20
45.05366875
 10
7.303172187499994
 20
45.05366875
 10
8.287547187499994
 20
42.4560125
 10
8.035078437499994
 20
41.929918750000006
  0
LWPOLYLINE
  5
35
330
17
100
AcDbEntity
  8
0
100
AcDbPolyline
 90
15
 70
0
 10
4.698191718749994
 20
44.313825
 10
5.930691718749994
 20
44.7422625
 10
6.349441718749993
 20
44.54935625
 10
6.427097968749994
 20
44.106012500000006
 10
4.936472968749994
 20
43.745075
 10
4.6591604687499935
 20
42.902918750000005
 10
5.198879218749994
 20
42.43548125
 10
6.177129218749995
 20
42.575387500000005
 10
6.463816718749994
 20
42.78023125
 10
6.5513167187499945
 20
42.4607
 10
7.010691718749994
 20
42.4607
 10
6.820262031249994
 20
44.641098437500006
 10
6.3189729687499945
 20
45.0622625
 10
5.279441718749995
 20
45.020075000000006
 10
4.698191718749994
 20
44.313825
  0
LWPOLYLINE
  5
36
330
17
100
AcDbEntity
  8
0
100
AcDbPolyline
 90
14
 70
0
 10
12.293797187499996
 20
43.645075000000006
 10
11.966453437499995
 20
44.758356250000006
 10
11.218609687499995
 20
45.108723437500004
 10
10.311726874999994
 20
44.8192703125
 10
9.908883124999996
 20
43.862918750000006
 10
10.239109687499996
 20
42.752106250000004
 10
11.230156562499996
 20
42.4043015625
 10
12.128367499999996
 20
42.886285937500006
 10
12.281297187499995
 20
43.23960625
 10
11.827390937499995
 20
43.29585625
 10
11.447312812499995
 20
42.825840625000005
 10
10.845750312499995
 20
42.820465625000004
 10
10.366976874999995
 20
43.561606250000004
 10
12.293797187499996
 20
43.645075000000006
  0
LWPOLYLINE
  5
37
330
17
100
AcDbEntity
  8
0
100
AcDbPolyline
 90
10
 70
0
 10
13.666496406249994
 20
45.0981375
 10
13.283465156249997
 20
44.763481250000005
 10
13.223777656249995
 20
45.05366875
 10
12.828465156249996
 20
45.05366875
 10
12.828465156249996
 20
42.4607
 10
13.267527656249996
 20
42.4607
 10
13.390340156249996
 20
44.4433875
 10
14.085496406249995
 20
44.563043750000006
 10
14.237058906249995
 20
44.970856250000004
 10
13.666496406249994
 20
45.0981375
  0
LWPOLYLINE
  5
38
330
17
100
AcDbEntity
  8
0
100
AcDbPolyline
 90
9
 70
0
 10
16.119383124999995
 20
42.77085625
 10
16.733883125
 20
42.414606250000006
 10
17.529890937499996
 20
42.570621875
 10
18.087398749999995
 20
43.8695984375
 10
17.766906562499997
 20
45.6463875
 10
17.252226874999995
 20
46.012543750000006
 10
16.510945624999994
 20
45.97879375
 10
15.812445624999995
 20
44.89829375
 10
16.119383124999995
 20
42.77085625
  0
LWPOLYLINE
  5
39
330
17
100
AcDbEntity
  8
0
100
AcDbPolyline
 90
7
 70
0
 10
2.501023749999994
 20
46.039606250000006
 10
2.0275862499999944
 20
46.039606250000006
 10
2.0275862499999944
 20
42.4607
 10
4.263523749999994
 20
42.4607
 10
4.263523749999994
 20
42.883356250000006
 10
2.501023749999994
 20
42.883356250000006
 10
2.501023749999994
 20
46.039606250000006
  0
LWPOLYLINE
  5
3A
330
17
100
AcDbEntity
  8
0
100
AcDbPolyline
 90
47
 70
0
 10
5.695335016059043
 20
51.1607
 10
4.6964383460347765
 20
51.1607
 10
4.715540105109614
 20
50.96675658541246
 10
4.715587426684565
 20
50.966518683789886
 10
4.864827712727384
 20
50.60622076117332
 10
4.864935047694882
 20
50.606060123042425
 10
5.140695139092038
 20
50.33030003164214
 10
5.140855777222891
 20
50.330192696674665
 10
5.50115369986513
 20
50.1809524106223
 10
5.501391601487638
 20
50.180905089047364
 10
5.696384142908866
 20
50.1617
 10
7.426336696778097
 20
50.1617
 10
7.6213292381993245
 20
50.180905089047364
 10
7.621567139821833
 20
50.1809524106223
 10
7.981865062464072
 20
50.330192696674665
 10
7.9820257005949244
 20
50.33030003164214
 10
8.257785791992085
 20
50.60606012304243
 10
8.257893126959578
 20
50.60622076117332
 10
8.407133413002395
 20
50.96651868378988
 10
8.407180734577349
 20
50.96675658541247
 10
8.426282493652185
 20
51.1607
 10
7.42738582362792
 20
51.1607
 10
7.42738582362792
 20
70.76067563916963
 10
7.427380977957481
 20
70.7607
 10
8.426282493652186
 20
70.7607
 10
8.407180734577349
 20
70.95464341458755
 10
8.407133413002395
 20
70.95488131621013
 10
8.257893126965186
 20
71.31517923881832
 10
8.25778579199771
 20
71.31533987694918
 10
7.982025700569751
 20
71.5910999683747
 10
7.981865062438893
 20
71.59120730334217
 10
7.621567139856911
 20
71.74044758937072
 10
7.62132923823428
 20
71.74049491094569
 10
7.426336696778142
 20
71.75970000000001
 10
5.696384142908821
 20
71.75970000000001
 10
5.501391601452683
 20
71.74049491094569
 10
5.501153699830052
 20
71.74044758937072
 10
5.14085577724807
 20
71.59120730334217
 10
5.140695139117212
 20
71.5910999683747
 10
4.864935047689249
 20
71.31533987694917
 10
4.864827712721778
 20
71.31517923881832
 10
4.715587426684567
 20
70.95488131621013
 10
4.715540105109613
 20
70.95464341458754
 10
4.696438346034776
 20
70.7607
 10
5.695339861729482
 20
70.7607
 10
5.695335016059043
 20
70.76067563916963
 10
5.695335016059043
 20
51.1607
  0
LWPOLYLINE
  5
3B
330
17
100
AcDbEntity
  8
0
100
AcDbPolyline
 90
47
 70
0
 10
33.91554010510658
 20
50.96675658542773
 10
33.91558742668151
 20
50.966518683805226
 10
34.06482771273371
 20
50.60622076116385
 10
34.064935047701184
 20
50.60606012303299
 10
34.34069513909203
 20
50.330300031642146
 10
34.340855777222885
 20
50.33019269667467
 10
34.701153699864264
 20
50.180952410622474
 10
34.70139160148677
 20
50.18090508904754
 10
34.896384142908865
 20
50.1617
 10
36.62633669677809
 20
50.1617
 10
36.821329238200185
 20
50.18090508904754
 10
36.82156713982269
 20
50.180952410622474
 10
37.18186506246407
 20
50.33019269667467
 10
37.18202570059493
 20
50.330300031642146
 10
37.45778579198577
 20
50.60606012303299
 10
37.457893126953245
 20
50.60622076116385
 10
37.60713341300544
 20
50.966518683805226
 10
37.607180734580375
 20
50.96675658542773
 10
37.626282493652184
 20
51.1607
 10
36.62738582362792
 20
51.1607
 10
36.62738582362792
 20
70.76067563916963
 10
36.62738097795748
 20
70.7607
 10
37.626282493652184
 20
70.7607
 10
37.607180734580375
 20
70.95464341457227
 10
37.60713341300544
 20
70.9548813161948
 10
37.45789312695887
 20
71.31517923882775
 10
37.45778579199139
 20
71.31533987695862
 10
37.18202570056976
 20
71.59109996837469
 10
37.181865062438874
 20
71.59120730334219
 10
36.82156713985778
 20
71.74044758937055
 10
36.821329238235144
 20
71.74049491094551
 10
36.62633669677814
 20
71.75970000000001
 10
34.896384142908815
 20
71.75970000000001
 10
34.70139160145181
 20
71.74049491094551
 10
34.70115369982918
 20
71.74044758937055
 10
34.34085577724808
 20
71.59120730334219
 10
34.340695139117194
 20
71.59109996837469
 10
34.06493504769556
 20
71.31533987695862
 10
34.06482771272808
 20
71.31517923882775
 10
33.91558742668151
 20
70.9548813161948
 10
33.91554010510658
 20
70.95464341457227
 10
33.89643834603477
 20
70.7607
 10
34.895339861729475
 20
70.7607
 10
34.895335016059036
 20
70.76067563916963
 10
34.895335016059036
 20
51.1607
 10
33.89643834603477
 20
51.1607
 10
33.91554010510658
 20
50.96675658542773
  0
LWPOLYLINE
  5
3C
330
17
100
AcDbEntity
  8
0
100
AcDbPolyline
 90
47
 70
0
 10
50.91554010510658
 20
50.96675658542773
 10
50.91558742668151
 20
50.966518683805226
 10
51.06482771273371
 20
50.60622076116385
 10
51.064935047701184
 20
50.60606012303299
 10
51.34069513909203
 20
50.330300031642146
 10
51.340855777222885
 20
50.33019269667467
 10
51.701153699864264
 20
50.180952410622474
 10
51.70139160148677
 20
50.18090508904754
 10
51.896384142908865
 20
50.1617
 10
53.62633669677809
 20
50.1617
 10
53.821329238200185
 20
50.18090508904754
 10
53.82156713982269
 20
50.180952410622474
 10
54.18186506246407
 20
50.33019269667467
 10
54.18202570059493
 20
50.330300031642146
 10
54.45778579198577
 20
50.60606012303299
 10
54.457893126953245
 20
50.60622076116385
 10
54.60713341300544
 20
50.966518683805226
 10
54.607180734580375
 20
50.96675658542773
 10
54.626282493652184
 20
51.1607
 10
53.62738582362792
 20
51.1607
 10
53.62738582362792
 20
70.76067563916963
 10
53.62738097795748
 20
70.7607
 10
54.626282493652184
 20
70.7607
 10
54.607180734580375
 20
70.95464341457227
 10
54.60713341300544
 20
70.9548813161948
 10
54.45789312695887
 20
71.31517923882775
 10
54.45778579199139
 20
71.31533987695862
 10
54.18202570056976
 20
71.59109996837469
 10
54.181865062438874
 20
71.59120730334219
 10
53.82156713985778
 20
71.74044758937055
 10
53.821329238235144
 20
71.74049491094551
 10
53.62633669677814
 20
71.75970000000001
 10
51.896384142908815
 20
71.75970000000001
 10
51.70139160145181
 20
71.74049491094551
 10
51.70115369982918
 20
71.74044758937055
 10
51.34085577724808
 20
71.59120730334219
 10
51.340695139117194
 20
71.59109996837469
 10
51.06493504769556
 20
71.31533987695862
 10
51.06482771272808
 20
71.31517923882775
 10
50.91558742668151
 20
70.9548813161948
 10
50.91554010510658
 20
70.95464341457227
 10
50.89643834603477
 20
70.7607
 10
51.895339861729475
 20
70.7607
 10
51.895335016059036
 20
70.76067563916963
 10
51.895335016059036
 20
51.1607
 10
50.89643834603477
 20
51.1607
 10
50.91554010510658
 20
50.96675658542773
  0
LWPOLYLINE
  5
3D
330
17
100
AcDbEntity
  8
0
100
AcDbPolyline
 90
47
 70
0
 10
96.89533501605905
 20
51.1607
 10
95.89643834603478
 20
51.1607
 10
95.91554010511354
 20
50.96675658539277
 10
95.9155874266885
 20
50.96651868377014
 10
96.06482771271686
 20
50.60622076118904
 10
96.06493504768436
 20
50.60606012305816
 10
96.34069513910043
 20
50.330300031636526
 10
96.3408557772313
 20
50.330192696669044
 10
96.70115369986425
 20
50.180952410622474
 10
96.70139160148678
 20
50.18090508904754
 10
96.89638414290886
 20
50.1617
 10
98.62633669677811
 20
50.1617
 10
98.82132923820019
 20
50.18090508904754
 10
98.82156713982272
 20
50.180952410622474
 10
99.18186506245567
 20
50.330192696669044
 10
99.18202570058654
 20
50.330300031636526
 10
99.45778579200261
 20
50.60606012305816
 10
99.4578931269701
 20
50.60622076118904
 10
99.60713341299846
 20
50.96651868377014
 10
99.60718073457343
 20
50.96675658539277
 10
99.62628249365218
 20
51.1607
 10
98.62738582362792
 20
51.1607
 10
98.62738582362792
 20
70.76067563916963
 10
98.62738097795747
 20
70.7607
 10
99.62628249365218
 20
70.7607
 10
99.60718073457343
 20
70.95464341460725
 10
99.60713341299846
 20
70.95488131622987
 10
99.45789312697572
 20
71.31517923880254
 10
99.45778579200824
 20
71.31533987693342
 10
99.18202570056134
 20
71.59109996838032
 10
99.18186506243046
 20
71.5912073033478
 10
98.82156713985779
 20
71.74044758937055
 10
98.82132923823517
 20
71.74049491094551
 10
98.62633669677814
 20
71.75970000000001
 10
96.89638414290883
 20
71.75970000000001
 10
96.7013916014518
 20
71.74049491094551
 10
96.70115369982918
 20
71.74044758937055
 10
96.34085577725651
 20
71.5912073033478
 10
96.34069513912563
 20
71.59109996838032
 10
96.06493504767873
 20
71.31533987693342
 10
96.06482771271125
 20
71.31517923880254
 10
95.9155874266885
 20
70.95488131622987
 10
95.91554010511354
 20
70.95464341460725
 10
95.89643834603478
 20
70.7607
 10
96.8953398617295
 20
70.7607
 10
96.89533501605905
 20
70.76067563916963
 10
96.89533501605905
 20
51.1607
  0
LWPOLYLINE
  5
3E
330
17
100
AcDbEntity
  8
0
100
AcDbPolyline
 90
47
 70
0
 10
158.9155401051135
 20
50.966756585392915
 10
158.9155874266885
 20
50.96651868377014
 10
159.0648277127169
 20
50.60622076118904
 10
159.0649350476844
 20
50.60606012305813
 10
159.34069513908358
 20
50.330300031647816
 10
159.3408557772145
 20
50.33019269668028
 10
159.70115369987127
 20
50.18095241062108
 10
159.70139160149373
 20
50.180905089046156
 10
159.8963841429089
 20
50.1617
 10
161.6263366967781
 20
50.1617
 10
161.82132923819327
 20
50.180905089046156
 10
161.82156713981573
 20
50.18095241062108
 10
162.1818650624725
 20
50.33019269668028
 10
162.18202570060342
 20
50.330300031647816
 10
162.4577857920026
 20
50.60606012305813
 10
162.4578931269701
 20
50.60622076118904
 10
162.6071334129985
 20
50.96651868377014
 10
162.6071807345735
 20
50.966756585392915
 10
162.6262824936522
 20
51.1607
 10
161.62738582362795
 20
51.1607
 10
161.62738582362795
 20
70.76067563916963
 10
161.6273809779575
 20
70.7607
 10
162.6262824936522
 20
70.7607
 10
162.6071807345735
 20
70.9546434146071
 10
162.6071334129985
 20
70.95488131622987
 10
162.4578931269757
 20
71.3151792388026
 10
162.45778579200825
 20
71.31533987693342
 10
162.18202570057824
 20
71.59109996836905
 10
162.18186506244732
 20
71.59120730333656
 10
161.82156713985083
 20
71.74044758937195
 10
161.82132923822826
 20
71.74049491094691
 10
161.62633669677817
 20
71.75970000000001
 10
159.89638414290883
 20
71.75970000000001
 10
159.70139160145874
 20
71.74049491094691
 10
159.70115369983617
 20
71.74044758937195
 10
159.34085577723968
 20
71.59120730333656
 10
159.34069513910876
 20
71.59109996836905
 10
159.06493504767874
 20
71.31533987693342
 10
159.0648277127113
 20
71.3151792388026
 10
158.9155874266885
 20
70.95488131622987
 10
158.9155401051135
 20
70.9546434146071
 10
158.89643834603478
 20
70.7607
 10
159.8953398617295
 20
70.7607
 10
159.89533501605905
 20
70.76067563916963
 10
159.89533501605905
 20
51.1607
 10
158.89643834603478
 20
51.1607
 10
158.9155401051135
 20
50.966756585392915
  0
LWPOLYLINE
  5
3F
330
17
100
AcDbEntity
  8
0
100
AcDbPolyline
 90
5
 70
0
 10
402.58473841209695
 20
89.2685528040323
 10
402.58473841209695
 20
32.652847195967695
 10
195.9690328040323
 20
32.652847195967695
 10
195.9690328040323
 20
89.2685528040323
 10
402.58473841209695
 20
89.2685528040323
  0
LWPOLYLINE
  5
40
330
17
100
AcDbEntity
  8
0
100
AcDbPolyline
 90
17
 70
0
 10
206.50911865509823
 20
46.72846695296637
 10
205.9671867767864
 20
45.91740858091273
 10
205.77688560806462
 20
44.9607
 10
205.9671867767864
 20
44.00399141908728
 10
206.50911865509823
 20
43.192933047033634
 10
207.32017702715189
 20
42.651001168721784
 10
208.27688560806462
 20
42.4607
 10
209.23359418897732
 20
42.651001168721784
 10
210.04465256103097
 20
43.192933047033634
 10
210.58658443934283
 20
44.00399141908728
 10
210.77688560806462
 20
44.9607
 10
210.58658443934283
 20
45.91740858091273
 10
210.04465256103097
 20
46.72846695296637
 10
209.23359418897732
 20
47.27039883127822
 10
208.27688560806462
 20
47.4607
 10
207.32017702715189
 20
47.27039883127822
 10
206.50911865509823
 20
46.72846695296637
  0
LWPOLYLINE
  5
41
330
17
100
AcDbEntity
  8
0
100
AcDbPolyline
 90
17
 70
0
 10
388.50911865509823
 20
46.72846695296637
 10
387.96718677678643
 20
45.91740858091273
 10
387.7768856080646
 20
44.9607
 10
387.96718677678643
 20
44.00399141908728
 10
388.5091186550983
 20
43.192933047033634
 10
389.3201770271519
 20
42.651001168721784
 10
390.2768856080646
 20
42.4607
 10
391.23359418897735
 20
42.651001168721784
 10
392.044652561031
 20
43.192933047033634
 10
392.5865844393428
 20
44.00399141908728
 10
392.7768856080646
 20
44.9607
 10
392.5865844393428
 20
45.91740858091273
 10
392.04465256103094
 20
46.72846695296637
 10
391.23359418897735
 20
47.27039883127822
 10
390.2768856080646
 20
47.4607
 10
389.3201770271519
 20
47.27039883127822
 10
388.50911865509823
 20
46.72846695296637
  0
LWPOLYLINE
  5
42
330
17
100
AcDbEntity
  8
0
100
AcDbPolyline
 90
17
 70
0
 10
206.50911865509823
 20
78.72846695296637
 10
205.9671867767864
 20
77.91740858091272
 10
205.77688560806462
 20
76.9607
 10
205.9671867767864
 20
76.00399141908728
 10
206.50911865509823
 20
75.19293304703363
 10
207.32017702715189
 20
74.65100116872179
 10
208.27688560806462
 20
74.4607
 10
209.23359418897732
 20
74.65100116872179
 10
210.04465256103097
 20
75.19293304703363
 10
210.58658443934283
 20
76.00399141908728
 10
210.77688560806462
 20
76.9607
 10
210.58658443934283
 20
77.91740858091273
 10
210.04465256103097
 20
78.72846695296637
 10
209.23359418897732
 20
79.27039883127821
 10
208.27688560806462
 20
79.4607
 10
207.32017702715189
 20
79.27039883127821
 10
206.50911865509823
 20
78.72846695296637
  0
LWPOLYLINE
  5
43
330
17
100
AcDbEntity
  8
0
100
AcDbPolyline
 90
17
 70
0
 10
388.50911865509823
 20
78.72846695296637
 10
387.96718677678643
 20
77.91740858091272
 10
387.7768856080646
 20
76.9607
 10
387.96718677678643
 20
76.00399141908728
 10
388.5091186550983
 20
75.19293304703363
 10
389.3201770271519
 20
74.65100116872179
 10
390.2768856080646
 20
74.4607
 10
391.23359418897735
 20
74.65100116872179
 10
392.044652561031
 20
75.19293304703363
 10
392.5865844393428
 20
76.00399141908728
 10
392.7768856080646
 20
76.9607
 10
392.5865844393428
 20
77.91740858091273
 10
392.04465256103094
 20
78.72846695296637
 10
391.23359418897735
 20
79.27039883127821
 10
390.2768856080646
 20
79.4607
 10
389.3201770271519
 20
79.27039883127821
 10
388.50911865509823
 20
78.72846695296637
  0
LWPOLYLINE
  5
44
330
17
100
AcDbEntity
  8
0
100
AcDbPolyline
 90
11
 70
0
 10
219.65078404556462
 20
41.929918750000006
 10
219.20897154556462
 20
41.849762500000004
 10
219.35276842056462
 20
41.413207812500005
 10
220.0135965455646
 20
41.74616875
 10
221.2946590455646
 20
45.05366875
 10
220.8548152955646
 20
45.05366875
 10
220.1204402955646
 20
42.951325000000004
 10
219.3923152955646
 20
45.05366875
 10
218.9188777955646
 20
45.05366875
 10
219.9032527955646
 20
42.4560125
 10
219.65078404556462
 20
41.929918750000006
  0
LWPOLYLINE
  5
45
330
17
100
AcDbEntity
  8
0
100
AcDbPolyline
 90
15
 70
0
 10
216.3138973268146
 20
44.313825
 10
217.5463973268146
 20
44.7422625
 10
217.96514732681462
 20
44.54935625
 10
218.0428035768146
 20
44.106012500000006
 10
216.5521785768146
 20
43.745075
 10
216.27486607681462
 20
42.902918750000005
 10
216.8145848268146
 20
42.43548125
 10
217.7928348268146
 20
42.575387500000005
 10
218.0795223268146
 20
42.78023125
 10
218.16702232681462
 20
42.4607
 10
218.6263973268146
 20
42.4607
 10
218.4359676393146
 20
44.641098437500006
 10
217.9346785768146
 20
45.0622625
 10
216.89514732681462
 20
45.020075000000006
 10
216.3138973268146
 20
44.313825
  0
LWPOLYLINE
  5
46
330
17
100
AcDbEntity
  8
0
100
AcDbPolyline
 90
14
 70
0
 10
223.9095027955646
 20
43.645075000000006
 10
223.58215904556462
 20
44.758356250000006
 10
222.8343152955646
 20
45.108723437500004
 10
221.92743248306462
 20
44.8192703125
 10
221.5245887330646
 20
43.862918750000006
 10
221.8548152955646
 20
42.752106250000004
 10
222.8458621705646
 20
42.4043015625
 10
223.7440731080646
 20
42.886285937500006
 10
223.89700279556462
 20
43.23960625
 10
223.4430965455646
 20
43.29585625
 10
223.06301842056462
 20
42.825840625000005
 10
222.46145592056462
 20
42.820465625000004
 10
221.98268248306462
 20
43.561606250000004
 10
223.9095027955646
 20
43.645075000000006
  0
LWPOLYLINE
  5
47
330
17
100
AcDbEntity
  8
0
100
AcDbPolyline
 90
10
 70
0
 10
225.2822020143146
 20
45.0981375
 10
224.89917076431462
 20
44.763481250000005
 10
224.83948326431462
 20
45.05366875
 10
224.4441707643146
 20
45.05366875
 10
224.4441707643146
 20
42.4607
 10
224.8832332643146
 20
42.4607
 10
225.00604576431462
 20
44.4433875
 10
225.70120201431462
 20
44.563043750000006
 10
225.8527645143146
 20
44.970856250000004
 10
225.2822020143146
 20
45.0981375
  0
LWPOLYLINE
  5
48
330
17
100
AcDbEntity
  8
0
100
AcDbPolyline
 90
7
 70
0
 10
213.6432918580646
 20
46.039606250000006
 10
213.6432918580646
 20
42.4607
 10
215.8792293580646
 20
42.4607
 10
215.8792293580646
 20
42.883356250000006
 10
214.11672935806462
 20
42.883356250000006
 10
214.11672935806462
 20
46.039606250000006
 10
213.6432918580646
 20
46.039606250000006
  0
LWPOLYLINE
  5
49
330
17
100
AcDbEntity
  8
0
100
AcDbPolyline
 90
12
 70
0
 10
227.2366512330646
 20
43.31773125
 10
228.7897762330646
 20
43.31773125
 10
228.7897762330646
 20
42.4607
 10
229.2288387330646
 20
42.4607
 10
229.2288387330646
 20
43.31773125
 10
229.71243248306462
 20
43.31773125
 10
229.71243248306462
 20
43.720856250000004
 10
229.2288387330646
 20
43.720856250000004
 10
229.2288387330646
 20
46.039606250000006
 10
228.8702449830646
 20
46.039606250000006
 10
227.2366512330646
 20
43.720856250000004
 10
227.2366512330646
 20
43.31773125
  0
LWPOLYLINE
  5
4A
330
17
100
AcDbEntity
  8
0
100
AcDbPolyline
 90
47
 70
0
 10
217.31104062412365
 20
51.1607
 10
216.31214395409938
 20
51.1607
 10
216.33124571317424
 20
50.96675658541246
 10
216.3312930347492
 20
50.966518683789886
 10
216.480533320792
 20
50.60622076117332
 10
216.4806406557595
 20
50.606060123042425
 10
216.75640074715665
 20
50.33030003164214
 10
216.7565613852875
 20
50.330192696674665
 10
217.11685930792976
 20
50.1809524106223
 10
217.11709720955224
 20
50.180905089047364
 10
217.31208975097348
 20
50.1617
 10
219.0420423048427
 20
50.1617
 10
219.23703484626395
 20
50.180905089047364
 10
219.23727274788644
 20
50.1809524106223
 10
219.59757067052868
 20
50.330192696674665
 10
219.59773130865955
 20
50.33030003164214
 10
219.8734914000567
 20
50.60606012304243
 10
219.8735987350242
 20
50.60622076117332
 10
220.022839021067
 20
50.96651868378988
 10
220.02288634264195
 20
50.96675658541247
 10
220.0419881017168
 20
51.1607
 10
219.04309143169255
 20
51.1607
 10
219.04309143169255
 20
70.76067563916963
 10
219.0430865860221
 20
70.7607
 10
220.0419881017168
 20
70.7607
 10
220.02288634264195
 20
70.95464341458755
 10
220.022839021067
 20
70.95488131621013
 10
219.87359873502982
 20
71.31517923881832
 10
219.87349140006233
 20
71.31533987694918
 10
219.59773130863437
 20
71.5910999683747
 10
219.5975706705035
 20
71.59120730334217
 10
219.23727274792154
 20
71.74044758937072
 10
219.23703484629888
 20
71.74049491094569
 10
219.04204230484277
 20
71.75970000000001
 10
217.31208975097343
 20
71.75970000000001
 10
217.1170972095173
 20
71.74049491094569
 10
217.11685930789466
 20
71.74044758937072
 10
216.7565613853127
 20
71.59120730334217
 10
216.75640074718183
 20
71.5910999683747
 10
216.48064065575386
 20
71.31533987694917
 10
216.4805333207864
 20
71.31517923881832
 10
216.3312930347492
 20
70.95488131621013
 10
216.33124571317424
 20
70.95464341458754
 10
216.31214395409938
 20
70.7607
 10
217.3110454697941
 20
70.7607
 10
217.31104062412365
 20
70.76067563916963
 10
217.31104062412365
 20
51.1607
  0
LWPOLYLINE
  5
4B
330
17
100
AcDbEntity
  8
0
100
AcDbPolyline
 90
47
 70
0
 10
245.5312457131712
 20
50.96675658542773
 10
245.5312930347461
 20
50.966518683805226
 10
245.68053332079833
 20
50.60622076116385
 10
245.68064065576579
 20
50.60606012303299
 10
245.95640074715664
 20
50.330300031642146
 10
245.9565613852875
 20
50.33019269667467
 10
246.3168593079289
 20
50.180952410622474
 10
246.31709720955138
 20
50.18090508904754
 10
246.51208975097347
 20
50.1617
 10
248.2420423048427
 20
50.1617
 10
248.4370348462648
 20
50.18090508904754
 10
248.4372727478873
 20
50.180952410622474
 10
248.79757067052867
 20
50.33019269667467
 10
248.79773130865954
 20
50.330300031642146
 10
249.0734914000504
 20
50.60606012303299
 10
249.07359873501787
 20
50.60622076116385
 10
249.22283902107006
 20
50.966518683805226
 10
249.22288634264498
 20
50.96675658542773
 10
249.2419881017168
 20
51.1607
 10
248.24309143169253
 20
51.1607
 10
248.24309143169253
 20
70.76067563916963
 10
248.2430865860221
 20
70.7607
 10
249.2419881017168
 20
70.7607
 10
249.22288634264498
 20
70.95464341457227
 10
249.22283902107006
 20
70.9548813161948
 10
249.0735987350235
 20
71.31517923882775
 10
249.073491400056
 20
71.31533987695862
 10
248.79773130863438
 20
71.59109996837469
 10
248.7975706705035
 20
71.59120730334219
 10
248.4372727479224
 20
71.74044758937055
 10
248.43703484629975
 20
71.74049491094551
 10
248.24204230484276
 20
71.75970000000001
 10
246.51208975097342
 20
71.75970000000001
 10
246.31709720951642
 20
71.74049491094551
 10
246.3168593078938
 20
71.74044758937055
 10
245.95656138531268
 20
71.59120730334219
 10
245.95640074718182
 20
71.59109996837469
 10
245.6806406557602
 20
71.31533987695862
 10
245.6805333207927
 20
71.31517923882775
 10
245.5312930347461
 20
70.9548813161948
 10
245.5312457131712
 20
70.95464341457227
 10
245.51214395409937
 20
70.7607
 10
246.51104546979408
 20
70.7607
 10
246.51104062412367
 20
70.76067563916963
 10
246.51104062412367
 20
51.1607
 10
245.51214395409937
 20
51.1607
 10
245.5312457131712
 20
50.96675658542773
  0
LWPOLYLINE
  5
4C
330
17
100
AcDbEntity
  8
0
100
AcDbPolyline
 90
47
 70
0
 10
262.5312457131712
 20
50.96675658542773
 10
262.5312930347461
 20
50.966518683805226
 10
262.6805333207983
 20
50.60622076116385
 10
262.6806406557658
 20
50.60606012303299
 10
262.95640074715664
 20
50.330300031642146
 10
262.9565613852875
 20
50.33019269667467
 10
263.3168593079289
 20
50.180952410622474
 10
263.3170972095514
 20
50.18090508904754
 10
263.5120897509735
 20
50.1617
 10
265.2420423048427
 20
50.1617
 10
265.4370348462648
 20
50.18090508904754
 10
265.4372727478873
 20
50.180952410622474
 10
265.79757067052867
 20
50.33019269667467
 10
265.79773130865954
 20
50.330300031642146
 10
266.0734914000504
 20
50.60606012303299
 10
266.07359873501787
 20
50.60622076116385
 10
266.22283902107006
 20
50.966518683805226
 10
266.222886342645
 20
50.96675658542773
 10
266.2419881017168
 20
51.1607
 10
265.2430914316925
 20
51.1607
 10
265.2430914316925
 20
70.76067563916963
 10
265.2430865860221
 20
70.7607
 10
266.2419881017168
 20
70.7607
 10
266.222886342645
 20
70.95464341457227
 10
266.22283902107006
 20
70.9548813161948
 10
266.0735987350235
 20
71.31517923882775
 10
266.073491400056
 20
71.31533987695862
 10
265.79773130863435
 20
71.59109996837469
 10
265.7975706705035
 20
71.59120730334219
 10
265.4372727479224
 20
71.74044758937055
 10
265.43703484629975
 20
71.74049491094551
 10
265.24204230484276
 20
71.75970000000001
 10
263.5120897509734
 20
71.75970000000001
 10
263.3170972095164
 20
71.74049491094551
 10
263.31685930789376
 20
71.74044758937055
 10
262.9565613853127
 20
71.59120730334219
 10
262.9564007471818
 20
71.59109996837469
 10
262.68064065576016
 20
71.31533987695862
 10
262.6805333207927
 20
71.31517923882775
 10
262.5312930347461
 20
70.9548813161948
 10
262.5312457131712
 20
70.95464341457227
 10
262.5121439540994
 20
70.7607
 10
263.5110454697941
 20
70.7607
 10
263.51104062412367
 20
70.76067563916963
 10
263.51104062412367
 20
51.1607
 10
262.5121439540994
 20
51.1607
 10
262.5312457131712
 20
50.96675658542773
  0
LWPOLYLINE
  5
4D
330
17
100
AcDbEntity
  8
0
100
AcDbPolyline
 90
47
 70
0
 10
308.51104062412367
 20
51.1607
 10
307.51214395409943
 20
51.1607
 10
307.5312457131781
 20
50.96675658539277
 10
307.5312930347531
 20
50.96651868377014
 10
307.6805333207815
 20
50.60622076118904
 10
307.68064065574896
 20
50.60606012305816
 10
307.95640074716505
 20
50.330300031636526
 10
307.9565613852959
 20
50.330192696669044
 10
308.3168593079289
 20
50.180952410622474
 10
308.3170972095514
 20
50.18090508904754
 10
308.5120897509735
 20
50.1617
 10
310.2420423048427
 20
50.1617
 10
310.4370348462648
 20
50.18090508904754
 10
310.43727274788733
 20
50.180952410622474
 10
310.79757067052026
 20
50.330192696669044
 10
310.7977313086511
 20
50.330300031636526
 10
311.0734914000672
 20
50.60606012305816
 10
311.0735987350347
 20
50.60622076118904
 10
311.22283902106307
 20
50.96651868377014
 10
311.22288634263805
 20
50.96675658539277
 10
311.2419881017168
 20
51.1607
 10
310.2430914316925
 20
51.1607
 10
310.2430914316925
 20
70.76067563916963
 10
310.24308658602206
 20
70.7607
 10
311.2419881017168
 20
70.7607
 10
311.22288634263805
 20
70.95464341460725
 10
311.22283902106307
 20
70.95488131622987
 10
311.0735987350403
 20
71.31517923880254
 10
311.07349140007284
 20
71.31533987693342
 10
310.79773130862594
 20
71.59109996838032
 10
310.7975706704951
 20
71.5912073033478
 10
310.4372727479224
 20
71.74044758937055
 10
310.43703484629975
 20
71.74049491094551
 10
310.24204230484276
 20
71.75970000000001
 10
308.5120897509735
 20
71.75970000000001
 10
308.3170972095164
 20
71.74049491094551
 10
308.31685930789376
 20
71.74044758937055
 10
307.95656138532115
 20
71.5912073033478
 10
307.95640074719023
 20
71.59109996838032
 10
307.68064065574333
 20
71.31533987693342
 10
307.68053332077585
 20
71.31517923880254
 10
307.5312930347531
 20
70.95488131622987
 10
307.5312457131781
 20
70.95464341460725
 10
307.51214395409943
 20
70.7607
 10
308.5110454697941
 20
70.7607
 10
308.51104062412367
 20
70.76067563916963
 10
308.51104062412367
 20
51.1607
  0
LWPOLYLINE
  5
4E
330
17
100
AcDbEntity
  8
0
100
AcDbPolyline
 90
47
 70
0
 10
370.5312457131781
 20
50.966756585392915
 10
370.5312930347531
 20
50.96651868377014
 10
370.6805333207815
 20
50.60622076118904
 10
370.680640655749
 20
50.60606012305813
 10
370.9564007471482
 20
50.330300031647816
 10
370.9565613852791
 20
50.33019269668028
 10
371.3168593079359
 20
50.18095241062108
 10
371.31709720955837
 20
50.180905089046156
 10
371.5120897509735
 20
50.1617
 10
373.2420423048427
 20
50.1617
 10
373.4370348462579
 20
50.180905089046156
 10
373.43727274788034
 20
50.18095241062108
 10
373.7975706705371
 20
50.33019269668028
 10
373.79773130866806
 20
50.330300031647816
 10
374.0734914000672
 20
50.60606012305813
 10
374.0735987350347
 20
50.60622076118904
 10
374.2228390210631
 20
50.96651868377014
 10
374.2228863426381
 20
50.966756585392915
 10
374.24198810171686
 20
51.1607
 10
373.24309143169256
 20
51.1607
 10
373.24309143169256
 20
70.76067563916963
 10
373.2430865860221
 20
70.7607
 10
374.24198810171686
 20
70.7607
 10
374.2228863426381
 20
70.9546434146071
 10
374.2228390210631
 20
70.95488131622987
 10
374.0735987350403
 20
71.3151792388026
 10
374.07349140007284
 20
71.31533987693342
 10
373.7977313086428
 20
71.59109996836905
 10
373.79757067051196
 20
71.59120730333656
 10
373.4372727479155
 20
71.74044758937195
 10
373.4370348462929
 20
71.74049491094691
 10
373.2420423048428
 20
71.75970000000001
 10
371.5120897509735
 20
71.75970000000001
 10
371.31709720952335
 20
71.74049491094691
 10
371.3168593079008
 20
71.74044758937195
 10
370.9565613853043
 20
71.59120730333656
 10
370.95640074717335
 20
71.59109996836905
 10
370.68064065574333
 20
71.31533987693342
 10
370.6805333207759
 20
71.3151792388026
 10
370.5312930347531
 20
70.95488131622987
 10
370.5312457131781
 20
70.9546434146071
 10
370.51214395409943
 20
70.7607
 10
371.5110454697941
 20
70.7607
 10
371.51104062412367
 20
70.76067563916963
 10
371.51104062412367
 20
51.1607
 10
370.51214395409943
 20
51.1607
 10
370.5312457131781
 20
50.966756585392915
  0
ENDSEC
  0
SECTION
  2
OBJECTS
  0
DICTIONARY
  5
A
330
0
100
AcDbDictionary
281
1
  3
ACAD_COLOR
350
B
  3
ACAD_GROUP
350
C
  3
ACAD_LAYOUT
350
D
  3
ACAD_MATERIAL
350
E
  3
ACAD_MLEADERSTYLE
350
F
  3
ACAD_MLINESTYLE
350
10
  3
ACAD_PLOTSETTINGS
350
11
  3
ACAD_PLOTSTYLENAME
350
12
  3
ACAD_SCALELIST
350
14
  3
ACAD_TABLESTYLE
350
15
  3
ACAD_VISUALSTYLE
350
16
  3
EZDXF_META
350
2D
  0
DICTIONARY
  5
B
330
A
100
AcDbDictionary
281
1
  0
DICTIONARY
  5
C
330
A
100
AcDbDictionary
281
1
  0
DICTIONARY
  5
D
330
A
100
AcDbDictionary
281
1
  3
Model
350
1A
  3
Layout1
350
1E
  0
DICTIONARY
  5
E
330
A
100
AcDbDictionary
281
1
  3
ByBlock
350
1F
  3
ByLayer
350
20
  3
Global
350
21
  0
DICTIONARY
  5
F
330
A
100
AcDbDictionary
281
1
  3
Standard
350
2C
  0
DICTIONARY
  5
10
330
A
100
AcDbDictionary
281
1
  3
Standard
350
22
  0
DICTIONARY
  5
11
330
A
100
AcDbDictionary
281
1
  0
ACDBDICTIONARYWDFLT
  5
12
330
A
100
AcDbDictionary
281
1
  3
Normal
350
13
100
AcDbDictionaryWithDefault
340
13
  0
ACDBPLACEHOLDER
  5
13
330
12
  0
DICTIONARY
  5
14
330
A
100
AcDbDictionary
281
1
  0
DICTIONARY
  5
15
330
A
100
AcDbDictionary
281
1
  0
DICTIONARY
  5
16
330
A
100
AcDbDictionary
281
1
  0
LAYOUT
  5
1A
330
D
100
AcDbPlotSettings
  1

  4
A3
  6

 40
7.5
 41
20.0
 42
7.5
 43
20.0
 44
420.0
 45
297.0
 46
0.0
 47
0.0
 48
0.0
 49
0.0
140
0.0
141
0.0
142
1.0
143
1.0
 70
1024
 72
1
 73
0
 74
5
  7

 75
16
 76
0
 77
2
 78
300
147
1.0
148
0.0
149
0.0
100
AcDbLayout
  1
Model
 70
1
 71
0
 10
0.0
 20
0.0
 11
420.0
 21
297.0
 12
0.0
 22
0.0
 32
0.0
 14
1e+20
 24
1e+20
 34
1e+20
 15
-1e+20
 25
-1e+20
 35
-1e+20
146
0.0
 13
0.0
 23
0.0
 33
0.0
 16
1.0
 26
0.0
 36
0.0
 17
0.0
 27
1.0
 37
0.0
 76
1
330
17
  0
LAYOUT
  5
1E
330
D
100
AcDbPlotSettings
  1

  4
A3
  6

 40
7.5
 41
20.0
 42
7.5
 43
20.0
 44
420.0
 45
297.0
 46
0.0
 47
0.0
 48
0.0
 49
0.0
140
0.0
141
0.0
142
1.0
143
1.0
 70
0
 72
1
 73
0
 74
5
  7

 75
16
 76
0
 77
2
 78
300
147
1.0
148
0.0
149
0.0
100
AcDbLayout
  1
Layout1
 70
1
 71
1
 10
0.0
 20
0.0
 11
420.0
 21
297.0
 12
0.0
 22
0.0
 32
0.0
 14
1e+20
 24
1e+20
 34
1e+20
 15
-1e+20
 25
-1e+20
 35
-1e+20
146
0.0
 13
0.0
 23
0.0
 33
0.0
 16
1.0
 26
0.0
 36
0.0
 17
0.0
 27
1.0
 37
0.0
 76
1
330
1B
  0
MATERIAL
  5
1F
102
{ACAD_REACTORS
330
E
102
}
330
E
100
AcDbMaterial
  1
ByBlock
  2

 70
0
 40
1.0
 71
1
 41
1.0
 91
-1023410177
 42
1.0
 72
1
  3

 73
1
 74
1
 75
1
 44
0.5
 73
0
 45
1.0
 46
1.0
 77
1
  4

 78
1
 79
1
170
1
 48
1.0
171
1
  6

172
1
173
1
174
1
140
1.0
141
1.0
175
1
  7

176
1
177
1
178
1
143
1.0
179
1
  8

270
1
271
1
272
1
145
1.0
146
1.0
273
1
  9

274
1
275
1
276
1
 42
1.0
 72
1
  3

 73
1
 74
1
 75
1
 94
63
  0
MATERIAL
  5
20
102
{ACAD_REACTORS
330
E
102
}
330
E
100
AcDbMaterial
  1
ByLayer
  2

 70
0
 40
1.0
 71
1
 41
1.0
 91
-1023410177
 42
1.0
 72
1
  3

 73
1
 74
1
 75
1
 44
0.5
 73
0
 45
1.0
 46
1.0
 77
1
  4

 78
1
 79
1
170
1
 48
1.0
171
1
  6

172
1
173
1
174
1
140
1.0
141
1.0
175
1
  7

176
1
177
1
178
1
143
1.0
179
1
  8

270
1
271
1
272
1
145
1.0
146
1.0
273
1
  9

274
1
275
1
276
1
 42
1.0
 72
1
  3

 73
1
 74
1
 75
1
 94
63
  0
MATERIAL
  5
21
102
{ACAD_REACTORS
330
E
102
}
330
E
100
AcDbMaterial
  1
Global
  2

 70
0
 40
1.0
 71
1
 41
1.0
 91
-1023410177
 42
1.0
 72
1
  3

 73
1
 74
1
 75
1
 44
0.5
 73
0
 45
1.0
 46
1.0
 77
1
  4

 78
1
 79
1
170
1
 48
1.0
171
1
  6

172
1
173
1
174
1
140
1.0
141
1.0
175
1
  7

176
1
177
1
178
1
143
1.0
179
1
  8

270
1
271
1
272
1
145
1.0
146
1.0
273
1
  9

274
1
275
1
276
1
 42
1.0
 72
1
  3

 73
1
 74
1
 75
1
 94
63
  0
MLINESTYLE
  5
22
102
{ACAD_REACTORS
330
10
102
}
330
10
100
AcDbMlineStyle
  2
Standard
 70
0
  3

 62
256
 51
90.0
 52
90.0
 71
2
 49
0.5
 62
256
  6
BYLAYER
 49
-0.5
 62
256
  6
BYLAYER
  0
MLEADERSTYLE
  5
2C
102
{ACAD_REACTORS
330
F
102
}
330
F
100
AcDbMLeaderStyle
179
2
170
2
171
1
172
0
 90
2
 40
0.0
 41
0.0
173
1
 91
-1056964608
 92
-2
290
1
 42
2.0
291
1
 43
8.0
  3
Standard
 44
4.0
300

342
29
174
1
175
1
176
0
178
1
 93
-1056964608
 45
4.0
292
0
297
0
 46
4.0
 94
-1056964608
 47
1.0
 49
1.0
140
1.0
294
1
141
0.0
177
0
142
1.0
295
0
296
0
143
3.75
271
0
272
9
273
9
  0
DICTIONARY
  5
2D
330
A
100
AcDbDictionary
280
1
281
1
  3
CREATED_BY_EZDXF
350
2E
  3
WRITTEN_BY_EZDXF
350
51
  0
DICTIONARYVAR
  5
2E
330
2D
100
DictionaryVariables
280
0
  1
1.4.2 @ 2025-12-02T20:22:43.899515+00:00
  0
DICTIONARYVAR
  5
51
330
2D
100
DictionaryVariables
280
0
  1
1.4.2 @ 2025-12-02T20:22:43.917152+00:00
  0
ENDSEC
  0
EOF
